<svg xmlns="http://www.w3.org/2000/svg" xmlns:xlink="http://www.w3.org/1999/xlink" width="171.923" height="178.611" viewBox="0 0 171.923 178.611">
  <defs>
    <clipPath id="clip-path">
      <rect id="Rect치ngulo_37831" data-name="Rect치ngulo 37831" width="171.923" height="171.923" fill="none"/>
    </clipPath>
    <clipPath id="clip-path-2">
      <path id="Trazado_115621" data-name="Trazado 115621" d="M85.958,1.5a84.462,84.462,0,1,0,84.464,85.125c0-.221,0-.444,0-.666A84.466,84.466,0,0,0,85.961,1.5h0" fill="none"/>
    </clipPath>
    <radialGradient id="radial-gradient" cx="0.077" cy="0.019" r="1.463" gradientTransform="translate(0 0)" gradientUnits="objectBoundingBox">
      <stop offset="0" stop-color="#f6f6f7"/>
      <stop offset="0.477" stop-color="#f9f9fa"/>
      <stop offset="0.715" stop-color="#fff"/>
      <stop offset="1" stop-color="#fff"/>
    </radialGradient>
  </defs>
  <g id="img17" transform="translate(-96.39 -1343)">
    <g id="Grupo_143105" data-name="Grupo 143105" transform="translate(96.39 1343)">
      <g id="Grupo_143108" data-name="Grupo 143108">
        <g id="Grupo_143107" data-name="Grupo 143107" clip-path="url(#clip-path)">
          <path id="Trazado_115620" data-name="Trazado 115620" d="M170.432,85.962A84.465,84.465,0,1,1,85.964,1.5h0a84.464,84.464,0,0,1,84.464,84.461" fill="#fff"/>
        </g>
      </g>
      <g id="Grupo_143110" data-name="Grupo 143110">
        <g id="Grupo_143109" data-name="Grupo 143109" clip-path="url(#clip-path-2)">
          <rect id="Rect치ngulo_37832" data-name="Rect치ngulo 37832" width="168.924" height="169.106" transform="translate(1.499 1.5)" fill="url(#radial-gradient)"/>
        </g>
      </g>
      <g id="Grupo_143112" data-name="Grupo 143112">
        <g id="Grupo_143111" data-name="Grupo 143111" clip-path="url(#clip-path)">
          <path id="Trazado_115622" data-name="Trazado 115622" d="M170.422,85.958a84.131,84.131,0,1,0,0,.667C170.423,86.4,170.423,86.181,170.422,85.958Z" fill="none" stroke="#5f9025" stroke-miterlimit="10" stroke-width="3"/>
          <path id="Trazado_115623" data-name="Trazado 115623" d="M161.608,51.626c18.677,41.372-2.08,86.24-44.1,104.629-35.844,15.686-77.216,8.192-100.341-23C42.834,170.644,94.428,180.47,132.4,155.2c34.273-22.807,47.361-66.98,29.2-103.574" fill="#eceef0"/>
          <path id="Trazado_115624" data-name="Trazado 115624" d="M139.62,92.848V94.94c-.09.178-.194.35-.267.535a4.628,4.628,0,0,1-6.968,2.331c-.6-.359-1.18-.743-1.771-1.113-1.376-.862-2.752-1.721-4.23-2.645v36.037c2.508,0,4.95.093,7.381-.024,2.923-.141,4.907.98,5.855,3.79v1.882c-.951,2.81-2.941,3.8-5.861,3.8q-36.83-.084-73.661-.033a6.189,6.189,0,0,1-1.149-.029,1.556,1.556,0,0,1,.016-3.082,6.789,6.789,0,0,1,1.151-.025l74.289,0c1.319,0,2.051-.557,2.065-1.546s-.725-1.589-2.02-1.589q-48.513,0-97.027,0c-1.24,0-1.949.565-1.971,1.531-.023,1,.718,1.6,2.005,1.6q5.135.009,10.269,0c1.537,0,3.074-.029,4.61.012,1.372.036,2.186,1.4,1.365,2.377a2.5,2.5,0,0,1-1.708.717c-4.61.057-9.223-.054-13.83.063-2.922.074-4.913-.983-5.861-3.8v-1.882c.966-2.892,3.051-4.067,6-3.757V98.437a4.666,4.666,0,0,1-5.02-1.692A13.478,13.478,0,0,1,32.3,94.94V92.848a6.813,6.813,0,0,1,3.517-3.785c.585-.31,1.1-.747,1.694-1.038a1.492,1.492,0,0,0,.886-1.569c-.032-6.623-.019-13.247-.017-19.871a5.323,5.323,0,0,1,.034-1.043,1.558,1.558,0,0,1,3.074.006,5.4,5.4,0,0,1,.034,1.043q0,8.472,0,16.943V84.9c.448-.544.69-.833.927-1.126,4.275-5.29,8.563-10.57,12.815-15.879a6.852,6.852,0,0,1,3.191-2.246c5.688-2,11.359-4.052,17.048-6.05a1.031,1.031,0,0,0,.83-1.183c-.047-1.986,0-3.974-.02-5.961a12.223,12.223,0,0,0-3.355-8.335,6.785,6.785,0,0,0-5.371-2.34c-5.867.069-11.736.047-17.6.009a6.219,6.219,0,0,0-4.467,1.718A12,12,0,0,0,41.543,52.1c-.081,2.194-.011,4.393-.021,6.589-.005,1.232-.577,1.938-1.55,1.95s-1.581-.693-1.588-1.91c-.011-1.778-.069-3.559.016-5.333a19.852,19.852,0,0,1,.536-4.748c1.427-4.718,3.969-8.516,9.124-9.868.214-.056.449-.5.462-.767.053-1.078.061-2.162.012-3.24a2.555,2.555,0,0,1,.956-2.379H68.354a2.559,2.559,0,0,1,.956,2.38,26.923,26.923,0,0,0,.022,3.239,1.114,1.114,0,0,0,.657.808,9.837,9.837,0,0,1,4.846,2.763,15.266,15.266,0,0,1,4.622,10.766c.036,1.9.006,3.8.006,5.816,1.575-.557,3.028-1.032,4.452-1.585a5.557,5.557,0,0,1,4.075-.008c5.606,2.025,11.227,4.009,16.842,6.007,1.436.511,2.872,1.018,4.436,1.571,0-1.185-.038-2.227.013-3.265a1.214,1.214,0,0,0-.765-1.289,4.7,4.7,0,0,1-2.325-5.336,4.815,4.815,0,0,1,9.293-.171,4.678,4.678,0,0,1-2.222,5.465A1.421,1.421,0,0,0,112.4,61.1c.057,1.147-.035,2.3.046,3.448a1.265,1.265,0,0,0,.65.946,7.507,7.507,0,0,1,4.1,3.068c.671.932,1.436,1.8,2.159,2.693,1.206,1.493,2.425,2.974,3.61,4.483a1.51,1.51,0,0,1,.006,2.022,1.432,1.432,0,0,1-1.89.371,3.2,3.2,0,0,1-.9-.857c-1.981-2.435-3.917-4.907-5.942-7.306a4.724,4.724,0,0,0-1.9-1.349c-8.357-3.028-16.736-5.993-25.1-9a3.523,3.523,0,0,0-2.531-.006c-8.4,3.02-16.808,6-25.2,9.038a4.441,4.441,0,0,0-1.812,1.3c-3.108,3.766-6.246,7.513-9.2,11.4C45.13,85.757,41.6,89.915,36.469,92.4a1.55,1.55,0,0,0-.762,2.353c.507.783,1.36.882,2.383.247,1.837-1.142,3.687-2.265,5.486-3.464a8.794,8.794,0,0,0,1.931-1.713c4.629-5.677,9.206-11.4,13.849-17.062a5.015,5.015,0,0,1,2.061-1.469q11.747-4.269,23.543-8.4a3.409,3.409,0,0,1,2.093.019q11.793,4.134,23.543,8.395a4.66,4.66,0,0,1,1.9,1.355C115.258,76,118,79.34,120.656,82.755c3.684,4.742,7.312,9.519,12.984,12.132a1.75,1.75,0,0,1,.18.108c1.031.631,1.876.549,2.388-.23.542-.826.28-1.719-.738-2.376-1.377-.89-2.725-1.84-4.167-2.61-3.006-1.6-4.531-4.566-6.613-7.012a1.347,1.347,0,0,1,.3-1.967,1.483,1.483,0,0,1,2.088.07,3.788,3.788,0,0,1,.611.713,22.2,22.2,0,0,0,8.412,7.481,6.7,6.7,0,0,1,3.517,3.784m-16.513,37.2c.022-.358.055-.631.055-.9q0-18.77-.02-37.539a2.427,2.427,0,0,0-.515-1.4q-6.111-7.638-12.291-15.221a2.967,2.967,0,0,0-1.227-.892q-11.165-4.021-22.357-7.966a2.564,2.564,0,0,0-1.583,0q-11.191,3.945-22.353,7.978a2.976,2.976,0,0,0-1.228.883q-6.147,7.543-12.224,15.141a2.911,2.911,0,0,0-.582,1.685q-.048,18.561-.022,37.121c0,.364.038.729.058,1.082H59.235V128.6q0-17.253,0-34.506c0-2.4,1.264-3.745,3.516-3.746q23.206-.007,46.413.019a4.254,4.254,0,0,1,1.98.517c1.267.707,1.549,1.943,1.547,3.316q-.021,17.253-.008,34.507v1.34Zm-57.584-.017v-1.457q0-14.745,0-29.489c0-2.078.382-2.463,2.419-2.463h35.938c2.141,0,2.517.366,2.517,2.473q0,14.8,0,29.594v1.339h3.049V93.555H62.44V130.03Zm-19.962-36c-1.167.733-2.14,1.4-3.17,1.969a1.537,1.537,0,0,0-.885,1.566q.042,15.737.021,31.473c0,.334.03.668.045.99h3.989ZM69.8,99.788c2.269,4.022,4.446,7.883,6.729,11.932l6.721-11.932Zm18.869.01L95.4,111.719,102.11,99.8Zm-5.418,30.255-6.728-11.919-6.712,11.919Zm5.434-.025H102.1l-6.709-11.893-6.705,11.893M68.954,104.686l-.175.041V125.14c2.012-3.235,3.859-6.5,5.676-9.783a1.019,1.019,0,0,0,.013-.842c-1.82-3.286-3.671-6.556-5.514-9.829M84.1,125.158l.183-.037v-20.4c-2.031,3.256-3.9,6.547-5.727,9.857a1.04,1.04,0,0,0,.074.846c1.808,3.253,3.643,6.493,5.47,9.735m3.516.057c.159-.114.229-.138.257-.187,1.818-3.211,3.647-6.416,5.424-9.649a1.382,1.382,0,0,0-.1-1.112c-1.127-2.082-2.3-4.136-3.467-6.2-.642-1.136-1.29-2.268-1.934-3.4l-.177.055Zm15.56-20.478-.2-.057c-1.857,3.3-3.726,6.584-5.546,9.9A1.318,1.318,0,0,0,97.6,115.6c1.377,2.5,2.787,4.981,4.19,7.465.4.708.813,1.41,1.219,2.114l.172-.061ZM66.119,35.611H51.76v2.972H66.119ZM110.9,53.763a1.658,1.658,0,0,0-1.692,1.627,1.623,1.623,0,0,0,1.605,1.7,1.682,1.682,0,0,0,1.722-1.609,1.732,1.732,0,0,0-1.635-1.715" fill="#12263f"/>
          <path id="Trazado_115625" data-name="Trazado 115625" d="M110.537,34.283a19.321,19.321,0,0,1,11.615,3.683,2.557,2.557,0,0,1,1.011,1.661c.052,1.306-1.428,1.834-2.645.984a16.665,16.665,0,0,0-6.454-2.834A16.055,16.055,0,0,0,101.7,40.284c-.233.154-.453.327-.692.47a1.587,1.587,0,0,1-2.226-.353,1.55,1.55,0,0,1,.443-2.2,18.675,18.675,0,0,1,9.082-3.718c.863-.112,1.735-.157,2.229-.2" fill="#12263f"/>
          <path id="Trazado_115626" data-name="Trazado 115626" d="M110.826,39.819a15.025,15.025,0,0,1,8.913,2.849c.985.7,1.214,1.606.63,2.4-.556.756-1.435.831-2.4.193q-7.148-4.708-14.265.042a1.6,1.6,0,0,1-2.39-.262c-.536-.782-.308-1.631.624-2.325a15.166,15.166,0,0,1,8.891-2.9" fill="#12263f"/>
          <path id="Trazado_115627" data-name="Trazado 115627" d="M110.885,45.511a10.441,10.441,0,0,1,6.19,1.934c1,.7,1.239,1.6.674,2.393a1.642,1.642,0,0,1-2.4.222,7.657,7.657,0,0,0-8.934-.018c-1.02.653-1.944.564-2.473-.24s-.25-1.677.754-2.376a10.412,10.412,0,0,1,6.194-1.915" fill="#12263f"/>
          <path id="Trazado_115628" data-name="Trazado 115628" d="M85.98,75.823c3.069,0,6.14-.056,9.208.018a4.755,4.755,0,0,1,4.65,4.268A4.834,4.834,0,0,1,96.379,85.4a6.86,6.86,0,0,1-1.858.232c-5.72.017-11.441.037-17.161,0-3.434-.022-5.646-2.4-5.273-5.563a4.822,4.822,0,0,1,4.894-4.247c3-.04,6-.009,9-.009Zm-.016,3.127c-2.828,0-5.657-.019-8.485.016a3.313,3.313,0,0,0-1.581.374,1.542,1.542,0,0,0-.611,1.937,1.892,1.892,0,0,0,2.083,1.229c5.726,0,11.453.008,17.179-.007,1.417,0,2.207-.705,2.178-1.834-.028-1.091-.787-1.706-2.173-1.711-2.864-.011-5.727,0-8.59,0" fill="#12263f"/>
        </g>
      </g>
    </g>
    <g id="Grupo_143106" data-name="Grupo 143106" transform="translate(203.5 1480.705)">
      <path id="Trazado_113904" data-name="Trazado 113904" d="M309.419,201.1c-8.869,6.141-15.468,15.175-21.286,23.147a2.193,2.193,0,0,0-.3,2.034,2.126,2.126,0,0,0,1.5,1.385,44.14,44.14,0,0,0,31.232-3.646A44.631,44.631,0,0,0,341.4,200.314a2.2,2.2,0,0,0,.141-.844,2.234,2.234,0,0,0,.209-.38,2.2,2.2,0,0,0-.048-1.873,2.16,2.16,0,0,0-1.083-1.02C331.429,192.258,319.473,194.14,309.419,201.1Z" transform="translate(-287.289 -191.596)" fill="#9fbe37"/>
      <path id="Trazado_113905" data-name="Trazado 113905" d="M295.094,214.6a.741.741,0,0,0,.613.85l.084.015c2.578.419,5.166.766,7.754,1.1,1.361.182,2.728.338,4.1.491q-2.97,1.584-5.95,3.159-6.856,3.6-13.769,7.107l-.006,0a.642.642,0,0,0,.541,1.164c4.789-2.013,9.48-4.215,14.137-6.494,2.148-1.047,4.278-2.136,6.4-3.237-.23.476-.461.951-.7,1.427l-2.109,4.343c-1.37,2.914-2.734,5.83-4,8.8a.644.644,0,0,0,1.149.577c1.624-2.785,3.15-5.621,4.669-8.459l2.226-4.284c.712-1.4,1.451-2.776,2.139-4.182,1.343-.715,2.692-1.424,4.032-2.145,1.591-.879,3.168-1.789,4.744-2.7l-.82,2.917c-.464,1.69-.96,3.374-1.4,5.073-.9,3.392-1.786,6.787-2.57,10.212a.642.642,0,0,0,1.232.356c1.167-3.314,2.229-6.659,3.281-10.006.539-1.669,1.017-3.356,1.529-5.034l1.5-5.043.015-.075q2.979-1.75,5.926-3.56c.843-.532,1.681-1.074,2.519-1.615-.344,2.354-.7,4.705-.981,7.072-.383,2.952-.742,5.911-1.026,8.878a.643.643,0,0,0,1.268.2c.622-2.917,1.173-5.845,1.7-8.777.556-2.926.987-5.872,1.487-8.806a1.6,1.6,0,0,0,0-.171c2.68-1.789,11.406-7.239,13.982-9.18a.7.7,0,0,0-.8-1.149l-.009.006c-2.89,1.864-11.881,7.293-14.813,9.091-3.114-.622-6.24-1.179-9.36-1.756-3.386-.574-6.769-1.149-10.179-1.6a.7.7,0,0,0-.266,1.376c3.332.847,6.689,1.573,10.045,2.3,2.315.467,4.631.936,6.949,1.391-.529.32-1.056.652-1.588.969q-3.32,1.952-6.659,3.871c-2.821-.377-5.642-.781-8.471-1.107-3.12-.377-6.246-.733-9.381-1a.7.7,0,0,0-.2,1.388c3.087.613,6.189,1.137,9.291,1.642,1.855.311,3.715.586,5.576.858-1.2.673-2.39,1.358-3.6,2.016-1.412.79-2.839,1.555-4.263,2.327-2.435-.23-4.864-.494-7.3-.682q-3.446-.278-6.9-.47a.668.668,0,0,0-.3-.072l-.739.006A.742.742,0,0,0,295.094,214.6Z" transform="translate(-287.565 -193.309)" fill="#507533"/>
    </g>
  </g>
</svg>
