<svg id="img14" xmlns="http://www.w3.org/2000/svg" xmlns:xlink="http://www.w3.org/1999/xlink" width="602.379" height="315.412" viewBox="0 0 602.379 315.412">
  <defs>
    <clipPath id="clip-path">
      <rect id="Rectángulo_37822" data-name="Rectángulo 37822" width="602.379" height="315.412" fill="none"/>
    </clipPath>
    <clipPath id="clip-path-3">
      <rect id="Rectángulo_37767" data-name="Rectángulo 37767" width="67.754" height="17.163" fill="none"/>
    </clipPath>
    <clipPath id="clip-path-4">
      <rect id="Rectángulo_37768" data-name="Rectángulo 37768" width="82.087" height="20.795" fill="none"/>
    </clipPath>
    <clipPath id="clip-path-5">
      <rect id="Rectángulo_37769" data-name="Rectángulo 37769" width="108.975" height="18.209" fill="none"/>
    </clipPath>
    <clipPath id="clip-path-6">
      <rect id="Rectángulo_37771" data-name="Rectángulo 37771" width="216.754" height="144.139" fill="none"/>
    </clipPath>
  </defs>
  <g id="Grupo_143090" data-name="Grupo 143090" clip-path="url(#clip-path)">
    <g id="Grupo_143089" data-name="Grupo 143089">
      <g id="Grupo_143088" data-name="Grupo 143088" clip-path="url(#clip-path)">
        <g id="Grupo_143078" data-name="Grupo 143078" transform="translate(149.529 133.692)" opacity="0.5">
          <g id="Grupo_143077" data-name="Grupo 143077">
            <g id="Grupo_143076" data-name="Grupo 143076" clip-path="url(#clip-path-3)">
              <path id="Trazado_115256" data-name="Trazado 115256" d="M216.861,210s3.388-9.476,11.489-8.423c0,0,11.761-15.794,24.3-2.106,0,0,13.332-3.392,23.2,2.937,6.583,4.219,8.758,8.645,8.758,8.645Z" transform="translate(-216.861 -193.893)" fill="#f6fbff"/>
            </g>
          </g>
        </g>
        <g id="Grupo_143081" data-name="Grupo 143081" transform="translate(100.479 97.19)" opacity="0.5">
          <g id="Grupo_143080" data-name="Grupo 143080">
            <g id="Grupo_143079" data-name="Grupo 143079" clip-path="url(#clip-path-4)">
              <path id="Trazado_115257" data-name="Trazado 115257" d="M145.724,160.474s4.1-11.48,13.919-10.2c0,0,14.249-19.135,29.444-2.551,0,0,16.153-4.11,28.114,3.558,7.976,5.111,10.61,10.474,10.61,10.474Z" transform="translate(-145.724 -140.954)" fill="#f6fbff"/>
            </g>
          </g>
        </g>
        <g id="Grupo_143084" data-name="Grupo 143084" transform="translate(237.991 89.769)" opacity="0.5">
          <g id="Grupo_143083" data-name="Grupo 143083">
            <g id="Grupo_143082" data-name="Grupo 143082" clip-path="url(#clip-path-5)">
              <path id="Trazado_115258" data-name="Trazado 115258" d="M345.158,147.283a19.2,19.2,0,0,1,18.478-8.936s18.917-16.757,39.089-2.234c0,0,21.443-3.6,37.323,3.115,10.587,4.476,14.085,9.172,14.085,9.172Z" transform="translate(-345.158 -130.191)" fill="#f6fbff"/>
            </g>
          </g>
        </g>
        <path id="Trazado_115259" data-name="Trazado 115259" d="M571.477,289.255c-.389,1.656-.825,3.357-1.312,5.058-.439,1.7-1.023,3.5-1.653,5.3-.293.873-.634,1.751-.924,2.624-1.022,2.774-2.188,5.641-3.6,8.609-.439.972-.876,1.994-1.363,2.968-.122.3-.263.61-.41.913-.088.181-.181.362-.272.543H504.118l-16.925-.045H335.65l-21.413-.024h-.066l-22.561-.027H174.716l-48.73-.048H37.861s-.03-.08-.091-.237c-.016-.048-.034-.1-.059-.162-.072-.189-.168-.445-.29-.77l-.048-.1v-.048a.181.181,0,0,1-.048-.1,13.354,13.354,0,0,1-.535-1.36c-.1-.245-.194-.538-.341-.828v-.1l-.048-.048c-.668-1.736-1.5-4-2.452-6.727q-.127-.371-.263-.751c-.716-2.063-1.5-4.374-2.342-6.919-1.994-6.176-4.281-13.714-6.517-22.225-.876-3.357-1.752-6.857-2.579-10.507-.487-2.106-.977-4.3-1.446-6.514q-.2-.974-.4-1.949c-.86-4.147-1.669-8.42-2.4-12.786-.961-5.734-1.787-11.627-2.415-17.612q-.466-4.4-.785-8.87c0-.077-.013-.157-.016-.234s-.013-.159-.019-.239c-.288-4.19-.468-8.409-.522-12.626q-.063-5.092.125-10.174c.1-2.286.242-4.574.388-6.86.389-4.863.972-9.727,1.8-14.444.535-3.21,1.214-6.421,1.994-9.533A108.192,108.192,0,0,1,26.43,140.58c1.216-2.383,2.481-4.718,3.892-7,3.16-5.2,6.37-10.068,9.631-14.638H40c1.7-2.431,3.4-4.717,5.105-6.908a180.964,180.964,0,0,1,19.358-21.5c80-74.847,171.726-2.625,228.485-52.865,55.489-49.071,159.326-49.8,205.77-4.523.876.876,1.8,1.751,2.675,2.723a75.44,75.44,0,0,1,16.883,27.946,80.379,80.379,0,0,1,4.009,26.937q-.024,1.537-.1,3.1a103.668,103.668,0,0,1-1.626,13.816q-.867,4.728-2.194,9.66a160.875,160.875,0,0,1-9.141,24.8q-.587,1.238-1.169,2.481c-12.693,26.554-2.236,42.456,13.765,57,9.87,9,21.788,17.461,31.709,27.576,1.312,1.36,2.577,2.724,3.841,4.134.485.561.961,1.123,1.432,1.693,1.326,1.6,2.6,3.235,3.82,4.92q.927,1.309,1.789,2.662a59.511,59.511,0,0,1,4.483,8.393,54.823,54.823,0,0,1,2.3,6.392,54.052,54.052,0,0,1,1.791,8.864,67.669,67.669,0,0,1-1.515,23" transform="translate(-4.418 0)" fill="#d8e9ff"/>
        <path id="Trazado_115260" data-name="Trazado 115260" d="M421.832,412.679h-175.8l-73.285-.048H40.222s-.077-.133-.226-.4c-.108-.189-.251-.445-.438-.769l-.072-.1v-.048s-.072-.05-.072-.1a11.32,11.32,0,0,1-.8-1.36,8.218,8.218,0,0,0-.514-.828v-.1l-.071-.048c-1-1.736-2.25-4-3.688-6.727l-.394-.75c-.716-2.063-1.5-4.374-2.343-6.919-1.993-6.176-4.281-13.714-6.517-22.225-.876-3.357-1.751-6.857-2.579-10.507-.487-2.106-.977-4.3-1.445-6.514q-.2-.974-.4-1.949c-.861-4.147-1.67-8.42-2.4-12.786-1.433-8.548-2.564-17.455-3.2-26.481,56.924,2.933,166.654,10.656,249.193,29.09C380.718,369.128,409.5,373.329,458.837,378c27.61,2.611-3.9,19.933-37,34.683" transform="translate(-4.676 -97.501)" fill="#ffcd76"/>
        <path id="Trazado_115261" data-name="Trazado 115261" d="M458.534,292.3l-4.127,80.721h4.127l1.857-80.721Z" transform="translate(-141.087 -90.756)" fill="#a7c7ff"/>
        <path id="Trazado_115262" data-name="Trazado 115262" d="M460.867,273.907l1.049,4.97,18.778-22.286Z" transform="translate(-143.093 -79.668)" fill="#a7c7ff"/>
        <path id="Trazado_115263" data-name="Trazado 115263" d="M468.372,290.189l-5.066-.379,16.17,24.245Z" transform="translate(-143.85 -89.982)" fill="#a7c7ff"/>
        <path id="Trazado_115264" data-name="Trazado 115264" d="M443.847,294.241l2.941-4.142-29.113,1.32Z" transform="translate(-129.682 -90.072)" fill="#a7c7ff"/>
        <path id="Trazado_115265" data-name="Trazado 115265" d="M458.273,288.789a2.27,2.27,0,1,1,2.27,2.27,2.27,2.27,0,0,1-2.27-2.27" transform="translate(-142.287 -88.96)" fill="#a7c7ff"/>
        <path id="Trazado_115266" data-name="Trazado 115266" d="M343.6,371.9S192.94,330.587,145.446,326.426s-2,5.564-2,5.564,128.932,33.919,159.1,47.9S343.6,371.9,343.6,371.9" transform="translate(-38.44 -101.029)" fill="#ffbf65"/>
        <path id="Trazado_115267" data-name="Trazado 115267" d="M289.276,405.313s-130.265-62.5-172.8-74.234-2.742,4.668-2.742,4.668,111.719,52.2,136.849,69.85,38.7-.283,38.7-.283" transform="translate(-30.063 -101.482)" fill="#ffbf65"/>
        <path id="Trazado_115268" data-name="Trazado 115268" d="M305.607,314.224,302.229,380.3h3.378l1.52-66.072Z" transform="translate(-93.838 -97.562)" fill="#a7c7ff"/>
        <path id="Trazado_115269" data-name="Trazado 115269" d="M307.517,299.165l.858,4.068,15.37-18.241Z" transform="translate(-95.48 -88.486)" fill="#a7c7ff"/>
        <path id="Trazado_115270" data-name="Trazado 115270" d="M313.66,312.492l-4.147-.31,13.235,19.845Z" transform="translate(-96.099 -96.928)" fill="#a7c7ff"/>
        <path id="Trazado_115271" data-name="Trazado 115271" d="M293.586,315.809l2.407-3.39-23.829,1.08Z" transform="translate(-84.503 -97.001)" fill="#a7c7ff"/>
        <path id="Trazado_115272" data-name="Trazado 115272" d="M305.394,311.345a1.858,1.858,0,1,1,1.858,1.858,1.858,1.858,0,0,1-1.858-1.858" transform="translate(-94.82 -96.091)" fill="#a7c7ff"/>
        <path id="Trazado_115273" data-name="Trazado 115273" d="M575.952,371.916q-.463,6.041-1.515,12.578c-.016.1-.032.194-.05.3-.376,2.229-.8,4.512-1.262,6.8-.439,2.388-1.023,4.909-1.653,7.432-.292,1.225-.633,2.454-.923,3.679-1.023,3.89-2.188,7.906-3.6,12.067-.439,1.363-.876,2.795-1.362,4.161-.123.426-.264.854-.41,1.28H40.672c-.072-.266-.168-.623-.29-1.078l-.048-.135v-.067a.3.3,0,0,1-.048-.139c-.194-.543-.341-1.16-.535-1.906-.1-.343-.194-.753-.341-1.16v-.139l-.048-.067c-.668-2.433-1.5-5.6-2.452-9.428-.787-3.155-1.664-6.748-2.606-10.752-1.994-8.657-4.281-19.222-6.517-31.154-.876-4.7-1.752-9.613-2.579-14.726-.487-2.952-.977-6.027-1.445-9.131,48.078,18.264,171.723,59.307,260.024,36.355,15.868-4.123,33.376-7.816,51.747-11.116q6.157-1.111,12.437-2.157c47.631-7.97,99.705-13.493,143.343-17.3h.011c.5-.043,1-.088,1.507-.13l1.475-.128c.6-.05,1.192-.1,1.786-.154,1.236-.1,2.462-.21,3.684-.311l.477-.04q1.406-.12,2.8-.234,5.143-.431,10.086-.825l2.212-.176q1.223-.1,2.426-.194c1.083-.086,2.159-.168,3.226-.253l1.967-.152q1.749-.137,3.468-.266l1.682-.128c.769-.059,1.533-.115,2.292-.173.061-.005.123-.011.186-.014l3.69-.277c.386-.03.775-.056,1.158-.085.021,0,.037,0,.05-.006a.225.225,0,0,1,.03,0c9.841-.729,18.679-1.347,26.242-1.871,1.326,1.6,2.6,3.234,3.821,4.919q.926,1.309,1.789,2.662a59.518,59.518,0,0,1,4.483,8.393,54.644,54.644,0,0,1,2.3,6.391,53.991,53.991,0,0,1,1.791,8.864" transform="translate(-7.378 -105.665)" fill="#78b62e"/>
        <path id="Trazado_115274" data-name="Trazado 115274" d="M461.234,373.8c-12.464,7.008-39.336,24.945-55.849,56.8-.117.221-.232.444-.346.668l-12.554-.668-3.927-.209c.378-1.063,17.889-27.609,60.239-54.434q6.157-1.109,12.437-2.157" transform="translate(-120.642 -116.059)" fill="#bada95"/>
        <path id="Trazado_115275" data-name="Trazado 115275" d="M426.741,428.863c.4-1.12,20.763-32.1,71.072-60.126l3.96,3.1s-38.7,17.005-59.46,57.863Z" transform="translate(-132.497 -114.488)" fill="#bada95"/>
        <path id="Trazado_115276" data-name="Trazado 115276" d="M479.49,428.863c.4-1.12,20.763-32.1,71.072-60.126l3.96,3.1s-38.7,17.005-59.46,57.863Z" transform="translate(-148.875 -114.488)" fill="#bada95"/>
        <path id="Trazado_115277" data-name="Trazado 115277" d="M701.9,343.563s-70.49,7.172-114.508,52.52l-27.773-7.959c.767-1.12,30.919-24.612,98.071-41.012h.01c16.095-1.4,31.044-2.575,44.2-3.549" transform="translate(-173.753 -106.671)" fill="#bada95"/>
        <path id="Trazado_115278" data-name="Trazado 115278" d="M745.554,360.236c-31.665,7.645-82.354,25.164-120.259,63.544H601.028L583.2,418.62c1.131-1.749,49.46-42.185,157.875-66.777a59.558,59.558,0,0,1,4.483,8.393" transform="translate(-181.074 -109.242)" fill="#bada95"/>
        <path id="Trazado_115279" data-name="Trazado 115279" d="M451.918,445.449l.362-.093c-.146-.645-.506-13.641,3.57-21.218l-.329-.177c-4.132,7.678-3.743,20.954-3.6,21.489" transform="translate(-140.29 -131.633)" fill="#5e9f5c"/>
        <path id="Trazado_115280" data-name="Trazado 115280" d="M458.465,414.121s1.283,2.692.5,3.9-1.426-2.235-.5-3.9" transform="translate(-142.205 -128.579)" fill="#ffcd76"/>
        <path id="Trazado_115281" data-name="Trazado 115281" d="M459.491,428.723s-1.283-2.692-.5-3.9,1.426,2.236.5,3.9" transform="translate(-142.431 -131.824)" fill="#ffcd76"/>
        <path id="Trazado_115282" data-name="Trazado 115282" d="M454.943,415.313s2.378,1.8,2.24,3.229-2.3-1.328-2.24-3.229" transform="translate(-141.253 -128.949)" fill="#ffcd76"/>
        <path id="Trazado_115283" data-name="Trazado 115283" d="M462.547,427.767s-2.379-1.8-2.24-3.229,2.3,1.328,2.24,3.229" transform="translate(-142.917 -131.69)" fill="#ffcd76"/>
        <path id="Trazado_115284" data-name="Trazado 115284" d="M452.215,418.121s2.936.523,3.462,1.861-2.648-.142-3.462-1.861" transform="translate(-140.406 -129.821)" fill="#ffcd76"/>
        <path id="Trazado_115285" data-name="Trazado 115285" d="M464.7,425.693s-2.936-.523-3.462-1.861,2.648.142,3.462,1.861" transform="translate(-143.19 -131.433)" fill="#ffcd76"/>
        <path id="Trazado_115286" data-name="Trazado 115286" d="M451.333,424.328s2.352-1.833,3.7-1.33-1.876,1.874-3.7,1.33" transform="translate(-140.132 -131.308)" fill="#ffcd76"/>
        <path id="Trazado_115287" data-name="Trazado 115287" d="M465.624,421.5s-2.632,1.4-3.872.676,2.169-1.525,3.872-.676" transform="translate(-143.285 -130.756)" fill="#ffcd76"/>
        <path id="Trazado_115288" data-name="Trazado 115288" d="M453.214,426.742s1.462-2.6,2.9-2.655-1.007,2.454-2.9,2.655" transform="translate(-140.716 -131.673)" fill="#ffcd76"/>
        <path id="Trazado_115289" data-name="Trazado 115289" d="M464.514,417.506s-1.462,2.6-2.9,2.655,1.007-2.454,2.9-2.655" transform="translate(-143.191 -129.63)" fill="#ffcd76"/>
        <path id="Trazado_115290" data-name="Trazado 115290" d="M456.006,428.477s.192-2.976,1.462-3.648.155,2.648-1.462,3.648" transform="translate(-141.583 -131.876)" fill="#ffcd76"/>
        <path id="Trazado_115291" data-name="Trazado 115291" d="M462.117,415.213s-.192,2.976-1.462,3.648-.155-2.648,1.462-3.648" transform="translate(-142.856 -128.918)" fill="#ffcd76"/>
        <path id="Trazado_115292" data-name="Trazado 115292" d="M451.114,421.94s2.786-1.064,3.925-.189-2.342,1.243-3.925.189" transform="translate(-140.064 -130.841)" fill="#ffcd76"/>
        <path id="Trazado_115293" data-name="Trazado 115293" d="M460.392,421.508a2.076,2.076,0,1,0-2.076,2.076,2.076,2.076,0,0,0,2.076-2.076" transform="translate(-141.656 -130.228)" fill="#2c5ca8"/>
        <path id="Trazado_115294" data-name="Trazado 115294" d="M452.989,436.86a7.2,7.2,0,0,1,4.3-1.962,19.062,19.062,0,0,1,3.257,0,7.3,7.3,0,0,1-3.361,1.962,15.358,15.358,0,0,1-4.194,0" transform="translate(-140.647 -135.012)" fill="#5e9f5c"/>
        <path id="Trazado_115295" data-name="Trazado 115295" d="M450.927,433.5c-.315-.274-.552-2.514-2.483-3.075a18.284,18.284,0,0,0-3.3-.669s1.673,2.91,2.892,3.347a9.6,9.6,0,0,0,2.892.4" transform="translate(-138.211 -133.432)" fill="#5e9f5c"/>
        <path id="Trazado_115296" data-name="Trazado 115296" d="M437.76,443.738l.426-.109c-.171-.76-.6-16.054,4.2-24.971l-.388-.208c-4.862,9.036-4.4,24.66-4.24,25.289" transform="translate(-135.89 -129.922)" fill="#5e9f5c"/>
        <path id="Trazado_115297" data-name="Trazado 115297" d="M445.465,406.869s1.51,3.168.59,4.587-1.678-2.631-.59-4.587" transform="translate(-138.144 -126.327)" fill="#ffcd76"/>
        <path id="Trazado_115298" data-name="Trazado 115298" d="M446.672,424.055s-1.51-3.168-.59-4.588,1.678,2.632.59,4.588" transform="translate(-138.41 -130.147)" fill="#ffcd76"/>
        <path id="Trazado_115299" data-name="Trazado 115299" d="M441.318,408.273s2.8,2.117,2.637,3.8-2.7-1.563-2.637-3.8" transform="translate(-137.023 -126.763)" fill="#ffcd76"/>
        <path id="Trazado_115300" data-name="Trazado 115300" d="M450.268,422.93s-2.8-2.117-2.637-3.8,2.7,1.563,2.637,3.8" transform="translate(-138.981 -129.989)" fill="#ffcd76"/>
        <path id="Trazado_115301" data-name="Trazado 115301" d="M438.109,411.577s3.455.616,4.074,2.19-3.117-.167-4.074-2.19" transform="translate(-136.027 -127.789)" fill="#ffcd76"/>
        <path id="Trazado_115302" data-name="Trazado 115302" d="M452.8,420.488s-3.455-.616-4.074-2.19,3.117.167,4.074,2.19" transform="translate(-139.302 -129.686)" fill="#ffcd76"/>
        <path id="Trazado_115303" data-name="Trazado 115303" d="M437.072,418.882s2.768-2.157,4.352-1.565-2.208,2.206-4.352,1.565" transform="translate(-135.705 -129.539)" fill="#ffcd76"/>
        <path id="Trazado_115304" data-name="Trazado 115304" d="M453.889,415.554s-3.1,1.651-4.556.795,2.553-1.794,4.556-.795" transform="translate(-139.414 -128.89)" fill="#ffcd76"/>
        <path id="Trazado_115305" data-name="Trazado 115305" d="M439.285,421.724s1.721-3.059,3.411-3.123-1.185,2.887-3.411,3.123" transform="translate(-136.392 -129.969)" fill="#ffcd76"/>
        <path id="Trazado_115306" data-name="Trazado 115306" d="M452.583,410.854s-1.721,3.059-3.411,3.123,1.185-2.887,3.411-3.123" transform="translate(-139.303 -127.564)" fill="#ffcd76"/>
        <path id="Trazado_115307" data-name="Trazado 115307" d="M442.57,423.766s.226-3.5,1.722-4.293.182,3.116-1.722,4.293" transform="translate(-137.412 -130.208)" fill="#ffcd76"/>
        <path id="Trazado_115308" data-name="Trazado 115308" d="M449.762,408.156s-.226,3.5-1.721,4.293-.183-3.116,1.721-4.293" transform="translate(-138.909 -126.727)" fill="#ffcd76"/>
        <path id="Trazado_115309" data-name="Trazado 115309" d="M436.814,416.073s3.279-1.252,4.62-.222-2.757,1.463-4.62.222" transform="translate(-135.624 -128.99)" fill="#ffcd76"/>
        <path id="Trazado_115310" data-name="Trazado 115310" d="M447.732,415.563a2.443,2.443,0,1,0-2.443,2.443,2.443,2.443,0,0,0,2.443-2.443" transform="translate(-137.497 -128.268)" fill="#2c5ca8"/>
        <path id="Trazado_115311" data-name="Trazado 115311" d="M438.029,442.575a8.473,8.473,0,0,1,5.056-2.309,22.424,22.424,0,0,1,3.833,0,8.582,8.582,0,0,1-3.954,2.309,18.069,18.069,0,0,1-4.935,0" transform="translate(-136.002 -136.676)" fill="#5e9f5c"/>
        <path id="Trazado_115312" data-name="Trazado 115312" d="M435.6,438.617c-.371-.323-.65-2.959-2.922-3.619a21.481,21.481,0,0,0-3.884-.787s1.969,3.426,3.4,3.939a11.3,11.3,0,0,0,3.4.467" transform="translate(-133.135 -134.817)" fill="#5e9f5c"/>
        <path id="Trazado_115313" data-name="Trazado 115313" d="M454.849,448.292l.255-.065c-.1-.456-.358-9.633,2.521-14.983l-.232-.125c-2.917,5.422-2.642,14.8-2.544,15.173" transform="translate(-141.207 -134.477)" fill="#5e9f5c"/>
        <path id="Trazado_115314" data-name="Trazado 115314" d="M459.472,426.171s.906,1.9.354,2.753-1.007-1.579-.354-2.753" transform="translate(-142.56 -132.32)" fill="#ffcd76"/>
        <path id="Trazado_115315" data-name="Trazado 115315" d="M460.2,436.483s-.906-1.9-.354-2.753,1.007,1.579.354,2.753" transform="translate(-142.719 -134.612)" fill="#ffcd76"/>
        <path id="Trazado_115316" data-name="Trazado 115316" d="M456.985,427.013s1.68,1.27,1.582,2.28-1.62-.938-1.582-2.28" transform="translate(-141.887 -132.581)" fill="#ffcd76"/>
        <path id="Trazado_115317" data-name="Trazado 115317" d="M462.354,435.807s-1.68-1.27-1.582-2.28,1.62.938,1.582,2.28" transform="translate(-143.062 -134.517)" fill="#ffcd76"/>
        <path id="Trazado_115318" data-name="Trazado 115318" d="M455.059,429s2.073.37,2.444,1.314-1.87-.1-2.444-1.314" transform="translate(-141.289 -133.197)" fill="#ffcd76"/>
        <path id="Trazado_115319" data-name="Trazado 115319" d="M463.874,434.342s-2.073-.37-2.445-1.314,1.871.1,2.445,1.314" transform="translate(-143.254 -134.335)" fill="#ffcd76"/>
        <path id="Trazado_115320" data-name="Trazado 115320" d="M454.436,433.378s1.661-1.295,2.611-.939-1.325,1.324-2.611.939" transform="translate(-141.096 -134.247)" fill="#ffcd76"/>
        <path id="Trazado_115321" data-name="Trazado 115321" d="M464.527,431.382s-1.858.99-2.734.477,1.532-1.077,2.734-.477" transform="translate(-143.322 -133.858)" fill="#ffcd76"/>
        <path id="Trazado_115322" data-name="Trazado 115322" d="M455.764,435.084s1.033-1.836,2.047-1.874-.711,1.732-2.047,1.874" transform="translate(-141.508 -134.505)" fill="#ffcd76"/>
        <path id="Trazado_115323" data-name="Trazado 115323" d="M463.743,428.562s-1.033,1.835-2.046,1.874.711-1.732,2.046-1.874" transform="translate(-143.255 -133.062)" fill="#ffcd76"/>
        <path id="Trazado_115324" data-name="Trazado 115324" d="M457.735,436.309s.136-2.1,1.033-2.576.11,1.87-1.033,2.576" transform="translate(-142.12 -134.648)" fill="#ffcd76"/>
        <path id="Trazado_115325" data-name="Trazado 115325" d="M462.051,426.943s-.136,2.1-1.033,2.576-.11-1.87,1.033-2.576" transform="translate(-143.019 -132.56)" fill="#ffcd76"/>
        <path id="Trazado_115326" data-name="Trazado 115326" d="M454.281,431.693s1.967-.752,2.772-.133-1.654.878-2.772.133" transform="translate(-141.048 -133.917)" fill="#ffcd76"/>
        <path id="Trazado_115327" data-name="Trazado 115327" d="M460.832,431.387a1.466,1.466,0,1,0-1.466,1.466,1.466,1.466,0,0,0,1.466-1.466" transform="translate(-142.171 -133.484)" fill="#2c5ca8"/>
        <path id="Trazado_115328" data-name="Trazado 115328" d="M455.01,447.6a5.089,5.089,0,0,1,3.035-1.385,13.431,13.431,0,0,1,2.3,0,5.154,5.154,0,0,1-2.373,1.385,10.845,10.845,0,0,1-2.961,0" transform="translate(-141.274 -138.53)" fill="#5e9f5c"/>
        <path id="Trazado_115329" data-name="Trazado 115329" d="M453.554,445.221c-.223-.194-.39-1.776-1.753-2.171a12.871,12.871,0,0,0-2.331-.472s1.181,2.055,2.042,2.363a6.787,6.787,0,0,0,2.042.28" transform="translate(-139.554 -137.414)" fill="#5e9f5c"/>
        <path id="Trazado_115330" data-name="Trazado 115330" d="M475.422,443.738l.426-.109c-.171-.76-.6-16.054,4.2-24.971l-.388-.208c-4.862,9.036-4.4,24.66-4.241,25.289" transform="translate(-147.583 -129.922)" fill="#5e9f5c"/>
        <path id="Trazado_115331" data-name="Trazado 115331" d="M483.127,406.869s1.51,3.168.591,4.587-1.679-2.631-.591-4.587" transform="translate(-149.837 -126.327)" fill="#ffcd76"/>
        <path id="Trazado_115332" data-name="Trazado 115332" d="M484.334,424.055s-1.511-3.168-.59-4.588,1.678,2.632.59,4.588" transform="translate(-150.103 -130.147)" fill="#ffcd76"/>
        <path id="Trazado_115333" data-name="Trazado 115333" d="M478.98,408.273s2.8,2.117,2.637,3.8-2.7-1.563-2.637-3.8" transform="translate(-148.716 -126.763)" fill="#ffcd76"/>
        <path id="Trazado_115334" data-name="Trazado 115334" d="M487.93,422.93s-2.8-2.117-2.637-3.8,2.7,1.563,2.637,3.8" transform="translate(-150.674 -129.989)" fill="#ffcd76"/>
        <path id="Trazado_115335" data-name="Trazado 115335" d="M475.772,411.577s3.455.616,4.074,2.19-3.117-.167-4.074-2.19" transform="translate(-147.72 -127.789)" fill="#ffcd76"/>
        <path id="Trazado_115336" data-name="Trazado 115336" d="M490.464,420.488s-3.455-.616-4.074-2.19,3.117.167,4.074,2.19" transform="translate(-150.996 -129.686)" fill="#ffcd76"/>
        <path id="Trazado_115337" data-name="Trazado 115337" d="M474.733,418.882s2.768-2.157,4.352-1.565-2.207,2.206-4.352,1.565" transform="translate(-147.398 -129.539)" fill="#ffcd76"/>
        <path id="Trazado_115338" data-name="Trazado 115338" d="M491.552,415.554s-3.1,1.651-4.556.795,2.553-1.794,4.556-.795" transform="translate(-151.108 -128.89)" fill="#ffcd76"/>
        <path id="Trazado_115339" data-name="Trazado 115339" d="M476.947,421.724s1.721-3.059,3.411-3.123-1.185,2.887-3.411,3.123" transform="translate(-148.085 -129.969)" fill="#ffcd76"/>
        <path id="Trazado_115340" data-name="Trazado 115340" d="M490.245,410.854s-1.721,3.059-3.411,3.123,1.185-2.887,3.411-3.123" transform="translate(-150.997 -127.564)" fill="#ffcd76"/>
        <path id="Trazado_115341" data-name="Trazado 115341" d="M480.233,423.766s.225-3.5,1.72-4.293.183,3.116-1.72,4.293" transform="translate(-149.105 -130.208)" fill="#ffcd76"/>
        <path id="Trazado_115342" data-name="Trazado 115342" d="M487.425,408.156s-.226,3.5-1.722,4.293-.182-3.116,1.722-4.293" transform="translate(-150.603 -126.727)" fill="#ffcd76"/>
        <path id="Trazado_115343" data-name="Trazado 115343" d="M474.476,416.073s3.279-1.252,4.62-.222-2.757,1.463-4.62.222" transform="translate(-147.318 -128.99)" fill="#ffcd76"/>
        <path id="Trazado_115344" data-name="Trazado 115344" d="M485.394,415.563a2.443,2.443,0,1,0-2.443,2.443,2.443,2.443,0,0,0,2.443-2.443" transform="translate(-149.191 -128.268)" fill="#2c5ca8"/>
        <path id="Trazado_115345" data-name="Trazado 115345" d="M476.683,433.63a8.476,8.476,0,0,1,5.057-2.308,22.424,22.424,0,0,1,3.833,0,8.582,8.582,0,0,1-3.954,2.308,18.075,18.075,0,0,1-4.936,0" transform="translate(-148.003 -133.899)" fill="#5e9f5c"/>
        <path id="Trazado_115346" data-name="Trazado 115346" d="M474.256,429.672c-.371-.323-.65-2.959-2.922-3.619a21.478,21.478,0,0,0-3.884-.787s1.969,3.426,3.4,3.939a11.3,11.3,0,0,0,3.4.467" transform="translate(-145.137 -132.039)" fill="#5e9f5c"/>
        <path id="Trazado_115347" data-name="Trazado 115347" d="M464.017,442.8l.426-.118c-.171-.823-.6-17.369,4.2-27.017l-.387-.225c-4.862,9.777-4.4,26.68-4.241,27.36" transform="translate(-144.042 -128.99)" fill="#5e9f5c"/>
        <path id="Trazado_115348" data-name="Trazado 115348" d="M471.722,402.917s1.51,3.428.59,4.963-1.678-2.847-.59-4.963" transform="translate(-146.296 -125.1)" fill="#ffcd76"/>
        <path id="Trazado_115349" data-name="Trazado 115349" d="M472.929,421.51s-1.51-3.428-.59-4.963,1.678,2.847.59,4.963" transform="translate(-146.562 -129.233)" fill="#ffcd76"/>
        <path id="Trazado_115350" data-name="Trazado 115350" d="M467.576,404.435s2.8,2.29,2.636,4.112-2.7-1.691-2.636-4.112" transform="translate(-145.175 -125.571)" fill="#ffcd76"/>
        <path id="Trazado_115351" data-name="Trazado 115351" d="M476.525,420.292s-2.8-2.29-2.637-4.112,2.7,1.691,2.637,4.112" transform="translate(-147.133 -129.061)" fill="#ffcd76"/>
        <path id="Trazado_115352" data-name="Trazado 115352" d="M464.367,408.01s3.455.666,4.074,2.369-3.117-.18-4.074-2.369" transform="translate(-144.179 -126.681)" fill="#ffcd76"/>
        <path id="Trazado_115353" data-name="Trazado 115353" d="M479.059,417.651s-3.455-.666-4.074-2.369,3.117.18,4.074,2.369" transform="translate(-147.455 -128.734)" fill="#ffcd76"/>
        <path id="Trazado_115354" data-name="Trazado 115354" d="M463.329,415.913s2.768-2.335,4.352-1.694-2.207,2.387-4.352,1.694" transform="translate(-143.857 -128.575)" fill="#ffcd76"/>
        <path id="Trazado_115355" data-name="Trazado 115355" d="M480.148,412.312s-3.1,1.786-4.556.861,2.553-1.942,4.556-.861" transform="translate(-147.567 -127.872)" fill="#ffcd76"/>
        <path id="Trazado_115356" data-name="Trazado 115356" d="M465.542,418.988s1.721-3.31,3.411-3.379-1.185,3.124-3.411,3.379" transform="translate(-144.544 -129.04)" fill="#ffcd76"/>
        <path id="Trazado_115357" data-name="Trazado 115357" d="M478.841,407.228s-1.721,3.31-3.411,3.38,1.185-3.124,3.411-3.38" transform="translate(-147.456 -126.438)" fill="#ffcd76"/>
        <path id="Trazado_115358" data-name="Trazado 115358" d="M468.828,421.2s.226-3.79,1.721-4.645.183,3.37-1.721,4.645" transform="translate(-145.564 -129.298)" fill="#ffcd76"/>
        <path id="Trazado_115359" data-name="Trazado 115359" d="M476.02,404.308s-.226,3.79-1.721,4.645-.183-3.371,1.721-4.645" transform="translate(-147.062 -125.532)" fill="#ffcd76"/>
        <path id="Trazado_115360" data-name="Trazado 115360" d="M463.071,412.874s3.279-1.355,4.62-.24-2.757,1.582-4.62.24" transform="translate(-143.777 -127.98)" fill="#ffcd76"/>
        <path id="Trazado_115361" data-name="Trazado 115361" d="M473.989,412.323a2.451,2.451,0,1,0-2.443,2.643,2.549,2.549,0,0,0,2.443-2.643" transform="translate(-145.65 -127.2)" fill="#2c5ca8"/>
        <path id="Trazado_115362" data-name="Trazado 115362" d="M464.286,441.547a8.269,8.269,0,0,1,5.057-2.5,20.779,20.779,0,0,1,3.833,0,8.517,8.517,0,0,1-3.954,2.5,16.745,16.745,0,0,1-4.936,0" transform="translate(-144.154 -136.297)" fill="#5e9f5c"/>
        <path id="Trazado_115363" data-name="Trazado 115363" d="M461.858,437.265c-.371-.35-.65-3.2-2.922-3.915a20.04,20.04,0,0,0-3.884-.851s1.969,3.706,3.4,4.261a10.484,10.484,0,0,0,3.4.5" transform="translate(-141.287 -134.285)" fill="#5e9f5c"/>
        <path id="Trazado_115364" data-name="Trazado 115364" d="M478.871,447.084l.3-.077c-.121-.536-.421-11.336,2.967-17.632l-.273-.148c-3.434,6.381-3.11,17.413-2.995,17.857" transform="translate(-148.662 -133.269)" fill="#5e9f5c"/>
        <path id="Trazado_115365" data-name="Trazado 115365" d="M484.312,421.051s1.067,2.237.417,3.239-1.185-1.858-.417-3.239" transform="translate(-150.254 -130.73)" fill="#ffcd76"/>
        <path id="Trazado_115366" data-name="Trazado 115366" d="M485.164,433.186s-1.066-2.237-.417-3.239,1.186,1.858.417,3.239" transform="translate(-150.442 -133.428)" fill="#ffcd76"/>
        <path id="Trazado_115367" data-name="Trazado 115367" d="M481.385,422.042s1.977,1.495,1.862,2.684-1.908-1.1-1.862-2.684" transform="translate(-149.463 -131.038)" fill="#ffcd76"/>
        <path id="Trazado_115368" data-name="Trazado 115368" d="M487.7,432.391s-1.977-1.495-1.862-2.684,1.908,1.1,1.862,2.684" transform="translate(-150.845 -133.316)" fill="#ffcd76"/>
        <path id="Trazado_115369" data-name="Trazado 115369" d="M479.118,424.375s2.44.435,2.877,1.547-2.2-.118-2.877-1.547" transform="translate(-148.759 -131.762)" fill="#ffcd76"/>
        <path id="Trazado_115370" data-name="Trazado 115370" d="M489.493,430.667s-2.44-.435-2.877-1.546,2.2.117,2.877,1.546" transform="translate(-151.072 -133.102)" fill="#ffcd76"/>
        <path id="Trazado_115371" data-name="Trazado 115371" d="M478.385,429.533s1.955-1.524,3.073-1.105-1.559,1.558-3.073,1.105" transform="translate(-148.532 -132.998)" fill="#ffcd76"/>
        <path id="Trazado_115372" data-name="Trazado 115372" d="M490.261,427.183s-2.187,1.165-3.218.561,1.8-1.267,3.218-.561" transform="translate(-151.151 -132.54)" fill="#ffcd76"/>
        <path id="Trazado_115373" data-name="Trazado 115373" d="M479.948,431.539s1.215-2.16,2.408-2.206-.837,2.039-2.408,2.206" transform="translate(-149.017 -133.302)" fill="#ffcd76"/>
        <path id="Trazado_115374" data-name="Trazado 115374" d="M489.339,423.865s-1.215,2.16-2.408,2.206.836-2.039,2.408-2.206" transform="translate(-151.073 -131.604)" fill="#ffcd76"/>
        <path id="Trazado_115375" data-name="Trazado 115375" d="M482.268,432.982s.16-2.473,1.216-3.032.129,2.2-1.216,3.032" transform="translate(-149.737 -133.47)" fill="#ffcd76"/>
        <path id="Trazado_115376" data-name="Trazado 115376" d="M487.347,421.959s-.16,2.473-1.216,3.031-.129-2.2,1.216-3.031" transform="translate(-150.795 -131.012)" fill="#ffcd76"/>
        <path id="Trazado_115377" data-name="Trazado 115377" d="M478.2,427.549s2.315-.884,3.262-.157-1.947,1.033-3.262.157" transform="translate(-148.475 -132.61)" fill="#ffcd76"/>
        <path id="Trazado_115378" data-name="Trazado 115378" d="M485.912,427.189a1.725,1.725,0,1,0-1.725,1.725,1.725,1.725,0,0,0,1.725-1.725" transform="translate(-149.798 -132.101)" fill="#2c5ca8"/>
        <path id="Trazado_115379" data-name="Trazado 115379" d="M479.061,446.263a5.986,5.986,0,0,1,3.571-1.63,15.872,15.872,0,0,1,2.706,0,6.063,6.063,0,0,1-2.793,1.63,12.762,12.762,0,0,1-3.485,0" transform="translate(-148.742 -138.038)" fill="#5e9f5c"/>
        <path id="Trazado_115380" data-name="Trazado 115380" d="M477.347,443.468c-.262-.228-.458-2.089-2.063-2.555a15.2,15.2,0,0,0-2.743-.555s1.39,2.419,2.4,2.781a7.982,7.982,0,0,0,2.4.33" transform="translate(-146.717 -136.725)" fill="#5e9f5c"/>
        <path id="Trazado_115381" data-name="Trazado 115381" d="M494.832,449.336l.216-.055c-.087-.387-.3-8.162,2.136-12.7l-.2-.106c-2.472,4.594-2.24,12.537-2.156,12.857" transform="translate(-153.624 -135.52)" fill="#5e9f5c"/>
        <path id="Trazado_115382" data-name="Trazado 115382" d="M498.749,430.592s.767,1.611.3,2.332-.853-1.338-.3-2.332" transform="translate(-154.77 -133.693)" fill="#ffcd76"/>
        <path id="Trazado_115383" data-name="Trazado 115383" d="M499.363,439.329s-.768-1.611-.3-2.332.853,1.338.3,2.332" transform="translate(-154.905 -135.635)" fill="#ffcd76"/>
        <path id="Trazado_115384" data-name="Trazado 115384" d="M496.642,431.3s1.423,1.076,1.34,1.932-1.374-.794-1.34-1.932" transform="translate(-154.2 -133.914)" fill="#ffcd76"/>
        <path id="Trazado_115385" data-name="Trazado 115385" d="M501.191,438.757s-1.423-1.076-1.34-1.932,1.374.794,1.34,1.932" transform="translate(-155.195 -135.554)" fill="#ffcd76"/>
        <path id="Trazado_115386" data-name="Trazado 115386" d="M495.01,432.986s1.757.313,2.071,1.114-1.585-.085-2.071-1.114" transform="translate(-153.694 -134.436)" fill="#ffcd76"/>
        <path id="Trazado_115387" data-name="Trazado 115387" d="M502.48,437.516s-1.757-.313-2.071-1.114,1.585.085,2.071,1.114" transform="translate(-155.359 -135.401)" fill="#ffcd76"/>
        <path id="Trazado_115388" data-name="Trazado 115388" d="M494.482,436.7s1.407-1.1,2.213-.8-1.123,1.121-2.213.8" transform="translate(-153.53 -135.326)" fill="#ffcd76"/>
        <path id="Trazado_115389" data-name="Trazado 115389" d="M503.032,435.007s-1.575.839-2.316.4,1.3-.912,2.316-.4" transform="translate(-155.416 -134.996)" fill="#ffcd76"/>
        <path id="Trazado_115390" data-name="Trazado 115390" d="M495.608,438.144s.875-1.556,1.734-1.588-.6,1.468-1.734,1.588" transform="translate(-153.879 -135.544)" fill="#ffcd76"/>
        <path id="Trazado_115391" data-name="Trazado 115391" d="M502.369,432.618s-.875,1.555-1.734,1.588.6-1.468,1.734-1.588" transform="translate(-155.359 -134.322)" fill="#ffcd76"/>
        <path id="Trazado_115392" data-name="Trazado 115392" d="M497.278,439.182s.115-1.781.875-2.183.093,1.585-.875,2.183" transform="translate(-154.398 -135.665)" fill="#ffcd76"/>
        <path id="Trazado_115393" data-name="Trazado 115393" d="M500.935,431.246s-.115,1.78-.875,2.183-.092-1.584.875-2.183" transform="translate(-155.159 -133.896)" fill="#ffcd76"/>
        <path id="Trazado_115394" data-name="Trazado 115394" d="M494.351,435.271s1.667-.636,2.349-.113-1.4.744-2.349.113" transform="translate(-153.489 -135.046)" fill="#ffcd76"/>
        <path id="Trazado_115395" data-name="Trazado 115395" d="M499.9,435.012a1.242,1.242,0,1,0-1.242,1.242,1.242,1.242,0,0,0,1.242-1.242" transform="translate(-154.441 -134.679)" fill="#2c5ca8"/>
        <path id="Trazado_115396" data-name="Trazado 115396" d="M495.473,444.2a4.311,4.311,0,0,1,2.571-1.174,11.434,11.434,0,0,1,1.949,0,4.363,4.363,0,0,1-2.011,1.174,9.2,9.2,0,0,1-2.509,0" transform="translate(-153.837 -137.542)" fill="#5e9f5c"/>
        <path id="Trazado_115397" data-name="Trazado 115397" d="M494.24,442.186c-.188-.164-.33-1.5-1.486-1.84a10.956,10.956,0,0,0-1.975-.4s1,1.741,1.731,2a5.745,5.745,0,0,0,1.73.237" transform="translate(-152.38 -136.597)" fill="#5e9f5c"/>
        <path id="Trazado_115398" data-name="Trazado 115398" d="M486.361,448.312l.255-.065c-.1-.454-.356-9.6,2.514-14.94l-.232-.125c-2.909,5.406-2.635,14.754-2.537,15.13" transform="translate(-150.991 -134.497)" fill="#5e9f5c"/>
        <path id="Trazado_115399" data-name="Trazado 115399" d="M490.971,426.254s.9,1.9.353,2.745-1-1.575-.353-2.745" transform="translate(-152.34 -132.346)" fill="#ffcd76"/>
        <path id="Trazado_115400" data-name="Trazado 115400" d="M491.694,436.536s-.9-1.9-.353-2.745,1,1.575.353,2.745" transform="translate(-152.499 -134.631)" fill="#ffcd76"/>
        <path id="Trazado_115401" data-name="Trazado 115401" d="M488.491,427.094s1.675,1.267,1.578,2.274-1.616-.936-1.578-2.274" transform="translate(-151.669 -132.607)" fill="#ffcd76"/>
        <path id="Trazado_115402" data-name="Trazado 115402" d="M493.845,435.862s-1.675-1.267-1.577-2.274,1.616.936,1.577,2.274" transform="translate(-152.841 -134.536)" fill="#ffcd76"/>
        <path id="Trazado_115403" data-name="Trazado 115403" d="M486.571,429.071s2.067.368,2.437,1.31-1.864-.1-2.437-1.31" transform="translate(-151.073 -133.22)" fill="#ffcd76"/>
        <path id="Trazado_115404" data-name="Trazado 115404" d="M495.362,434.4s-2.068-.368-2.437-1.31,1.864.1,2.437,1.31" transform="translate(-153.033 -134.356)" fill="#ffcd76"/>
        <path id="Trazado_115405" data-name="Trazado 115405" d="M485.95,433.441s1.656-1.291,2.6-.936-1.321,1.32-2.6.936" transform="translate(-150.881 -134.267)" fill="#ffcd76"/>
        <path id="Trazado_115406" data-name="Trazado 115406" d="M496.012,431.45s-1.853.987-2.726.476,1.528-1.074,2.726-.476" transform="translate(-153.1 -133.879)" fill="#ffcd76"/>
        <path id="Trazado_115407" data-name="Trazado 115407" d="M487.274,435.141s1.03-1.83,2.041-1.869-.71,1.728-2.041,1.869" transform="translate(-151.292 -134.525)" fill="#ffcd76"/>
        <path id="Trazado_115408" data-name="Trazado 115408" d="M495.23,428.638s-1.029,1.83-2.041,1.869.71-1.727,2.041-1.869" transform="translate(-153.034 -133.086)" fill="#ffcd76"/>
        <path id="Trazado_115409" data-name="Trazado 115409" d="M489.24,436.362s.134-2.1,1.029-2.568.109,1.864-1.029,2.568" transform="translate(-151.902 -134.667)" fill="#ffcd76"/>
        <path id="Trazado_115410" data-name="Trazado 115410" d="M493.543,427.023s-.136,2.1-1.03,2.568-.109-1.864,1.03-2.568" transform="translate(-152.798 -132.585)" fill="#ffcd76"/>
        <path id="Trazado_115411" data-name="Trazado 115411" d="M485.8,431.76s1.961-.749,2.764-.132-1.649.875-2.764.132" transform="translate(-150.833 -133.939)" fill="#ffcd76"/>
        <path id="Trazado_115412" data-name="Trazado 115412" d="M492.328,431.455a1.462,1.462,0,1,0-1.462,1.462,1.462,1.462,0,0,0,1.462-1.462" transform="translate(-151.953 -133.507)" fill="#2c5ca8"/>
        <path id="Trazado_115413" data-name="Trazado 115413" d="M486.522,447.616a5.073,5.073,0,0,1,3.026-1.381,13.359,13.359,0,0,1,2.293,0,5.138,5.138,0,0,1-2.366,1.381,10.816,10.816,0,0,1-2.953,0" transform="translate(-151.058 -138.538)" fill="#5e9f5c"/>
        <path id="Trazado_115414" data-name="Trazado 115414" d="M485.07,445.248c-.222-.193-.389-1.77-1.748-2.165a12.872,12.872,0,0,0-2.324-.47s1.178,2.049,2.036,2.356a6.76,6.76,0,0,0,2.036.279" transform="translate(-149.343 -137.425)" fill="#5e9f5c"/>
        <path id="Trazado_115415" data-name="Trazado 115415" d="M496.586,451.037l.153-.039c-.061-.272-.214-5.763,1.508-8.964l-.139-.074c-1.746,3.243-1.581,8.853-1.522,9.078" transform="translate(-154.173 -137.222)" fill="#5e9f5c"/>
        <path id="Trazado_115416" data-name="Trazado 115416" d="M499.351,437.8s.542,1.138.212,1.647-.6-.944-.212-1.647" transform="translate(-154.982 -135.931)" fill="#ffcd76"/>
        <path id="Trazado_115417" data-name="Trazado 115417" d="M499.786,443.971s-.542-1.138-.212-1.647.6.945.212,1.647" transform="translate(-155.077 -137.302)" fill="#ffcd76"/>
        <path id="Trazado_115418" data-name="Trazado 115418" d="M497.864,438.306s1.005.76.947,1.365-.97-.561-.947-1.365" transform="translate(-154.579 -136.088)" fill="#ffcd76"/>
        <path id="Trazado_115419" data-name="Trazado 115419" d="M501.076,443.567s-1.005-.76-.947-1.365.97.561.947,1.365" transform="translate(-155.282 -137.246)" fill="#ffcd76"/>
        <path id="Trazado_115420" data-name="Trazado 115420" d="M496.711,439.492s1.24.221,1.462.786-1.119-.06-1.462-.786" transform="translate(-154.222 -136.456)" fill="#ffcd76"/>
        <path id="Trazado_115421" data-name="Trazado 115421" d="M501.986,442.691s-1.24-.221-1.462-.786,1.118.06,1.462.786" transform="translate(-155.398 -137.137)" fill="#ffcd76"/>
        <path id="Trazado_115422" data-name="Trazado 115422" d="M496.339,442.114s.994-.774,1.562-.562-.792.792-1.562.562" transform="translate(-154.106 -137.084)" fill="#ffcd76"/>
        <path id="Trazado_115423" data-name="Trazado 115423" d="M502.377,440.919s-1.112.592-1.636.285.916-.644,1.636-.285" transform="translate(-155.438 -136.851)" fill="#ffcd76"/>
        <path id="Trazado_115424" data-name="Trazado 115424" d="M497.133,443.135s.618-1.1,1.225-1.122-.425,1.037-1.225,1.122" transform="translate(-154.353 -137.239)" fill="#ffcd76"/>
        <path id="Trazado_115425" data-name="Trazado 115425" d="M501.907,439.232s-.618,1.1-1.225,1.121.425-1.036,1.225-1.121" transform="translate(-155.398 -136.375)" fill="#ffcd76"/>
        <path id="Trazado_115426" data-name="Trazado 115426" d="M498.313,443.867s.081-1.258.618-1.541.065,1.118-.618,1.541" transform="translate(-154.719 -137.324)" fill="#ffcd76"/>
        <path id="Trazado_115427" data-name="Trazado 115427" d="M500.9,438.264s-.081,1.258-.618,1.541-.066-1.118.618-1.541" transform="translate(-155.257 -136.075)" fill="#ffcd76"/>
        <path id="Trazado_115428" data-name="Trazado 115428" d="M496.246,441.105s1.177-.45,1.658-.08-.99.525-1.658.08" transform="translate(-154.077 -136.887)" fill="#ffcd76"/>
        <path id="Trazado_115429" data-name="Trazado 115429" d="M500.165,440.923a.877.877,0,1,0-.877.877.877.877,0,0,0,.877-.877" transform="translate(-154.749 -136.628)" fill="#2c5ca8"/>
        <path id="Trazado_115430" data-name="Trazado 115430" d="M496.682,450.62a3.044,3.044,0,0,1,1.815-.829,8.09,8.09,0,0,1,1.376,0,3.082,3.082,0,0,1-1.42.829,6.487,6.487,0,0,1-1.771,0" transform="translate(-154.213 -139.647)" fill="#5e9f5c"/>
        <path id="Trazado_115431" data-name="Trazado 115431" d="M495.811,449.2c-.133-.116-.233-1.063-1.049-1.3a7.773,7.773,0,0,0-1.394-.283s.706,1.23,1.221,1.414a4.058,4.058,0,0,0,1.222.168" transform="translate(-153.184 -138.979)" fill="#5e9f5c"/>
        <path id="Trazado_115432" data-name="Trazado 115432" d="M508.894,448.312l.255-.065c-.1-.454-.356-9.6,2.514-14.94l-.232-.125c-2.909,5.406-2.635,14.754-2.537,15.13" transform="translate(-157.988 -134.497)" fill="#5e9f5c"/>
        <path id="Trazado_115433" data-name="Trazado 115433" d="M513.5,426.254s.9,1.9.353,2.745-1-1.575-.353-2.745" transform="translate(-159.336 -132.346)" fill="#ffcd76"/>
        <path id="Trazado_115434" data-name="Trazado 115434" d="M514.227,436.536s-.9-1.9-.353-2.745,1,1.575.353,2.745" transform="translate(-159.495 -134.631)" fill="#ffcd76"/>
        <path id="Trazado_115435" data-name="Trazado 115435" d="M511.024,427.094s1.675,1.267,1.578,2.274-1.616-.936-1.578-2.274" transform="translate(-158.665 -132.607)" fill="#ffcd76"/>
        <path id="Trazado_115436" data-name="Trazado 115436" d="M516.378,435.862s-1.675-1.267-1.578-2.274,1.617.936,1.578,2.274" transform="translate(-159.837 -134.536)" fill="#ffcd76"/>
        <path id="Trazado_115437" data-name="Trazado 115437" d="M509.1,429.071s2.067.368,2.437,1.31-1.864-.1-2.437-1.31" transform="translate(-158.07 -133.22)" fill="#ffcd76"/>
        <path id="Trazado_115438" data-name="Trazado 115438" d="M517.894,434.4s-2.067-.368-2.437-1.31,1.865.1,2.437,1.31" transform="translate(-160.029 -134.356)" fill="#ffcd76"/>
        <path id="Trazado_115439" data-name="Trazado 115439" d="M508.483,433.441s1.656-1.291,2.6-.936-1.32,1.32-2.6.936" transform="translate(-157.877 -134.267)" fill="#ffcd76"/>
        <path id="Trazado_115440" data-name="Trazado 115440" d="M518.545,431.45s-1.853.987-2.726.476,1.528-1.074,2.726-.476" transform="translate(-160.096 -133.879)" fill="#ffcd76"/>
        <path id="Trazado_115441" data-name="Trazado 115441" d="M509.807,435.141s1.029-1.83,2.041-1.869-.71,1.728-2.041,1.869" transform="translate(-158.288 -134.525)" fill="#ffcd76"/>
        <path id="Trazado_115442" data-name="Trazado 115442" d="M517.764,428.638s-1.03,1.83-2.042,1.869.709-1.727,2.042-1.869" transform="translate(-160.03 -133.086)" fill="#ffcd76"/>
        <path id="Trazado_115443" data-name="Trazado 115443" d="M511.773,436.362s.135-2.1,1.03-2.568.109,1.864-1.03,2.568" transform="translate(-158.898 -134.667)" fill="#ffcd76"/>
        <path id="Trazado_115444" data-name="Trazado 115444" d="M516.076,427.023s-.135,2.1-1.03,2.568-.109-1.864,1.03-2.568" transform="translate(-159.794 -132.585)" fill="#ffcd76"/>
        <path id="Trazado_115445" data-name="Trazado 115445" d="M508.329,431.76s1.962-.749,2.764-.132-1.65.875-2.764.132" transform="translate(-157.829 -133.939)" fill="#ffcd76"/>
        <path id="Trazado_115446" data-name="Trazado 115446" d="M514.861,431.455a1.461,1.461,0,1,0-1.462,1.462,1.462,1.462,0,0,0,1.462-1.462" transform="translate(-158.949 -133.507)" fill="#2c5ca8"/>
        <path id="Trazado_115447" data-name="Trazado 115447" d="M509.649,442.265a5.073,5.073,0,0,1,3.026-1.381,13.461,13.461,0,0,1,2.293,0,5.138,5.138,0,0,1-2.366,1.381,10.815,10.815,0,0,1-2.953,0" transform="translate(-158.239 -136.876)" fill="#5e9f5c"/>
        <path id="Trazado_115448" data-name="Trazado 115448" d="M508.2,439.9c-.222-.194-.389-1.77-1.748-2.165a12.872,12.872,0,0,0-2.324-.47s1.178,2.049,2.036,2.356a6.76,6.76,0,0,0,2.036.279" transform="translate(-156.524 -135.764)" fill="#5e9f5c"/>
        <path id="Trazado_115449" data-name="Trazado 115449" d="M502.071,447.754l.255-.07c-.1-.492-.357-10.392,2.514-16.164l-.232-.135c-2.909,5.849-2.635,15.963-2.537,16.37" transform="translate(-155.869 -133.939)" fill="#5e9f5c"/>
        <path id="Trazado_115450" data-name="Trazado 115450" d="M506.681,423.889s.9,2.051.353,2.97-1-1.7-.353-2.97" transform="translate(-157.218 -131.611)" fill="#ffcd76"/>
        <path id="Trazado_115451" data-name="Trazado 115451" d="M507.4,435.014s-.9-2.051-.353-2.97,1,1.7.353,2.97" transform="translate(-157.377 -134.084)" fill="#ffcd76"/>
        <path id="Trazado_115452" data-name="Trazado 115452" d="M504.2,424.8s1.675,1.37,1.578,2.46-1.616-1.011-1.578-2.46" transform="translate(-156.547 -131.893)" fill="#ffcd76"/>
        <path id="Trazado_115453" data-name="Trazado 115453" d="M509.555,434.285s-1.675-1.37-1.578-2.46,1.616,1.011,1.578,2.46" transform="translate(-157.718 -133.982)" fill="#ffcd76"/>
        <path id="Trazado_115454" data-name="Trazado 115454" d="M502.28,426.936s2.067.4,2.437,1.418-1.864-.108-2.437-1.418" transform="translate(-155.951 -132.558)" fill="#ffcd76"/>
        <path id="Trazado_115455" data-name="Trazado 115455" d="M511.071,432.7s-2.067-.4-2.437-1.418,1.864.108,2.437,1.418" transform="translate(-157.911 -133.786)" fill="#ffcd76"/>
        <path id="Trazado_115456" data-name="Trazado 115456" d="M501.659,431.665s1.656-1.4,2.6-1.014-1.321,1.428-2.6,1.014" transform="translate(-155.758 -133.69)" fill="#ffcd76"/>
        <path id="Trazado_115457" data-name="Trazado 115457" d="M511.722,429.51s-1.854,1.068-2.727.514,1.529-1.161,2.727-.514" transform="translate(-157.978 -133.27)" fill="#ffcd76"/>
        <path id="Trazado_115458" data-name="Trazado 115458" d="M502.984,433.5s1.029-1.98,2.041-2.022-.71,1.869-2.041,2.022" transform="translate(-156.169 -133.969)" fill="#ffcd76"/>
        <path id="Trazado_115459" data-name="Trazado 115459" d="M510.94,426.468s-1.029,1.98-2.041,2.022.71-1.869,2.041-2.022" transform="translate(-157.911 -132.412)" fill="#ffcd76"/>
        <path id="Trazado_115460" data-name="Trazado 115460" d="M504.949,434.826s.135-2.267,1.03-2.779.109,2.017-1.03,2.779" transform="translate(-156.779 -134.123)" fill="#ffcd76"/>
        <path id="Trazado_115461" data-name="Trazado 115461" d="M509.253,424.722s-.135,2.267-1.03,2.779-.109-2.017,1.03-2.779" transform="translate(-157.676 -131.87)" fill="#ffcd76"/>
        <path id="Trazado_115462" data-name="Trazado 115462" d="M501.505,429.847s1.962-.811,2.764-.144-1.65.947-2.764.144" transform="translate(-155.71 -133.335)" fill="#ffcd76"/>
        <path id="Trazado_115463" data-name="Trazado 115463" d="M508.037,429.516a1.466,1.466,0,1,0-1.462,1.582,1.525,1.525,0,0,0,1.462-1.582" transform="translate(-156.831 -132.868)" fill="#2c5ca8"/>
        <path id="Trazado_115464" data-name="Trazado 115464" d="M502.232,447a4.945,4.945,0,0,1,3.026-1.494,12.4,12.4,0,0,1,2.293,0A5.1,5.1,0,0,1,505.185,447a10,10,0,0,1-2.953,0" transform="translate(-155.936 -138.311)" fill="#5e9f5c"/>
        <path id="Trazado_115465" data-name="Trazado 115465" d="M500.779,444.44c-.221-.209-.389-1.915-1.748-2.342a12,12,0,0,0-2.324-.509s1.178,2.217,2.036,2.549a6.286,6.286,0,0,0,2.036.3" transform="translate(-154.22 -137.107)" fill="#5e9f5c"/>
        <path id="Trazado_115466" data-name="Trazado 115466" d="M510.959,450.314l.18-.046c-.072-.321-.252-6.782,1.776-10.55l-.164-.088c-2.054,3.817-1.86,10.418-1.791,10.683" transform="translate(-158.633 -136.499)" fill="#5e9f5c"/>
        <path id="Trazado_115467" data-name="Trazado 115467" d="M514.213,434.739s.638,1.338.25,1.938-.709-1.112-.25-1.938" transform="translate(-159.585 -134.98)" fill="#ffcd76"/>
        <path id="Trazado_115468" data-name="Trazado 115468" d="M514.723,442s-.638-1.338-.25-1.938.71,1.112.25,1.938" transform="translate(-159.698 -136.594)" fill="#ffcd76"/>
        <path id="Trazado_115469" data-name="Trazado 115469" d="M512.462,435.331s1.183.894,1.114,1.606-1.141-.661-1.114-1.606" transform="translate(-159.112 -135.164)" fill="#ffcd76"/>
        <path id="Trazado_115470" data-name="Trazado 115470" d="M516.242,441.523s-1.182-.894-1.114-1.606,1.141.661,1.114,1.606" transform="translate(-159.939 -136.527)" fill="#ffcd76"/>
        <path id="Trazado_115471" data-name="Trazado 115471" d="M511.106,436.728s1.46.26,1.721.925-1.317-.07-1.721-.925" transform="translate(-158.691 -135.598)" fill="#ffcd76"/>
        <path id="Trazado_115472" data-name="Trazado 115472" d="M517.313,440.492s-1.46-.26-1.721-.925,1.317.07,1.721.925" transform="translate(-160.075 -136.399)" fill="#ffcd76"/>
        <path id="Trazado_115473" data-name="Trazado 115473" d="M510.667,439.814s1.169-.912,1.839-.661-.933.932-1.839.661" transform="translate(-158.555 -136.337)" fill="#ffcd76"/>
        <path id="Trazado_115474" data-name="Trazado 115474" d="M517.773,438.407s-1.309.7-1.925.336,1.079-.758,1.925-.336" transform="translate(-160.122 -136.063)" fill="#ffcd76"/>
        <path id="Trazado_115475" data-name="Trazado 115475" d="M511.6,441.014s.727-1.292,1.441-1.32-.5,1.22-1.441,1.32" transform="translate(-158.845 -136.518)" fill="#ffcd76"/>
        <path id="Trazado_115476" data-name="Trazado 115476" d="M517.22,436.422s-.727,1.292-1.441,1.32.5-1.22,1.441-1.32" transform="translate(-160.075 -135.503)" fill="#ffcd76"/>
        <path id="Trazado_115477" data-name="Trazado 115477" d="M512.99,441.876s.1-1.48.727-1.813.077,1.316-.727,1.813" transform="translate(-159.276 -136.619)" fill="#ffcd76"/>
        <path id="Trazado_115478" data-name="Trazado 115478" d="M516.029,435.282s-.1,1.48-.727,1.814-.077-1.317.727-1.814" transform="translate(-159.909 -135.149)" fill="#ffcd76"/>
        <path id="Trazado_115479" data-name="Trazado 115479" d="M510.559,438.626s1.385-.529,1.952-.094-1.165.618-1.952.094" transform="translate(-158.521 -136.105)" fill="#ffcd76"/>
        <path id="Trazado_115480" data-name="Trazado 115480" d="M515.171,438.411a1.032,1.032,0,1,0-1.032,1.032,1.032,1.032,0,0,0,1.032-1.032" transform="translate(-159.312 -135.8)" fill="#2c5ca8"/>
        <path id="Trazado_115481" data-name="Trazado 115481" d="M511.072,449.823a3.583,3.583,0,0,1,2.137-.976,9.578,9.578,0,0,1,1.619,0,3.625,3.625,0,0,1-1.671.976,7.641,7.641,0,0,1-2.085,0" transform="translate(-158.681 -139.352)" fill="#5e9f5c"/>
        <path id="Trazado_115482" data-name="Trazado 115482" d="M510.046,448.151c-.157-.137-.274-1.25-1.234-1.529a9.108,9.108,0,0,0-1.641-.332s.832,1.447,1.438,1.664a4.778,4.778,0,0,0,1.438.2" transform="translate(-157.469 -138.567)" fill="#5e9f5c"/>
        <path id="Trazado_115483" data-name="Trazado 115483" d="M59.75,313.688v98.6H38c-.011-.029-.021-.064-.035-.1l-.023-.064c-.072-.189-.168-.445-.29-.769l-.048-.1v-.048a.178.178,0,0,1-.048-.1,13.436,13.436,0,0,1-.535-1.36c-.1-.245-.194-.538-.341-.828v-.1l-.048-.048c-.668-1.736-1.5-4-2.452-6.727q-.128-.37-.263-.75c-.716-2.063-1.5-4.374-2.343-6.919q-.579-1.793-1.19-3.741c-1.688-5.393-3.525-11.622-5.327-18.484-.876-3.357-1.752-6.857-2.579-10.507-.487-2.106-.977-4.3-1.446-6.514q-.2-.974-.4-1.949c-.86-4.147-1.669-8.42-2.4-12.786-.961-5.734-1.787-11.628-2.415-17.612q-.467-4.4-.785-8.869c-.006-.077-.013-.157-.016-.234Z" transform="translate(-4.661 -97.396)" fill="#fff2e7"/>
        <path id="Trazado_115484" data-name="Trazado 115484" d="M53.968,254.281,77.01,301.716h70l-36.5-47.262Z" transform="translate(-16.756 -78.951)" fill="#ffb500"/>
        <path id="Trazado_115485" data-name="Trazado 115485" d="M143.008,301.716l-2.081-2.695-34.416-44.567-56.55-.174L70.6,296.768v97.07h70.326V301.716Z" transform="translate(-15.512 -78.951)" fill="#fddbba"/>
        <path id="Trazado_115486" data-name="Trazado 115486" d="M127.846,288.678h0a9.791,9.791,0,0,1,9.791,9.791V320.7H118.373V298.151a9.473,9.473,0,0,1,9.473-9.473" transform="translate(-36.753 -89.63)" fill="#f4cbaa"/>
        <path id="Trazado_115487" data-name="Trazado 115487" d="M98.365,254.28l-.157.21-1.363,1.815L63.928,300.186l-3.121,4.161H15.57q-.466-4.4-.785-8.87c0-.077-.013-.157-.016-.234s-.013-.159-.019-.239c-.288-4.19-.468-8.409-.522-12.626l21.687-28.087h9.193l32.113-.006Z" transform="translate(-4.418 -78.95)" fill="#ffb500"/>
        <path id="Trazado_115488" data-name="Trazado 115488" d="M143.042,342.29l16.4,33.771h49.839L183.3,342.413Z" transform="translate(-44.413 -106.276)" fill="#ffb500"/>
        <path id="Trazado_115489" data-name="Trazado 115489" d="M207.12,376.061l-25.984-33.648-40.261-.123,16.406,33.771h.108v45.009l49.73.1V376.061Z" transform="translate(-43.74 -106.276)" fill="#fddbba"/>
        <rect id="Rectángulo_37770" data-name="Rectángulo 37770" width="42.111" height="45.009" transform="translate(71.538 269.785)" fill="#fff2e7"/>
        <path id="Trazado_115490" data-name="Trazado 115490" d="M97.041,378.113h45.238l26.741-35.646-13.475,0-30.986.007Z" transform="translate(-30.13 -106.331)" fill="#ffb500"/>
        <path id="Trazado_115491" data-name="Trazado 115491" d="M186.238,397.5v37.61h20.951V397.848A10.648,10.648,0,0,0,196.541,387.2a10.3,10.3,0,0,0-10.3,10.3" transform="translate(-57.824 -120.22)" fill="#f4cbaa"/>
        <path id="Trazado_115492" data-name="Trazado 115492" d="M202.723,368.6a2.351,2.351,0,1,0-2.351,2.351,2.351,2.351,0,0,0,2.351-2.351" transform="translate(-61.483 -113.715)" fill="#f4cbaa"/>
        <path id="Trazado_115493" data-name="Trazado 115493" d="M97.041,378.114h8.586l49.918-35.643-30.986.007Z" transform="translate(-30.13 -106.332)" fill="#d1940b"/>
        <path id="Trazado_115494" data-name="Trazado 115494" d="M66.982,290.475H25.637l21.811-26.748H88.792Z" transform="translate(-7.96 -81.883)" fill="#3c6d9d"/>
        <path id="Trazado_115495" data-name="Trazado 115495" d="M90.447,273.8H49.1l.257-.314H90.7Z" transform="translate(-15.245 -84.914)" fill="#9cb5cd"/>
        <path id="Trazado_115496" data-name="Trazado 115496" d="M61.4,263.726,39.59,290.474h-.314l21.811-26.748Z" transform="translate(-12.195 -81.883)" fill="#9cb5cd"/>
        <path id="Trazado_115497" data-name="Trazado 115497" d="M77.288,263.726,55.477,290.474h-.314l21.811-26.748Z" transform="translate(-17.127 -81.883)" fill="#9cb5cd"/>
        <path id="Trazado_115498" data-name="Trazado 115498" d="M92.575,263.726,70.765,290.474H70.45l21.811-26.748Z" transform="translate(-21.874 -81.883)" fill="#9cb5cd"/>
        <path id="Trazado_115499" data-name="Trazado 115499" d="M82.612,283.21H41.267l.257-.314H82.869Z" transform="translate(-12.813 -87.835)" fill="#9cb5cd"/>
        <path id="Trazado_115500" data-name="Trazado 115500" d="M74.338,293.357H32.993l.257-.314H74.595Z" transform="translate(-10.244 -90.986)" fill="#9cb5cd"/>
        <path id="Trazado_115501" data-name="Trazado 115501" d="M61.276,274.457l-.238-1.289,2.339-1.288.238,1.288Z" transform="translate(-18.951 -84.415)" fill="#9cb5cd"/>
        <path id="Trazado_115502" data-name="Trazado 115502" d="M76.992,274.457l-.238-1.289,2.339-1.288.238,1.288Z" transform="translate(-23.831 -84.415)" fill="#9cb5cd"/>
        <path id="Trazado_115503" data-name="Trazado 115503" d="M92.508,274.457l-.238-1.289,2.339-1.288.238,1.288Z" transform="translate(-28.648 -84.415)" fill="#9cb5cd"/>
        <path id="Trazado_115504" data-name="Trazado 115504" d="M53.632,283.832l-.238-1.289,2.339-1.288.238,1.288Z" transform="translate(-16.578 -87.326)" fill="#9cb5cd"/>
        <path id="Trazado_115505" data-name="Trazado 115505" d="M69.348,283.832l-.238-1.289,2.339-1.288.238,1.288Z" transform="translate(-21.458 -87.326)" fill="#9cb5cd"/>
        <path id="Trazado_115506" data-name="Trazado 115506" d="M84.863,283.832l-.238-1.289,2.339-1.288.238,1.288Z" transform="translate(-26.275 -87.326)" fill="#9cb5cd"/>
        <path id="Trazado_115507" data-name="Trazado 115507" d="M45.358,293.979l-.238-1.289,2.339-1.288.238,1.288Z" transform="translate(-14.009 -90.476)" fill="#9cb5cd"/>
        <path id="Trazado_115508" data-name="Trazado 115508" d="M61.074,293.979l-.238-1.289,2.339-1.288.238,1.288Z" transform="translate(-18.889 -90.476)" fill="#9cb5cd"/>
        <path id="Trazado_115509" data-name="Trazado 115509" d="M76.589,293.979l-.238-1.289L78.69,291.4l.238,1.288Z" transform="translate(-23.706 -90.476)" fill="#9cb5cd"/>
        <path id="Trazado_115510" data-name="Trazado 115510" d="M721.158,128.275q-.024,1.537-.1,3.1a103.767,103.767,0,0,1-1.627,13.816l-64.684-.849s5.854-13.819,19.856-12.282c0,0,20.327-23.035,42-3.072,0,0,1.714-.367,4.552-.716" transform="translate(-203.29 -37.522)" fill="#f6fbff"/>
        <path id="Trazado_115511" data-name="Trazado 115511" d="M445.961,62.429s3.032-7.3,10.281-6.486c0,0,10.525-12.162,21.749-1.622,0,0,11.931-2.612,20.767,2.262,5.891,3.249,7.836,6.657,7.836,6.657Z" transform="translate(-138.465 -15.531)" fill="#f6fbff"/>
        <path id="Trazado_115512" data-name="Trazado 115512" d="M92.282,215.739s3.239-7.8,10.985-6.93c0,0,11.245-12.995,23.237-1.733,0,0,12.748-2.79,22.188,2.417,6.294,3.471,8.373,7.112,8.373,7.112Z" transform="translate(-28.652 -62.868)" fill="#f6fbff"/>
        <path id="Trazado_115513" data-name="Trazado 115513" d="M67.8,182.547s2.479-5.966,8.407-5.3c0,0,8.606-9.944,17.783-1.325,0,0,9.755-2.135,16.98,1.849,4.816,2.657,6.407,5.443,6.407,5.443Z" transform="translate(-21.052 -53.529)" fill="#f6fbff"/>
        <path id="Trazado_115514" data-name="Trazado 115514" d="M782.157,405.5a77.922,77.922,0,0,1-1.584,9.657c-.016.07-.032.139-.051.211-17.1,6.194-34.723,14.412-50.415,25.264h-42.43c6.15-3.956,36.121-20.55,94.48-35.133" transform="translate(-213.514 -125.902)" fill="#5e9f5c"/>
        <path id="Trazado_115515" data-name="Trazado 115515" d="M686.927,391.833s32.56-2.855,41.41,0,13.277,16.13,12.012,25.824-4.215,17.912-9.9,17.7-45.94,0-45.94,0Z" transform="translate(-212.529 -121.265)" fill="#f4bb6b"/>
        <path id="Trazado_115516" data-name="Trazado 115516" d="M697.662,390.863s6.891-1.283,11.58-1.758a24.358,24.358,0,0,0-4.145,1.141s10.01-1.51,13.663-1.141,8.658.987,8.658.987l5.566-.373s-4.636.562-4.39.632,4.531.6,5.9,1.475c0,0,4.25,1.335,5.162,2.143,0,0-3.406-1.721-4.741-1.616,0,0,7.721,5.355,7.741,10.457s-33.2-7.683-33.2-7.683Z" transform="translate(-216.614 -120.794)" fill="#f4bb6b"/>
        <path id="Trazado_115517" data-name="Trazado 115517" d="M683.578,392.021s-12.959-.985-21.178,9.446-1.58,34.585,9.166,34.677,23.985-1.559,26.848-15.589-3.142-28.18-14.837-28.533" transform="translate(-204.523 -121.709)" fill="#ffcd76"/>
        <path id="Trazado_115518" data-name="Trazado 115518" d="M656.285,419.148s4.636-5.339,5.128-6.814l.7,1.475Z" transform="translate(-203.767 -128.024)" fill="#ffcd76"/>
        <path id="Trazado_115519" data-name="Trazado 115519" d="M661.138,408.4s.588-3.828,2.273-5.232c0,0-1.532,2.566-1.136,4.706s-1.137.526-1.137.526" transform="translate(-205.274 -125.177)" fill="#ffcd76"/>
        <path id="Trazado_115520" data-name="Trazado 115520" d="M663.615,446.256c.085.205-2.494-7.007-1.651-8.377l.49,0s.335,6.37,1.16,8.372" transform="translate(-205.478 -135.955)" fill="#ffcd76"/>
        <path id="Trazado_115521" data-name="Trazado 115521" d="M660.07,436.3s-1.931-.632-3.021,0a3.266,3.266,0,0,1,2.88.562c1.09,1.063.141-.562.141-.562" transform="translate(-204.004 -135.378)" fill="#ffcd76"/>
        <path id="Trazado_115522" data-name="Trazado 115522" d="M679.737,438.038a18.53,18.53,0,0,1-9.628-2.38c-3.31-2.026-5.472-5.292-6.426-9.708-1.625-7.517-.827-13.685,2.372-18.331,2.989-4.344,8.038-7.173,14.6-8.18a11.5,11.5,0,0,1,11.088,4.138c4.083,4.9,5.255,13.166,2.853,20.111-1.7,4.908-6.232,7.939-12.13,8.109q-.252.007-.5.008c-5.94,0-11.3-3.037-13.135-7.5-1.874-4.55-1.777-9,.274-12.532,2.082-3.586,6.015-5.919,11.074-6.568,4.58-.59,7.05,1.544,8.315,3.435,2.442,3.65,2.435,9.579.8,12.441-1.576,2.758-5.94,4.886-9.73,4.754a6.4,6.4,0,0,1-5.877-3.563,7.956,7.956,0,0,1,.244-8.018,5.963,5.963,0,0,1,5.013-2.839,3.377,3.377,0,0,1,3.12,3.331c.113,1.291-.328,2.727-1.387,2.975-1.971.46-2.671-.616-2.7-.662,0,0-1.065-1.758.26-2.011,1.518-.29,1.118.888,1.118.888.021.033-.375,1.624,1.2,1.257.649-.152,1.075-1.205.971-2.4a2.823,2.823,0,0,0-2.61-2.837,5.4,5.4,0,0,0-4.533,2.6,7.432,7.432,0,0,0-.206,7.483,5.872,5.872,0,0,0,5.409,3.257c3.607.123,7.753-1.881,9.24-4.482,1.378-2.411,1.749-8.093-.779-11.871-1.692-2.531-4.387-3.637-7.8-3.2-4.887.627-8.678,2.866-10.674,6.3-1.964,3.382-2.051,7.663-.241,12.053s7.206,7.329,13.122,7.158c5.663-.164,10.012-3.059,11.633-7.745,2.344-6.775,1.21-14.829-2.757-19.587a10.989,10.989,0,0,0-10.59-3.95c-6.41.985-11.333,3.734-14.236,7.953-3.11,4.518-3.88,10.544-2.289,17.909.922,4.265,3,7.414,6.179,9.359,6.422,3.93,16.552,1.551,16.641,1.528l-1.147.619a26.888,26.888,0,0,1-6.149.7" transform="translate(-205.81 -123.969)" fill="#f4bb6b"/>
        <path id="Trazado_115523" data-name="Trazado 115523" d="M759.6,369.707s43.781-3.839,55.682,0,17.852,21.69,16.152,34.725-5.667,24.086-13.318,23.8-61.774,0-61.774,0Z" transform="translate(-234.834 -114.259)" fill="#f4bb6b"/>
        <path id="Trazado_115524" data-name="Trazado 115524" d="M774.036,368.4s9.266-1.726,15.571-2.363c0,0-4.958,1.015-5.573,1.535,0,0,13.46-2.031,18.371-1.535s11.642,1.327,11.642,1.327l7.485-.5s-6.234.756-5.9.85,6.092.8,7.934,1.984c0,0,5.715,1.795,6.942,2.881,0,0-4.581-2.314-6.376-2.173,0,0,10.382,7.2,10.41,14.062s-44.65-10.331-44.65-10.331Z" transform="translate(-240.327 -113.626)" fill="#f4bb6b"/>
        <path id="Trazado_115525" data-name="Trazado 115525" d="M755.1,369.96s-17.426-1.325-28.477,12.7-2.125,46.505,12.326,46.629,32.251-2.1,36.1-20.963-4.225-37.892-19.95-38.367" transform="translate(-224.069 -114.857)" fill="#ffcd76"/>
        <path id="Trazado_115526" data-name="Trazado 115526" d="M718.4,406.436s6.234-7.179,6.9-9.162l.945,1.984Z" transform="translate(-223.052 -123.348)" fill="#ffcd76"/>
        <path id="Trazado_115527" data-name="Trazado 115527" d="M724.924,391.981s.79-5.146,3.057-7.036c0,0-2.061,3.45-1.528,6.328s-1.529.707-1.529.707" transform="translate(-225.079 -119.52)" fill="#ffcd76"/>
        <path id="Trazado_115528" data-name="Trazado 115528" d="M728.255,442.888c.114.276-3.353-9.422-2.22-11.264l.659.006s.451,8.566,1.56,11.258" transform="translate(-225.353 -134.013)" fill="#ffcd76"/>
        <path id="Trazado_115529" data-name="Trazado 115529" d="M723.487,429.5s-2.6-.85-4.061,0c0,0,2.406-.674,3.872.756s.189-.756.189-.756" transform="translate(-223.372 -133.237)" fill="#ffcd76"/>
        <path id="Trazado_115530" data-name="Trazado 115530" d="M749.933,431.836a24.917,24.917,0,0,1-12.947-3.2c-4.451-2.724-7.358-7.115-8.641-13.053-2.184-10.108-1.112-18.4,3.189-24.649,4.02-5.842,10.809-9.645,19.632-11a15.46,15.46,0,0,1,14.909,5.565c5.489,6.583,7.067,17.7,3.836,27.043-2.283,6.6-8.38,10.675-16.31,10.9-.226.007-.452.01-.677.01-7.988,0-15.189-4.083-17.662-10.085-2.52-6.117-2.39-12.1.368-16.85,2.8-4.822,8.089-7.959,14.891-8.832,6.157-.793,9.479,2.075,11.18,4.618,3.284,4.908,3.275,12.88,1.075,16.73-2.12,3.708-7.988,6.57-13.084,6.392-3.677-.132-6.484-1.834-7.9-4.792-1.827-3.8-1.707-7.734.328-10.781a8.019,8.019,0,0,1,6.741-3.817c2.82.154,4.023,2.509,4.195,4.479.152,1.736-.439,3.667-1.865,4-2.651.619-3.592-.829-3.63-.89,0,0-1.432-2.364.35-2.7,2.04-.389,1.5,1.194,1.5,1.194.029.044-.5,2.184,1.612,1.69.872-.2,1.445-1.621,1.3-3.226-.154-1.76-1.158-3.687-3.51-3.815a7.263,7.263,0,0,0-6.095,3.494c-1.888,2.827-1.989,6.494-.277,10.061a7.893,7.893,0,0,0,7.273,4.379c4.85.165,10.425-2.529,12.424-6.026,1.853-3.241,2.351-10.882-1.047-15.962-2.276-3.4-5.9-4.891-10.483-4.3-6.572.844-11.669,3.854-14.353,8.475-2.641,4.548-2.757,10.3-.325,16.207s9.69,9.855,17.644,9.624c7.616-.22,13.463-4.113,15.643-10.414,3.152-9.111,1.628-19.941-3.707-26.337a14.773,14.773,0,0,0-14.239-5.312c-8.619,1.324-15.238,5.022-19.142,10.694-4.182,6.076-5.218,14.178-3.077,24.082,1.239,5.735,4.034,9.97,8.309,12.586,8.635,5.285,22.257,2.086,22.377,2.055l-1.541.832a36.217,36.217,0,0,1-8.269.934" transform="translate(-225.799 -117.895)" fill="#f4bb6b"/>
        <path id="Trazado_115531" data-name="Trazado 115531" d="M294.612,394.039s-7.514,28.992-6.84,31.283S292.22,435.4,292.22,435.4h-3.631a2.738,2.738,0,0,1-1.408-2.516c.06-1.8-5.031-8.806-5.031-8.806s2-11.13,0-15.514c-8.6-18.881,5.805-18.7,12.462-14.525" transform="translate(-86.776 -121.633)" fill="#d29f7e"/>
        <path id="Trazado_115532" data-name="Trazado 115532" d="M353.348,409.618s-2.157,15.575-2.276,16.533-1.138,2.156-1.078,3.714.6,6.828,2.276,8.147a4.769,4.769,0,0,1,1.857,2.935h-4.552a6.08,6.08,0,0,1-.659-2.636c.12-1.078-1.258-2.216-1.318-4.432s0-6.35-.6-7.787-.419-11.322-2.4-13.538,8.746-2.935,8.746-2.935" transform="translate(-106.919 -127.181)" fill="#d29f7e"/>
        <path id="Trazado_115533" data-name="Trazado 115533" d="M284.109,393.906c-.05.718-.074,1.387-.074,2.055.123,16.86,16.811,11.81,17.405,11.364a3.571,3.571,0,0,1,1.807-.4c8.344,3.318,20.03.272,22.457-.719s8.889,1.461,11.884,1.238c1.214-.1,2.229-1.362,3-2.946a22.316,22.316,0,0,0,1.808-6.165,39.075,39.075,0,0,1,1.857-5.422c.421-1.04.891-2.179,1.387-3.343.1-.2.173-.421.272-.619-.247-.272-.47-.569-.693-.867a36.4,36.4,0,0,1-3.243-5.793,29.05,29.05,0,0,0-3.813-6.264c-2.451-.768-5.373.618-6.586.545a33.782,33.782,0,0,1-4.061-.5c-.52-.1-.99-.173-1.436-.248-2.476-.372-17.48,1.56-28.076,1.857-2.179.074-4.16.05-5.819-.05-.123,0-.248-.025-.371-.025-4.432-.248-6.784.025-8.022.421-1.362.421-1.386.942-1.386.942-4.234,4.134,1.708,14.929,1.708,14.929" transform="translate(-87.209 -116.676)" fill="#f4cbaa"/>
        <path id="Trazado_115534" data-name="Trazado 115534" d="M361.26,409.618s-2.156,15.575-2.276,16.533-1.138,2.156-1.078,3.714.6,6.828,2.276,8.147a4.769,4.769,0,0,1,1.857,2.935h-4.552a6.09,6.09,0,0,1-.659-2.636c.12-1.078-1.258-2.216-1.318-4.432s0-6.35-.6-7.787-.419-11.322-2.4-13.538,8.746-2.935,8.746-2.935" transform="translate(-109.375 -127.181)" fill="#f4cbaa"/>
        <path id="Trazado_115535" data-name="Trazado 115535" d="M301.495,403.919s-6.065,22.507-5.391,24.8,4.447,10.078,4.447,10.078H296.92a2.737,2.737,0,0,1-1.408-2.516c.06-1.8-5.031-8.805-5.031-8.805s-.412-12.7-3.407-16.479,7.763-11.252,14.421-7.076" transform="translate(-88.973 -125.029)" fill="#f4cbaa"/>
        <path id="Trazado_115536" data-name="Trazado 115536" d="M397.509,411.916c.245.33.461.564.461.564a9.282,9.282,0,0,0,1.079.054,2.931,2.931,0,0,0,1.451-.4,1.825,1.825,0,0,0,.711-.847s-.206-.531-1.285-.671c-.8-.1-1.575-.655-2.24-.725h0a.965.965,0,0,0-.669.159c-.5.352.045,1.263.494,1.862" transform="translate(-123.205 -127.265)" fill="#f4cbaa"/>
        <path id="Trazado_115537" data-name="Trazado 115537" d="M398.965,414.708c.031-.014.41.058.9.056a2.344,2.344,0,0,0,2.339-1.244s-.205-.532-1.285-.672a1.049,1.049,0,0,1-.113-.019c-.694-.123-1.378-.56-1.975-.681a1.019,1.019,0,0,0-.824.132.45.45,0,0,0-.194.328c-.1.743,1.147,2.1,1.147,2.1" transform="translate(-123.515 -127.956)" fill="#f4cbaa"/>
        <path id="Trazado_115538" data-name="Trazado 115538" d="M363.642,380.8c.3,7.725,1.733,22.506,2.624,23.819a34.518,34.518,0,0,1,5.373.594c4.457.916,5.695,2.6,6.116,3.392.792,1.585,4.506,5.2,5.15,5.323.668.123,1.065.99,1.758,2.4.669,1.387,2.006,1.511,3.119,1.585a2.471,2.471,0,0,0,2.055-1.609,9.962,9.962,0,0,1-.471-2.773c.074-1.387-.816-5.521-.074-6.635.47-.718.2-2.253-.05-3.293-.148-.618-.3-1.04-.3-1.04a2.793,2.793,0,0,0-.223-.5c-.149-.322-.322-.693-.52-1.089-.223-.47-.52-.99-.842-1.56a64.418,64.418,0,0,0-5.967-8.715,59.071,59.071,0,0,0-9.656-9.606,42.884,42.884,0,0,0-7.9-4.951c-.248.1-.3,1.955-.2,4.654" transform="translate(-112.891 -116.786)" fill="#f4cbaa"/>
        <path id="Trazado_115539" data-name="Trazado 115539" d="M344.232,398.058c-.157-.4-.076-7.176-4.968-8.569s-7.57.75-13.675-1.713-12.531-4.5-13.174-1.821.536,10.175,0,13.6,11.055,4.641,15.81,2.535,17.727.357,16.007-4.034" transform="translate(-96.939 -119.441)" fill="#3c6d9d"/>
        <path id="Trazado_115540" data-name="Trazado 115540" d="M281.36,380.428a12.284,12.284,0,0,0-3.7,7.524c-.536,4.82.964,26,.964,26l1.223-.068,1.312-23.428Z" transform="translate(-86.173 -118.117)" fill="#3c6d9d"/>
        <path id="Trazado_115541" data-name="Trazado 115541" d="M280.486,431.323s-2.642-2.844-1-3.486,1,1.286,1,2.035Z" transform="translate(-86.609 -132.797)" fill="#25468f"/>
        <path id="Trazado_115542" data-name="Trazado 115542" d="M285.1,378.036c3.07,1.511,6.461,2.9,8.467,2.947,4.382.074,15.029-2.451,19.362-2.724s21.887,3.788,26.022,2.475a.677.677,0,0,1,.322-.05c.916-.074,2.3.57,4.012,1.61.965.619,2.03,1.361,3.144,2.2A201.991,201.991,0,0,1,362.99,399.3a64.375,64.375,0,0,0-5.967-8.715,59.072,59.072,0,0,0-9.656-9.606,42.886,42.886,0,0,0-7.9-4.952c-2.451-.767-5.373.619-6.586.545a33.668,33.668,0,0,1-4.061-.5c-.519-.1-.99-.172-1.436-.247-2.476-.372-17.48,1.56-28.077,1.857-2.179.074-4.159.05-5.818-.05-.124,0-.248-.025-.372-.025-4.432-.247-6.784.025-8.021.421" transform="translate(-88.519 -116.676)" fill="#ffe5d4"/>
        <path id="Trazado_115543" data-name="Trazado 115543" d="M305.714,377.693c1.916,1.562,5.592,2.186,10.787,1.218,6.319-1.178,7.818,1.607,13.067,1.821a5.225,5.225,0,0,0,5.651-4.651c-.51-.084-.994-.167-1.442-.234-2.46-.373-17.477,1.544-28.063,1.846" transform="translate(-94.92 -116.68)" fill="#3c6d9d"/>
        <path id="Trazado_115544" data-name="Trazado 115544" d="M374.095,390.428a11.107,11.107,0,0,0,.421,1.486,12.363,12.363,0,0,0,.817,1.609c2.8,4.456.149,9.8-.5,13.914,4.457.916,5.695,2.6,6.115,3.392.792,1.585,4.507,5.2,5.15,5.324.669.123,1.065.99,1.758,2.4.668,1.386,2.005,1.51,3.119,1.584a2.47,2.47,0,0,0,2.055-1.609,9.97,9.97,0,0,1-.47-2.773c.074-1.387-.817-5.521-.074-6.635.47-.718.2-2.253-.05-3.293a2.374,2.374,0,0,0,2.352-1.238s-.223-.545-1.287-.693h-.124a1.937,1.937,0,0,0,.718-.867s-.222-.519-1.287-.668c-.792-.1-1.585-.644-2.253-.718a64.377,64.377,0,0,0-5.967-8.715,59.072,59.072,0,0,0-9.656-9.606,14.771,14.771,0,0,0-.941,3.516,10.991,10.991,0,0,0,.1,3.59" transform="translate(-116.089 -119.016)" fill="#3c6d9d"/>
        <path id="Trazado_115545" data-name="Trazado 115545" d="M284.1,394.681c-.047.718-.066,1.4-.062,2.053,5.437,4.032,14.972,2,15.689-2.853.825-5.588-6.686-6.377-6.135-10.982a5.384,5.384,0,0,0-1.787-4.5c-9.325-.553-9.413,1.371-9.413,1.371-4.222,4.134,1.707,14.916,1.707,14.916" transform="translate(-87.209 -117.455)" fill="#3c6d9d"/>
        <g id="Grupo_143087" data-name="Grupo 143087" transform="translate(136.247 65.143)" opacity="0.6">
          <g id="Grupo_143086" data-name="Grupo 143086">
            <g id="Grupo_143085" data-name="Grupo 143085" clip-path="url(#clip-path-6)">
              <path id="Trazado_115546" data-name="Trazado 115546" d="M373.239,238.615H238.71A41.112,41.112,0,0,1,197.6,197.5V135.589A41.113,41.113,0,0,1,238.71,94.476H373.239a41.112,41.112,0,0,1,41.112,41.112V197.5a41.113,41.113,0,0,1-41.113,41.113" transform="translate(-197.598 -94.477)" fill="#f6fbff"/>
            </g>
          </g>
        </g>
        <path id="Trazado_115547" data-name="Trazado 115547" d="M284.585,148.494a31.174,31.174,0,1,1-25.453-30.658c-3.893,14.186-9.06,32.974-9.406,34.146.643-1.012,19.609-9.515,32.562-15.245a31,31,0,0,1,2.3,11.757" transform="translate(-68.993 -36.422)" fill="#78a2fa"/>
        <path id="Trazado_115548" data-name="Trazado 115548" d="M297.9,132.227c-11.438,5.04-30.385,13.486-30.992,14.442.329-1.114,5.57-20.165,9.081-32.934A34.261,34.261,0,0,1,297.9,132.227" transform="translate(-82.872 -35.313)" fill="#ff912b"/>
        <path id="Trazado_115549" data-name="Trazado 115549" d="M421.679,107a2.592,2.592,0,1,1,2.591,2.592A2.591,2.591,0,0,1,421.679,107" transform="translate(-130.925 -32.418)" fill="#a9c2ff"/>
        <path id="Trazado_115550" data-name="Trazado 115550" d="M441.188,107a2.592,2.592,0,1,1,2.592,2.592A2.591,2.591,0,0,1,441.188,107" transform="translate(-136.983 -32.418)" fill="#a9c2ff"/>
        <path id="Trazado_115551" data-name="Trazado 115551" d="M461.323,107a2.592,2.592,0,1,1,2.592,2.592A2.591,2.591,0,0,1,461.323,107" transform="translate(-143.234 -32.418)" fill="#ff912b"/>
        <path id="Trazado_115552" data-name="Trazado 115552" d="M277.9,279.305H217.556V260.1H277.9Zm-59.606-.741h58.865V260.844H218.3Z" transform="translate(-67.548 -80.758)" fill="#a9c2ff"/>
        <rect id="Rectángulo_37772" data-name="Rectángulo 37772" width="23.343" height="1.522" transform="translate(154.381 184.504)" fill="#a9c2ff"/>
        <rect id="Rectángulo_37773" data-name="Rectángulo 37773" width="16.563" height="1.522" transform="translate(180.182 184.504)" fill="#a9c2ff"/>
        <rect id="Rectángulo_37774" data-name="Rectángulo 37774" width="12.882" height="1.522" transform="translate(154.381 188.851)" fill="#a9c2ff"/>
        <rect id="Rectángulo_37775" data-name="Rectángulo 37775" width="16.563" height="1.522" transform="translate(169.443 188.851)" fill="#a9c2ff"/>
        <rect id="Rectángulo_37776" data-name="Rectángulo 37776" width="16.563" height="1.522" transform="translate(187.721 188.851)" fill="#a9c2ff"/>
        <path id="Trazado_115553" data-name="Trazado 115553" d="M401.491,269.609H371.615V260.1h29.876Zm-29.51-.366h29.143V260.47H371.981Z" transform="translate(-115.381 -80.758)" fill="#a9c2ff"/>
        <rect id="Rectángulo_37777" data-name="Rectángulo 37777" width="11.556" height="0.754" transform="translate(258.399 181.899)" fill="#a9c2ff"/>
        <rect id="Rectángulo_37778" data-name="Rectángulo 37778" width="8.2" height="0.754" transform="translate(271.172 181.899)" fill="#a9c2ff"/>
        <rect id="Rectángulo_37779" data-name="Rectángulo 37779" width="6.378" height="0.753" transform="translate(258.398 184.051)" fill="#a9c2ff"/>
        <rect id="Rectángulo_37780" data-name="Rectángulo 37780" width="8.2" height="0.753" transform="translate(265.855 184.051)" fill="#a9c2ff"/>
        <rect id="Rectángulo_37781" data-name="Rectángulo 37781" width="8.2" height="0.753" transform="translate(274.905 184.051)" fill="#a9c2ff"/>
        <path id="Trazado_115554" data-name="Trazado 115554" d="M453.158,269.609H423.282V260.1h29.876Zm-29.51-.366h29.143V260.47H423.648Z" transform="translate(-131.423 -80.758)" fill="#a9c2ff"/>
        <rect id="Rectángulo_37782" data-name="Rectángulo 37782" width="11.556" height="0.754" transform="translate(294.024 181.899)" fill="#a9c2ff"/>
        <rect id="Rectángulo_37783" data-name="Rectángulo 37783" width="8.2" height="0.754" transform="translate(306.797 181.899)" fill="#a9c2ff"/>
        <rect id="Rectángulo_37784" data-name="Rectángulo 37784" width="6.378" height="0.753" transform="translate(294.023 184.051)" fill="#a9c2ff"/>
        <rect id="Rectángulo_37785" data-name="Rectángulo 37785" width="8.2" height="0.753" transform="translate(301.48 184.051)" fill="#a9c2ff"/>
        <rect id="Rectángulo_37786" data-name="Rectángulo 37786" width="8.2" height="0.753" transform="translate(310.53 184.051)" fill="#a9c2ff"/>
        <path id="Trazado_115555" data-name="Trazado 115555" d="M401.491,208.285H371.615v-9.507h29.876Zm-29.51-.366h29.143v-8.773H371.981Z" transform="translate(-115.381 -61.718)" fill="#a9c2ff"/>
        <rect id="Rectángulo_37787" data-name="Rectángulo 37787" width="11.556" height="0.754" transform="translate(258.399 139.615)" fill="#a9c2ff"/>
        <rect id="Rectángulo_37788" data-name="Rectángulo 37788" width="8.2" height="0.754" transform="translate(271.172 139.615)" fill="#a9c2ff"/>
        <rect id="Rectángulo_37789" data-name="Rectángulo 37789" width="6.378" height="0.754" transform="translate(258.398 141.767)" fill="#a9c2ff"/>
        <rect id="Rectángulo_37790" data-name="Rectángulo 37790" width="8.2" height="0.754" transform="translate(265.855 141.767)" fill="#a9c2ff"/>
        <rect id="Rectángulo_37791" data-name="Rectángulo 37791" width="8.2" height="0.754" transform="translate(274.905 141.767)" fill="#a9c2ff"/>
        <path id="Trazado_115556" data-name="Trazado 115556" d="M453.158,208.285H423.282v-9.507h29.876Zm-29.51-.366h29.143v-8.773H423.648Z" transform="translate(-131.423 -61.718)" fill="#a9c2ff"/>
        <rect id="Rectángulo_37792" data-name="Rectángulo 37792" width="11.556" height="0.754" transform="translate(294.024 139.615)" fill="#a9c2ff"/>
        <rect id="Rectángulo_37793" data-name="Rectángulo 37793" width="8.2" height="0.754" transform="translate(306.797 139.615)" fill="#a9c2ff"/>
        <rect id="Rectángulo_37794" data-name="Rectángulo 37794" width="6.378" height="0.754" transform="translate(294.023 141.767)" fill="#a9c2ff"/>
        <rect id="Rectángulo_37795" data-name="Rectángulo 37795" width="8.2" height="0.754" transform="translate(301.48 141.767)" fill="#a9c2ff"/>
        <rect id="Rectángulo_37796" data-name="Rectángulo 37796" width="8.2" height="0.754" transform="translate(310.53 141.767)" fill="#a9c2ff"/>
        <path id="Trazado_115557" data-name="Trazado 115557" d="M401.491,154.9H371.615V145.4h29.876Zm-29.51-.367h29.143v-8.773H371.981Z" transform="translate(-115.381 -45.144)" fill="#a9c2ff"/>
        <rect id="Rectángulo_37797" data-name="Rectángulo 37797" width="11.556" height="0.753" transform="translate(258.399 102.809)" fill="#a9c2ff"/>
        <rect id="Rectángulo_37798" data-name="Rectángulo 37798" width="8.2" height="0.753" transform="translate(271.172 102.809)" fill="#a9c2ff"/>
        <rect id="Rectángulo_37799" data-name="Rectángulo 37799" width="6.378" height="0.753" transform="translate(258.398 104.961)" fill="#a9c2ff"/>
        <rect id="Rectángulo_37800" data-name="Rectángulo 37800" width="8.2" height="0.753" transform="translate(265.855 104.961)" fill="#a9c2ff"/>
        <rect id="Rectángulo_37801" data-name="Rectángulo 37801" width="8.2" height="0.753" transform="translate(274.905 104.961)" fill="#a9c2ff"/>
        <path id="Trazado_115558" data-name="Trazado 115558" d="M453.158,154.9H423.282V145.4h29.876Zm-29.51-.367h29.143v-8.773H423.648Z" transform="translate(-131.423 -45.144)" fill="#a9c2ff"/>
        <rect id="Rectángulo_37802" data-name="Rectángulo 37802" width="11.556" height="0.753" transform="translate(294.024 102.809)" fill="#a9c2ff"/>
        <rect id="Rectángulo_37803" data-name="Rectángulo 37803" width="8.2" height="0.753" transform="translate(306.797 102.809)" fill="#a9c2ff"/>
        <rect id="Rectángulo_37804" data-name="Rectángulo 37804" width="6.378" height="0.753" transform="translate(294.023 104.961)" fill="#a9c2ff"/>
        <rect id="Rectángulo_37805" data-name="Rectángulo 37805" width="8.2" height="0.753" transform="translate(301.48 104.961)" fill="#a9c2ff"/>
        <rect id="Rectángulo_37806" data-name="Rectángulo 37806" width="8.2" height="0.753" transform="translate(310.53 104.961)" fill="#a9c2ff"/>
        <path id="Trazado_115559" data-name="Trazado 115559" d="M343.071,135.262a3.38,3.38,0,1,1,3.38,3.38,3.38,3.38,0,0,1-3.38-3.38" transform="translate(-106.519 -40.947)" fill="#ff912b"/>
        <path id="Trazado_115560" data-name="Trazado 115560" d="M347.763,126.288h0a.708.708,0,0,1-.706-.706V119.6a.706.706,0,1,1,1.412,0v5.979a.708.708,0,0,1-.706.706" transform="translate(-107.756 -36.916)" fill="#ff912b"/>
        <path id="Trazado_115561" data-name="Trazado 115561" d="M347.763,151.662h0a.708.708,0,0,1-.707-.706v-5.979a.706.706,0,1,1,1.413,0v5.979a.708.708,0,0,1-.706.706" transform="translate(-107.756 -44.794)" fill="#ff912b"/>
        <path id="Trazado_115562" data-name="Trazado 115562" d="M353.813,141.234l.194-.265a.544.544,0,0,1,.757-.119l5.1,3.718a.544.544,0,0,1,.119.757l-.194.265a.543.543,0,0,1-.757.119l-5.095-3.718a.543.543,0,0,1-.119-.757" transform="translate(-109.822 -43.7)" fill="#ff912b"/>
        <path id="Trazado_115563" data-name="Trazado 115563" d="M333.315,126.278l.194-.265a.543.543,0,0,1,.757-.119l5.1,3.718a.544.544,0,0,1,.119.757l-.194.265a.543.543,0,0,1-.757.119l-5.095-3.718a.543.543,0,0,1-.119-.757" transform="translate(-103.457 -39.056)" fill="#ff912b"/>
        <path id="Trazado_115564" data-name="Trazado 115564" d="M339.808,141.567l.219.245a.544.544,0,0,1-.043.765l-4.7,4.2a.543.543,0,0,1-.765-.043l-.219-.245a.543.543,0,0,1,.043-.765l4.7-4.2a.544.544,0,0,1,.765.043" transform="translate(-103.752 -43.899)" fill="#ff912b"/>
        <path id="Trazado_115565" data-name="Trazado 115565" d="M358.726,124.658l.219.245a.543.543,0,0,1-.043.765l-4.7,4.2a.544.544,0,0,1-.765-.043l-.219-.245a.543.543,0,0,1,.043-.765l4.7-4.2a.544.544,0,0,1,.765.043" transform="translate(-109.626 -38.649)" fill="#ff912b"/>
        <path id="Trazado_115566" data-name="Trazado 115566" d="M337.21,136.184l0,.329a.544.544,0,0,1-.548.536l-6.307-.071a.543.543,0,0,1-.536-.548l0-.329a.544.544,0,0,1,.548-.536l6.307.071a.544.544,0,0,1,.536.548" transform="translate(-102.403 -42.091)" fill="#ff912b"/>
        <path id="Trazado_115567" data-name="Trazado 115567" d="M362.581,136.636h0a.709.709,0,0,1-.714.7l-5.978-.068a.706.706,0,1,1,.016-1.413l5.978.068a.708.708,0,0,1,.7.714" transform="translate(-110.281 -42.181)" fill="#ff912b"/>
        <path id="Trazado_115568" data-name="Trazado 115568" d="M438.972,137.468H371.614v-5.462h67.358Zm-66.718-.639h66.079v-4.184H372.254Z" transform="translate(-115.381 -40.986)" fill="#a9c2ff"/>
        <rect id="Rectángulo_37807" data-name="Rectángulo 37807" width="52.284" height="4.823" transform="translate(256.553 91.34)" fill="#a9c2ff"/>
        <path id="Trazado_115569" data-name="Trazado 115569" d="M341.3,185.966c0-4.414,6.77-12.736,6.77-12.736s6.769,8.322,6.769,12.736-3.03,7.992-6.769,7.992-6.77-3.579-6.77-7.992" transform="translate(-105.97 -53.785)" fill="#a9c2ff"/>
        <path id="Trazado_115570" data-name="Trazado 115570" d="M438.972,189.762H371.614V184.3h67.358Zm-66.718-.639h66.079v-4.184H372.254Z" transform="translate(-115.381 -57.223)" fill="#ff912b"/>
        <rect id="Rectángulo_37808" data-name="Rectángulo 37808" width="31.951" height="4.823" transform="translate(256.553 127.397)" fill="#ff912b"/>
        <path id="Trazado_115571" data-name="Trazado 115571" d="M352.638,246.869V229.2h-3.814v17.67a4.024,4.024,0,1,0,3.814,0" transform="translate(-107.648 -71.163)" fill="#a9c2ff"/>
        <path id="Trazado_115572" data-name="Trazado 115572" d="M438.972,249H371.614v-5.462h67.358Zm-66.718-.639h66.079v-4.184H372.254Z" transform="translate(-115.381 -75.615)" fill="#a9c2ff"/>
        <rect id="Rectángulo_37809" data-name="Rectángulo 37809" width="43.839" height="4.823" transform="translate(256.553 168.244)" fill="#a9c2ff"/>
        <path id="Trazado_115573" data-name="Trazado 115573" d="M348.758,258.765a2.61,2.61,0,1,1,2.61,2.611,2.61,2.61,0,0,1-2.61-2.611" transform="translate(-108.284 -79.532)" fill="#ff912b"/>
        <rect id="Rectángulo_37810" data-name="Rectángulo 37810" width="1.556" height="8.176" transform="translate(242.248 169.885)" fill="#ff912b"/>
        <rect id="Rectángulo_37811" data-name="Rectángulo 37811" width="6.294" height="8.751" transform="translate(150.378 164.732)" fill="#a9c2ff"/>
        <rect id="Rectángulo_37812" data-name="Rectángulo 37812" width="6.294" height="14.551" transform="translate(161.159 158.932)" fill="#a9c2ff"/>
        <rect id="Rectángulo_37813" data-name="Rectángulo 37813" width="6.294" height="19.303" transform="translate(171.94 154.18)" fill="#ff912b"/>
        <rect id="Rectángulo_37814" data-name="Rectángulo 37814" width="6.294" height="15.447" transform="translate(182.721 158.036)" fill="#a9c2ff"/>
        <rect id="Rectángulo_37815" data-name="Rectángulo 37815" width="6.294" height="23.667" transform="translate(193.503 149.816)" fill="#a9c2ff"/>
        <rect id="Rectángulo_37816" data-name="Rectángulo 37816" width="6.294" height="27.889" transform="translate(204.283 145.594)" fill="#ff912b"/>
        <rect id="Rectángulo_37817" data-name="Rectángulo 37817" width="13.279" height="1.218" transform="translate(169.442 125.859)" fill="#fff"/>
        <rect id="Rectángulo_37818" data-name="Rectángulo 37818" width="20.35" height="1.218" transform="translate(169.442 128.649)" fill="#fff"/>
        <rect id="Rectángulo_37819" data-name="Rectángulo 37819" width="13.279" height="1.218" transform="translate(193.013 89.016)" fill="#fff"/>
        <rect id="Rectángulo_37820" data-name="Rectángulo 37820" width="8.313" height="1.218" transform="translate(193.012 91.806)" fill="#fff"/>
        <path id="Trazado_115574" data-name="Trazado 115574" d="M649.527,168.32s25.185,28.622,33.972,46.29c0,0-10.566,23-44.815,41.69a11.868,11.868,0,0,1-3.845-1.993c-3.624-2.588.392-4.484,1.185-5,8.69-5.628,23.872-29.872,24.312-31.977s-19.029-20.971-24.946-27.947,4.94-24.66,14.138-21.066" transform="translate(-196.645 -52.113)" fill="#ffae73"/>
        <path id="Trazado_115575" data-name="Trazado 115575" d="M525.12,167.36s-32.962,31.381-40.585,30.55-37.436-8.032-37.436-8.032l-2.486,5.712S474.531,213.153,488.9,212.9s33.173-13.94,33.173-13.94Z" transform="translate(-138.046 -51.963)" fill="#ffae73"/>
        <path id="Trazado_115576" data-name="Trazado 115576" d="M587.782,107.488s.164,3.529-1.952,4.219,2.18,8.306,1.843,13.449-2.613,7.207-2.613,7.207,1.093-2.828.481-4.578c0,0,.1,3.639-2.559,5.475s-1.943,3.422-1.943,3.422-6.005-1.8-6.174-6.3a11.9,11.9,0,0,0-.05,2.879s-5.185-3.894-5.433-8.38,4.082-8.271,6.053-8.34,6.372-3.94,6.253-5.4,6.092-3.648,6.092-3.648" transform="translate(-176.782 -33.373)" fill="#2a3967"/>
        <path id="Trazado_115577" data-name="Trazado 115577" d="M571.64,69.739c3.495-5.306,17.367-2.336,30.986,6.633s21.827,20.541,18.332,25.846-17.367,2.336-30.986-6.633S568.145,75.045,571.64,69.739" transform="translate(-177.236 -20.836)" fill="#e9ac55"/>
        <path id="Trazado_115578" data-name="Trazado 115578" d="M592.341,332.877c-3.777,20.018-8.641,47.25-12.394,68.554-.445,2.516-.874,4.946-1.283,7.273-.093.537-.187,1.072-.28,1.6H540.868q-.079-.8-.151-1.6a279.062,279.062,0,0,1-.4-47.5c.4-5.164.934-9.924,1.522-14.242,2.468-25.5,3.3-36.3,3.548-39.877l.053-.788c0-.048.005-.093.008-.133l.008-.12c0-.072.01-.135.013-.192l.008-.157c0-.054,0-.077,0-.077l12.788,3.8,6.256,1.861L566,315.966l2.949,9.368,21.411,6.908Z" transform="translate(-167.505 -94.889)" fill="#305c7f"/>
        <path id="Trazado_115579" data-name="Trazado 115579" d="M621.089,334.975c-.647,10.4-1.712,47.075-2.9,70.786q-.04.811-.08,1.6H579.213q-.179-.794-.359-1.6c-4.129-18.568-7.51-39.417-9.932-56.339-.426.019-4.866-30.221-15.993-43.553-.1-.119-.114-.215-.053-.288.551-.708,7.613.516,7.613.516a15.633,15.633,0,0,0,1.925.378c5.34.732,13.094-.447,20.787-2.241h0c2.08-.485,4.15-1.014,6.171-1.562,5.7-1.547,10.969-3.246,14.731-4.523.934-.316,1.773-.61,2.5-.865.591-.208,1.11-.394,1.547-.551h0c1.049-.379,1.634-.6,1.634-.6s.263.232.714.711a37.858,37.858,0,0,1,7.637,13.44,62.864,62.864,0,0,1,2.947,24.69" transform="translate(-171.648 -91.945)" fill="#3c6d9d"/>
        <path id="Trazado_115580" data-name="Trazado 115580" d="M583.123,65.834,607.6,102.978s2.8-5.484,5.908-3.517c4.849,3.064,15.269-7.425,13.1-22.235-.143-.968-.313-1.888-.5-2.762-4.884-7.037-10.309-14.873-14.2-20.381-11.242-6.79-28.782,11.751-28.782,11.751" transform="translate(-181.051 -16.328)" fill="#2a3967"/>
        <path id="Trazado_115581" data-name="Trazado 115581" d="M567.52,162.066a41.8,41.8,0,0,0,13.642,8.131c21.618,8.192,32.737-9.508,37.71-22.02a19.365,19.365,0,0,0-7.245-3.352c-1.271-.328-2.6-.622-3.8-.86a2.415,2.415,0,0,1-1.547-1.023c-2.062-3.112-4.147-11-3.4-22.08L601.8,121l-18.245,2.422s.045,5.7-.279,11.04a54.884,54.884,0,0,1-.665,6.2,3.674,3.674,0,0,1-3.259,2.986h0a.04.04,0,0,1-.011.015,114.322,114.322,0,0,0-11.818,18.4" transform="translate(-176.207 -37.526)" fill="#ffae73"/>
        <path id="Trazado_115582" data-name="Trazado 115582" d="M590.645,123.491s.049,5.7-.279,11.04c10.1.358,16.017-8.5,18.525-13.461Z" transform="translate(-183.3 -37.59)" fill="#f99352"/>
        <path id="Trazado_115583" data-name="Trazado 115583" d="M582.563,113.692s23.832,1.912,24.794-12.948,4.686-24.62-10.49-26.47-18.5,3.63-20.029,8.511-.45,30.026,5.724,30.906" transform="translate(-178.908 -22.947)" fill="#ffae73"/>
        <path id="Trazado_115584" data-name="Trazado 115584" d="M577.465,73.252c3.972-4.235,6.7-3.077,8.172-1.633,13.5-6.339,21.225,4.795,21.225,4.795a28.446,28.446,0,0,0,8.218,17.362s-4.52,2.409-14.38-.807c-3.012-.983-5.608-3.332-7.763-6.12a55.77,55.77,0,0,0,8.834,12.309C590.148,92.86,586.4,75.9,586.033,74.109c-1.54,1.215-4.591,3.874-5.644,6.6-1.43,3.709-2.461,11.465-4.714,11.056,0,0-4.167-12.163,1.79-18.515" transform="translate(-178.299 -21.631)" fill="#2a3967"/>
        <path id="Trazado_115585" data-name="Trazado 115585" d="M629.028,82.835s11.083-22.061-4.4-30.781-26.823-5.3-35.344,5.369Z" transform="translate(-182.963 -14.624)" fill="#f4bb6b"/>
        <path id="Trazado_115586" data-name="Trazado 115586" d="M610.808,198.105c.849.884,1.379,1.382,1.379,1.382,18.053-2.247,18.9-20.785,18.9-20.785s-14.131-18.635-27.323-22.734a69.238,69.238,0,0,0-8.027-1.74c-4.127,3.423-8.882,8.438-13.354,12.517-5.156,4.7-14.03,6.3-17.312-2.041-1.315-3.341,1.847-10.275,2.171-10.774a.069.069,0,0,0,.01-.017c-.339.022-.668.047-.991.069-1.618.129-3.075.327-4.4.46-6.438.645-15.331,4.913-33.3,27.656,0,0,9.71,11.992,19.573,12.689-.4,19,1.643,49.94,1.643,49.94-4.308,8.473,59.7,28.1,62.467,20.018,4.144-6.322.008-18.427-3.573-27.705-.878-2.265-1.072-4.678-1.853-6.43a21.049,21.049,0,0,1-1.192-3.464,20.513,20.513,0,0,1-.207-9.1,195.973,195.973,0,0,1,5.386-19.941" transform="translate(-164.111 -47.788)" fill="#ffb500"/>
        <path id="Trazado_115587" data-name="Trazado 115587" d="M619.64,82.036q-.7-.718-1.44-1.445l0,0A106.3,106.3,0,0,0,600.332,66.78a110.835,110.835,0,0,0-16.493-8.529h0q-1.561-.643-3.079-1.2c-12.059-4.411-21.778-4.747-24.72-.032-3.1,4.973,2.149,14.234,12.435,23.628l0,0c-.008-.081-.019-.161-.027-.241s-.013-.163-.021-.245-.016-.189-.024-.285c0-.07-.01-.139-.016-.21-.006-.117-.013-.234-.021-.354-.008-.149-.016-.3-.021-.45,0-.016,0-.034,0-.053,0-.11-.008-.221-.01-.333v-.1c0-.072,0-.143,0-.218,0-.262,0-.527.005-.791,0-.093,0-.189.008-.282,0-.054.006-.106.006-.161.005-.087.008-.174.016-.26.008-.162.019-.323.032-.482s.029-.319.045-.483c0-.007,0-.018,0-.026.005-.059.013-.117.019-.174.006-.037.008-.074.014-.108.016-.112.029-.224.045-.336.024-.183.053-.365.088-.545,0-.03.01-.061.016-.091.037-.215.08-.428.13-.641.021-.106.048-.213.074-.317l.008-.039c-1.1-2.316-1.3-4.318-.4-5.756,1.038-1.666,3.4-2.34,6.61-2.129h0c.088.006.176.013.266.021h0a25.6,25.6,0,0,1,3.86.621h0c.325.074.652.154.987.242,1.214.319,2.489.716,3.81,1.193h.016a67.826,67.826,0,0,1,12.653,6.264c1.813,1.131,3.53,2.308,5.135,3.5h0c.16.119.32.239.477.359,7.419,5.627,12.32,11.673,12.881,15.848a4.246,4.246,0,0,1-.511,2.895c-.04.063-.083.125-.13.186-.005.011-.011.019-.016.027a3.889,3.889,0,0,1-1.292,1.109l0,0c-.072.042-.144.08-.219.114,0,0,0,0,0,0a6.817,6.817,0,0,1-1.89.575h-.005c-.069.056-.138.11-.208.163-.05.04-.1.08-.157.117s-.1.074-.154.112c-.016.01-.032.021-.048.034-.09.059-.179.121-.266.179-.139.09-.28.176-.418.258-.07.04-.139.08-.208.117s-.139.074-.208.108c-.094.049-.184.094-.277.137a1.089,1.089,0,0,1-.1.048c-.034.016-.069.029-.1.044l-.005,0a.263.263,0,0,1-.024.012c-.042.019-.085.034-.128.053-.064.024-.125.05-.189.072-.08.03-.157.059-.234.083s-.149.048-.221.066l-.021.008c-.061.016-.12.032-.181.046a.572.572,0,0,1-.066.019c-.056.013-.112.026-.17.037s-.139.026-.21.037c-.043.008-.085.013-.128.019l-.152.019c-.066.008-.13.013-.2.015a.782.782,0,0,1-.08,0h-.032a.257.257,0,0,1-.051,0h-.019a.582.582,0,0,1-.069,0,4.079,4.079,0,0,1-.514-.032,3.737,3.737,0,0,1-.493-.1c-.079-.023-.159-.048-.237-.074-.059-.021-.117-.045-.173-.069a1.291,1.291,0,0,1-.128-.056c-.034-.016-.069-.032-.1-.051a.714.714,0,0,1-.09-.048c-.061-.032-.12-.068-.179-.1a2.827,2.827,0,0,0-.365-.2c-.04-.019-.08-.035-.117-.051-.016,0-.032-.013-.048-.019a1.464,1.464,0,0,0-.176-.059,2.37,2.37,0,0,0-.687-.1H603.4a.072.072,0,0,0-.024,0h-.032a.708.708,0,0,0-.085,0,.379.379,0,0,0-.056,0c-.051.006-.1.01-.146.018l-.017,0c-.021,0-.045.009-.066.014a.764.764,0,0,0-.114.024c-.037.008-.075.019-.115.03a1.078,1.078,0,0,0-.133.039l-.088.032a1.134,1.134,0,0,0-.131.05h0c-.035.012-.067.027-.1.042s-.064.03-.093.045-.072.039-.11.057l-.1.057c-.037.021-.072.041-.107.063l-.1.064c-.034.021-.069.043-.1.067a.822.822,0,0,0-.1.072,2.456,2.456,0,0,0-.2.149.913.913,0,0,0-.1.077c-.032.026-.063.053-.1.082-.064.054-.125.109-.186.165s-.123.112-.181.172c-.03.03-.059.059-.088.091s-.059.059-.086.088-.064.064-.093.1h0q1.749.722,3.442,1.336a62.457,62.457,0,0,0,10.092,2.811c7.115,1.28,12.442.448,14.489-2.832,2.726-4.374-1.006-12.059-8.936-20.243" transform="translate(-172.366 -16.647)" fill="#ffcd76"/>
        <path id="Trazado_115588" data-name="Trazado 115588" d="M626.187,257.384c9.22,2.954,4.915-2.1,12.037-1.587-.878-2.265-1.527-4.317-2.309-6.068a21,21,0,0,1-1.191-3.464,20.5,20.5,0,0,1-.207-9.1,177.179,177.179,0,0,1,5.386-19.941c-2.037-5.353-10.732,3.423-10.732,3.423s-8.052,8.458-5.944,22.842c1.963,13.4-5,11.345,2.96,13.894" transform="translate(-193.206 -66.908)" fill="#d1940b"/>
        <path id="Trazado_115589" data-name="Trazado 115589" d="M627.182,156.437a47.324,47.324,0,0,0-18.693,29.571l-4.5-1.43s1.9-14.452,19.116-29.157c0,0,1.3.257,1.732.365.585.146,2.347.651,2.347.651" transform="translate(-187.529 -48.256)" fill="#3c6d9d"/>
        <path id="Trazado_115590" data-name="Trazado 115590" d="M561.372,186.08l4.714.31a47.821,47.821,0,0,1,10.363-32.373c-1.618.13-3.083.286-4.4.46-9.568,14.609-10.679,31.6-10.679,31.6" transform="translate(-174.298 -47.82)" fill="#3c6d9d"/>
        <path id="Trazado_115591" data-name="Trazado 115591" d="M590.665,207.348c.292-1.239,3.175-13.279,3.175-13.279s.665-3.764-5.95-4.136-30.081-1.609-30.081-1.609a7.314,7.314,0,0,0-3.245,5.891c-.048,3.961-3.241,26.619-3.241,26.619l-3.285,49.832L619.6,301.5s4.907-25.186-.587-42.74c-3.2-10.239-7.335-20.929-7.335-20.929s-25.465-11.56-21.012-30.483" transform="translate(-170.158 -58.472)" fill="#3c6d9d"/>
        <path id="Trazado_115592" data-name="Trazado 115592" d="M609.045,196.083a1.977,1.977,0,1,0-2.482,1.286,1.977,1.977,0,0,0,2.482-1.286" transform="translate(-187.901 -60.081)" fill="#fc7600"/>
        <path id="Trazado_115593" data-name="Trazado 115593" d="M608.554,195.927a1.977,1.977,0,1,0-2.482,1.286,1.977,1.977,0,0,0,2.482-1.286" transform="translate(-187.749 -60.033)" fill="#ff912b"/>
        <path id="Trazado_115594" data-name="Trazado 115594" d="M609.079,196.087a.287.287,0,1,0-.287.288.288.288,0,0,0,.287-.288" transform="translate(-188.932 -60.793)" fill="#25468f"/>
        <path id="Trazado_115595" data-name="Trazado 115595" d="M606.358,196.092a.287.287,0,1,0-.287.288.287.287,0,0,0,.287-.288" transform="translate(-188.087 -60.795)" fill="#25468f"/>
        <path id="Trazado_115596" data-name="Trazado 115596" d="M566.845,192.44a1.977,1.977,0,1,0-2.482,1.287,1.976,1.976,0,0,0,2.482-1.287" transform="translate(-174.798 -58.95)" fill="#fc7600"/>
        <path id="Trazado_115597" data-name="Trazado 115597" d="M566.354,192.285a1.977,1.977,0,1,0-2.482,1.286,1.977,1.977,0,0,0,2.482-1.286" transform="translate(-174.646 -58.902)" fill="#ff912b"/>
        <path id="Trazado_115598" data-name="Trazado 115598" d="M566.879,192.445a.287.287,0,1,0-.287.288.287.287,0,0,0,.287-.288" transform="translate(-175.83 -59.662)" fill="#25468f"/>
        <path id="Trazado_115599" data-name="Trazado 115599" d="M564.158,192.449a.287.287,0,1,0-.287.288.287.287,0,0,0,.287-.288" transform="translate(-174.985 -59.664)" fill="#25468f"/>
        <path id="Trazado_115600" data-name="Trazado 115600" d="M633.864,111.594s.164,3.529-1.952,4.219,2.18,8.306,1.843,13.449-2.613,7.207-2.613,7.207,1.092-2.828.481-4.578c0,0,.1,3.639-2.559,5.474s-1.942,3.423-1.942,3.423-6.005-1.8-6.174-6.3a11.886,11.886,0,0,0-.05,2.879s-5.185-3.894-5.432-8.38,4.082-8.272,6.053-8.34,6.372-3.94,6.253-5.4,6.092-3.648,6.092-3.648" transform="translate(-191.09 -34.648)" fill="#2a3967"/>
        <path id="Trazado_115601" data-name="Trazado 115601" d="M591.6,118.9s-3.551,2.153-6.079,1.9c-2.5-.248-3.866-3.267-3.866-3.267A20.99,20.99,0,0,1,591.6,118.9" transform="translate(-180.595 -36.455)" fill="#fff1e7"/>
        <path id="Trazado_115602" data-name="Trazado 115602" d="M599.353,289H551.525a6.054,6.054,0,0,1-5.1-3.625l-12.04-29.64c-.813-2,.151-3.625,2.153-3.625h47.828a6.052,6.052,0,0,1,5.1,3.625l12.04,29.64c.814,2-.15,3.625-2.153,3.625" transform="translate(-165.83 -78.277)" fill="#9bc8ff"/>
        <path id="Trazado_115603" data-name="Trazado 115603" d="M595.213,289H547.385a6.053,6.053,0,0,1-5.1-3.625l-12.04-29.64c-.813-2,.151-3.625,2.153-3.625h47.829a6.052,6.052,0,0,1,5.1,3.625l12.04,29.64c.813,2-.15,3.625-2.153,3.625" transform="translate(-164.544 -78.277)" fill="#65a3ff"/>
        <path id="Trazado_115604" data-name="Trazado 115604" d="M536.8,255.41h0a2.774,2.774,0,0,1,2.328,1.656c.37.911-.072,1.656-.983,1.656a2.772,2.772,0,0,1-2.328-1.656c-.37-.91.072-1.656.983-1.656" transform="translate(-166.324 -79.301)" fill="#25468f"/>
        <path id="Trazado_115605" data-name="Trazado 115605" d="M544.635,256.41h0a1.618,1.618,0,0,1,1.358.966c.216.531-.042.966-.574.966a1.62,1.62,0,0,1-1.358-.966c-.216-.532.042-.966.574-.966" transform="translate(-168.9 -79.612)" fill="#25468f"/>
        <path id="Trazado_115606" data-name="Trazado 115606" d="M571.938,275.9c-.8-1.965.148-3.558,2.113-3.558a5.94,5.94,0,0,1,5,3.558c.8,1.964-.148,3.557-2.113,3.557a5.94,5.94,0,0,1-5-3.557" transform="translate(-177.491 -84.559)" fill="#9bc8ff"/>
        <path id="Trazado_115607" data-name="Trazado 115607" d="M632.856,283.857s-6.577-3.75-8.162-5.482c-1.023-1.119-1.085.32-1.019.724a5.541,5.541,0,0,0,2.124,3.947c2.694,2.2,7.056.812,7.056.812" transform="translate(-193.636 -86.302)" fill="#ffae73"/>
        <path id="Trazado_115608" data-name="Trazado 115608" d="M626.126,285.04s-11.862-3.563-14.595-3.254-8.971,2.254-9.474,2.761,1.645,1.043,3.279.565a13.981,13.981,0,0,1,5.393.076,83.471,83.471,0,0,0-8.316,2.175.244.244,0,0,0-.053.413,4.3,4.3,0,0,0,2.893.309,50.784,50.784,0,0,1,5.82-.241l-7.561,1.642a.2.2,0,0,0-.161.2c.012.359.616.744,2.382.824a57.994,57.994,0,0,0,5.971-.619l-4.106,2.167s.995.712,3.092.02c1.438-.474,5.728-1.549,6.719-1.34s5.933,1.955,8.268,1.656a13.371,13.371,0,0,0,3.27-.723Z" transform="translate(-186.907 -87.485)" fill="#ffae73"/>
        <path id="Trazado_115609" data-name="Trazado 115609" d="M440.054,195.878s-5.952-6.359-8.139-7.117-9.995-2.075-9.995-2.075.031,1.868,3.525,3.157,4.225,7.349,6.292,9.064,7.53,3.2,7.53,3.2Z" transform="translate(-131 -57.963)" fill="#ffae73"/>
        <path id="Trazado_115610" data-name="Trazado 115610" d="M439.157,205.78s-5.8-.253-7.683-1.437-4.953-2.731-4.36-3.673,6.986-.232,6.986-.232Z" transform="translate(-132.59 -62.154)" fill="#ffae73"/>
        <path id="Trazado_115611" data-name="Trazado 115611" d="M432.031,188.914c-.3-.137-8.036-5.306-8.036-5.306s-.652,2.451.487,2.916,7.549,2.391,7.549,2.391" transform="translate(-131.587 -57.008)" fill="#ffae73"/>
        <path id="Trazado_115612" data-name="Trazado 115612" d="M668.835,263.762a129.312,129.312,0,0,1-30.15,22.321,11.873,11.873,0,0,1-3.847-1.994c-3.623-2.587.392-4.483,1.185-5,3.937-2.551,9.211-8.926,13.84-15.331Z" transform="translate(-196.645 -81.894)" fill="#ffae73"/>
        <path id="Trazado_115613" data-name="Trazado 115613" d="M102.835,446.06H44.885c-.008-.021-.016-.043-.024-.063l-.29-.77-.048-.1v-.048a.178.178,0,0,1-.048-.1,13.279,13.279,0,0,1-.535-1.36c-.1-.245-.194-.538-.341-.828v-.1l-.048-.048c-.668-1.735-1.5-4-2.452-6.726q-.128-.371-.264-.751c-.716-2.063-1.5-4.374-2.342-6.919q-.579-1.792-1.19-3.74c5.726-1.595,13.213-2.694,19.879-.53a25.19,25.19,0,0,1,9.488,5.529c4.587,4.174,6.482,8.3,11.823,6.7a19.224,19.224,0,0,1,4.627-.711c8.6-.386,20.483,3.242,19.714,10.563" transform="translate(-11.582 -131.266)" fill="#73b471"/>
        <path id="Trazado_115614" data-name="Trazado 115614" d="M602.379,455.809v.232a.683.683,0,0,1-.681.681H.682A.683.683,0,0,1,0,456.041v-.232a.685.685,0,0,1,.682-.684H601.7a.685.685,0,0,1,.681.684" transform="translate(0 -141.31)" fill="#2d3554"/>
      </g>
    </g>
  </g>
</svg>
