<svg xmlns="http://www.w3.org/2000/svg" xmlns:xlink="http://www.w3.org/1999/xlink" width="171.923" height="178.611" viewBox="0 0 171.923 178.611">
  <defs>
    <clipPath id="clip-path">
      <rect id="Rect치ngulo_37839" data-name="Rect치ngulo 37839" width="171.923" height="171.923" fill="none"/>
    </clipPath>
    <clipPath id="clip-path-2">
      <path id="Trazado_115636" data-name="Trazado 115636" d="M85.958,1.5a84.462,84.462,0,1,0,84.464,85.125c0-.221,0-.444,0-.666A84.466,84.466,0,0,0,85.961,1.5h0" fill="none"/>
    </clipPath>
    <radialGradient id="radial-gradient" cx="0.077" cy="0.019" r="1.463" gradientTransform="translate(0 0)" gradientUnits="objectBoundingBox">
      <stop offset="0" stop-color="#f6f6f7"/>
      <stop offset="0.477" stop-color="#f9f9fa"/>
      <stop offset="0.715" stop-color="#fff"/>
      <stop offset="1" stop-color="#fff"/>
    </radialGradient>
  </defs>
  <g id="img19" transform="translate(-96.39 -1958)">
    <g id="Grupo_143127" data-name="Grupo 143127" transform="translate(96.39 1958)">
      <g id="Grupo_143128" data-name="Grupo 143128">
        <g id="Grupo_143127-2" data-name="Grupo 143127" clip-path="url(#clip-path)">
          <path id="Trazado_115635" data-name="Trazado 115635" d="M170.432,85.962A84.465,84.465,0,1,1,85.964,1.5h0a84.464,84.464,0,0,1,84.464,84.461" fill="#fff"/>
        </g>
      </g>
      <g id="Grupo_143130" data-name="Grupo 143130">
        <g id="Grupo_143129" data-name="Grupo 143129" clip-path="url(#clip-path-2)">
          <rect id="Rect치ngulo_37840" data-name="Rect치ngulo 37840" width="168.924" height="169.106" transform="translate(1.499 1.5)" fill="url(#radial-gradient)"/>
        </g>
      </g>
      <g id="Grupo_143132" data-name="Grupo 143132">
        <g id="Grupo_143131" data-name="Grupo 143131" clip-path="url(#clip-path)">
          <path id="Trazado_115637" data-name="Trazado 115637" d="M170.422,85.958a84.131,84.131,0,1,0,0,.667C170.423,86.4,170.423,86.181,170.422,85.958Z" fill="none" stroke="#5f9025" stroke-miterlimit="10" stroke-width="3"/>
          <path id="Trazado_115638" data-name="Trazado 115638" d="M161.608,51.626c18.677,41.372-2.08,86.24-44.1,104.629-35.844,15.686-77.216,8.192-100.341-23C42.834,170.644,94.428,180.47,132.4,155.2c34.273-22.807,47.361-66.98,29.2-103.574" fill="#eceef0"/>
          <path id="Trazado_115639" data-name="Trazado 115639" d="M128.792,109.97a18.794,18.794,0,0,1,2.009.013c.9.115,1.339-.25,1.764-1.061,1.551-2.95,5.848-4.467,9.583-3.466a16.3,16.3,0,0,1,7.056,4.211,2.164,2.164,0,0,1,.132,2.994,16.087,16.087,0,0,1-7.5,4.564c-3.666.908-6.681-.314-9.459-3.415.508,2.817.967,5.208,1.358,7.61a19.39,19.39,0,0,1,.223,2.9,2.012,2.012,0,0,1-2.216,2.1,50.856,50.856,0,0,1-6.66-1.376c-1.868-.55-2.442-.53-3.734.792a2.876,2.876,0,0,1-1.718.783,16.007,16.007,0,0,1-9.278-2.138c.174.862.289,1.395.388,1.931a2.115,2.115,0,0,1-1.765,2.508c-2.5.1-5.007.029-7.589.029.2.442.733,1.049.672,1.59-.1.9-.337,2.229-.944,2.538a13.056,13.056,0,0,1-8.49,1.274,8.185,8.185,0,0,1-6.077-5.065l-20.79,20.77-1.8-1.943,10.848-23.438H24.938c-2.4,0-3.147-.885-2.816-3.3.3-2.165.5-4.347.9-6.492a4.649,4.649,0,0,1,1.144-2.246c2.759-2.877,5.633-5.643,8.4-8.516a4.58,4.58,0,0,0,1.189-2.209c1.8-9.986,3.529-19.986,5.292-29.979a1.255,1.255,0,0,0-.728-1.616A5.289,5.289,0,0,1,35.4,66.186c-.4-2.788-.743-5.589-.962-8.4a5.624,5.624,0,0,1,4.846-6.4,9.779,9.779,0,0,0,5.323-2.937c6.976-7.116,14.064-14.124,21.113-21.17,7.245-7.242,16.892-7.231,24.17.036Q100.782,38.2,111.639,49.1a5.918,5.918,0,0,0,3.58,1.993,9.9,9.9,0,0,1,1.693.425,5.657,5.657,0,0,1,4.237,6.037c-.228,2.9-.571,5.8-.986,8.686a5.744,5.744,0,0,1-2.917,4.156,1.63,1.63,0,0,0-.7,1.278c1.591,9.332,3.243,18.654,4.909,28.118a8.994,8.994,0,0,0,.85-.542c2.816-2.308,6.142-3.017,9.667-3.044a2.064,2.064,0,0,1,1.988,2.207c-.1,4.416-1.071,8.477-5.164,11.558M86.585,67.451c-.374-.048-.608-.094-.844-.106a162.352,162.352,0,0,0-42.585,3.449c-.931.2-1.129.649-1.263,1.43-1.211,7.032-2.412,14.066-3.711,21.083a1.588,1.588,0,0,0,1.047,2.008A32.47,32.47,0,0,0,53,98.61c3.235.138,6.481.026,9.775.026.074,1,.137,1.855.211,2.859-8.8.362-17.4.295-25.523-3.8-.326,1.773-.518,3.462-.974,5.077a7.393,7.393,0,0,1-1.523,3c-2.656,2.838-5.46,5.537-8.2,8.3-.336.34-.811.708-.88,1.121-.357,2.13-.6,4.278-.911,6.6H56.246c6.174,0,12.347.011,18.521-.021.522,0,1.328-.133,1.514-.472.848-1.538,1.52-3.172,2.295-4.858-5.546.185-9.267-3.091-9.279-8.438a27.258,27.258,0,0,1,1.394-7.077c.441-1.606,1.829-2.022,3.328-1.265.841.425,1.659.894,2.743,1.482-2.708-4.362-2.013-8.52-.355-12.675a2.174,2.174,0,0,1,3.284-1.2c.747.368,1.476.774,2.584,1.358-2.5-4.336-1.817-8.318-.276-12.286.668-1.719,1.9-2.146,3.572-1.289.7.362,1.388.758,2.082,1.139-1.532-2.8-1.556-5.665-1.068-8.733m22.987-.348a2.609,2.609,0,0,0,.439.242c1.139.241,2.278.487,3.421.708,2.235.433,3.615-.491,3.922-2.7q.482-3.462.83-6.942c.287-2.878-.361-3.716-3.161-4.4a152.925,152.925,0,0,0-28.484-4.229A155.451,155.451,0,0,0,40.012,54.16c-2.174.549-2.867,1.517-2.66,3.8.2,2.175.451,4.347.749,6.511.467,3.385,1.6,4.17,4.891,3.441a164.7,164.7,0,0,1,32.227-3.661c4.072-.086,8.147-.013,12.285-.013.871-2.254,2.493-2.439,4.369-1.165a16.458,16.458,0,0,1,1.72,1.087c1.442,1.275,3.158,1.213,5.025,1.233A9.333,9.333,0,0,1,102.7,56.1a27.852,27.852,0,0,1,4.393-2.546,2.148,2.148,0,0,1,3.251,1.462c1.34,4.1,1.787,8.157-.773,12.087m-1.786-17.671c-.505-.57-.768-.9-1.064-1.195q-9.537-9.544-19.082-19.08c-5.89-5.87-13.808-5.874-19.683-.015q-9.5,9.475-18.981,18.976c-.331.331-.634.689-1.231,1.342a162.584,162.584,0,0,1,60.041-.028m-1.575,55.807a10.207,10.207,0,0,1,4.241-6.714c2.14-1.535,4.337-3.018,7.3-3.052-1.009-5.764-2.03-11.591-3.1-17.728-2.314,3.469-4.858,6.115-9.109,6.7,1.24.495,2.263.819,3.2,1.3a1.9,1.9,0,0,1,1.01,2.654c-2.007,4.092-4.7,7.465-9.889,8.374.808.3,1.32.542,1.857.688a3.426,3.426,0,0,1,2.679,2.684c.423,1.66,1.141,3.245,1.815,5.1m-35.3,34.775-.178-.266,15.084-15.071c-1.973,0-4.249.064-6.519-.029a1.778,1.778,0,0,0-1.938,1.287c-1.759,3.937-3.583,7.846-5.383,11.765q-.532,1.158-1.066,2.314m18.6-31.629a14.494,14.494,0,0,0-4.924,5.495,6.546,6.546,0,0,0,.288,6.268,2.466,2.466,0,0,0,3.712.923,6.167,6.167,0,0,0,2.784-3.761c.785-3.2-.388-5.982-1.86-8.925m12.046-7.131a13.748,13.748,0,0,0-4.829,5.012,6.234,6.234,0,0,0,.09,6.135,2.3,2.3,0,0,0,3.338,1,5.9,5.9,0,0,0,3.105-4.355,12.424,12.424,0,0,0-1.7-7.793m14.686-2.461-.485-.38a55.89,55.89,0,0,0-5.1,3.93,5.607,5.607,0,0,0-1.323,5.8,2.285,2.285,0,0,0,3.247,1.673,5.8,5.8,0,0,0,3.692-3.651,12.67,12.67,0,0,0-.029-7.376M107.759,126.6a12.434,12.434,0,0,0-3.077-6.375A5.616,5.616,0,0,0,99.79,118.5a2.2,2.2,0,0,0-2.043,2.988,5.382,5.382,0,0,0,3.871,4.166,56.881,56.881,0,0,0,6.141.942m-1.147-38.715a28.588,28.588,0,0,0-3.316-.857c-2.579-.351-5.062-.205-6.854,2.088-1.771,2.267-1.092,4.047,1.729,4.56,3.255.592,6.9-1.843,8.441-5.791m40.241,23.141a52.226,52.226,0,0,0-5.085-2.647,5.643,5.643,0,0,0-5.979,1.114,2.163,2.163,0,0,0-.07,3.6,5.55,5.55,0,0,0,4.978,1.412,12.908,12.908,0,0,0,6.156-3.479M107.608,56.076a56.474,56.474,0,0,0-4.691,3.824,5.534,5.534,0,0,0-1.276,5.67A2.186,2.186,0,0,0,104.9,67.1a5.618,5.618,0,0,0,3.308-3.8c.613-2.267.3-4.476-.6-7.216M90.631,65.288l-.762.352c-.215,1.85-.578,3.7-.606,5.551a5.534,5.534,0,0,0,3.218,5.145,2.137,2.137,0,0,0,3.213-1.141,5.166,5.166,0,0,0-.565-5.509,56.636,56.636,0,0,0-4.5-4.4M84.268,77.679a46.166,46.166,0,0,0-.737,5.557,5.75,5.75,0,0,0,3.288,5.416A2.126,2.126,0,0,0,90.024,87.5a5.553,5.553,0,0,0-.237-5.039,12.243,12.243,0,0,0-5.519-4.781M73.43,102.562l-.57.1a42.124,42.124,0,0,0-.7,5.24,5.71,5.71,0,0,0,3.131,5.353,2.2,2.2,0,0,0,3.448-1.316,5.838,5.838,0,0,0,.352-1.983c-.1-3.855-2.906-5.609-5.657-7.389m45.477,21.146c-.3-2.548-.87-4.941-2.726-6.638a7.7,7.7,0,0,0-3.69-1.754c-2.225-.392-3.253.915-2.8,3.117a5.5,5.5,0,0,0,2.442,3.651,10.867,10.867,0,0,0,6.776,1.624M79.248,89.945l-.748.285c-.206,1.9-.556,3.8-.579,5.7a5.439,5.439,0,0,0,2.935,4.874c1.631.97,3.035.43,3.646-1.381a5.237,5.237,0,0,0-.872-5.351,56.8,56.8,0,0,0-4.382-4.131m51.794,9.211a11.12,11.12,0,0,0-6.776,2.233,5.549,5.549,0,0,0-2.1,4.308,2.177,2.177,0,0,0,2.52,2.459,5.731,5.731,0,0,0,4.592-2.7,12.541,12.541,0,0,0,1.767-6.3m-.014,24.34a12.468,12.468,0,0,0-1.648-6.153,5.749,5.749,0,0,0-4.647-2.862,2.178,2.178,0,0,0-2.572,2.4,5.573,5.573,0,0,0,2.294,4.509,11.681,11.681,0,0,0,6.573,2.105m-18.48-47.4-.258-.83c-2.089-.2-4.178-.555-6.268-.561a5.063,5.063,0,0,0-4.356,2.752c-1,1.642-.508,3.05,1.291,3.67a5.33,5.33,0,0,0,5.377-.742,56.521,56.521,0,0,0,4.214-4.289M98.879,131.2c.1-.235.19-.471.284-.706a49.888,49.888,0,0,0-3.7-3.956,4.533,4.533,0,0,0-4.519-.8c-1.753.547-2.224,1.767-1.239,3.349a4.744,4.744,0,0,0,4.03,2.482c1.712.023,3.427-.232,5.141-.366m-.631-31.712c-.144-.033-.552-.153-.969-.218-3.253-.51-6.082.682-7.119,3.226a2.741,2.741,0,0,0,.28,2.469,8.325,8.325,0,0,0,3.031,1.079c.077.022.257-.254.367-.407,1.457-2.026,2.91-4.055,4.41-6.149m15.41-26.463c.239-1.566-.4-2.174-1.739-2.363-1.534-.217-3.039-.778-4.571-.84a10.529,10.529,0,0,0-4.218.65c-.622.247-.843,1.5-1.425,2.648,4.194-2.2,8.039-1.486,11.953-.1M82.211,108.547l2.016-4.357-4.354-.345c.708,1.424,1.511,3.037,2.338,4.7M92.25,93.692c-.35.774-1.029,2.275-1.675,3.705l5.288-1.338-.665.732-2.948-3.1m9.187-9.92-.63.751-2.848-3.211L96.24,85.067l5.2-1.295M91.291,79.225l2.3,4.651,1.981-4.305-4.278-.346M85.636,91.558,87.91,96.2l1.969-4.3-4.243-.343m33.5,15.567c-.577,1.006-1.133,1.977-1.691,2.952h3.5l-1.809-2.952m-15.861,8.712,3.186,1.883.85-3.283-4.036,1.4m17.089-2.607h-4.1l2.9,2.541c.415-.876.8-1.689,1.2-2.541m-40.977,8.419h2.883c-.444-1.2-.833-2.257-1.288-3.49l-1.6,3.49m21.154-52.858-2.587-.441,1.2,3.435,1.387-2.994m7.013,42.583c.036-.154.073-.308.109-.462-.438-.133-.956-.475-1.295-.347-.4.153-.649.711-.963,1.093l.255.244,1.894-.528" fill="#12263f"/>
          <path id="Trazado_115640" data-name="Trazado 115640" d="M77.661,26.892a1.851,1.851,0,0,1,1.89,1.842,1.756,1.756,0,0,1-1.765,1.908,1.8,1.8,0,0,1-1.932-1.873,1.858,1.858,0,0,1,1.807-1.877" fill="#12263f"/>
          <path id="Trazado_115641" data-name="Trazado 115641" d="M77.968,34.2a1.855,1.855,0,0,1-3.706-.066,1.854,1.854,0,1,1,3.706.066" fill="#12263f"/>
          <path id="Trazado_115642" data-name="Trazado 115642" d="M84.978,30.561A1.688,1.688,0,0,1,83.1,32.128a1.7,1.7,0,0,1-1.785-1.847,1.827,1.827,0,0,1,1.957-1.854,1.894,1.894,0,0,1,1.7,2.134" fill="#12263f"/>
          <path id="Trazado_115643" data-name="Trazado 115643" d="M86.367,39a1.672,1.672,0,0,1,1.8-1.639A1.567,1.567,0,0,1,89.815,39a1.6,1.6,0,0,1-1.695,1.756c-1.053.009-1.647-.656-1.753-1.757" fill="#12263f"/>
          <path id="Trazado_115644" data-name="Trazado 115644" d="M81.2,37.171c-.335-.46-1.054-1.036-1.188-1.726-.207-1.073.585-1.748,1.645-1.768a1.59,1.59,0,0,1,1.711,1.631c.039,1.077-.622,1.676-2.168,1.863" fill="#12263f"/>
          <path id="Trazado_115645" data-name="Trazado 115645" d="M89.082,33.5c-.04,1.62-.66,2.261-1.721,2.266a1.553,1.553,0,0,1-1.675-1.641c-.017-1.086.607-1.867,1.686-1.7.691.108,1.292.795,1.71,1.073" fill="#12263f"/>
          <path id="Trazado_115646" data-name="Trazado 115646" d="M94.688,40.44c-.13,1.557-.671,2.214-1.786,2.195a1.532,1.532,0,0,1-1.639-1.654c-.019-1.114.681-1.839,1.711-1.686.683.1,1.273.832,1.714,1.145" fill="#12263f"/>
        </g>
      </g>
    </g>
    <g id="Grupo_143128-2" data-name="Grupo 143128" transform="translate(203.5 2095.705)">
      <path id="Trazado_113904" data-name="Trazado 113904" d="M309.419,201.1c-8.869,6.141-15.468,15.175-21.286,23.147a2.193,2.193,0,0,0-.3,2.034,2.126,2.126,0,0,0,1.5,1.385,44.14,44.14,0,0,0,31.232-3.646A44.631,44.631,0,0,0,341.4,200.314a2.2,2.2,0,0,0,.141-.844,2.234,2.234,0,0,0,.209-.38,2.2,2.2,0,0,0-.048-1.873,2.16,2.16,0,0,0-1.083-1.02C331.429,192.258,319.473,194.14,309.419,201.1Z" transform="translate(-287.289 -191.596)" fill="#9fbe37"/>
      <path id="Trazado_113905" data-name="Trazado 113905" d="M295.094,214.6a.741.741,0,0,0,.613.85l.084.015c2.578.419,5.166.766,7.754,1.1,1.361.182,2.728.338,4.1.491q-2.97,1.584-5.95,3.159-6.856,3.6-13.769,7.107l-.006,0a.642.642,0,0,0,.541,1.164c4.789-2.013,9.48-4.215,14.137-6.494,2.148-1.047,4.278-2.136,6.4-3.237-.23.476-.461.951-.7,1.427l-2.109,4.343c-1.37,2.914-2.734,5.83-4,8.8a.644.644,0,0,0,1.149.577c1.624-2.785,3.15-5.621,4.669-8.459l2.226-4.284c.712-1.4,1.451-2.776,2.139-4.182,1.343-.715,2.692-1.424,4.032-2.145,1.591-.879,3.168-1.789,4.744-2.7l-.82,2.917c-.464,1.69-.96,3.374-1.4,5.073-.9,3.392-1.786,6.787-2.57,10.212a.642.642,0,0,0,1.232.356c1.167-3.314,2.229-6.659,3.281-10.006.539-1.669,1.017-3.356,1.529-5.034l1.5-5.043.015-.075q2.979-1.75,5.926-3.56c.843-.532,1.681-1.074,2.519-1.615-.344,2.354-.7,4.705-.981,7.072-.383,2.952-.742,5.911-1.026,8.878a.643.643,0,0,0,1.268.2c.622-2.917,1.173-5.845,1.7-8.777.556-2.926.987-5.872,1.487-8.806a1.6,1.6,0,0,0,0-.171c2.68-1.789,11.406-7.239,13.982-9.18a.7.7,0,0,0-.8-1.149l-.009.006c-2.89,1.864-11.881,7.293-14.813,9.091-3.114-.622-6.24-1.179-9.36-1.756-3.386-.574-6.769-1.149-10.179-1.6a.7.7,0,0,0-.266,1.376c3.332.847,6.689,1.573,10.045,2.3,2.315.467,4.631.936,6.949,1.391-.529.32-1.056.652-1.588.969q-3.32,1.952-6.659,3.871c-2.821-.377-5.642-.781-8.471-1.107-3.12-.377-6.246-.733-9.381-1a.7.7,0,0,0-.2,1.388c3.087.613,6.189,1.137,9.291,1.642,1.855.311,3.715.586,5.576.858-1.2.673-2.39,1.358-3.6,2.016-1.412.79-2.839,1.555-4.263,2.327-2.435-.23-4.864-.494-7.3-.682q-3.446-.278-6.9-.47a.668.668,0,0,0-.3-.072l-.739.006A.742.742,0,0,0,295.094,214.6Z" transform="translate(-287.565 -193.309)" fill="#507533"/>
    </g>
  </g>
</svg>
