<svg xmlns="http://www.w3.org/2000/svg" xmlns:xlink="http://www.w3.org/1999/xlink" width="171.923" height="178.611" viewBox="0 0 171.923 178.611">
  <defs>
    <clipPath id="clip-path">
      <rect id="Rectángulo_37834" data-name="Rectángulo 37834" width="171.923" height="171.923" fill="none"/>
    </clipPath>
    <clipPath id="clip-path-2">
      <path id="Trazado_115630" data-name="Trazado 115630" d="M85.958,1.5a84.462,84.462,0,1,0,84.464,85.125c0-.221,0-.444,0-.666A84.466,84.466,0,0,0,85.961,1.5h0" fill="none"/>
    </clipPath>
    <radialGradient id="radial-gradient" cx="0.077" cy="0.019" r="1.463" gradientTransform="translate(0 0)" gradientUnits="objectBoundingBox">
      <stop offset="0" stop-color="#f6f6f7"/>
      <stop offset="0.477" stop-color="#f9f9fa"/>
      <stop offset="0.715" stop-color="#fff"/>
      <stop offset="1" stop-color="#fff"/>
    </radialGradient>
  </defs>
  <g id="img18" transform="translate(-96.39 -1654)">
    <g id="Grupo_143122" data-name="Grupo 143122" transform="translate(96.39 1654)">
      <g id="Grupo_143122-2" data-name="Grupo 143122">
        <g id="Grupo_143121" data-name="Grupo 143121" clip-path="url(#clip-path)">
          <path id="Trazado_115629" data-name="Trazado 115629" d="M170.432,85.962A84.465,84.465,0,1,1,85.964,1.5h0a84.464,84.464,0,0,1,84.464,84.461" fill="#fff"/>
        </g>
      </g>
      <g id="Grupo_143124" data-name="Grupo 143124">
        <g id="Grupo_143123" data-name="Grupo 143123" clip-path="url(#clip-path-2)">
          <rect id="Rectángulo_37835" data-name="Rectángulo 37835" width="168.924" height="169.106" transform="translate(1.499 1.5)" fill="url(#radial-gradient)"/>
        </g>
      </g>
      <g id="Grupo_143126" data-name="Grupo 143126">
        <g id="Grupo_143125" data-name="Grupo 143125" clip-path="url(#clip-path)">
          <path id="Trazado_115631" data-name="Trazado 115631" d="M170.422,85.958a84.131,84.131,0,1,0,0,.667C170.423,86.4,170.423,86.181,170.422,85.958Z" fill="none" stroke="#5f9025" stroke-miterlimit="10" stroke-width="3"/>
          <path id="Trazado_115632" data-name="Trazado 115632" d="M161.608,51.626c18.677,41.372-2.08,86.24-44.1,104.629-35.844,15.686-77.216,8.192-100.341-23C42.834,170.644,94.428,180.47,132.4,155.2c34.273-22.807,47.361-66.98,29.2-103.574" fill="#eceef0"/>
          <path id="Trazado_115633" data-name="Trazado 115633" d="M103.718,32.386h13.389V44.38c2.633.718,3.365,1.68,3.367,4.385,0,.872.017,1.744-.009,2.615a3.365,3.365,0,0,1-3.349,3.43c-.541.027-1.085,0-1.737,0a19.774,19.774,0,0,1,1.233,2.682c.2.7.523.834,1.169.829q4.707-.041,9.414-.007a3.392,3.392,0,0,1,3.652,3.471q.106,5.175-.005,10.354a3.354,3.354,0,0,1-3.5,3.407c-.975.039-1.952.022-2.928.011-2.593-.028-3.929-1.36-3.94-3.94-.011-2.545,0-5.09,0-7.635V61.81h-3.357V91.118c.16.043.258.078.358.1.241.042.482.077.724.111,7.79,1.1,13.854,4.922,17.847,11.713.9,1.523,1.783,2.2,3.447,1.943v20.711c-1.244-.015-2.305-.2-3.138,1.363a24.077,24.077,0,0,1-42.466-.592,1.16,1.16,0,0,0-1.166-.8c-3.277.043-6.555.035-9.832.007-.613-.006-.8.223-.966.79-2.021,7.009-6.6,11.487-13.765,12.722-7.253,1.25-13.118-1.465-17.341-7.535a1.616,1.616,0,0,0-1.53-.782c-5.23.025-10.46.014-15.689.014H32.43v-15.16c.836-.234,1.628-.518,2.444-.666.761-.138.992-.479.987-1.255-.033-5.613-.027-11.226-.015-16.839.011-4.751,2.32-7.811,6.863-9.146,6.41-1.885,12.816-3.787,19.234-5.647a5.673,5.673,0,0,0,4.3-4.243c1.957-7.691,3.271-15.548,5.781-23.076-2.353-.357-3.361-1.531-3.378-4.128q-.006-1.046,0-2.091c.016-2.87,1.285-4.132,4.168-4.133,7.53,0,15.065-.138,22.59.075,2.534.072,3.753-.636,4.549-3.029,1.038-3.125,2.493-6.111,3.768-9.157M39.337,113.779c.28-.06.482-.093.679-.147,3.928-1.066,7.861-2.112,11.776-3.224a5.155,5.155,0,0,0,1.869-1.021,16.833,16.833,0,0,1,14.953-4.034c1.574.32,3.089.925,4.726,1.427L64.377,85.029l-12.05,3.56c-3.1.916-6.217,1.792-9.3,2.758a4.911,4.911,0,0,0-3.629,5H46.14V99.78H39.364v3.488h6.753v3.442h-6.78ZM108.4,58.367v33.69l5.125-.907c.015-.316.039-.592.04-.867q0-14.9,0-29.8c0-3.481-2.092-5.623-5.59-5.634q-14.17-.042-28.341,0A5.138,5.138,0,0,0,74.2,59.219C72.666,65.651,71.206,72.1,69.59,78.513a25.978,25.978,0,0,1-1.861,4.024,1.6,1.6,0,0,0-.162,1.087c1.386,3.456,2.815,6.894,4.256,10.327.1.242.388.562.6.575,1.027.061,2.058.027,3.174.027,0-3.27.048-6.372-.011-9.472a56.89,56.89,0,0,1,1.32-14.826c.962-3.91,1.62-7.895,2.42-11.888Zm-26.214,60.41a16.274,16.274,0,0,1,.2,2.248c-.048.977.338,1.2,1.271,1.2q25.608-.041,51.215-.022c.367,0,.734-.034,1.154-.054,0-4.447-.009-8.765.009-13.083,0-.784-.5-.683-.985-.683-7.247,0-14.494-.011-21.741.026a2.136,2.136,0,0,0-1.328.6q-4.548,4.468-9.019,9.014a2.3,2.3,0,0,1-1.813.768c-5.923-.033-11.846-.018-17.769-.018Zm-3.08-39.691V94.56h13.87c3.068,0,6.135.006,9.2,0,1.895-.006,2.777-.874,2.777-2.7V79.086Zm-13.9,56.936A13.815,13.815,0,1,0,51.4,122.2,13.831,13.831,0,0,0,65.21,136.022M104.9,75.5V61.827a5.2,5.2,0,0,0-.645-.084c-7.108-.005-14.216.005-21.324-.021-.651,0-.836.279-.94.822-.326,1.708-.678,3.412-1.017,5.119-.512,2.585-1.021,5.17-1.547,7.835ZM73.344,98.1c2.531,5.691,4.961,11.186,7.444,16.657a1.4,1.4,0,0,0,1.076.511c2.37.045,4.742.023,7.112.023h2.14A24.533,24.533,0,0,1,98.328,98.1Zm59.732,6.855c-3.575-7.013-13.228-12.5-23.52-9.546-10.032,2.883-15.236,12.316-14.853,19.8h3.315c.022-.314.038-.552.053-.79a16.707,16.707,0,0,1,6.5-12.595,17.1,17.1,0,0,1,23.975,2.464c.231.272.566.616.87.635,1.2.073,2.407.03,3.662.03M72.169,51.326h44.788V47.994H72.169Zm-36.32,76.017H48.718a17.489,17.489,0,0,1,1.023-12.772c-4.608,1.254-9,2.441-13.374,3.663a.876.876,0,0,0-.5.647c-.034,2.784-.022,5.569-.022,8.462m97.439-1.658c-1.184,0-2.118.059-3.041-.017a2.066,2.066,0,0,0-1.937.893,15.519,15.519,0,0,1-7.7,5.148c-7.312,2.133-13.512.267-18.574-5.42-.216-.243-.519-.558-.795-.572-1.229-.062-2.464-.027-3.933-.027,4.265,6.533,9.98,10.16,17.6,10.281,7.925.126,13.928-3.456,18.383-10.286M113.524,35.856c-2.386,0-4.681-.022-6.974.031-.262.006-.62.384-.752.673-.735,1.615-1.414,3.255-2.112,4.886-.419.978-.839,1.955-1.308,3.05h11.146Zm10.744,69.1c-3.567-3.7-10.324-4.487-15.273-1.927-4.3,2.225-7.89,7.757-7.242,11.252.274-.257.528-.484.768-.724,2.491-2.488,5.015-4.944,7.449-7.488a3.336,3.336,0,0,1,2.716-1.139c3.789.068,7.581.026,11.582.026m-17.86,20.76c4.976,4.792,13.8,4.178,17.695,0Zm17.606-53.67h3.279V61.826h-3.279Z" fill="#12263f"/>
          <rect id="Rectángulo_37836" data-name="Rectángulo 37836" width="10.28" height="3.331" transform="translate(115.342 112.776)" fill="#12263f"/>
          <rect id="Rectángulo_37837" data-name="Rectángulo 37837" width="6.78" height="3.333" transform="translate(94.637 81.688)" fill="#12263f"/>
          <path id="Trazado_115634" data-name="Trazado 115634" d="M56.6,121.242A8.605,8.605,0,1,1,65.139,130a8.666,8.666,0,0,1-8.534-8.759m8.621,5.274a5.152,5.152,0,1,0-5.208-5.161,5.2,5.2,0,0,0,5.208,5.161" fill="#12263f"/>
        </g>
      </g>
    </g>
    <g id="Grupo_143121-2" data-name="Grupo 143121" transform="translate(203.5 1791.705)">
      <path id="Trazado_113904" data-name="Trazado 113904" d="M309.419,201.1c-8.869,6.141-15.468,15.175-21.286,23.147a2.193,2.193,0,0,0-.3,2.034,2.126,2.126,0,0,0,1.5,1.385,44.14,44.14,0,0,0,31.232-3.646A44.631,44.631,0,0,0,341.4,200.314a2.2,2.2,0,0,0,.141-.844,2.234,2.234,0,0,0,.209-.38,2.2,2.2,0,0,0-.048-1.873,2.16,2.16,0,0,0-1.083-1.02C331.429,192.258,319.473,194.14,309.419,201.1Z" transform="translate(-287.289 -191.596)" fill="#9fbe37"/>
      <path id="Trazado_113905" data-name="Trazado 113905" d="M295.094,214.6a.741.741,0,0,0,.613.85l.084.015c2.578.419,5.166.766,7.754,1.1,1.361.182,2.728.338,4.1.491q-2.97,1.584-5.95,3.159-6.856,3.6-13.769,7.107l-.006,0a.642.642,0,0,0,.541,1.164c4.789-2.013,9.48-4.215,14.137-6.494,2.148-1.047,4.278-2.136,6.4-3.237-.23.476-.461.951-.7,1.427l-2.109,4.343c-1.37,2.914-2.734,5.83-4,8.8a.644.644,0,0,0,1.149.577c1.624-2.785,3.15-5.621,4.669-8.459l2.226-4.284c.712-1.4,1.451-2.776,2.139-4.182,1.343-.715,2.692-1.424,4.032-2.145,1.591-.879,3.168-1.789,4.744-2.7l-.82,2.917c-.464,1.69-.96,3.374-1.4,5.073-.9,3.392-1.786,6.787-2.57,10.212a.642.642,0,0,0,1.232.356c1.167-3.314,2.229-6.659,3.281-10.006.539-1.669,1.017-3.356,1.529-5.034l1.5-5.043.015-.075q2.979-1.75,5.926-3.56c.843-.532,1.681-1.074,2.519-1.615-.344,2.354-.7,4.705-.981,7.072-.383,2.952-.742,5.911-1.026,8.878a.643.643,0,0,0,1.268.2c.622-2.917,1.173-5.845,1.7-8.777.556-2.926.987-5.872,1.487-8.806a1.6,1.6,0,0,0,0-.171c2.68-1.789,11.406-7.239,13.982-9.18a.7.7,0,0,0-.8-1.149l-.009.006c-2.89,1.864-11.881,7.293-14.813,9.091-3.114-.622-6.24-1.179-9.36-1.756-3.386-.574-6.769-1.149-10.179-1.6a.7.7,0,0,0-.266,1.376c3.332.847,6.689,1.573,10.045,2.3,2.315.467,4.631.936,6.949,1.391-.529.32-1.056.652-1.588.969q-3.32,1.952-6.659,3.871c-2.821-.377-5.642-.781-8.471-1.107-3.12-.377-6.246-.733-9.381-1a.7.7,0,0,0-.2,1.388c3.087.613,6.189,1.137,9.291,1.642,1.855.311,3.715.586,5.576.858-1.2.673-2.39,1.358-3.6,2.016-1.412.79-2.839,1.555-4.263,2.327-2.435-.23-4.864-.494-7.3-.682q-3.446-.278-6.9-.47a.668.668,0,0,0-.3-.072l-.739.006A.742.742,0,0,0,295.094,214.6Z" transform="translate(-287.565 -193.309)" fill="#507533"/>
    </g>
  </g>
</svg>
