<svg xmlns="http://www.w3.org/2000/svg" xmlns:xlink="http://www.w3.org/1999/xlink" width="171.923" height="178.611" viewBox="0 0 171.923 178.611">
  <defs>
    <clipPath id="clip-path">
      <rect id="Rect치ngulo_37842" data-name="Rect치ngulo 37842" width="171.923" height="171.923" fill="none"/>
    </clipPath>
    <clipPath id="clip-path-2">
      <path id="Trazado_115648" data-name="Trazado 115648" d="M85.958,1.5a84.462,84.462,0,1,0,84.464,85.125c0-.221,0-.444,0-.666A84.466,84.466,0,0,0,85.961,1.5h0" fill="none"/>
    </clipPath>
    <radialGradient id="radial-gradient" cx="0.077" cy="0.019" r="1.463" gradientTransform="translate(0 0)" gradientUnits="objectBoundingBox">
      <stop offset="0" stop-color="#f6f6f7"/>
      <stop offset="0.477" stop-color="#f9f9fa"/>
      <stop offset="0.715" stop-color="#fff"/>
      <stop offset="1" stop-color="#fff"/>
    </radialGradient>
  </defs>
  <g id="img20" transform="translate(-96.39 -2329)">
    <g id="Grupo_143133" data-name="Grupo 143133" transform="translate(96.39 2329)">
      <g id="Grupo_143134" data-name="Grupo 143134">
        <g id="Grupo_143133-2" data-name="Grupo 143133" clip-path="url(#clip-path)">
          <path id="Trazado_115647" data-name="Trazado 115647" d="M170.432,85.962A84.465,84.465,0,1,1,85.964,1.5h0a84.464,84.464,0,0,1,84.464,84.461" fill="#fff"/>
        </g>
      </g>
      <g id="Grupo_143136" data-name="Grupo 143136">
        <g id="Grupo_143135" data-name="Grupo 143135" clip-path="url(#clip-path-2)">
          <rect id="Rect치ngulo_37843" data-name="Rect치ngulo 37843" width="168.924" height="169.106" transform="translate(1.499 1.5)" fill="url(#radial-gradient)"/>
        </g>
      </g>
      <g id="Grupo_143138" data-name="Grupo 143138">
        <g id="Grupo_143137" data-name="Grupo 143137" clip-path="url(#clip-path)">
          <path id="Trazado_115649" data-name="Trazado 115649" d="M170.422,85.958a84.131,84.131,0,1,0,0,.667C170.423,86.4,170.423,86.181,170.422,85.958Z" fill="none" stroke="#5f9025" stroke-miterlimit="10" stroke-width="3"/>
          <path id="Trazado_115650" data-name="Trazado 115650" d="M161.608,51.626c18.677,41.372-2.08,86.24-44.1,104.629-35.844,15.686-77.216,8.192-100.341-23C42.834,170.644,94.428,180.47,132.4,155.2c34.273-22.807,47.361-66.98,29.2-103.574" fill="#eceef0"/>
          <path id="Trazado_115651" data-name="Trazado 115651" d="M68.788,66.891c0-2.732,0-5.411,0-8.089,0-2.11.55-2.668,2.661-2.67q9.986-.009,19.971,0c2.125,0,2.683.558,2.688,2.652.007,2.679,0,5.357,0,8.126.6.026,1.067.052,1.537.067a7.4,7.4,0,0,1,7.479,7.61c.034,4.628.008,9.256.008,13.885v43.435h3.6v-4.7q0-21.157,0-42.316c0-4.883,2.219-7.091,7.117-7.092q7.539,0,15.077,0c4.323.007,6.72,2.4,6.721,6.713q.008,22.215-.01,44.431c0,.96-.171,1.919-.278,3.044,1.1,0,2.266-.013,3.431,0,1.459.02,2.247.692,2.218,1.859-.027,1.1-.8,1.733-2.181,1.78-.308.011-.617,0-.926,0H33.951c-.352,0-.706.015-1.057-.007-1.265-.081-1.994-.764-1.984-1.841A1.786,1.786,0,0,1,32.929,132c2.733-.029,5.466-.01,8.2-.011h1.4c-.274-.431-.462-.737-.659-1.037a10.4,10.4,0,0,1-.709-11.145,10.281,10.281,0,0,1,9.389-5.824c3.028-.075,6.059-.015,9.225-.015v-1.7c0-12.254.124-24.51-.057-36.761-.08-5.374,3.6-8.869,8.322-8.546a5.131,5.131,0,0,0,.753-.077m.983,65.02H99.435c.021-.334.05-.59.05-.847q0-28.225-.006-56.451a3.707,3.707,0,0,0-4.077-4q-13.882-.018-27.767,0c-2.775,0-4.22,1.439-4.223,4.249q-.018,19.037-.02,38.074a1.226,1.226,0,0,0,1.058,1.444,10.507,10.507,0,0,1,7.844,9.006,10.885,10.885,0,0,1-2.523,8.523m40.565-36.123H132c0-4.109.029-8.115-.016-12.12a2.178,2.178,0,0,0-2.324-2.2q-8.46-.04-16.92,0a2.215,2.215,0,0,0-2.384,2.3c-.051,3.962-.018,7.925-.018,12.029M132,117.676H110.336c0,4.088-.034,8.051.018,12.013a2.219,2.219,0,0,0,2.391,2.29q8.458.037,16.919,0a2.179,2.179,0,0,0,2.318-2.21c.045-4.005.016-8.011.016-12.092m-.036-18.124H110.4v14.317h21.558ZM54.273,132.113V117.637c-1.518,0-2.969-.116-4.4.023a7.161,7.161,0,0,0-.941,14.05,38.134,38.134,0,0,0,5.336.4m3.746-.154c1.509,0,2.96.116,4.386-.021a7.157,7.157,0,0,0,6.186-8.769c-1.217-4.717-5.255-6.358-10.572-5.389ZM77.843,59.827c-.1,1.5.377,3.359-1.648,3.479-2.468.147-1.783-2.072-2.018-3.456H72.524v7.027H90.469V59.842H88.7c-.174,1.4.409,3.367-1.706,3.47-2.435.118-1.716-2.126-2.014-3.448H83.34c-.189,2.705-.594,3.559-1.82,3.489-2.332-.133-1.77-2.07-1.953-3.526Z" fill="#12263f"/>
          <path id="Trazado_115652" data-name="Trazado 115652" d="M66.964,42.673a6.293,6.293,0,1,1-6.2-6.392,6.272,6.272,0,0,1,6.2,6.392M60.7,45.287a2.7,2.7,0,0,0,2.679-2.7,2.709,2.709,0,1,0-2.679,2.7" fill="#12263f"/>
          <path id="Trazado_115653" data-name="Trazado 115653" d="M43.612,52.585c-2.314,2.021-2.983,2.245-3.929,1.358s-.727-1.622,1.274-4.021c-.778-1.195-2.936-2.076-1.257-3.99.815-.93,1.684-.589,3.892,1.351,1.227-.735,2.1-2.947,4.02-1.249.958.846.649,1.625-1.333,3.881.707,1.239,3.065,2.217,1.2,3.994-1.7,1.621-2.644-.473-3.869-1.324" fill="#12263f"/>
          <path id="Trazado_115654" data-name="Trazado 115654" d="M92.1,42.552a1.926,1.926,0,1,1,1.985-1.867A1.972,1.972,0,0,1,92.1,42.552" fill="#12263f"/>
          <path id="Trazado_115655" data-name="Trazado 115655" d="M76.02,101.3c0-1.782-.021-3.367.006-4.95.029-1.656.6-2.225,2.242-2.237,2.16-.016,4.319-.021,6.479,0,1.481.016,2.065.6,2.093,2.1.031,1.661.007,3.324.007,5.087,1.794,0,3.418-.016,5.041.005,1.527.02,2.19.65,2.214,2.166q.05,3.238,0,6.477c-.022,1.532-.674,2.17-2.187,2.192-1.627.022-3.254,0-5.066,0,0,1.607.007,3.135,0,4.664-.012,2.04-.48,2.519-2.47,2.525-2.071.007-4.143.017-6.214,0-1.484-.015-2.1-.6-2.132-2.075-.041-1.66-.009-3.322-.009-5.11-1.733,0-3.309.01-4.885,0-1.69-.014-2.331-.633-2.345-2.3-.018-2.115-.022-4.23,0-6.345.018-1.523.669-2.171,2.182-2.193,1.622-.024,3.244,0,5.043,0m7.255,14.41c0-1.638-.006-3.17,0-4.7.01-1.945.558-2.487,2.533-2.5,1.523-.009,3.046,0,4.589,0v-3.572c-1.644,0-3.219.015-4.8,0-1.721-.02-2.309-.606-2.325-2.3-.014-1.609,0-3.219,0-4.841H79.628c0,1.6,0,3.095,0,4.591-.006,2.016-.55,2.548-2.614,2.557-1.484.006-2.969,0-4.472,0v3.572c1.689,0,3.274-.022,4.858.007,1.609.029,2.211.656,2.226,2.276s0,3.233,0,4.919Z" fill="#12263f"/>
          <path id="Trazado_115656" data-name="Trazado 115656" d="M115.758,103.8a1.926,1.926,0,1,1-3.852.056A1.969,1.969,0,0,1,113.8,101.9a1.991,1.991,0,0,1,1.959,1.9" fill="#12263f"/>
          <path id="Trazado_115657" data-name="Trazado 115657" d="M122.982,103.829a1.928,1.928,0,1,1-1.929-1.93,1.981,1.981,0,0,1,1.929,1.93" fill="#12263f"/>
          <path id="Trazado_115658" data-name="Trazado 115658" d="M126.388,103.815a1.895,1.895,0,1,1,1.909,1.945,1.925,1.925,0,0,1-1.909-1.945" fill="#12263f"/>
          <path id="Trazado_115659" data-name="Trazado 115659" d="M115.751,109.286a1.924,1.924,0,1,1-1.916-1.931,1.9,1.9,0,0,1,1.916,1.931" fill="#12263f"/>
          <path id="Trazado_115660" data-name="Trazado 115660" d="M122.98,109.3a1.926,1.926,0,1,1-1.905-1.944,1.912,1.912,0,0,1,1.905,1.944" fill="#12263f"/>
          <path id="Trazado_115661" data-name="Trazado 115661" d="M130.173,109.25a1.891,1.891,0,1,1-1.923-1.893,1.836,1.836,0,0,1,1.923,1.893" fill="#12263f"/>
        </g>
      </g>
    </g>
    <g id="Grupo_143134-2" data-name="Grupo 143134" transform="translate(203.5 2466.705)">
      <path id="Trazado_113904" data-name="Trazado 113904" d="M309.419,201.1c-8.869,6.141-15.468,15.175-21.286,23.147a2.193,2.193,0,0,0-.3,2.034,2.126,2.126,0,0,0,1.5,1.385,44.14,44.14,0,0,0,31.232-3.646A44.631,44.631,0,0,0,341.4,200.314a2.2,2.2,0,0,0,.141-.844,2.234,2.234,0,0,0,.209-.38,2.2,2.2,0,0,0-.048-1.873,2.16,2.16,0,0,0-1.083-1.02C331.429,192.258,319.473,194.14,309.419,201.1Z" transform="translate(-287.289 -191.596)" fill="#9fbe37"/>
      <path id="Trazado_113905" data-name="Trazado 113905" d="M295.094,214.6a.741.741,0,0,0,.613.85l.084.015c2.578.419,5.166.766,7.754,1.1,1.361.182,2.728.338,4.1.491q-2.97,1.584-5.95,3.159-6.856,3.6-13.769,7.107l-.006,0a.642.642,0,0,0,.541,1.164c4.789-2.013,9.48-4.215,14.137-6.494,2.148-1.047,4.278-2.136,6.4-3.237-.23.476-.461.951-.7,1.427l-2.109,4.343c-1.37,2.914-2.734,5.83-4,8.8a.644.644,0,0,0,1.149.577c1.624-2.785,3.15-5.621,4.669-8.459l2.226-4.284c.712-1.4,1.451-2.776,2.139-4.182,1.343-.715,2.692-1.424,4.032-2.145,1.591-.879,3.168-1.789,4.744-2.7l-.82,2.917c-.464,1.69-.96,3.374-1.4,5.073-.9,3.392-1.786,6.787-2.57,10.212a.642.642,0,0,0,1.232.356c1.167-3.314,2.229-6.659,3.281-10.006.539-1.669,1.017-3.356,1.529-5.034l1.5-5.043.015-.075q2.979-1.75,5.926-3.56c.843-.532,1.681-1.074,2.519-1.615-.344,2.354-.7,4.705-.981,7.072-.383,2.952-.742,5.911-1.026,8.878a.643.643,0,0,0,1.268.2c.622-2.917,1.173-5.845,1.7-8.777.556-2.926.987-5.872,1.487-8.806a1.6,1.6,0,0,0,0-.171c2.68-1.789,11.406-7.239,13.982-9.18a.7.7,0,0,0-.8-1.149l-.009.006c-2.89,1.864-11.881,7.293-14.813,9.091-3.114-.622-6.24-1.179-9.36-1.756-3.386-.574-6.769-1.149-10.179-1.6a.7.7,0,0,0-.266,1.376c3.332.847,6.689,1.573,10.045,2.3,2.315.467,4.631.936,6.949,1.391-.529.32-1.056.652-1.588.969q-3.32,1.952-6.659,3.871c-2.821-.377-5.642-.781-8.471-1.107-3.12-.377-6.246-.733-9.381-1a.7.7,0,0,0-.2,1.388c3.087.613,6.189,1.137,9.291,1.642,1.855.311,3.715.586,5.576.858-1.2.673-2.39,1.358-3.6,2.016-1.412.79-2.839,1.555-4.263,2.327-2.435-.23-4.864-.494-7.3-.682q-3.446-.278-6.9-.47a.668.668,0,0,0-.3-.072l-.739.006A.742.742,0,0,0,295.094,214.6Z" transform="translate(-287.565 -193.309)" fill="#507533"/>
    </g>
  </g>
</svg>
