<svg id="img25" xmlns="http://www.w3.org/2000/svg" xmlns:xlink="http://www.w3.org/1999/xlink" width="579.057" height="284.929" viewBox="0 0 579.057 284.929">
  <defs>
    <clipPath id="clip-path">
      <rect id="Rectángulo_37854" data-name="Rectángulo 37854" width="579.057" height="284.929" fill="none"/>
    </clipPath>
    <clipPath id="clip-path-3">
      <rect id="Rectángulo_37849" data-name="Rectángulo 37849" width="502.094" height="160.494" fill="none"/>
    </clipPath>
    <clipPath id="clip-path-4">
      <rect id="Rectángulo_37850" data-name="Rectángulo 37850" width="301.116" height="69.142" fill="none"/>
    </clipPath>
    <clipPath id="clip-path-5">
      <rect id="Rectángulo_37852" data-name="Rectángulo 37852" width="24.57" height="24.57" fill="none"/>
    </clipPath>
  </defs>
  <g id="Grupo_143156" data-name="Grupo 143156" clip-path="url(#clip-path)">
    <g id="Grupo_143155" data-name="Grupo 143155">
      <g id="Grupo_143154" data-name="Grupo 143154" clip-path="url(#clip-path)">
        <path id="Trazado_115678" data-name="Trazado 115678" d="M573.709,271.6c-.03.466-.069.935-.108,1.408a99.687,99.687,0,0,1-1.568,10.857c0,.012-.006.022-.007.034-.018.092-.037.183-.056.277,0,.007,0,.015,0,.024l-137.276-.243-356.225-.627S31.207,250.679,15.8,199.2c-.013-.043-.026-.086-.037-.129a110.6,110.6,0,0,1-4.518-39.18c.01-.138.018-.277.03-.415a116.843,116.843,0,0,1,9-36.989,146.726,146.726,0,0,1,9.784-19.193q1.342-2.223,2.814-4.346C64.712,52.967,140.441,42.3,163.888,52.154c31.863,13.4,74.126-22.794,165.472-47.64C371.133-6.848,445.016,2.8,485.076,38.473c.045.04.09.079.132.12,25.654,22.918,37.356,56.553,17.705,102.226-.021.047-.041.095-.063.143-.01.026-.023.054-.034.079-19.132,44.28,19.561,53.705,46.994,76.5.136.112.271.224.407.339a85.9,85.9,0,0,1,7.951,7.521q.8.862,1.563,1.749a58.787,58.787,0,0,1,8.439,12.644q.49,1,.944,2.035a55.226,55.226,0,0,1,3.319,10.186,63.1,63.1,0,0,1,1.439,11.773,75.682,75.682,0,0,1-.162,7.813" transform="translate(-2.93 0)" fill="#d8e9ff"/>
        <g id="Grupo_143147" data-name="Grupo 143147" transform="translate(8.08 38.575)" opacity="0.6">
          <g id="Grupo_143146" data-name="Grupo 143146">
            <g id="Grupo_143145" data-name="Grupo 143145" clip-path="url(#clip-path-3)">
              <path id="Trazado_115679" data-name="Trazado 115679" d="M503.2,154.911l-.35.041L15.767,213.059a110.61,110.61,0,0,1-4.518-39.181c.01-.137.018-.277.03-.415L485.208,52.584l.073-.019c25.864,22.923,37.695,56.594,17.919,102.346" transform="translate(-11.01 -52.565)" fill="#f6fbff"/>
            </g>
          </g>
        </g>
        <g id="Grupo_143150" data-name="Grupo 143150" transform="translate(17.35 53.343)" opacity="0.6">
          <g id="Grupo_143149" data-name="Grupo 143149">
            <g id="Grupo_143148" data-name="Grupo 143148" clip-path="url(#clip-path-4)">
              <path id="Trazado_115680" data-name="Trazado 115680" d="M324.759,72.688,23.643,141.83a146.727,146.727,0,0,1,9.785-19.191q1.341-2.225,2.814-4.347Z" transform="translate(-23.643 -72.688)" fill="#f6fbff"/>
            </g>
          </g>
        </g>
        <rect id="Rectángulo_37851" data-name="Rectángulo 37851" width="99.489" height="135.766" transform="translate(345.983 146.234)" fill="#fff3e9"/>
        <path id="Trazado_115681" data-name="Trazado 115681" d="M519.324,145.915l69.3,45.341h66.906l-34.7-45.342Z" transform="translate(-138.213 -38.834)" fill="#ed9f4a"/>
        <path id="Trazado_115682" data-name="Trazado 115682" d="M641.348,146.141l34.881,45.175H674.24v88.054l-67.213,21.768V186.586Z" transform="translate(-161.554 -38.894)" fill="#f9ddbf"/>
        <path id="Trazado_115683" data-name="Trazado 115683" d="M650.634,176.808h0a9.358,9.358,0,0,1,9.357,9.357v21.25H641.58V185.862a9.053,9.053,0,0,1,9.054-9.054" transform="translate(-170.75 -47.056)" fill="#efcdaf"/>
        <path id="Trazado_115684" data-name="Trazado 115684" d="M565.054,246.89h0a9.358,9.358,0,0,1,9.357,9.357V277.5H556V255.944a9.053,9.053,0,0,1,9.054-9.054" transform="translate(-147.974 -65.707)" fill="#f9ddbf"/>
        <path id="Trazado_115685" data-name="Trazado 115685" d="M512.346,246.89h0a9.358,9.358,0,0,1,9.357,9.357V277.5H503.292V255.944a9.054,9.054,0,0,1,9.054-9.054" transform="translate(-133.946 -65.707)" fill="#f9ddbf"/>
        <path id="Trazado_115686" data-name="Trazado 115686" d="M461.544,193.771H569.552l35.9-47.856-20.208,0-86.753.006Z" transform="translate(-122.836 -38.834)" fill="#ffb500"/>
        <path id="Trazado_115687" data-name="Trazado 115687" d="M461.544,193.773h58.4l65.291-47.852-86.753.006Z" transform="translate(-122.836 -38.835)" fill="#ff9215"/>
        <path id="Trazado_115688" data-name="Trazado 115688" d="M663.732,260.094l15.679,32.28h47.633l-24.834-32.162Z" transform="translate(-176.646 -69.222)" fill="#ed9f4a"/>
        <path id="Trazado_115689" data-name="Trazado 115689" d="M705.021,260.255l24.834,32.162h0v57.755c-4.353,3.187-8.929-1.762-13.3-.263-9.521,3.266-17.667-23.053-17.667-23.053s-.268.054-.8.131H682.326v-34.57h-.1Z" transform="translate(-181.567 -69.264)" fill="#f9ddbf"/>
        <path id="Trazado_115690" data-name="Trazado 115690" d="M628.45,304.08v28.1q4.313,1.256,8.334,2.244a172.373,172.373,0,0,0,24.026,4.225H668.7V304.08Z" transform="translate(-167.256 -80.928)" fill="#fff3e9"/>
        <path id="Trazado_115691" data-name="Trazado 115691" d="M622.424,294.325H665.66l25.557-34.072-12.879,0-29.614.007Z" transform="translate(-165.652 -69.264)" fill="#ffb500"/>
        <path id="Trazado_115692" data-name="Trazado 115692" d="M698.286,328.315v38.853h2.352c.749-.111,1.129-.186,1.129-.186a85.243,85.243,0,0,0,24.908-4.63V328.784a14.43,14.43,0,0,0-14.429-14.429,13.963,13.963,0,0,0-13.96,13.96" transform="translate(-185.842 -83.663)" fill="#efcdaf"/>
        <path id="Trazado_115693" data-name="Trazado 115693" d="M713.908,281.612a6.221,6.221,0,1,1-6.221,6.221,6.222,6.222,0,0,1,6.221-6.221" transform="translate(-188.344 -74.948)" fill="#efcdaf"/>
        <path id="Trazado_115694" data-name="Trazado 115694" d="M622.424,294.326h8.206l47.708-34.069-29.614.007Z" transform="translate(-165.652 -69.265)" fill="#ff9215"/>
        <path id="Trazado_115695" data-name="Trazado 115695" d="M578.991,369.554c-54.56-10.228-120.7-19.629-175.027-11.4s-75.205,19.328-134.87-6.211c-13.055-5.588-23.683-5.985-33.261-6.085l-3.621.06c-32.123,1.351-53.866,22.69-121.317,8.138a90.324,90.324,0,0,0-31.138-.721C73.414,344.474,54.58,320.376,39,322.884c-15.558,2.5,22.979,23.37,37.6,30.923q-2.611.427-5.151.953c-8.855-4.129-25.462-10.8-34.95-7.872-9.274,2.864,13.974,6.962,29.107,9.206a160.465,160.465,0,0,0-35.221,13.435Z" transform="translate(-8.089 -85.884)" fill="#bada95"/>
        <path id="Trazado_115696" data-name="Trazado 115696" d="M143.107,377.294l-5.186-.222c-1.027-.048-2.052-.1-3.068-.156l-1.817-.109c-2.4-.155-4.729-.349-6.932-.611-17.252-2.061-41.62,7.518-41.62,7.518H169.45c-.6-5.317-13.026-5.875-26.343-6.42" transform="translate(-22.485 -100.044)" fill="#78b62e"/>
        <path id="Trazado_115697" data-name="Trazado 115697" d="M618.915,332.145c.023-5.773,8.76-11.833,8.76-11.833-1.51-.119-5.365,1.829-5.365,1.829,1.033-.914,5.842-2.425,5.842-2.425,1.55-.994,6.4-1.59,6.677-1.67s-4.968-.716-4.968-.716l6.3.422s5.663-.7,9.8-1.118,15.46,1.292,15.46,1.292c-.517-.437-4.69-1.292-4.69-1.292,5.3.536,13.093,1.987,13.1,1.989,4.522.3,7.524.564,7.524.564l2.742,49.254s-45.547-.238-51.985,0-9.777-9.062-11.208-20.031a35.225,35.225,0,0,1,2.011-16.266" transform="translate(-164.119 -84.252)" fill="#edbd77"/>
        <path id="Trazado_115698" data-name="Trazado 115698" d="M685.807,319.733s14.665-1.115,23.965,10.689a15.661,15.661,0,0,1,.962,1.37,11.327,11.327,0,0,0-1.256-3.373c1.907,1.59,2.572,5.922,2.572,5.922a24.205,24.205,0,0,1,1.648,6.4c1.158,1.416,2.138,2.546,2.138,2.546l-2.065-1.891A36.751,36.751,0,0,1,712.7,354.16a3.986,3.986,0,0,1,2.537.212,4.129,4.129,0,0,0-2.647.2,35.481,35.481,0,0,1-1.265,3.8A50.238,50.238,0,0,1,709.7,364.3a27.223,27.223,0,0,0,.652-3.742c-2.61,5.311-6.466,9.062-10.956,9.1-12.162.1-27.141-1.764-30.382-17.641s3.556-31.888,16.789-32.288" transform="translate(-177.839 -85.086)" fill="#ffcf83"/>
        <path id="Trazado_115699" data-name="Trazado 115699" d="M724.667,380.476a6.277,6.277,0,0,1-.227.682c-.018.044.073-.219.227-.682" transform="translate(-192.802 -101.26)" fill="#ffcf83"/>
        <path id="Trazado_115700" data-name="Trazado 115700" d="M693.489,371.307a20.966,20.966,0,0,0,10.895-2.693c3.746-2.292,6.192-5.988,7.272-10.985,1.838-8.506.935-15.485-2.683-20.743-3.384-4.915-9.1-8.116-16.521-9.257a13.012,13.012,0,0,0-12.548,4.684c-4.62,5.54-5.947,14.9-3.228,22.758,1.921,5.553,7.052,8.984,13.726,9.176.19.006.38.008.57.008,6.722,0,12.782-3.436,14.863-8.486,2.122-5.148,2.012-10.185-.31-14.181-2.356-4.057-6.807-6.7-12.531-7.432-5.182-.667-7.978,1.747-9.409,3.887-2.763,4.13-2.755,10.839-.9,14.078,1.784,3.12,6.722,5.529,11.01,5.38a7.241,7.241,0,0,0,6.652-4.033,9,9,0,0,0-.277-9.073,6.746,6.746,0,0,0-5.672-3.212,3.821,3.821,0,0,0-3.531,3.769c-.128,1.461.37,3.086,1.57,3.366,2.231.52,3.023-.7,3.055-.749,0,0,1.2-1.989-.294-2.275-1.717-.328-1.265,1-1.265,1-.025.037.424,1.838-1.357,1.422-.734-.172-1.215-1.364-1.1-2.715a3.2,3.2,0,0,1,2.953-3.211,6.111,6.111,0,0,1,5.129,2.941,8.406,8.406,0,0,1,.234,8.467,6.643,6.643,0,0,1-6.121,3.685c-4.082.14-8.773-2.128-10.455-5.071-1.56-2.728-1.979-9.158.881-13.433,1.916-2.863,4.965-4.115,8.821-3.619,5.531.71,9.82,3.244,12.079,7.132,2.223,3.828,2.32,8.671.273,13.639s-8.155,8.293-14.848,8.1c-6.408-.185-11.33-3.462-13.165-8.764-2.652-7.667-1.369-16.781,3.12-22.164a12.433,12.433,0,0,1,11.983-4.47c7.254,1.114,12.823,4.226,16.109,9,3.519,5.114,4.39,11.932,2.589,20.266-1.043,4.827-3.4,8.39-6.992,10.592-7.267,4.448-18.731,1.755-18.831,1.729l1.3.7a30.468,30.468,0,0,0,6.959.786" transform="translate(-179.718 -87.145)" fill="#edbd77"/>
        <path id="Trazado_115701" data-name="Trazado 115701" d="M561.527,344.1h0c.018-4.532,6.877-9.29,6.877-9.29-1.185-.094-4.212,1.435-4.212,1.435.812-.718,4.587-1.9,4.587-1.9,1.217-.78,5.023-1.248,5.242-1.311s-3.9-.561-3.9-.561l4.946.331s4.446-.55,7.692-.877S594.9,332.94,594.9,332.94a21.62,21.62,0,0,0-3.682-1.014c4.162.421,10.278,1.559,10.287,1.562,3.551.236,5.908.443,5.908.443L609.56,372.6s-35.758-.187-40.813,0-7.676-7.115-8.8-15.727a27.642,27.642,0,0,1,1.579-12.77" transform="translate(-148.975 -88.325)" fill="#edbd77"/>
        <path id="Trazado_115702" data-name="Trazado 115702" d="M614.043,334.358s11.513-.875,18.814,8.392a11.957,11.957,0,0,1,.757,1.082,8.872,8.872,0,0,0-.987-2.654c1.5,1.248,2.02,4.648,2.02,4.648h0a18.992,18.992,0,0,1,1.3,5.021c.909,1.113,1.678,2,1.678,2L636,351.362a28.841,28.841,0,0,1-.839,10.025,3.133,3.133,0,0,1,1.993.167,3.243,3.243,0,0,0-2.079.157,27.559,27.559,0,0,1-.992,2.976,39.355,39.355,0,0,1-1.279,4.675,21.23,21.23,0,0,0,.516-2.954c-2.049,4.171-5.076,7.119-8.6,7.149-9.547.082-21.308-1.385-23.852-13.849s2.791-25.036,13.181-25.349" transform="translate(-159.746 -88.98)" fill="#ffcf83"/>
        <path id="Trazado_115703" data-name="Trazado 115703" d="M644.547,382.063a4.634,4.634,0,0,1-.175.523c-.014.034.057-.167.175-.523" transform="translate(-171.493 -101.682)" fill="#ffcf83"/>
        <path id="Trazado_115704" data-name="Trazado 115704" d="M620.074,374.848a16.461,16.461,0,0,0,8.554-2.114,12.746,12.746,0,0,0,5.709-8.624c1.443-6.678.735-12.157-2.106-16.285-2.657-3.859-7.142-6.372-12.971-7.267a10.214,10.214,0,0,0-9.851,3.677c-3.627,4.349-4.668,11.7-2.534,17.867,1.508,4.36,5.537,7.053,10.776,7.2.15,0,.3.007.448.007,5.277,0,10.035-2.7,11.668-6.663,1.666-4.042,1.579-8-.243-11.133-1.85-3.186-5.344-5.258-9.838-5.835-4.068-.524-6.263,1.371-7.387,3.051-2.169,3.242-2.163,8.51-.71,11.053,1.4,2.45,5.277,4.341,8.644,4.223a5.684,5.684,0,0,0,5.222-3.166,7.069,7.069,0,0,0-.217-7.123,5.3,5.3,0,0,0-4.454-2.522,3,3,0,0,0-2.771,2.96c-.1,1.146.29,2.422,1.232,2.642,1.752.409,2.372-.547,2.4-.588,0,0,.946-1.562-.231-1.786-1.347-.257-.993.789-.993.789-.019.029.332,1.444-1.066,1.117-.576-.135-.955-1.071-.862-2.132a2.508,2.508,0,0,1,2.318-2.521,4.8,4.8,0,0,1,4.027,2.309,6.6,6.6,0,0,1,.183,6.647,5.215,5.215,0,0,1-4.805,2.894c-3.2.109-6.887-1.672-8.209-3.981-1.224-2.142-1.553-7.19.693-10.546,1.5-2.248,3.9-3.231,6.925-2.841,4.342.557,7.71,2.546,9.483,5.6,1.745,3,1.821,6.807.214,10.708s-6.4,6.511-11.657,6.358c-5.031-.145-8.9-2.717-10.335-6.88-2.082-6.02-1.075-13.175,2.449-17.4a9.762,9.762,0,0,1,9.408-3.509c5.694.875,10.068,3.317,12.647,7.065,2.763,4.014,3.447,9.368,2.033,15.911a12.285,12.285,0,0,1-5.49,8.315c-5.705,3.492-14.705,1.378-14.784,1.357l1.019.55a23.892,23.892,0,0,0,5.463.617" transform="translate(-161.221 -90.597)" fill="#edbd77"/>
        <path id="Trazado_115705" data-name="Trazado 115705" d="M449.007,260.358s16.783,64.76,15.278,69.877-9.934,22.51-9.934,22.51h8.111a6.113,6.113,0,0,0,3.145-5.619c-.134-4.014,11.239-19.669,11.239-19.669s-4.461-24.862,0-34.655c19.213-42.173-12.967-41.773-27.838-32.445" transform="translate(-119.499 -67.932)" fill="#cca283"/>
        <path id="Trazado_115706" data-name="Trazado 115706" d="M330.9,292.748s4.817,34.789,5.084,36.93,2.543,4.816,2.409,8.3-1.339,15.253-5.085,18.2a10.652,10.652,0,0,0-4.148,6.556h10.168s1.74-3.479,1.472-5.887,2.811-4.951,2.944-9.9,0-14.183,1.338-17.395.936-25.288,5.352-30.239-19.535-6.556-19.535-6.556" transform="translate(-87.604 -77.912)" fill="#cca283"/>
        <path id="Trazado_115707" data-name="Trazado 115707" d="M414.487,278.8A40.274,40.274,0,0,0,416.2,266.81c0-1.493-.055-2.987-.165-4.591,0,0,13.273-24.113,3.815-33.349,0,0-.055-1.162-3.1-2.1-2.766-.885-8.019-1.494-17.919-.94-.277,0-.553.055-.829.055-3.706.222-8.13.277-13,.111-23.671-.663-57.185-4.979-62.716-4.148-1,.167-2.046.332-3.208.552a75.036,75.036,0,0,1-9.07,1.107c-2.71.167-9.236-2.931-14.711-1.216a95.747,95.747,0,0,0-17.642,11.061,131.917,131.917,0,0,0-21.569,21.457,143.628,143.628,0,0,0-13.328,19.468l0,.005h-.017c-1.486.156-3.229,1.389-5,1.619-2.41.313-2.87,1.5-2.87,1.5a4.072,4.072,0,0,0,1.587,1.89,2.335,2.335,0,0,1-.253.041c-2.411.313-2.871,1.5-2.871,1.5.989,2.345,3.451,2.773,5.225,2.778h.007l0,.013c-.553,2.324-1.162,5.752-.111,7.355,1.659,2.489-.332,11.724-.165,14.822.221,3.1-1.107,5.42-1.051,6.2.055.718,2.1,3.7,4.59,3.594,2.489-.166,5.475-.443,6.968-3.539,1.549-3.153,2.433-5.089,3.926-5.365,1.438-.277,9.734-8.351,11.5-11.891.94-1.77,3.7-5.531,13.66-7.576a77.368,77.368,0,0,1,12-1.327c1.541,3.181,3.53,5.774,5.883,6.429,1.2,8.705,2.4,17.423,2.531,18.462.269,2.141,2.543,4.817,2.409,8.3s-1.339,15.253-5.085,18.2a10.663,10.663,0,0,0-4.148,6.556h10.169s1.74-3.479,1.472-5.888,2.809-4.95,2.944-9.9,0-14.183,1.338-17.394c.861-2.067,1-11.947,2.17-20.048,5.386-1.1,10.711-2.055,13.554-.893,5.42,2.211,31.524,9.015,50.161,1.6a7.989,7.989,0,0,1,4.038.884c.454.341,5.117,1.885,11.066,2.262,2.937,12.322,5.5,24.482,4.8,26.863-1.5,5.118-9.934,22.511-9.934,22.511h8.111a6.116,6.116,0,0,0,3.144-5.62c-.134-4.013,11.24-19.669,11.24-19.669s.716-22.075,5.475-33.069a22.548,22.548,0,0,0,2.147-3.756,5.138,5.138,0,0,0,1.125-2.915" transform="translate(-62.099 -59.014)" fill="#efcdaf"/>
        <path id="Trazado_115708" data-name="Trazado 115708" d="M491.4,338.79s5.9-6.352,2.233-7.787-2.233,2.871-2.233,4.546Z" transform="translate(-130.707 -88.017)" fill="#2b478b"/>
        <path id="Trazado_115709" data-name="Trazado 115709" d="M420.172,226.768c-6.857,3.374-14.434,6.471-18.914,6.582-9.789.166-33.57-5.475-43.249-6.084s-48.889,8.462-58.125,5.53a1.522,1.522,0,0,0-.718-.11c-2.046-.166-5.144,1.272-8.959,3.6-2.158,1.383-4.535,3.04-7.024,4.921-16.094,12.167-37,33.072-37,33.072a143.743,143.743,0,0,1,13.328-19.468,131.918,131.918,0,0,1,21.569-21.457,95.823,95.823,0,0,1,17.642-11.061c5.475-1.714,12,1.383,14.711,1.216a75.039,75.039,0,0,0,9.07-1.107c1.162-.22,2.213-.386,3.208-.553,5.53-.83,39.044,3.485,62.715,4.148,4.867.167,9.291.111,13-.111.277,0,.553-.055.83-.055,9.9-.553,15.153.055,17.918.94" transform="translate(-65.52 -59.014)" fill="#ffe7d7"/>
        <path id="Trazado_115710" data-name="Trazado 115710" d="M399.852,243.257c-1.435-5.982-15.79-1.435-29.427,4.066s-19.618.718-30.546,3.829-10.747,18.248-11.1,19.139c-3.842,9.81,25.135,4.306,35.755,9.012s36.511,1.993,35.315-5.662,1.435-24.4,0-30.383" transform="translate(-87.409 -63.988)" fill="#3c6d9d"/>
        <path id="Trazado_115711" data-name="Trazado 115711" d="M362.819,232.788c11.723-.479,15.072-6.7,29.187-4.068,11.6,2.163,19.815.771,24.094-2.72-23.644-.677-57.188-4.957-62.683-4.125-1,.151-2.082.335-3.221.525.319,2.067,2.281,10.809,12.623,10.388" transform="translate(-93.201 -59.022)" fill="#3c6d9d"/>
        <path id="Trazado_115712" data-name="Trazado 115712" d="M277.651,237.56a131.945,131.945,0,0,0-21.569,21.457,143.739,143.739,0,0,0-13.328,19.468c-1.493.166-3.263,1.383-5.033,1.6-2.378.332-2.876,1.493-2.876,1.493a4.334,4.334,0,0,0,1.6,1.935h-.276c-2.378.332-2.876,1.549-2.876,1.549,1,2.323,3.484,2.764,5.254,2.764-.553,2.324-1.162,5.753-.111,7.356,1.659,2.489-.332,11.723-.165,14.821.221,3.1-1.107,5.42-1.051,6.2.055.718,2.1,3.7,4.59,3.594,2.489-.167,5.475-.443,6.968-3.539,1.549-3.153,2.433-5.089,3.926-5.365,1.438-.277,9.734-8.351,11.5-11.891.94-1.771,3.705-5.531,13.66-7.576-1.438-9.181-7.356-21.127-1.106-31.082a27.435,27.435,0,0,0,1.825-3.594,25,25,0,0,0,.94-3.319,24.508,24.508,0,0,0,.221-8.019,33.067,33.067,0,0,0-2.1-7.853" transform="translate(-62.09 -63.224)" fill="#3c6d9d"/>
        <path id="Trazado_115713" data-name="Trazado 115713" d="M481.684,247.1a27.449,27.449,0,0,0-8.274-16.807s-.2-4.3-21.024-3.062c-2.517,2.507-4.493,5.868-3.991,10.062,1.23,10.285-15.545,12.049-13.7,24.529,1.6,10.835,22.9,15.381,35.043,6.374.01-1.455-.033-2.982-.138-4.587a75.856,75.856,0,0,0,4.333-9.822l2.87,51.226,2.73.152s3.35-47.3,2.154-58.066" transform="translate(-115.651 -60.417)" fill="#3c6d9d"/>
        <path id="Trazado_115714" data-name="Trazado 115714" d="M247.5,376.984H180.166l-4.3-30.664h72.585a2.908,2.908,0,0,1,2.88,3.31Z" transform="translate(-46.806 -92.17)" fill="#e29952"/>
        <path id="Trazado_115715" data-name="Trazado 115715" d="M235.652,376.984H168.319l-3.834-27.354a2.907,2.907,0,0,1,2.878-3.31h69.243a2.907,2.907,0,0,1,2.879,3.31Z" transform="translate(-43.769 -92.17)" fill="#c18e4c"/>
        <path id="Trazado_115716" data-name="Trazado 115716" d="M571.226,364.275l-.15-62.777a2.954,2.954,0,0,0-2.958-2.932l-7.581.046a2.953,2.953,0,0,0-2.932,2.957l.151,62.705Z" transform="translate(-148.401 -79.46)" fill="#c18e4c"/>
        <path id="Trazado_115717" data-name="Trazado 115717" d="M137.848,364.275,137.7,301.5a2.954,2.954,0,0,0-2.958-2.932l-7.582.046a2.952,2.952,0,0,0-2.931,2.957l.15,62.705Z" transform="translate(-33.062 -79.46)" fill="#c18e4c"/>
        <path id="Trazado_115718" data-name="Trazado 115718" d="M120.695,325.673l335.316-.571a2.954,2.954,0,0,0,2.932-2.957l-.046-7.581a2.955,2.955,0,0,0-2.957-2.932l-335.318.571a2.953,2.953,0,0,0-2.931,2.957l.046,7.582a2.953,2.953,0,0,0,2.957,2.932" transform="translate(-31.322 -82.938)" fill="#ffcf83"/>
        <path id="Trazado_115719" data-name="Trazado 115719" d="M120.695,366.668l335.316-.571a2.954,2.954,0,0,0,2.932-2.957l-.046-7.581a2.955,2.955,0,0,0-2.957-2.933l-335.318.571a2.953,2.953,0,0,0-2.931,2.957l.046,7.582a2.953,2.953,0,0,0,2.957,2.932" transform="translate(-31.322 -93.848)" fill="#ffcf83"/>
        <path id="Trazado_115720" data-name="Trazado 115720" d="M134.42,316.129a1.432,1.432,0,1,1-1.432-1.432,1.433,1.433,0,0,1,1.432,1.432" transform="translate(-35.012 -83.753)" fill="#c18e4c"/>
        <path id="Trazado_115721" data-name="Trazado 115721" d="M134.42,324.914a1.432,1.432,0,1,1-1.432-1.433,1.433,1.433,0,0,1,1.432,1.433" transform="translate(-35.012 -86.091)" fill="#c18e4c"/>
        <path id="Trazado_115722" data-name="Trazado 115722" d="M134.42,356.831a1.432,1.432,0,1,1-1.432-1.433,1.433,1.433,0,0,1,1.432,1.433" transform="translate(-35.012 -94.586)" fill="#c18e4c"/>
        <path id="Trazado_115723" data-name="Trazado 115723" d="M134.42,365.616a1.432,1.432,0,1,1-1.432-1.432,1.433,1.433,0,0,1,1.432,1.432" transform="translate(-35.012 -96.924)" fill="#c18e4c"/>
        <path id="Trazado_115724" data-name="Trazado 115724" d="M567.5,316.129a1.433,1.433,0,1,1-1.433-1.432,1.433,1.433,0,0,1,1.433,1.432" transform="translate(-150.273 -83.753)" fill="#c18e4c"/>
        <path id="Trazado_115725" data-name="Trazado 115725" d="M567.5,324.914a1.433,1.433,0,1,1-1.433-1.433,1.433,1.433,0,0,1,1.433,1.433" transform="translate(-150.273 -86.091)" fill="#c18e4c"/>
        <path id="Trazado_115726" data-name="Trazado 115726" d="M567.5,356.831a1.433,1.433,0,1,1-1.433-1.433,1.433,1.433,0,0,1,1.433,1.433" transform="translate(-150.273 -94.586)" fill="#c18e4c"/>
        <path id="Trazado_115727" data-name="Trazado 115727" d="M567.5,365.616a1.433,1.433,0,1,1-1.433-1.432,1.433,1.433,0,0,1,1.433,1.432" transform="translate(-150.273 -96.924)" fill="#c18e4c"/>
        <path id="Trazado_115728" data-name="Trazado 115728" d="M578.321,387.727H.736a.736.736,0,1,1,0-1.472H578.321a.736.736,0,1,1,0,1.472" transform="translate(0 -102.798)" fill="#2e3552"/>
        <path id="Trazado_115729" data-name="Trazado 115729" d="M67.554,368.461s-2.737,2.538-2.2,4.34,3,3,3.338,5.208,1.669,3.405,2.871,3.405h5.73s.884-1.551-1.252-2.018-2.942-3.057-2.808-5.461a42.948,42.948,0,0,0-.2-5.608l-4.54-1.068Z" transform="translate(-17.374 -97.743)" fill="#2c3a64"/>
        <path id="Trazado_115730" data-name="Trazado 115730" d="M114.61,383.2a8.514,8.514,0,0,0,2.114.275h13.432c-.053-.417-.387-1.74-2.459-2.077-2.472-.4-6.812-1.871-7.546-5.141s-6.077,1-6.077,1-.666,5.34.536,5.941" transform="translate(-30.311 -99.81)" fill="#2c3a64"/>
        <path id="Trazado_115731" data-name="Trazado 115731" d="M123.617,266.416s-.812,10.121-1.765,22.288c-1.3,16.527-2.854,36.828-3.008,40.674-.266,6.678-1.336,17.36-1.336,17.36s-2.535,2.538-7.612,1.468a174.772,174.772,0,0,1-5.815-31.384c-.02-.265-.04-.531-.059-.8-1.2-16.425-3.071-51.012-3.071-51.012Z" transform="translate(-26.867 -70.531)" fill="#3c6d9d"/>
        <path id="Trazado_115732" data-name="Trazado 115732" d="M123.617,266.416s-.812,10.121-1.765,22.288l-17.771,28.119c-.02-.265-.04-.531-.059-.8-1.2-16.425-3.071-51.012-3.071-51.012Z" transform="translate(-26.867 -70.531)" fill="#2c3a64"/>
        <path id="Trazado_115733" data-name="Trazado 115733" d="M111.243,266.165s-14.622,36.656-24.236,53.882-12.62,22.033-12.62,22.033-5.508-2.2-6.009-3.705c0,0,3.677-33.256,10.116-41.363,3.638-4.581,7.912-18.328,8.112-23.135s1.3-14.322,1.3-14.322Z" transform="translate(-18.198 -69.078)" fill="#3c6d9d"/>
        <path id="Trazado_115734" data-name="Trazado 115734" d="M164.794,261.649a61.753,61.753,0,0,1,5.855,3.112,13.442,13.442,0,0,1,2.277,3.991c-.132.236-.388.308-.856-.015s-1.78-1.675-1.828-1.424,3.5,4.43,2.875,5.315-4.188.623-6.221-.823-4.062-6.76-4.368-7.05c-2.592-2.461,2.267-3.1,2.267-3.1" transform="translate(-43.052 -69.635)" fill="#ffb27d"/>
        <path id="Trazado_115735" data-name="Trazado 115735" d="M154.922,247.457c1.432-1.246,1.471-1.562,1.471-1.562s-9.151-15.822-9.944-17.344-5.7-25.284-5.7-25.284L123.8,198.353s11.941,30.878,14.026,34.693c3.446,6.306,14.7,15.587,14.7,15.587a5.288,5.288,0,0,0,2.4-1.176" transform="translate(-32.948 -52.79)" fill="#ffb500"/>
        <path id="Trazado_115736" data-name="Trazado 115736" d="M135.567,187.057s5.966,10.5,11.8,11.867a15.931,15.931,0,0,0-1.663-5.938c.582-.686,1.092-1.316,1.535-1.88a35.219,35.219,0,0,0,2.166-3.032l-1.979-5.32-1.342-3.611a17.422,17.422,0,0,1-2.1,3.024,14.276,14.276,0,0,1-8.414,4.89" transform="translate(-36.08 -47.677)" fill="#ffb27d"/>
        <path id="Trazado_115737" data-name="Trazado 115737" d="M147.015,183.263a11.073,11.073,0,0,0,3.255,8.94,35.138,35.138,0,0,0,2.166-3.033l-1.979-5.32a11.312,11.312,0,0,0-3.441-.586" transform="translate(-39.113 -48.773)" fill="#ed975d"/>
        <path id="Trazado_115738" data-name="Trazado 115738" d="M154.013,186.135s-8.914-3.476-6.665-8.993,2.615-9.683,8.4-7.7,6.026,4.539,5.724,6.563-5.084,10.889-7.46,10.127" transform="translate(-39.118 -44.962)" fill="#ffb27d"/>
        <path id="Trazado_115739" data-name="Trazado 115739" d="M93.552,243.264c3.594,5.169,30.482,12.076,30.161,8.5a38.994,38.994,0,0,1,0-7.058q.1-1.151.285-2.438a56.28,56.28,0,0,1,5.926-17.749q.407-.787.846-1.589a54.262,54.262,0,0,0,3.727-8.374c1.863-5.384,2.617-10.535,1.675-13.9a.163.163,0,0,0-.015-.046c-5.618-2.6-7.8-12.677-7.8-12.677s-19.174,3.441-29.915,29c0,0-1.031,2.806-2.21,6.615-1.432,4.62-3.081,10.709-3.366,15.054-.139,2.064.032,3.734.678,4.666" transform="translate(-24.705 -50.016)" fill="#ffb500"/>
        <path id="Trazado_115740" data-name="Trazado 115740" d="M145.295,165.393c-.062-.123-.244-.255-.686-.39a1.857,1.857,0,0,1,.9-.034,2.358,2.358,0,0,1,2-1.659,1.405,1.405,0,0,0-.9.826c1.564-.991,4.462-1.279,11.7,1.132,9.535,3.176,4.772,8.711,3.326,9.155s-4.106-2.4-6.5-2.793-3.687,2.945-4.6,3.221-.393-.482-1.348-1.242-1.5,1.027-1.484,2.282-1.861,2.511-1.861,2.511a17.793,17.793,0,0,0-1.073-2.069c-1.093-2-.8-9.279.248-10.588l.278-.351" transform="translate(-38.345 -43.463)" fill="#3c6d9d"/>
        <path id="Trazado_115741" data-name="Trazado 115741" d="M144.066,164.89s1.1-8.869,7.521-8.376,9.137,3.8,9.555,8.729Z" transform="translate(-38.342 -41.65)" fill="#edbd77"/>
        <path id="Trazado_115742" data-name="Trazado 115742" d="M141.891,166.183c.236-.05.478-.1.724-.146.093-.018.186-.035.279-.051a38.9,38.9,0,0,1,7.879-.506,40.945,40.945,0,0,1,5.789.582c.3.054.6.107.889.167.4.082.789.168,1.164.261,4.515,1.1,7.51,2.956,7.446,4.966-.065,2.123-3.045,3.851-8.032,4.608a6.986,6.986,0,0,0,.307-1.125,5.231,5.231,0,0,0,1.853-2.773c.025-.71-.553-1.388-1.56-1.973a18.723,18.723,0,0,0-8.178-1.836c-3.695-.117-6.936.5-8.657,1.518,0,0-.079,3.347-.036,4.109.036.456.086.892.15,1.288-4.144-1.117-6.843-2.888-6.782-4.8.061-1.86,2.731-3.423,6.765-4.291" transform="translate(-35.962 -44.035)" fill="#ffcf83"/>
        <path id="Trazado_115743" data-name="Trazado 115743" d="M92.89,244.438c23.136-6.979,26.816-34.563,26.816-34.563s-13.172,10.066-23.45,19.509c-1.432,4.62-3.081,10.709-3.366,15.054" transform="translate(-24.722 -55.856)" fill="#ff9215"/>
        <path id="Trazado_115744" data-name="Trazado 115744" d="M56.7,296.6l2.323-21.647,3.347.36a10.465,10.465,0,0,1,20.767,2.229l3.346.36-2.323,21.647a4.373,4.373,0,0,1-4.8,3.87L60.573,301.4a4.373,4.373,0,0,1-3.869-4.8m17.012-29.087A9.646,9.646,0,0,0,63.2,275.4l19.109,2.051a9.646,9.646,0,0,0-8.6-9.939" transform="translate(-15.085 -70.96)" fill="#c65447"/>
        <path id="Trazado_115745" data-name="Trazado 115745" d="M82.166,257.719a47.513,47.513,0,0,1,.4,5.092,9.119,9.119,0,0,1-1.166,2.85c-.208.012-.837.037-.82-.4s.3-.847.118-.774-.236,1.725-1.07,1.681-3.291-.969-3.191-2.887,2.716-5.434,2.778-5.752c.528-2.7,2.955.191,2.955.191" transform="translate(-20.341 -68.232)" fill="#ffb27d"/>
        <path id="Trazado_115746" data-name="Trazado 115746" d="M81.534,242.242c1.835.841,2.517-.017,2.517-.017s10.692-17.853,11.818-19.289,20.863-9.906,20.863-9.906,8.032-3.07,8.35-7.943c.276-4.234-2.128-6.835-4.76-8.4a8.887,8.887,0,0,0-9.991.645c-6.475,5.028-19.309,15.142-21.375,17.885-4.6,6.1-9.692,25.238-9.692,25.238a6.354,6.354,0,0,0,2.27,1.791" transform="translate(-21.095 -52.016)" fill="#ffb500"/>
        <path id="Trazado_115747" data-name="Trazado 115747" d="M174.771,295.064s9.4-4.322,18.427-2.322c0,0-10.959-4.877-18.427,2.322" transform="translate(-46.514 -77.481)" fill="#82b378"/>
        <path id="Trazado_115748" data-name="Trazado 115748" d="M173.337,299.112s10.278,1.191,16.951,7.589c0,0-6.831-9.86-16.951-7.589" transform="translate(-46.132 -79.515)" fill="#82b378"/>
        <path id="Trazado_115749" data-name="Trazado 115749" d="M172.547,284.284s10.278,1.191,16.951,7.589c0,0-6.831-9.86-16.951-7.589" transform="translate(-45.922 -75.569)" fill="#82b378"/>
        <path id="Trazado_115750" data-name="Trazado 115750" d="M193.371,301.439s3.881-3.752,8.669-4.327c0,0-6.237-.507-8.669,4.327" transform="translate(-51.464 -79.07)" fill="#82b378"/>
        <path id="Trazado_115751" data-name="Trazado 115751" d="M189.74,339.714s3.881-3.752,8.669-4.327c0,0-6.237-.507-8.669,4.327" transform="translate(-50.497 -89.256)" fill="#82b378"/>
        <path id="Trazado_115752" data-name="Trazado 115752" d="M160.867,278.344s3.881-3.752,8.669-4.327c0,0-6.237-.507-8.669,4.327" transform="translate(-42.813 -72.923)" fill="#82b378"/>
        <path id="Trazado_115753" data-name="Trazado 115753" d="M166.1,304.515s5.379.449,8.966,3.674c0,0-3.727-5.027-8.966-3.674" transform="translate(-44.206 -80.982)" fill="#82b378"/>
        <path id="Trazado_115754" data-name="Trazado 115754" d="M166.236,288.112a9.317,9.317,0,0,1,4.835,1.981s-2.01-2.712-4.835-1.981" transform="translate(-44.242 -76.645)" fill="#82b378"/>
        <path id="Trazado_115755" data-name="Trazado 115755" d="M183.217,279.327a9.317,9.317,0,0,1,4.835,1.981s-2.01-2.712-4.835-1.981" transform="translate(-48.761 -74.307)" fill="#82b378"/>
        <path id="Trazado_115756" data-name="Trazado 115756" d="M185.3,309.445a9.315,9.315,0,0,1,4.224-3.076s-3.363.288-4.224,3.076" transform="translate(-49.317 -81.537)" fill="#82b378"/>
        <path id="Trazado_115757" data-name="Trazado 115757" d="M207.558,339.855a9.314,9.314,0,0,1,4.468,2.709s-1.563-2.99-4.468-2.709" transform="translate(-55.24 -90.444)" fill="#82b378"/>
        <path id="Trazado_115758" data-name="Trazado 115758" d="M202.762,307.736a9.314,9.314,0,0,1,4.468,2.709s-1.563-2.991-4.468-2.709" transform="translate(-53.963 -81.896)" fill="#82b378"/>
        <path id="Trazado_115759" data-name="Trazado 115759" d="M183.956,334.38s5.379.449,8.966,3.674c0,0-3.727-5.027-8.966-3.674" transform="translate(-48.958 -88.93)" fill="#82b378"/>
        <path id="Trazado_115760" data-name="Trazado 115760" d="M203.16,339.311a9.315,9.315,0,0,1,4.224-3.076s-3.363.288-4.224,3.076" transform="translate(-54.069 -89.486)" fill="#82b378"/>
        <g id="Grupo_143153" data-name="Grupo 143153" transform="translate(363.939 24.074)" opacity="0.6">
          <g id="Grupo_143152" data-name="Grupo 143152">
            <g id="Grupo_143151" data-name="Grupo 143151" clip-path="url(#clip-path-5)">
              <path id="Trazado_115761" data-name="Trazado 115761" d="M520.494,45.09a12.285,12.285,0,1,1-12.285-12.285A12.285,12.285,0,0,1,520.494,45.09" transform="translate(-495.924 -32.805)" fill="#f6fbff"/>
            </g>
          </g>
        </g>
      </g>
    </g>
  </g>
</svg>
