<svg xmlns="http://www.w3.org/2000/svg" xmlns:xlink="http://www.w3.org/1999/xlink" width="171.923" height="178.611" viewBox="0 0 171.923 178.611">
  <defs>
    <clipPath id="clip-path">
      <rect id="Rect치ngulo_37845" data-name="Rect치ngulo 37845" width="171.923" height="171.923" fill="none"/>
    </clipPath>
    <clipPath id="clip-path-2">
      <path id="Trazado_115663" data-name="Trazado 115663" d="M85.958,1.5a84.462,84.462,0,1,0,84.464,85.125c0-.221,0-.444,0-.666A84.466,84.466,0,0,0,85.961,1.5h0" fill="none"/>
    </clipPath>
    <radialGradient id="radial-gradient" cx="0.077" cy="0.019" r="1.463" gradientTransform="translate(0 0)" gradientUnits="objectBoundingBox">
      <stop offset="0" stop-color="#f6f6f7"/>
      <stop offset="0.477" stop-color="#f9f9fa"/>
      <stop offset="0.715" stop-color="#fff"/>
      <stop offset="1" stop-color="#fff"/>
    </radialGradient>
  </defs>
  <g id="img21" transform="translate(-96.39 -2649)">
    <g id="Grupo_143139" data-name="Grupo 143139" transform="translate(96.39 2649)">
      <g id="Grupo_143140" data-name="Grupo 143140">
        <g id="Grupo_143139-2" data-name="Grupo 143139" clip-path="url(#clip-path)">
          <path id="Trazado_115662" data-name="Trazado 115662" d="M170.432,85.962A84.465,84.465,0,1,1,85.964,1.5h0a84.464,84.464,0,0,1,84.464,84.461" fill="#fff"/>
        </g>
      </g>
      <g id="Grupo_143142" data-name="Grupo 143142">
        <g id="Grupo_143141" data-name="Grupo 143141" clip-path="url(#clip-path-2)">
          <rect id="Rect치ngulo_37846" data-name="Rect치ngulo 37846" width="168.924" height="169.106" transform="translate(1.499 1.5)" fill="url(#radial-gradient)"/>
        </g>
      </g>
      <g id="Grupo_143144" data-name="Grupo 143144">
        <g id="Grupo_143143" data-name="Grupo 143143" clip-path="url(#clip-path)">
          <path id="Trazado_115664" data-name="Trazado 115664" d="M170.422,85.958a84.131,84.131,0,1,0,0,.667C170.423,86.4,170.423,86.181,170.422,85.958Z" fill="none" stroke="#5f9025" stroke-miterlimit="10" stroke-width="3"/>
          <path id="Trazado_115665" data-name="Trazado 115665" d="M161.608,51.626c18.677,41.372-2.08,86.24-44.1,104.629-35.844,15.686-77.216,8.192-100.341-23C42.834,170.644,94.428,180.47,132.4,155.2c34.273-22.807,47.361-66.98,29.2-103.574" fill="#eceef0"/>
          <path id="Trazado_115666" data-name="Trazado 115666" d="M104.663,31.539c.551.492,1.126.959,1.648,1.479q11.921,11.9,23.841,23.8a3.665,3.665,0,0,1,1.162,2.814q-.034,33.581-.017,67.162c0,2.21-.522,2.717-2.781,2.717h-8.1v1.2c0,2.515.013,5.03-.006,7.545a1.877,1.877,0,0,1-2.083,2.119c-.248.008-.5,0-.744,0q-37.1,0-74.19,0c-2.311,0-2.781-.473-2.781-2.806q0-47.979,0-95.96c0-2.367.474-2.833,2.874-2.833,2.618,0,5.237,0,8.01,0,0-1.6.048-3.15-.016-4.691a2.447,2.447,0,0,1,1.307-2.552Zm-2.363,3.7H55.189v90.573h72.4V60.57h-1.343q-10.682,0-21.364,0c-2.046,0-2.58-.543-2.58-2.586q0-10.732,0-21.466ZM44.327,42.463v94.214h72.405v-7.161H54.406c-2.457,0-2.913-.456-2.913-2.909V42.463Zm80.418,14.42L106,38.169V56.883Z" fill="#12263f"/>
          <path id="Trazado_115667" data-name="Trazado 115667" d="M96.811,113.171q-10.468,0-20.938,0a5.217,5.217,0,0,1-1.264-.1,1.655,1.655,0,0,1-1.322-1.713,1.689,1.689,0,0,1,1.426-1.742,5.5,5.5,0,0,1,1.164-.062q20.991,0,41.982,0a4.965,4.965,0,0,1,1.058.052,1.7,1.7,0,0,1,1.469,1.7,1.677,1.677,0,0,1-1.371,1.777,4.978,4.978,0,0,1-1.266.084q-10.469.006-20.938,0" fill="#12263f"/>
          <path id="Trazado_115668" data-name="Trazado 115668" d="M96.9,87.78q10.31,0,20.618,0a10.091,10.091,0,0,1,1.167.039,1.766,1.766,0,0,1,1.708,1.7,1.8,1.8,0,0,1-1.681,1.844,6.426,6.426,0,0,1-.952.048q-20.937,0-41.874,0c-.07,0-.141,0-.212,0-1.533-.025-2.393-.673-2.4-1.81s.84-1.819,2.375-1.821q10.629-.013,21.256,0" fill="#12263f"/>
          <path id="Trazado_115669" data-name="Trazado 115669" d="M96.826,98.674q10.47,0,20.939,0c1.777,0,2.6.555,2.631,1.759.029,1.235-.87,1.871-2.657,1.871q-20.886,0-41.771,0a5.717,5.717,0,0,1-1.263-.1,1.766,1.766,0,0,1,.227-3.494c.386-.038.778-.029,1.168-.029H96.826" fill="#12263f"/>
          <path id="Trazado_115670" data-name="Trazado 115670" d="M96.793,69.616H76.068a10.324,10.324,0,0,1-1.168-.029A1.734,1.734,0,0,1,73.288,67.9a1.677,1.677,0,0,1,1.346-1.792A4.854,4.854,0,0,1,75.789,66q21.045-.009,42.088,0a4.641,4.641,0,0,1,1.155.112,1.765,1.765,0,0,1-.24,3.475,8.907,8.907,0,0,1-1.168.031H96.793" fill="#12263f"/>
          <path id="Trazado_115671" data-name="Trazado 115671" d="M96.9,80.506q-10.468,0-20.937,0c-1.823,0-2.707-.6-2.694-1.818s.912-1.812,2.725-1.812q20.831,0,41.662,0a5.555,5.555,0,0,1,1.47.147,1.611,1.611,0,0,1,1.256,1.744A1.635,1.635,0,0,1,119,80.422a6.684,6.684,0,0,1-1.374.081q-10.363.006-20.725,0" fill="#12263f"/>
          <path id="Trazado_115672" data-name="Trazado 115672" d="M69.578,62.37c-1.7,0-3.4.016-5.094,0a1.873,1.873,0,0,1-2.116-2.088q-.038-5.146,0-10.293a1.855,1.855,0,0,1,2.1-2.094q5.148-.027,10.3,0c1.426.007,2.083.648,2.093,2.077q.036,5.148,0,10.294c-.01,1.462-.689,2.093-2.184,2.106-1.7.015-3.4,0-5.095,0m-3.564-3.716h7.149V51.588H66.014Z" fill="#12263f"/>
          <path id="Trazado_115673" data-name="Trazado 115673" d="M65.969,69.6c-.637,0-1.277.04-1.911-.009A1.722,1.722,0,0,1,62.4,67.952,1.632,1.632,0,0,1,63.8,66.118a26.11,26.11,0,0,1,4.332-.016A1.614,1.614,0,0,1,69.572,68a1.69,1.69,0,0,1-1.692,1.592c-.634.046-1.274.008-1.911.008v0" fill="#12263f"/>
          <path id="Trazado_115674" data-name="Trazado 115674" d="M66.035,98.7c.636,0,1.278-.044,1.91.01a1.689,1.689,0,0,1,1.634,1.645,1.57,1.57,0,0,1-1.409,1.82,26.206,26.206,0,0,1-4.331.009,1.675,1.675,0,0,1-1.456-1.8,1.779,1.779,0,0,1,1.74-1.68c.634-.044,1.274-.008,1.912-.008V98.7" fill="#12263f"/>
          <path id="Trazado_115675" data-name="Trazado 115675" d="M66,113.162c-.6,0-1.206.035-1.805-.007a1.846,1.846,0,0,1-1.819-1.842,1.806,1.806,0,0,1,1.8-1.743c1.2-.049,2.409-.048,3.611,0a1.756,1.756,0,0,1,1.8,1.727,1.791,1.791,0,0,1-1.779,1.859c-.6.044-1.2.008-1.805.008" fill="#12263f"/>
          <path id="Trazado_115676" data-name="Trazado 115676" d="M65.938,80.454c-.672,0-1.349.053-2.014-.014A1.611,1.611,0,0,1,62.4,78.806a1.515,1.515,0,0,1,1.323-1.774,27.263,27.263,0,0,1,4.536,0,1.5,1.5,0,0,1,1.31,1.777,1.6,1.6,0,0,1-1.516,1.629,19.715,19.715,0,0,1-2.12.014" fill="#12263f"/>
          <path id="Trazado_115677" data-name="Trazado 115677" d="M66.035,87.749c.684.034,1.4.014,2.093.118a1.593,1.593,0,0,1,1.447,1.688,1.519,1.519,0,0,1-1.382,1.725,29.312,29.312,0,0,1-4.435-.008A1.526,1.526,0,0,1,62.4,89.519a1.614,1.614,0,0,1,1.49-1.661c.7-.086,1.411-.075,2.142-.109" fill="#12263f"/>
        </g>
      </g>
    </g>
    <g id="Grupo_143140-2" data-name="Grupo 143140" transform="translate(203.5 2786.705)">
      <path id="Trazado_113904" data-name="Trazado 113904" d="M309.419,201.1c-8.869,6.141-15.468,15.175-21.286,23.147a2.193,2.193,0,0,0-.3,2.034,2.126,2.126,0,0,0,1.5,1.385,44.14,44.14,0,0,0,31.232-3.646A44.631,44.631,0,0,0,341.4,200.314a2.2,2.2,0,0,0,.141-.844,2.234,2.234,0,0,0,.209-.38,2.2,2.2,0,0,0-.048-1.873,2.16,2.16,0,0,0-1.083-1.02C331.429,192.258,319.473,194.14,309.419,201.1Z" transform="translate(-287.289 -191.596)" fill="#9fbe37"/>
      <path id="Trazado_113905" data-name="Trazado 113905" d="M295.094,214.6a.741.741,0,0,0,.613.85l.084.015c2.578.419,5.166.766,7.754,1.1,1.361.182,2.728.338,4.1.491q-2.97,1.584-5.95,3.159-6.856,3.6-13.769,7.107l-.006,0a.642.642,0,0,0,.541,1.164c4.789-2.013,9.48-4.215,14.137-6.494,2.148-1.047,4.278-2.136,6.4-3.237-.23.476-.461.951-.7,1.427l-2.109,4.343c-1.37,2.914-2.734,5.83-4,8.8a.644.644,0,0,0,1.149.577c1.624-2.785,3.15-5.621,4.669-8.459l2.226-4.284c.712-1.4,1.451-2.776,2.139-4.182,1.343-.715,2.692-1.424,4.032-2.145,1.591-.879,3.168-1.789,4.744-2.7l-.82,2.917c-.464,1.69-.96,3.374-1.4,5.073-.9,3.392-1.786,6.787-2.57,10.212a.642.642,0,0,0,1.232.356c1.167-3.314,2.229-6.659,3.281-10.006.539-1.669,1.017-3.356,1.529-5.034l1.5-5.043.015-.075q2.979-1.75,5.926-3.56c.843-.532,1.681-1.074,2.519-1.615-.344,2.354-.7,4.705-.981,7.072-.383,2.952-.742,5.911-1.026,8.878a.643.643,0,0,0,1.268.2c.622-2.917,1.173-5.845,1.7-8.777.556-2.926.987-5.872,1.487-8.806a1.6,1.6,0,0,0,0-.171c2.68-1.789,11.406-7.239,13.982-9.18a.7.7,0,0,0-.8-1.149l-.009.006c-2.89,1.864-11.881,7.293-14.813,9.091-3.114-.622-6.24-1.179-9.36-1.756-3.386-.574-6.769-1.149-10.179-1.6a.7.7,0,0,0-.266,1.376c3.332.847,6.689,1.573,10.045,2.3,2.315.467,4.631.936,6.949,1.391-.529.32-1.056.652-1.588.969q-3.32,1.952-6.659,3.871c-2.821-.377-5.642-.781-8.471-1.107-3.12-.377-6.246-.733-9.381-1a.7.7,0,0,0-.2,1.388c3.087.613,6.189,1.137,9.291,1.642,1.855.311,3.715.586,5.576.858-1.2.673-2.39,1.358-3.6,2.016-1.412.79-2.839,1.555-4.263,2.327-2.435-.23-4.864-.494-7.3-.682q-3.446-.278-6.9-.47a.668.668,0,0,0-.3-.072l-.739.006A.742.742,0,0,0,295.094,214.6Z" transform="translate(-287.565 -193.309)" fill="#507533"/>
    </g>
  </g>
</svg>
