<svg xmlns="http://www.w3.org/2000/svg" xmlns:xlink="http://www.w3.org/1999/xlink" width="168.041" height="141.137" viewBox="0 0 168.041 141.137">
  <defs>
    <clipPath id="clip-path">
      <rect id="Rectángulo_34854" data-name="Rectángulo 34854" width="168.041" height="141.137" fill="none"/>
    </clipPath>
  </defs>
  <g id="icon4" transform="translate(0 0)">
    <path id="Trazado_114213" data-name="Trazado 114213" d="M13.717,0V13.609H0V23H13.717V36.611h9.145V23H36.613V13.609H22.862V0Z" fill="#78b62e"/>
    <g id="Grupo_142405" data-name="Grupo 142405">
      <g id="Grupo_142404" data-name="Grupo 142404" clip-path="url(#clip-path)">
        <path id="Trazado_114214" data-name="Trazado 114214" d="M110.578,141.137a20.015,20.015,0,0,1-7.436-2.928,16.674,16.674,0,0,1-7.39-13.79c-.009-.4-.011-.807-.028-1.21a1.39,1.39,0,0,0-.121-.32H93.329c-.742,1.649-1.447,3.216-2.208,4.909a7.326,7.326,0,0,1-5.287,12.225c-12.609.039-25.22.145-37.827-.018-9.238-.119-16.95-7.918-17.458-17.221A18.326,18.326,0,0,1,45.99,103.447c.3-.044.6-.112.893-.167.147-3.783.2-3.963,2.007-6.586-2.274-2.814-2.786-5.865-.826-9.047,1.987-3.227,5.222-3.605,8.79-3.328V82.307q0-32.712-.014-65.425c-.007-5.064,1.855-9.062,6.2-11.783a11.43,11.43,0,0,1,6.118-1.793q23.828-.033,47.655.007a12.219,12.219,0,0,1,9.035,4.159q5.868,6.214,11.744,12.423a12.98,12.98,0,0,1,3.66,9.262q0,8.751,0,17.5v1.657c.7,0,1.309-.019,1.915,0,3.893.143,7.859-.128,11.662.533,7.3,1.272,12.7,7.834,13.15,15.231.035.582.055,1.166.055,1.749q0,28.944,0,57.887c-.008,8.078-4.807,14.627-12.211,16.765-.806.233-1.621.437-2.432.654ZM61.2,84.293H63.06c7.537,0,15.073-.017,22.61.009a7.15,7.15,0,0,1,7.208,6.148,7.526,7.526,0,0,1-1.937,6.312,6.486,6.486,0,0,1,2.007,5.19,34.976,34.976,0,0,1-1.67,5.488c2.417,3.12,2.412,5.985-.294,9.871,1.157,2.067,3.049.847,4.766,1.211v-1.769q0-25.437.019-50.872a20.04,20.04,0,0,1,.449-4.531c1.841-7.794,8.538-12.977,16.8-13.025,7.4-.044,14.8-.01,22.206-.01h1.524V26.729H135.1q-6.729,0-13.458,0c-2.118,0-2.794-.68-2.8-2.831q-.014-7.4,0-14.8V7.6h-1.69c-15.522,0-31.045.1-46.565-.055-5.191-.052-9.478,3.44-9.439,9.46.139,21.846.055,43.693.055,65.541v1.746M163.968,94.812c0-9.689.025-19.378-.008-29.067-.027-7.925-5.458-13.323-13.4-13.336q-18.705-.03-37.411,0c-7.9.016-13.345,5.5-13.349,13.4q-.015,29,0,58a13.833,13.833,0,0,0,.14,2.277,12.775,12.775,0,0,0,13.065,11c12.38.023,24.763-.134,37.14.057a13.283,13.283,0,0,0,13.866-13.8c-.214-9.5-.051-19.018-.051-28.528M56.292,136a14.387,14.387,0,1,0-14.34-14.418A14.363,14.363,0,0,0,56.292,136M69.957,88.614c-5.11,0-10.22-.008-15.33,0-2.092.005-3.4,1.173-3.383,2.98.012,1.79,1.336,2.955,3.423,2.956q15.263.012,30.525,0c2.089,0,3.442-1.162,3.474-2.929.034-1.815-1.339-3-3.514-3.008q-7.6-.013-15.195,0m.069,10.262c-5.158,0-10.316-.012-15.474.006a3,3,0,0,0-3.306,2.812c-.061.994.16,1.584,1.4,1.537,3.773-.144,7.542-.122,11.083,1.512a1.645,1.645,0,0,0,.662.075c7.087,0,14.174.015,21.26-.012a2.9,2.9,0,0,0,3-2.682,3.017,3.017,0,0,0-3.283-3.241c-5.113-.021-10.226-.007-15.339-.007m-1.3,36.77c-.038-.022.032.054.1.054,5.6.009,11.195.038,16.793,0a2.962,2.962,0,1,0-.079-5.918c-3.941-.039-7.882-.025-11.823,0a1.458,1.458,0,0,0-1.038.391c-1.353,1.8-2.645,3.646-3.955,5.476m1.525-26.5c1.094,1.9,2.061,3.653,3.117,5.35a1.568,1.568,0,0,0,1.143.587q5.436.066,10.872.017c1.989-.016,3.291-1.225,3.289-2.95a3.065,3.065,0,0,0-3.287-2.993c-1.834-.04-3.669-.011-5.5-.011H70.248m4.291,16.165a2.738,2.738,0,0,0,.482.107c3.4.007,6.81.03,10.214,0,2.075-.015,3.421-1.223,3.429-2.982s-1.327-2.956-3.423-2.984c-2.867-.038-5.735-.011-8.6-.011H74.814c-.1,2.05-.183,3.914-.275,5.865M133.965,22.368,123.28,11.08V22.368ZM34.922,124.058c.149,3.177.745,3.668,3.794,3.227-.231-1.074-.46-2.142-.692-3.227Zm-.208-4.276c3.255.467,3.883-.075,3.564-3-3.238-.182-2.962-.642-3.564,3M43.1,108.724l-.244-.364c-1.675,1.282-3.351,2.563-5.277,4.035,1.889.478,2.935.214,3.644-1.232a14.855,14.855,0,0,1,1.877-2.439m-.2,26.1.208-.279a14.262,14.262,0,0,1-1.548-1.941c-.66-1.19-1.574-1.324-3.176-.9L42.9,134.82" fill="#12263f"/>
        <path id="Trazado_114215" data-name="Trazado 114215" d="M83.907,77.983c-.028.554-.02,1.045-.084,1.528a1.843,1.843,0,0,1-1.928,1.844,1.722,1.722,0,0,1-1.872-1.862c.05-1.262-.529-1.591-1.59-1.943A13.354,13.354,0,0,1,75.3,75.8a2.9,2.9,0,0,1-.952-1.272,1.938,1.938,0,0,1,.749-2.485c.844-.6,1.536-.2,2.11.472a5.577,5.577,0,0,0,5.3,1.955c1.876-.249,2.978-1.042,3.255-2.52.338-1.8.236-3.561-1.472-4.693a21.328,21.328,0,0,0-3-1.479c-.9-.407-1.834-.724-2.719-1.152a6.276,6.276,0,0,1-3.8-6.517,6.205,6.205,0,0,1,4.355-5.872c.364-.136.591-.709.815-1.116.1-.173.007-.441.023-.664a1.942,1.942,0,1,1,3.872-.082c.033.4.005.8.005,1.287a23.5,23.5,0,0,1,2.357.57,8.46,8.46,0,0,1,2.16,1.026,1.634,1.634,0,0,1,.338,2.393,1.7,1.7,0,0,1-2.207.672,19.8,19.8,0,0,0-4.649-.99A2.917,2.917,0,0,0,78.555,57.7c-.3,1.713.345,2.893,2.166,3.717,1.386.627,2.847,1.089,4.228,1.725a8.127,8.127,0,0,1,3.81,11.331c-.9,1.728-2.191,2.676-4.852,3.507" fill="#12263f"/>
        <path id="Trazado_114216" data-name="Trazado 114216" d="M106.411,41.1q8.073,0,16.146,0a7.431,7.431,0,0,1,1.471.091,1.978,1.978,0,0,1,.019,3.885,6.613,6.613,0,0,1-1.337.089q-16.415.007-32.829,0c-.269,0-.54.01-.807-.013a2.081,2.081,0,0,1-2.107-2.011,2.01,2.01,0,0,1,2.088-2.016c2.824-.058,5.65-.029,8.476-.031q4.44,0,8.88,0" fill="#12263f"/>
        <path id="Trazado_114217" data-name="Trazado 114217" d="M92.5,31.025c5.78,0,11.56-.023,17.339.03a3.116,3.116,0,0,1,2.034.712,2.214,2.214,0,0,1,.385,1.924c-.195.556-.929.981-1.51,1.321-.305.178-.789.061-1.192.061q-17.138,0-34.275,0c-.314,0-.629.014-.94-.015a2.043,2.043,0,0,1-1.949-2.012,2.02,2.02,0,0,1,1.963-2c1.206-.064,2.419-.021,3.628-.022H92.5" fill="#12263f"/>
        <path id="Trazado_114218" data-name="Trazado 114218" d="M77.618,45.165c-.986,0-1.973.028-2.958-.009a2.1,2.1,0,0,1-2.269-1.983,2.054,2.054,0,0,1,2.19-2.055c2.061-.051,4.125-.054,6.184.005a1.943,1.943,0,0,1,2.1,1.971c.021,1.212-.764,1.964-2.159,2.066-.089.007-.179.006-.268.007q-1.413,0-2.824,0" fill="#12263f"/>
        <path id="Trazado_114219" data-name="Trazado 114219" d="M120.992,35.062c-.852,0-1.707.047-2.555-.012a1.957,1.957,0,0,1-1.909-2.028,1.876,1.876,0,0,1,1.84-1.956,49.2,49.2,0,0,1,5.512.011,1.811,1.811,0,0,1,1.759,2.009,1.849,1.849,0,0,1-1.824,1.953c-.934.085-1.881.018-2.823.018Z" fill="#12263f"/>
        <path id="Trazado_114220" data-name="Trazado 114220" d="M131.915,57.016q9.155,0,18.308,0c4.937.008,7.624,2.718,7.637,7.682.006,2.064.031,4.129-.006,6.193-.079,4.4-2.922,7.182-7.336,7.189q-10.433.017-20.865-.006c-.529,0-1.246.059-1.544-.24-.542-.543-1.2-1.375-1.129-2.011s.911-1.265,1.546-1.708c.34-.237.959-.086,1.451-.087q10.029,0,20.058,0c2.877,0,3.744-.881,3.75-3.8,0-2.019.031-4.039-.011-6.057-.043-2.075-1.017-3.073-3.08-3.076q-18.778-.029-37.557,0c-2.142,0-3.105,1.017-3.12,3.158-.015,2.244-.021,4.488,0,6.731a2.757,2.757,0,0,0,3,3.035c2.2.045,4.4,0,6.6.017,1.587.012,2.506.752,2.522,1.98.016,1.245-.918,2.053-2.463,2.066-2.288.02-4.577.042-6.865,0a6.766,6.766,0,0,1-6.847-6.961c-.027-2.243-.013-4.487,0-6.731.018-4.618,2.729-7.344,7.379-7.361,6.192-.023,12.385-.006,18.577-.006" fill="#12263f"/>
        <path id="Trazado_114221" data-name="Trazado 114221" d="M158.048,115.907c0,3.453.02,6.906-.005,10.359-.028,3.824-2.418,6.193-6.229,6.22-1.122.008-2.244.029-3.364-.007a5.8,5.8,0,0,1-5.81-5.84q-.059-10.763,0-21.527a5.124,5.124,0,0,1,4.77-5.242,34.886,34.886,0,0,1,5.907,0,5.034,5.034,0,0,1,4.7,5.134c.065,3.631.016,7.265.016,10.9Zm-4.064.058c0-3.449-.025-6.9.013-10.348.014-1.271-.534-1.794-1.775-1.76-1.343.037-2.688.01-4.032.013a1.331,1.331,0,0,0-1.506,1.483c-.005,7.033-.015,14.066.009,21.1.005,1.3.7,1.922,2.043,1.973.94.035,1.881.016,2.822.007,1.862-.017,2.417-.554,2.423-2.388.012-3.359,0-6.719,0-10.079" fill="#12263f"/>
        <path id="Trazado_114222" data-name="Trazado 114222" d="M139.624,107.489c0,1.167.041,2.335-.009,3.5a4.246,4.246,0,0,1-4.2,4.23c-2.33.076-4.667.07-7,0a4.158,4.158,0,0,1-4.207-4.2c-.08-2.33-.077-4.668-.005-7a4.092,4.092,0,0,1,4.042-4.2,69.294,69.294,0,0,1,7.264.011,4.165,4.165,0,0,1,4.115,4.427c.028,1.076,0,2.153,0,3.23m-11.295-3.536v7.217c2.26,0,4.444.019,6.629-.031.207,0,.577-.437.582-.677.047-2.141.028-4.282.028-6.509Z" fill="#12263f"/>
        <path id="Trazado_114223" data-name="Trazado 114223" d="M131.835,132.486c-1.12,0-2.24.031-3.358-.008a4.181,4.181,0,0,1-4.264-4.125c-.092-2.369-.1-4.747-.006-7.116a4.078,4.078,0,0,1,4.189-4.177c2.324-.092,4.657-.091,6.981,0a4.2,4.2,0,0,1,4.243,4.431c.035,2.193.04,4.387,0,6.58a4.3,4.3,0,0,1-4.425,4.41c-1.119.027-2.238,0-3.357,0m-3.508-4.056c2.285,0,4.386.024,6.486-.031a1.014,1.014,0,0,0,.72-.679c.057-2.139.033-4.281.033-6.5h-7.239Z" fill="#12263f"/>
        <path id="Trazado_114224" data-name="Trazado 114224" d="M121.358,124.793c0,1.119.022,2.239,0,3.357a4.2,4.2,0,0,1-4.081,4.31c-2.414.089-4.837.089-7.251,0a4.148,4.148,0,0,1-4.051-4.185q-.066-3.491,0-6.983a4.04,4.04,0,0,1,4-4.205c2.456-.117,4.926-.116,7.382,0a4.083,4.083,0,0,1,4,4.214c.032,1.163.005,2.328.006,3.492m-4.055-3.6h-7.2v7.235c2.23,0,4.372.029,6.51-.041.24-.008.652-.572.661-.888.06-2.052.031-4.107.031-6.306" fill="#12263f"/>
        <path id="Trazado_114225" data-name="Trazado 114225" d="M105.969,107.474c0-1.209-.037-2.419.008-3.626a3.91,3.91,0,0,1,3.522-3.934,64.5,64.5,0,0,1,8.307,0,3.939,3.939,0,0,1,3.542,4.063q.063,3.491,0,6.983a4.184,4.184,0,0,1-4.136,4.254c-2.369.084-4.746.083-7.116,0a4.18,4.18,0,0,1-4.131-4.251c-.03-1.163-.005-2.327-.005-3.491h.006m11.265-3.517h-7.118v7.153h7.118Z" fill="#12263f"/>
        <path id="Trazado_114226" data-name="Trazado 114226" d="M131.716,97.041c-1.211,0-2.426.061-3.632-.014a3.937,3.937,0,0,1-3.817-3.668,79.21,79.21,0,0,1-.007-7.933,4.042,4.042,0,0,1,4.041-3.762q3.564-.095,7.133,0a4.193,4.193,0,0,1,4.166,4.111c.084,2.375.082,4.757,0,7.132a4.134,4.134,0,0,1-4.117,4.134c-1.253.063-2.512.011-3.768.011v-.008m-3.4-4.158h7.167v-7.09h-7.167Z" fill="#12263f"/>
        <path id="Trazado_114227" data-name="Trazado 114227" d="M158.02,89.421c0,1.256.062,2.516-.014,3.767a4,4,0,0,1-3.812,3.826c-2.553.1-5.116.1-7.669,0a4.088,4.088,0,0,1-3.88-4.072q-.092-3.565,0-7.134a4.2,4.2,0,0,1,4.125-4.148q3.564-.1,7.133,0a4.17,4.17,0,0,1,4.126,4.125c.052,1.209.009,2.422.009,3.634h-.017m-4.093-3.6h-7.165v7.094h7.165Z" fill="#12263f"/>
        <path id="Trazado_114228" data-name="Trazado 114228" d="M121.358,89.432c0,1.167.031,2.335-.008,3.5a4.1,4.1,0,0,1-3.995,4.1c-2.464.084-4.937.083-7.4,0a4.052,4.052,0,0,1-3.978-4.1q-.073-3.565,0-7.134a4.159,4.159,0,0,1,4.112-4.136q3.564-.095,7.134,0a4.21,4.21,0,0,1,4.133,4.269c.027,1.166,0,2.334,0,3.5m-4.121-3.65h-7.128V92.9h7.128Z" fill="#12263f"/>
        <path id="Trazado_114229" data-name="Trazado 114229" d="M61.529,115.385a2.03,2.03,0,0,1-2.746,1.958,7.494,7.494,0,0,0-2.191-.508c-.465,0-.929.48-1.393.745.3.4.522.935.92,1.179a16.8,16.8,0,0,0,2.211.963,5.2,5.2,0,0,1,3.514,4.658c.153,2.419-.552,4.416-2.868,5.6a1.584,1.584,0,0,0-.636.879,2.049,2.049,0,0,1-1.944,1.585A2.111,2.111,0,0,1,54.339,131a3.693,3.693,0,0,0-.974-1.063,14.943,14.943,0,0,1-2.276-1.979,1.836,1.836,0,0,1,.512-2.627,1.8,1.8,0,0,1,2.535.208,3.517,3.517,0,0,0,1.837.939,2.174,2.174,0,0,0,1.723-.834,1.426,1.426,0,0,0-.752-2.026c-.929-.438-1.9-.783-2.829-1.228a4.765,4.765,0,0,1-2.731-6.108,4.45,4.45,0,0,1,1.066-1.827,7.236,7.236,0,0,0,2.29-2.731c.529-1.434,2.85-1.19,3.4.316a1.937,1.937,0,0,0,1.456,1.294,2.474,2.474,0,0,1,1.936,2.048" fill="#12263f"/>
      </g>
    </g>
  </g>
</svg>
