<svg id="img3" xmlns="http://www.w3.org/2000/svg" xmlns:xlink="http://www.w3.org/1999/xlink" width="158.992" height="165.966" viewBox="0 0 158.992 165.966">
  <defs>
    <clipPath id="clip-path">
      <rect id="Rectángulo_35172" data-name="Rectángulo 35172" width="158.992" height="165.966" fill="none"/>
    </clipPath>
  </defs>
  <g id="Grupo_142798" data-name="Grupo 142798" clip-path="url(#clip-path)">
    <path id="Trazado_114928" data-name="Trazado 114928" d="M66.888,166.973c-.791-.044-1.582-.125-2.373-.125q-26.948-.011-53.9-.007c-6.826,0-10.606-3.74-10.606-10.5Q.009,108.95,0,61.558c0-3.9,1.3-7.032,4.734-9.1a11.259,11.259,0,0,1,6.015-1.265q12.924-.029,25.847-.026,0,5.465-.005,10.93c-7.882-.007-15.765.044-23.646-.066-1.735-.025-2.068.514-2.065,2.13q.074,39.324-.01,78.648c0,1.846.434,2.309,2.295,2.307q66.359-.086,132.718-.045a5.985,5.985,0,0,1,.733,0c1.064.131,1.529-.218,1.5-1.4-.089-3.114-.061-6.23-.08-9.346v-3.691q-.005-2.738-.01-5.476.01-1.845.019-3.69,0-2.558,0-5.116,0-1.845-.008-3.689,0-2.739,0-5.477l0-3.69q-.008-2.738-.016-5.476,0-1.665,0-3.33c.022-10.5.026-21,.088-31.5.009-1.472-.944-1.12-1.72-1.12q-16.206-.014-32.412,0a42.943,42.943,0,0,1,0-10.879c11.671-.005,23.342-.034,35.013-.007,6.065.014,9.987,3.947,9.99,10q.021,47.758,0,95.515c0,6.262-3.911,10.125-10.238,10.13q-27.13.019-54.26.01c-.791,0-1.582.081-2.372.125H88.565q-9.064-.32-18.128,0H66.888m16.248-11a3.635,3.635,0,1,0-3.656,3.614,3.873,3.873,0,0,0,3.656-3.614" transform="translate(0 -26.087)" fill="#777e8d"/>
    <path id="Trazado_114929" data-name="Trazado 114929" d="M160.825,25.118a42.943,42.943,0,0,0,0,10.879q-.01,26.665-.021,53.329c0,2.759,0,2.757-2.843,2.76L141.1,92.1l-46.369-.02c-2.833,0-2.833,0-2.834-2.765L91.875,12.15c.006-3.419.046-6.838,0-10.256C91.857.616,92.2.006,93.621.01Q119.9.083,146.179.082c0,4.208.032,8.416-.04,12.623-.022,1.279.381,1.685,1.662,1.664,4.207-.067,8.415-.022,12.623-.021.675.654.348,1.489.36,2.238.048,2.843.032,5.687.041,8.531m-42.59,16.364c-5.621,0-11.242.025-16.863-.02-1.182-.009-1.906.425-2.095,1.553-.211,1.257.735,1.7,1.686,2.031a3.339,3.339,0,0,0,1.086.095q16.222.007,32.443.007c1.342,0,2.66-.332,2.668-1.84.008-1.477-1.194-1.862-2.613-1.848-5.437.054-10.876.022-16.313.023m.046-21.643c-5.621,0-11.243.028-16.863-.02-1.375-.012-2.217.567-2.135,1.868.089,1.431,1.3,1.806,2.539,1.808q16.4.023,32.81.01c1.284,0,2.514-.4,2.532-1.793.02-1.477-1.135-1.909-2.569-1.895-5.437.053-10.876.022-16.313.022m-.226,10.655c5.56,0,11.12-.029,16.679.021,1.39.012,2.413-.5,2.435-1.851.022-1.3-1.087-1.822-2.311-1.823q-16.588-.016-33.177.013c-1.217,0-2.436.446-2.405,1.93s1.136,1.744,2.465,1.732c5.437-.05,10.875-.021,16.313-.021m0,21.643c5.621,0,11.242-.023,16.863.016,1.351.009,2.222-.621,2.252-1.851.029-1.207-.99-1.751-2.136-1.813-1.036-.057-2.077-.017-3.115-.017q-14.939,0-29.877.005c-1.361,0-2.759.263-2.759,1.951,0,1.637,1.3,1.736,2.643,1.726,5.376-.041,10.753-.017,16.13-.018m.248,10.986c-5.494,0-10.988.012-16.482-.009-1.276-.005-2.5.22-2.539,1.706-.045,1.586,1.267,1.949,2.562,1.952q16.39.032,32.78.014c1.285,0,2.513-.4,2.537-1.784.025-1.475-1.126-1.913-2.56-1.9-5.432.052-10.865.021-16.3.021m-.1-50.607c-5.435,0-10.869.019-16.3-.013-1.387-.008-2.6.374-2.6,1.872,0,1.372,1.145,1.818,2.476,1.816,10.93-.019,21.861-.005,32.791-.019,1.211,0,2.4-.15,2.424-1.793.025-1.745-1.138-1.878-2.483-1.873-5.435.023-10.869.009-16.3.009m.267,21.638c-5.5,0-10.992.022-16.487-.015-1.371-.009-2.654.317-2.679,1.794-.028,1.623,1.328,1.9,2.752,1.9,10.686-.023,21.372-.008,32.059-.018,1.35,0,2.88.129,2.865-1.894-.015-1.917-1.447-1.771-2.755-1.77q-7.877.007-15.755,0m-.28,25.305c5.557,0,11.114.013,16.67-.008,1.784-.007,2.771-1.386,1.966-2.727-.538-.895-1.489-.935-2.432-.934q-16.212.01-32.424-.01c-1.372,0-2.652.327-2.666,1.808-.016,1.625,1.344,1.893,2.766,1.885,5.374-.033,10.747-.014,16.121-.014m25.315,23.471c2.5,0,4.995-.02,7.491.008,1.341.015,2.414-.5,2.4-1.88-.013-1.254-1.024-1.8-2.3-1.8-5.055.016-10.111-.007-15.166.018-1.16.006-2.231.259-2.254,1.773-.024,1.624,1.1,1.86,2.338,1.872,2.5.025,4.994.007,7.491.008m-.068-7.326c2.75,0,5.5-.022,8.251.012a1.64,1.64,0,0,0,1.7-1.365c.293-.932-.237-1.5-.975-1.941a3.627,3.627,0,0,0-1.951-.371c-4.584.008-9.168,0-13.751.01a4.754,4.754,0,0,0-1.444.149c-1,.328-1.766.93-1.562,2.138.191,1.133,1.015,1.387,2.037,1.379,2.567-.021,5.134-.007,7.7-.01" transform="translate(-46.845 -0.005)" fill="#cfdbe6"/>
    <path id="Trazado_114930" data-name="Trazado 114930" d="M83.039,24.747l.021,77.168c0,2.764,0,2.764,2.834,2.765l46.369.02c-.012,2.2-.1,4.4-.01,6.6.054,1.379-.282,1.9-1.8,1.9q-27.042-.08-54.083,0c-1.509,0-1.811-.493-1.808-1.882q.065-31.353.041-62.706,0-5.465.006-10.93c-.007-3.725.066-7.452-.058-11.173-.051-1.546.538-1.84,1.9-1.783,2.194.093,4.4.025,6.593.025" transform="translate(-38.009 -12.602)" fill="#a0b4c4"/>
    <path id="Trazado_114931" data-name="Trazado 114931" d="M137.349,316.509q8.7.015,17.4.033c3.605.011,6.031,2.223,6,5.451-.029,3.171-2.368,5.335-5.933,5.338q-30.134.029-60.269,0c-3.56,0-5.909-2.176-5.932-5.339-.024-3.232,2.4-5.439,6-5.45q8.7-.025,17.4-.032l3.632-.011h18.06l3.634.009" transform="translate(-45.186 -161.379)" fill="#3f4751"/>
    <path id="Trazado_114932" data-name="Trazado 114932" d="M291.992.026c4.787-.4,8.159,3.733,8.26,7.889a8.449,8.449,0,0,1-8.127,8.253A7.9,7.9,0,0,1,284.131,8,7.649,7.649,0,0,1,291.992.026" transform="translate(-144.875 0)" fill="#ffb500"/>
    <path id="Trazado_114933" data-name="Trazado 114933" d="M32.884,309.1c.194,3.956-2.924,7-7.115,7.237-3.6.206-7.277-3.577-7.179-7.293.122-4.592,3.108-7.11,7.311-7.239a6.9,6.9,0,0,1,6.983,7.3" transform="translate(-9.478 -153.886)" fill="#ffb500"/>
    <path id="Trazado_114934" data-name="Trazado 114934" d="M216.877,14.423c-4.208,0-8.416-.047-12.623.02-1.281.021-1.684-.386-1.662-1.664.072-4.207.035-8.416.04-12.623,4.925,4.58,9.693,9.316,14.245,14.268" transform="translate(-103.299 -0.079)" fill="#a1b6c5"/>
    <path id="Trazado_114935" data-name="Trazado 114935" d="M140,301.689l-3.632.011q.025-7.122.05-14.245h3.549q.016,7.118.033,14.235" transform="translate(-69.535 -146.57)" fill="#33383f"/>
    <path id="Trazado_114936" data-name="Trazado 114936" d="M184.266,301.7l-3.634-.009q.018-7.118.035-14.236h3.549l.05,14.244" transform="translate(-92.102 -146.57)" fill="#33383f"/>
    <path id="Trazado_114937" data-name="Trazado 114937" d="M72.885,303.5a2.661,2.661,0,0,1-2.721-2.615,2.743,2.743,0,0,1,2.747-2.809,2.843,2.843,0,0,1,2.671,2.743,2.753,2.753,0,0,1-2.7,2.681" transform="translate(-35.775 -151.986)" fill="#3c6d9d"/>
    <path id="Trazado_114938" data-name="Trazado 114938" d="M5.494,31.889a2.732,2.732,0,0,1-2.583,2.78A2.815,2.815,0,0,1,.092,31.9a2.729,2.729,0,0,1,2.715-2.648,2.639,2.639,0,0,1,2.687,2.635" transform="translate(-0.047 -14.916)" fill="#3c6d9d"/>
    <path id="Trazado_114939" data-name="Trazado 114939" d="M253.245,298.08a2.807,2.807,0,0,1,2.771,2.628,2.719,2.719,0,1,1-5.436.112,2.819,2.819,0,0,1,2.665-2.74" transform="translate(-127.768 -151.987)" fill="#3c6d9d"/>
    <path id="Trazado_114940" data-name="Trazado 114940" d="M315.013,323.046a2.864,2.864,0,0,1-2.754,2.661,2.74,2.74,0,0,1-2.663-2.882,2.642,2.642,0,0,1,2.8-2.52,2.73,2.73,0,0,1,2.622,2.741" transform="translate(-157.857 -163.319)" fill="#3c6d9d"/>
    <path id="Trazado_114941" data-name="Trazado 114941" d="M49.694,6.18A2.591,2.591,0,0,1,47,8.781,2.682,2.682,0,0,1,44.313,6.14,2.8,2.8,0,0,1,47.144,3.4a2.687,2.687,0,0,1,2.55,2.781" transform="translate(-22.595 -1.732)" fill="#3c6d9d"/>
    <path id="Trazado_114942" data-name="Trazado 114942" d="M248.614,6.047a2.618,2.618,0,0,1-2.573,2.732,2.731,2.731,0,0,1-2.838-2.5,2.824,2.824,0,0,1,2.7-2.878,2.726,2.726,0,0,1,2.707,2.652" transform="translate(-124.004 -1.732)" fill="#3c6d9d"/>
    <path id="Trazado_114943" data-name="Trazado 114943" d="M47.9,73.4q-.007,31.353-.041,62.706c0,1.389.3,1.886,1.808,1.882q27.042-.08,54.084,0c1.52,0,1.857-.519,1.8-1.9-.087-2.2,0-4.4.01-6.6l16.859-.017c2.842,0,2.841,0,2.843-2.76q.01-26.664.02-53.328,16.206,0,32.412,0c.776,0,1.729-.352,1.72,1.12-.062,10.5-.065,21-.088,31.5-6.392,0-12.783.014-19.175,0-1.264,0-2.433.121-2.375,1.754.055,1.517,1.2,1.576,2.373,1.574q9.588-.017,19.176,0,.007,2.738.016,5.476c-6.274,0-12.549.026-18.823,0-1.444-.005-2.715.35-2.695,1.964s1.382,1.725,2.691,1.722c6.274-.014,12.549,0,18.823,0q0,2.739,0,5.477-9.612.005-19.223.006c-.874,0-1.692-.035-2.131.984-.63,1.461.362,2.672,2.323,2.678,6.346.021,12.693.016,19.039.021q0,2.558,0,5.115-9.246.008-18.492.019c-2.035,0-3.183.743-3.089,2.041.14,1.933,1.639,1.614,2.887,1.617q9.337.021,18.675.013.005,2.738.01,5.476l-13.561.012c-2.016,0-4.033-.04-6.047.022a1.8,1.8,0,0,0-1.918,1.812,1.858,1.858,0,0,0,1.918,1.822c.423.042.855.011,1.282.011l18.326.012c.019,3.116-.009,6.232.08,9.346.034,1.178-.431,1.527-1.5,1.4a6.088,6.088,0,0,0-.733,0q-66.359,0-132.718.045c-1.86,0-2.3-.462-2.295-2.307q.1-39.323.01-78.648c0-1.616.329-2.155,2.064-2.13,7.881.11,15.764.059,23.646.066" transform="translate(-11.308 -37.389)" fill="#fefefe"/>
    <path id="Trazado_114944" data-name="Trazado 114944" d="M161.844,287.287q-.018,7.118-.035,14.236h-18.06q-.016-7.118-.033-14.235,9.064-.32,18.128,0" transform="translate(-73.279 -146.403)" fill="#fefefe"/>
    <path id="Trazado_114945" data-name="Trazado 114945" d="M279.626,180.346c-6.346,0-12.693,0-19.04-.021-1.96-.006-2.952-1.217-2.323-2.678.44-1.018,1.258-.984,2.132-.984q9.612.007,19.223-.006,0,1.845.008,3.689" transform="translate(-131.59 -90.075)" fill="#e6e7e8"/>
    <path id="Trazado_114946" data-name="Trazado 114946" d="M279.576,198.311q-9.337,0-18.675-.013c-1.247,0-2.746.316-2.887-1.618-.094-1.3,1.053-2.036,3.089-2.04q9.246-.02,18.492-.019-.01,1.845-.019,3.69" transform="translate(-131.556 -99.235)" fill="#e6e7e8"/>
    <path id="Trazado_114947" data-name="Trazado 114947" d="M279.65,161.641c-6.274,0-12.549-.018-18.823,0-1.308,0-2.67-.117-2.69-1.722s1.25-1.97,2.695-1.964c6.274.025,12.548,0,18.823,0q0,1.845,0,3.69" transform="translate(-131.621 -80.537)" fill="#e5e6e7"/>
    <path id="Trazado_114948" data-name="Trazado 114948" d="M279.639,217.013,261.313,217c-.428,0-.859.031-1.282-.011a1.857,1.857,0,0,1-1.918-1.822,1.8,1.8,0,0,1,1.917-1.812c2.014-.061,4.032-.02,6.047-.022l13.561-.012v3.691" transform="translate(-131.609 -108.771)" fill="#e5e6e7"/>
    <path id="Trazado_114949" data-name="Trazado 114949" d="M279.589,143.315q-9.587,0-19.175,0c-1.17,0-2.318-.057-2.373-1.574-.059-1.633,1.111-1.757,2.375-1.754,6.392.014,12.784,0,19.175,0q0,1.665,0,3.33" transform="translate(-131.571 -71.377)" fill="#e5e6e7"/>
    <path id="Trazado_114950" data-name="Trazado 114950" d="M162.062,261.217a3.635,3.635,0,1,1-3.615-3.655,3.872,3.872,0,0,1,3.615,3.655" transform="translate(-78.927 -131.328)" fill="#343941"/>
    <path id="Trazado_114951" data-name="Trazado 114951" d="M125.905,84.6c5.438,0,10.876.032,16.313-.023,1.419-.014,2.621.372,2.613,1.848-.008,1.508-1.327,1.841-2.668,1.84q-16.221-.01-32.443-.007a3.371,3.371,0,0,1-1.087-.095c-.951-.334-1.9-.773-1.685-2.031.189-1.128.913-1.562,2.095-1.553,5.621.045,11.242.021,16.863.02" transform="translate(-54.516 -43.127)" fill="#fcfdfd"/>
    <path id="Trazado_114952" data-name="Trazado 114952" d="M125.98,40.444c5.438,0,10.876.031,16.313-.022,1.435-.014,2.589.418,2.569,1.894-.019,1.39-1.248,1.794-2.532,1.793q-16.4,0-32.81-.01c-1.239,0-2.449-.376-2.539-1.808-.081-1.3.76-1.88,2.136-1.868,5.621.048,11.242.02,16.863.02" transform="translate(-54.546 -20.611)" fill="#fcfcfd"/>
    <path id="Trazado_114953" data-name="Trazado 114953" d="M125.752,58.4c-5.438,0-10.876-.029-16.313.021-1.33.012-2.434-.24-2.465-1.732s1.188-1.926,2.405-1.93q16.588-.049,33.177-.013c1.224,0,2.332.524,2.311,1.823-.022,1.352-1.045,1.863-2.435,1.851-5.56-.05-11.12-.021-16.68-.021" transform="translate(-54.544 -27.908)" fill="#fcfdfd"/>
    <path id="Trazado_114954" data-name="Trazado 114954" d="M125.765,102.54c-5.377,0-10.754-.024-16.13.017-1.338.01-2.643-.088-2.642-1.726,0-1.688,1.4-1.95,2.759-1.951q14.939-.016,29.877-.006c1.039,0,2.08-.04,3.115.017,1.146.062,2.165.606,2.136,1.813-.03,1.23-.9,1.86-2.252,1.851-5.621-.039-11.242-.017-16.863-.016" transform="translate(-54.555 -50.408)" fill="#fcfcfd"/>
    <path id="Trazado_114955" data-name="Trazado 114955" d="M126.013,128.76c5.433,0,10.866.031,16.3-.021,1.435-.014,2.586.425,2.56,1.9-.024,1.387-1.253,1.785-2.537,1.784q-16.39-.005-32.78-.014c-1.294,0-2.607-.366-2.562-1.952.043-1.486,1.263-1.71,2.539-1.706,5.494.022,10.988.009,16.481.009" transform="translate(-54.553 -65.642)" fill="#fcfdfd"/>
    <path id="Trazado_114956" data-name="Trazado 114956" d="M125.929,25.513c5.435,0,10.869.013,16.3-.009,1.344-.005,2.508.127,2.483,1.873-.024,1.643-1.213,1.792-2.424,1.793-10.93.013-21.861,0-32.791.019-1.331,0-2.474-.444-2.476-1.816,0-1.5,1.214-1.881,2.6-1.872,5.435.031,10.869.013,16.3.013" transform="translate(-54.571 -13.002)" fill="#fdfefe"/>
    <path id="Trazado_114957" data-name="Trazado 114957" d="M126.2,69.66q7.877,0,15.755,0c1.308,0,2.74-.148,2.754,1.77.015,2.023-1.514,1.893-2.865,1.894-10.686.01-21.372,0-32.059.018-1.424,0-2.779-.277-2.752-1.9.025-1.477,1.309-1.8,2.679-1.794,5.5.037,10.992.015,16.487.015" transform="translate(-54.575 -35.511)" fill="#fdfefe"/>
    <path id="Trazado_114958" data-name="Trazado 114958" d="M125.921,117.481c-5.374,0-10.747-.02-16.121.013-1.421.009-2.782-.26-2.766-1.884.015-1.48,1.294-1.811,2.666-1.808q16.213.037,32.425.01c.942,0,1.894.039,2.432.934.805,1.341-.182,2.72-1.966,2.727-5.556.021-11.113.008-16.67.008" transform="translate(-54.575 -58.026)" fill="#fdfefe"/>
    <path id="Trazado_114959" data-name="Trazado 114959" d="M187,165.379c-2.5,0-4.994.018-7.491-.008-1.239-.012-2.361-.248-2.337-1.872.023-1.514,1.093-1.767,2.254-1.773,5.055-.025,10.11,0,15.165-.018,1.277,0,2.288.545,2.3,1.8.015,1.379-1.059,1.895-2.4,1.88-2.5-.028-4.994-.008-7.491-.008" transform="translate(-90.335 -82.454)" fill="#fdfefe"/>
    <path id="Trazado_114960" data-name="Trazado 114960" d="M186.917,150.437c-2.567,0-5.134-.013-7.7.008-1.022.008-1.846-.246-2.037-1.379-.2-1.208.559-1.81,1.562-2.138a4.754,4.754,0,0,1,1.444-.149c4.584-.01,9.167,0,13.751-.01a3.627,3.627,0,0,1,1.951.371c.739.441,1.268,1.01.975,1.941a1.64,1.64,0,0,1-1.7,1.365c-2.75-.034-5.5-.012-8.251-.01" transform="translate(-90.325 -74.836)" fill="#fcfcfd"/>
  </g>
</svg>
