<svg xmlns="http://www.w3.org/2000/svg" xmlns:xlink="http://www.w3.org/1999/xlink" width="171.61" height="178.611" viewBox="0 0 171.61 178.611">
  <defs>
    <clipPath id="clip-path">
      <rect id="Rect치ngulo_37315" data-name="Rect치ngulo 37315" width="171.61" height="171.611" fill="none"/>
    </clipPath>
    <clipPath id="clip-path-2">
      <path id="Trazado_114962" data-name="Trazado 114962" d="M85.958,1.5a84.462,84.462,0,1,0,84.465,85.127c0-.223,0-.445,0-.669A84.467,84.467,0,0,0,85.962,1.5h0" transform="translate(-1.5 -1.5)" fill="none"/>
    </clipPath>
    <radialGradient id="radial-gradient" cx="0.077" cy="0.019" r="1.463" gradientTransform="translate(0 0)" gradientUnits="objectBoundingBox">
      <stop offset="0" stop-color="#f6f6f7"/>
      <stop offset="0.477" stop-color="#f9f9fa"/>
      <stop offset="0.715" stop-color="#fff"/>
      <stop offset="1" stop-color="#fff"/>
    </radialGradient>
  </defs>
  <g id="img5" transform="translate(-1137.39 -4010)">
    <g id="Grupo_142808" data-name="Grupo 142808" transform="translate(1137.39 4010)">
      <g id="Grupo_142803" data-name="Grupo 142803">
        <g id="Grupo_142802" data-name="Grupo 142802" clip-path="url(#clip-path)">
          <path id="Trazado_114961" data-name="Trazado 114961" d="M170.434,85.963A84.465,84.465,0,1,1,85.965,1.5h0a84.465,84.465,0,0,1,84.465,84.462" transform="translate(-0.157 -0.157)" fill="#fff"/>
        </g>
      </g>
      <g id="Grupo_142805" data-name="Grupo 142805" transform="translate(1.343 1.343)">
        <g id="Grupo_142804" data-name="Grupo 142804" clip-path="url(#clip-path-2)">
          <rect id="Rect치ngulo_37316" data-name="Rect치ngulo 37316" width="168.925" height="169.108" transform="translate(-0.001)" fill="url(#radial-gradient)"/>
        </g>
      </g>
      <g id="Grupo_142807" data-name="Grupo 142807">
        <g id="Grupo_142806" data-name="Grupo 142806" clip-path="url(#clip-path)">
          <path id="Trazado_114963" data-name="Trazado 114963" d="M170.423,85.959a84.131,84.131,0,1,0,0,.667Q170.425,86.293,170.423,85.959Z" transform="translate(-0.157 -0.157)" fill="none" stroke="#5f9025" stroke-miterlimit="10" stroke-width="3"/>
          <path id="Trazado_114964" data-name="Trazado 114964" d="M163.435,57.468c18.677,41.372-2.08,86.24-44.1,104.63-35.844,15.686-77.217,8.191-100.342-23,25.667,37.391,77.261,47.217,115.238,21.946,34.274-22.807,47.362-66.979,29.2-103.574" transform="translate(-1.983 -5.998)" fill="#eceef0"/>
          <path id="Trazado_114965" data-name="Trazado 114965" d="M53.348,143.723H45.295a2.58,2.58,0,0,1-1-2.39q.023-40.2.015-80.391a5.016,5.016,0,0,1,.1-1.154,1.547,1.547,0,0,1,3.04.176,11.14,11.14,0,0,1,.039,1.374q0,34.159,0,68.317v1.379h3.634V38.482H47.482v1.189c0,4.237.006,8.473,0,12.711,0,1.272-.58,1.952-1.583,1.943-.965-.008-1.577-.674-1.582-1.858q-.024-7.679,0-15.358c.005-1.3.606-1.847,1.916-1.856,1.942-.014,3.884-.005,5.826,0,1.834,0,2.305.474,2.306,2.329q0,8.473,0,16.947v1.2h3.65V54.492q0-8.527,0-17.054c0-1.7.5-2.187,2.217-2.187q30.191,0,60.383,0c1.761,0,2.23.482,2.231,2.282q0,8.527,0,17.053V55.74h3.65V54.432q0-8.421,0-16.841c0-1.863.468-2.338,2.292-2.34q2.7,0,5.4,0c1.911,0,2.362.451,2.362,2.377q0,23.408,0,46.816a4.674,4.674,0,0,1-.1,1.154,1.43,1.43,0,0,1-1.657,1.151,1.414,1.414,0,0,1-1.383-1.351,10.694,10.694,0,0,1-.035-1.269q0-22.137,0-44.273V38.483h-3.622v92.57h3.622V129.73q0-18.165,0-36.329c0-1.609.534-2.392,1.6-2.369s1.574.809,1.574,2.425q0,23.937.013,47.875a2.587,2.587,0,0,1-1,2.391H127.51a2.372,2.372,0,0,1-1.027-2.27c.054-.844.012-1.694.012-2.541v-4.6h-1.4q-6.2,0-12.392,0a5.225,5.225,0,0,1-1.26-.1,1.413,1.413,0,0,1-1.128-1.57,1.394,1.394,0,0,1,1.18-1.425,6.121,6.121,0,0,1,1.264-.078q6.2-.008,12.392,0h1.287v-3.617h-72v3.617h1.433q23.777,0,47.554,0a7.346,7.346,0,0,1,1.37.073,1.3,1.3,0,0,1,1.18,1.5,2.676,2.676,0,0,1-1.106,1.466c-.347.241-.955.133-1.446.133q-23.83.007-47.66,0h-1.4c0,2.461-.03,4.75.013,7.039a2.492,2.492,0,0,1-1.029,2.376m73.108-77.834H54.429V89.984h5.289V88.771q0-8.473,0-16.945c0-1.863.45-2.322,2.3-2.323q9.585-.005,19.173,0c1.809,0,2.257.45,2.258,2.24q0,8.525,0,17.051v1.168H97.41V88.713q0-8.473,0-16.945c0-1.806.443-2.263,2.232-2.265q9.587-.007,19.173,0c1.864,0,2.322.459,2.323,2.3q0,8.525,0,17.052c0,.373.032.745.049,1.113h5.264ZM58.013,124.2v-1.188q0-8.473,0-16.945c0-1.867.464-2.347,2.287-2.347q30.136,0,60.273,0c1.78,0,2.271.491,2.272,2.256q0,8.525,0,17.051V124.2h3.582V100.158H54.42V124.2Zm68.436-65.162H54.43v3.506h72.019ZM54.406,96.833H126.43V93.316H54.406Zm22.217-24.1c0,1.633.013,3.211,0,4.788-.014,1.424-.583,1.986-2,1.995-1.942.011-3.883.005-5.825,0-1.712,0-2.213-.5-2.223-2.194-.009-1.507,0-3.015,0-4.583H62.983V89.985h17.2V72.736Zm24.054,0V89.979H117.9V72.741h-3.617c0,1.636.016,3.213-.005,4.791-.019,1.432-.579,1.979-2,1.986-1.942.011-3.883.005-5.824,0-1.7,0-2.212-.508-2.218-2.2-.005-1.508,0-3.016,0-4.579ZM74.911,38.465c0,1.686.017,3.268-.005,4.851-.019,1.379-.565,1.927-1.931,1.94-1.976.017-3.951.01-5.926,0-1.716-.005-2.19-.484-2.2-2.209-.007-1.506,0-3.012,0-4.535h-3.6V55.735H78.491V38.465ZM119.59,55.758V38.5h-3.584c0,1.656.019,3.24-.005,4.824-.021,1.381-.565,1.919-1.939,1.931-2.01.017-4.02.013-6.031,0-1.567-.008-2.072-.522-2.082-2.11-.011-1.54,0-3.08,0-4.665h-3.591V55.758ZM81.814,38.468V55.72H99.066v-17.2H95.46c0,1.636.014,3.188,0,4.738-.017,1.457-.544,1.992-1.976,2-1.941.015-3.881.007-5.821,0-1.795,0-2.255-.463-2.261-2.252-.005-1.5,0-3,0-4.539ZM78.5,124.216V106.965H74.911c0,1.61.01,3.155,0,4.7s-.549,2.1-2.114,2.111c-1.764.016-3.528,0-5.292,0-2.28,0-2.653-.371-2.654-2.635v-4.158H61.257v17.23Zm3.3-.038H99.055V106.966h-3.6c0,1.683.021,3.3-.006,4.914-.021,1.217-.55,1.848-1.692,1.875q-3.332.077-6.667,0c-1.108-.025-1.643-.637-1.685-1.772-.037-.986-.01-1.975-.011-2.963,0-.686,0-1.372,0-2.068H81.8Zm20.552,0H119.6V106.967h-3.6c0,1.685.021,3.3-.007,4.917-.021,1.22-.548,1.844-1.693,1.871q-3.332.077-6.667,0c-1.1-.025-1.643-.644-1.684-1.773-.035-.987-.009-1.975-.01-2.963v-2.066h-3.592ZM47.541,140.463h3.565v-6.077H47.541Zm82.175.02h3.6V134.41h-3.6ZM68.1,110.5h3.544v-3.563H68.1Zm44.723-3.51h-3.616V110.6c1.061,0,2.043.031,3.019-.024a.8.8,0,0,0,.57-.524c.058-1.008.027-2.021.027-3.061m-20.59-.031H88.668v3.56h3.565ZM71.678,38.51H68.113v3.5h3.565ZM88.7,42.016H92.22V38.48H88.7Zm20.505-.006h3.553V38.474H109.21Zm-39.4,34.249h3.549V72.753H69.814Zm37.662.013h3.561V72.741h-3.561Z" transform="translate(-4.623 -3.679)" fill="#12263f"/>
        </g>
      </g>
    </g>
    <g id="Grupo_142809" data-name="Grupo 142809" transform="translate(1244.5 4147.705)">
      <path id="Trazado_113904" data-name="Trazado 113904" d="M309.419,201.1c-8.869,6.141-15.468,15.175-21.286,23.147a2.193,2.193,0,0,0-.3,2.034,2.126,2.126,0,0,0,1.5,1.385,44.14,44.14,0,0,0,31.232-3.646A44.631,44.631,0,0,0,341.4,200.314a2.2,2.2,0,0,0,.141-.844,2.234,2.234,0,0,0,.209-.38,2.2,2.2,0,0,0-.048-1.873,2.16,2.16,0,0,0-1.083-1.02C331.429,192.258,319.473,194.14,309.419,201.1Z" transform="translate(-287.289 -191.596)" fill="#9fbe37"/>
      <path id="Trazado_113905" data-name="Trazado 113905" d="M295.094,214.6a.741.741,0,0,0,.613.85l.084.015c2.578.419,5.166.766,7.754,1.1,1.361.182,2.728.338,4.1.491q-2.97,1.584-5.95,3.159-6.856,3.6-13.769,7.107l-.006,0a.642.642,0,0,0,.541,1.164c4.789-2.013,9.48-4.215,14.137-6.494,2.148-1.047,4.278-2.136,6.4-3.237-.23.476-.461.951-.7,1.427l-2.109,4.343c-1.37,2.914-2.734,5.83-4,8.8a.644.644,0,0,0,1.149.577c1.624-2.785,3.15-5.621,4.669-8.459l2.226-4.284c.712-1.4,1.451-2.776,2.139-4.182,1.343-.715,2.692-1.424,4.032-2.145,1.591-.879,3.168-1.789,4.744-2.7l-.82,2.917c-.464,1.69-.96,3.374-1.4,5.073-.9,3.392-1.786,6.787-2.57,10.212a.642.642,0,0,0,1.232.356c1.167-3.314,2.229-6.659,3.281-10.006.539-1.669,1.017-3.356,1.529-5.034l1.5-5.043.015-.075q2.979-1.75,5.926-3.56c.843-.532,1.681-1.074,2.519-1.615-.344,2.354-.7,4.705-.981,7.072-.383,2.952-.742,5.911-1.026,8.878a.643.643,0,0,0,1.268.2c.622-2.917,1.173-5.845,1.7-8.777.556-2.926.987-5.872,1.487-8.806a1.6,1.6,0,0,0,0-.171c2.68-1.789,11.406-7.239,13.982-9.18a.7.7,0,0,0-.8-1.149l-.009.006c-2.89,1.864-11.881,7.293-14.813,9.091-3.114-.622-6.24-1.179-9.36-1.756-3.386-.574-6.769-1.149-10.179-1.6a.7.7,0,0,0-.266,1.376c3.332.847,6.689,1.573,10.045,2.3,2.315.467,4.631.936,6.949,1.391-.529.32-1.056.652-1.588.969q-3.32,1.952-6.659,3.871c-2.821-.377-5.642-.781-8.471-1.107-3.12-.377-6.246-.733-9.381-1a.7.7,0,0,0-.2,1.388c3.087.613,6.189,1.137,9.291,1.642,1.855.311,3.715.586,5.576.858-1.2.673-2.39,1.358-3.6,2.016-1.412.79-2.839,1.555-4.263,2.327-2.435-.23-4.864-.494-7.3-.682q-3.446-.278-6.9-.47a.668.668,0,0,0-.3-.072l-.739.006A.742.742,0,0,0,295.094,214.6Z" transform="translate(-287.565 -193.309)" fill="#507533"/>
    </g>
  </g>
</svg>
