<svg xmlns="http://www.w3.org/2000/svg" xmlns:xlink="http://www.w3.org/1999/xlink" width="171.61" height="178.611" viewBox="0 0 171.61 178.611">
  <defs>
    <clipPath id="clip-path">
      <rect id="Rectángulo_37318" data-name="Rectángulo 37318" width="171.61" height="171.611" fill="none"/>
    </clipPath>
    <clipPath id="clip-path-2">
      <path id="Trazado_114967" data-name="Trazado 114967" d="M85.958,1.5a84.462,84.462,0,1,0,84.465,85.127c0-.223,0-.445,0-.669A84.467,84.467,0,0,0,85.962,1.5h0" transform="translate(-1.5 -1.5)" fill="none"/>
    </clipPath>
    <radialGradient id="radial-gradient" cx="0.077" cy="0.019" r="1.463" gradientTransform="translate(0 0)" gradientUnits="objectBoundingBox">
      <stop offset="0" stop-color="#f6f6f7"/>
      <stop offset="0.477" stop-color="#f9f9fa"/>
      <stop offset="0.715" stop-color="#fff"/>
      <stop offset="1" stop-color="#fff"/>
    </radialGradient>
  </defs>
  <g id="img6" transform="translate(5250.61 7690)">
    <g id="Grupo_142811" data-name="Grupo 142811" transform="translate(-5250.61 -7690)">
      <g id="Grupo_142812" data-name="Grupo 142812">
        <g id="Grupo_142811-2" data-name="Grupo 142811" clip-path="url(#clip-path)">
          <path id="Trazado_114966" data-name="Trazado 114966" d="M170.433,85.963A84.465,84.465,0,1,1,85.965,1.5h0a84.465,84.465,0,0,1,84.465,84.462" transform="translate(-0.157 -0.157)" fill="#fff"/>
        </g>
      </g>
      <g id="Grupo_142814" data-name="Grupo 142814" transform="translate(1.343 1.343)">
        <g id="Grupo_142813" data-name="Grupo 142813" clip-path="url(#clip-path-2)">
          <rect id="Rectángulo_37319" data-name="Rectángulo 37319" width="168.925" height="169.108" transform="translate(-0.001)" fill="url(#radial-gradient)"/>
        </g>
      </g>
      <g id="Grupo_142816" data-name="Grupo 142816">
        <g id="Grupo_142815" data-name="Grupo 142815" clip-path="url(#clip-path)">
          <path id="Trazado_114968" data-name="Trazado 114968" d="M170.423,85.959a84.131,84.131,0,1,0,0,.667Q170.424,86.293,170.423,85.959Z" transform="translate(-0.157 -0.157)" fill="none" stroke="#5f9025" stroke-miterlimit="10" stroke-width="3"/>
          <path id="Trazado_114969" data-name="Trazado 114969" d="M163.435,57.468c18.677,41.372-2.08,86.24-44.1,104.63-35.844,15.686-77.217,8.191-100.342-23,25.667,37.391,77.261,47.217,115.238,21.946,34.274-22.807,47.362-66.979,29.2-103.574" transform="translate(-1.983 -5.998)" fill="#eceef0"/>
          <path id="Trazado_114970" data-name="Trazado 114970" d="M119.54,90.437v-3.5H75.655V83.4H119.48V79.841H58.842c-2.153,0-2.618-.473-2.619-2.661,0-1.906-.008-3.813,0-5.719.008-1.567.623-2.175,2.218-2.175q31.177-.005,62.354,0c1.737,0,2.287.594,2.287,2.441q0,33.266,0,66.533v1.349H133.56V57.066c-2.487-.606-5.032-1.232-7.58-1.849q-17.607-4.255-35.218-8.488a4.31,4.31,0,0,0-1.926-.056Q67.753,51.719,46.684,56.825c-.313.076-.622.175-1.023.288V79.789H42.182V57.94c-1.056.247-1.97.468-2.887.674a1.775,1.775,0,0,1-2.419-1.847c-.028-2.163-.016-4.326,0-6.489.006-1.325.406-1.817,1.728-2.137q15.419-3.731,30.84-7.452,9.658-2.332,19.32-4.646A3.59,3.59,0,0,1,90.367,36q25.085,6.016,50.157,12.083c1.582.382,1.913.833,1.916,2.445,0,2.016.013,4.033,0,6.049-.013,1.689-.913,2.376-2.564,2l-2.642-.605v81.672h5.13v3.482H107.341V139.7H119.5V101.009H75.651V97.471h43.833V93.935H75.633v-3.5ZM40.426,51.314v3.368c.436-.089.825-.156,1.206-.248Q65.159,48.763,88.686,43.1a4.069,4.069,0,0,1,1.82-.024q19.532,4.667,39.052,9.388l9.316,2.244V51.341c-.286-.089-.525-.177-.771-.236q-23.789-5.747-47.585-11.473a3.812,3.812,0,0,0-1.712.006q-12.276,2.927-24.538,5.91c-7.926,1.916-15.853,3.834-23.841,5.766m79.087,21.561H59.829v3.393h59.684Z" transform="translate(-3.847 -3.75)" fill="#12263f"/>
          <path id="Trazado_114971" data-name="Trazado 114971" d="M72.06,117.041H101.22c2.005,0,2.511.514,2.511,2.547q0,13.3,0,26.608c0,2.006-.517,2.516-2.545,2.516H39.394c-2.015,0-2.524-.511-2.525-2.534V91.423c0-2.027.506-2.535,2.522-2.535q15.119,0,30.237,0c1.879,0,2.431.545,2.431,2.407q0,12.205,0,24.409ZM61.5,92.449c0,2.825,0,5.534,0,8.242,0,1.659-.6,2.267-2.237,2.271q-4.617.011-9.236,0c-2.108,0-2.6-.486-2.6-2.567,0-2.628,0-5.256,0-7.923H40.469v24.513H68.475V92.449Zm0,28.166c0,2.855.01,5.633,0,8.412-.007,1.39-.645,2.076-1.978,2.083q-5.058.03-10.115,0a1.764,1.764,0,0,1-1.973-1.973c-.021-2.492,0-4.984-.009-7.477,0-.35-.031-.7-.047-1.045H40.455v24.5H68.488v-24.5Zm38.632,24.527V120.614H93.175v1.122c0,2.456.013,4.911-.006,7.366a1.769,1.769,0,0,1-1.942,2.006q-5.112.032-10.225,0a1.745,1.745,0,0,1-1.9-1.936c-.026-1.5-.007-3.006-.007-4.508v-4.021H72.115v24.5ZM57.906,92.495H51v6.9h6.9Zm-6.886,35.02h6.909v-6.9H51.02Zm38.566-6.875h-6.88v6.938h6.88Z" transform="translate(-3.848 -9.278)" fill="#12263f"/>
          <path id="Trazado_114972" data-name="Trazado 114972" d="M94.743,66.039c-1.208,0-2.417.031-3.625-.005A5.268,5.268,0,0,1,91.087,55.5c2.452-.055,4.907-.051,7.36,0a5.268,5.268,0,0,1,.031,10.532c-1.244.042-2.491.007-3.736.007m.079-7.032c-1.136,0-2.273-.021-3.408.006a1.759,1.759,0,1,0,.03,3.5q3.353.035,6.706,0a1.759,1.759,0,1,0-.03-3.5c-1.1-.024-2.2-.005-3.3,0" transform="translate(-8.975 -5.789)" fill="#12263f"/>
          <rect id="Rectángulo_37320" data-name="Rectángulo 37320" width="3.382" height="3.402" transform="translate(57.713 100.774)" fill="#12263f"/>
          <rect id="Rectángulo_37321" data-name="Rectángulo 37321" width="3.403" height="3.384" transform="translate(57.722 128.936)" fill="#12263f"/>
          <rect id="Rectángulo_37322" data-name="Rectángulo 37322" width="3.417" height="3.359" transform="translate(89.349 128.968)" fill="#12263f"/>
        </g>
      </g>
    </g>
    <g id="Grupo_142809" data-name="Grupo 142809" transform="translate(-5143.5 -7552.295)">
      <path id="Trazado_113904" data-name="Trazado 113904" d="M309.419,201.1c-8.869,6.141-15.468,15.175-21.286,23.147a2.193,2.193,0,0,0-.3,2.034,2.126,2.126,0,0,0,1.5,1.385,44.14,44.14,0,0,0,31.232-3.646A44.631,44.631,0,0,0,341.4,200.314a2.2,2.2,0,0,0,.141-.844,2.234,2.234,0,0,0,.209-.38,2.2,2.2,0,0,0-.048-1.873,2.16,2.16,0,0,0-1.083-1.02C331.429,192.258,319.473,194.14,309.419,201.1Z" transform="translate(-287.289 -191.596)" fill="#9fbe37"/>
      <path id="Trazado_113905" data-name="Trazado 113905" d="M295.094,214.6a.741.741,0,0,0,.613.85l.084.015c2.578.419,5.166.766,7.754,1.1,1.361.182,2.728.338,4.1.491q-2.97,1.584-5.95,3.159-6.856,3.6-13.769,7.107l-.006,0a.642.642,0,0,0,.541,1.164c4.789-2.013,9.48-4.215,14.137-6.494,2.148-1.047,4.278-2.136,6.4-3.237-.23.476-.461.951-.7,1.427l-2.109,4.343c-1.37,2.914-2.734,5.83-4,8.8a.644.644,0,0,0,1.149.577c1.624-2.785,3.15-5.621,4.669-8.459l2.226-4.284c.712-1.4,1.451-2.776,2.139-4.182,1.343-.715,2.692-1.424,4.032-2.145,1.591-.879,3.168-1.789,4.744-2.7l-.82,2.917c-.464,1.69-.96,3.374-1.4,5.073-.9,3.392-1.786,6.787-2.57,10.212a.642.642,0,0,0,1.232.356c1.167-3.314,2.229-6.659,3.281-10.006.539-1.669,1.017-3.356,1.529-5.034l1.5-5.043.015-.075q2.979-1.75,5.926-3.56c.843-.532,1.681-1.074,2.519-1.615-.344,2.354-.7,4.705-.981,7.072-.383,2.952-.742,5.911-1.026,8.878a.643.643,0,0,0,1.268.2c.622-2.917,1.173-5.845,1.7-8.777.556-2.926.987-5.872,1.487-8.806a1.6,1.6,0,0,0,0-.171c2.68-1.789,11.406-7.239,13.982-9.18a.7.7,0,0,0-.8-1.149l-.009.006c-2.89,1.864-11.881,7.293-14.813,9.091-3.114-.622-6.24-1.179-9.36-1.756-3.386-.574-6.769-1.149-10.179-1.6a.7.7,0,0,0-.266,1.376c3.332.847,6.689,1.573,10.045,2.3,2.315.467,4.631.936,6.949,1.391-.529.32-1.056.652-1.588.969q-3.32,1.952-6.659,3.871c-2.821-.377-5.642-.781-8.471-1.107-3.12-.377-6.246-.733-9.381-1a.7.7,0,0,0-.2,1.388c3.087.613,6.189,1.137,9.291,1.642,1.855.311,3.715.586,5.576.858-1.2.673-2.39,1.358-3.6,2.016-1.412.79-2.839,1.555-4.263,2.327-2.435-.23-4.864-.494-7.3-.682q-3.446-.278-6.9-.47a.668.668,0,0,0-.3-.072l-.739.006A.742.742,0,0,0,295.094,214.6Z" transform="translate(-287.565 -193.309)" fill="#507533"/>
    </g>
  </g>
</svg>
