<svg xmlns="http://www.w3.org/2000/svg" width="50.399" height="90.644" viewBox="0 0 50.399 90.644">
  <g id="lines" transform="translate(50.399) rotate(90)">
    <g id="Grupo_78414" data-name="Grupo 78414" transform="translate(0 0)">
      <path id="Trazado_114078" data-name="Trazado 114078" d="M182.7,71.056c-3.565,0-5.325,3.817-6.739,6.885-1.432,3.1-2.4,5.007-4.228,5.007s-2.794-1.9-4.223-5.007c-1.414-3.068-3.174-6.885-6.737-6.885s-5.325,3.817-6.739,6.885c-1.431,3.1-2.4,5.007-4.224,5.007s-2.792-1.9-4.223-5.007c-1.414-3.068-3.174-6.885-6.737-6.885s-5.324,3.819-6.736,6.887c-1.43,3.1-2.4,5-4.221,5s-2.79-1.9-4.221-5c-1.414-3.07-3.172-6.887-6.736-6.887s-5.322,3.817-6.736,6.887c-1.43,3.1-2.4,5-4.221,5-.817,0-1.479.888-1.479,1.982s.662,1.982,1.479,1.982c3.562,0,5.322-3.817,6.736-6.885,1.429-3.1,2.4-5.007,4.221-5.007s2.79,1.9,4.221,5.007c1.414,3.068,3.174,6.885,6.736,6.885s5.322-3.817,6.734-6.885c1.43-3.1,2.4-5.007,4.223-5.007s2.792,1.9,4.223,5.007c1.414,3.068,3.174,6.885,6.737,6.885s5.324-3.817,6.739-6.885c1.429-3.1,2.4-5.007,4.224-5.007s2.792,1.9,4.223,5.007c1.412,3.068,3.174,6.885,6.737,6.885s5.327-3.817,6.741-6.885c1.432-3.1,2.4-5.007,4.226-5.007s2.8,1.9,4.228,5.007c1.414,3.068,3.175,6.885,6.741,6.885.817,0,1.478-.886,1.478-1.982s-.661-1.982-1.478-1.982c-1.826,0-2.8-1.9-4.228-5.007C188.024,74.872,186.264,71.056,182.7,71.056Z" transform="translate(-104.499 -36.511)" fill="#78b62e"/>
      <path id="Trazado_114079" data-name="Trazado 114079" d="M182.7,78.718c-3.565,0-5.325,3.819-6.739,6.885-1.432,3.106-2.4,5.009-4.228,5.009s-2.794-1.9-4.223-5.007c-1.414-3.068-3.174-6.887-6.737-6.887s-5.325,3.819-6.739,6.887c-1.431,3.1-2.4,5.007-4.224,5.007s-2.792-1.9-4.223-5.007c-1.414-3.068-3.174-6.887-6.737-6.887s-5.324,3.821-6.736,6.887c-1.43,3.1-2.4,5.007-4.221,5.007s-2.79-1.9-4.221-5.007c-1.414-3.068-3.172-6.887-6.736-6.887s-5.322,3.819-6.736,6.887c-1.43,3.1-2.4,5.007-4.221,5.007-.817,0-1.479.886-1.479,1.982s.662,1.982,1.479,1.982c3.562,0,5.322-3.819,6.736-6.887,1.429-3.1,2.4-5,4.221-5s2.79,1.9,4.221,5c1.414,3.068,3.174,6.887,6.736,6.887s5.322-3.819,6.734-6.887c1.43-3.1,2.4-5,4.223-5s2.792,1.9,4.223,5c1.414,3.068,3.174,6.887,6.737,6.887s5.324-3.819,6.739-6.887c1.429-3.1,2.4-5,4.224-5s2.792,1.9,4.223,5c1.412,3.068,3.174,6.887,6.737,6.887s5.327-3.819,6.741-6.887c1.432-3.1,2.4-5,4.226-5s2.8,1.9,4.228,5c1.414,3.068,3.175,6.887,6.741,6.887.817,0,1.478-.888,1.478-1.982s-.661-1.982-1.478-1.982c-1.826,0-2.8-1.9-4.228-5.007C188.024,82.537,186.264,78.718,182.7,78.718Z" transform="translate(-104.499 -61.448)" fill="#78b62e"/>
      <path id="Trazado_114080" data-name="Trazado 114080" d="M182.7,86.38c-3.565,0-5.325,3.817-6.739,6.885-1.432,3.1-2.4,5.007-4.228,5.007s-2.794-1.9-4.223-5.007c-1.414-3.068-3.174-6.885-6.737-6.885s-5.325,3.817-6.739,6.885c-1.431,3.1-2.4,5.007-4.224,5.007s-2.792-1.9-4.223-5.007c-1.414-3.068-3.174-6.885-6.737-6.885s-5.324,3.817-6.736,6.885c-1.43,3.1-2.4,5.007-4.221,5.007s-2.79-1.9-4.221-5.007c-1.414-3.068-3.172-6.885-6.736-6.885s-5.322,3.817-6.736,6.885c-1.43,3.1-2.4,5.007-4.221,5.007-.817,0-1.479.886-1.479,1.982s.662,1.982,1.479,1.982c3.562,0,5.322-3.819,6.736-6.887,1.429-3.1,2.4-5,4.221-5s2.79,1.9,4.221,5c1.414,3.068,3.174,6.887,6.736,6.887s5.322-3.819,6.734-6.885c1.43-3.1,2.4-5.007,4.223-5.007s2.792,1.9,4.223,5.007c1.414,3.066,3.174,6.885,6.737,6.885s5.324-3.819,6.739-6.885c1.429-3.1,2.4-5.007,4.224-5.007s2.792,1.9,4.223,5.007c1.412,3.066,3.174,6.885,6.737,6.885s5.327-3.819,6.741-6.885c1.432-3.1,2.4-5.007,4.226-5.007s2.8,1.9,4.228,5.007c1.414,3.066,3.175,6.885,6.741,6.885.817,0,1.478-.888,1.478-1.982s-.661-1.982-1.478-1.982c-1.826,0-2.8-1.9-4.228-5.007C188.024,90.2,186.264,86.38,182.7,86.38Z" transform="translate(-104.499 -86.38)" fill="#78b62e"/>
    </g>
  </g>
</svg>
