<svg xmlns="http://www.w3.org/2000/svg" xmlns:xlink="http://www.w3.org/1999/xlink" width="324.742" height="338.259" viewBox="0 0 324.742 338.259">
  <defs>
    <filter id="Rectángulo_38016" x="0" y="0" width="324.742" height="338.259" filterUnits="userSpaceOnUse">
      <feOffset dy="3" input="SourceAlpha"/>
      <feGaussianBlur stdDeviation="5" result="blur"/>
      <feFlood flood-opacity="0.161"/>
      <feComposite operator="in" in2="blur"/>
      <feComposite in="SourceGraphic"/>
    </filter>
    <clipPath id="clip-path">
      <rect id="Rectángulo_38029" data-name="Rectángulo 38029" width="142.408" height="127.408" transform="translate(0 0)" fill="none"/>
    </clipPath>
  </defs>
  <g id="img12" transform="translate(-375.258 -4425.086)">
    <g transform="matrix(1, 0, 0, 1, 375.26, 4425.09)" filter="url(#Rectángulo_38016)">
      <path id="Rectángulo_38016-2" data-name="Rectángulo 38016" d="M0,0H232.742a62,62,0,0,1,62,62V308.259a0,0,0,0,1,0,0H62a62,62,0,0,1-62-62V0A0,0,0,0,1,0,0Z" transform="translate(15 12)" fill="#f6f6f6"/>
    </g>
    <path id="Trazado_115806" data-name="Trazado 115806" d="M88.79,14.667a4.673,4.673,0,0,1-.721,2.36,4.35,4.35,0,0,1-1.85,1.586,6.3,6.3,0,0,1-2.72.563,5.025,5.025,0,0,1-3.973-1.644,6.786,6.786,0,0,1-1.45-4.641v-.633a7.746,7.746,0,0,1,.655-3.292,4.961,4.961,0,0,1,1.885-2.18,5.26,5.26,0,0,1,2.848-.769,5.516,5.516,0,0,1,3.744,1.226,4.844,4.844,0,0,1,1.608,3.379H85.74a2.292,2.292,0,0,0-.589-1.679,2.422,2.422,0,0,0-1.687-.51,1.843,1.843,0,0,0-1.687.861,5.536,5.536,0,0,0-.562,2.751v.905a6.126,6.126,0,0,0,.514,2.927,1.882,1.882,0,0,0,1.771.879,2.369,2.369,0,0,0,1.626-.5,2.126,2.126,0,0,0,.6-1.591Zm6.987,3.3a3.054,3.054,0,0,1-2.54,1.2,3,3,0,0,1-2.369-.91,3.826,3.826,0,0,1-.8-2.615V9.49h2.962v6.179a1.065,1.065,0,0,0,1.187,1.222,1.548,1.548,0,0,0,1.45-.729V9.49h2.979V19H95.865Zm9.088,1.2a4.889,4.889,0,0,1-3.542-1.305,4.507,4.507,0,0,1-1.354-3.4v-.246a5.84,5.84,0,0,1,.541-2.575,3.955,3.955,0,0,1,1.578-1.727,4.763,4.763,0,0,1,2.461-.611,4.117,4.117,0,0,1,3.164,1.244,4.887,4.887,0,0,1,1.16,3.467v1.151h-5.889a2.135,2.135,0,0,0,.694,1.257,2.066,2.066,0,0,0,1.389.457,2.662,2.662,0,0,0,2.2-.984l1.354,1.6a3.784,3.784,0,0,1-1.569,1.217A5.3,5.3,0,0,1,104.865,19.176Zm-.334-7.576q-1.3,0-1.547,1.723h2.988v-.229a1.467,1.467,0,0,0-.36-1.1A1.434,1.434,0,0,0,104.531,11.6Zm11.285.571-.976-.07a1.752,1.752,0,0,0-1.793.879V19h-2.962V9.49h2.777l.1,1.222a2.294,2.294,0,0,1,2.083-1.4,2.888,2.888,0,0,1,.826.105Zm9.9,2.145a5.735,5.735,0,0,1-1,3.538,3.2,3.2,0,0,1-2.694,1.323,2.742,2.742,0,0,1-2.153-.958v4.438h-2.962V9.49h2.769l.088.879A2.742,2.742,0,0,1,122,9.314a3.224,3.224,0,0,1,2.733,1.3,5.805,5.805,0,0,1,.976,3.564Zm-2.962-.185q0-2.531-1.477-2.531a1.394,1.394,0,0,0-1.406.756V16.1a1.439,1.439,0,0,0,1.424.791q1.415,0,1.459-2.443Zm3.894.026a5.613,5.613,0,0,1,.554-2.536,3.96,3.96,0,0,1,1.591-1.709,4.791,4.791,0,0,1,2.435-.6,4.373,4.373,0,0,1,3.366,1.323,5.076,5.076,0,0,1,1.23,3.6v.105a4.925,4.925,0,0,1-1.235,3.529,4.384,4.384,0,0,1-3.344,1.305,4.434,4.434,0,0,1-3.261-1.217,4.761,4.761,0,0,1-1.327-3.3Zm2.962.185a3.538,3.538,0,0,0,.413,1.934,1.376,1.376,0,0,0,1.222.615q1.582,0,1.617-2.435v-.3q0-2.558-1.635-2.558-1.485,0-1.608,2.206Z" transform="translate(430.747 4480.065)" fill="#12263f"/>
    <g id="Grupo_143263" data-name="Grupo 143263">
      <path id="Trazado_114213" data-name="Trazado 114213" d="M13.717,0V13.609H0V23H13.717V36.611h9.145V23H36.613V13.609H22.862V0Z" transform="translate(451.58 4551.229)" fill="#78b62e"/>
      <g id="Grupo_143262" data-name="Grupo 143262" transform="translate(475 4577)">
        <g id="Grupo_143261" data-name="Grupo 143261" clip-path="url(#clip-path)">
          <path id="Trazado_115791" data-name="Trazado 115791" d="M21.686,35.312l-5.04,11.849C15.392,50.107,14.108,53.039,12.9,56a1.338,1.338,0,0,1-2.033.877c-2.079-.808-4.166-1.6-6.285-2.294-1.259-.41-1.521-1-1.083-2.262,3.386-9.759,6.711-19.538,10.055-29.311.942-2.753,1.9-5.5,2.821-8.26a11.8,11.8,0,0,1,6.24-7.143c1.309-.638,2.584-1.346,3.911-1.942.805-.362,1.27-.843,1.144-1.759-.151-1.089.439-1.578,1.343-2.1A11.736,11.736,0,0,1,36.358.085,12.075,12.075,0,0,0,39.415.08c2.792-.406,5.088.8,7.415,2.031a1.475,1.475,0,0,1,.764,1.707,1.623,1.623,0,0,0,1.2,1.865c1.333.58,2.6,1.307,3.909,1.946a12.005,12.005,0,0,1,6.267,7.3q5.756,16.946,11.592,33.861c.156.455.319.907.506,1.44.584-.332.6-.9.754-1.358C75.7,37.588,79.594,26.313,83.411,15.011a12.125,12.125,0,0,1,6.61-7.537c3.558-1.637,6.848-3.852,10.738-4.78A17.668,17.668,0,0,1,112.54,3.987c2.512,1.153,4.949,2.473,7.423,3.709A11.718,11.718,0,0,1,126,14.658q6.447,18.86,12.916,37.713c.4,1.178.216,1.783-1,2.184q-3.177,1.044-6.285,2.294c-1.2.481-1.726.1-2.2-1.026-2.637-6.309-5.342-12.59-8.023-18.881-.225-.528-.455-1.056-.852-1.981-.066.764-.126,1.144-.126,1.525q-.007,40.4-.033,80.792c0,1.258.4,1.5,1.565,1.494,6.125-.056,12.25-.028,18.375-.023a11,11,0,0,1,1.452.086.7.7,0,0,1,.61.711.742.742,0,0,1-.58.882,6.269,6.269,0,0,1-1.3.1q-69.344.006-138.688,0a7.351,7.351,0,0,1-1.018-.037A.816.816,0,0,1,0,119.641a.786.786,0,0,1,.806-.849c.435-.037.874-.044,1.31-.044,6.174,0,12.348-.019,18.521.015.941.006,1.365-.146,1.364-1.243q-.045-40.833-.026-81.667a4.164,4.164,0,0,0-.043-.431l-.246-.11M37.451,92.067l.214.412-.025,0c-.515,1.8-.263,3.652-.355,5.477-.326,6.537-.572,13.079-.829,19.62-.016.419-.3.976.45,1.184,1.351.377,1.979-.058,1.924-1.456q-.479-12.21-.977-24.419a5.241,5.241,0,0,0-.4-3.28Zm90.938-54.525a23.5,23.5,0,0,1-2.7,1.033c-1.275.326-1.272.963-.82,2,1.792,4.115,3.515,8.259,5.281,12.385,1.032,2.409,1.047,2.4,3.485,1.133.78-.244,1.547-.551,2.343-.718,1.115-.233,1.174-.772.827-1.748-1.444-4.05-2.813-8.127-4.209-12.195-1.1-3.218-1.1-3.218-4.209-1.894m-114.351.1a14.155,14.155,0,0,1-1.7-.8c-1.172-.743-1.6-.288-1.981.9-1.276,3.97-2.669,7.9-4.014,11.851-1.164,3.423-1.161,3.424,2.389,4.53.581.234,1.171.448,1.74.707.634.289.963.083,1.224-.54q2.956-7.039,5.966-14.056c.341-.793.255-1.273-.6-1.553-1.012-.331-2.013-.693-3.019-1.042M20.99,17.957a14.914,14.914,0,0,0-2.2-4.372c-.271.654-.522,1.175-.707,1.718q-2.778,8.11-5.535,16.228c-1.133,3.34-1.124,3.343,2.281,4.271,1.061.453,2.137.875,3.176,1.373.634.3.877.13,1.173-.484,1.838-3.815,3.4-7.675,2.791-12.06-.118-.855,0-1.74-.06-2.607a11.793,11.793,0,0,0-.914-4.067m106.53,17.93a16.893,16.893,0,0,1,1.92-.674c1.367-.309,1.433-1.009.992-2.213-1.239-3.368-2.343-6.786-3.511-10.181-1.053-3.063-2.122-6.121-3.291-9.493-.931,1.8-1.941,3.177-2.252,4.887a4.8,4.8,0,0,0-.3.639c-1.017,3.325-.479,6.747-.628,10.127a5,5,0,0,0,.454,2.256c.674,1.557,1.412,3.093,1.98,4.689.436,1.226.941,1.759,2.233.988a18.368,18.368,0,0,1,2.4-1.025M114.963,89.7c-2.479-.012-4.956-.017-7.432-.043-.617-.006-1,.083-.966.869.306,6.787.525,13.579.893,20.363.119,2.183.161,4.364.249,6.546.024.6.035,1.258.878,1.212,2.133-.116,4.26.3,6.394.045a17.887,17.887,0,0,1,1.884.108c1.5.236,1.868-.367,1.854-1.84-.073-7.925-.034-15.85-.034-23.776,0-3.668,0-3.668-3.72-3.484m-87.461,29a47,47,0,0,0,5.946-.019c.978-.009,1.242-.414,1.264-1.307.073-2.9.2-5.808.314-8.712.243-6,.472-12,.767-18,.04-.806-.154-1.029-.911-1.017-2.472.042-4.943.044-7.414.061a19.345,19.345,0,0,1-2.183-.058c-1.292-.172-1.633.318-1.625,1.607.061,8.065.032,16.13.032,24.194,0,3.74,0,3.74,3.81,3.247M27.433,8.6c.128-.942-.029-1.487-1.132-.884-1.488.813-3.037,1.524-4.479,2.41-1.872,1.151-1.936,1.568-.9,3.469.278.507.611.985.919,1.476a23.774,23.774,0,0,1,1.893,11.067c-.107,4.563,0,9.129-.048,13.693-.012,1.1.221,1.542,1.434,1.5q4.365-.135,8.739,0c1.256.04,1.515-.4,1.509-1.568-.045-9.372-.022-18.744-.034-28.116,0-.4.179-.863-.288-1.284-1.962,1.226-3.919,2.469-5.894,3.677-1.162.711-1.71.412-1.73-.931-.023-1.5,0-3.01.006-4.514m79.073-4.434a6.715,6.715,0,0,0-3.15-.12c-4.3.379-7.85,2.669-11.562,4.538a17.661,17.661,0,0,0-3.634,2.123c-.832.7-1.087,1.3-.427,2.319a21.393,21.393,0,0,1,3.249,12.326c-.063,4.855.015,9.712-.036,14.568-.012,1.071.273,1.416,1.381,1.41q12.528-.064,25.056,0c1.176.007,1.338-.452,1.33-1.456-.043-4.613.058-9.228-.043-13.839a23.479,23.479,0,0,1,1.871-10.923c.212-.32.447-.627.631-.962,1.452-2.635,1.445-2.993-1.237-4.43A74.873,74.873,0,0,0,109.763,4.8a9.206,9.206,0,0,0-3.257-.635M27.477,83.809c2.525.017,5.052,0,7.575.07.964.028,1.1-.409,1.124-1.217.168-4.752.379-9.5.58-14.254.028-.665-.1-1.51.924-1.472,1.009.036.83.889.858,1.543.2,4.751.422,9.5.575,14.254.029.9.323,1.154,1.194,1.143q5.027-.062,10.054,0c.82.009,1.093-.261,1.091-1.085q-.03-16.686,0-33.372c0-.916-.331-1.15-1.192-1.141-3.5.037-7,.057-10.492-.01-1.085-.02-1.278.4-1.259,1.356.054,2.622.015,5.246.021,7.869,0,.664-.035,1.408-.847,1.444-.974.042-.918-.785-.917-1.479,0-2.671-.014-5.343.009-8.014.006-.72-.054-1.19-.99-1.167-2.767.068-5.535.056-8.3.075a18.548,18.548,0,0,1-2.032-.079c-1.372-.2-1.805.278-1.8,1.715.063,10.089.034,20.179.034,30.269,0,3.76,0,3.76,3.785,3.555m87.49.011a16.264,16.264,0,0,1,1.889.054c1.413.2,1.883-.229,1.871-1.775-.082-10.1-.042-20.193-.042-30.29,0-3.67,0-3.67-3.714-3.467-7.624-.017-15.248-.016-22.872-.072-1.077-.008-1.143.505-1.142,1.338q.025,16.465-.007,32.931c0,.98.229,1.363,1.284,1.343,3.254-.062,6.509-.049,9.762-.005.9.012,1.271-.188,1.3-1.187.142-4.753.369-9.5.571-14.253.028-.663-.117-1.506.9-1.5s.853.861.881,1.515c.2,4.75.419,9.5.579,14.252.029.861.255,1.2,1.166,1.175,2.523-.064,5.049-.044,7.574-.057M88.936,35.45a2.836,2.836,0,0,0-.766,1.368q-3.949,9.229-7.864,18.472c-.9,2.113-1.014,2.325-3.064,1.252-4.038-2.112-7.949-2.272-11.929-.016a2.6,2.6,0,0,1-.4.172c-1.861.67-1.953.635-2.708-1.142q-3.982-9.374-7.967-18.744a2.8,2.8,0,0,0-.864-1.439c-.032.547-.077.959-.077,1.371q0,40.244-.029,80.489c0,1.209.315,1.546,1.533,1.54q16.259-.071,32.515.01c1.48.009,1.84-.365,1.836-1.84q-.071-39.953-.042-79.906a2.793,2.793,0,0,0-.172-1.587m-37.5,68.777c0-4.424-.028-8.848.021-13.271.012-1.029-.316-1.331-1.328-1.313-3.111.057-6.224.087-9.333-.012-1.282-.04-1.422.5-1.353,1.541q.3,4.5.493,9.014c.239,5.774.465,11.55.635,17.327.03,1.047.413,1.322,1.391,1.305,2.722-.048,5.445-.056,8.166,0,1.018.023,1.34-.3,1.329-1.322-.049-4.424-.021-8.848-.021-13.272m39.528-.213c0,4.472.035,8.945-.025,13.417-.014,1.106.33,1.421,1.412,1.393,2.671-.069,5.347-.063,8.019,0,1.056.024,1.421-.285,1.463-1.387q.5-13.247,1.133-26.487c.051-1.05-.284-1.323-1.295-1.3-3.11.057-6.223.064-9.333,0-1.088-.024-1.414.3-1.4,1.4.06,4.325.024,8.652.025,12.979m-50.83-93.7a2.418,2.418,0,0,0-.173.54q-.015,14.714-.031,29.429c0,.887.389,1.037,1.147,1.031,3.01-.028,6.023-.064,9.032.015,1.159.03,1.359-.42,1.347-1.446-.048-4.225.069-8.453-.043-12.675-.137-5.146.464-10.078,3.411-14.475a1.172,1.172,0,0,0-.288-1.75c-1.719-1.578-3.886-2.36-5.9-3.419-.694-.366-.839.058-.829.655.026,1.554.057,3.108.055,4.662,0,1.645-.488,1.914-1.91,1.046-1.929-1.178-3.842-2.382-5.821-3.613m16.448,3.268a3.434,3.434,0,0,0-.447.407c-3.414,5.02-2.88,10.7-2.713,16.317a1.677,1.677,0,0,0,.2.541c.812,1.918,1.664,3.82,2.42,5.76.32.82.713.812,1.414.513,1.558-.664,3.124-1.332,4.735-1.843,1.294-.411,1.59-.97,1.106-2.292-1.5-4.09-2.864-8.231-4.283-12.352-.8-2.322-1.6-4.642-2.436-7.051m29.424.066c-.128.141-.22.2-.247.275q-3.455,9.946-6.9,19.895c-.193.558-.056.882.551,1.094,1.14.4,2.247.9,3.375,1.339,3.206,1.248,3.23,1.253,4.5-1.936.62-1.565,1.7-3,1.756-4.731.086-2.615.089-5.241-.05-7.854a16.665,16.665,0,0,0-2.977-8.082M85.116,39.4c.02-.492-.419-.474-.7-.588-1.8-.728-3.622-1.393-5.4-2.168-.766-.334-1.075-.191-1.335.587Q75.2,44.611,72.632,51.962c-.251.72-.122,1.043.592,1.281,1.38.459,2.763.926,4.1,1.5.907.394,1.284.116,1.635-.721,1.929-4.609,3.9-9.2,5.857-13.8.112-.267.2-.545.3-.822M69.953,52.536c-.051-.141-.1-.277-.151-.414-1.732-5.045-3.479-10.084-5.182-15.139-.242-.721-.578-.572-1.072-.372-1.842.748-3.682,1.506-5.549,2.188-.665.243-.8.5-.518,1.15q3.075,7.152,6.1,14.327c.254.6.575.836,1.226.584,1.493-.577,3-1.111,4.5-1.681.294-.112.689-.176.654-.643M37.5,46.526v.008c4.174,0,8.348-.059,12.52.034,1.327.029,1.632-.387,1.6-1.639-.029-1.235-.1-1.918-1.683-1.9q-12.373.129-24.749.007c-1.474-.014-1.523.643-1.486,1.736.033,1-.141,1.839,1.424,1.795,4.12-.116,8.248-.039,12.373-.039m67.219.008v.005c4.222,0,8.445-.06,12.664.035,1.348.03,1.4-.622,1.322-1.586-.073-.882.4-1.965-1.289-1.953q-12.663.09-25.327.006c-1.569-.01-1.233.973-1.25,1.841-.018.847-.25,1.714,1.216,1.683,4.22-.089,8.442-.031,12.664-.031m.238,47.887-.336.008a1.593,1.593,0,0,0-.123.391c-.314,7.575-.606,15.15-.948,22.723-.043.958.206,1.246,1.181,1.258,1.046.012,1.3-.324,1.251-1.335-.286-6.117-.5-12.236-.753-18.354-.065-1.565-.18-3.128-.272-4.691M37.093,25.362c0,4.949-.007,9.9.014,14.848,0,.417-.3,1.122.454,1.162.842.046.631-.7.631-1.184q.013-14.775,0-29.55c0-.427.251-1.115-.485-1.158-.9-.052-.595.727-.6,1.18-.021,4.9-.013,9.8-.014,14.7m-7.771-13.6c1.459-.91,2.743-1.853,4.151-2.548s1.638-1.457.8-2.771C33.7,5.554,33.4,4.5,32.9,3.564c-.219-.41-.242-1.328-.866-1.078-.92.367-2.4.482-2.449,1.7a54.764,54.764,0,0,0-.259,7.576m16.463-.115c0-2.536.016-4.944-.011-7.352-.006-.591-2.3-2.105-2.781-1.87a.931.931,0,0,0-.322.454c-.708,1.54-1.4,3.089-2.116,4.623-.189.4-.261.71.18.984,1.711,1.063,3.415,2.137,5.05,3.161M45.532,85.6c-1.7,0-3.4-.018-5.1.011-.5.009-1.333-.291-1.151.749.114.66-.245,1.606,1.094,1.578,3.4-.072,6.8-.049,10.2-.007.9.011,1.021-.4,1.036-1.149.018-.838-.174-1.242-1.125-1.2-1.648.07-3.3.019-4.953.019m51.342,2.314c1.748,0,3.5-.047,5.244.015,1.264.046.849-.907,1-1.512.217-.851-.38-.819-.944-.818-3.447,0-6.9.027-10.344-.016-.894-.011-1.023.387-1.035,1.141-.013.833.171,1.248,1.125,1.209,1.649-.067,3.3-.018,4.952-.019M29.92,85.605c-1.75,0-3.5.031-5.25-.014-.794-.021-1.038.308-.978,1.036.05.6-.18,1.308.863,1.3,3.5-.026,7-.032,10.5,0,1.032.01.842-.672.9-1.277.069-.7-.11-1.085-.932-1.063-1.7.046-3.4.014-5.1.014m82.762,0c-1.75,0-3.5.028-5.25-.013-.764-.017-1.05.249-.986,1.013.058.679-.089,1.347,1,1.331q5.1-.075,10.208,0c1.011.015,1.055-.49,1.073-1.262.019-.823-.261-1.113-1.09-1.087-1.651.051-3.305.015-4.958.016" fill="#12263f"/>
          <path id="Trazado_115792" data-name="Trazado 115792" d="M71.145,127.354q-24.856,0-49.713-.015c-.742,0-1.96.418-1.986-.8-.028-1.33,1.239-.932,2.03-.933q49.713-.023,99.426-.013c.194,0,.389,0,.583,0,.7-.011,1.519-.023,1.5.918-.016.974-.875.843-1.547.843h-50.3" fill="#12263f"/>
          <path id="Trazado_115793" data-name="Trazado 115793" d="M136.2,127.353c-1.7,0-3.4-.008-5.1.005-.6,0-1.14-.137-1.167-.8-.029-.731.52-.965,1.183-.965q5.1,0,10.2.007c.593,0,1.081.2,1.078.9s-.5.858-1.094.857q-2.55-.006-5.1,0" fill="#12263f"/>
          <path id="Trazado_115794" data-name="Trazado 115794" d="M6.2,127.354q-2.477,0-4.954,0c-.621,0-1.234-.049-1.228-.868.006-.8.605-.893,1.229-.893q4.954,0,9.909,0c.7,0,1.355.148,1.316.977-.035.76-.7.795-1.318.791-1.651-.011-3.3,0-4.954,0" fill="#12263f"/>
          <path id="Trazado_115795" data-name="Trazado 115795" d="M37.852,92.883l-.213-.406.025,0q-.107-.205-.212-.412V89.6a5.253,5.253,0,0,1,.4,3.28" fill="#12263f"/>
          <path id="Trazado_115796" data-name="Trazado 115796" d="M37.452,92.068l.213.412-.213-.412" fill="#12263f"/>
          <path id="Trazado_115797" data-name="Trazado 115797" d="M104.764,15.552c2.916,0,5.832-.012,8.748,0,2.086.011,3.217.964,3.389,2.994a12.868,12.868,0,0,1-.147,4.063,2.749,2.749,0,0,1-2.784,2.311c-6.123.028-12.247.039-18.37-.007a2.766,2.766,0,0,1-2.873-2.994c-.032-1.068-.026-2.138,0-3.207.043-2.093,1.071-3.14,3.149-3.157,2.964-.024,5.929-.006,8.893-.007m.045,1.756c-2.187,0-4.374-.011-6.561,0-4.206.027-3.761-.522-3.774,3.851,0,1.811.21,2.02,2.012,2.022q7.218.01,14.435,0c4.672-.014,4.083.546,4.143-4.26.015-1.188-.466-1.648-1.652-1.629-2.867.047-5.735.016-8.6.015" fill="#12263f"/>
          <path id="Trazado_115798" data-name="Trazado 115798" d="M45.175,29.637v-.875c0-2.3,0-2.326-2.354-2.427-1.037-.045-1.5-.451-1.446-1.516.053-.969.04-1.945,0-2.915-.038-1.01.421-1.379,1.407-1.361q3.207.059,6.416,0c1.04-.017,1.549.41,1.527,1.458-.009.437,0,.875,0,1.312,0,2.813,0,2.842-2.8,2.992-.766.041-1.017.307-1,1.045.037,1.409.015,2.819.007,4.229,0,.724.107,1.661-.876,1.72-1.129.068-.84-.948-.877-1.621s-.009-1.361-.009-2.042m.9-7.325c-.676,0-1.356.049-2.027-.012-.873-.079-1.06.337-1.044,1.108.015.744.169,1.2,1.047,1.162,1.205-.046,2.415-.046,3.62,0C48.514,24.6,49,24.49,49,23.43s-.506-1.183-1.334-1.125c-.529.037-1.062.007-1.593.007" fill="#12263f"/>
          <path id="Trazado_115799" data-name="Trazado 115799" d="M29.285,20.555c1.066,0,2.135.042,3.2-.011,1.089-.054,1.485.435,1.432,1.477a23.565,23.565,0,0,0,0,2.762c.078,1.158-.468,1.53-1.55,1.554-2.251.05-2.25.083-2.251,2.369,0,1.163,0,2.327,0,3.491,0,.569-.1,1.136-.812,1.132-.65,0-.92-.5-.932-1.087a40.345,40.345,0,0,1,.008-4.071c.115-1.4-.229-2.151-1.788-1.854a1.589,1.589,0,0,1-.723-.013c-2.477-.739-.912-2.762-1.264-4.167-.256-1.022.329-1.636,1.482-1.591,1.065.042,2.133.009,3.2.009m-.049,4c.632,0,1.266-.035,1.9.009.792.055,1.154-.216,1.147-1.063-.007-.82-.187-1.27-1.143-1.21-1.162.072-2.332.045-3.5.007-.82-.026-1.353.031-1.352,1.126s.511,1.195,1.347,1.138c.532-.036,1.068-.007,1.6-.007" fill="#12263f"/>
          <path id="Trazado_115800" data-name="Trazado 115800" d="M104.653,21.119c-2.183,0-4.367,0-6.55,0-.676,0-1.5.1-1.483-.912.013-.912.78-.834,1.407-.835q6.77-.008,13.538,0c.649,0,1.371-.01,1.337.905s-.772.843-1.407.843q-3.422.006-6.842,0" fill="#12263f"/>
        </g>
      </g>
    </g>
  </g>
</svg>
