<svg xmlns="http://www.w3.org/2000/svg" xmlns:xlink="http://www.w3.org/1999/xlink" width="324.742" height="338.259" viewBox="0 0 324.742 338.259">
  <defs>
    <filter id="Rectángulo_38019" x="0" y="0" width="324.742" height="338.259" filterUnits="userSpaceOnUse">
      <feOffset dy="3" input="SourceAlpha"/>
      <feGaussianBlur stdDeviation="5" result="blur"/>
      <feFlood flood-opacity="0.161"/>
      <feComposite operator="in" in2="blur"/>
      <feComposite in="SourceGraphic"/>
    </filter>
    <clipPath id="clip-path">
      <rect id="Rectángulo_34852" data-name="Rectángulo 34852" width="143.428" height="143.141" fill="none"/>
    </clipPath>
    <clipPath id="clip-path-2">
      <rect id="Rectángulo_38027" data-name="Rectángulo 38027" width="119.717" height="119.723" fill="none"/>
    </clipPath>
  </defs>
  <g id="img10" transform="translate(-585.516 -4087.827)">
    <g transform="matrix(1, 0, 0, 1, 585.52, 4087.83)" filter="url(#Rectángulo_38019)">
      <path id="Rectángulo_38019-2" data-name="Rectángulo 38019" d="M0,0H232.742a62,62,0,0,1,62,62V308.259a0,0,0,0,1,0,0H62a62,62,0,0,1-62-62V0A0,0,0,0,1,0,0Z" transform="translate(15 12)" fill="#f6f6f6"/>
    </g>
    <path id="Trazado_115803" data-name="Trazado 115803" d="M39.773,17.418a4.96,4.96,0,0,1-2.083,1.274,8.984,8.984,0,0,1-3.006.483,5.36,5.36,0,0,1-4.017-1.538,6.226,6.226,0,0,1-1.608-4.28l-.009-1.107a7.637,7.637,0,0,1,.668-3.3A4.96,4.96,0,0,1,31.63,6.779a5.407,5.407,0,0,1,2.878-.76,5.669,5.669,0,0,1,3.713,1.094,4.637,4.637,0,0,1,1.542,3.265H36.794a2.426,2.426,0,0,0-.686-1.529,2.212,2.212,0,0,0-1.494-.457,2.013,2.013,0,0,0-1.793.984,5.256,5.256,0,0,0-.642,2.813v.773a5.145,5.145,0,0,0,.655,2.878A2.316,2.316,0,0,0,34.9,16.8a2.592,2.592,0,0,0,1.793-.536V14.28H34.544V12.162h5.229ZM46.787,19a3.344,3.344,0,0,1-.281-.853,2.754,2.754,0,0,1-2.285,1.028,3.374,3.374,0,0,1-2.285-.813,2.588,2.588,0,0,1-.94-2.043,2.66,2.66,0,0,1,1.143-2.338,5.821,5.821,0,0,1,3.322-.791h.914v-.5q0-1.316-1.134-1.316a.927.927,0,0,0-1.055,1.042H41.224A2.655,2.655,0,0,1,42.4,10.175a4.931,4.931,0,0,1,2.993-.86,4.323,4.323,0,0,1,2.874.888,3.086,3.086,0,0,1,1.081,2.435v4.21a4.311,4.311,0,0,0,.4,2V19Zm-1.854-1.934a1.652,1.652,0,0,0,.918-.237,1.487,1.487,0,0,0,.523-.536V14.772h-.861q-1.547,0-1.547,1.389a.848.848,0,0,0,.272.655A.986.986,0,0,0,44.932,17.066ZM51.639,19V11.547h-1.38V9.49h1.38V8.734A3.286,3.286,0,0,1,52.6,6.212a3.785,3.785,0,0,1,2.689-.9,5.89,5.89,0,0,1,1.389.185l.009,2.18a2.706,2.706,0,0,0-.729-.079q-1.345,0-1.345,1.16V9.49h1.854v2.057H54.609V19Zm11.224,0a3.344,3.344,0,0,1-.281-.853A2.754,2.754,0,0,1,60.3,19.176a3.374,3.374,0,0,1-2.285-.813,2.588,2.588,0,0,1-.94-2.043,2.66,2.66,0,0,1,1.143-2.338,5.821,5.821,0,0,1,3.322-.791h.914v-.5q0-1.316-1.134-1.316a.927.927,0,0,0-1.055,1.042H57.3a2.655,2.655,0,0,1,1.173-2.239,4.931,4.931,0,0,1,2.993-.86,4.323,4.323,0,0,1,2.874.888,3.086,3.086,0,0,1,1.081,2.435v4.21a4.311,4.311,0,0,0,.4,2V19Zm-1.854-1.934a1.652,1.652,0,0,0,.918-.237,1.487,1.487,0,0,0,.523-.536V14.772h-.861q-1.547,0-1.547,1.389a.848.848,0,0,0,.272.655A.986.986,0,0,0,61.008,17.066Zm11.03-.738a.684.684,0,0,0-.4-.606,6.016,6.016,0,0,0-1.5-.475,6.853,6.853,0,0,1-1.828-.646,3.062,3.062,0,0,1-1.1-.971,2.319,2.319,0,0,1-.378-1.31,2.628,2.628,0,0,1,1.081-2.158,4.453,4.453,0,0,1,2.83-.848,4.934,4.934,0,0,1,3.023.853,2.666,2.666,0,0,1,1.143,2.241H71.941q0-1.143-1.2-1.143a1.194,1.194,0,0,0-.782.259.8.8,0,0,0-.316.646.737.737,0,0,0,.387.642,3.654,3.654,0,0,0,1.235.4,10.671,10.671,0,0,1,1.49.378,2.706,2.706,0,0,1,2.145,2.646,2.491,2.491,0,0,1-1.156,2.118,5.068,5.068,0,0,1-2.993.817,5.172,5.172,0,0,1-2.18-.439,3.645,3.645,0,0,1-1.494-1.2,2.707,2.707,0,0,1-.536-1.591H69.3a1.145,1.145,0,0,0,.439.962,1.808,1.808,0,0,0,1.081.3,1.422,1.422,0,0,0,.91-.246A.787.787,0,0,0,72.038,16.328Zm8.35-2.153a5.809,5.809,0,0,1,.976-3.56,3.211,3.211,0,0,1,2.725-1.3,2.731,2.731,0,0,1,2.145,1V5.5H89.2V19H86.54l-.149-1.02a2.8,2.8,0,0,1-2.32,1.2,3.205,3.205,0,0,1-2.689-1.3A5.993,5.993,0,0,1,80.388,14.175Zm2.962.185q0,2.531,1.477,2.531a1.458,1.458,0,0,0,1.406-.826V12.443a1.419,1.419,0,0,0-1.389-.844q-1.371,0-1.485,2.215Zm12.138,4.816a4.889,4.889,0,0,1-3.542-1.305,4.507,4.507,0,0,1-1.354-3.4v-.246a5.84,5.84,0,0,1,.541-2.575A3.955,3.955,0,0,1,92.71,9.925a4.763,4.763,0,0,1,2.461-.611,4.117,4.117,0,0,1,3.164,1.244,4.887,4.887,0,0,1,1.16,3.467v1.151H93.606a2.135,2.135,0,0,0,.694,1.257,2.066,2.066,0,0,0,1.389.457,2.662,2.662,0,0,0,2.2-.984l1.354,1.6a3.784,3.784,0,0,1-1.569,1.217A5.3,5.3,0,0,1,95.487,19.176ZM95.153,11.6q-1.3,0-1.547,1.723h2.988v-.229a1.467,1.467,0,0,0-.36-1.1A1.434,1.434,0,0,0,95.153,11.6Zm14.994,4.729a.684.684,0,0,0-.4-.606,6.016,6.016,0,0,0-1.5-.475,6.853,6.853,0,0,1-1.828-.646,3.062,3.062,0,0,1-1.1-.971,2.319,2.319,0,0,1-.378-1.31,2.628,2.628,0,0,1,1.081-2.158,4.453,4.453,0,0,1,2.83-.848,4.934,4.934,0,0,1,3.023.853,2.666,2.666,0,0,1,1.143,2.241h-2.971q0-1.143-1.2-1.143a1.194,1.194,0,0,0-.782.259.8.8,0,0,0-.316.646.737.737,0,0,0,.387.642,3.654,3.654,0,0,0,1.235.4,10.671,10.671,0,0,1,1.49.378A2.706,2.706,0,0,1,113,16.24a2.491,2.491,0,0,1-1.156,2.118,5.068,5.068,0,0,1-2.993.817,5.172,5.172,0,0,1-2.18-.439,3.645,3.645,0,0,1-1.494-1.2,2.707,2.707,0,0,1-.536-1.591h2.769a1.145,1.145,0,0,0,.439.962,1.808,1.808,0,0,0,1.081.3,1.422,1.422,0,0,0,.91-.246A.787.787,0,0,0,110.147,16.328Zm8.842,2.848a4.889,4.889,0,0,1-3.542-1.305,4.507,4.507,0,0,1-1.354-3.4v-.246a5.84,5.84,0,0,1,.541-2.575,3.955,3.955,0,0,1,1.578-1.727,4.763,4.763,0,0,1,2.461-.611,4.117,4.117,0,0,1,3.164,1.244A4.887,4.887,0,0,1,123,14.025v1.151h-5.889a2.135,2.135,0,0,0,.694,1.257,2.066,2.066,0,0,0,1.389.457,2.662,2.662,0,0,0,2.2-.984l1.354,1.6a3.784,3.784,0,0,1-1.569,1.217A5.3,5.3,0,0,1,118.989,19.176Zm-.334-7.576q-1.3,0-1.547,1.723H120.1v-.229a1.467,1.467,0,0,0-.36-1.1A1.434,1.434,0,0,0,118.655,11.6Zm5.186,2.575a6.421,6.421,0,0,1,.475-2.549,3.821,3.821,0,0,1,1.362-1.709,3.591,3.591,0,0,1,2.065-.6,2.855,2.855,0,0,1,2.32,1l.105-.826h2.689V18.64a4.009,4.009,0,0,1-.584,2.184,3.75,3.75,0,0,1-1.692,1.424,6.219,6.219,0,0,1-2.566.5,5.365,5.365,0,0,1-2.026-.4,3.657,3.657,0,0,1-1.5-1.028l1.239-1.74a2.716,2.716,0,0,0,2.18.976,1.764,1.764,0,0,0,1.969-2.021v-.3a2.781,2.781,0,0,1-2.153.94,3.437,3.437,0,0,1-2.812-1.332,5.517,5.517,0,0,1-1.072-3.564Zm2.971.185a3.383,3.383,0,0,0,.439,1.85,1.387,1.387,0,0,0,1.23.681,1.573,1.573,0,0,0,1.4-.642v-4a1.534,1.534,0,0,0-1.38-.65,1.4,1.4,0,0,0-1.239.708A3.858,3.858,0,0,0,126.811,14.359Zm13.395,3.612a3.054,3.054,0,0,1-2.54,1.2,3,3,0,0,1-2.369-.91,3.826,3.826,0,0,1-.8-2.615V9.49h2.962v6.179a1.065,1.065,0,0,0,1.187,1.222,1.548,1.548,0,0,0,1.45-.729V9.49h2.979V19h-2.777Zm10.239-5.8-.976-.07a1.752,1.752,0,0,0-1.793.879V19h-2.962V9.49h2.777l.1,1.222a2.294,2.294,0,0,1,2.083-1.4,2.888,2.888,0,0,1,.826.105ZM154.638,19h-2.971V9.49h2.971ZM151.491,7.038A1.322,1.322,0,0,1,151.948,6a1.943,1.943,0,0,1,2.373,0,1.322,1.322,0,0,1,.457,1.037,1.322,1.322,0,0,1-.457,1.037,1.943,1.943,0,0,1-2.373,0A1.322,1.322,0,0,1,151.491,7.038Zm4.6,7.137a5.809,5.809,0,0,1,.976-3.56,3.211,3.211,0,0,1,2.725-1.3,2.731,2.731,0,0,1,2.145,1V5.5H164.9V19H162.24l-.149-1.02a2.8,2.8,0,0,1-2.32,1.2,3.205,3.205,0,0,1-2.689-1.3A5.993,5.993,0,0,1,156.088,14.175Zm2.962.185q0,2.531,1.477,2.531a1.458,1.458,0,0,0,1.406-.826V12.443a1.419,1.419,0,0,0-1.389-.844q-1.371,0-1.485,2.215ZM171.943,19a3.344,3.344,0,0,1-.281-.853,2.754,2.754,0,0,1-2.285,1.028,3.374,3.374,0,0,1-2.285-.813,2.588,2.588,0,0,1-.94-2.043,2.66,2.66,0,0,1,1.143-2.338,5.821,5.821,0,0,1,3.322-.791h.914v-.5q0-1.316-1.134-1.316a.927.927,0,0,0-1.055,1.042H166.38a2.655,2.655,0,0,1,1.173-2.239,4.931,4.931,0,0,1,2.993-.86,4.323,4.323,0,0,1,2.874.888,3.086,3.086,0,0,1,1.081,2.435v4.21a4.311,4.311,0,0,0,.4,2V19Zm-1.854-1.934a1.652,1.652,0,0,0,.918-.237,1.487,1.487,0,0,0,.523-.536V14.772h-.861q-1.547,0-1.547,1.389a.848.848,0,0,0,.272.655A.986.986,0,0,0,170.089,17.066Zm5.678-2.892a5.809,5.809,0,0,1,.976-3.56,3.211,3.211,0,0,1,2.725-1.3,2.731,2.731,0,0,1,2.145,1V5.5h2.971V19h-2.663l-.149-1.02a2.8,2.8,0,0,1-2.32,1.2,3.205,3.205,0,0,1-2.689-1.3A5.993,5.993,0,0,1,175.766,14.175Zm2.962.185q0,2.531,1.477,2.531a1.458,1.458,0,0,0,1.406-.826V12.443a1.419,1.419,0,0,0-1.389-.844q-1.371,0-1.485,2.215Z" transform="translate(641.004 4150.928)" fill="#12263f"/>
    <g id="Grupo_143252" data-name="Grupo 143252" transform="translate(666.831 4221.972)">
      <path id="Trazado_114191" data-name="Trazado 114191" d="M13.717,0V13.61H0V23H13.717V36.612h9.145V23H36.613V13.61H22.862V0Z" fill="#78b62e"/>
      <g id="Grupo_142399" data-name="Grupo 142399">
        <g id="Grupo_142398" data-name="Grupo 142398" clip-path="url(#clip-path)">
          <g id="Grupo_143258" data-name="Grupo 143258" transform="translate(23.453 19.613)">
            <g id="Grupo_143257" data-name="Grupo 143257" clip-path="url(#clip-path-2)">
              <path id="Trazado_115783" data-name="Trazado 115783" d="M119.718,65.01c-.564,1.509-1.2,3.059-2.714,3.778a9.442,9.442,0,0,1-3.87,1.029q-53.246.08-106.493.038c-4.222,0-6.627-2.468-6.636-6.72,0-.974-.01-1.949,0-2.923a5.953,5.953,0,0,1,5.5-6.274,4.453,4.453,0,0,0,.436-.11c.348-2.68.528-5.365,1.065-7.978Q12.35,19.831,36,7.659c1.656-.85,3.433-1.464,5.118-2.263a2.106,2.106,0,0,0,1.022-1.057A6.027,6.027,0,0,1,48.03.021q11.865-.038,23.73,0a6.016,6.016,0,0,1,5.8,4.269,2.11,2.11,0,0,0,1.1,1.123,54.29,54.29,0,0,1,14.766,8.376,52.7,52.7,0,0,1,19.016,30.755c.652,3.029.935,6.139,1.392,9.234a20.41,20.41,0,0,1,2.459.721,6.523,6.523,0,0,1,3.423,4.2ZM10.118,53.767H109.6C108.942,32.8,94.564,15.4,77.839,9.532v1.292q0,16.074,0,32.149c0,1.913-.652,2.863-1.97,2.887-1.385.026-2.024-.889-2.024-2.916q0-17.828,0-35.657c0-.311.012-.624,0-.935A2.137,2.137,0,0,0,71.419,4c-1.948-.023-3.9-.006-5.845-.006h-3.71V5.62q0,20.517-.006,41.034a7.83,7.83,0,0,1-.13,1.741,1.93,1.93,0,0,1-3.734,0,7.819,7.819,0,0,1-.13-1.74q-.01-20.517,0-41.034V3.993H48.888c-2.43,0-3.009.59-3.01,3.062q0,17.887,0,35.774a8.255,8.255,0,0,1-.058,1.4,1.8,1.8,0,0,1-1.73,1.614,1.774,1.774,0,0,1-2.032-1.369,6.01,6.01,0,0,1-.165-1.614q-.012-16.016-.007-32.032V9.532c-16.708,5.858-31.1,23.251-31.765,44.235m49.863,4.1H7.4c-.429,0-.859-.018-1.285.018A2.026,2.026,0,0,0,4,60.047c-.045,1.206-.044,2.416,0,3.622a2.042,2.042,0,0,0,2.105,2.178c.348.034.7.017,1.051.017h105.4c.35,0,.7.017,1.051-.016a2.041,2.041,0,0,0,2.111-2.172c.046-1.205.045-2.416,0-3.622a2.025,2.025,0,0,0-2.105-2.168c-.426-.037-.856-.019-1.284-.019H59.981" transform="translate(0 0)" fill="#12263f"/>
              <path id="Trazado_115784" data-name="Trazado 115784" d="M22.45,137.043a45.479,45.479,0,0,1-5.729-2.145A12.12,12.12,0,0,1,11,128.073a1.341,1.341,0,0,0-1.522-1.044c-2.336.06-4.675.036-7.013.015C.7,127.028.011,126.321.008,124.531q-.014-7.423,0-14.846c0-1.848.708-2.559,2.536-2.568,2.447-.012,4.894,0,7.2,0A27.569,27.569,0,0,1,11,102.892c1.943-4.045,5.362-5.768,9.744-5.77q21.859,0,43.72,0,17.241,0,34.484,0c3.043,0,5.84.74,7.9,3.084a16.279,16.279,0,0,1,2.324,3.847c.34.722.578,1.116,1.455,1.085,2.024-.071,4.052.012,6.078-.035a3.12,3.12,0,0,1,3.014,1.313v17.3a2.931,2.931,0,0,1-2.857,1.391c-2.063-.053-4.129.016-6.193-.03-.785-.017-1.105.158-1.3,1.02a13.95,13.95,0,0,1-5.37,8.218,18.513,18.513,0,0,1-6.487,2.729H82.073c-.688-.1-1.378-.182-2.062-.3a25.918,25.918,0,0,1-16.02-9c-.9-1.068-1.638-2.27-2.508-3.365a1.91,1.91,0,0,0-3.25,0c-.462.575-.848,1.21-1.281,1.809a24.547,24.547,0,0,1-12.3,9.224c-2.265.753-4.666,1.1-7,1.631Zm37.433-35.927q-19.344,0-38.688,0a17.515,17.515,0,0,0-2.1.118,5.688,5.688,0,0,0-5.041,5.307c-.086,5.842-.151,11.691.042,17.528a9.324,9.324,0,0,0,8.429,8.754c4.926.3,9.887.256,14.824.088a20.028,20.028,0,0,0,13.428-5.783,50.737,50.737,0,0,0,4.375-5.3,5.877,5.877,0,0,1,9.448.064c.565.744,1.057,1.544,1.625,2.283,3.873,5.036,8.938,8.146,15.281,8.631a141.422,141.422,0,0,0,14.363.2c5.77-.148,9.779-4.381,9.847-10.177.059-5.142.044-10.286-.016-15.428a7.169,7.169,0,0,0-.629-2.923c-1.216-2.549-3.451-3.384-6.153-3.38q-19.52.028-39.039.008M115.69,115.16h-5.879v5.855h5.879ZM4.062,122.977H9.931v-5.8H4.062Zm-.028-9.968h5.89v-1.844H4.034ZM109.778,111h5.873v-1.781h-5.873Z" transform="translate(0 -17.32)" fill="#12263f"/>
              <path id="Trazado_115785" data-name="Trazado 115785" d="M40.732,106.846h11.8c.273,0,.546-.007.818,0,1.509.06,2.4.8,2.415,1.983s-.887,1.987-2.384,2.007c-2.491.034-4.984.012-7.476.012q-8.471,0-16.94,0c-2.587,0-3.1.505-3.1,3.042,0,2.182.007,4.362,0,6.543a2.092,2.092,0,0,1-1.356,2.223,1.884,1.884,0,0,1-2.582-1.713c-.06-3-.129-6,.053-8.991a5.472,5.472,0,0,1,5.1-4.966c4.55-.141,9.108-.039,13.663-.039v-.1" transform="translate(-3.898 -19.054)" fill="#12263f"/>
              <path id="Trazado_115786" data-name="Trazado 115786" d="M72.018,106.807c.738.035,1.48.029,2.211.117a1.833,1.833,0,0,1,1.721,1.882,1.794,1.794,0,0,1-1.649,1.925,36.075,36.075,0,0,1-4.656-.007,1.738,1.738,0,0,1-1.606-1.846,1.916,1.916,0,0,1,1.648-1.951,2.527,2.527,0,0,1,.461-.072c.623-.008,1.246,0,1.868,0l0-.045" transform="translate(-12.133 -19.048)" fill="#12263f"/>
            </g>
          </g>
        </g>
      </g>
    </g>
  </g>
</svg>
