<svg xmlns="http://www.w3.org/2000/svg" xmlns:xlink="http://www.w3.org/1999/xlink" width="324.742" height="338.259" viewBox="0 0 324.742 338.259">
  <defs>
    <filter id="Rectángulo_38017" x="0" y="0" width="324.742" height="338.259" filterUnits="userSpaceOnUse">
      <feOffset dy="3" input="SourceAlpha"/>
      <feGaussianBlur stdDeviation="5" result="blur"/>
      <feFlood flood-opacity="0.161"/>
      <feComposite operator="in" in2="blur"/>
      <feComposite in="SourceGraphic"/>
    </filter>
    <clipPath id="clip-path">
      <rect id="Rectángulo_38026" data-name="Rectángulo 38026" width="116.598" height="146.122" fill="none"/>
    </clipPath>
  </defs>
  <g id="img9" transform="translate(-165.516 -4087.827)">
    <g transform="matrix(1, 0, 0, 1, 165.52, 4087.83)" filter="url(#Rectángulo_38017)">
      <path id="Rectángulo_38017-2" data-name="Rectángulo 38017" d="M0,0H232.742a62,62,0,0,1,62,62V308.259a0,0,0,0,1,0,0H62a62,62,0,0,1-62-62V0A0,0,0,0,1,0,0Z" transform="translate(15 12)" fill="#f6f6f6"/>
    </g>
    <g id="Grupo_143251" data-name="Grupo 143251" transform="translate(234.5 4221.972)">
      <path id="Trazado_114173" data-name="Trazado 114173" d="M13.717,0V13.609H0V23H13.717V36.612h9.145V23H36.613V13.609H22.862V0Z" fill="#78b62e"/>
      <g id="Grupo_143256" data-name="Grupo 143256" transform="translate(37.902 -1.981)">
        <g id="Grupo_143256-2" data-name="Grupo 143256" clip-path="url(#clip-path)">
          <path id="Trazado_115780" data-name="Trazado 115780" d="M4.941,146.122c-3.972-1.69-4.9-3.11-4.9-7.507,0-6.658.146-13.321-.034-19.974A22.936,22.936,0,0,1,15.139,96.547c9.293-3.333,18.417-7.132,27.63-10.69a1.788,1.788,0,0,0,1.3-1.835,7.751,7.751,0,0,0-2.918-7.351c-4.1-3.5-6.07-8.409-6.826-13.854A11.411,11.411,0,0,1,25.6,57.583c-2.026-3.234-2.042-6.635-.4-10.326-1.168,0-2.139.01-3.109,0-3.629-.047-5.717-2.164-5.734-5.809-.005-1.093-.032-2.189.012-3.281A5.186,5.186,0,0,1,21.5,33.089c1.136-.033,2.274-.006,3.5-.006.251-1.267.46-2.467.727-3.654a32.832,32.832,0,0,1,9.922-17.122,3.057,3.057,0,0,0,.805-1.8c.117-1.145-.025-2.354,1.268-2.936A2.3,2.3,0,0,1,40.6,8.44c2.081-.921,4.087-1.772,6.053-2.71a1.97,1.97,0,0,0,.9-1.075A6.138,6.138,0,0,1,53.8.013q4.566-.023,9.133,0a6.087,6.087,0,0,1,6.077,4.47,2.035,2.035,0,0,0,.857,1.131c2.007.96,4.059,1.826,6.2,2.769.061-.056.208-.3.405-.352.78-.2,1.717-.681,2.326-.423a2.492,2.492,0,0,1,1.251,1.953c-.113,1.6.688,2.5,1.712,3.5a32.9,32.9,0,0,1,9.8,20.019c1.121,0,2.243-.017,3.365,0a5.207,5.207,0,0,1,5.347,5.3c.027,1.141.021,2.283,0,3.424a5.254,5.254,0,0,1-5.382,5.44c-1.036.034-2.073.005-3.112.005a33.236,33.236,0,0,1,.781,4.318,10.523,10.523,0,0,1-8.7,10.905,1.973,1.973,0,0,0-1.872,1.94A22.882,22.882,0,0,1,73.65,78.444a2.283,2.283,0,0,0-1.064,2.268A8.85,8.85,0,0,1,72.6,82c0,3.459.006,3.45,3.281,4.714q13.223,5.1,26.438,10.224a22.117,22.117,0,0,1,14.252,20.332q.051,2.139.01,4.28a2.089,2.089,0,0,1-2.122,2.332c-1.256-.007-2.072-.883-2.143-2.351a49.737,49.737,0,0,0-.357-6.96c-1.248-6.461-4.88-11.14-11.1-13.6-5.3-2.093-10.632-4.1-15.922-6.218a1.63,1.63,0,0,0-2.245.652c-3.19,4.085-6.441,8.121-9.682,12.166-2.131,2.662-4.149,2.889-6.828.742-1.928-1.544-3.814-3.14-5.72-4.711-.687-.566-3.736-.428-4.424.142-2.05,1.7-4.089,3.41-6.193,5.038-2.022,1.566-4.2,1.26-5.88-.813q-5.023-6.212-9.956-12.5a1.77,1.77,0,0,0-2.455-.713c-5.277,2.147-10.6,4.182-15.907,6.256A17.848,17.848,0,0,0,4.374,116.961c-.112,7.561-.035,15.124-.055,22.685,0,1.3.522,2.165,1.88,2.176,4.656.037,9.314.014,14.2.014V140.28q0-10.986.006-21.973a5.508,5.508,0,0,1,.14-1.549,1.944,1.944,0,0,1,2.276-1.494,1.931,1.931,0,0,1,1.827,1.862,12.083,12.083,0,0,1,.03,1.425q0,10.773,0,21.545v1.645H56.126v-1.675q0-13.911.006-27.823a6.825,6.825,0,0,1,.169-1.833,2.088,2.088,0,0,1,4.031.24,8.855,8.855,0,0,1,.072,1.564q.006,13.913,0,27.823v1.738H91.953V118.669c0-.428-.015-.857.011-1.284a2.033,2.033,0,0,1,2.01-2.142,2.06,2.06,0,0,1,2.23,2.09c.079,1.708.029,3.423.03,5.135q0,8.847,0,17.692v1.682h7.372c2.093,0,4.186.008,6.279,0,1.828-.01,2.406-.57,2.418-2.362.016-2.378-.007-4.756.009-7.134.012-1.733.878-2.773,2.224-2.726,1.295.045,2.041,1.021,2.05,2.72.011,2.093,0,4.186,0,6.278,0,4.4-.921,5.809-4.9,7.507ZM78.395,47.257c-4.839,0-9.208,0-13.576,0a12.971,12.971,0,0,1-1.709-.047,2.1,2.1,0,0,1,.016-4.178,13.184,13.184,0,0,1,1.566-.052q13.983,0,27.965,0c3.73,0,3.327.144,3.333-3.29.005-2.331,0-2.332-2.41-2.332H23.1c-2.456,0-2.46,0-2.456,2.428.006,3.24-.4,3.2,3.14,3.195q13.983-.02,27.965,0c.476,0,.953-.015,1.426.018a2.155,2.155,0,0,1,2.276,2.067,2.109,2.109,0,0,1-2.306,2.176c-4.09.042-8.18.018-12.27.019H38.565c0,4.918-.24,9.676.05,14.4.6,9.787,8.609,17.224,18.923,17.893,9.36.606,18.542-6.068,20.046-15.327.889-5.479.575-11.154.811-16.968M51.714,32.985H64.788a2.709,2.709,0,0,0,.114-.492q.01-13.115,0-26.229c0-1.347-.666-1.952-2.069-1.965-2.852-.027-5.7-.013-8.555-.008-2.085,0-2.562.492-2.564,2.627q-.008,6.914,0,13.828V32.985M48.472,81.822a35.21,35.21,0,0,1-.541,5.105,1.936,1.936,0,0,0,.382,2c2.46,3.024,4.877,6.084,7.311,9.128,1.08,1.351,4.286,1.372,5.358.034,2.17-2.709,4.309-5.442,6.514-8.122.949-1.153,1.883-2.137.956-3.841-.384-.707-.107-1.772-.136-2.674-.017-.494-.045-.988-.074-1.606a25.294,25.294,0,0,1-19.77-.02M75.649,32.991c.08-.17.154-.254.154-.338q.03-9.184.034-18.369a1.156,1.156,0,0,0-.335-.866c-1.995-1.22-4.021-2.387-6.221-3.675V32.991ZM47.362,9.9c-1.964,1.083-3.721,2.071-5.5,3.023a2.033,2.033,0,0,0-1.109,2.077c.045,5.515.02,11.03.025,16.545,0,.462.045.924.073,1.445h6.509ZM37.17,92.614l10.154,12.724,5.271-4.213c-2.852-3.569-5.653-7.1-8.5-10.588a1.222,1.222,0,0,0-1.085-.173c-1.912.691-3.8,1.454-5.839,2.25m42.263.041c-2.13-.82-3.969-1.58-5.853-2.206a1.567,1.567,0,0,0-1.339.463c-1.944,2.331-3.816,4.723-5.71,7.1-.819,1.024-1.637,2.049-2.492,3.119,1.827,1.459,3.521,2.814,5.27,4.21L79.433,92.655m.8-74.973v15.3h6.97a28.632,28.632,0,0,0-6.97-15.3M36.4,33.01V17.678A28.537,28.537,0,0,0,29.45,33.01Zm46.13,25.383a6.565,6.565,0,0,0,5.4-4.168,6.245,6.245,0,0,0-1.073-6.305,1.644,1.644,0,0,0-1.025-.623c-1.071-.082-2.153-.03-3.3-.03ZM34.087,47.04c-1.436.251-2.947.108-3.9.77-1.821,1.263-2.367,4.257-1.526,6.384a6.714,6.714,0,0,0,5.425,4.223Z" fill="#12263f"/>
          <path id="Trazado_115781" data-name="Trazado 115781" d="M40.388,125.643c-2.135,0-4.27.021-6.4-.007a2.173,2.173,0,0,1-2.429-2.044,2.207,2.207,0,0,1,2.436-2.212q6.4-.049,12.807,0a2.126,2.126,0,0,1,2.4,2.217c-.039,1.258-.9,2.018-2.4,2.039-2.134.028-4.269.007-6.4.007" fill="#12263f"/>
          <path id="Trazado_115782" data-name="Trazado 115782" d="M76.18,125.644c-2.133,0-4.267.022-6.4-.008-1.526-.021-2.357-.762-2.394-2.039a2.116,2.116,0,0,1,2.391-2.217q6.4-.051,12.8,0a2.155,2.155,0,0,1,2.408,2.216c-.041,1.251-.908,2.02-2.406,2.041-2.133.029-4.267.007-6.4.007" fill="#12263f"/>
        </g>
      </g>
    </g>
    <path id="Trazado_115802" data-name="Trazado 115802" d="M23.553,14.658V19H20.468V6.2h5.106a5.948,5.948,0,0,1,2.6.541,4.074,4.074,0,0,1,1.749,1.538,4.2,4.2,0,0,1,.62,2.263,3.7,3.7,0,0,1-1.34,2.993,5.561,5.561,0,0,1-3.678,1.121Zm0-2.382h2.021a1.906,1.906,0,0,0,1.367-.448,1.665,1.665,0,0,0,.47-1.266,2.059,2.059,0,0,0-.483-1.433,1.712,1.712,0,0,0-1.318-.545H23.553ZM37.8,12.171l-.976-.07a1.752,1.752,0,0,0-1.793.879V19H32.07V9.49h2.777l.1,1.222a2.294,2.294,0,0,1,2.083-1.4,2.888,2.888,0,0,1,.826.105Zm.378,1.986a5.613,5.613,0,0,1,.554-2.536,3.96,3.96,0,0,1,1.591-1.709,4.791,4.791,0,0,1,2.435-.6,4.373,4.373,0,0,1,3.366,1.323,5.076,5.076,0,0,1,1.23,3.6v.105a4.925,4.925,0,0,1-1.235,3.529,4.384,4.384,0,0,1-3.344,1.305,4.434,4.434,0,0,1-3.261-1.217,4.761,4.761,0,0,1-1.327-3.3Zm2.962.185a3.538,3.538,0,0,0,.413,1.934,1.376,1.376,0,0,0,1.222.615q1.582,0,1.617-2.435v-.3q0-2.558-1.635-2.558-1.485,0-1.608,2.206ZM52.109,7.126V9.49h1.564v2.057H52.109V15.9a1.111,1.111,0,0,0,.193.747,1.037,1.037,0,0,0,.765.211,4.345,4.345,0,0,0,.738-.053v2.118a5.466,5.466,0,0,1-1.67.255,3.1,3.1,0,0,1-2.259-.721,2.954,2.954,0,0,1-.729-2.188v-4.72H47.934V9.49h1.213V7.126Zm7.33,12.05A4.889,4.889,0,0,1,55.9,17.871a4.507,4.507,0,0,1-1.354-3.4v-.246a5.84,5.84,0,0,1,.541-2.575,3.955,3.955,0,0,1,1.578-1.727,4.763,4.763,0,0,1,2.461-.611,4.117,4.117,0,0,1,3.164,1.244,4.887,4.887,0,0,1,1.16,3.467v1.151H57.558a2.135,2.135,0,0,0,.694,1.257,2.066,2.066,0,0,0,1.389.457,2.662,2.662,0,0,0,2.2-.984l1.354,1.6a3.784,3.784,0,0,1-1.569,1.217A5.3,5.3,0,0,1,59.439,19.176ZM59.1,11.6q-1.3,0-1.547,1.723h2.988v-.229a1.467,1.467,0,0,0-.36-1.1A1.434,1.434,0,0,0,59.1,11.6Zm9.554,5.291a1.317,1.317,0,0,0,.967-.338,1.241,1.241,0,0,0,.334-.945h2.777a3.288,3.288,0,0,1-1.121,2.566,4.168,4.168,0,0,1-2.887,1,4.22,4.22,0,0,1-3.27-1.3,5.125,5.125,0,0,1-1.2-3.6v-.123A5.792,5.792,0,0,1,64.8,11.6a3.872,3.872,0,0,1,1.534-1.7A4.573,4.573,0,0,1,68.7,9.314a4.116,4.116,0,0,1,2.944,1.028,3.647,3.647,0,0,1,1.09,2.786H69.959A1.626,1.626,0,0,0,69.6,12a1.244,1.244,0,0,0-.967-.4q-1.151,0-1.345,1.468a10.357,10.357,0,0,0-.062,1.283,4.068,4.068,0,0,0,.343,1.986A1.187,1.187,0,0,0,68.659,16.891Zm9.352,0a1.317,1.317,0,0,0,.967-.338,1.241,1.241,0,0,0,.334-.945h2.777a3.288,3.288,0,0,1-1.121,2.566,4.168,4.168,0,0,1-2.887,1,4.22,4.22,0,0,1-3.27-1.3,5.125,5.125,0,0,1-1.2-3.6v-.123a5.792,5.792,0,0,1,.532-2.544,3.872,3.872,0,0,1,1.534-1.7,4.573,4.573,0,0,1,2.373-.593A4.116,4.116,0,0,1,81,10.343a3.647,3.647,0,0,1,1.09,2.786H79.311A1.626,1.626,0,0,0,78.951,12a1.244,1.244,0,0,0-.967-.4q-1.151,0-1.345,1.468a10.357,10.357,0,0,0-.062,1.283,4.068,4.068,0,0,0,.343,1.986A1.187,1.187,0,0,0,78.01,16.891ZM86.465,19H83.495V9.49h2.971ZM83.319,7.038A1.322,1.322,0,0,1,83.776,6a1.943,1.943,0,0,1,2.373,0,1.322,1.322,0,0,1,.457,1.037,1.322,1.322,0,0,1-.457,1.037,1.943,1.943,0,0,1-2.373,0A1.322,1.322,0,0,1,83.319,7.038Zm4.6,7.119a5.613,5.613,0,0,1,.554-2.536A3.96,3.96,0,0,1,90.06,9.912a4.791,4.791,0,0,1,2.435-.6,4.373,4.373,0,0,1,3.366,1.323,5.076,5.076,0,0,1,1.23,3.6v.105a4.925,4.925,0,0,1-1.235,3.529,4.384,4.384,0,0,1-3.344,1.305,4.434,4.434,0,0,1-3.261-1.217,4.761,4.761,0,0,1-1.327-3.3Zm2.962.185a3.538,3.538,0,0,0,.413,1.934,1.376,1.376,0,0,0,1.222.615q1.582,0,1.617-2.435v-.3q0-2.558-1.635-2.558-1.485,0-1.608,2.206ZM92.9,5.5h3.129L93.584,8.26l-2.417,0Zm8.218,3.99.1,1.116a3.225,3.225,0,0,1,2.716-1.292,2.713,2.713,0,0,1,2.219.888,4.226,4.226,0,0,1,.76,2.672V19h-2.971V13a1.6,1.6,0,0,0-.29-1.059,1.342,1.342,0,0,0-1.055-.338,1.413,1.413,0,0,0-1.292.686V19H98.339V9.49Zm11.54,4.685a5.809,5.809,0,0,1,.976-3.56,3.211,3.211,0,0,1,2.725-1.3,2.731,2.731,0,0,1,2.145,1V5.5h2.971V19h-2.663l-.149-1.02a2.8,2.8,0,0,1-2.32,1.2,3.205,3.205,0,0,1-2.689-1.3A5.993,5.993,0,0,1,112.657,14.175Zm2.962.185q0,2.531,1.477,2.531a1.458,1.458,0,0,0,1.406-.826V12.443a1.419,1.419,0,0,0-1.389-.844q-1.371,0-1.485,2.215Zm12.138,4.816a4.889,4.889,0,0,1-3.542-1.305,4.507,4.507,0,0,1-1.354-3.4v-.246a5.84,5.84,0,0,1,.541-2.575,3.955,3.955,0,0,1,1.578-1.727,4.763,4.763,0,0,1,2.461-.611,4.117,4.117,0,0,1,3.164,1.244,4.887,4.887,0,0,1,1.16,3.467v1.151h-5.889a2.135,2.135,0,0,0,.694,1.257,2.066,2.066,0,0,0,1.389.457,2.662,2.662,0,0,0,2.2-.984l1.354,1.6a3.784,3.784,0,0,1-1.569,1.217A5.3,5.3,0,0,1,127.756,19.176Zm-.334-7.576q-1.3,0-1.547,1.723h2.988v-.229a1.467,1.467,0,0,0-.36-1.1A1.434,1.434,0,0,0,127.422,11.6Zm14.036,5.291a1.317,1.317,0,0,0,.967-.338,1.241,1.241,0,0,0,.334-.945h2.777a3.288,3.288,0,0,1-1.121,2.566,4.168,4.168,0,0,1-2.887,1,4.22,4.22,0,0,1-3.27-1.3,5.125,5.125,0,0,1-1.2-3.6v-.123A5.792,5.792,0,0,1,137.6,11.6a3.872,3.872,0,0,1,1.534-1.7,4.573,4.573,0,0,1,2.373-.593,4.116,4.116,0,0,1,2.944,1.028,3.647,3.647,0,0,1,1.09,2.786h-2.777A1.626,1.626,0,0,0,142.4,12a1.244,1.244,0,0,0-.967-.4q-1.151,0-1.345,1.468a10.357,10.357,0,0,0-.062,1.283,4.068,4.068,0,0,0,.343,1.986A1.187,1.187,0,0,0,141.458,16.891ZM152.146,19a3.344,3.344,0,0,1-.281-.853,2.754,2.754,0,0,1-2.285,1.028,3.374,3.374,0,0,1-2.285-.813,2.588,2.588,0,0,1-.94-2.043,2.66,2.66,0,0,1,1.143-2.338,5.821,5.821,0,0,1,3.322-.791h.914v-.5q0-1.316-1.134-1.316a.927.927,0,0,0-1.055,1.042h-2.962a2.655,2.655,0,0,1,1.173-2.239,4.931,4.931,0,0,1,2.993-.86,4.323,4.323,0,0,1,2.874.888,3.086,3.086,0,0,1,1.081,2.435v4.21a4.311,4.311,0,0,0,.4,2V19Zm-1.854-1.934a1.652,1.652,0,0,0,.918-.237,1.487,1.487,0,0,0,.523-.536V14.772h-.861q-1.547,0-1.547,1.389a.848.848,0,0,0,.272.655A.986.986,0,0,0,150.291,17.066Zm14.88-2.742a5.8,5.8,0,0,1-.967,3.595,3.238,3.238,0,0,1-2.725,1.257,2.81,2.81,0,0,1-2.338-1.151l-.123.976h-2.654V5.5h2.962v4.755a2.711,2.711,0,0,1,2.136-.94,3.239,3.239,0,0,1,2.742,1.274,5.826,5.826,0,0,1,.967,3.586Zm-2.971-.189a3.866,3.866,0,0,0-.365-1.952,1.229,1.229,0,0,0-1.121-.584,1.418,1.418,0,0,0-1.389.763v3.773a1.426,1.426,0,0,0,1.406.755,1.258,1.258,0,0,0,1.327-1.018A7.309,7.309,0,0,0,162.2,14.135Zm8.877,5.04a4.889,4.889,0,0,1-3.542-1.305,4.507,4.507,0,0,1-1.354-3.4v-.246a5.84,5.84,0,0,1,.541-2.575A3.955,3.955,0,0,1,168.3,9.925a4.763,4.763,0,0,1,2.461-.611,4.117,4.117,0,0,1,3.164,1.244,4.887,4.887,0,0,1,1.16,3.467v1.151H169.2a2.135,2.135,0,0,0,.694,1.257,2.066,2.066,0,0,0,1.389.457,2.662,2.662,0,0,0,2.2-.984l1.354,1.6a3.784,3.784,0,0,1-1.569,1.217A5.3,5.3,0,0,1,171.078,19.176Zm-.334-7.576q-1.3,0-1.547,1.723h2.988v-.229a1.467,1.467,0,0,0-.36-1.1A1.434,1.434,0,0,0,170.744,11.6Zm9.026,5.115H184.1V19h-8.077V17.348l4.219-5.572H176.21V9.49h7.8v1.6ZM190.9,19a3.344,3.344,0,0,1-.281-.853,2.754,2.754,0,0,1-2.285,1.028,3.374,3.374,0,0,1-2.285-.813,2.588,2.588,0,0,1-.94-2.043,2.66,2.66,0,0,1,1.143-2.338,5.821,5.821,0,0,1,3.322-.791h.914v-.5q0-1.316-1.134-1.316a.927.927,0,0,0-1.055,1.042h-2.962a2.655,2.655,0,0,1,1.173-2.239,4.931,4.931,0,0,1,2.993-.86,4.323,4.323,0,0,1,2.874.888,3.086,3.086,0,0,1,1.081,2.435v4.21a4.311,4.311,0,0,0,.4,2V19Zm-1.854-1.934a1.652,1.652,0,0,0,.918-.237,1.487,1.487,0,0,0,.523-.536V14.772h-.861q-1.547,0-1.547,1.389a.848.848,0,0,0,.272.655A.986.986,0,0,0,189.042,17.066Z" transform="translate(221.005 4150.928)" fill="#12263f"/>
  </g>
</svg>
