<svg xmlns="http://www.w3.org/2000/svg" xmlns:xlink="http://www.w3.org/1999/xlink" width="1225.461" height="443.423" viewBox="0 0 1225.461 443.423">
  <defs>
    <clipPath id="clip-path">
      <path id="Rectángulo_37889" data-name="Rectángulo 37889" d="M10,0H158.076a10,10,0,0,1,10,10V70a10,10,0,0,1-10,10H10A10,10,0,0,1,0,70V10A10,10,0,0,1,10,0Z" transform="translate(397.196)" fill="none"/>
    </clipPath>
    <linearGradient id="linear-gradient" x1="-1.218" y1="13.625" x2="-1.215" y2="13.625" gradientUnits="objectBoundingBox">
      <stop offset="0" stop-color="#4090de"/>
      <stop offset="1" stop-color="#3c6d9d"/>
    </linearGradient>
    <clipPath id="clip-path-2">
      <path id="Rectángulo_37899" data-name="Rectángulo 37899" d="M10,0H158.076a10,10,0,0,1,10,10V70a10,10,0,0,1-10,10H10A10,10,0,0,1,0,70V10A10,10,0,0,1,10,0Z" transform="translate(397.196)" fill="#78b62e"/>
    </clipPath>
    <clipPath id="clip-path-4">
      <path id="Rectángulo_37891" data-name="Rectángulo 37891" d="M10,0H154.3a10,10,0,0,1,10,10V70a10,10,0,0,1-10,10H10A10,10,0,0,1,0,70V10A10,10,0,0,1,10,0Z" transform="translate(397.196)" fill="none"/>
    </clipPath>
    <clipPath id="clip-path-9">
      <path id="Trazado_116096" data-name="Trazado 116096" d="M10,0H167.946a10,10,0,0,1,10,10V70a10,10,0,0,1-10,10H10A10,10,0,0,1,0,70V10A10,10,0,0,1,10,0Z" transform="translate(397.196)" fill="none"/>
    </clipPath>
    <clipPath id="clip-path-11">
      <path id="Rectángulo_37895" data-name="Rectángulo 37895" d="M10,0H152.6a10,10,0,0,1,10,10V70a10,10,0,0,1-10,10H10A10,10,0,0,1,0,70V10A10,10,0,0,1,10,0Z" transform="translate(397.196)" fill="none"/>
    </clipPath>
    <clipPath id="clip-path-12">
      <path id="Trazado_116101" data-name="Trazado 116101" d="M10,0H152.6a10,10,0,0,1,10,10V70a10,10,0,0,1-10,10H10A10,10,0,0,1,0,70V10A10,10,0,0,1,10,0Z" transform="translate(397.196)" fill="#78b62e"/>
    </clipPath>
    <clipPath id="clip-path-13">
      <path id="Rectángulo_37897" data-name="Rectángulo 37897" d="M10,0H149.426a10,10,0,0,1,10,10V70a10,10,0,0,1-10,10H10A10,10,0,0,1,0,70V10A10,10,0,0,1,10,0Z" transform="translate(397.196)" fill="none"/>
    </clipPath>
  </defs>
  <g id="img6" transform="translate(-180 -4146.116)">
    <g id="Grupo_143180" data-name="Grupo 143180" transform="translate(-217.196 4146.116)" clip-path="url(#clip-path)">
      <rect id="Rectángulo_37888" data-name="Rectángulo 37888" width="168.075" height="80" transform="translate(397.196)" fill="url(#linear-gradient)"/>
    </g>
    <g id="Grupo_143190" data-name="Grupo 143190" transform="translate(-217.196 4330.539)" clip-path="url(#clip-path-2)">
      <rect id="Rectángulo_37898" data-name="Rectángulo 37898" width="168.075" height="80" transform="translate(397.196)" fill="#78b62e"/>
    </g>
    <g id="Grupo_143200" data-name="Grupo 143200" transform="translate(-217.196 4509.539)" clip-path="url(#clip-path-2)">
      <rect id="Rectángulo_37908" data-name="Rectángulo 37908" width="168.075" height="80" transform="translate(397.196)" fill="#78b62e"/>
    </g>
    <g id="Grupo_143182" data-name="Grupo 143182" transform="translate(52.154 4146.116)" clip-path="url(#clip-path-4)">
      <rect id="Rectángulo_37890" data-name="Rectángulo 37890" width="164.3" height="80" transform="translate(397.196)" fill="url(#linear-gradient)"/>
    </g>
    <g id="Grupo_143192" data-name="Grupo 143192" transform="translate(52.154 4330.539)" clip-path="url(#clip-path-4)">
      <rect id="Rectángulo_37900" data-name="Rectángulo 37900" width="164.3" height="80" transform="translate(397.196)" fill="url(#linear-gradient)"/>
    </g>
    <g id="Grupo_143201" data-name="Grupo 143201" transform="translate(52.154 4509.539)" clip-path="url(#clip-path-4)">
      <rect id="Rectángulo_37910" data-name="Rectángulo 37910" width="164.3" height="80" transform="translate(397.196)" fill="url(#linear-gradient)"/>
    </g>
    <g id="Grupo_143203" data-name="Grupo 143203" transform="translate(319.616 4509.539)" clip-path="url(#clip-path-4)">
      <rect id="Rectángulo_37912" data-name="Rectángulo 37912" width="164.3" height="80" transform="translate(397.196)" fill="url(#linear-gradient)"/>
    </g>
    <g id="Grupo_143205" data-name="Grupo 143205" transform="translate(590.298 4509.539)" clip-path="url(#clip-path-4)">
      <rect id="Rectángulo_37914" data-name="Rectángulo 37914" width="164.3" height="80" transform="translate(397.196)" fill="url(#linear-gradient)"/>
    </g>
    <g id="Enmascarar_grupo_142568" data-name="Enmascarar grupo 142568" transform="translate(310.616 4146.116)" clip-path="url(#clip-path-9)">
      <rect id="Rectángulo_37892" data-name="Rectángulo 37892" width="177.945" height="80" transform="translate(397.196)" fill="url(#linear-gradient)"/>
    </g>
    <g id="Grupo_143194" data-name="Grupo 143194" transform="translate(310.616 4330.539)" clip-path="url(#clip-path-9)">
      <rect id="Rectángulo_37902" data-name="Rectángulo 37902" width="177.945" height="80" transform="translate(397.196)" fill="url(#linear-gradient)"/>
    </g>
    <g id="Grupo_143186" data-name="Grupo 143186" transform="translate(587.804 4146.116)" clip-path="url(#clip-path-11)">
      <rect id="Rectángulo_37894" data-name="Rectángulo 37894" width="162.597" height="80" transform="translate(397.196)" fill="url(#linear-gradient)"/>
    </g>
    <g id="Enmascarar_grupo_142569" data-name="Enmascarar grupo 142569" transform="translate(587.804 4330.539)" clip-path="url(#clip-path-12)">
      <rect id="Rectángulo_37904" data-name="Rectángulo 37904" width="162.597" height="80" transform="translate(397.196)" fill="#78b62e"/>
    </g>
    <g id="Grupo_143188" data-name="Grupo 143188" transform="translate(848.84 4146.116)" clip-path="url(#clip-path-13)">
      <rect id="Rectángulo_37896" data-name="Rectángulo 37896" width="159.425" height="80" transform="translate(397.196)" fill="url(#linear-gradient)"/>
    </g>
    <g id="Grupo_143198" data-name="Grupo 143198" transform="translate(848.84 4330.539)" clip-path="url(#clip-path-13)">
      <rect id="Rectángulo_37906" data-name="Rectángulo 37906" width="159.425" height="80" transform="translate(397.196)" fill="url(#linear-gradient)"/>
    </g>
    <path id="Trazado_116091" data-name="Trazado 116091" d="M8.235,16.609H4.008L3.27,19h-3.3L4.667,6.2h2.9L12.3,19H8.982ZM4.746,14.228H7.5L6.117,9.789ZM16.216,19H13.245V5.5h2.971Zm4.623-9.51.1,1.116a3.27,3.27,0,0,1,2.716-1.292,2.407,2.407,0,0,1,2.435,1.433,3.165,3.165,0,0,1,2.795-1.433q2.892,0,2.971,3.5V19H28.881V13a1.813,1.813,0,0,0-.246-1.063,1.048,1.048,0,0,0-.9-.334,1.4,1.4,0,0,0-1.31.782l.009.123V19H23.467V13.015a1.906,1.906,0,0,0-.237-1.081,1.045,1.045,0,0,0-.905-.334,1.42,1.42,0,0,0-1.3.782V19H18.062V9.49ZM38.9,19a3.344,3.344,0,0,1-.281-.853,2.754,2.754,0,0,1-2.285,1.028,3.374,3.374,0,0,1-2.285-.813,2.588,2.588,0,0,1-.94-2.043,2.66,2.66,0,0,1,1.143-2.338,5.821,5.821,0,0,1,3.322-.791h.914v-.5q0-1.316-1.134-1.316A.927.927,0,0,0,36.3,12.413H33.337a2.655,2.655,0,0,1,1.173-2.239,4.931,4.931,0,0,1,2.993-.86,4.323,4.323,0,0,1,2.874.888,3.086,3.086,0,0,1,1.081,2.435v4.21a4.311,4.311,0,0,0,.4,2V19Zm-1.854-1.934a1.652,1.652,0,0,0,.918-.237,1.487,1.487,0,0,0,.523-.536V14.772h-.861q-1.547,0-1.547,1.389a.848.848,0,0,0,.272.655A.986.986,0,0,0,37.046,17.066Zm10.072-.176a1.317,1.317,0,0,0,.967-.338,1.241,1.241,0,0,0,.334-.945H51.2a3.288,3.288,0,0,1-1.121,2.566,4.168,4.168,0,0,1-2.887,1,4.22,4.22,0,0,1-3.27-1.3,5.125,5.125,0,0,1-1.2-3.6v-.123a5.792,5.792,0,0,1,.532-2.544,3.872,3.872,0,0,1,1.534-1.7,4.573,4.573,0,0,1,2.373-.593,4.116,4.116,0,0,1,2.944,1.028,3.647,3.647,0,0,1,1.09,2.786H48.419A1.626,1.626,0,0,0,48.059,12a1.244,1.244,0,0,0-.967-.4q-1.151,0-1.345,1.468a10.357,10.357,0,0,0-.062,1.283,4.068,4.068,0,0,0,.343,1.986A1.187,1.187,0,0,0,47.118,16.891Zm9.932,2.285a4.889,4.889,0,0,1-3.542-1.305,4.507,4.507,0,0,1-1.354-3.4v-.246a5.84,5.84,0,0,1,.541-2.575,3.955,3.955,0,0,1,1.578-1.727,4.763,4.763,0,0,1,2.461-.611A4.117,4.117,0,0,1,59.9,10.558a4.887,4.887,0,0,1,1.16,3.467v1.151H55.169a2.135,2.135,0,0,0,.694,1.257,2.066,2.066,0,0,0,1.389.457,2.662,2.662,0,0,0,2.2-.984l1.354,1.6a3.784,3.784,0,0,1-1.569,1.217A5.3,5.3,0,0,1,57.05,19.176ZM56.716,11.6q-1.3,0-1.547,1.723h2.988v-.229a1.467,1.467,0,0,0-.36-1.1A1.434,1.434,0,0,0,56.716,11.6ZM64.969,9.49l.1,1.116a3.225,3.225,0,0,1,2.716-1.292A2.713,2.713,0,0,1,70,10.2a4.226,4.226,0,0,1,.76,2.672V19H67.79V13a1.6,1.6,0,0,0-.29-1.059,1.342,1.342,0,0,0-1.055-.338,1.413,1.413,0,0,0-1.292.686V19H62.191V9.49ZM77.757,19a3.344,3.344,0,0,1-.281-.853,2.754,2.754,0,0,1-2.285,1.028,3.374,3.374,0,0,1-2.285-.813,2.588,2.588,0,0,1-.94-2.043,2.66,2.66,0,0,1,1.143-2.338,5.821,5.821,0,0,1,3.322-.791h.914v-.5q0-1.316-1.134-1.316a.927.927,0,0,0-1.055,1.042H72.193a2.655,2.655,0,0,1,1.173-2.239,4.931,4.931,0,0,1,2.993-.86,4.323,4.323,0,0,1,2.874.888,3.086,3.086,0,0,1,1.081,2.435v4.21a4.311,4.311,0,0,0,.4,2V19ZM75.9,17.066a1.652,1.652,0,0,0,.918-.237,1.487,1.487,0,0,0,.523-.536V14.772h-.861q-1.547,0-1.547,1.389a.848.848,0,0,0,.272.655A.986.986,0,0,0,75.9,17.066ZM84.753,9.49l.1,1.116a3.27,3.27,0,0,1,2.716-1.292A2.407,2.407,0,0,1,90,10.747a3.165,3.165,0,0,1,2.795-1.433q2.892,0,2.971,3.5V19H92.795V13a1.813,1.813,0,0,0-.246-1.063,1.048,1.048,0,0,0-.9-.334,1.4,1.4,0,0,0-1.31.782l.009.123V19H87.381V13.015a1.906,1.906,0,0,0-.237-1.081,1.045,1.045,0,0,0-.905-.334,1.42,1.42,0,0,0-1.3.782V19H81.976V9.49ZM100.582,19H97.611V9.49h2.971ZM97.436,7.038A1.322,1.322,0,0,1,97.893,6a1.943,1.943,0,0,1,2.373,0,1.322,1.322,0,0,1,.457,1.037,1.322,1.322,0,0,1-.457,1.037,1.943,1.943,0,0,1-2.373,0A1.322,1.322,0,0,1,97.436,7.038Zm9.571,12.138a4.889,4.889,0,0,1-3.542-1.305,4.507,4.507,0,0,1-1.354-3.4v-.246a5.84,5.84,0,0,1,.541-2.575,3.955,3.955,0,0,1,1.578-1.727,4.763,4.763,0,0,1,2.461-.611,4.117,4.117,0,0,1,3.164,1.244,4.887,4.887,0,0,1,1.16,3.467v1.151h-5.889a2.135,2.135,0,0,0,.694,1.257,2.066,2.066,0,0,0,1.389.457,2.662,2.662,0,0,0,2.2-.984l1.354,1.6a3.784,3.784,0,0,1-1.569,1.217A5.3,5.3,0,0,1,107.007,19.176Zm-.334-7.576q-1.3,0-1.547,1.723h2.988v-.229a1.467,1.467,0,0,0-.36-1.1A1.434,1.434,0,0,0,106.673,11.6Zm8.253-2.109.1,1.116a3.225,3.225,0,0,1,2.716-1.292,2.713,2.713,0,0,1,2.219.888,4.226,4.226,0,0,1,.76,2.672V19h-2.971V13a1.6,1.6,0,0,0-.29-1.059A1.342,1.342,0,0,0,116.4,11.6a1.413,1.413,0,0,0-1.292.686V19h-2.962V9.49Zm10.881-2.364V9.49h1.564v2.057h-1.564V15.9a1.111,1.111,0,0,0,.193.747,1.037,1.037,0,0,0,.765.211,4.345,4.345,0,0,0,.738-.053v2.118a5.466,5.466,0,0,1-1.67.255,3.1,3.1,0,0,1-2.259-.721,2.954,2.954,0,0,1-.729-2.188v-4.72h-1.213V9.49h1.213V7.126Zm2.092,7.031a5.613,5.613,0,0,1,.554-2.536,3.96,3.96,0,0,1,1.591-1.709,4.791,4.791,0,0,1,2.435-.6,4.373,4.373,0,0,1,3.366,1.323,5.076,5.076,0,0,1,1.23,3.6v.105a4.925,4.925,0,0,1-1.235,3.529,4.384,4.384,0,0,1-3.344,1.305,4.434,4.434,0,0,1-3.261-1.217,4.761,4.761,0,0,1-1.327-3.3Zm2.962.185a3.538,3.538,0,0,0,.413,1.934,1.376,1.376,0,0,0,1.222.615q1.582,0,1.617-2.435v-.3q0-2.558-1.635-2.558-1.485,0-1.608,2.206Z" transform="translate(191.552 4168.938)" fill="#fff"/>
    <path id="Trazado_116092" data-name="Trazado 116092" d="M30.844,14.658V19H27.759V6.2h5.106a5.948,5.948,0,0,1,2.6.541,4.074,4.074,0,0,1,1.749,1.538,4.2,4.2,0,0,1,.62,2.263,3.7,3.7,0,0,1-1.34,2.993,5.561,5.561,0,0,1-3.678,1.121Zm0-2.382h2.021a1.906,1.906,0,0,0,1.367-.448,1.665,1.665,0,0,0,.47-1.266,2.059,2.059,0,0,0-.483-1.433A1.712,1.712,0,0,0,32.9,8.585H30.844Zm13.1,6.9A4.889,4.889,0,0,1,40.4,17.871a4.507,4.507,0,0,1-1.354-3.4v-.246a5.84,5.84,0,0,1,.541-2.575,3.955,3.955,0,0,1,1.578-1.727,4.763,4.763,0,0,1,2.461-.611,4.117,4.117,0,0,1,3.164,1.244,4.887,4.887,0,0,1,1.16,3.467v1.151H42.058a2.135,2.135,0,0,0,.694,1.257,2.066,2.066,0,0,0,1.389.457,2.662,2.662,0,0,0,2.2-.984l1.354,1.6a3.784,3.784,0,0,1-1.569,1.217A5.3,5.3,0,0,1,43.939,19.176ZM43.605,11.6q-1.3,0-1.547,1.723h2.988v-.229a1.467,1.467,0,0,0-.36-1.1A1.434,1.434,0,0,0,43.605,11.6ZM52.263,19H49.292V5.5h2.971Zm4.948,0H54.24V5.5h2.971Zm6.425.176a4.889,4.889,0,0,1-3.542-1.305,4.507,4.507,0,0,1-1.354-3.4v-.246a5.84,5.84,0,0,1,.541-2.575,3.955,3.955,0,0,1,1.578-1.727,4.763,4.763,0,0,1,2.461-.611,4.117,4.117,0,0,1,3.164,1.244,4.887,4.887,0,0,1,1.16,3.467v1.151H61.755a2.135,2.135,0,0,0,.694,1.257,2.066,2.066,0,0,0,1.389.457,2.662,2.662,0,0,0,2.2-.984l1.354,1.6a3.784,3.784,0,0,1-1.569,1.217A5.3,5.3,0,0,1,63.636,19.176ZM63.3,11.6q-1.3,0-1.547,1.723h2.988v-.229a1.467,1.467,0,0,0-.36-1.1A1.434,1.434,0,0,0,63.3,11.6Zm8.982-4.474V9.49h1.564v2.057H72.284V15.9a1.111,1.111,0,0,0,.193.747,1.037,1.037,0,0,0,.765.211,4.345,4.345,0,0,0,.738-.053v2.118a5.466,5.466,0,0,1-1.67.255,3.1,3.1,0,0,1-2.259-.721,2.954,2.954,0,0,1-.729-2.188v-4.72H68.109V9.49h1.213V7.126ZM78.138,19H75.167V9.49h2.971ZM74.991,7.038A1.322,1.322,0,0,1,75.448,6a1.943,1.943,0,0,1,2.373,0,1.322,1.322,0,0,1,.457,1.037,1.322,1.322,0,0,1-.457,1.037,1.943,1.943,0,0,1-2.373,0A1.322,1.322,0,0,1,74.991,7.038Zm8.464,9.677h4.333V19H79.711V17.348l4.219-5.572H79.9V9.49h7.8v1.6ZM94.582,19a3.344,3.344,0,0,1-.281-.853,2.754,2.754,0,0,1-2.285,1.028,3.374,3.374,0,0,1-2.285-.813,2.588,2.588,0,0,1-.94-2.043,2.66,2.66,0,0,1,1.143-2.338,5.821,5.821,0,0,1,3.322-.791h.914v-.5q0-1.316-1.134-1.316a.927.927,0,0,0-1.055,1.042H89.018a2.655,2.655,0,0,1,1.173-2.239,4.931,4.931,0,0,1,2.993-.86,4.323,4.323,0,0,1,2.874.888,3.086,3.086,0,0,1,1.081,2.435v4.21a4.311,4.311,0,0,0,.4,2V19Zm-1.854-1.934a1.652,1.652,0,0,0,.918-.237,1.487,1.487,0,0,0,.523-.536V14.772h-.861q-1.547,0-1.547,1.389a.848.848,0,0,0,.272.655A.986.986,0,0,0,92.727,17.066Zm5.678-2.892a5.809,5.809,0,0,1,.976-3.56,3.211,3.211,0,0,1,2.725-1.3,2.731,2.731,0,0,1,2.145,1V5.5h2.971V19h-2.663l-.149-1.02a2.8,2.8,0,0,1-2.32,1.2,3.205,3.205,0,0,1-2.689-1.3A5.993,5.993,0,0,1,98.405,14.175Zm2.962.185q0,2.531,1.477,2.531a1.458,1.458,0,0,0,1.406-.826V12.443a1.419,1.419,0,0,0-1.389-.844q-1.371,0-1.485,2.215Zm7.163-.2a5.613,5.613,0,0,1,.554-2.536,3.96,3.96,0,0,1,1.591-1.709,4.791,4.791,0,0,1,2.435-.6,4.373,4.373,0,0,1,3.366,1.323,5.076,5.076,0,0,1,1.23,3.6v.105a4.925,4.925,0,0,1-1.235,3.529,4.384,4.384,0,0,1-3.344,1.305,4.434,4.434,0,0,1-3.261-1.217,4.761,4.761,0,0,1-1.327-3.3Zm2.962.185a3.538,3.538,0,0,0,.413,1.934,1.376,1.376,0,0,0,1.222.615q1.582,0,1.617-2.435v-.3q0-2.558-1.635-2.558-1.485,0-1.608,2.206Z" transform="translate(191.552 4353.36)" fill="#fff"/>
    <path id="Trazado_116093" data-name="Trazado 116093" d="M47.556,13.568H42.7v3.059h5.73V19H39.62V6.2h8.833V8.585H42.7v2.7h4.852Zm5.854-1.459,1.38-2.619h3.076l-2.5,4.632L57.989,19H54.895L53.4,16.188,51.933,19H48.822l2.637-4.878-2.5-4.632h3.111Zm8.859-4.983V9.49h1.564v2.057H62.269V15.9a1.111,1.111,0,0,0,.193.747,1.037,1.037,0,0,0,.765.211,4.345,4.345,0,0,0,.738-.053v2.118a5.466,5.466,0,0,1-1.67.255,3.1,3.1,0,0,1-2.259-.721,2.954,2.954,0,0,1-.729-2.188v-4.72H58.094V9.49h1.213V7.126Zm8.481,5.045-.976-.07a1.752,1.752,0,0,0-1.793.879V19H65.02V9.49H67.8l.1,1.222a2.294,2.294,0,0,1,2.083-1.4,2.888,2.888,0,0,1,.826.105Zm6.732,5.8a3.054,3.054,0,0,1-2.54,1.2,3,3,0,0,1-2.369-.91,3.826,3.826,0,0,1-.8-2.615V9.49h2.962v6.179a1.065,1.065,0,0,0,1.187,1.222,1.548,1.548,0,0,0,1.45-.729V9.49h2.979V19H77.571ZM85.094,19H82.123V9.49h2.971ZM81.948,7.038A1.322,1.322,0,0,1,82.4,6a1.943,1.943,0,0,1,2.373,0,1.322,1.322,0,0,1,.457,1.037,1.322,1.322,0,0,1-.457,1.037,1.943,1.943,0,0,1-2.373,0A1.322,1.322,0,0,1,81.948,7.038Zm4.6,7.137a5.809,5.809,0,0,1,.976-3.56,3.211,3.211,0,0,1,2.725-1.3,2.731,2.731,0,0,1,2.145,1V5.5H95.36V19H92.7l-.149-1.02a2.8,2.8,0,0,1-2.32,1.2,3.205,3.205,0,0,1-2.689-1.3A5.993,5.993,0,0,1,86.544,14.175Zm2.962.185q0,2.531,1.477,2.531a1.458,1.458,0,0,0,1.406-.826V12.443A1.419,1.419,0,0,0,91,11.6q-1.371,0-1.485,2.215Zm7.163-.2a5.613,5.613,0,0,1,.554-2.536,3.96,3.96,0,0,1,1.591-1.709,4.791,4.791,0,0,1,2.435-.6,4.373,4.373,0,0,1,3.366,1.323,5.076,5.076,0,0,1,1.23,3.6v.105a4.925,4.925,0,0,1-1.235,3.529,4.384,4.384,0,0,1-3.344,1.305,4.434,4.434,0,0,1-3.261-1.217,4.761,4.761,0,0,1-1.327-3.3Zm2.962.185a3.538,3.538,0,0,0,.413,1.934,1.376,1.376,0,0,0,1.222.615q1.582,0,1.617-2.435v-.3q0-2.558-1.635-2.558-1.485,0-1.608,2.206Z" transform="translate(191.552 4532.36)" fill="#fff"/>
    <path id="Trazado_116106" data-name="Trazado 116106" d="M35.515,14.474h-1.67V19H30.76V6.2H35.8a5.621,5.621,0,0,1,3.56,1.01,3.421,3.421,0,0,1,1.283,2.853,4.155,4.155,0,0,1-.541,2.213A3.837,3.837,0,0,1,38.407,13.7l2.672,5.167V19h-3.3ZM33.845,12.1H35.8a1.751,1.751,0,0,0,1.323-.463,1.788,1.788,0,0,0,.444-1.291,1.809,1.809,0,0,0-.448-1.3A1.735,1.735,0,0,0,35.8,8.576H33.845Zm13.122,7.075a4.889,4.889,0,0,1-3.542-1.305,4.507,4.507,0,0,1-1.354-3.4v-.246a5.84,5.84,0,0,1,.541-2.575A3.955,3.955,0,0,1,44.19,9.925a4.763,4.763,0,0,1,2.461-.611,4.117,4.117,0,0,1,3.164,1.244,4.887,4.887,0,0,1,1.16,3.467v1.151H45.086a2.135,2.135,0,0,0,.694,1.257,2.066,2.066,0,0,0,1.389.457,2.662,2.662,0,0,0,2.2-.984l1.354,1.6a3.784,3.784,0,0,1-1.569,1.217A5.3,5.3,0,0,1,46.967,19.176ZM46.633,11.6q-1.3,0-1.547,1.723h2.988v-.229a1.467,1.467,0,0,0-.36-1.1A1.434,1.434,0,0,0,46.633,11.6Zm9.554,5.291a1.317,1.317,0,0,0,.967-.338,1.241,1.241,0,0,0,.334-.945h2.777a3.288,3.288,0,0,1-1.121,2.566,4.168,4.168,0,0,1-2.887,1,4.22,4.22,0,0,1-3.27-1.3,5.125,5.125,0,0,1-1.2-3.6v-.123a5.792,5.792,0,0,1,.532-2.544,3.872,3.872,0,0,1,1.534-1.7,4.573,4.573,0,0,1,2.373-.593,4.116,4.116,0,0,1,2.944,1.028,3.647,3.647,0,0,1,1.09,2.786H57.488A1.626,1.626,0,0,0,57.127,12a1.244,1.244,0,0,0-.967-.4q-1.151,0-1.345,1.468a10.357,10.357,0,0,0-.062,1.283,4.068,4.068,0,0,0,.343,1.986A1.187,1.187,0,0,0,56.187,16.891Zm9.932,2.285a4.889,4.889,0,0,1-3.542-1.305,4.507,4.507,0,0,1-1.354-3.4v-.246a5.84,5.84,0,0,1,.541-2.575,3.955,3.955,0,0,1,1.578-1.727A4.763,4.763,0,0,1,65.8,9.314a4.117,4.117,0,0,1,3.164,1.244,4.887,4.887,0,0,1,1.16,3.467v1.151H64.238a2.135,2.135,0,0,0,.694,1.257,2.066,2.066,0,0,0,1.389.457,2.662,2.662,0,0,0,2.2-.984l1.354,1.6A3.784,3.784,0,0,1,68.3,18.723,5.3,5.3,0,0,1,66.119,19.176ZM65.785,11.6q-1.3,0-1.547,1.723h2.988v-.229a1.467,1.467,0,0,0-.36-1.1A1.434,1.434,0,0,0,65.785,11.6Zm14.361,2.716a5.735,5.735,0,0,1-1,3.538,3.2,3.2,0,0,1-2.694,1.323,2.742,2.742,0,0,1-2.153-.958v4.438H71.339V9.49h2.769l.088.879a2.742,2.742,0,0,1,2.241-1.055,3.224,3.224,0,0,1,2.733,1.3,5.805,5.805,0,0,1,.976,3.564Zm-2.962-.185q0-2.531-1.477-2.531a1.394,1.394,0,0,0-1.406.756V16.1a1.439,1.439,0,0,0,1.424.791q1.415,0,1.459-2.443Zm8.288,2.76a1.317,1.317,0,0,0,.967-.338,1.241,1.241,0,0,0,.334-.945H89.55a3.288,3.288,0,0,1-1.121,2.566,4.168,4.168,0,0,1-2.887,1,4.22,4.22,0,0,1-3.27-1.3,5.125,5.125,0,0,1-1.2-3.6v-.123a5.792,5.792,0,0,1,.532-2.544,3.872,3.872,0,0,1,1.534-1.7,4.573,4.573,0,0,1,2.373-.593,4.116,4.116,0,0,1,2.944,1.028,3.647,3.647,0,0,1,1.09,2.786H86.773A1.626,1.626,0,0,0,86.412,12a1.244,1.244,0,0,0-.967-.4q-1.151,0-1.345,1.468a10.357,10.357,0,0,0-.062,1.283,4.068,4.068,0,0,0,.343,1.986A1.187,1.187,0,0,0,85.472,16.891ZM93.927,19H90.956V9.49h2.971ZM90.781,7.038A1.322,1.322,0,0,1,91.238,6a1.943,1.943,0,0,1,2.373,0,1.322,1.322,0,0,1,.457,1.037,1.322,1.322,0,0,1-.457,1.037,1.943,1.943,0,0,1-2.373,0A1.322,1.322,0,0,1,90.781,7.038Zm4.6,7.119a5.613,5.613,0,0,1,.554-2.536,3.96,3.96,0,0,1,1.591-1.709,4.791,4.791,0,0,1,2.435-.6,4.373,4.373,0,0,1,3.366,1.323,5.076,5.076,0,0,1,1.23,3.6v.105a4.925,4.925,0,0,1-1.235,3.529,4.384,4.384,0,0,1-3.344,1.305,4.434,4.434,0,0,1-3.261-1.217,4.761,4.761,0,0,1-1.327-3.3Zm2.962.185a3.538,3.538,0,0,0,.413,1.934,1.376,1.376,0,0,0,1.222.615q1.582,0,1.617-2.435v-.3q0-2.558-1.635-2.558-1.485,0-1.608,2.206ZM100.361,5.5h3.129l-2.443,2.76-2.417,0Zm8.218,3.99.1,1.116a3.225,3.225,0,0,1,2.716-1.292,2.713,2.713,0,0,1,2.219.888,4.226,4.226,0,0,1,.76,2.672V19H111.4V13a1.6,1.6,0,0,0-.29-1.059,1.342,1.342,0,0,0-1.055-.338,1.413,1.413,0,0,0-1.292.686V19H105.8V9.49Z" transform="translate(459.014 4168.938)" fill="#fff"/>
    <path id="Trazado_116095" data-name="Trazado 116095" d="M30.817,8.585H26.976V19H23.891V8.585H20.121V6.2h10.7Zm6.346,3.586-.976-.07a1.752,1.752,0,0,0-1.793.879V19H31.432V9.49H34.21l.1,1.222a2.294,2.294,0,0,1,2.083-1.4,2.888,2.888,0,0,1,.826.105ZM43.324,19a3.344,3.344,0,0,1-.281-.853,2.754,2.754,0,0,1-2.285,1.028,3.374,3.374,0,0,1-2.285-.813,2.588,2.588,0,0,1-.94-2.043,2.66,2.66,0,0,1,1.143-2.338A5.821,5.821,0,0,1,42,13.19h.914v-.5q0-1.316-1.134-1.316a.927.927,0,0,0-1.055,1.042H37.761a2.655,2.655,0,0,1,1.173-2.239,4.931,4.931,0,0,1,2.993-.86A4.323,4.323,0,0,1,44.8,10.2a3.086,3.086,0,0,1,1.081,2.435v4.21a4.311,4.311,0,0,0,.4,2V19ZM41.47,17.066a1.652,1.652,0,0,0,.918-.237,1.487,1.487,0,0,0,.523-.536V14.772H42.05q-1.547,0-1.547,1.389a.848.848,0,0,0,.272.655A.986.986,0,0,0,41.47,17.066Zm9.5-9.94V9.49h1.564v2.057H50.971V15.9a1.111,1.111,0,0,0,.193.747,1.037,1.037,0,0,0,.765.211,4.345,4.345,0,0,0,.738-.053v2.118a5.466,5.466,0,0,1-1.67.255,3.1,3.1,0,0,1-2.259-.721,2.954,2.954,0,0,1-.729-2.188v-4.72H46.8V9.49h1.213V7.126ZM59.057,19a3.344,3.344,0,0,1-.281-.853,2.754,2.754,0,0,1-2.285,1.028,3.374,3.374,0,0,1-2.285-.813,2.588,2.588,0,0,1-.94-2.043,2.66,2.66,0,0,1,1.143-2.338,5.821,5.821,0,0,1,3.322-.791h.914v-.5q0-1.316-1.134-1.316a.927.927,0,0,0-1.055,1.042H53.493a2.655,2.655,0,0,1,1.173-2.239,4.931,4.931,0,0,1,2.993-.86,4.323,4.323,0,0,1,2.874.888,3.086,3.086,0,0,1,1.081,2.435v4.21a4.311,4.311,0,0,0,.4,2V19ZM57.2,17.066a1.652,1.652,0,0,0,.918-.237,1.487,1.487,0,0,0,.523-.536V14.772h-.861q-1.547,0-1.547,1.389a.848.848,0,0,0,.272.655A.986.986,0,0,0,57.2,17.066ZM66.053,9.49l.1,1.116a3.27,3.27,0,0,1,2.716-1.292A2.407,2.407,0,0,1,71.3,10.747a3.165,3.165,0,0,1,2.795-1.433q2.892,0,2.971,3.5V19H74.095V13a1.813,1.813,0,0,0-.246-1.063,1.048,1.048,0,0,0-.9-.334,1.4,1.4,0,0,0-1.31.782l.009.123V19H68.681V13.015a1.906,1.906,0,0,0-.237-1.081,1.045,1.045,0,0,0-.905-.334,1.42,1.42,0,0,0-1.3.782V19H63.275V9.49ZM81.882,19H78.911V9.49h2.971ZM78.735,7.038A1.322,1.322,0,0,1,79.192,6a1.943,1.943,0,0,1,2.373,0,1.322,1.322,0,0,1,.457,1.037,1.322,1.322,0,0,1-.457,1.037,1.943,1.943,0,0,1-2.373,0A1.322,1.322,0,0,1,78.735,7.038Zm9.571,12.138a4.889,4.889,0,0,1-3.542-1.305,4.507,4.507,0,0,1-1.354-3.4v-.246a5.84,5.84,0,0,1,.541-2.575,3.955,3.955,0,0,1,1.578-1.727,4.763,4.763,0,0,1,2.461-.611,4.117,4.117,0,0,1,3.164,1.244,4.887,4.887,0,0,1,1.16,3.467v1.151H86.426a2.135,2.135,0,0,0,.694,1.257,2.066,2.066,0,0,0,1.389.457,2.662,2.662,0,0,0,2.2-.984l1.354,1.6a3.784,3.784,0,0,1-1.569,1.217A5.3,5.3,0,0,1,88.307,19.176ZM87.973,11.6q-1.3,0-1.547,1.723h2.988v-.229a1.467,1.467,0,0,0-.36-1.1A1.434,1.434,0,0,0,87.973,11.6ZM96.225,9.49l.1,1.116a3.225,3.225,0,0,1,2.716-1.292,2.713,2.713,0,0,1,2.219.888,4.226,4.226,0,0,1,.76,2.672V19H99.047V13a1.6,1.6,0,0,0-.29-1.059A1.342,1.342,0,0,0,97.7,11.6a1.413,1.413,0,0,0-1.292.686V19H93.448V9.49Zm10.881-2.364V9.49h1.564v2.057h-1.564V15.9a1.111,1.111,0,0,0,.193.747,1.037,1.037,0,0,0,.765.211,4.345,4.345,0,0,0,.738-.053v2.118a5.466,5.466,0,0,1-1.67.255,3.1,3.1,0,0,1-2.259-.721,2.954,2.954,0,0,1-.729-2.188v-4.72h-1.213V9.49h1.213V7.126Zm2.092,7.031a5.613,5.613,0,0,1,.554-2.536,3.96,3.96,0,0,1,1.591-1.709,4.791,4.791,0,0,1,2.435-.6,4.373,4.373,0,0,1,3.366,1.323,5.076,5.076,0,0,1,1.23,3.6v.105a4.925,4.925,0,0,1-1.235,3.529,4.384,4.384,0,0,1-3.344,1.305,4.434,4.434,0,0,1-3.261-1.217,4.761,4.761,0,0,1-1.327-3.3Zm2.962.185a3.538,3.538,0,0,0,.413,1.934,1.376,1.376,0,0,0,1.222.615q1.582,0,1.617-2.435v-.3q0-2.558-1.635-2.558-1.485,0-1.608,2.206Zm8.534,5.757h-2.1l4.368-13.9h2.109ZM29.688,44H26.717V30.5h2.971Zm4.948,0H31.665V34.49h2.971ZM31.49,32.038A1.322,1.322,0,0,1,31.947,31a1.943,1.943,0,0,1,2.373,0,1.405,1.405,0,0,1,0,2.074,1.943,1.943,0,0,1-2.373,0A1.322,1.322,0,0,1,31.49,32.038Zm7.77,2.452.1,1.116a3.27,3.27,0,0,1,2.716-1.292,2.407,2.407,0,0,1,2.435,1.433A3.165,3.165,0,0,1,47.3,34.314q2.892,0,2.971,3.5V44H47.3V38a1.813,1.813,0,0,0-.246-1.063,1.048,1.048,0,0,0-.9-.334,1.4,1.4,0,0,0-1.31.782l.009.123V44H41.887V38.015a1.906,1.906,0,0,0-.237-1.081,1.045,1.045,0,0,0-.905-.334,1.42,1.42,0,0,0-1.3.782V44H36.482V34.49Zm21.533,4.825a5.735,5.735,0,0,1-1,3.538A3.2,3.2,0,0,1,57.1,44.176a2.742,2.742,0,0,1-2.153-.958v4.438H51.986V34.49h2.769l.088.879a2.742,2.742,0,0,1,2.241-1.055,3.224,3.224,0,0,1,2.733,1.3,5.805,5.805,0,0,1,.976,3.564Zm-2.962-.185q0-2.531-1.477-2.531a1.394,1.394,0,0,0-1.406.756V41.1a1.439,1.439,0,0,0,1.424.791q1.415,0,1.459-2.443ZM65.222,44H62.251V34.49h2.971ZM62.076,32.038A1.322,1.322,0,0,1,62.533,31a1.943,1.943,0,0,1,2.373,0,1.405,1.405,0,0,1,0,2.074,1.943,1.943,0,0,1-2.373,0A1.322,1.322,0,0,1,62.076,32.038Zm9.571,12.138A4.889,4.889,0,0,1,68.1,42.871a4.507,4.507,0,0,1-1.354-3.4v-.246a5.84,5.84,0,0,1,.541-2.575,3.955,3.955,0,0,1,1.578-1.727,4.763,4.763,0,0,1,2.461-.611,4.117,4.117,0,0,1,3.164,1.244,4.887,4.887,0,0,1,1.16,3.467v1.151H69.766a2.135,2.135,0,0,0,.694,1.257,2.066,2.066,0,0,0,1.389.457,2.662,2.662,0,0,0,2.2-.984l1.354,1.6a3.784,3.784,0,0,1-1.569,1.217A5.3,5.3,0,0,1,71.647,44.176ZM71.313,36.6q-1.3,0-1.547,1.723h2.988v-.229a1.467,1.467,0,0,0-.36-1.1A1.434,1.434,0,0,0,71.313,36.6Zm9.026,5.115h4.333V44H76.6V42.348l4.219-5.572H76.78V34.49h7.8v1.6ZM91.466,44a3.344,3.344,0,0,1-.281-.853A2.754,2.754,0,0,1,88.9,44.176a3.374,3.374,0,0,1-2.285-.813,2.588,2.588,0,0,1-.94-2.043,2.66,2.66,0,0,1,1.143-2.338,5.821,5.821,0,0,1,3.322-.791h.914v-.5q0-1.316-1.134-1.316a.927.927,0,0,0-1.055,1.042H85.9a2.655,2.655,0,0,1,1.173-2.239,4.931,4.931,0,0,1,2.993-.86,4.323,4.323,0,0,1,2.874.888,3.086,3.086,0,0,1,1.081,2.435v4.21a4.311,4.311,0,0,0,.4,2V44Zm-1.854-1.934a1.652,1.652,0,0,0,.918-.237,1.487,1.487,0,0,0,.523-.536V39.772h-.861q-1.547,0-1.547,1.389a.848.848,0,0,0,.272.655A.986.986,0,0,0,89.612,42.066Zm10.16-2.892a5.809,5.809,0,0,1,.976-3.56,3.211,3.211,0,0,1,2.725-1.3,2.731,2.731,0,0,1,2.145,1V30.5h2.971V44h-2.663l-.149-1.02a2.8,2.8,0,0,1-2.32,1.2,3.205,3.205,0,0,1-2.689-1.3A5.993,5.993,0,0,1,99.772,39.175Zm2.962.185q0,2.531,1.477,2.531a1.458,1.458,0,0,0,1.406-.826V37.443a1.419,1.419,0,0,0-1.389-.844q-1.371,0-1.485,2.215Zm12.138,4.816a4.889,4.889,0,0,1-3.542-1.305,4.507,4.507,0,0,1-1.354-3.4v-.246a5.84,5.84,0,0,1,.541-2.575,3.955,3.955,0,0,1,1.578-1.727,4.763,4.763,0,0,1,2.461-.611,4.117,4.117,0,0,1,3.164,1.244,4.887,4.887,0,0,1,1.16,3.467v1.151h-5.889a2.135,2.135,0,0,0,.694,1.257,2.066,2.066,0,0,0,1.389.457,2.662,2.662,0,0,0,2.2-.984l1.354,1.6a3.784,3.784,0,0,1-1.569,1.217A5.3,5.3,0,0,1,114.871,44.176Zm-.334-7.576q-1.3,0-1.547,1.723h2.988v-.229a1.467,1.467,0,0,0-.36-1.1A1.434,1.434,0,0,0,114.537,36.6ZM19.216,59.49l.1,1.116a3.27,3.27,0,0,1,2.716-1.292,2.407,2.407,0,0,1,2.435,1.433,3.165,3.165,0,0,1,2.795-1.433q2.892,0,2.971,3.5V69H27.258V63a1.813,1.813,0,0,0-.246-1.063,1.048,1.048,0,0,0-.9-.334,1.4,1.4,0,0,0-1.31.782l.009.123V69H21.844V63.015a1.906,1.906,0,0,0-.237-1.081A1.045,1.045,0,0,0,20.7,61.6a1.42,1.42,0,0,0-1.3.782V69H16.438V59.49ZM37.277,69A3.344,3.344,0,0,1,37,68.147a2.754,2.754,0,0,1-2.285,1.028,3.374,3.374,0,0,1-2.285-.813,2.588,2.588,0,0,1-.94-2.043,2.66,2.66,0,0,1,1.143-2.338,5.821,5.821,0,0,1,3.322-.791h.914v-.5q0-1.316-1.134-1.316a.927.927,0,0,0-1.055,1.042H31.714a2.655,2.655,0,0,1,1.173-2.239,4.931,4.931,0,0,1,2.993-.86,4.323,4.323,0,0,1,2.874.888,3.086,3.086,0,0,1,1.081,2.435v4.21a4.311,4.311,0,0,0,.4,2V69Zm-1.854-1.934a1.652,1.652,0,0,0,.918-.237,1.487,1.487,0,0,0,.523-.536V64.772H36q-1.547,0-1.547,1.389a.848.848,0,0,0,.272.655A.986.986,0,0,0,35.423,67.066Zm9.5-9.94V59.49h1.564v2.057H44.924V65.9a1.111,1.111,0,0,0,.193.747,1.037,1.037,0,0,0,.765.211,4.345,4.345,0,0,0,.738-.053v2.118a5.466,5.466,0,0,1-1.67.255,3.1,3.1,0,0,1-2.259-.721,2.954,2.954,0,0,1-.729-2.188v-4.72H40.749V59.49h1.213V57.126Zm7.33,12.05a4.889,4.889,0,0,1-3.542-1.305,4.507,4.507,0,0,1-1.354-3.4v-.246a5.84,5.84,0,0,1,.541-2.575,3.955,3.955,0,0,1,1.578-1.727,4.763,4.763,0,0,1,2.461-.611A4.117,4.117,0,0,1,55.1,60.558a4.887,4.887,0,0,1,1.16,3.467v1.151H50.373a2.135,2.135,0,0,0,.694,1.257,2.066,2.066,0,0,0,1.389.457,2.662,2.662,0,0,0,2.2-.984l1.354,1.6a3.784,3.784,0,0,1-1.569,1.217A5.3,5.3,0,0,1,52.254,69.176ZM51.92,61.6q-1.3,0-1.547,1.723h2.988v-.229a1.467,1.467,0,0,0-.36-1.1A1.434,1.434,0,0,0,51.92,61.6Zm11.285.571-.976-.07a1.752,1.752,0,0,0-1.793.879V69H57.474V59.49h2.777l.1,1.222a2.294,2.294,0,0,1,2.083-1.4,2.888,2.888,0,0,1,.826.105ZM67.4,69H64.427V59.49H67.4ZM64.251,57.038A1.322,1.322,0,0,1,64.708,56a1.943,1.943,0,0,1,2.373,0,1.405,1.405,0,0,1,0,2.074,1.943,1.943,0,0,1-2.373,0A1.322,1.322,0,0,1,64.251,57.038ZM74.578,69a3.344,3.344,0,0,1-.281-.853,2.754,2.754,0,0,1-2.285,1.028,3.374,3.374,0,0,1-2.285-.813,2.588,2.588,0,0,1-.94-2.043,2.66,2.66,0,0,1,1.143-2.338,5.821,5.821,0,0,1,3.322-.791h.914v-.5q0-1.316-1.134-1.316a.927.927,0,0,0-1.055,1.042H69.015a2.655,2.655,0,0,1,1.173-2.239,4.931,4.931,0,0,1,2.993-.86,4.323,4.323,0,0,1,2.874.888,3.086,3.086,0,0,1,1.081,2.435v4.21a4.311,4.311,0,0,0,.4,2V69Zm-1.854-1.934a1.652,1.652,0,0,0,.918-.237,1.487,1.487,0,0,0,.523-.536V64.772H73.3q-1.547,0-1.547,1.389a.848.848,0,0,0,.272.655A.986.986,0,0,0,72.724,67.066Zm19.362-2.751a5.735,5.735,0,0,1-1,3.538,3.2,3.2,0,0,1-2.694,1.323,2.742,2.742,0,0,1-2.153-.958v4.438H83.279V59.49h2.769l.088.879a2.742,2.742,0,0,1,2.241-1.055,3.224,3.224,0,0,1,2.733,1.3,5.805,5.805,0,0,1,.976,3.564Zm-2.962-.185q0-2.531-1.477-2.531a1.394,1.394,0,0,0-1.406.756V66.1a1.439,1.439,0,0,0,1.424.791q1.415,0,1.459-2.443Zm10.02-1.96-.976-.07a1.752,1.752,0,0,0-1.793.879V69H93.413V59.49H96.19l.1,1.222a2.294,2.294,0,0,1,2.083-1.4,2.888,2.888,0,0,1,.826.105ZM103.336,69h-2.971V59.49h2.971Zm-3.146-11.962A1.322,1.322,0,0,1,100.646,56a1.943,1.943,0,0,1,2.373,0,1.405,1.405,0,0,1,0,2.074,1.943,1.943,0,0,1-2.373,0A1.322,1.322,0,0,1,100.189,57.038Zm7.77,2.452.1,1.116a3.27,3.27,0,0,1,2.716-1.292,2.407,2.407,0,0,1,2.435,1.433A3.165,3.165,0,0,1,116,59.314q2.892,0,2.971,3.5V69H116V63a1.813,1.813,0,0,0-.246-1.063,1.048,1.048,0,0,0-.9-.334,1.4,1.4,0,0,0-1.31.782l.009.123V69h-2.971V63.015a1.906,1.906,0,0,0-.237-1.081,1.045,1.045,0,0,0-.905-.334,1.42,1.42,0,0,0-1.3.782V69h-2.962V59.49ZM126.02,69a3.344,3.344,0,0,1-.281-.853,2.754,2.754,0,0,1-2.285,1.028,3.374,3.374,0,0,1-2.285-.813,2.588,2.588,0,0,1-.94-2.043,2.66,2.66,0,0,1,1.143-2.338,5.821,5.821,0,0,1,3.322-.791h.914v-.5q0-1.316-1.134-1.316a.927.927,0,0,0-1.055,1.042h-2.962a2.655,2.655,0,0,1,1.173-2.239,4.931,4.931,0,0,1,2.993-.86,4.323,4.323,0,0,1,2.874.888,3.086,3.086,0,0,1,1.081,2.435v4.21a4.311,4.311,0,0,0,.4,2V69Zm-1.854-1.934a1.652,1.652,0,0,0,.918-.237,1.487,1.487,0,0,0,.523-.536V64.772h-.861q-1.547,0-1.547,1.389a.848.848,0,0,0,.272.655A.986.986,0,0,0,124.166,67.066Z" transform="translate(459.014 4333.36)" fill="#fff"/>
    <path id="Trazado_116094" data-name="Trazado 116094" d="M29.143,13.568H24.291v3.059h5.73V19H21.206V6.2h8.833V8.585H24.291v2.7h4.852Zm4.72-4.078.1,1.116a3.225,3.225,0,0,1,2.716-1.292,2.713,2.713,0,0,1,2.219.888,4.226,4.226,0,0,1,.76,2.672V19H36.684V13a1.6,1.6,0,0,0-.29-1.059,1.342,1.342,0,0,0-1.055-.338,1.413,1.413,0,0,0-1.292.686V19H31.085V9.49ZM41.949,19V11.547h-1.38V9.49h1.38V8.734a3.286,3.286,0,0,1,.958-2.522,3.785,3.785,0,0,1,2.689-.9,5.89,5.89,0,0,1,1.389.185l.009,2.18a2.706,2.706,0,0,0-.729-.079q-1.345,0-1.345,1.16V9.49h1.854v2.057H44.919V19Zm11.619-6.829-.976-.07a1.752,1.752,0,0,0-1.793.879V19H47.837V9.49h2.777l.1,1.222a2.294,2.294,0,0,1,2.083-1.4,2.888,2.888,0,0,1,.826.105ZM57.76,19H54.789V9.49H57.76ZM54.614,7.038A1.322,1.322,0,0,1,55.071,6a1.943,1.943,0,0,1,2.373,0A1.322,1.322,0,0,1,57.9,7.038a1.322,1.322,0,0,1-.457,1.037,1.943,1.943,0,0,1-2.373,0A1.322,1.322,0,0,1,54.614,7.038ZM64.941,19a3.344,3.344,0,0,1-.281-.853,2.754,2.754,0,0,1-2.285,1.028,3.374,3.374,0,0,1-2.285-.813,2.588,2.588,0,0,1-.94-2.043,2.66,2.66,0,0,1,1.143-2.338,5.821,5.821,0,0,1,3.322-.791h.914v-.5q0-1.316-1.134-1.316a.927.927,0,0,0-1.055,1.042H59.377a2.655,2.655,0,0,1,1.173-2.239,4.931,4.931,0,0,1,2.993-.86,4.323,4.323,0,0,1,2.874.888A3.086,3.086,0,0,1,67.5,12.637v4.21a4.311,4.311,0,0,0,.4,2V19Zm-1.854-1.934A1.652,1.652,0,0,0,64,16.829a1.487,1.487,0,0,0,.523-.536V14.772h-.861q-1.547,0-1.547,1.389a.848.848,0,0,0,.272.655A.986.986,0,0,0,63.086,17.066ZM71.937,9.49l.1,1.116a3.27,3.27,0,0,1,2.716-1.292,2.407,2.407,0,0,1,2.435,1.433,3.165,3.165,0,0,1,2.795-1.433q2.892,0,2.971,3.5V19H79.979V13a1.813,1.813,0,0,0-.246-1.063,1.048,1.048,0,0,0-.9-.334,1.4,1.4,0,0,0-1.31.782l.009.123V19H74.565V13.015a1.906,1.906,0,0,0-.237-1.081,1.045,1.045,0,0,0-.905-.334,1.42,1.42,0,0,0-1.3.782V19H69.16V9.49ZM87.766,19H84.8V9.49h2.971ZM84.62,7.038A1.322,1.322,0,0,1,85.077,6,1.943,1.943,0,0,1,87.45,6a1.322,1.322,0,0,1,.457,1.037,1.322,1.322,0,0,1-.457,1.037,1.943,1.943,0,0,1-2.373,0A1.322,1.322,0,0,1,84.62,7.038Zm9.571,12.138a4.889,4.889,0,0,1-3.542-1.305,4.507,4.507,0,0,1-1.354-3.4v-.246a5.84,5.84,0,0,1,.541-2.575,3.955,3.955,0,0,1,1.578-1.727,4.763,4.763,0,0,1,2.461-.611,4.117,4.117,0,0,1,3.164,1.244,4.887,4.887,0,0,1,1.16,3.467v1.151H92.31A2.135,2.135,0,0,0,93,16.434a2.066,2.066,0,0,0,1.389.457,2.662,2.662,0,0,0,2.2-.984l1.354,1.6a3.784,3.784,0,0,1-1.569,1.217A5.3,5.3,0,0,1,94.191,19.176ZM93.857,11.6q-1.3,0-1.547,1.723H95.3v-.229a1.467,1.467,0,0,0-.36-1.1A1.434,1.434,0,0,0,93.857,11.6ZM102.11,9.49l.1,1.116a3.225,3.225,0,0,1,2.716-1.292,2.713,2.713,0,0,1,2.219.888,4.226,4.226,0,0,1,.76,2.672V19h-2.971V13a1.6,1.6,0,0,0-.29-1.059,1.342,1.342,0,0,0-1.055-.338,1.413,1.413,0,0,0-1.292.686V19H99.332V9.49Zm10.881-2.364V9.49h1.564v2.057h-1.564V15.9a1.111,1.111,0,0,0,.193.747,1.037,1.037,0,0,0,.765.211,4.345,4.345,0,0,0,.738-.053v2.118a5.466,5.466,0,0,1-1.67.255,3.1,3.1,0,0,1-2.259-.721,2.954,2.954,0,0,1-.729-2.188v-4.72h-1.213V9.49h1.213V7.126Zm2.092,7.031a5.613,5.613,0,0,1,.554-2.536,3.96,3.96,0,0,1,1.591-1.709,4.791,4.791,0,0,1,2.435-.6,4.373,4.373,0,0,1,3.366,1.323,5.076,5.076,0,0,1,1.23,3.6v.105a4.925,4.925,0,0,1-1.235,3.529,4.384,4.384,0,0,1-3.344,1.305,4.434,4.434,0,0,1-3.261-1.217,4.761,4.761,0,0,1-1.327-3.3Zm2.962.185a3.538,3.538,0,0,0,.413,1.934,1.376,1.376,0,0,0,1.222.615q1.582,0,1.617-2.435v-.3q0-2.558-1.635-2.558-1.485,0-1.608,2.206Z" transform="translate(459.014 4538.36)" fill="#fff"/>
    <path id="Trazado_116099" data-name="Trazado 116099" d="M49.951,15.6a1.268,1.268,0,0,0-.479-1.055,5.954,5.954,0,0,0-1.683-.782,16.147,16.147,0,0,1-1.969-.782q-2.487-1.222-2.487-3.357a3.011,3.011,0,0,1,.62-1.876A4.008,4.008,0,0,1,45.706,6.48a6.823,6.823,0,0,1,2.549-.453,5.969,5.969,0,0,1,2.474.492,3.917,3.917,0,0,1,1.7,1.4A3.661,3.661,0,0,1,53.036,10H49.96a1.547,1.547,0,0,0-.479-1.213,1.867,1.867,0,0,0-1.3-.431,2.106,2.106,0,0,0-1.305.365,1.074,1.074,0,0,0,.048,1.819,6.65,6.65,0,0,0,1.854.826,11.36,11.36,0,0,1,2.18.918,3.663,3.663,0,0,1,2.074,3.3,3.125,3.125,0,0,1-1.266,2.637,5.629,5.629,0,0,1-3.472.958,6.888,6.888,0,0,1-2.817-.558,4.247,4.247,0,0,1-1.9-1.529,3.985,3.985,0,0,1-.637-2.237H46.04a1.963,1.963,0,0,0,.532,1.516,2.513,2.513,0,0,0,1.727.488,1.985,1.985,0,0,0,1.208-.33A1.088,1.088,0,0,0,49.951,15.6Zm9.132,3.577a4.889,4.889,0,0,1-3.542-1.305,4.507,4.507,0,0,1-1.354-3.4v-.246a5.84,5.84,0,0,1,.541-2.575,3.955,3.955,0,0,1,1.578-1.727,4.763,4.763,0,0,1,2.461-.611,4.117,4.117,0,0,1,3.164,1.244,4.887,4.887,0,0,1,1.16,3.467v1.151H57.2a2.135,2.135,0,0,0,.694,1.257,2.066,2.066,0,0,0,1.389.457,2.662,2.662,0,0,0,2.2-.984l1.354,1.6a3.784,3.784,0,0,1-1.569,1.217A5.3,5.3,0,0,1,59.083,19.176ZM58.749,11.6q-1.3,0-1.547,1.723H60.19v-.229a1.467,1.467,0,0,0-.36-1.1A1.434,1.434,0,0,0,58.749,11.6ZM68.3,16.891a1.317,1.317,0,0,0,.967-.338,1.241,1.241,0,0,0,.334-.945h2.777a3.288,3.288,0,0,1-1.121,2.566,4.168,4.168,0,0,1-2.887,1,4.22,4.22,0,0,1-3.27-1.3,5.125,5.125,0,0,1-1.2-3.6v-.123A5.792,5.792,0,0,1,64.44,11.6a3.872,3.872,0,0,1,1.534-1.7,4.573,4.573,0,0,1,2.373-.593,4.116,4.116,0,0,1,2.944,1.028,3.647,3.647,0,0,1,1.09,2.786H69.6A1.626,1.626,0,0,0,69.243,12a1.244,1.244,0,0,0-.967-.4q-1.151,0-1.345,1.468a10.357,10.357,0,0,0-.062,1.283,4.068,4.068,0,0,0,.343,1.986A1.187,1.187,0,0,0,68.3,16.891ZM78.99,19a3.344,3.344,0,0,1-.281-.853,2.754,2.754,0,0,1-2.285,1.028,3.374,3.374,0,0,1-2.285-.813,2.588,2.588,0,0,1-.94-2.043,2.66,2.66,0,0,1,1.143-2.338,5.821,5.821,0,0,1,3.322-.791h.914v-.5q0-1.316-1.134-1.316a.927.927,0,0,0-1.055,1.042H73.427A2.655,2.655,0,0,1,74.6,10.175a4.931,4.931,0,0,1,2.993-.86,4.323,4.323,0,0,1,2.874.888,3.086,3.086,0,0,1,1.081,2.435v4.21a4.311,4.311,0,0,0,.4,2V19Zm-1.854-1.934a1.652,1.652,0,0,0,.918-.237,1.487,1.487,0,0,0,.523-.536V14.772h-.861q-1.547,0-1.547,1.389a.848.848,0,0,0,.272.655A.986.986,0,0,0,77.136,17.066Zm5.678-2.892a5.809,5.809,0,0,1,.976-3.56,3.211,3.211,0,0,1,2.725-1.3,2.731,2.731,0,0,1,2.145,1V5.5h2.971V19H88.966l-.149-1.02a2.8,2.8,0,0,1-2.32,1.2,3.205,3.205,0,0,1-2.689-1.3A5.993,5.993,0,0,1,82.813,14.175Zm2.962.185q0,2.531,1.477,2.531a1.458,1.458,0,0,0,1.406-.826V12.443a1.419,1.419,0,0,0-1.389-.844q-1.371,0-1.485,2.215Zm7.163-.2a5.613,5.613,0,0,1,.554-2.536,3.96,3.96,0,0,1,1.591-1.709,4.791,4.791,0,0,1,2.435-.6,4.373,4.373,0,0,1,3.366,1.323,5.076,5.076,0,0,1,1.23,3.6v.105a4.925,4.925,0,0,1-1.235,3.529,4.384,4.384,0,0,1-3.344,1.305,4.434,4.434,0,0,1-3.261-1.217,4.761,4.761,0,0,1-1.327-3.3Zm2.962.185a3.538,3.538,0,0,0,.413,1.934,1.376,1.376,0,0,0,1.222.615q1.582,0,1.617-2.435v-.3q0-2.558-1.635-2.558-1.485,0-1.608,2.206Z" transform="translate(726.476 4538.36)" fill="#fff"/>
    <path id="Trazado_116100" data-name="Trazado 116100" d="M36.429,13.568H31.578v3.059h5.73V19H28.493V6.2h8.833V8.585H31.578v2.7h4.852Zm4.8-4.078.1,1.116A3.27,3.27,0,0,1,44.04,9.314a2.407,2.407,0,0,1,2.435,1.433A3.165,3.165,0,0,1,49.27,9.314q2.892,0,2.971,3.5V19H49.27V13a1.813,1.813,0,0,0-.246-1.063,1.048,1.048,0,0,0-.9-.334,1.4,1.4,0,0,0-1.31.782l.009.123V19H43.856V13.015a1.906,1.906,0,0,0-.237-1.081,1.045,1.045,0,0,0-.905-.334,1.42,1.42,0,0,0-1.3.782V19H38.451V9.49Zm21.533,4.825a5.735,5.735,0,0,1-1,3.538,3.2,3.2,0,0,1-2.694,1.323,2.742,2.742,0,0,1-2.153-.958v4.438H53.954V9.49h2.769l.088.879a2.742,2.742,0,0,1,2.241-1.055,3.224,3.224,0,0,1,2.733,1.3,5.805,5.805,0,0,1,.976,3.564ZM59.8,14.131q0-2.531-1.477-2.531a1.394,1.394,0,0,0-1.406.756V16.1a1.439,1.439,0,0,0,1.424.791q1.415,0,1.459-2.443ZM69.423,19a3.344,3.344,0,0,1-.281-.853,2.754,2.754,0,0,1-2.285,1.028,3.374,3.374,0,0,1-2.285-.813,2.588,2.588,0,0,1-.94-2.043,2.66,2.66,0,0,1,1.143-2.338A5.821,5.821,0,0,1,68.1,13.19h.914v-.5q0-1.316-1.134-1.316a.927.927,0,0,0-1.055,1.042H63.86a2.655,2.655,0,0,1,1.173-2.239,4.931,4.931,0,0,1,2.993-.86A4.323,4.323,0,0,1,70.9,10.2a3.086,3.086,0,0,1,1.081,2.435v4.21a4.311,4.311,0,0,0,.4,2V19Zm-1.854-1.934a1.652,1.652,0,0,0,.918-.237,1.487,1.487,0,0,0,.523-.536V14.772h-.861q-1.547,0-1.547,1.389a.848.848,0,0,0,.272.655A.986.986,0,0,0,67.569,17.066Zm5.678-2.918a5.709,5.709,0,0,1,.984-3.551,3.233,3.233,0,0,1,2.716-1.283,2.761,2.761,0,0,1,2.338,1.2L79.5,9.49h2.566V22.656H79.091V18.209a2.757,2.757,0,0,1-2.162.967,3.2,3.2,0,0,1-2.685-1.305A6.027,6.027,0,0,1,73.246,14.148Zm2.962.185q0,2.558,1.477,2.558a1.43,1.43,0,0,0,1.406-.773V12.355A1.4,1.4,0,0,0,77.7,11.6q-1.38,0-1.485,2.206ZM89.4,17.972a3.054,3.054,0,0,1-2.54,1.2,3,3,0,0,1-2.369-.91,3.826,3.826,0,0,1-.8-2.615V9.49H86.65v6.179a1.065,1.065,0,0,0,1.187,1.222,1.548,1.548,0,0,0,1.45-.729V9.49h2.979V19H89.489Zm9.088,1.2a4.889,4.889,0,0,1-3.542-1.305,4.507,4.507,0,0,1-1.354-3.4v-.246a5.84,5.84,0,0,1,.541-2.575,3.955,3.955,0,0,1,1.578-1.727,4.763,4.763,0,0,1,2.461-.611,4.117,4.117,0,0,1,3.164,1.244,4.887,4.887,0,0,1,1.16,3.467v1.151H96.608a2.135,2.135,0,0,0,.694,1.257,2.066,2.066,0,0,0,1.389.457,2.662,2.662,0,0,0,2.2-.984l1.354,1.6a3.784,3.784,0,0,1-1.569,1.217A5.3,5.3,0,0,1,98.489,19.176ZM98.155,11.6q-1.3,0-1.547,1.723H99.6v-.229a1.467,1.467,0,0,0-.36-1.1A1.434,1.434,0,0,0,98.155,11.6Zm9.642,2.558a5.613,5.613,0,0,1,.554-2.536,3.96,3.96,0,0,1,1.591-1.709,4.791,4.791,0,0,1,2.435-.6,4.373,4.373,0,0,1,3.366,1.323,5.076,5.076,0,0,1,1.23,3.6v.105a4.925,4.925,0,0,1-1.235,3.529,4.384,4.384,0,0,1-3.344,1.305,4.434,4.434,0,0,1-3.261-1.217,4.761,4.761,0,0,1-1.327-3.3Zm2.962.185a3.538,3.538,0,0,0,.413,1.934,1.376,1.376,0,0,0,1.222.615q1.582,0,1.617-2.435v-.3q0-2.558-1.635-2.558-1.485,0-1.608,2.206ZM40.041,41.891a1.317,1.317,0,0,0,.967-.338,1.241,1.241,0,0,0,.334-.945H44.12A3.288,3.288,0,0,1,43,43.174a4.168,4.168,0,0,1-2.887,1,4.22,4.22,0,0,1-3.27-1.3,5.125,5.125,0,0,1-1.2-3.6v-.123a5.792,5.792,0,0,1,.532-2.544,3.872,3.872,0,0,1,1.534-1.7,4.573,4.573,0,0,1,2.373-.593,4.116,4.116,0,0,1,2.944,1.028,3.647,3.647,0,0,1,1.09,2.786H41.342A1.626,1.626,0,0,0,40.982,37a1.244,1.244,0,0,0-.967-.4q-1.151,0-1.345,1.468a10.357,10.357,0,0,0-.062,1.283,4.068,4.068,0,0,0,.343,1.986A1.187,1.187,0,0,0,40.041,41.891ZM45,39.157a5.613,5.613,0,0,1,.554-2.536,3.96,3.96,0,0,1,1.591-1.709,4.791,4.791,0,0,1,2.435-.6,4.373,4.373,0,0,1,3.366,1.323,5.076,5.076,0,0,1,1.23,3.6v.105a4.925,4.925,0,0,1-1.235,3.529A4.384,4.384,0,0,1,49.6,44.176a4.434,4.434,0,0,1-3.261-1.217,4.761,4.761,0,0,1-1.327-3.3Zm2.962.185a3.538,3.538,0,0,0,.413,1.934,1.376,1.376,0,0,0,1.222.615q1.582,0,1.617-2.435v-.3q0-2.558-1.635-2.558-1.485,0-1.608,2.206ZM58.2,34.49l.1,1.116a3.225,3.225,0,0,1,2.716-1.292,2.713,2.713,0,0,1,2.219.888,4.226,4.226,0,0,1,.76,2.672V44H61.021V38a1.6,1.6,0,0,0-.29-1.059,1.342,1.342,0,0,0-1.055-.338,1.413,1.413,0,0,0-1.292.686V44H55.422V34.49Zm12.41,6.838a.684.684,0,0,0-.4-.606,6.016,6.016,0,0,0-1.5-.475,6.853,6.853,0,0,1-1.828-.646,3.062,3.062,0,0,1-1.1-.971,2.319,2.319,0,0,1-.378-1.31,2.628,2.628,0,0,1,1.081-2.158,4.453,4.453,0,0,1,2.83-.848,4.934,4.934,0,0,1,3.023.853,2.666,2.666,0,0,1,1.143,2.241H70.513q0-1.143-1.2-1.143a1.194,1.194,0,0,0-.782.259.8.8,0,0,0-.316.646.737.737,0,0,0,.387.642,3.654,3.654,0,0,0,1.235.4,10.671,10.671,0,0,1,1.49.378,2.706,2.706,0,0,1,2.145,2.646,2.491,2.491,0,0,1-1.156,2.118,5.068,5.068,0,0,1-2.993.817,5.172,5.172,0,0,1-2.18-.439,3.645,3.645,0,0,1-1.494-1.2,2.707,2.707,0,0,1-.536-1.591h2.769a1.145,1.145,0,0,0,.439.962,1.808,1.808,0,0,0,1.081.3,1.422,1.422,0,0,0,.91-.246A.787.787,0,0,0,70.61,41.328Zm9.905,1.644a3.054,3.054,0,0,1-2.54,1.2,3,3,0,0,1-2.369-.91,3.826,3.826,0,0,1-.8-2.615V34.49h2.962v6.179a1.065,1.065,0,0,0,1.187,1.222,1.548,1.548,0,0,0,1.45-.729V34.49H83.38V44H80.6ZM87.8,34.49l.1,1.116a3.27,3.27,0,0,1,2.716-1.292,2.407,2.407,0,0,1,2.435,1.433,3.165,3.165,0,0,1,2.795-1.433q2.892,0,2.971,3.5V44H95.843V38a1.813,1.813,0,0,0-.246-1.063,1.048,1.048,0,0,0-.9-.334,1.4,1.4,0,0,0-1.31.782l.009.123V44H90.429V38.015a1.906,1.906,0,0,0-.237-1.081,1.045,1.045,0,0,0-.905-.334,1.42,1.42,0,0,0-1.3.782V44H85.024V34.49Zm12.331,4.667a5.613,5.613,0,0,1,.554-2.536,3.96,3.96,0,0,1,1.591-1.709,4.791,4.791,0,0,1,2.435-.6,4.373,4.373,0,0,1,3.366,1.323,5.076,5.076,0,0,1,1.23,3.6v.105a4.925,4.925,0,0,1-1.235,3.529,4.384,4.384,0,0,1-3.344,1.305,4.434,4.434,0,0,1-3.261-1.217,4.761,4.761,0,0,1-1.327-3.3Zm2.962.185a3.538,3.538,0,0,0,.413,1.934,1.376,1.376,0,0,0,1.222.615q1.582,0,1.617-2.435v-.3q0-2.558-1.635-2.558-1.485,0-1.608,2.206Z" transform="translate(997.158 4526.95)" fill="#fff"/>
    <path id="Trazado_116098" data-name="Trazado 116098" d="M30.861,13.9H25.887V19H22.8V6.2h8.561V8.585H25.887v2.944h4.975Zm1.09.255a5.613,5.613,0,0,1,.554-2.536A3.96,3.96,0,0,1,34.1,9.912a4.791,4.791,0,0,1,2.435-.6A4.373,4.373,0,0,1,39.9,10.637a5.076,5.076,0,0,1,1.23,3.6v.105a4.925,4.925,0,0,1-1.235,3.529,4.384,4.384,0,0,1-3.344,1.305,4.434,4.434,0,0,1-3.261-1.217,4.761,4.761,0,0,1-1.327-3.3Zm2.962.185a3.538,3.538,0,0,0,.413,1.934,1.376,1.376,0,0,0,1.222.615q1.582,0,1.617-2.435v-.3q0-2.558-1.635-2.558-1.485,0-1.608,2.206Zm13.271-2.171-.976-.07a1.752,1.752,0,0,0-1.793.879V19H42.454V9.49h2.777l.1,1.222a2.294,2.294,0,0,1,2.083-1.4,2.888,2.888,0,0,1,.826.105ZM52.052,9.49l.1,1.116a3.27,3.27,0,0,1,2.716-1.292A2.407,2.407,0,0,1,57.3,10.747a3.165,3.165,0,0,1,2.795-1.433q2.892,0,2.971,3.5V19H60.094V13a1.813,1.813,0,0,0-.246-1.063,1.048,1.048,0,0,0-.9-.334,1.4,1.4,0,0,0-1.31.782l.009.123V19H54.68V13.015a1.906,1.906,0,0,0-.237-1.081,1.045,1.045,0,0,0-.905-.334,1.42,1.42,0,0,0-1.3.782V19H49.274V9.49Zm18.369,8.481a3.054,3.054,0,0,1-2.54,1.2,3,3,0,0,1-2.369-.91,3.826,3.826,0,0,1-.8-2.615V9.49H67.67v6.179a1.065,1.065,0,0,0,1.187,1.222,1.548,1.548,0,0,0,1.45-.729V9.49h2.979V19H70.509ZM78.032,19H75.061V5.5h2.971Zm7.181,0a3.344,3.344,0,0,1-.281-.853,2.754,2.754,0,0,1-2.285,1.028,3.374,3.374,0,0,1-2.285-.813,2.588,2.588,0,0,1-.94-2.043,2.66,2.66,0,0,1,1.143-2.338,5.821,5.821,0,0,1,3.322-.791H84.8v-.5q0-1.316-1.134-1.316a.927.927,0,0,0-1.055,1.042H79.649a2.655,2.655,0,0,1,1.173-2.239,4.931,4.931,0,0,1,2.993-.86,4.323,4.323,0,0,1,2.874.888,3.086,3.086,0,0,1,1.081,2.435v4.21a4.311,4.311,0,0,0,.4,2V19Zm-1.854-1.934a1.652,1.652,0,0,0,.918-.237,1.487,1.487,0,0,0,.523-.536V14.772h-.861q-1.547,0-1.547,1.389a.848.848,0,0,0,.272.655A.986.986,0,0,0,83.358,17.066Zm10.072-.176a1.317,1.317,0,0,0,.967-.338,1.241,1.241,0,0,0,.334-.945h2.777a3.288,3.288,0,0,1-1.121,2.566,4.168,4.168,0,0,1-2.887,1,4.22,4.22,0,0,1-3.27-1.3,5.125,5.125,0,0,1-1.2-3.6v-.123a5.792,5.792,0,0,1,.532-2.544,3.872,3.872,0,0,1,1.534-1.7,4.573,4.573,0,0,1,2.373-.593,4.116,4.116,0,0,1,2.944,1.028,3.647,3.647,0,0,1,1.09,2.786H94.731A1.626,1.626,0,0,0,94.371,12a1.244,1.244,0,0,0-.967-.4q-1.151,0-1.345,1.468A10.357,10.357,0,0,0,92,14.351a4.068,4.068,0,0,0,.343,1.986A1.187,1.187,0,0,0,93.431,16.891ZM101.886,19H98.915V9.49h2.971ZM98.739,7.038A1.322,1.322,0,0,1,99.2,6a1.943,1.943,0,0,1,2.373,0,1.322,1.322,0,0,1,.457,1.037,1.322,1.322,0,0,1-.457,1.037,1.943,1.943,0,0,1-2.373,0A1.322,1.322,0,0,1,98.739,7.038Zm4.6,7.119a5.613,5.613,0,0,1,.554-2.536,3.96,3.96,0,0,1,1.591-1.709,4.791,4.791,0,0,1,2.435-.6,4.373,4.373,0,0,1,3.366,1.323,5.076,5.076,0,0,1,1.23,3.6v.105a4.925,4.925,0,0,1-1.235,3.529,4.384,4.384,0,0,1-3.344,1.305,4.434,4.434,0,0,1-3.261-1.217,4.761,4.761,0,0,1-1.327-3.3Zm2.962.185a3.538,3.538,0,0,0,.413,1.934,1.376,1.376,0,0,0,1.222.615q1.582,0,1.617-2.435v-.3q0-2.558-1.635-2.558-1.485,0-1.608,2.206ZM108.319,5.5h3.129L109,8.26l-2.417,0Zm8.218,3.99.1,1.116a3.225,3.225,0,0,1,2.716-1.292,2.713,2.713,0,0,1,2.219.888,4.226,4.226,0,0,1,.76,2.672V19h-2.971V13a1.6,1.6,0,0,0-.29-1.059,1.342,1.342,0,0,0-1.055-.338,1.413,1.413,0,0,0-1.292.686V19H113.76V9.49Z" transform="translate(724.298 4168.938)" fill="#fff"/>
    <path id="Trazado_116097" data-name="Trazado 116097" d="M38.112,6.2l2.856,8.9,2.848-8.9h4.061V19H44.783V16.012l.3-6.117L41.988,19H39.949l-3.1-9.114.3,6.126V19H34.06V6.2ZM54.3,19.176a4.889,4.889,0,0,1-3.542-1.305,4.507,4.507,0,0,1-1.354-3.4v-.246a5.84,5.84,0,0,1,.541-2.575,3.955,3.955,0,0,1,1.578-1.727,4.763,4.763,0,0,1,2.461-.611,4.117,4.117,0,0,1,3.164,1.244,4.887,4.887,0,0,1,1.16,3.467v1.151H52.421a2.135,2.135,0,0,0,.694,1.257,2.066,2.066,0,0,0,1.389.457,2.662,2.662,0,0,0,2.2-.984l1.354,1.6a3.784,3.784,0,0,1-1.569,1.217A5.3,5.3,0,0,1,54.3,19.176ZM53.968,11.6q-1.3,0-1.547,1.723h2.988v-.229a1.467,1.467,0,0,0-.36-1.1A1.434,1.434,0,0,0,53.968,11.6Zm9.026,5.115h4.333V19H59.25V17.348l4.219-5.572H59.434V9.49h7.8v1.6Zm9.65.176a1.317,1.317,0,0,0,.967-.338,1.241,1.241,0,0,0,.334-.945h2.777A3.288,3.288,0,0,1,75.6,18.174a4.168,4.168,0,0,1-2.887,1,4.22,4.22,0,0,1-3.27-1.3,5.125,5.125,0,0,1-1.2-3.6v-.123a5.792,5.792,0,0,1,.532-2.544,3.872,3.872,0,0,1,1.534-1.7,4.573,4.573,0,0,1,2.373-.593,4.116,4.116,0,0,1,2.944,1.028,3.647,3.647,0,0,1,1.09,2.786H73.945A1.626,1.626,0,0,0,73.585,12a1.244,1.244,0,0,0-.967-.4q-1.151,0-1.345,1.468a10.357,10.357,0,0,0-.062,1.283,4.068,4.068,0,0,0,.343,1.986A1.187,1.187,0,0,0,72.644,16.891ZM81.1,19H78.129V5.5H81.1Zm7.181,0A3.344,3.344,0,0,1,88,18.147a2.754,2.754,0,0,1-2.285,1.028,3.374,3.374,0,0,1-2.285-.813,2.588,2.588,0,0,1-.94-2.043,2.66,2.66,0,0,1,1.143-2.338,5.821,5.821,0,0,1,3.322-.791h.914v-.5q0-1.316-1.134-1.316a.927.927,0,0,0-1.055,1.042H82.717a2.655,2.655,0,0,1,1.173-2.239,4.931,4.931,0,0,1,2.993-.86,4.323,4.323,0,0,1,2.874.888,3.086,3.086,0,0,1,1.081,2.435v4.21a4.311,4.311,0,0,0,.4,2V19Zm-1.854-1.934a1.652,1.652,0,0,0,.918-.237,1.487,1.487,0,0,0,.523-.536V14.772h-.861q-1.547,0-1.547,1.389a.848.848,0,0,0,.272.655A.986.986,0,0,0,86.426,17.066ZM92.1,14.175a5.809,5.809,0,0,1,.976-3.56,3.211,3.211,0,0,1,2.725-1.3,2.731,2.731,0,0,1,2.145,1V5.5h2.971V19H98.256l-.149-1.02a2.8,2.8,0,0,1-2.32,1.2,3.205,3.205,0,0,1-2.689-1.3A5.993,5.993,0,0,1,92.1,14.175Zm2.962.185q0,2.531,1.477,2.531a1.458,1.458,0,0,0,1.406-.826V12.443a1.419,1.419,0,0,0-1.389-.844q-1.371,0-1.485,2.215Zm7.163-.2a5.613,5.613,0,0,1,.554-2.536,3.96,3.96,0,0,1,1.591-1.709,4.791,4.791,0,0,1,2.435-.6,4.373,4.373,0,0,1,3.366,1.323,5.076,5.076,0,0,1,1.23,3.6v.105a4.925,4.925,0,0,1-1.235,3.529,4.384,4.384,0,0,1-3.344,1.305,4.434,4.434,0,0,1-3.261-1.217,4.761,4.761,0,0,1-1.327-3.3Zm2.962.185a3.538,3.538,0,0,0,.413,1.934,1.376,1.376,0,0,0,1.222.615q1.582,0,1.617-2.435v-.3q0-2.558-1.635-2.558-1.485,0-1.608,2.206Z" transform="translate(724.298 4353.36)" fill="#fff"/>
    <path id="Trazado_116103" data-name="Trazado 116103" d="M36.86,14.658V19H33.775V6.2h5.106a5.948,5.948,0,0,1,2.6.541,4.074,4.074,0,0,1,1.749,1.538,4.2,4.2,0,0,1,.62,2.263,3.7,3.7,0,0,1-1.34,2.993,5.561,5.561,0,0,1-3.678,1.121Zm0-2.382h2.021a1.906,1.906,0,0,0,1.367-.448,1.665,1.665,0,0,0,.47-1.266,2.059,2.059,0,0,0-.483-1.433,1.712,1.712,0,0,0-1.318-.545H36.86Zm13.1,6.9a4.889,4.889,0,0,1-3.542-1.305,4.507,4.507,0,0,1-1.354-3.4v-.246a5.84,5.84,0,0,1,.541-2.575,3.955,3.955,0,0,1,1.578-1.727,4.763,4.763,0,0,1,2.461-.611A4.117,4.117,0,0,1,52.8,10.558a4.887,4.887,0,0,1,1.16,3.467v1.151H48.075a2.135,2.135,0,0,0,.694,1.257,2.066,2.066,0,0,0,1.389.457,2.662,2.662,0,0,0,2.2-.984l1.354,1.6a3.784,3.784,0,0,1-1.569,1.217A5.3,5.3,0,0,1,49.955,19.176ZM49.621,11.6q-1.3,0-1.547,1.723h2.988v-.229a1.467,1.467,0,0,0-.36-1.1A1.434,1.434,0,0,0,49.621,11.6Zm10.512,4.729a.684.684,0,0,0-.4-.606,6.016,6.016,0,0,0-1.5-.475,6.853,6.853,0,0,1-1.828-.646,3.062,3.062,0,0,1-1.1-.971,2.319,2.319,0,0,1-.378-1.31,2.628,2.628,0,0,1,1.081-2.158,4.453,4.453,0,0,1,2.83-.848,4.934,4.934,0,0,1,3.023.853,2.666,2.666,0,0,1,1.143,2.241H60.036q0-1.143-1.2-1.143a1.194,1.194,0,0,0-.782.259.8.8,0,0,0-.316.646.737.737,0,0,0,.387.642,3.654,3.654,0,0,0,1.235.4,10.671,10.671,0,0,1,1.49.378A2.706,2.706,0,0,1,62.99,16.24a2.491,2.491,0,0,1-1.156,2.118,5.068,5.068,0,0,1-2.993.817,5.172,5.172,0,0,1-2.18-.439,3.645,3.645,0,0,1-1.494-1.2,2.707,2.707,0,0,1-.536-1.591H57.4a1.145,1.145,0,0,0,.439.962,1.808,1.808,0,0,0,1.081.3,1.422,1.422,0,0,0,.91-.246A.787.787,0,0,0,60.133,16.328ZM69.731,19a3.344,3.344,0,0,1-.281-.853,2.754,2.754,0,0,1-2.285,1.028,3.374,3.374,0,0,1-2.285-.813,2.588,2.588,0,0,1-.94-2.043,2.66,2.66,0,0,1,1.143-2.338A5.821,5.821,0,0,1,68.4,13.19h.914v-.5q0-1.316-1.134-1.316a.927.927,0,0,0-1.055,1.042H64.167a2.655,2.655,0,0,1,1.173-2.239,4.931,4.931,0,0,1,2.993-.86,4.323,4.323,0,0,1,2.874.888,3.086,3.086,0,0,1,1.081,2.435v4.21a4.311,4.311,0,0,0,.4,2V19Zm-1.854-1.934a1.652,1.652,0,0,0,.918-.237,1.487,1.487,0,0,0,.523-.536V14.772h-.861q-1.547,0-1.547,1.389a.848.848,0,0,0,.272.655A.986.986,0,0,0,67.876,17.066ZM77.114,9.49v9.835a3.452,3.452,0,0,1-.967,2.6,3.714,3.714,0,0,1-2.672.914,6.308,6.308,0,0,1-1.4-.149V20.45a5.667,5.667,0,0,0,.835.079,1.084,1.084,0,0,0,1.23-1.222V9.49Zm-3.19-2.452A1.322,1.322,0,0,1,74.38,6a1.943,1.943,0,0,1,2.373,0,1.322,1.322,0,0,1,.457,1.037,1.322,1.322,0,0,1-.457,1.037,1.943,1.943,0,0,1-2.373,0A1.322,1.322,0,0,1,73.923,7.038Zm9.466,12.138a4.889,4.889,0,0,1-3.542-1.305,4.507,4.507,0,0,1-1.354-3.4v-.246a5.84,5.84,0,0,1,.541-2.575,3.955,3.955,0,0,1,1.578-1.727,4.763,4.763,0,0,1,2.461-.611,4.117,4.117,0,0,1,3.164,1.244,4.887,4.887,0,0,1,1.16,3.467v1.151H81.508a2.135,2.135,0,0,0,.694,1.257,2.066,2.066,0,0,0,1.389.457,2.662,2.662,0,0,0,2.2-.984l1.354,1.6a3.784,3.784,0,0,1-1.569,1.217A5.3,5.3,0,0,1,83.389,19.176ZM83.055,11.6q-1.3,0-1.547,1.723H84.5v-.229a1.467,1.467,0,0,0-.36-1.1A1.434,1.434,0,0,0,83.055,11.6ZM92.7,14.175a5.809,5.809,0,0,1,.976-3.56,3.211,3.211,0,0,1,2.725-1.3,2.731,2.731,0,0,1,2.145,1V5.5h2.971V19H98.849L98.7,17.98a2.8,2.8,0,0,1-2.32,1.2,3.205,3.205,0,0,1-2.689-1.3A5.993,5.993,0,0,1,92.7,14.175Zm2.962.185q0,2.531,1.477,2.531a1.458,1.458,0,0,0,1.406-.826V12.443a1.419,1.419,0,0,0-1.389-.844q-1.371,0-1.485,2.215ZM107.8,19.176a4.889,4.889,0,0,1-3.542-1.305,4.507,4.507,0,0,1-1.354-3.4v-.246a5.84,5.84,0,0,1,.541-2.575,3.955,3.955,0,0,1,1.578-1.727,4.763,4.763,0,0,1,2.461-.611,4.117,4.117,0,0,1,3.164,1.244,4.887,4.887,0,0,1,1.16,3.467v1.151h-5.889a2.135,2.135,0,0,0,.694,1.257,2.066,2.066,0,0,0,1.389.457,2.662,2.662,0,0,0,2.2-.984l1.354,1.6a3.784,3.784,0,0,1-1.569,1.217A5.3,5.3,0,0,1,107.8,19.176Zm-.334-7.576q-1.3,0-1.547,1.723H108.9v-.229a1.467,1.467,0,0,0-.36-1.1A1.434,1.434,0,0,0,107.462,11.6ZM10,34.49l.1,1.116a3.27,3.27,0,0,1,2.716-1.292,2.407,2.407,0,0,1,2.435,1.433,3.165,3.165,0,0,1,2.795-1.433q2.892,0,2.971,3.5V44H18.038V38a1.813,1.813,0,0,0-.246-1.063,1.048,1.048,0,0,0-.9-.334,1.4,1.4,0,0,0-1.31.782l.009.123V44H12.624V38.015a1.906,1.906,0,0,0-.237-1.081,1.045,1.045,0,0,0-.905-.334,1.42,1.42,0,0,0-1.3.782V44H7.219V34.49ZM28.057,44a3.344,3.344,0,0,1-.281-.853,2.754,2.754,0,0,1-2.285,1.028,3.374,3.374,0,0,1-2.285-.813,2.588,2.588,0,0,1-.94-2.043,2.66,2.66,0,0,1,1.143-2.338,5.821,5.821,0,0,1,3.322-.791h.914v-.5q0-1.316-1.134-1.316a.927.927,0,0,0-1.055,1.042H22.494a2.655,2.655,0,0,1,1.173-2.239,4.931,4.931,0,0,1,2.993-.86,4.323,4.323,0,0,1,2.874.888,3.086,3.086,0,0,1,1.081,2.435v4.21a4.311,4.311,0,0,0,.4,2V44ZM26.2,42.066a1.652,1.652,0,0,0,.918-.237,1.487,1.487,0,0,0,.523-.536V39.772h-.861q-1.547,0-1.547,1.389a.848.848,0,0,0,.272.655A.986.986,0,0,0,26.2,42.066Zm9.5-9.94V34.49h1.564v2.057H35.7V40.9a1.111,1.111,0,0,0,.193.747,1.037,1.037,0,0,0,.765.211A4.345,4.345,0,0,0,37.4,41.8v2.118a5.466,5.466,0,0,1-1.67.255,3.1,3.1,0,0,1-2.259-.721,2.954,2.954,0,0,1-.729-2.188v-4.72H31.529V34.49h1.213V32.126Zm7.33,12.05a4.889,4.889,0,0,1-3.542-1.305,4.507,4.507,0,0,1-1.354-3.4v-.246a5.84,5.84,0,0,1,.541-2.575,3.955,3.955,0,0,1,1.578-1.727,4.763,4.763,0,0,1,2.461-.611,4.117,4.117,0,0,1,3.164,1.244,4.887,4.887,0,0,1,1.16,3.467v1.151H41.153a2.135,2.135,0,0,0,.694,1.257,2.066,2.066,0,0,0,1.389.457,2.662,2.662,0,0,0,2.2-.984l1.354,1.6a3.784,3.784,0,0,1-1.569,1.217A5.3,5.3,0,0,1,43.034,44.176ZM42.7,36.6q-1.3,0-1.547,1.723h2.988v-.229a1.467,1.467,0,0,0-.36-1.1A1.434,1.434,0,0,0,42.7,36.6Zm11.285.571-.976-.07a1.752,1.752,0,0,0-1.793.879V44H48.255V34.49h2.777l.1,1.222a2.294,2.294,0,0,1,2.083-1.4,2.888,2.888,0,0,1,.826.105ZM58.178,44H55.207V34.49h2.971ZM55.031,32.038A1.322,1.322,0,0,1,55.488,31a1.943,1.943,0,0,1,2.373,0,1.405,1.405,0,0,1,0,2.074,1.943,1.943,0,0,1-2.373,0A1.322,1.322,0,0,1,55.031,32.038ZM65.358,44a3.344,3.344,0,0,1-.281-.853,2.754,2.754,0,0,1-2.285,1.028,3.374,3.374,0,0,1-2.285-.813,2.588,2.588,0,0,1-.94-2.043,2.66,2.66,0,0,1,1.143-2.338,5.821,5.821,0,0,1,3.322-.791h.914v-.5q0-1.316-1.134-1.316a.927.927,0,0,0-1.055,1.042H59.795a2.655,2.655,0,0,1,1.173-2.239,4.931,4.931,0,0,1,2.993-.86,4.323,4.323,0,0,1,2.874.888,3.086,3.086,0,0,1,1.081,2.435v4.21a4.311,4.311,0,0,0,.4,2V44ZM63.5,42.066a1.652,1.652,0,0,0,.918-.237,1.487,1.487,0,0,0,.523-.536V39.772h-.861q-1.547,0-1.547,1.389a.848.848,0,0,0,.272.655A.986.986,0,0,0,63.5,42.066Zm11.03-.738a.684.684,0,0,0-.4-.606,6.016,6.016,0,0,0-1.5-.475,6.853,6.853,0,0,1-1.828-.646,3.062,3.062,0,0,1-1.1-.971,2.319,2.319,0,0,1-.378-1.31,2.628,2.628,0,0,1,1.081-2.158,4.453,4.453,0,0,1,2.83-.848,4.934,4.934,0,0,1,3.023.853,2.666,2.666,0,0,1,1.143,2.241H74.437q0-1.143-1.2-1.143a1.194,1.194,0,0,0-.782.259.8.8,0,0,0-.316.646.737.737,0,0,0,.387.642,3.654,3.654,0,0,0,1.235.4,10.671,10.671,0,0,1,1.49.378,2.706,2.706,0,0,1,2.145,2.646,2.491,2.491,0,0,1-1.156,2.118,5.068,5.068,0,0,1-2.993.817,5.172,5.172,0,0,1-2.18-.439,3.645,3.645,0,0,1-1.494-1.2,2.707,2.707,0,0,1-.536-1.591H71.8a1.145,1.145,0,0,0,.439.962,1.808,1.808,0,0,0,1.081.3,1.422,1.422,0,0,0,.91-.246A.787.787,0,0,0,74.534,41.328Zm17.552-2.013a5.735,5.735,0,0,1-1,3.538,3.2,3.2,0,0,1-2.694,1.323,2.742,2.742,0,0,1-2.153-.958v4.438H83.279V34.49h2.769l.088.879a2.742,2.742,0,0,1,2.241-1.055,3.224,3.224,0,0,1,2.733,1.3,5.805,5.805,0,0,1,.976,3.564Zm-2.962-.185q0-2.531-1.477-2.531a1.394,1.394,0,0,0-1.406.756V41.1a1.439,1.439,0,0,0,1.424.791q1.415,0,1.459-2.443Zm10.02-1.96-.976-.07a1.752,1.752,0,0,0-1.793.879V44H93.413V34.49H96.19l.1,1.222a2.294,2.294,0,0,1,2.083-1.4,2.888,2.888,0,0,1,.826.105ZM103.336,44h-2.971V34.49h2.971Zm-3.146-11.962A1.322,1.322,0,0,1,100.646,31a1.943,1.943,0,0,1,2.373,0,1.405,1.405,0,0,1,0,2.074,1.943,1.943,0,0,1-2.373,0A1.322,1.322,0,0,1,100.189,32.038Zm7.77,2.452.1,1.116a3.27,3.27,0,0,1,2.716-1.292,2.407,2.407,0,0,1,2.435,1.433A3.165,3.165,0,0,1,116,34.314q2.892,0,2.971,3.5V44H116V38a1.813,1.813,0,0,0-.246-1.063,1.048,1.048,0,0,0-.9-.334,1.4,1.4,0,0,0-1.31.782l.009.123V44h-2.971V38.015a1.906,1.906,0,0,0-.237-1.081,1.045,1.045,0,0,0-.905-.334,1.42,1.42,0,0,0-1.3.782V44h-2.962V34.49ZM126.02,44a3.344,3.344,0,0,1-.281-.853,2.754,2.754,0,0,1-2.285,1.028,3.374,3.374,0,0,1-2.285-.813,2.588,2.588,0,0,1-.94-2.043,2.66,2.66,0,0,1,1.143-2.338,5.821,5.821,0,0,1,3.322-.791h.914v-.5q0-1.316-1.134-1.316a.927.927,0,0,0-1.055,1.042h-2.962a2.655,2.655,0,0,1,1.173-2.239,4.931,4.931,0,0,1,2.993-.86,4.323,4.323,0,0,1,2.874.888,3.086,3.086,0,0,1,1.081,2.435v4.21a4.311,4.311,0,0,0,.4,2V44Zm-1.854-1.934a1.652,1.652,0,0,0,.918-.237,1.487,1.487,0,0,0,.523-.536V39.772h-.861q-1.547,0-1.547,1.389a.848.848,0,0,0,.272.655A.986.986,0,0,0,124.166,42.066Zm11.03-.738a.684.684,0,0,0-.4-.606,6.016,6.016,0,0,0-1.5-.475,6.853,6.853,0,0,1-1.828-.646,3.062,3.062,0,0,1-1.1-.971,2.319,2.319,0,0,1-.378-1.31,2.628,2.628,0,0,1,1.081-2.158,4.453,4.453,0,0,1,2.83-.848,4.934,4.934,0,0,1,3.023.853,2.666,2.666,0,0,1,1.143,2.241H135.1q0-1.143-1.2-1.143a1.194,1.194,0,0,0-.782.259.8.8,0,0,0-.316.646.737.737,0,0,0,.387.642,3.654,3.654,0,0,0,1.235.4,10.671,10.671,0,0,1,1.49.378,2.706,2.706,0,0,1,2.145,2.646,2.491,2.491,0,0,1-1.156,2.118,5.068,5.068,0,0,1-2.993.817,5.172,5.172,0,0,1-2.18-.439,3.645,3.645,0,0,1-1.494-1.2,2.707,2.707,0,0,1-.536-1.591h2.769a1.145,1.145,0,0,0,.439.962,1.808,1.808,0,0,0,1.081.3,1.422,1.422,0,0,0,.91-.246A.787.787,0,0,0,135.2,41.328Z" transform="translate(993.813 4159.438)" fill="#fff"/>
    <path id="Trazado_116102" data-name="Trazado 116102" d="M39.8,6.2l2.856,8.9L45.5,6.2h4.061V19H46.471V16.012l.3-6.117L43.676,19H41.637l-3.1-9.114.3,6.126V19H35.748V6.2Zm11.215,7.954a5.613,5.613,0,0,1,.554-2.536,3.96,3.96,0,0,1,1.591-1.709,4.791,4.791,0,0,1,2.435-.6,4.373,4.373,0,0,1,3.366,1.323,5.076,5.076,0,0,1,1.23,3.6v.105a4.925,4.925,0,0,1-1.235,3.529,4.384,4.384,0,0,1-3.344,1.305,4.434,4.434,0,0,1-3.261-1.217,4.761,4.761,0,0,1-1.327-3.3Zm2.962.185a3.538,3.538,0,0,0,.413,1.934,1.376,1.376,0,0,0,1.222.615q1.582,0,1.617-2.435v-.3q0-2.558-1.635-2.558-1.485,0-1.608,2.206ZM64.62,19H61.649V5.5H64.62Zm4.948,0H66.6V9.49h2.971ZM66.422,7.038A1.322,1.322,0,0,1,66.879,6a1.943,1.943,0,0,1,2.373,0,1.322,1.322,0,0,1,.457,1.037,1.322,1.322,0,0,1-.457,1.037,1.943,1.943,0,0,1-2.373,0A1.322,1.322,0,0,1,66.422,7.038Zm9.571,12.138a4.889,4.889,0,0,1-3.542-1.305,4.507,4.507,0,0,1-1.354-3.4v-.246a5.84,5.84,0,0,1,.541-2.575,3.955,3.955,0,0,1,1.578-1.727,4.763,4.763,0,0,1,2.461-.611,4.117,4.117,0,0,1,3.164,1.244A4.887,4.887,0,0,1,80,14.025v1.151H74.112a2.135,2.135,0,0,0,.694,1.257,2.066,2.066,0,0,0,1.389.457,2.662,2.662,0,0,0,2.2-.984l1.354,1.6a3.784,3.784,0,0,1-1.569,1.217A5.3,5.3,0,0,1,75.993,19.176ZM75.659,11.6q-1.3,0-1.547,1.723H77.1v-.229a1.467,1.467,0,0,0-.36-1.1A1.434,1.434,0,0,0,75.659,11.6ZM83.912,9.49l.1,1.116a3.225,3.225,0,0,1,2.716-1.292,2.713,2.713,0,0,1,2.219.888,4.226,4.226,0,0,1,.76,2.672V19H86.733V13a1.6,1.6,0,0,0-.29-1.059,1.342,1.342,0,0,0-1.055-.338,1.413,1.413,0,0,0-1.292.686V19H81.135V9.49Zm7.058,4.685a5.809,5.809,0,0,1,.976-3.56,3.211,3.211,0,0,1,2.725-1.3,2.731,2.731,0,0,1,2.145,1V5.5h2.971V19H97.122l-.149-1.02a2.8,2.8,0,0,1-2.32,1.2,3.205,3.205,0,0,1-2.689-1.3A5.993,5.993,0,0,1,90.97,14.175Zm2.962.185q0,2.531,1.477,2.531a1.458,1.458,0,0,0,1.406-.826V12.443a1.419,1.419,0,0,0-1.389-.844q-1.371,0-1.485,2.215ZM106.825,19a3.344,3.344,0,0,1-.281-.853,2.754,2.754,0,0,1-2.285,1.028,3.374,3.374,0,0,1-2.285-.813,2.588,2.588,0,0,1-.94-2.043,2.66,2.66,0,0,1,1.143-2.338,5.821,5.821,0,0,1,3.322-.791h.914v-.5q0-1.316-1.134-1.316a.927.927,0,0,0-1.055,1.042h-2.962a2.655,2.655,0,0,1,1.173-2.239,4.931,4.931,0,0,1,2.993-.86,4.323,4.323,0,0,1,2.874.888,3.086,3.086,0,0,1,1.081,2.435v4.21a4.311,4.311,0,0,0,.4,2V19Zm-1.854-1.934a1.652,1.652,0,0,0,.918-.237,1.487,1.487,0,0,0,.523-.536V14.772h-.861q-1.547,0-1.547,1.389a.848.848,0,0,0,.272.655A.986.986,0,0,0,104.971,17.066Z" transform="translate(993.813 4356.45)" fill="#fff"/>
    <path id="Trazado_116105" data-name="Trazado 116105" d="M13.908,14.667a4.673,4.673,0,0,1-.721,2.36,4.35,4.35,0,0,1-1.85,1.586,6.3,6.3,0,0,1-2.72.563,5.025,5.025,0,0,1-3.973-1.644,6.786,6.786,0,0,1-1.45-4.641v-.633a7.746,7.746,0,0,1,.655-3.292,4.961,4.961,0,0,1,1.885-2.18,5.26,5.26,0,0,1,2.848-.769,5.516,5.516,0,0,1,3.744,1.226,4.844,4.844,0,0,1,1.608,3.379H10.858a2.292,2.292,0,0,0-.589-1.679,2.422,2.422,0,0,0-1.687-.51A1.843,1.843,0,0,0,6.894,9.3a5.536,5.536,0,0,0-.562,2.751v.905a6.125,6.125,0,0,0,.514,2.927,1.882,1.882,0,0,0,1.771.879,2.369,2.369,0,0,0,1.626-.5,2.126,2.126,0,0,0,.6-1.591ZM18.355,19H15.385V5.5h2.971Zm7.181,0a3.344,3.344,0,0,1-.281-.853,2.754,2.754,0,0,1-2.285,1.028,3.374,3.374,0,0,1-2.285-.813,2.588,2.588,0,0,1-.94-2.043,2.66,2.66,0,0,1,1.143-2.338,5.821,5.821,0,0,1,3.322-.791h.914v-.5q0-1.316-1.134-1.316a.927.927,0,0,0-1.055,1.042H19.973a2.655,2.655,0,0,1,1.173-2.239,4.931,4.931,0,0,1,2.993-.86,4.323,4.323,0,0,1,2.874.888,3.086,3.086,0,0,1,1.081,2.435v4.21a4.311,4.311,0,0,0,.4,2V19Zm-1.854-1.934a1.652,1.652,0,0,0,.918-.237,1.487,1.487,0,0,0,.523-.536V14.772h-.861q-1.547,0-1.547,1.389a.848.848,0,0,0,.272.655A.986.986,0,0,0,23.682,17.066Zm11.03-.738a.684.684,0,0,0-.4-.606,6.016,6.016,0,0,0-1.5-.475,6.853,6.853,0,0,1-1.828-.646,3.062,3.062,0,0,1-1.1-.971,2.319,2.319,0,0,1-.378-1.31,2.628,2.628,0,0,1,1.081-2.158,4.453,4.453,0,0,1,2.83-.848,4.934,4.934,0,0,1,3.023.853,2.666,2.666,0,0,1,1.143,2.241H34.615q0-1.143-1.2-1.143a1.194,1.194,0,0,0-.782.259.8.8,0,0,0-.316.646.737.737,0,0,0,.387.642,3.654,3.654,0,0,0,1.235.4,10.671,10.671,0,0,1,1.49.378,2.706,2.706,0,0,1,2.145,2.646,2.491,2.491,0,0,1-1.156,2.118,5.068,5.068,0,0,1-2.993.817,5.172,5.172,0,0,1-2.18-.439,3.645,3.645,0,0,1-1.494-1.2,2.707,2.707,0,0,1-.536-1.591h2.769a1.145,1.145,0,0,0,.439.962,1.808,1.808,0,0,0,1.081.3,1.422,1.422,0,0,0,.91-.246A.787.787,0,0,0,34.712,16.328ZM42.077,19H39.106V9.49h2.971ZM38.931,7.038A1.322,1.322,0,0,1,39.388,6a1.943,1.943,0,0,1,2.373,0,1.322,1.322,0,0,1,.457,1.037,1.322,1.322,0,0,1-.457,1.037,1.943,1.943,0,0,1-2.373,0A1.322,1.322,0,0,1,38.931,7.038ZM44.591,19V11.547h-1.38V9.49h1.38V9.174a3.631,3.631,0,0,1,1.248-2.909,4.987,4.987,0,0,1,3.243-.949,11.509,11.509,0,0,1,3.094.51l-.4,2.338-.492-.132a7.832,7.832,0,0,0-2.021-.255q-1.7,0-1.7,1.547V9.49h1.863v2.057H47.561V19Zm8.947,0H50.558V9.49h2.979Zm5.827-2.109a1.317,1.317,0,0,0,.967-.338,1.241,1.241,0,0,0,.334-.945h2.777a3.288,3.288,0,0,1-1.121,2.566,4.168,4.168,0,0,1-2.887,1,4.22,4.22,0,0,1-3.27-1.3,5.125,5.125,0,0,1-1.2-3.6v-.123A5.792,5.792,0,0,1,55.5,11.6a3.872,3.872,0,0,1,1.534-1.7,4.573,4.573,0,0,1,2.373-.593,4.116,4.116,0,0,1,2.944,1.028,3.647,3.647,0,0,1,1.09,2.786H60.666A1.626,1.626,0,0,0,60.306,12a1.244,1.244,0,0,0-.967-.4q-1.151,0-1.345,1.468a10.357,10.357,0,0,0-.062,1.283,4.068,4.068,0,0,0,.343,1.986A1.187,1.187,0,0,0,59.365,16.891ZM70.053,19a3.344,3.344,0,0,1-.281-.853,2.754,2.754,0,0,1-2.285,1.028,3.374,3.374,0,0,1-2.285-.813,2.588,2.588,0,0,1-.94-2.043A2.66,2.66,0,0,1,65.4,13.981a5.821,5.821,0,0,1,3.322-.791h.914v-.5q0-1.316-1.134-1.316a.927.927,0,0,0-1.055,1.042H64.489a2.655,2.655,0,0,1,1.173-2.239,4.931,4.931,0,0,1,2.993-.86,4.323,4.323,0,0,1,2.874.888,3.086,3.086,0,0,1,1.081,2.435v4.21a4.311,4.311,0,0,0,.4,2V19ZM68.2,17.066a1.652,1.652,0,0,0,.918-.237,1.487,1.487,0,0,0,.523-.536V14.772h-.861q-1.547,0-1.547,1.389a.848.848,0,0,0,.272.655A.986.986,0,0,0,68.2,17.066Zm10.072-.176a1.317,1.317,0,0,0,.967-.338,1.241,1.241,0,0,0,.334-.945h2.777a3.288,3.288,0,0,1-1.121,2.566,4.168,4.168,0,0,1-2.887,1,4.22,4.22,0,0,1-3.27-1.3,5.125,5.125,0,0,1-1.2-3.6v-.123a5.792,5.792,0,0,1,.532-2.544,3.872,3.872,0,0,1,1.534-1.7,4.573,4.573,0,0,1,2.373-.593,4.116,4.116,0,0,1,2.944,1.028,3.647,3.647,0,0,1,1.09,2.786H79.571A1.626,1.626,0,0,0,79.211,12a1.244,1.244,0,0,0-.967-.4q-1.151,0-1.345,1.468a10.357,10.357,0,0,0-.062,1.283,4.068,4.068,0,0,0,.343,1.986A1.187,1.187,0,0,0,78.27,16.891ZM86.725,19H83.755V9.49h2.971ZM83.579,7.038A1.322,1.322,0,0,1,84.036,6a1.943,1.943,0,0,1,2.373,0,1.322,1.322,0,0,1,.457,1.037,1.322,1.322,0,0,1-.457,1.037,1.943,1.943,0,0,1-2.373,0A1.322,1.322,0,0,1,83.579,7.038Zm4.6,7.119a5.613,5.613,0,0,1,.554-2.536A3.96,3.96,0,0,1,90.32,9.912a4.791,4.791,0,0,1,2.435-.6,4.373,4.373,0,0,1,3.366,1.323,5.076,5.076,0,0,1,1.23,3.6v.105a4.925,4.925,0,0,1-1.235,3.529,4.384,4.384,0,0,1-3.344,1.305,4.434,4.434,0,0,1-3.261-1.217,4.761,4.761,0,0,1-1.327-3.3Zm2.962.185a3.538,3.538,0,0,0,.413,1.934,1.376,1.376,0,0,0,1.222.615q1.582,0,1.617-2.435v-.3q0-2.558-1.635-2.558-1.485,0-1.608,2.206ZM93.159,5.5h3.129L93.845,8.26l-2.417,0Zm8.218,3.99.1,1.116a3.225,3.225,0,0,1,2.716-1.292,2.713,2.713,0,0,1,2.219.888,4.226,4.226,0,0,1,.76,2.672V19H104.2V13a1.6,1.6,0,0,0-.29-1.059,1.342,1.342,0,0,0-1.055-.338,1.413,1.413,0,0,0-1.292.686V19H98.6V9.49Zm11.54,4.685a5.809,5.809,0,0,1,.976-3.56,3.211,3.211,0,0,1,2.725-1.3,2.731,2.731,0,0,1,2.145,1V5.5h2.971V19h-2.663l-.149-1.02a2.8,2.8,0,0,1-2.32,1.2,3.205,3.205,0,0,1-2.689-1.3A5.993,5.993,0,0,1,112.917,14.175Zm2.962.185q0,2.531,1.477,2.531a1.458,1.458,0,0,0,1.406-.826V12.443a1.419,1.419,0,0,0-1.389-.844q-1.371,0-1.485,2.215Zm12.138,4.816a4.889,4.889,0,0,1-3.542-1.305,4.507,4.507,0,0,1-1.354-3.4v-.246a5.84,5.84,0,0,1,.541-2.575,3.955,3.955,0,0,1,1.578-1.727,4.763,4.763,0,0,1,2.461-.611,4.117,4.117,0,0,1,3.164,1.244,4.887,4.887,0,0,1,1.16,3.467v1.151h-5.889a2.135,2.135,0,0,0,.694,1.257,2.066,2.066,0,0,0,1.389.457,2.662,2.662,0,0,0,2.2-.984l1.354,1.6a3.784,3.784,0,0,1-1.569,1.217A5.3,5.3,0,0,1,128.016,19.176Zm-.334-7.576q-1.3,0-1.547,1.723h2.988v-.229a1.467,1.467,0,0,0-.36-1.1A1.434,1.434,0,0,0,127.682,11.6ZM29.091,44H26.12V30.5h2.971Zm1.45-4.843a5.613,5.613,0,0,1,.554-2.536,3.96,3.96,0,0,1,1.591-1.709,4.791,4.791,0,0,1,2.435-.6,4.373,4.373,0,0,1,3.366,1.323,5.076,5.076,0,0,1,1.23,3.6v.105a4.925,4.925,0,0,1-1.235,3.529,4.384,4.384,0,0,1-3.344,1.305,4.434,4.434,0,0,1-3.261-1.217,4.761,4.761,0,0,1-1.327-3.3Zm2.962.185a3.538,3.538,0,0,0,.413,1.934,1.376,1.376,0,0,0,1.222.615q1.582,0,1.617-2.435v-.3q0-2.558-1.635-2.558-1.485,0-1.608,2.206ZM46,41.328a.684.684,0,0,0-.4-.606,6.016,6.016,0,0,0-1.5-.475,6.853,6.853,0,0,1-1.828-.646,3.062,3.062,0,0,1-1.1-.971,2.319,2.319,0,0,1-.378-1.31,2.628,2.628,0,0,1,1.081-2.158,4.453,4.453,0,0,1,2.83-.848,4.934,4.934,0,0,1,3.023.853,2.666,2.666,0,0,1,1.143,2.241H45.9q0-1.143-1.2-1.143a1.194,1.194,0,0,0-.782.259.8.8,0,0,0-.316.646.737.737,0,0,0,.387.642,3.654,3.654,0,0,0,1.235.4,10.671,10.671,0,0,1,1.49.378,2.706,2.706,0,0,1,2.145,2.646A2.491,2.491,0,0,1,47.7,43.358a5.068,5.068,0,0,1-2.993.817,5.172,5.172,0,0,1-2.18-.439,3.645,3.645,0,0,1-1.494-1.2A2.707,2.707,0,0,1,40.5,40.95h2.769a1.145,1.145,0,0,0,.439.962,1.808,1.808,0,0,0,1.081.3,1.422,1.422,0,0,0,.91-.246A.787.787,0,0,0,46,41.328Zm8.376-2.153a6.421,6.421,0,0,1,.475-2.549,3.821,3.821,0,0,1,1.362-1.709,3.591,3.591,0,0,1,2.065-.6,2.855,2.855,0,0,1,2.32,1l.105-.826h2.689V43.64a4.009,4.009,0,0,1-.584,2.184,3.75,3.75,0,0,1-1.692,1.424,6.219,6.219,0,0,1-2.566.5,5.365,5.365,0,0,1-2.026-.4,3.657,3.657,0,0,1-1.5-1.028l1.239-1.74a2.716,2.716,0,0,0,2.18.976,1.764,1.764,0,0,0,1.969-2.021v-.3a2.781,2.781,0,0,1-2.153.94,3.437,3.437,0,0,1-2.812-1.332,5.517,5.517,0,0,1-1.072-3.564Zm2.971.185a3.383,3.383,0,0,0,.439,1.85,1.387,1.387,0,0,0,1.23.681,1.573,1.573,0,0,0,1.4-.642v-4a1.534,1.534,0,0,0-1.38-.65,1.4,1.4,0,0,0-1.239.708A3.858,3.858,0,0,0,57.348,39.359ZM70.83,37.171l-.976-.07a1.752,1.752,0,0,0-1.793.879V44H65.1V34.49h2.777l.1,1.222a2.294,2.294,0,0,1,2.083-1.4,2.888,2.888,0,0,1,.826.105ZM76.992,44a3.344,3.344,0,0,1-.281-.853,2.754,2.754,0,0,1-2.285,1.028,3.374,3.374,0,0,1-2.285-.813,2.588,2.588,0,0,1-.94-2.043,2.66,2.66,0,0,1,1.143-2.338,5.821,5.821,0,0,1,3.322-.791h.914v-.5q0-1.316-1.134-1.316a.927.927,0,0,0-1.055,1.042H71.428A2.655,2.655,0,0,1,72.6,35.175a4.931,4.931,0,0,1,2.993-.86,4.323,4.323,0,0,1,2.874.888,3.086,3.086,0,0,1,1.081,2.435v4.21a4.311,4.311,0,0,0,.4,2V44Zm-1.854-1.934a1.652,1.652,0,0,0,.918-.237,1.487,1.487,0,0,0,.523-.536V39.772h-.861q-1.547,0-1.547,1.389a.848.848,0,0,0,.272.655A.986.986,0,0,0,75.137,42.066Zm8.771-7.576.1,1.116a3.225,3.225,0,0,1,2.716-1.292,2.713,2.713,0,0,1,2.219.888,4.226,4.226,0,0,1,.76,2.672V44H86.73V38a1.6,1.6,0,0,0-.29-1.059,1.342,1.342,0,0,0-1.055-.338,1.413,1.413,0,0,0-1.292.686V44H81.131V34.49Zm7.058,4.667a5.613,5.613,0,0,1,.554-2.536,3.96,3.96,0,0,1,1.591-1.709,4.791,4.791,0,0,1,2.435-.6,4.373,4.373,0,0,1,3.366,1.323,5.076,5.076,0,0,1,1.23,3.6v.105a4.925,4.925,0,0,1-1.235,3.529,4.384,4.384,0,0,1-3.344,1.305A4.434,4.434,0,0,1,92.3,42.958a4.761,4.761,0,0,1-1.327-3.3Zm2.962.185a3.538,3.538,0,0,0,.413,1.934,1.376,1.376,0,0,0,1.222.615q1.582,0,1.617-2.435v-.3q0-2.558-1.635-2.558-1.485,0-1.608,2.206Zm12.5,1.986a.684.684,0,0,0-.4-.606,6.016,6.016,0,0,0-1.5-.475A6.853,6.853,0,0,1,102.7,39.6a3.062,3.062,0,0,1-1.1-.971,2.319,2.319,0,0,1-.378-1.31,2.628,2.628,0,0,1,1.081-2.158,4.453,4.453,0,0,1,2.83-.848,4.934,4.934,0,0,1,3.023.853,2.666,2.666,0,0,1,1.143,2.241h-2.971q0-1.143-1.2-1.143a1.194,1.194,0,0,0-.782.259.8.8,0,0,0-.316.646.737.737,0,0,0,.387.642,3.654,3.654,0,0,0,1.235.4,10.671,10.671,0,0,1,1.49.378,2.706,2.706,0,0,1,2.145,2.646,2.491,2.491,0,0,1-1.156,2.118,5.068,5.068,0,0,1-2.993.817,5.172,5.172,0,0,1-2.18-.439,3.645,3.645,0,0,1-1.494-1.2,2.707,2.707,0,0,1-.536-1.591h2.769a1.145,1.145,0,0,0,.439.962,1.808,1.808,0,0,0,1.081.3,1.422,1.422,0,0,0,.91-.246A.787.787,0,0,0,106.426,41.328Z" transform="translate(1260.817 4162.438)" fill="#fff"/>
    <path id="Trazado_116104" data-name="Trazado 116104" d="M28.151,15.6a1.268,1.268,0,0,0-.479-1.055,5.954,5.954,0,0,0-1.683-.782,16.147,16.147,0,0,1-1.969-.782q-2.487-1.222-2.487-3.357a3.011,3.011,0,0,1,.62-1.876A4.008,4.008,0,0,1,23.906,6.48a6.823,6.823,0,0,1,2.549-.453,5.969,5.969,0,0,1,2.474.492,3.917,3.917,0,0,1,1.7,1.4A3.661,3.661,0,0,1,31.236,10H28.16a1.547,1.547,0,0,0-.479-1.213,1.867,1.867,0,0,0-1.3-.431,2.106,2.106,0,0,0-1.305.365,1.074,1.074,0,0,0,.048,1.819,6.65,6.65,0,0,0,1.854.826,11.36,11.36,0,0,1,2.18.918,3.663,3.663,0,0,1,2.074,3.3,3.125,3.125,0,0,1-1.266,2.637,5.629,5.629,0,0,1-3.472.958,6.888,6.888,0,0,1-2.817-.558,4.247,4.247,0,0,1-1.9-1.529,3.985,3.985,0,0,1-.637-2.237H24.24a1.963,1.963,0,0,0,.532,1.516,2.513,2.513,0,0,0,1.727.488,1.985,1.985,0,0,0,1.208-.33A1.088,1.088,0,0,0,28.151,15.6Zm9.132,3.577a4.889,4.889,0,0,1-3.542-1.305,4.507,4.507,0,0,1-1.354-3.4v-.246a5.84,5.84,0,0,1,.541-2.575,3.955,3.955,0,0,1,1.578-1.727,4.763,4.763,0,0,1,2.461-.611,4.117,4.117,0,0,1,3.164,1.244,4.887,4.887,0,0,1,1.16,3.467v1.151H35.4a2.135,2.135,0,0,0,.694,1.257,2.066,2.066,0,0,0,1.389.457,2.662,2.662,0,0,0,2.2-.984l1.354,1.6a3.784,3.784,0,0,1-1.569,1.217A5.3,5.3,0,0,1,37.283,19.176ZM36.949,11.6q-1.3,0-1.547,1.723H38.39v-.229a1.467,1.467,0,0,0-.36-1.1A1.434,1.434,0,0,0,36.949,11.6Zm15.768.571-.976-.07a1.752,1.752,0,0,0-1.793.879V19H46.986V9.49h2.777l.1,1.222a2.294,2.294,0,0,1,2.083-1.4,2.888,2.888,0,0,1,.826.105Zm5.669,7a4.889,4.889,0,0,1-3.542-1.305,4.507,4.507,0,0,1-1.354-3.4v-.246a5.84,5.84,0,0,1,.541-2.575,3.955,3.955,0,0,1,1.578-1.727,4.763,4.763,0,0,1,2.461-.611,4.117,4.117,0,0,1,3.164,1.244,4.887,4.887,0,0,1,1.16,3.467v1.151H56.5a2.135,2.135,0,0,0,.694,1.257,2.066,2.066,0,0,0,1.389.457,2.662,2.662,0,0,0,2.2-.984l1.354,1.6a3.784,3.784,0,0,1-1.569,1.217A5.3,5.3,0,0,1,58.385,19.176ZM58.051,11.6q-1.3,0-1.547,1.723h2.988v-.229a1.467,1.467,0,0,0-.36-1.1A1.434,1.434,0,0,0,58.051,11.6Zm5.159,2.549a5.709,5.709,0,0,1,.984-3.551,3.233,3.233,0,0,1,2.716-1.283,2.761,2.761,0,0,1,2.338,1.2l.211-1.02h2.566V22.656H69.055V18.209a2.757,2.757,0,0,1-2.162.967,3.2,3.2,0,0,1-2.685-1.305A6.027,6.027,0,0,1,63.21,14.148Zm2.962.185q0,2.558,1.477,2.558a1.43,1.43,0,0,0,1.406-.773V12.355a1.4,1.4,0,0,0-1.389-.756q-1.38,0-1.485,2.206Zm13.192,3.639a3.054,3.054,0,0,1-2.54,1.2,3,3,0,0,1-2.369-.91,3.826,3.826,0,0,1-.8-2.615V9.49h2.962v6.179A1.065,1.065,0,0,0,77.8,16.891a1.548,1.548,0,0,0,1.45-.729V9.49H82.23V19H79.453ZM86.976,19H84.005V9.49h2.971ZM83.829,7.038A1.322,1.322,0,0,1,84.286,6,1.943,1.943,0,0,1,86.66,6a1.322,1.322,0,0,1,.457,1.037,1.322,1.322,0,0,1-.457,1.037,1.943,1.943,0,0,1-2.373,0A1.322,1.322,0,0,1,83.829,7.038ZM93.4,19.176a4.889,4.889,0,0,1-3.542-1.305,4.507,4.507,0,0,1-1.354-3.4v-.246a5.84,5.84,0,0,1,.541-2.575,3.955,3.955,0,0,1,1.578-1.727,4.763,4.763,0,0,1,2.461-.611,4.117,4.117,0,0,1,3.164,1.244,4.887,4.887,0,0,1,1.16,3.467v1.151H91.52a2.135,2.135,0,0,0,.694,1.257,2.066,2.066,0,0,0,1.389.457,2.662,2.662,0,0,0,2.2-.984l1.354,1.6a3.784,3.784,0,0,1-1.569,1.217A5.3,5.3,0,0,1,93.4,19.176ZM93.067,11.6q-1.3,0-1.547,1.723h2.988v-.229a1.467,1.467,0,0,0-.36-1.1A1.434,1.434,0,0,0,93.067,11.6Zm11.285.571-.976-.07a1.752,1.752,0,0,0-1.793.879V19H98.621V9.49H101.4l.1,1.222a2.294,2.294,0,0,1,2.083-1.4,2.888,2.888,0,0,1,.826.105Zm5.669,7a4.889,4.889,0,0,1-3.542-1.305,4.507,4.507,0,0,1-1.354-3.4v-.246a5.84,5.84,0,0,1,.541-2.575,3.955,3.955,0,0,1,1.578-1.727,4.763,4.763,0,0,1,2.461-.611,4.117,4.117,0,0,1,3.164,1.244,4.887,4.887,0,0,1,1.16,3.467v1.151H108.14a2.135,2.135,0,0,0,.694,1.257,2.066,2.066,0,0,0,1.389.457,2.662,2.662,0,0,0,2.2-.984l1.354,1.6a3.784,3.784,0,0,1-1.569,1.217A5.3,5.3,0,0,1,110.021,19.176Zm-.334-7.576q-1.3,0-1.547,1.723h2.988v-.229a1.467,1.467,0,0,0-.36-1.1A1.434,1.434,0,0,0,109.687,11.6ZM27.861,34.49l.1,1.116a3.27,3.27,0,0,1,2.716-1.292,2.407,2.407,0,0,1,2.435,1.433A3.165,3.165,0,0,1,35.9,34.314q2.892,0,2.971,3.5V44H35.9V38a1.813,1.813,0,0,0-.246-1.063,1.048,1.048,0,0,0-.9-.334,1.4,1.4,0,0,0-1.31.782l.009.123V44H30.489V38.015a1.906,1.906,0,0,0-.237-1.081,1.045,1.045,0,0,0-.905-.334,1.42,1.42,0,0,0-1.3.782V44H25.083V34.49Zm12.331,4.667a5.613,5.613,0,0,1,.554-2.536,3.96,3.96,0,0,1,1.591-1.709,4.791,4.791,0,0,1,2.435-.6,4.373,4.373,0,0,1,3.366,1.323,5.076,5.076,0,0,1,1.23,3.6v.105a4.925,4.925,0,0,1-1.235,3.529,4.384,4.384,0,0,1-3.344,1.305,4.434,4.434,0,0,1-3.261-1.217,4.761,4.761,0,0,1-1.327-3.3Zm2.962.185a3.538,3.538,0,0,0,.413,1.934,1.376,1.376,0,0,0,1.222.615q1.582,0,1.617-2.435v-.3q0-2.558-1.635-2.558-1.485,0-1.608,2.206ZM53.8,44H50.827V30.5H53.8Zm6.425.176a4.889,4.889,0,0,1-3.542-1.305,4.507,4.507,0,0,1-1.354-3.4v-.246a5.84,5.84,0,0,1,.541-2.575,3.955,3.955,0,0,1,1.578-1.727,4.763,4.763,0,0,1,2.461-.611,4.117,4.117,0,0,1,3.164,1.244,4.887,4.887,0,0,1,1.16,3.467v1.151H58.341a2.135,2.135,0,0,0,.694,1.257,2.066,2.066,0,0,0,1.389.457,2.662,2.662,0,0,0,2.2-.984l1.354,1.6a3.784,3.784,0,0,1-1.569,1.217A5.3,5.3,0,0,1,60.222,44.176ZM59.888,36.6q-1.3,0-1.547,1.723h2.988v-.229a1.467,1.467,0,0,0-.36-1.1A1.434,1.434,0,0,0,59.888,36.6Zm11.285.571L70.2,37.1a1.752,1.752,0,0,0-1.793.879V44H65.443V34.49H68.22l.1,1.222a2.294,2.294,0,0,1,2.083-1.4,2.888,2.888,0,0,1,.826.105Zm5.177,1.986a5.613,5.613,0,0,1,.554-2.536,3.96,3.96,0,0,1,1.591-1.709,4.791,4.791,0,0,1,2.435-.6A4.373,4.373,0,0,1,84.3,35.637a5.076,5.076,0,0,1,1.23,3.6v.105a4.925,4.925,0,0,1-1.235,3.529,4.384,4.384,0,0,1-3.344,1.305,4.434,4.434,0,0,1-3.261-1.217,4.761,4.761,0,0,1-1.327-3.3Zm2.962.185a3.538,3.538,0,0,0,.413,1.934,1.376,1.376,0,0,0,1.222.615q1.582,0,1.617-2.435v-.3q0-2.558-1.635-2.558-1.485,0-1.608,2.206ZM94.034,34.49l.1,1.116a3.225,3.225,0,0,1,2.716-1.292,2.713,2.713,0,0,1,2.219.888,4.226,4.226,0,0,1,.76,2.672V44H96.855V38a1.6,1.6,0,0,0-.29-1.059A1.342,1.342,0,0,0,95.51,36.6a1.413,1.413,0,0,0-1.292.686V44H91.256V34.49Zm7.058,4.667a5.613,5.613,0,0,1,.554-2.536,3.96,3.96,0,0,1,1.591-1.709,4.791,4.791,0,0,1,2.435-.6,4.373,4.373,0,0,1,3.366,1.323,5.076,5.076,0,0,1,1.23,3.6v.105a4.925,4.925,0,0,1-1.235,3.529,4.384,4.384,0,0,1-3.344,1.305,4.434,4.434,0,0,1-3.261-1.217,4.761,4.761,0,0,1-1.327-3.3Zm2.962.185a3.538,3.538,0,0,0,.413,1.934,1.376,1.376,0,0,0,1.222.615q1.582,0,1.617-2.435v-.3q0-2.558-1.635-2.558-1.485,0-1.608,2.206Z" transform="translate(1260.817 4346.86)" fill="#fff"/>
    <g id="Grupo_143181" data-name="Grupo 143181" transform="translate(356.856 4157.854)">
      <rect id="Rectángulo_37635" data-name="Rectángulo 37635" width="47.774" height="33.665" transform="translate(0 11.429)" fill="#b0c0d2"/>
      <path id="Trazado_115247" data-name="Trazado 115247" d="M193.217,0V56.523l40.231-28.262Z" transform="translate(-147.043)" fill="#b0c0d2"/>
    </g>
    <g id="Grupo_143191" data-name="Grupo 143191" transform="translate(356.856 4342.277)">
      <rect id="Rectángulo_37635-2" data-name="Rectángulo 37635" width="47.774" height="33.665" transform="translate(38.631 11.429)" fill="#b0c0d2"/>
      <path id="Trazado_115247-2" data-name="Trazado 115247" d="M233.449,0V56.524L193.217,28.262Z" transform="translate(-193.217 0)" fill="#b0c0d2"/>
    </g>
    <g id="Grupo_143202" data-name="Grupo 143202" transform="translate(356.856 4521.277)">
      <rect id="Rectángulo_37635-3" data-name="Rectángulo 37635" width="47.774" height="33.665" transform="translate(0 11.429)" fill="#b0c0d2"/>
      <path id="Trazado_115247-3" data-name="Trazado 115247" d="M193.217,0V56.524l40.231-28.262Z" transform="translate(-147.043 0)" fill="#b0c0d2"/>
    </g>
    <g id="Grupo_143204" data-name="Grupo 143204" transform="translate(624.318 4521.277)">
      <rect id="Rectángulo_37635-4" data-name="Rectángulo 37635" width="47.774" height="33.665" transform="translate(0 11.429)" fill="#b0c0d2"/>
      <path id="Trazado_115247-4" data-name="Trazado 115247" d="M193.217,0V56.524l40.231-28.262Z" transform="translate(-147.043 0)" fill="#b0c0d2"/>
    </g>
    <g id="Grupo_143206" data-name="Grupo 143206" transform="translate(895 4521.277)">
      <rect id="Rectángulo_37635-5" data-name="Rectángulo 37635" width="47.774" height="33.665" transform="translate(0 11.429)" fill="#b0c0d2"/>
      <path id="Trazado_115247-5" data-name="Trazado 115247" d="M193.217,0V56.524l40.231-28.262Z" transform="translate(-147.043 0)" fill="#b0c0d2"/>
    </g>
    <g id="Grupo_143199" data-name="Grupo 143199" transform="translate(239.797 4503.742) rotate(-90)">
      <rect id="Rectángulo_37635-6" data-name="Rectángulo 37635" width="47.774" height="33.665" transform="translate(38.631 11.429)" fill="#b0c0d2"/>
      <path id="Trazado_115247-6" data-name="Trazado 115247" d="M233.449,0V56.524L193.217,28.262Z" transform="translate(-193.217 0)" fill="#b0c0d2"/>
    </g>
    <g id="Grupo_143183" data-name="Grupo 143183" transform="translate(618.594 4157.854)">
      <rect id="Rectángulo_37635-7" data-name="Rectángulo 37635" width="47.774" height="33.665" transform="translate(0 11.429)" fill="#b0c0d2"/>
      <path id="Trazado_115247-7" data-name="Trazado 115247" d="M193.217,0V56.523l40.231-28.262Z" transform="translate(-147.043)" fill="#b0c0d2"/>
    </g>
    <g id="Grupo_143193" data-name="Grupo 143193" transform="translate(618.594 4342.277)">
      <rect id="Rectángulo_37635-8" data-name="Rectángulo 37635" width="47.774" height="33.665" transform="translate(38.631 11.429)" fill="#b0c0d2"/>
      <path id="Trazado_115247-8" data-name="Trazado 115247" d="M233.449,0V56.524L193.217,28.262Z" transform="translate(-193.217 0)" fill="#b0c0d2"/>
    </g>
    <g id="Grupo_143185" data-name="Grupo 143185" transform="translate(890.887 4157.854)">
      <rect id="Rectángulo_37635-9" data-name="Rectángulo 37635" width="47.774" height="33.665" transform="translate(0 11.429)" fill="#b0c0d2"/>
      <path id="Trazado_115247-9" data-name="Trazado 115247" d="M193.217,0V56.523l40.231-28.262Z" transform="translate(-147.043)" fill="#b0c0d2"/>
    </g>
    <g id="Grupo_143195" data-name="Grupo 143195" transform="translate(890.887 4342.277)">
      <rect id="Rectángulo_37635-10" data-name="Rectángulo 37635" width="47.774" height="33.665" transform="translate(38.631 11.429)" fill="#b0c0d2"/>
      <path id="Trazado_115247-10" data-name="Trazado 115247" d="M233.449,0V56.524L193.217,28.262Z" transform="translate(-193.217 0)" fill="#b0c0d2"/>
    </g>
    <g id="Grupo_143187" data-name="Grupo 143187" transform="translate(1155.225 4157.854)">
      <rect id="Rectángulo_37635-11" data-name="Rectángulo 37635" width="47.774" height="33.665" transform="translate(0 11.429)" fill="#b0c0d2"/>
      <path id="Trazado_115247-11" data-name="Trazado 115247" d="M193.217,0V56.523l40.231-28.262Z" transform="translate(-147.043)" fill="#b0c0d2"/>
    </g>
    <g id="Grupo_143197" data-name="Grupo 143197" transform="translate(1155.225 4342.277)">
      <rect id="Rectángulo_37635-12" data-name="Rectángulo 37635" width="47.774" height="33.665" transform="translate(38.631 11.429)" fill="#b0c0d2"/>
      <path id="Trazado_115247-12" data-name="Trazado 115247" d="M233.449,0V56.524L193.217,28.262Z" transform="translate(-193.217 0)" fill="#b0c0d2"/>
    </g>
    <g id="Grupo_143189" data-name="Grupo 143189" transform="translate(1359.674 4233.914) rotate(90)">
      <rect id="Rectángulo_37635-13" data-name="Rectángulo 37635" width="47.774" height="33.665" transform="translate(0 11.429)" fill="#b0c0d2"/>
      <path id="Trazado_115247-13" data-name="Trazado 115247" d="M193.217,0V56.523l40.231-28.262Z" transform="translate(-147.043)" fill="#b0c0d2"/>
    </g>
  </g>
</svg>
