<svg xmlns="http://www.w3.org/2000/svg" width="250" height="66" viewBox="0 0 250 66">
  <g id="cajon1" transform="translate(-244 -6540)">
    <g id="Grupo_143286" data-name="Grupo 143286" transform="translate(244 6540)">
      <g id="Grupo_143285" data-name="Grupo 143285" transform="translate(0)">
        <rect id="Rectángulo_38066" data-name="Rectángulo 38066" width="250" height="66" rx="12" fill="#bada95"/>
        <line id="Línea_178" data-name="Línea 178" x2="157.067" transform="translate(7.244 32.126)" fill="none"/>
        <g id="Grupo_143288" data-name="Grupo 143288" transform="translate(25 13.469)">
          <path id="Trazado_115818" data-name="Trazado 115818" d="M7.7-6.359H1.188V-7.617H7.7Zm0,3.242H1.188v-1.25H7.7Z" transform="translate(139.31 25.531)"/>
          <path id="Trazado_115817" data-name="Trazado 115817" d="M6.758-11.43v1.57H6.523a3.768,3.768,0,0,0-2.547.875A3.661,3.661,0,0,0,2.844-6.57,3.083,3.083,0,0,1,5.18-7.531,2.912,2.912,0,0,1,7.559-6.469,4.185,4.185,0,0,1,8.43-3.727,3.912,3.912,0,0,1,7.41-.918,3.519,3.519,0,0,1,4.734.156,3.438,3.438,0,0,1,1.973-1.1,4.948,4.948,0,0,1,.914-4.4v-.648A6.962,6.962,0,0,1,2.371-9.734a5.224,5.224,0,0,1,4.191-1.7ZM4.719-6a2,2,0,0,0-1.145.352,2.055,2.055,0,0,0-.762.938v.578a3.405,3.405,0,0,0,.531,2.012,1.62,1.62,0,0,0,1.375.746,1.6,1.6,0,0,0,1.336-.633,2.635,2.635,0,0,0,.492-1.664,2.673,2.673,0,0,0-.5-1.68A1.594,1.594,0,0,0,4.719-6ZM16.367-4.055h1.414v1.523H16.367V0h-1.9V-2.531H9.555L9.5-3.687l4.906-7.687h1.961Zm-4.875,0h2.977V-8.8l-.141.25ZM20.344-2a1.084,1.084,0,0,1,.82.3,1.045,1.045,0,0,1,.289.754,1.008,1.008,0,0,1-.289.738,1.1,1.1,0,0,1-.82.293,1.1,1.1,0,0,1-.8-.289.991.991,0,0,1-.3-.742,1.045,1.045,0,0,1,.289-.754A1.074,1.074,0,0,1,20.344-2ZM31.156,0H23.508V-1.3L27.3-5.437a9.436,9.436,0,0,0,1.168-1.527,2.475,2.475,0,0,0,.348-1.23,1.87,1.87,0,0,0-.457-1.312,1.585,1.585,0,0,0-1.23-.5,1.827,1.827,0,0,0-1.43.563,2.212,2.212,0,0,0-.508,1.539h-1.9a3.721,3.721,0,0,1,.473-1.871,3.255,3.255,0,0,1,1.352-1.293,4.3,4.3,0,0,1,2.027-.461,3.848,3.848,0,0,1,2.613.832,2.888,2.888,0,0,1,.957,2.3,3.9,3.9,0,0,1-.48,1.785,10.151,10.151,0,0,1-1.574,2.121L25.875-1.516h5.281Zm5.352-9.187a2.283,2.283,0,0,1,.664-1.691,2.363,2.363,0,0,1,1.742-.66,2.371,2.371,0,0,1,1.754.66,2.34,2.34,0,0,1,.66,1.73v.563a2.267,2.267,0,0,1-.66,1.68,2.358,2.358,0,0,1-1.738.656,2.433,2.433,0,0,1-1.738-.645,2.275,2.275,0,0,1-.684-1.738Zm1.328.6a1.253,1.253,0,0,0,.3.873,1.018,1.018,0,0,0,.793.333,1,1,0,0,0,.781-.333,1.31,1.31,0,0,0,.3-.9v-.572a1.268,1.268,0,0,0-.3-.877,1.012,1.012,0,0,0-.793-.337.983.983,0,0,0-.785.341,1.327,1.327,0,0,0-.293.9Zm4.141,5.8a2.236,2.236,0,0,1,.68-1.7,2.411,2.411,0,0,1,1.734-.648,2.407,2.407,0,0,1,1.738.648,2.312,2.312,0,0,1,.676,1.75v.555A2.285,2.285,0,0,1,46.152-.5a2.344,2.344,0,0,1-1.746.66A2.413,2.413,0,0,1,42.645-.5a2.3,2.3,0,0,1-.668-1.723Zm1.328.6a1.246,1.246,0,0,0,.309.871,1.023,1.023,0,0,0,.793.34.991.991,0,0,0,.785-.324,1.333,1.333,0,0,0,.285-.91V-2.8a1.235,1.235,0,0,0-.3-.875A1.019,1.019,0,0,0,44.391-4a1.015,1.015,0,0,0-.785.328,1.291,1.291,0,0,0-.3.906ZM39.32-.852l-.977-.562L43.9-10.3l.977.563Z" transform="translate(158.2 25.531)"/>
          <g id="Grupo_143287" data-name="Grupo 143287">
            <path id="Trazado_115815" data-name="Trazado 115815" d="M5.7,0H4.242V-9.633L1.328-8.562V-9.875L5.469-11.43H5.7ZM16.828-8.406a2.641,2.641,0,0,1-.449,1.516,3.056,3.056,0,0,1-1.215,1.039,3.26,3.26,0,0,1,1.41,1.117,2.811,2.811,0,0,1,.52,1.664,2.972,2.972,0,0,1-1,2.352,3.827,3.827,0,0,1-2.621.875,3.81,3.81,0,0,1-2.629-.879A2.986,2.986,0,0,1,9.859-3.07a2.9,2.9,0,0,1,.5-1.664,3.136,3.136,0,0,1,1.395-1.125,2.981,2.981,0,0,1-1.2-1.039,2.679,2.679,0,0,1-.437-1.508,2.94,2.94,0,0,1,.922-2.281,3.458,3.458,0,0,1,2.43-.844,3.461,3.461,0,0,1,2.426.844A2.934,2.934,0,0,1,16.828-8.406Zm-1.18,5.3a2.1,2.1,0,0,0-.605-1.555,2.147,2.147,0,0,0-1.582-.6,2.11,2.11,0,0,0-1.566.594A2.12,2.12,0,0,0,11.3-3.1a2.019,2.019,0,0,0,.574,1.523,2.2,2.2,0,0,0,1.6.555,2.2,2.2,0,0,0,1.594-.559A2.014,2.014,0,0,0,15.648-3.1Zm-2.172-7.242a1.865,1.865,0,0,0-1.379.527,1.937,1.937,0,0,0-.527,1.434,1.928,1.928,0,0,0,.52,1.4,1.844,1.844,0,0,0,1.387.535,1.844,1.844,0,0,0,1.387-.535,1.928,1.928,0,0,0,.52-1.4A1.929,1.929,0,0,0,14.844-9.8,1.839,1.839,0,0,0,13.477-10.344ZM19.094-.758a.905.905,0,0,1,.223-.625.848.848,0,0,1,.668-.25.874.874,0,0,1,.676.25.887.887,0,0,1,.23.625.839.839,0,0,1-.23.6.89.89,0,0,1-.676.242.863.863,0,0,1-.668-.242A.855.855,0,0,1,19.094-.758Zm10.93-7.648a2.641,2.641,0,0,1-.449,1.516,3.057,3.057,0,0,1-1.215,1.039,3.26,3.26,0,0,1,1.41,1.117,2.811,2.811,0,0,1,.52,1.664,2.972,2.972,0,0,1-1,2.352,3.827,3.827,0,0,1-2.621.875,3.81,3.81,0,0,1-2.629-.879,2.986,2.986,0,0,1-.988-2.348,2.9,2.9,0,0,1,.5-1.664,3.136,3.136,0,0,1,1.395-1.125,2.981,2.981,0,0,1-1.2-1.039,2.679,2.679,0,0,1-.437-1.508,2.94,2.94,0,0,1,.922-2.281,3.458,3.458,0,0,1,2.43-.844,3.461,3.461,0,0,1,2.426.844A2.934,2.934,0,0,1,30.023-8.406Zm-1.18,5.3a2.1,2.1,0,0,0-.605-1.555,2.147,2.147,0,0,0-1.582-.6,2.11,2.11,0,0,0-1.566.594A2.12,2.12,0,0,0,24.5-3.1a2.019,2.019,0,0,0,.574,1.523,2.2,2.2,0,0,0,1.6.555,2.2,2.2,0,0,0,1.594-.559A2.014,2.014,0,0,0,28.844-3.1Zm-2.172-7.242a1.865,1.865,0,0,0-1.379.527,1.937,1.937,0,0,0-.527,1.434,1.928,1.928,0,0,0,.52,1.4,1.844,1.844,0,0,0,1.387.535,1.844,1.844,0,0,0,1.387-.535,1.928,1.928,0,0,0,.52-1.4A1.929,1.929,0,0,0,28.039-9.8,1.839,1.839,0,0,0,26.672-10.344ZM39.055-5.367,40.93-8.453h1.688l-2.766,4.18L42.7,0H41.031L39.078-3.164,37.125,0h-1.68L38.3-4.273l-2.766-4.18H37.2ZM52.711,0H51.258V-9.633l-2.914,1.07V-9.875l4.141-1.555h.227ZM64.078-4.852a6.61,6.61,0,0,1-.867,3.773A3.084,3.084,0,0,1,60.5.156a3.107,3.107,0,0,1-2.7-1.207A6.274,6.274,0,0,1,56.9-4.656v-1.93a6.463,6.463,0,0,1,.867-3.727,3.108,3.108,0,0,1,2.719-1.219,3.136,3.136,0,0,1,2.7,1.176,6.237,6.237,0,0,1,.891,3.629ZM62.633-6.828A5.3,5.3,0,0,0,62.117-9.5a1.775,1.775,0,0,0-1.633-.84,1.751,1.751,0,0,0-1.617.836,5.171,5.171,0,0,0-.523,2.57v2.313A5.381,5.381,0,0,0,58.879-1.9a1.771,1.771,0,0,0,1.621.879,1.747,1.747,0,0,0,1.59-.828,5.186,5.186,0,0,0,.543-2.609Zm10.43,1.977A6.61,6.61,0,0,1,72.2-1.078,3.084,3.084,0,0,1,69.484.156a3.107,3.107,0,0,1-2.7-1.207,6.274,6.274,0,0,1-.906-3.605v-1.93a6.463,6.463,0,0,1,.867-3.727,3.108,3.108,0,0,1,2.719-1.219,3.136,3.136,0,0,1,2.7,1.176,6.237,6.237,0,0,1,.891,3.629ZM71.617-6.828A5.3,5.3,0,0,0,71.1-9.5a1.775,1.775,0,0,0-1.633-.84,1.751,1.751,0,0,0-1.617.836,5.171,5.171,0,0,0-.523,2.57v2.313A5.381,5.381,0,0,0,67.863-1.9a1.771,1.771,0,0,0,1.621.879,1.747,1.747,0,0,0,1.59-.828,5.186,5.186,0,0,0,.543-2.609Z" transform="translate(28.5 11.531)"/>
            <path id="Trazado_115816" data-name="Trazado 115816" d="M8.4,0H.945V-1.039L4.883-5.414A9.354,9.354,0,0,0,6.09-7.027a2.693,2.693,0,0,0,.332-1.285,2.041,2.041,0,0,0-.539-1.461,1.885,1.885,0,0,0-1.437-.57A2.232,2.232,0,0,0,2.77-9.73a2.343,2.343,0,0,0-.6,1.707H.727a3.355,3.355,0,0,1,1.012-2.539,3.751,3.751,0,0,1,2.707-.969,3.6,3.6,0,0,1,2.508.832,2.838,2.838,0,0,1,.922,2.215q0,1.68-2.141,4L2.688-1.18H8.4Zm7.07-5a3.536,3.536,0,0,1-1.082.867,2.936,2.936,0,0,1-1.379.328,3.031,3.031,0,0,1-1.715-.484,3.149,3.149,0,0,1-1.129-1.363,4.648,4.648,0,0,1-.4-1.941A4.735,4.735,0,0,1,10.2-9.648a3.185,3.185,0,0,1,1.23-1.4,3.509,3.509,0,0,1,1.859-.484,3.177,3.177,0,0,1,2.66,1.262,5.5,5.5,0,0,1,.973,3.441v.422q0,3.32-1.312,4.848A5.043,5.043,0,0,1,11.648.008h-.281V-1.219h.3a3.979,3.979,0,0,0,2.75-.932A4,4,0,0,0,15.469-5ZM13.242-5a2.232,2.232,0,0,0,1.34-.445,2.625,2.625,0,0,0,.895-1.1v-.578a3.977,3.977,0,0,0-.617-2.312,1.842,1.842,0,0,0-1.562-.891,1.856,1.856,0,0,0-1.531.73,3.013,3.013,0,0,0-.578,1.926,3.136,3.136,0,0,0,.559,1.918A1.769,1.769,0,0,0,13.242-5ZM19.094-.758a.905.905,0,0,1,.223-.625.848.848,0,0,1,.668-.25.874.874,0,0,1,.676.25.887.887,0,0,1,.23.625.839.839,0,0,1-.23.6.89.89,0,0,1-.676.242.863.863,0,0,1-.668-.242A.855.855,0,0,1,19.094-.758Zm6.133-5.633h1.086a2.387,2.387,0,0,0,1.609-.539,1.8,1.8,0,0,0,.586-1.414,1.764,1.764,0,0,0-1.992-2,2.072,2.072,0,0,0-1.5.535,1.873,1.873,0,0,0-.559,1.418H23.016A2.9,2.9,0,0,1,24-10.637a3.6,3.6,0,0,1,2.512-.895,3.558,3.558,0,0,1,2.523.852,3.076,3.076,0,0,1,.914,2.367,2.5,2.5,0,0,1-.48,1.438,2.9,2.9,0,0,1-1.309,1.039,2.8,2.8,0,0,1,1.449.984,2.734,2.734,0,0,1,.512,1.68,3.1,3.1,0,0,1-1,2.43,3.745,3.745,0,0,1-2.6.9,3.844,3.844,0,0,1-2.605-.867,2.877,2.877,0,0,1-1-2.289h1.453a1.859,1.859,0,0,0,.586,1.438,2.229,2.229,0,0,0,1.57.539,2.187,2.187,0,0,0,1.6-.547,2.108,2.108,0,0,0,.555-1.57,1.912,1.912,0,0,0-.609-1.523,2.655,2.655,0,0,0-1.758-.547H25.227Z" transform="translate(50.5 38.531)"/>
            <line id="Línea_179" data-name="Línea 179" x2="130.889" transform="translate(0 18.031)" fill="none" stroke="#000" stroke-width="1"/>
          </g>
        </g>
      </g>
    </g>
  </g>
</svg>
