<svg xmlns="http://www.w3.org/2000/svg" xmlns:xlink="http://www.w3.org/1999/xlink" width="172.099" height="141.256" viewBox="0 0 172.099 141.256">
  <defs>
    <clipPath id="clip-path">
      <rect id="Rectángulo_34853" data-name="Rectángulo 34853" width="172.099" height="141.256" fill="none"/>
    </clipPath>
  </defs>
  <g id="icon3" transform="translate(0)">
    <path id="Trazado_114199" data-name="Trazado 114199" d="M13.717,0V13.609H0V23H13.717V36.611h9.145V23H36.613V13.609H22.862V0Z" fill="#78b62e"/>
    <g id="Grupo_142402" data-name="Grupo 142402">
      <g id="Grupo_142401" data-name="Grupo 142401" clip-path="url(#clip-path)">
        <path id="Trazado_114200" data-name="Trazado 114200" d="M112.1,3.282c2.574.659,4.959,1.7,6.526,3.946a42.021,42.021,0,0,1,2.284,4.139,74.553,74.553,0,0,1,7.922.822A23.573,23.573,0,0,1,147.424,34.28c.154,4.439.049,8.888.061,13.333,0,.476,0,.953,0,1.764.586-.542.927-.861,1.272-1.176a8.977,8.977,0,0,1,12.435.035c.952.888,1.873,1.812,2.763,2.76a2.014,2.014,0,1,1-2.834,2.851c-.917-.86-1.77-1.786-2.683-2.65a4.782,4.782,0,0,0-4.761-1.24l13.237,13.22c0-.7.051-1.666-.024-2.623a4.931,4.931,0,0,0-.491-1.243,2,2,0,0,1,.97-2.727,1.934,1.934,0,0,1,2.622.94,8.824,8.824,0,0,1,.449,7.907c-.165.415-.371.813-.585,1.278,1.574,1.608,2.64,3.517,2.1,5.79a8.347,8.347,0,0,1-1.868,3.756c-4.57,4.759-9.285,9.38-13.961,14.038-1.048,1.043-2.22,1.129-3.088.3-.9-.857-.81-2.09.28-3.184q6.8-6.822,13.611-13.628c1.442-1.448,1.48-2.589.131-3.956-.32.3-.654.582-.964.892q-8.861,8.853-17.732,17.7a2.857,2.857,0,0,0-.9,2.246c.029,8.8.053,17.6.007,26.4-.056,10.73-6.355,19.632-16.341,22.91a23.137,23.137,0,0,1-6.985,1.2q-31.315.137-62.631.031c-13.042-.054-23.4-10.828-23.436-24.207-.04-16.028-.01-32.057-.01-48.085,0-11.045-.026-22.089.008-33.134.036-11.253,7.177-20.692,17.885-23.387,2.835-.713,5.841-.75,8.92-1.115.27-.658.583-1.59,1.021-2.459C67.449,5.756,70.139,4.2,73.3,3.282ZM64.636,15.627c-.916,0-1.678,0-2.439,0A19.738,19.738,0,0,0,42.129,35.682q-.066,40.746,0,81.492a19.763,19.763,0,0,0,20.127,20.011q30.576.03,61.153-.012a20.473,20.473,0,0,0,4.272-.431,19.617,19.617,0,0,0,15.742-19.372c.083-7.677.02-15.355.014-23.033A10.516,10.516,0,0,0,143.3,93.2a15,15,0,0,1-10.578,2.445c0,.717,0,1.249,0,1.782,0,5.837.036,11.674-.009,17.511-.06,7.865-5.409,13.487-13.187,13.529q-26.736.144-53.474,0a12.86,12.86,0,0,1-13.18-13.128q-.072-34.078-.014-68.157c0-1.58.757-2.5,2-2.515,1.278-.019,2.009.86,2.034,2.449.007.4,0,.809,0,1.213q0,33.135,0,66.271c0,6.116,3.7,9.853,9.787,9.856q26.132.014,52.263,0c6.028,0,9.714-3.714,9.732-9.764.014-5.074.005-10.147,0-15.221,0-.46-.05-.92-.082-1.468-.458.166-.708.263-.961.348a7.072,7.072,0,0,1-9.5-5.948,6.9,6.9,0,0,1,2.446-6.13,2.063,2.063,0,0,0,.766-2.192,13.784,13.784,0,0,1,.876-7.913c1.161-2.84,3.349-4.852,5.477-6.908a2.96,2.96,0,0,0,1.007-2.34c-.038-10.237-.02-20.474-.029-30.711a18.145,18.145,0,0,0-.138-2.283,8.935,8.935,0,0,0-7.735-7.495,1.65,1.65,0,0,0-1.769.82,9.98,9.98,0,0,1-6.185,4.223c-.595.144-1.207.216-1.834.326-.025.552-.034,1-.068,1.442a6.87,6.87,0,0,1-6.687,6.646c-7.632.079-15.266.066-22.9.006a6.747,6.747,0,0,1-6.515-5.426,25.3,25.3,0,0,1-.312-2.707,10.7,10.7,0,0,1-8.365-4.98c-.172-.263-.783-.352-1.182-.335a8.715,8.715,0,0,0-7.836,7.02,38.131,38.131,0,0,0-.257,4.827c-.058,1.417-.75,2.232-1.948,2.263-1.233.031-2.05-.835-2.086-2.286-.029-1.166-.039-2.336.022-3.5a12.986,12.986,0,0,1,9.46-11.946c.759-.216,1.541-.354,2.289-.523Zm28.2-8.3c-5.834,0-11.669-.013-17.5,0a6.283,6.283,0,0,0-6.6,6.6c-.017,2.333-.011,4.667,0,7,.017,4.115,2.586,6.756,6.72,6.767q17.367.045,34.736,0c4.052-.011,6.621-2.635,6.672-6.685q.045-3.5,0-7c-.052-4.121-2.658-6.68-6.795-6.686q-8.618-.014-17.234,0m57.05,45.428q-3.509,3.518-7.024,7.043-7.233,7.238-14.466,14.473a10.052,10.052,0,1,0,14.022,14.4c7.119-7.032,14.164-14.14,21.238-21.218a5.179,5.179,0,0,0,.416-.518L149.886,52.752M120.965,22.311c7.361,1.1,11.982,6.787,11.807,14.369-.2,8.521-.045,17.05-.045,25.576v1.691a3,3,0,0,0,.528-.288c3.243-3.23,6.492-6.453,9.7-9.716a2.042,2.042,0,0,0,.468-1.31c.024-5.923.046-11.847-.011-17.769a18.572,18.572,0,0,0-4.55-12.092c-4.668-5.518-10.708-7.657-17.9-7.06Zm-14.1,9.54H78.778c-.246,2.829.831,4.028,3.557,4.03q10.491.01,20.982,0c2.616,0,3.7-1.193,3.547-4.03m15.981,57.958a2.816,2.816,0,0,0,.233,4.075,2.846,2.846,0,0,0,3.992.127l-4.225-4.2" fill="#12263f"/>
        <path id="Trazado_114201" data-name="Trazado 114201" d="M99.446,59.3c5.073,0,10.146.009,15.218-.008a2.279,2.279,0,0,1,2.293,1.071,2,2,0,0,1-1.792,2.958c-1.117.071-2.243.02-3.365.02H84.865c-.36,0-.72.017-1.078-.006a2.04,2.04,0,0,1-2.13-2.111,2,2,0,0,1,2.167-1.914c1.93-.031,3.86-.01,5.791-.01h9.831" fill="#12263f"/>
        <path id="Trazado_114202" data-name="Trazado 114202" d="M99.438,75.018c-5.118,0-10.234-.008-15.351.006a2.172,2.172,0,0,1-2.234-1.157,1.923,1.923,0,0,1,1.162-2.713,5.45,5.45,0,0,1,1.592-.17q14.811-.014,29.622-.005a8.954,8.954,0,0,1,.942.015,2.038,2.038,0,0,1,2.034,2.081A1.983,1.983,0,0,1,115.056,75c-4.4.029-8.8.013-13.195.016q-1.212,0-2.423,0" fill="#12263f"/>
        <path id="Trazado_114203" data-name="Trazado 114203" d="M99.435,82.732q7.407,0,14.813,0a8.863,8.863,0,0,1,1.21.031,1.859,1.859,0,0,1,1.726,1.773,1.817,1.817,0,0,1-1.358,2.062,5.547,5.547,0,0,1-1.59.168q-14.814.014-29.627.005a7.853,7.853,0,0,1-1.075-.029,2.016,2.016,0,0,1-1.876-2.085,1.957,1.957,0,0,1,2.021-1.91c1.48-.043,2.963-.015,4.444-.016H99.435" fill="#12263f"/>
        <path id="Trazado_114204" data-name="Trazado 114204" d="M99.326,51.6q-7.338,0-14.675,0a10.373,10.373,0,0,1-1.21-.036,1.972,1.972,0,0,1-.191-3.894,6.989,6.989,0,0,1,1.47-.106q14.674-.009,29.35,0c2.155,0,3.159.669,3.136,2.073-.023,1.363-.961,1.966-3.07,1.967q-7.406,0-14.81,0" fill="#12263f"/>
        <path id="Trazado_114205" data-name="Trazado 114205" d="M119.184,112.684a7.509,7.509,0,1,1-7.5-7.542,7.514,7.514,0,0,1,7.5,7.542m-4.053-.07a3.454,3.454,0,1,0-3.419,3.551,3.469,3.469,0,0,0,3.419-3.551" fill="#12263f"/>
        <path id="Trazado_114206" data-name="Trazado 114206" d="M73.689,82.741c1.073,0,2.148-.028,3.22.008a1.846,1.846,0,0,1,1.927,1.844,1.78,1.78,0,0,1-1.657,2.083,65.179,65.179,0,0,1-7.1,0,1.758,1.758,0,0,1-1.65-2.076,1.824,1.824,0,0,1,1.906-1.848c1.116-.052,2.236-.011,3.354-.011" fill="#12263f"/>
        <path id="Trazado_114207" data-name="Trazado 114207" d="M73.718,59.311c1.029,0,2.059-.035,3.086.007a2,2,0,1,1,.084,4c-2.19.06-4.385.064-6.574-.005a2,2,0,0,1,.05-3.988c1.116-.052,2.236-.011,3.354-.013" fill="#12263f"/>
        <path id="Trazado_114208" data-name="Trazado 114208" d="M73.634,75.007c-1.073,0-2.148.038-3.219-.01a1.9,1.9,0,0,1-2-1.9,1.873,1.873,0,0,1,1.846-2.059c2.232-.088,4.471-.086,6.7-.006A1.986,1.986,0,0,1,76.852,75c-1.07.05-2.145.011-3.218.011" fill="#12263f"/>
        <path id="Trazado_114209" data-name="Trazado 114209" d="M73.585,51.587c-1.073,0-2.147.035-3.218-.01a1.841,1.841,0,0,1-1.941-1.816,1.819,1.819,0,0,1,1.754-2.118c2.274-.1,4.557-.1,6.832-.012a1.888,1.888,0,0,1,1.838,2.074A1.942,1.942,0,0,1,76.8,51.592c-.089,0-.178.006-.268.006h-2.95v-.011" fill="#12263f"/>
        <path id="Trazado_114210" data-name="Trazado 114210" d="M113.707,101.4a2.074,2.074,0,0,1-2.112,2.267,2.1,2.1,0,0,1-1.927-2.44,2.061,2.061,0,0,1,2.032-2.211,2.115,2.115,0,0,1,2.007,2.384" fill="#12263f"/>
        <path id="Trazado_114211" data-name="Trazado 114211" d="M118.045,105.7a1.944,1.944,0,0,1-1.938-1.976,2.69,2.69,0,0,1,2.328-2.534,2.035,2.035,0,0,1,2.017,2.075,2.617,2.617,0,0,1-2.407,2.435" fill="#12263f"/>
        <path id="Trazado_114212" data-name="Trazado 114212" d="M107.217,103.726a2.012,2.012,0,0,1-1.921,2.018,2.576,2.576,0,0,1-2.448-2.38,1.934,1.934,0,0,1,1.961-2.082,2.684,2.684,0,0,1,2.408,2.444" fill="#12263f"/>
      </g>
    </g>
  </g>
</svg>
