<svg xmlns="http://www.w3.org/2000/svg" xmlns:xlink="http://www.w3.org/1999/xlink" width="163.759" height="144.495" viewBox="0 0 163.759 144.495">
  <defs>
    <clipPath id="clip-path">
      <rect id="Rectángulo_34851" data-name="Rectángulo 34851" width="163.759" height="144.495" fill="none"/>
    </clipPath>
  </defs>
  <g id="icon1" transform="translate(0)">
    <path id="Trazado_114173" data-name="Trazado 114173" d="M13.717,0V13.609H0V23H13.717V36.612h9.145V23H36.613V13.609H22.862V0Z" fill="#78b62e"/>
    <g id="Grupo_142395" data-name="Grupo 142395">
      <g id="Grupo_142394" data-name="Grupo 142394" clip-path="url(#clip-path)">
        <path id="Trazado_114174" data-name="Trazado 114174" d="M24.859,139.892h4.484v-1.6c0-8.931-.023-17.862.01-26.793.022-6.01,3.586-10.429,9.2-11.53A11.176,11.176,0,0,1,51.7,110.345c.082,2.38.013,4.766.013,7.242H65.222c0-2.307-.055-4.594.011-6.878a11.158,11.158,0,0,1,22.3-.384c.082,2.382.014,4.768.014,7.355h13.518c0-2.382-.038-4.666.008-6.948a11.156,11.156,0,0,1,22.292-.429c.1,2.381.016,4.769.016,7.377h13.516c0-2.367-.031-4.65.007-6.931a11.085,11.085,0,0,1,7.176-10.212c7.018-2.691,14.79,2.115,15.082,9.612.277,7.117.1,14.251.115,21.377.007,2.746,0,5.492,0,8.366h4.484v4.6H24.859Zm80.709.036h13.309c.036-.38.089-.685.09-.99,0-9.246.027-18.492-.008-27.738a6.736,6.736,0,1,0-13.463.09c-.023,9.2-.009,18.4-.005,27.6,0,.307.045.614.077,1.036m-35.848-.019H82.983a2.221,2.221,0,0,0,.131-.474c0-9.562.043-19.123-.026-28.684a6.3,6.3,0,0,0-3.661-5.76A6.708,6.708,0,0,0,69.66,111.2c-.04,9.155-.013,18.311-.009,27.466,0,.4.043.79.069,1.244m-22.558.022a9.285,9.285,0,0,0,.111-.991c.005-9.245.031-18.49-.033-27.734a8.092,8.092,0,0,0-.8-3.371,6.6,6.6,0,0,0-7.55-3.383,6.676,6.676,0,0,0-5.055,6.429c-.034,9.47-.014,18.94-.007,28.41a3.39,3.39,0,0,0,.123.64Zm107.6,0c0-10,.128-19.868-.065-29.733-.075-3.814-3.9-6.445-7.662-5.843-3.48.556-5.68,3.269-5.689,7.126-.02,9.019-.007,18.038-.007,27.058v1.392ZM51.774,140c4.308,0,8.5.01,12.686-.025.246,0,.7-.364.7-.564.047-2.73.032-5.461.032-8.242H51.774Zm35.868-.084h13.335v-8.757H87.642Zm49.174-8.747H123.5v8.757h13.319Zm-71.7-8.964H51.836v4.347H65.112Zm71.738.009H123.526V126.5H136.85Zm-49.206,4.32h13.3v-4.354h-13.3Z" fill="#12263f"/>
        <path id="Trazado_114175" data-name="Trazado 114175" d="M121.981,5.867c4.928,4.009,6.964,9.023,5.216,15.494,2.821-.617,5.5-1.194,8.164-1.79,2.866-.639,3.886.224,3.7,3.16a14.968,14.968,0,0,1-10.1,12.881c-.554.193-1.058.246-1.07,1.092-.131,9.121-4.9,15.163-12.987,18.691-9.881,4.309-21.8,1.213-27.984-7.017-2.649-3.525-3.643-6.735-3.8-12.3a36.251,36.251,0,0,1-3.532-1.592A14.543,14.543,0,0,1,71.96,22.44c-.2-2.54.932-3.5,3.458-2.939,2.721.6,5.442,1.208,8.364,1.857C82.131,14.9,84.019,9.8,89.155,5.867h1.357a12.365,12.365,0,0,1,1.683,2.17C93.359,10.5,94.39,13.032,95.5,15.6c6.691-4.011,13.313-4,20.026-.005,1.086-2.517,2.086-4.96,3.2-7.35a16.976,16.976,0,0,1,1.626-2.379Zm.249,37.368a26.653,26.653,0,0,0,1.08-4.8c.323-7.8-3.175-13.847-9.25-18.411-5.449-4.094-11.738-4.021-17.206.051A22.224,22.224,0,0,0,87.63,36.119a12.751,12.751,0,0,0,1.44,7.19c8.512-11.177,24.437-11.048,33.16-.074m-3.1,4.092c-3.145-4.878-7.38-7.7-13.1-7.871C100.2,39.282,95.7,41.813,92.39,46.573c-.519.747-.158,1.1.362,1.553a19.741,19.741,0,0,0,26.379-.8m-42.2-22.885c.815,3.379,3.954,6.432,6.945,6.912.615-1.616,1.231-3.232,1.894-4.973l-8.839-1.939M127.2,31.487a10.627,10.627,0,0,0,7.034-7.072l-8.98,1.984,1.946,5.088M88.981,21.441c.8-.851,1.62-1.678,2.378-2.558a1.1,1.1,0,0,0,.232-.912c-.748-1.863-1.56-3.7-2.385-5.625a8,8,0,0,0-.225,9.1M121.8,12.386c-.785,1.833-1.574,3.631-2.311,5.449a1.086,1.086,0,0,0,.087.931c.8.938,1.666,1.815,2.528,2.733,1.915-2.966,1.44-7.464-.3-9.113" fill="#12263f"/>
        <path id="Trazado_114176" data-name="Trazado 114176" d="M24.859,50.542a39.178,39.178,0,0,1,1.9-5.744c.252-.772.774-.957,1.553-.951,4.976.043,8.916,2.355,12.369,5.651a1.967,1.967,0,0,0,2.442.468A23.636,23.636,0,0,1,60.2,49.892a1.542,1.542,0,0,0,1.875-.394c3.4-3.218,7.24-5.5,12.1-5.655a1.769,1.769,0,0,1,1.961,1.182c2.87,6.4,2.261,12.342-2.154,17.858a1.609,1.609,0,0,0-.382,1.159c1.484,6.3-.291,11.926-3.421,17.315a4.162,4.162,0,0,0-.523,2.13A11.1,11.1,0,0,1,58.661,95.251q-6.91.148-13.827,0A11.124,11.124,0,0,1,33.849,83.092a3.23,3.23,0,0,0-.519-1.72c-2.717-4.561-4.489-9.409-3.8-14.771a5.131,5.131,0,0,0-1.381-4.539c-1.93-2.179-2.655-4.955-3.292-7.73a23.859,23.859,0,0,1,0-3.79m42.43,26.581c3.444-6.167,3.252-12.988-1.217-17.989-4.765-5.331-10.878-7.1-17.791-5.967-5.954.978-10.612,4.041-13.213,9.645-2.289,4.931-1.239,9.677,1.066,14.386,5.618-5.011,9.1-5.449,15.66-2.08,5.823-3.446,9.623-2.954,15.5,2.005M51.742,81.638c-.631-.71-1.153-1.32-1.7-1.908a6.625,6.625,0,0,0-8.134-1.547,6.756,6.756,0,0,0-3.445,7.429,6.67,6.67,0,0,0,6.315,5.2q6.978.139,13.959,0a6.622,6.622,0,0,0,6.276-5.238,6.715,6.715,0,0,0-3.467-7.4,6.585,6.585,0,0,0-8.029,1.486c-.556.589-1.084,1.205-1.777,1.98M31.59,59.121l5.828-6.471c-1.742-2.045-5.044-3.893-7.318-4.014-1.463,3.162-.7,8.131,1.49,10.485m39.952-.609c1.973-2.522,2.508-7.31.985-9.973a14.273,14.273,0,0,0-6.951,3.775l5.966,6.2" fill="#12263f"/>
        <path id="Trazado_114177" data-name="Trazado 114177" d="M163.759,94.946c-2.525-1.661-5.1-3.252-7.552-5.015a2.02,2.02,0,0,0-2.83.043c-1.4,1.063-2.933,1.947-4.367,2.966a1.323,1.323,0,0,1-1.8.016c-1.577-1.129-3.252-2.123-4.824-3.258a1.462,1.462,0,0,0-2.011-.021c-2.175,1.536-4.419,2.974-6.638,4.446-.366.242-.748.46-1.364.837V93.327c0-4.511-.019-9.023.018-13.534a1.714,1.714,0,0,0-.97-1.719c-2.928-1.7-5.825-3.451-8.719-5.206-1.9-1.154-2.031-2.615-.39-4.152a17.684,17.684,0,0,1,9.771-4.587,1.562,1.562,0,0,0,1.108-.66,17.458,17.458,0,0,1,4.43-6.673c-.54-.564-1.043-1.066-1.519-1.591a6.638,6.638,0,0,1,.066-9.293c3.3-3.524,6.236-3.927,10.308-1.29,1.41.913,2.514.488,3.711-.348a6.354,6.354,0,0,1,7.386-.4c2.648,1.634,4.668,3.907,4.22,7.286a12.09,12.09,0,0,1-1.748,3.99,7.475,7.475,0,0,1-1.654,1.523,16.322,16.322,0,0,1,4.959,8.292c.122.522.271,1.038.407,1.557ZM148.1,88.135c1.632-1.084,3.194-2.152,4.786-3.172,2.418-1.548,1.45-1.528,3.8-.04.786.5,1.556,1.02,2.46,1.615a9.068,9.068,0,0,0,.122-.966c.005-5.635.037-11.271-.025-16.9a12.69,12.69,0,0,0-.584-3.713A11.159,11.159,0,0,0,136.9,68.328c-.055,5.77-.016,11.541-.015,17.311,0,.251.032.5.062.953,1.23-.812,2.357-1.462,3.371-2.255a1.528,1.528,0,0,1,2.138.029c1.837,1.3,3.739,2.508,5.639,3.769m9.346-37.063a3.574,3.574,0,0,0-2.094-3.263,2.874,2.874,0,0,0-2.477.111c-3.269,2.325-6.382,2.3-9.628-.026a2.753,2.753,0,0,0-2.264-.22c-2.5,1.014-2.852,3.217-.953,5.128a8.906,8.906,0,0,1,.76.77,1.2,1.2,0,0,0,1.635.339,14.711,14.711,0,0,1,10.71-.194c1.108.407,1.918.516,2.656-.549.569-.821,1.238-1.574,1.655-2.1m-30.3,19.249,5.124,3.052V68.454l-5.124,1.867" fill="#12263f"/>
        <path id="Trazado_114178" data-name="Trazado 114178" d="M112.18,108.746a2.2,2.2,0,1,1-2.156,2.286,2.158,2.158,0,0,1,2.156-2.286" fill="#12263f"/>
        <path id="Trazado_114179" data-name="Trazado 114179" d="M76.366,108.746a2.2,2.2,0,1,1-.024,4.4,2.2,2.2,0,0,1,.024-4.4" fill="#12263f"/>
        <path id="Trazado_114180" data-name="Trazado 114180" d="M42.762,110.942a2.178,2.178,0,0,1-2.241,2.208,2.15,2.15,0,0,1-2.18-2.121,2.172,2.172,0,0,1,2.161-2.284,2.2,2.2,0,0,1,2.26,2.2" fill="#12263f"/>
        <path id="Trazado_114181" data-name="Trazado 114181" d="M150.276,111a2.145,2.145,0,0,1-2.284,2.148A2.2,2.2,0,1,1,150.276,111" fill="#12263f"/>
        <path id="Trazado_114182" data-name="Trazado 114182" d="M98.79,30.465a2.24,2.24,0,1,1,2.245-2.241,2.313,2.313,0,0,1-2.245,2.241" fill="#12263f"/>
        <path id="Trazado_114183" data-name="Trazado 114183" d="M112.295,30.462a2.235,2.235,0,1,1,2.136-2.3,2.229,2.229,0,0,1-2.136,2.3" fill="#12263f"/>
        <path id="Trazado_114184" data-name="Trazado 114184" d="M112.213,46.048a2.264,2.264,0,0,1-2.186,2.3,2.229,2.229,0,0,1-.135-4.455,2.241,2.241,0,0,1,2.321,2.156" fill="#12263f"/>
        <path id="Trazado_114185" data-name="Trazado 114185" d="M101.029,43.89a2.247,2.247,0,0,1,2.227,2.223,2.274,2.274,0,0,1-2.222,2.234,2.223,2.223,0,0,1-2.21-2.23,2.2,2.2,0,0,1,2.205-2.227" fill="#12263f"/>
        <path id="Trazado_114186" data-name="Trazado 114186" d="M60.678,64.021a2.229,2.229,0,0,1-2.263,2.208,2.2,2.2,0,0,1-2.149-2.31,2.161,2.161,0,0,1,2.183-2.127,2.2,2.2,0,0,1,2.229,2.229" fill="#12263f"/>
        <path id="Trazado_114187" data-name="Trazado 114187" d="M45.048,66.231a2.285,2.285,0,0,1-2.262-2.2,2.231,2.231,0,0,1,4.461-.057,2.261,2.261,0,0,1-2.2,2.257" fill="#12263f"/>
        <path id="Trazado_114188" data-name="Trazado 114188" d="M47.242,84.091a2.229,2.229,0,1,1-2.291-2.165,2.192,2.192,0,0,1,2.291,2.165" fill="#12263f"/>
        <path id="Trazado_114189" data-name="Trazado 114189" d="M58.531,81.926a2.2,2.2,0,1,1-.2,4.391,2.2,2.2,0,0,1,.2-4.391" fill="#12263f"/>
        <path id="Trazado_114190" data-name="Trazado 114190" d="M145.831,66.233a2.229,2.229,0,1,1-4.457-.061,2.23,2.23,0,0,1,4.457.061" fill="#12263f"/>
      </g>
    </g>
  </g>
</svg>
