<svg xmlns="http://www.w3.org/2000/svg" xmlns:xlink="http://www.w3.org/1999/xlink" width="164.207" height="140.217" viewBox="0 0 164.207 140.217">
  <defs>
    <clipPath id="clip-path">
      <rect id="Rectángulo_34855" data-name="Rectángulo 34855" width="164.207" height="140.217" fill="none"/>
    </clipPath>
  </defs>
  <g id="icon5" transform="translate(0)">
    <path id="Trazado_114230" data-name="Trazado 114230" d="M13.717,0V13.61H0V23H13.717V36.612h9.145V23H36.613V13.61H22.862V0Z" fill="#78b62e"/>
    <g id="Grupo_142408" data-name="Grupo 142408">
      <g id="Grupo_142407" data-name="Grupo 142407" clip-path="url(#clip-path)">
        <path id="Trazado_114231" data-name="Trazado 114231" d="M164.207,67.306a37.705,37.705,0,0,1-.745,4.573c-1.2,4.187-2.437,8.364-3.824,12.49a132.662,132.662,0,0,0-6.889,41.865,15.467,15.467,0,0,1-1.355,7.071c-2.557,5.074-8.7,8.031-13.612,6.514a8.132,8.132,0,0,1-5.686-9.009c1.749-11.55,3.537-23.1,5.262-34.649.953-6.386-1.238-11.532-6.663-15.011-5.331-3.417-10.862-3.465-16.309-.064-.44.275-.834.624-1.327,1a43.136,43.136,0,0,1,6.135,18.991c2.391,0,4.705-.006,7.019,0,3.516.012,5.526,1.968,5.565,5.466.033,2.863.027,5.727,0,8.59-.031,3.546-1.991,5.5-5.5,5.514-2.812.011-5.625,0-8.559,0-.219.7-.455,1.366-.642,2.049-1.2,4.392-2.386,8.789-3.588,13.182-.891,3.259-2.245,4.295-5.613,4.3q-9.025.009-18.053,0c-3.489,0-4.809-1.021-5.7-4.352q-1.85-6.876-3.717-13.749c-.124-.46-.27-.914-.422-1.427-4.147,0-8.221.031-12.293-.021-1.012-.014-1.047.664-1.219,1.29Q64.522,129,62.6,136.078c-.814,2.976-2.244,4.091-5.318,4.1q-9.318.017-18.635,0c-3.026-.006-4.444-1.088-5.235-3.994-1.285-4.721-2.573-9.442-3.8-14.179-.26-1.006-.652-1.424-1.759-1.382-2.472.093-4.949.043-7.424.025a4.943,4.943,0,0,1-5.309-5.245c-.021-3.057-.027-6.114,0-9.172a4.94,4.94,0,0,1,5.127-5.146c2.422-.026,4.844-.006,7.188-.006.676-3.172,1.164-6.283,2.018-9.291a30.389,30.389,0,0,1,8.272-14.308c4.334-4.048,9.29-5.985,15.177-3.717a18.458,18.458,0,0,1,8,6.554,2.091,2.091,0,0,1-.29,3,2.162,2.162,0,0,1-3.119-.275,40.84,40.84,0,0,0-3.473-3.5c-3.83-3.045-7.991-3.039-11.892-.094-3.4,2.566-5.509,6.087-7.137,9.924a37,37,0,0,0-2.839,11.616H64.205c-.793-3.251-1.552-6.373-2.32-9.493-.069-.28-.2-.544-.3-.818-.6-1.719-.208-2.878,1.153-3.377,1.267-.465,2.476.14,2.941,1.8.91,3.258,1.655,6.562,2.442,9.853.156.652.195,1.333.295,2.056h9.906a67.228,67.228,0,0,1,1.715-8.075c1.171-3.467,2.824-6.769,4.186-10.176a2.967,2.967,0,0,0,.018-1.981,45.984,45.984,0,0,1-3.354-16.868,41.727,41.727,0,0,1,33.068-40.571A40.447,40.447,0,0,1,146.234,29.8a6.165,6.165,0,0,1,1.133.9,2.018,2.018,0,0,1,.2,2.671,1.983,1.983,0,0,1-2.668.776,9.946,9.946,0,0,1-1.351-.848,36.848,36.848,0,0,0-18.614-6.363v13.1c15.717,1.484,27.16,9.391,35.005,23.159-.277-2.141-.442-4.3-.853-6.42a37.524,37.524,0,0,0-8.105-16.86,3.437,3.437,0,0,1-.669-2.6c.41-1.709,2.522-1.888,3.816-.4a36.14,36.14,0,0,1,7.416,12.574c1.063,3.3,1.619,6.761,2.4,10.149.076.328.172.651.258.976Zm-90.8,48.943h3.784c16.153,0,32.306-.017,48.459.031,1.361,0,1.77-.393,1.719-1.719-.089-2.373-.023-4.753-.025-7.13,0-1.966-.005-1.968-2.016-1.968H27.681c-2.28,0-4.561.037-6.84-.016-1.022-.024-1.367.359-1.348,1.361.046,2.521.013,5.044.015,7.567,0,1.872,0,1.874,1.947,1.874H73.407m46.947-89.373c-11.571,1.036-20.722,6.009-27.627,15.055-4.65,6.093-8.4,17.412-7.143,21.363.227-.423.406-.822.642-1.183,1.406-2.146,2.781-4.315,4.259-6.411a2.182,2.182,0,0,1,3.18-.58,2.206,2.206,0,0,1,.309,3.226c-.19.281-.411.54-.616.811a41.4,41.4,0,0,0-6.432,12.782c-.708,2.253.408,3.931,1.242,6.047,8.441-10.18,18.681-16.9,32.064-17.692V44.569c-.653.04-1.184.045-1.707.107a36.225,36.225,0,0,0-18.089,7.346c-1.411,1.083-2.749,1.046-3.585-.053-.859-1.129-.555-2.323.918-3.451a39.594,39.594,0,0,1,21.373-8.287c.945-.074,1.243-.381,1.228-1.309-.047-2.813-.016-5.627-.016-8.44V26.876m-37.44,74.081H114.8c-.235-1.471-.4-2.817-.669-4.142-1.18-5.79-3.3-11.156-7.349-15.584-4.652-5.088-10.391-5.33-15.283-.513-5.612,5.525-7.619,12.634-8.582,20.239m73.8-22.4.552.079c.378-1.985,1.5-4.175,1.016-5.923-3.85-13.974-12.741-23.184-26.808-27.129-2.1-.59-4.323-.78-6.575-1.171V60.251c13.519,1.143,24.045,7.338,31.815,18.305m-31.9-13.82c0,3.082-.03,6.073.052,9.061.008.267.718.661,1.151.746a19.647,19.647,0,0,1,12.855,8.525,5.082,5.082,0,0,0,1.778,1.58,43.128,43.128,0,0,1,10.7,7.7c.315.311.657.6,1.057.955.787-2.734,1.57-5.23,2.2-7.766a3.39,3.39,0,0,0-.241-2.267A36.364,36.364,0,0,0,142.286,70.5a35.88,35.88,0,0,0-17.476-5.767m-62.6,56.011H33.81c1.365,5.074,2.695,10.013,4.044,15.027H54.82c3.29,0,3.3,0,4.151-3.119,1.072-3.916,2.13-7.835,3.237-11.908M84.62,120.7c1.281,4.765,2.545,9.331,3.715,13.921.247.966.687,1.181,1.6,1.175q8.879-.054,17.759,0a1.341,1.341,0,0,0,1.578-1.209c1.116-4.314,2.33-8.6,3.5-12.9a7.692,7.692,0,0,0,.135-.985Zm35.725-56a36.775,36.775,0,0,0-20.736,8.172c4.582.448,7.844,2.708,10.757,5.686a19.71,19.71,0,0,1,9.3-4.108,1.038,1.038,0,0,0,.655-.752c.047-2.945.029-5.89.029-9m21.326,25.615c.845,4.271-.317,8.062-.937,11.9-.383,2.376-.416,2.349,1.727,3.6q1.816,1.061,3.556,2.254c1.059.725,2.062,1.531,3.123,2.328.661-3.758,1.307-7.365,1.914-10.979a1.5,1.5,0,0,0-.228-1.066,35.981,35.981,0,0,0-9.155-8.041m-2.007,19.023c-.619,4.187-1.224,8.142-1.744,12.108-.034.256.535.679.9.885,2.062,1.16,4.172,2.238,6.219,3.424,1.061.615,2.026,1.4,3.121,2.162.181-3.9.363-7.614.507-11.329a1.343,1.343,0,0,0-.388-.879,35.288,35.288,0,0,0-8.617-6.371m-2.5,16.758c-.32,2.217-.7,3.975-.793,5.748a3.621,3.621,0,0,0,2.142,3.526c2.4,1.227,6.82-.4,8.1-3.225l-9.449-6.049" fill="#12263f"/>
      </g>
    </g>
  </g>
</svg>
