<svg xmlns="http://www.w3.org/2000/svg" xmlns:xlink="http://www.w3.org/1999/xlink" width="143.428" height="143.141" viewBox="0 0 143.428 143.141">
  <defs>
    <clipPath id="clip-path">
      <rect id="Rectángulo_34852" data-name="Rectángulo 34852" width="143.428" height="143.141" fill="none"/>
    </clipPath>
  </defs>
  <g id="icon2" transform="translate(0)">
    <path id="Trazado_114191" data-name="Trazado 114191" d="M13.717,0V13.61H0V23H13.717V36.612h9.145V23H36.613V13.61H22.862V0Z" fill="#78b62e"/>
    <g id="Grupo_142399" data-name="Grupo 142399">
      <g id="Grupo_142398" data-name="Grupo 142398" clip-path="url(#clip-path)">
        <path id="Trazado_114192" data-name="Trazado 114192" d="M37.9,143.141a9.241,9.241,0,0,1-3.925-3.614q-10.117-14.374-20.308-28.7c-2.2-3.105-1.711-5.9,1.4-8.109q10.266-7.28,20.537-14.552c3.35-2.371,5.765-2.006,8.332,1.24a3.768,3.768,0,0,0,.365.335q6.864-4.83,13.729-9.663A15.268,15.268,0,0,1,69.7,77.367c3.869.622,7.752,1.162,11.626,1.756,5.676.87,11.354,1.723,17.022,2.643,7.409,1.2,10.613,8.193,6.733,14.6a5.193,5.193,0,0,0-.227.528,23.617,23.617,0,0,0,3.135.268,1.928,1.928,0,0,0,1.216-.834c3.823-5.45,7.575-10.949,11.42-16.383a8.551,8.551,0,0,1,15.424,2.713,1.666,1.666,0,0,0,1.294,1.316,8.6,8.6,0,0,1,2.8,14.97c-6.031,4.416-12.14,8.737-18.366,12.874a21.917,21.917,0,0,1-12.792,3.291c-3.785-.064-7.571-.1-11.357-.157-1.716-.024-2.633-.767-2.6-2.106.031-1.275.94-2,2.569-2,4.606.012,9.214.132,13.817.029a17.258,17.258,0,0,0,9.542-3.356q8.078-5.634,16.1-11.344c2.35-1.669,2.941-4.464,1.465-6.578-1.516-2.171-4.344-2.541-6.768-.841-5.338,3.744-10.68,7.483-15.979,11.282a7.884,7.884,0,0,1-5.63,1.543c-7.716-.737-15.442-1.367-23.164-2.038-.136-.012-.272-.026-.408-.046q-2.334-.333-2.193-2.257c.094-1.259.989-1.926,2.545-1.816,3.23.228,6.46.455,9.685.747a5.249,5.249,0,0,0,5.985-4.488,5.09,5.09,0,0,0-4.515-5.8q-14.789-2.327-29.594-4.549A9.751,9.751,0,0,0,61.4,82.811c-4.936,3.357-9.8,6.824-14.819,10.339l15.8,22.321c.919-.415,1.815-.821,2.712-1.224,7.131-3.2,14.655-3.889,22.346-3.477a1.964,1.964,0,0,1,2.032,2.1,2.092,2.092,0,0,1-2.335,1.976c-2.69.045-5.386-.043-8.068.117a35.865,35.865,0,0,0-14.163,3.928c.2.346.355.618.513.889a4.945,4.945,0,0,1-1.3,6.817c-7.333,5.266-14.719,10.457-22.1,15.662a14.312,14.312,0,0,1-1.662.883Zm-7.147-46.49c-4.618,3.27-9.114,6.456-13.613,9.637a1.212,1.212,0,0,0-.269,1.976c.575.764,1.111,1.559,1.664,2.34q9.685,13.67,19.372,27.339c.949,1.339,1.165,1.379,2.512.445,1.086-.753,2.16-1.523,3.239-2.288L53.669,129,30.758,96.651m26.259,29.967c1.3-.913,2.449-1.72,3.6-2.53,1.856-1.308,1.871-1.382.6-3.182q-7.386-10.428-14.775-20.855c-1.976-2.788-3.958-5.572-5.921-8.369-.5-.708-1.015-1.209-1.9-.588-1.481,1.04-2.959,2.086-4.509,3.179l22.909,32.345m75.025-43a4.17,4.17,0,0,0-3.451-3.3,4.254,4.254,0,0,0-4.517,1.867c-2.8,3.976-5.562,7.986-8.335,11.985-.214.308-.4.636-.6.954l.179.152,16.723-11.658" fill="#12263f"/>
        <path id="Trazado_114193" data-name="Trazado 114193" d="M98.53,33.334c10.371-.023,18.883,6.1,22.607,16.3.453,1.237.814,2.511,1.145,3.787a2.037,2.037,0,1,1-3.925,1,27.142,27.142,0,0,0-4.182-9.142c-4.618-6.37-11.077-8.61-18.6-7.635-9.452,1.224-14.315,7.581-16.846,16.15a18.115,18.115,0,0,0-.334,9.593c1.491,6.072,6.311,8.536,12.126,6.258A31.767,31.767,0,0,1,96.1,67.9a16.834,16.834,0,0,1,9.477,1.325,14.988,14.988,0,0,0,5.124,1.21c3.4.055,5.692-1.885,7.068-4.919.337-.742.523-1.551.807-2.319A1.987,1.987,0,0,1,121,61.749a1.923,1.923,0,0,1,1.5,2.389c-.784,3.855-3.386,8.5-8.684,10.01a13.3,13.3,0,0,1-9.455-.927,13.639,13.639,0,0,0-11.623-.113C83.548,77,75.8,72.716,74.116,62.9c-1.764-10.3,4.195-22.276,13.47-27.056a22.968,22.968,0,0,1,10.944-2.51" fill="#12263f"/>
        <path id="Trazado_114194" data-name="Trazado 114194" d="M87.653,17.274A16.727,16.727,0,0,1,91.037,6.545c3.719-4.7,9.665-4.748,13.49-.136,4.689,5.653,4.678,16.007-.023,21.655-3.789,4.551-9.7,4.53-13.4-.081a16.64,16.64,0,0,1-3.446-10.709m4.111-.179a13.506,13.506,0,0,0,2.129,7.778c2.322,3.3,5.572,3.3,7.892-.016,2.845-4.062,2.841-11.236-.009-15.283-2.327-3.3-5.6-3.314-7.888.017a12.945,12.945,0,0,0-2.124,7.5" fill="#12263f"/>
        <path id="Trazado_114195" data-name="Trazado 114195" d="M67.66,21.236c.066-.991.056-1.635.157-2.262,1.029-6.407,6.883-8.991,12.109-5.139a14.6,14.6,0,0,1,6.139,14.951c-.933,5.589-6.2,8-11.086,5.1s-6.914-7.514-7.319-12.653m14.617,5.019a11.778,11.778,0,0,0-3.868-8.416,7.979,7.979,0,0,0-2.565-1.479,2.474,2.474,0,0,0-3.3,1.363,6.735,6.735,0,0,0-.672,2.472,11.272,11.272,0,0,0,3.668,9.06c1.285,1.236,2.829,2.274,4.657,1.481,1.847-.8,1.969-2.675,2.084-4.481" fill="#12263f"/>
        <path id="Trazado_114196" data-name="Trazado 114196" d="M128.009,21.218a15.744,15.744,0,0,1-6.371,12.089c-2.411,1.776-5.111,2.469-7.968,1.141s-4.042-3.891-4.273-6.843a15.147,15.147,0,0,1,4.936-12.662c2.59-2.445,5.667-3.857,9.217-2.235,3.476,1.589,4.344,4.777,4.459,8.51m-14.551,4.973a8.707,8.707,0,0,0,0,.956c.159,1.441.479,2.861,1.915,3.554a3.6,3.6,0,0,0,3.936-.774,11.1,11.1,0,0,0,4.474-10.034c-.3-3.7-2.993-4.829-5.929-2.567a11.427,11.427,0,0,0-4.4,8.865" fill="#12263f"/>
        <path id="Trazado_114197" data-name="Trazado 114197" d="M74.586,42.448c.022,5.186-4.3,7.954-9.011,5.77a12.068,12.068,0,0,1-6.653-11.477c.448-4.18,3.969-6.438,7.984-5.12,4.214,1.384,7.66,6.242,7.68,10.827m-4.112-.442a7.938,7.938,0,0,0-4.319-6.238c-1.972-1.016-3.283-.192-3.164,2a7.7,7.7,0,0,0,4.287,6.683c1.935,1.035,3.208.175,3.2-2.449" fill="#12263f"/>
        <path id="Trazado_114198" data-name="Trazado 114198" d="M136.793,37.892c-.085,4.753-3.73,9.662-8.032,10.818a5.782,5.782,0,0,1-7.555-4.685c-.979-4.991,3.171-11.406,8.136-12.576,4.266-1,7.533,1.821,7.451,6.443m-4.125.511c.087-2.848-1.177-3.729-3.242-2.588a7.614,7.614,0,0,0-4.194,6.864c-.032,1.921,1.134,2.69,2.877,1.892a7.763,7.763,0,0,0,4.559-6.168" fill="#12263f"/>
      </g>
    </g>
  </g>
</svg>
