<svg xmlns="http://www.w3.org/2000/svg" xmlns:xlink="http://www.w3.org/1999/xlink" width="324.741" height="338.259" viewBox="0 0 324.741 338.259">
  <defs>
    <filter id="Rectángulo_38018" x="0" y="0" width="324.741" height="338.259" filterUnits="userSpaceOnUse">
      <feOffset dy="3" input="SourceAlpha"/>
      <feGaussianBlur stdDeviation="5" result="blur"/>
      <feFlood flood-opacity="0.161"/>
      <feComposite operator="in" in2="blur"/>
      <feComposite in="SourceGraphic"/>
    </filter>
    <clipPath id="clip-path">
      <rect id="Rectángulo_38030" data-name="Rectángulo 38030" width="138.125" height="102.57" transform="translate(0 0)" fill="none"/>
    </clipPath>
  </defs>
  <g id="img13" transform="translate(-795.516 -4425.086)">
    <g transform="matrix(1, 0, 0, 1, 795.52, 4425.09)" filter="url(#Rectángulo_38018)">
      <path id="Rectángulo_38018-2" data-name="Rectángulo 38018" d="M0,0H232.742a62,62,0,0,1,62,62V308.259a0,0,0,0,1,0,0H62a62,62,0,0,1-62-62V0A0,0,0,0,1,0,0Z" transform="translate(15 12)" fill="#f6f6f6"/>
    </g>
    <path id="Trazado_115805" data-name="Trazado 115805" d="M93.092,14.658V19H90.007V6.2h5.106a5.948,5.948,0,0,1,2.6.541A4.074,4.074,0,0,1,99.46,8.282a4.2,4.2,0,0,1,.62,2.263,3.7,3.7,0,0,1-1.34,2.993,5.561,5.561,0,0,1-3.678,1.121Zm0-2.382h2.021a1.906,1.906,0,0,0,1.367-.448,1.665,1.665,0,0,0,.47-1.266,2.059,2.059,0,0,0-.483-1.433,1.712,1.712,0,0,0-1.318-.545H93.092ZM104.711,19h-2.971V9.49h2.971ZM101.565,7.038A1.322,1.322,0,0,1,102.022,6a1.943,1.943,0,0,1,2.373,0,1.322,1.322,0,0,1,.457,1.037,1.322,1.322,0,0,1-.457,1.037,1.943,1.943,0,0,1-2.373,0A1.322,1.322,0,0,1,101.565,7.038Zm9.571,12.138a4.889,4.889,0,0,1-3.542-1.305,4.507,4.507,0,0,1-1.354-3.4v-.246a5.84,5.84,0,0,1,.541-2.575,3.955,3.955,0,0,1,1.578-1.727,4.763,4.763,0,0,1,2.461-.611,4.117,4.117,0,0,1,3.164,1.244,4.887,4.887,0,0,1,1.16,3.467v1.151h-5.889a2.135,2.135,0,0,0,.694,1.257,2.066,2.066,0,0,0,1.389.457,2.662,2.662,0,0,0,2.2-.984l1.354,1.6a3.784,3.784,0,0,1-1.569,1.217A5.3,5.3,0,0,1,111.136,19.176ZM110.8,11.6q-1.3,0-1.547,1.723h2.988v-.229a1.467,1.467,0,0,0-.36-1.1A1.434,1.434,0,0,0,110.8,11.6Zm10.512,4.729a.684.684,0,0,0-.4-.606,6.016,6.016,0,0,0-1.5-.475,6.853,6.853,0,0,1-1.828-.646,3.062,3.062,0,0,1-1.1-.971,2.319,2.319,0,0,1-.378-1.31,2.628,2.628,0,0,1,1.081-2.158,4.453,4.453,0,0,1,2.83-.848,4.934,4.934,0,0,1,3.023.853,2.666,2.666,0,0,1,1.143,2.241h-2.971q0-1.143-1.2-1.143a1.194,1.194,0,0,0-.782.259.8.8,0,0,0-.316.646.737.737,0,0,0,.387.642,3.654,3.654,0,0,0,1.235.4,10.671,10.671,0,0,1,1.49.378,2.706,2.706,0,0,1,2.145,2.646,2.491,2.491,0,0,1-1.156,2.118,5.068,5.068,0,0,1-2.993.817,5.172,5.172,0,0,1-2.18-.439,3.645,3.645,0,0,1-1.494-1.2,2.707,2.707,0,0,1-.536-1.591h2.769a1.145,1.145,0,0,0,.439.962,1.808,1.808,0,0,0,1.081.3,1.422,1.422,0,0,0,.91-.246A.787.787,0,0,0,121.314,16.328Z" transform="translate(851.005 4480.065)" fill="#12263f"/>
    <g id="Grupo_143266" data-name="Grupo 143266">
      <path id="Trazado_114230" data-name="Trazado 114230" d="M13.717,0V13.61H0V23H13.717V36.612h9.145V23H36.613V13.61H22.862V0Z" transform="translate(871.838 4551.229)" fill="#78b62e"/>
      <g id="Grupo_143265" data-name="Grupo 143265" transform="translate(908.451 4591.215)">
        <g id="Grupo_143264" data-name="Grupo 143264" clip-path="url(#clip-path)">
          <path id="Trazado_115801" data-name="Trazado 115801" d="M138.125,93.631c-.31.733-.566,1.5-.941,2.193a7.852,7.852,0,0,1-5.2,3.971c-9.443,2.428-19.067,2.968-28.762,2.72a5.4,5.4,0,0,1-4.336-2.123,4.231,4.231,0,0,0-3.853-1.721c-2.74.093-5.486.052-8.228.014a3.344,3.344,0,0,0-2.944,1.308,6.567,6.567,0,0,1-5.784,2.559c-3.6-.066-7.195.027-10.79-.04-1.378-.026-2.747-.407-4.125-.442-1.563-.039-3.131.161-4.7.2q-6.4.158-12.808.257a5.689,5.689,0,0,1-4.823-2.256,3.913,3.913,0,0,0-3.5-1.593c-2.786.07-5.576.052-8.363.006a3.567,3.567,0,0,0-3.161,1.431,6.162,6.162,0,0,1-5.294,2.428c-4.047-.027-8.094.009-12.141-.012C3.31,102.5-.026,99.218,0,94.173c.028-5.707-.058-11.429.32-17.117A117.521,117.521,0,0,1,2.2,64.684a67.679,67.679,0,0,0,.347-19.209,21.208,21.208,0,0,1-.179-2.552A1.783,1.783,0,0,1,4.094,41.03a1.752,1.752,0,0,1,2.1,1.452c.265,1.362.376,2.756.534,4.138.969,8.494.037,16.848-1.718,25.168a63.421,63.421,0,0,0-.921,15.39c3.242,0,6.419-.006,9.6.006a8.931,8.931,0,0,1,1.739.134,1.83,1.83,0,0,1,1.621,2.121,1.808,1.808,0,0,1-1.981,1.785c-2.832-.02-5.664-.108-8.5-.16-.8-.015-1.595,0-2.5,0,0,1.438-.112,2.83.027,4.195a3.62,3.62,0,0,0,3.612,3.2c4.361.06,8.724.072,13.083-.022a3.152,3.152,0,0,0,2.031-1.071,7.612,7.612,0,0,1,6.312-2.728q4.113.08,8.228,0a7.569,7.569,0,0,1,6.305,2.735,3.137,3.137,0,0,0,2.035,1.065c4.262.1,8.529.049,12.759.049-.258-2.3-.479-4.271-.716-6.378a8.823,8.823,0,0,0-.89-.081c-5.168-.024-10.336.013-15.5-.074-6.2-.105-12.405-.316-18.608-.48-1.709-.045-2.621-.757-2.615-2.05s.927-2.033,2.637-1.992c8.945.215,17.889.466,26.834.668,2.725.062,5.453.01,8.135.01.26-5.492.505-10.677.747-15.79a39.941,39.941,0,0,1-5.292-.4A14.8,14.8,0,0,1,41.066,56.745c.27-6.183,1.086-12.344,1.687-18.512.227-2.319.53-4.631.823-7.165H11.253c-.27,0-.54,0-.81,0C8.756,31.046,7.8,30.3,7.819,29.038S8.8,27.026,10.5,27.025q15.85-.012,31.7,0h1.744c.19-2.515.374-4.949.569-7.539H9.464c-2.22,0-3.2-.609-3.215-1.985s1.023-2.062,3.181-2.062H44.851c0-3.438.056-6.711-.062-9.977-.017-.477-.816-1-1.354-1.352-.287-.186-.788-.047-1.192-.047H6.631c-2.335,0-2.591.269-2.6,2.657A254.562,254.562,0,0,0,5.6,35.783c.02.179.035.358.041.538.052,1.432-.7,2.405-1.9,2.471a2.1,2.1,0,0,1-2.136-2.148C1.246,32.842.785,29.042.6,25.23.3,18.946.132,12.653,0,6.362-.081,2.2,2.143.013,6.267.011q18.21-.006,36.421,0c4.12,0,6.24,2.247,6.24,6.376,0,13.742-1.488,27.358-3.208,40.967A48.6,48.6,0,0,0,45.4,59.293c.763,6.151,7.436,10.172,13.446,8.617a1.628,1.628,0,0,0,.88-1.091A58.02,58.02,0,0,0,60.835,49.66c-.768-8.954-1.791-17.889-2.427-26.851-.41-5.778-.39-11.59-.426-17.388A5.266,5.266,0,0,1,63.391.034C71.214-.021,79.038,0,86.862.018A2.094,2.094,0,0,1,89.229,2.06c-.02,1.182-.949,1.986-2.422,1.989q-11.2.023-22.392.008c-2.106,0-2.41.316-2.428,2.411a292.824,292.824,0,0,0,2.089,34.706c.5,4.505.759,9.043.935,13.574.22,5.654-.937,11.169-2.018,16.684a70.475,70.475,0,0,0-.969,15.444c.511.034.984.081,1.458.093q23.328.615,46.655,1.2c2.376.055,4.759-.2,7.14-.277a1.943,1.943,0,0,1,2.145,1.8,1.97,1.97,0,0,1-1.791,2.144,10.158,10.158,0,0,1-1.877.149c-6.336-.027-12.673.007-19.007-.124C85.42,91.63,74.094,91.294,62.767,91c-.176,0-.353.02-.833.051a36.427,36.427,0,0,0,.316,4.876,3.4,3.4,0,0,0,3.436,2.534c4.361.045,8.724.069,13.083-.028a3.171,3.171,0,0,0,2.021-1.093,7.535,7.535,0,0,1,6.186-2.7c2.787.043,5.576.049,8.363,0a7.654,7.654,0,0,1,6.3,2.755,3.339,3.339,0,0,0,2.174,1.051,98.383,98.383,0,0,0,26.5-2.4c2.8-.692,4.005-2.218,3.615-4.963q-3.8.192-7.628.384c-.449.022-.9.036-1.349.039-1.537.012-2.41-.646-2.481-1.862-.073-1.256.8-2.082,2.371-2.179,1.84-.113,3.682-.188,5.522-.28.4-.02.795-.042,1.306-.069-.2-5.118-.38-10.111-5.132-13.394a12.049,12.049,0,0,0-9.265-1.763c-7.11,1.2-13.469-1.85-16.662-7.946A13.409,13.409,0,0,1,98.986,56.6c.531-6.308,1.155-12.609,1.766-18.911.208-2.141.49-4.275.763-6.617H99.822q-15.445,0-30.89,0c-.494,0-1.111.155-1.456-.079a4.036,4.036,0,0,1-1.612-1.693,1.614,1.614,0,0,1,1.244-2.072,5.843,5.843,0,0,1,1.725-.194q15.648-.016,31.3-.008h1.762c.178-2.505.351-4.939.536-7.539H67.253c-2.076,0-3.051-.641-3.053-2,0-1.373.994-2.05,3.04-2.05q16.8,0,33.589,0h1.923c0-1.688-.007-3.285,0-4.883.008-1.484.042-2.967.047-4.451,0-1.565-.433-2.025-1.97-2.038-2.023-.017-4.046.007-6.07-.008-1.623-.012-2.51-.718-2.535-1.976C92.2.769,93.116.023,94.807.013c2.068-.013,4.137-.021,6.205,0a5.488,5.488,0,0,1,5.839,5.819A273.086,273.086,0,0,1,104.5,40.381c-.647,5.166-.976,10.372-1.479,15.556-.727,7.486,5.939,13.551,13.893,12.035,9.529-1.817,17.608,4.488,18.471,14.134.08.895.216,1.789.238,2.685.036,1.461.142,2.815,1.572,3.738.46.3.626,1.05.926,1.6Z" fill="#12263f"/>
        </g>
      </g>
    </g>
  </g>
</svg>
