<svg xmlns="http://www.w3.org/2000/svg" xmlns:xlink="http://www.w3.org/1999/xlink" width="324.741" height="338.259" viewBox="0 0 324.741 338.259">
  <defs>
    <filter id="Rectángulo_38020" x="0" y="0" width="324.741" height="338.259" filterUnits="userSpaceOnUse">
      <feOffset dy="3" input="SourceAlpha"/>
      <feGaussianBlur stdDeviation="5" result="blur"/>
      <feFlood flood-opacity="0.161"/>
      <feComposite operator="in" in2="blur"/>
      <feComposite in="SourceGraphic"/>
    </filter>
    <clipPath id="clip-path">
      <rect id="Rectángulo_34853" data-name="Rectángulo 34853" width="172.099" height="141.256" fill="none"/>
    </clipPath>
    <clipPath id="clip-path-2">
      <rect id="Rectángulo_38028" data-name="Rectángulo 38028" width="139.989" height="106.933" fill="none"/>
    </clipPath>
  </defs>
  <g id="img11" transform="translate(-1005.258 -4087.827)">
    <g transform="matrix(1, 0, 0, 1, 1005.26, 4087.83)" filter="url(#Rectángulo_38020)">
      <path id="Rectángulo_38020-2" data-name="Rectángulo 38020" d="M0,0H232.742a62,62,0,0,1,62,62V308.259a0,0,0,0,1,0,0H62a62,62,0,0,1-62-62V0A0,0,0,0,1,0,0Z" transform="translate(15 12)" fill="#f6f6f6"/>
    </g>
    <path id="Trazado_115804" data-name="Trazado 115804" d="M17.4,14.658V19H14.311V6.2h5.106a5.948,5.948,0,0,1,2.6.541,4.074,4.074,0,0,1,1.749,1.538,4.2,4.2,0,0,1,.62,2.263,3.7,3.7,0,0,1-1.34,2.993,5.561,5.561,0,0,1-3.678,1.121Zm0-2.382h2.021a1.906,1.906,0,0,0,1.367-.448,1.665,1.665,0,0,0,.47-1.266,2.059,2.059,0,0,0-.483-1.433,1.712,1.712,0,0,0-1.318-.545H17.4Zm14.247-.105-.976-.07a1.752,1.752,0,0,0-1.793.879V19H25.913V9.49H28.69l.1,1.222a2.294,2.294,0,0,1,2.083-1.4,2.888,2.888,0,0,1,.826.105Zm.378,1.986a5.613,5.613,0,0,1,.554-2.536,3.96,3.96,0,0,1,1.591-1.709,4.791,4.791,0,0,1,2.435-.6,4.373,4.373,0,0,1,3.366,1.323,5.076,5.076,0,0,1,1.23,3.6v.105a4.925,4.925,0,0,1-1.235,3.529,4.384,4.384,0,0,1-3.344,1.305,4.434,4.434,0,0,1-3.261-1.217,4.761,4.761,0,0,1-1.327-3.3Zm2.962.185a3.538,3.538,0,0,0,.413,1.934,1.376,1.376,0,0,0,1.222.615q1.582,0,1.617-2.435v-.3q0-2.558-1.635-2.558-1.485,0-1.608,2.206ZM45.952,7.126V9.49h1.564v2.057H45.952V15.9a1.111,1.111,0,0,0,.193.747,1.037,1.037,0,0,0,.765.211,4.345,4.345,0,0,0,.738-.053v2.118a5.466,5.466,0,0,1-1.67.255,3.1,3.1,0,0,1-2.259-.721,2.954,2.954,0,0,1-.729-2.188v-4.72H41.777V9.49H42.99V7.126Zm7.33,12.05a4.889,4.889,0,0,1-3.542-1.305,4.507,4.507,0,0,1-1.354-3.4v-.246a5.84,5.84,0,0,1,.541-2.575A3.955,3.955,0,0,1,50.5,9.925a4.763,4.763,0,0,1,2.461-.611,4.117,4.117,0,0,1,3.164,1.244,4.887,4.887,0,0,1,1.16,3.467v1.151H51.4a2.135,2.135,0,0,0,.694,1.257,2.066,2.066,0,0,0,1.389.457,2.662,2.662,0,0,0,2.2-.984l1.354,1.6a3.784,3.784,0,0,1-1.569,1.217A5.3,5.3,0,0,1,53.282,19.176ZM52.948,11.6q-1.3,0-1.547,1.723H54.39v-.229a1.467,1.467,0,0,0-.36-1.1A1.434,1.434,0,0,0,52.948,11.6ZM62.5,16.891a1.317,1.317,0,0,0,.967-.338,1.241,1.241,0,0,0,.334-.945H66.58a3.288,3.288,0,0,1-1.121,2.566,4.168,4.168,0,0,1-2.887,1,4.22,4.22,0,0,1-3.27-1.3,5.125,5.125,0,0,1-1.2-3.6v-.123a5.792,5.792,0,0,1,.532-2.544,3.872,3.872,0,0,1,1.534-1.7,4.573,4.573,0,0,1,2.373-.593,4.116,4.116,0,0,1,2.944,1.028,3.647,3.647,0,0,1,1.09,2.786H63.8A1.626,1.626,0,0,0,63.442,12a1.244,1.244,0,0,0-.967-.4q-1.151,0-1.345,1.468a10.357,10.357,0,0,0-.062,1.283,4.068,4.068,0,0,0,.343,1.986A1.187,1.187,0,0,0,62.5,16.891Zm9.352,0a1.317,1.317,0,0,0,.967-.338,1.241,1.241,0,0,0,.334-.945h2.777a3.288,3.288,0,0,1-1.121,2.566,4.168,4.168,0,0,1-2.887,1,4.22,4.22,0,0,1-3.27-1.3,5.125,5.125,0,0,1-1.2-3.6v-.123a5.792,5.792,0,0,1,.532-2.544,3.872,3.872,0,0,1,1.534-1.7A4.573,4.573,0,0,1,71.9,9.314a4.116,4.116,0,0,1,2.944,1.028,3.647,3.647,0,0,1,1.09,2.786H73.154A1.626,1.626,0,0,0,72.794,12a1.244,1.244,0,0,0-.967-.4q-1.151,0-1.345,1.468a10.357,10.357,0,0,0-.062,1.283,4.068,4.068,0,0,0,.343,1.986A1.187,1.187,0,0,0,71.853,16.891ZM80.308,19H77.338V9.49h2.971ZM77.162,7.038A1.322,1.322,0,0,1,77.619,6a1.943,1.943,0,0,1,2.373,0,1.322,1.322,0,0,1,.457,1.037,1.322,1.322,0,0,1-.457,1.037,1.943,1.943,0,0,1-2.373,0A1.322,1.322,0,0,1,77.162,7.038Zm4.6,7.119a5.613,5.613,0,0,1,.554-2.536A3.96,3.96,0,0,1,83.9,9.912a4.791,4.791,0,0,1,2.435-.6A4.373,4.373,0,0,1,89.7,10.637a5.076,5.076,0,0,1,1.23,3.6v.105A4.925,4.925,0,0,1,89.7,17.871a4.384,4.384,0,0,1-3.344,1.305,4.434,4.434,0,0,1-3.261-1.217,4.761,4.761,0,0,1-1.327-3.3Zm2.962.185a3.538,3.538,0,0,0,.413,1.934,1.376,1.376,0,0,0,1.222.615q1.582,0,1.617-2.435v-.3q0-2.558-1.635-2.558-1.485,0-1.608,2.206ZM86.742,5.5h3.129L87.428,8.26l-2.417,0ZM94.96,9.49l.1,1.116a3.225,3.225,0,0,1,2.716-1.292,2.713,2.713,0,0,1,2.219.888,4.226,4.226,0,0,1,.76,2.672V19H97.781V13a1.6,1.6,0,0,0-.29-1.059,1.342,1.342,0,0,0-1.055-.338,1.413,1.413,0,0,0-1.292.686V19H92.182V9.49Zm17.666,2.681-.976-.07a1.752,1.752,0,0,0-1.793.879V19H106.9V9.49h2.777l.1,1.222a2.294,2.294,0,0,1,2.083-1.4,2.888,2.888,0,0,1,.826.105Zm5.669,7a4.889,4.889,0,0,1-3.542-1.305,4.507,4.507,0,0,1-1.354-3.4v-.246a5.84,5.84,0,0,1,.541-2.575,3.955,3.955,0,0,1,1.578-1.727,4.763,4.763,0,0,1,2.461-.611,4.117,4.117,0,0,1,3.164,1.244,4.887,4.887,0,0,1,1.16,3.467v1.151h-5.889a2.135,2.135,0,0,0,.694,1.257,2.066,2.066,0,0,0,1.389.457,2.662,2.662,0,0,0,2.2-.984l1.354,1.6a3.784,3.784,0,0,1-1.569,1.217A5.3,5.3,0,0,1,118.295,19.176Zm-.334-7.576q-1.3,0-1.547,1.723H119.4v-.229a1.467,1.467,0,0,0-.36-1.1A1.434,1.434,0,0,0,117.961,11.6Zm10.512,4.729a.684.684,0,0,0-.4-.606,6.016,6.016,0,0,0-1.5-.475,6.853,6.853,0,0,1-1.828-.646,3.062,3.062,0,0,1-1.1-.971,2.319,2.319,0,0,1-.378-1.31,2.628,2.628,0,0,1,1.081-2.158,4.453,4.453,0,0,1,2.83-.848,4.934,4.934,0,0,1,3.023.853,2.666,2.666,0,0,1,1.143,2.241h-2.971q0-1.143-1.2-1.143a1.194,1.194,0,0,0-.782.259.8.8,0,0,0-.316.646.737.737,0,0,0,.387.642,3.654,3.654,0,0,0,1.235.4,10.671,10.671,0,0,1,1.49.378,2.706,2.706,0,0,1,2.145,2.646,2.491,2.491,0,0,1-1.156,2.118,5.068,5.068,0,0,1-2.993.817,5.172,5.172,0,0,1-2.18-.439,3.645,3.645,0,0,1-1.494-1.2,2.707,2.707,0,0,1-.536-1.591h2.769a1.145,1.145,0,0,0,.439.962,1.808,1.808,0,0,0,1.081.3,1.422,1.422,0,0,0,.91-.246A.787.787,0,0,0,128.473,16.328Zm13.069-2.013a5.735,5.735,0,0,1-1,3.538,3.2,3.2,0,0,1-2.694,1.323,2.742,2.742,0,0,1-2.153-.958v4.438h-2.962V9.49H135.5l.088.879a2.742,2.742,0,0,1,2.241-1.055,3.224,3.224,0,0,1,2.733,1.3,5.805,5.805,0,0,1,.976,3.564Zm-2.962-.185q0-2.531-1.477-2.531a1.394,1.394,0,0,0-1.406.756V16.1a1.439,1.439,0,0,0,1.424.791q1.415,0,1.459-2.443ZM145.972,19H143V9.49h2.971ZM142.825,7.038A1.322,1.322,0,0,1,143.282,6a1.943,1.943,0,0,1,2.373,0,1.322,1.322,0,0,1,.457,1.037,1.322,1.322,0,0,1-.457,1.037,1.943,1.943,0,0,1-2.373,0A1.322,1.322,0,0,1,142.825,7.038Zm10.723,5.133-.976-.07a1.752,1.752,0,0,0-1.793.879V19h-2.962V9.49h2.777l.1,1.222a2.294,2.294,0,0,1,2.083-1.4,2.888,2.888,0,0,1,.826.105ZM159.709,19a3.344,3.344,0,0,1-.281-.853,2.754,2.754,0,0,1-2.285,1.028,3.374,3.374,0,0,1-2.285-.813,2.588,2.588,0,0,1-.94-2.043,2.66,2.66,0,0,1,1.143-2.338,5.821,5.821,0,0,1,3.322-.791h.914v-.5q0-1.316-1.134-1.316a.927.927,0,0,0-1.055,1.042h-2.962a2.655,2.655,0,0,1,1.173-2.239,4.931,4.931,0,0,1,2.993-.86,4.323,4.323,0,0,1,2.874.888,3.086,3.086,0,0,1,1.081,2.435v4.21a4.311,4.311,0,0,0,.4,2V19Zm-1.854-1.934a1.652,1.652,0,0,0,.918-.237,1.487,1.487,0,0,0,.523-.536V14.772h-.861q-1.547,0-1.547,1.389a.848.848,0,0,0,.272.655A.986.986,0,0,0,157.854,17.066Zm9.5-9.94V9.49h1.564v2.057h-1.564V15.9a1.111,1.111,0,0,0,.193.747,1.037,1.037,0,0,0,.765.211,4.345,4.345,0,0,0,.738-.053v2.118a5.466,5.466,0,0,1-1.67.255,3.1,3.1,0,0,1-2.259-.721,2.954,2.954,0,0,1-.729-2.188v-4.72h-1.213V9.49h1.213V7.126Zm2.092,7.031A5.613,5.613,0,0,1,170,11.622a3.96,3.96,0,0,1,1.591-1.709,4.791,4.791,0,0,1,2.435-.6,4.373,4.373,0,0,1,3.366,1.323,5.076,5.076,0,0,1,1.23,3.6v.105a4.925,4.925,0,0,1-1.235,3.529,4.384,4.384,0,0,1-3.344,1.305,4.434,4.434,0,0,1-3.261-1.217,4.761,4.761,0,0,1-1.327-3.3Zm2.962.185a3.538,3.538,0,0,0,.413,1.934,1.376,1.376,0,0,0,1.222.615q1.582,0,1.617-2.435v-.3q0-2.558-1.635-2.558-1.485,0-1.608,2.206Zm13.271-2.171-.976-.07a1.752,1.752,0,0,0-1.793.879V19H179.95V9.49h2.777l.1,1.222a2.294,2.294,0,0,1,2.083-1.4,2.888,2.888,0,0,1,.826.105ZM189.873,19H186.9V9.49h2.971ZM186.726,7.038A1.322,1.322,0,0,1,187.183,6a1.943,1.943,0,0,1,2.373,0,1.322,1.322,0,0,1,.457,1.037,1.322,1.322,0,0,1-.457,1.037,1.943,1.943,0,0,1-2.373,0A1.322,1.322,0,0,1,186.726,7.038ZM197.054,19a3.344,3.344,0,0,1-.281-.853,2.754,2.754,0,0,1-2.285,1.028,3.374,3.374,0,0,1-2.285-.813,2.588,2.588,0,0,1-.94-2.043,2.66,2.66,0,0,1,1.143-2.338,5.821,5.821,0,0,1,3.322-.791h.914v-.5q0-1.316-1.134-1.316a.927.927,0,0,0-1.055,1.042H191.49a2.655,2.655,0,0,1,1.173-2.239,4.931,4.931,0,0,1,2.993-.86,4.323,4.323,0,0,1,2.874.888,3.086,3.086,0,0,1,1.081,2.435v4.21a4.311,4.311,0,0,0,.4,2V19ZM195.2,17.066a1.652,1.652,0,0,0,.918-.237,1.487,1.487,0,0,0,.523-.536V14.772h-.861q-1.547,0-1.547,1.389a.848.848,0,0,0,.272.655A.986.986,0,0,0,195.2,17.066Z" transform="translate(1060.747 4150.928)" fill="#12263f"/>
    <g id="Grupo_143253" data-name="Grupo 143253" transform="translate(1081.58 4221.972)">
      <path id="Trazado_114199" data-name="Trazado 114199" d="M13.717,0V13.609H0V23H13.717V36.611h9.145V23H36.613V13.609H22.862V0Z" fill="#78b62e"/>
      <g id="Grupo_142402" data-name="Grupo 142402">
        <g id="Grupo_142401" data-name="Grupo 142401" clip-path="url(#clip-path)">
          <g id="Grupo_143260" data-name="Grupo 143260" transform="translate(23.42 34.323)">
            <g id="Grupo_143259" data-name="Grupo 143259" clip-path="url(#clip-path-2)">
              <path id="Trazado_115787" data-name="Trazado 115787" d="M0,14.357a40.143,40.143,0,0,1,2.249-6.1A16.18,16.18,0,0,1,18.883.188,16.6,16.6,0,0,1,32.512,13.245c.958,4.343,1.9,8.69,2.921,13.365,2.435-1.193,4.786-2.171,6.959-3.451,2.82-1.662,5.438-3.667,8.25-5.344,12.959-7.732,25.94-7.657,38.87.1,3.936,2.36,7.807,4.833,11.751,7.181a23.312,23.312,0,0,0,3.3,1.33c.8-3.631,1.6-7.115,2.316-10.615s1.61-6.9,3.973-9.744a16.389,16.389,0,0,1,29.1,10.208c.04,9.432.014,18.864.01,28.3,0,1.72-.737,2.642-2.064,2.634s-2.031-.912-2.032-2.664c0-9.295.023-18.59-.01-27.885A12.161,12.161,0,0,0,121.947,4.268,11.314,11.314,0,0,0,111.935,12.6c-1.461,4.908-2.327,9.993-3.476,15.1,1.628.576,3.162,1.113,4.692,1.661a10.068,10.068,0,0,1,7.077,9.958q.033,12.849,0,25.7a41.89,41.89,0,0,1-2.707,14.831c-.094.248-.171.5-.373,1.1.649-.366,1.063-.564,1.439-.817,5.533-3.718,8.624-8.939,8.686-15.572.15-15.946.066-31.894.051-47.842a3.783,3.783,0,0,0-7.525-.752c-.546,2.4-1.028,4.805-1.571,7.2-.358,1.583-1.3,2.337-2.5,2.095-1.282-.258-1.83-1.333-1.476-3,.519-2.448,1.044-4.894,1.612-7.331a7.844,7.844,0,0,1,8.75-6.3,7.925,7.925,0,0,1,6.819,7.982c.036,1.913.008,3.827.008,5.741,0,13.806.063,27.613-.024,41.418-.054,8.658-3.752,15.444-11.116,20.087-1.446.911-3.145,1.413-4.667,2.218a6.617,6.617,0,0,0-2.022,1.613c-1.053,1.3-1.959,2.716-2.949,4.117,15.549-2.089,23.8-13.37,24.908-24.254.435-4.288.186-8.644.324-12.966a3.252,3.252,0,0,1,.717-2.072,2.246,2.246,0,0,1,1.959-.375,2.2,2.2,0,0,1,1.3,1.521c.011,7.53.878,15.154-2.223,22.38-4.434,10.335-12.208,16.634-23.091,19.21q-4.515,1.068-9.013,2.2a4.47,4.47,0,0,0-1.581.726,41.52,41.52,0,0,1-25.77,8.734c-6.332.015-12.669.1-18.994-.136a40.169,40.169,0,0,1-22.86-8.335,6.494,6.494,0,0,0-2.167-1.045c-3.87-1.015-7.84-1.715-11.628-2.969C9.712,90.173,2.283,81.262.236,67.883A5.152,5.152,0,0,0,0,67.124V14.357M22.787,80.978c-.569-1.758-1.038-3.13-1.457-4.517C19.166,69.3,19.79,61.93,19.762,54.614a1.953,1.953,0,0,1,2.157-1.981,1.976,1.976,0,0,1,1.89,2.1c.034,3.235-.123,6.477.056,9.7A59.228,59.228,0,0,0,24.937,73.9c3.5,15.829,18.011,28.075,34.219,28.748,7.138.3,14.3.124,21.448.021a31.351,31.351,0,0,0,6.34-.869c15.836-3.55,28.024-17.423,28.92-33.627.539-9.766.248-19.581.22-29.373a5.7,5.7,0,0,0-4.017-5.487c-.634-.249-1.3-.419-1.934-.666-4.568-1.783-9.253-3.324-13.657-5.448-3.293-1.588-6.208-3.955-9.317-5.935a31.929,31.929,0,0,0-35.288.61c-5.129,3.467-10.2,7.019-16.248,8.812-2.483.736-4.912,1.653-7.357,2.512a6.047,6.047,0,0,0-4.435,6.167c-.024,2.141,0,4.282-.008,6.424-.007,1.712-.765,2.671-2.062,2.645-1.273-.025-2.024-1.014-2.033-2.716-.01-2-.005-4.009,0-6.014.01-5.329,2.543-8.834,7.613-10.546,1.365-.461,2.724-.936,4.143-1.424-1.034-4.708-2.01-9.285-3.048-13.847A12.293,12.293,0,0,0,4.111,16.522c-.029,16.036-.18,32.076.055,48.109C4.321,75.165,9.369,83.094,18.5,88.36c3.318,1.915,7,2.771,10.831,3.529-1.2-1.753-2.291-3.374-3.429-4.957a1.944,1.944,0,0,0-.97-.665c-8.852-2.622-16.577-11.1-16.44-23.374.156-14.031.036-28.064.036-42.1,0-1.458-.033-2.917.011-4.373a7.854,7.854,0,0,1,15.548-1.587c.611,2.614,1.164,5.24,1.736,7.863.336,1.539-.236,2.648-1.47,2.886-1.278.246-2.162-.452-2.519-2.041-.58-2.574-1.106-5.161-1.713-7.728A3.723,3.723,0,0,0,16.085,12.7c-2.131.149-3.456,1.827-3.457,4.438q-.008,23.3.02,46.607a21,21,0,0,0,.506,4.6c1.262,5.528,4.456,9.637,9.633,12.629" fill="#12263f"/>
              <path id="Trazado_115788" data-name="Trazado 115788" d="M70.012,37.3q10.447,0,20.9,0c3.884.005,6.678,2.608,6.69,6.21.013,3.621-2.76,6.305-6.62,6.31q-21.031.025-42.064,0A6.31,6.31,0,0,1,42.4,44.4a6.237,6.237,0,0,1,4.692-6.9,8.4,8.4,0,0,1,2.026-.187q10.449-.02,20.9-.008m-.149,8.428q10.241,0,20.481-.006a5.8,5.8,0,0,0,1.616-.152,1.964,1.964,0,0,0,1.508-2.282,2.009,2.009,0,0,0-1.87-1.864,6.738,6.738,0,0,0-.954-.022H49.273a5.826,5.826,0,0,0-.954.027,2.013,2.013,0,0,0-1.833,1.9,1.951,1.951,0,0,0,1.421,2.213,5.286,5.286,0,0,0,1.612.18q10.171.017,20.344.007" fill="#12263f"/>
              <path id="Trazado_115789" data-name="Trazado 115789" d="M69.879,66.667c-7.01,0-14.02.031-21.03-.01-4.527-.025-7.559-4.022-6.183-8.14a5.949,5.949,0,0,1,5.293-4.288,16.414,16.414,0,0,1,1.909-.071q20.142-.006,40.285.009a11.334,11.334,0,0,1,2.972.285,6.223,6.223,0,0,1-1.806,12.2c-7.147.044-14.294.014-21.44.015m.079-4.1q10.374,0,20.749,0c1.812,0,2.752-.724,2.786-2.086.034-1.406-.955-2.186-2.813-2.221H49.728a9.513,9.513,0,0,0-1.362.058,2.016,2.016,0,0,0-1.893,2.121,2.058,2.058,0,0,0,1.919,2.094,11.671,11.671,0,0,0,1.363.035q10.1,0,20.2,0" fill="#12263f"/>
              <path id="Trazado_115790" data-name="Trazado 115790" d="M69.99,83.548c-7.148,0-14.295.026-21.442-.015a6.248,6.248,0,0,1-4.6-10.4,6.64,6.64,0,0,1,5.4-2.14q15.568.022,31.139.007c3.6,0,7.193-.042,10.789.021a6.261,6.261,0,0,1,4.154,11.01,6.429,6.429,0,0,1-4.406,1.526c-7.011-.022-14.021-.01-21.032-.011m-.152-4.1q10.583,0,21.165,0c1.542,0,2.468-.817,2.49-2.107s-.9-2.141-2.413-2.227c-.273-.016-.546-.006-.819-.006q-20.279,0-40.555.007a6.077,6.077,0,0,0-1.75.176,1.982,1.982,0,0,0-1.09,3.153,3.58,3.58,0,0,0,2.354.967c6.872.074,13.745.043,20.618.042" fill="#12263f"/>
            </g>
          </g>
        </g>
      </g>
    </g>
  </g>
</svg>
