<svg xmlns="http://www.w3.org/2000/svg" xmlns:xlink="http://www.w3.org/1999/xlink" width="171.61" height="178.11" viewBox="0 0 171.61 178.11">
  <defs>
    <clipPath id="clip-path">
      <rect id="Rect치ngulo_37828" data-name="Rect치ngulo 37828" width="171.61" height="171.611" fill="none"/>
    </clipPath>
    <clipPath id="clip-path-2">
      <path id="Trazado_115616" data-name="Trazado 115616" d="M85.958,1.5a84.462,84.462,0,1,0,84.465,85.127c0-.223,0-.445,0-.669A84.467,84.467,0,0,0,85.962,1.5h0" transform="translate(-1.5 -1.5)" fill="none"/>
    </clipPath>
    <radialGradient id="radial-gradient" cx="0.077" cy="0.019" r="1.463" gradientTransform="translate(0 0)" gradientUnits="objectBoundingBox">
      <stop offset="0" stop-color="#f6f6f7"/>
      <stop offset="0.477" stop-color="#f9f9fa"/>
      <stop offset="0.715" stop-color="#fff"/>
      <stop offset="1" stop-color="#fff"/>
    </radialGradient>
  </defs>
  <g id="img16" transform="translate(-1131.39 -13043.5)">
    <g id="Grupo_143098" data-name="Grupo 143098" transform="translate(1131.39 13043.5)">
      <g id="Grupo_143100" data-name="Grupo 143100">
        <g id="Grupo_143099" data-name="Grupo 143099" clip-path="url(#clip-path)">
          <path id="Trazado_115615" data-name="Trazado 115615" d="M170.434,85.963A84.465,84.465,0,1,1,85.965,1.5h0a84.465,84.465,0,0,1,84.465,84.462" transform="translate(-0.157 -0.157)" fill="#fff"/>
        </g>
      </g>
      <g id="Grupo_143102" data-name="Grupo 143102" transform="translate(1.343 1.343)">
        <g id="Grupo_143101" data-name="Grupo 143101" clip-path="url(#clip-path-2)">
          <rect id="Rect치ngulo_37829" data-name="Rect치ngulo 37829" width="168.925" height="169.108" transform="translate(-0.001)" fill="url(#radial-gradient)"/>
        </g>
      </g>
      <g id="Grupo_143104" data-name="Grupo 143104">
        <g id="Grupo_143103" data-name="Grupo 143103" clip-path="url(#clip-path)">
          <path id="Trazado_115617" data-name="Trazado 115617" d="M170.423,85.959a84.131,84.131,0,1,0,0,.667Q170.425,86.293,170.423,85.959Z" transform="translate(-0.157 -0.157)" fill="none" stroke="#5f9025" stroke-miterlimit="10" stroke-width="3"/>
          <path id="Trazado_115618" data-name="Trazado 115618" d="M163.435,57.468c18.677,41.372-2.08,86.24-44.1,104.63-35.844,15.686-77.217,8.191-100.342-23,25.667,37.391,77.261,47.217,115.238,21.946,34.274-22.807,47.362-66.979,29.2-103.574" transform="translate(-1.983 -5.998)" fill="#eceef0"/>
          <path id="Trazado_115619" data-name="Trazado 115619" d="M50.24,133.515c-.063-.062-.116-.164-.189-.179-1.566-.337-1.6-.34-1.377-1.991.968-7.031,1.715-14.094,2.929-21.088a31.538,31.538,0,0,1,2.548-7.821,13.7,13.7,0,0,1,7.066-6.886,111.382,111.382,0,0,1,16.2-5.639c1.873-.529,1.821-.513,1.9-2.426a2.534,2.534,0,0,0-1.057-2.278,15.777,15.777,0,0,1-5.6-10.952c-.049-.515-.042-1.037-.052-1.556-.013-.648.21-1.442-.087-1.9-.311-.484-1.086.071-1.679.033a4.291,4.291,0,0,1-4.036-4.008c-.053-.939-.049-1.883-.012-2.822.021-.549-.1-.76-.711-.837A22.55,22.55,0,0,1,58.786,61.3a9.163,9.163,0,0,1-1.328-.794,3.051,3.051,0,0,1-.531-4.794A10.334,10.334,0,0,1,61.407,53.1a38.782,38.782,0,0,1,9.107-1.9,1.124,1.124,0,0,0,1.069-.872A89.011,89.011,0,0,1,77.1,37.936a7.223,7.223,0,0,1,4.207-3.811,8.447,8.447,0,0,1,4.144-.091,30.223,30.223,0,0,0,11.4-.019c3.919-.663,6.082.465,8.048,3.918a81.282,81.282,0,0,1,5.467,12.31,1.235,1.235,0,0,0,1.18,1,38.172,38.172,0,0,1,9.013,1.873,12.173,12.173,0,0,1,3.857,2c2.19,1.845,2.1,4.129-.286,5.68a16.922,16.922,0,0,1-6.884,2.2c-2.172.33-2.191.283-2.175,2.48a5.579,5.579,0,0,1-.706,3.369,4.3,4.3,0,0,1-5.115,1.727,30.224,30.224,0,0,1-.359,5.637,15.607,15.607,0,0,1-5.372,9.1,2.649,2.649,0,0,0-1.12,2.438c.093,1.7.028,1.695,1.719,2.161a121.8,121.8,0,0,1,16.042,5.5,14.913,14.913,0,0,1,8.208,8.831,50.666,50.666,0,0,1,2.686,12.1q.978,7.62,2.018,15.231c.214,1.58.242,1.577-1.341,1.751-.135.015-.251.033-.288.187h-.974c-.02-.355-.015-.712-.062-1.063-.7-5.237-1.408-10.472-2.1-15.71a52.545,52.545,0,0,0-2.326-11c-1.324-3.693-3.5-6.541-7.281-7.957-.383-.143-.631-.347-.838.245-2.074,5.9-3.612,11.894-3.569,18.211.035,5.1.007,10.189.007,15.285,0,1.8,0,1.762-1.811,1.815-.749.021-.96-.166-.954-.939.039-4.8,0-9.606.039-14.408.006-.778-.146-1.154-.983-1.267a22.38,22.38,0,0,1-3.028-.686c-.767-.215-1.069-.121-1.034.8.071,1.866-.336,2.227-2.17,2.227H77.5c-.227,0-.456.013-.681-.007a1.413,1.413,0,0,1-1.495-1.549c-.022-.548,0-1.1,0-1.74-1.455.342-2.827.716-4.22.97-.673.123-.8.414-.8,1.031.024,4.543.013,9.086.013,13.629,0,1.919,0,1.884-1.913,1.922-.694.013-.85-.189-.846-.861.03-4.868-.01-9.735.025-14.6a49.406,49.406,0,0,0-.787-9.971,65.716,65.716,0,0,0-2.84-9.976c-.112-.305-.167-.507-.591-.32-2.689,1.189-5.106,2.675-6.452,5.459a28.206,28.206,0,0,0-2.373,6.755c-1.256,6.3-1.785,12.7-2.747,19.047a23.721,23.721,0,0,1-.769,4.665ZM91.19,57.19c-4.569.046-7.938.2-11.307.361-.742.035-.888.253-.9.954a56.683,56.683,0,0,1-.12,7.483c-.28,1.907-.871,3.708-2.745,4.644a1.163,1.163,0,0,0-.764,1.331c.034.386-.008.778.009,1.167.243,5.531,2.76,9.682,7.763,12.069,4.279,2.04,8.878,1.811,13.34.817,5.851-1.3,10.612-6.907,10.068-14.6-.018-.248-.058-.444-.3-.549-2.473-1.072-3.043-3.261-3.278-5.627-.227-2.3.007-4.6-.049-6.9-.013-.489-.063-.741-.665-.773-4.081-.22-8.164-.381-11.056-.368M90.2,54.447a155.225,155.225,0,0,1,17.232.822,71.139,71.139,0,0,1,14.657,2.858c.354.117.851.509,1.1-.077.2-.474-.284-.758-.605-.99a10.892,10.892,0,0,0-3.058-1.444,37.613,37.613,0,0,0-9.043-1.727,2.3,2.3,0,0,1-2.356-1.8,90.521,90.521,0,0,0-5.462-12.629c-1.2-2.265-2.9-3.251-5.48-2.762a27.732,27.732,0,0,1-10.912.222,14.606,14.606,0,0,0-3.189-.321c-1.952.03-2.893,1.4-3.705,2.879A92.509,92.509,0,0,0,73.61,52.819a1.221,1.221,0,0,1-1.211.946,51.414,51.414,0,0,0-7.859,1.272,14.928,14.928,0,0,0-5.182,2.1c-.294.214-.72.484-.519.937.239.538.675.2,1.008.083a54.058,54.058,0,0,1,8.108-1.96A135.312,135.312,0,0,1,90.2,54.447m.7,61.786c4.024,0,8.048-.018,12.071.018.692.006.865-.181.841-.856a53.578,53.578,0,0,1,3.63-20.826c.181-.485.238-.766-.407-.952-.628-.18-.761.052-.873.57-.979,4.558-1.978,9.111-2.958,13.668-.4,1.858-1.035,2.184-2.807,1.391-2.892-1.3-5.792-2.573-8.671-3.9a1.877,1.877,0,0,0-1.73.011c-2.972,1.353-5.964,2.664-8.954,3.979-1.335.588-2.081.2-2.4-1.231-1.032-4.679-2.066-9.357-3.067-14.043-.116-.541-.221-.645-.8-.52-.875.188-.5.656-.348,1.06a54.023,54.023,0,0,1,3.618,20.733c-.025.7.121.928.88.92,3.99-.045,7.982-.021,11.973-.021m8.739-28.352a16.723,16.723,0,0,1-3.556,1.075c-4.526.52-9.044.839-13.409-.943-.428-.175-.628-.161-.644.4a3.32,3.32,0,0,0,.818,2.666,31.936,31.936,0,0,1,2.062,2.581l5.967,7.568c2.684-3.414,5.255-6.793,7.96-10.061a3.993,3.993,0,0,0,.8-3.285M88.626,102.77c-.074-.1-.151-.2-.232-.3q-3.952-4.995-7.907-9.988a2.509,2.509,0,0,0-2.342.2.58.58,0,0,0-.009.369c.945,4.266,1.9,8.528,2.836,12.8.084.386.184.488.562.316,2.238-1.014,4.483-2.011,6.726-3.015.166-.074.381-.1.366-.381m15-9.778c.164-.262-.07-.457-.341-.459-.691-.005-1.361-.9-2.083.03q-3.834,4.959-7.733,9.868c-.348.44-.284.588.208.8,2.133.928,4.26,1.87,6.367,2.858.631.3.738.1.852-.487.322-1.651.717-3.286,1.075-4.93.549-2.528,1.091-5.059,1.656-7.68m8.452,13.536c.639.254.527-.336.581-.588a62.96,62.96,0,0,1,2.636-8.924c.176-.467.135-.666-.364-.83-1.352-.442-2.7-.91-4.023-1.421-.5-.194-.652-.034-.816.415a72.407,72.407,0,0,0-2.76,9.7c-.1.471.053.63.477.719,1.425.3,2.846.62,4.269.932M74.51,105A65.57,65.57,0,0,0,71.652,94.93c-.133-.36-.321-.3-.6-.2q-2.143.774-4.3,1.517c-.3.1-.413.224-.285.556a66.311,66.311,0,0,1,2.8,9.381c.064.284.109.451.5.356,1.446-.352,2.9-.655,4.355-.982.238-.054.561-.058.39-.561m37,9.1c.153-1.407.275-2.759.46-4.1.073-.521-.151-.681-.584-.772-1.3-.274-2.6-.534-3.884-.858-.5-.125-.716-.062-.741.477-.056,1.2-.138,2.394-.2,3.591-.016.3-.02.558.395.645,1.515.318,3.023.673,4.557,1.019m-36.272-3.334c-.045-.648-.1-1.3-.133-1.943-.026-.46-.12-.695-.7-.539-1.281.345-2.579.633-3.884.872-.557.1-.676.333-.613.846.147,1.19.279,2.384.357,3.581.035.519.244.466.613.367.812-.218,1.637-.39,2.455-.59,2.005-.489,2.005-.491,1.906-2.595M72.612,64.605h-.006c0-.679.048-1.361-.012-2.034a1.51,1.51,0,0,0-1.539-1.443,1.443,1.443,0,0,0-1.47,1.4,40.243,40.243,0,0,0-.007,4.066,1.511,1.511,0,0,0,1.532,1.452A1.566,1.566,0,0,0,72.6,66.543c.051-.642.01-1.291.01-1.937m39.712,0h.013q0-.824,0-1.647c0-.064,0-.129,0-.193a1.615,1.615,0,0,0-1.568-1.642,1.554,1.554,0,0,0-1.495,1.6c-.041,1.257-.046,2.52,0,3.778a1.543,1.543,0,0,0,1.549,1.543,1.56,1.56,0,0,0,1.491-1.5c.054-.641.011-1.291.011-1.937m-5.81,2.87c0-1.416.023-2.833-.007-4.248a4.456,4.456,0,0,1,1.411-3.673,1.083,1.083,0,0,0,.231-1.163c-.083-.446-.528-.274-.811-.343-.342-.084-.715-.04-1.06-.113-.57-.12-.716.085-.707.645.028,1.749-.027,3.5.006,5.248a6.391,6.391,0,0,0,.937,3.647m-31.176.146a2.7,2.7,0,0,0,.626-1.288c.582-2.236.2-4.512.271-6.768.054-1.781.009-1.795-1.762-1.5-.278.047-.731-.116-.8.346a1.154,1.154,0,0,0,.284,1.159,4.466,4.466,0,0,1,1.377,3.59c-.005,1.421,0,2.843,0,4.463m37.784-8.7c1.085,2.163,2.847,1.615,4.575,1.221.17-.039.344-.058.734-.124a40.868,40.868,0,0,0-5.309-1.1m-44.34-.02a26.153,26.153,0,0,0-4.933,1.1c.981.216,1.954.366,2.93.506.28.039.552.1.781-.2.342-.447.739-.853,1.223-1.4" transform="translate(-5.07 -3.53)" fill="#12263f"/>
        </g>
      </g>
    </g>
    <g id="Grupo_142809" data-name="Grupo 142809" transform="translate(1238.5 13180.705)">
      <path id="Trazado_113904" data-name="Trazado 113904" d="M309.419,201.1c-8.869,6.141-15.468,15.175-21.286,23.147a2.193,2.193,0,0,0-.3,2.034,2.126,2.126,0,0,0,1.5,1.385,44.14,44.14,0,0,0,31.232-3.646A44.631,44.631,0,0,0,341.4,200.314a2.2,2.2,0,0,0,.141-.844,2.234,2.234,0,0,0,.209-.38,2.2,2.2,0,0,0-.048-1.873,2.16,2.16,0,0,0-1.083-1.02C331.429,192.258,319.473,194.14,309.419,201.1Z" transform="translate(-287.289 -191.596)" fill="#9fbe37"/>
      <path id="Trazado_113905" data-name="Trazado 113905" d="M295.094,214.6a.741.741,0,0,0,.613.85l.084.015c2.578.419,5.166.766,7.754,1.1,1.361.182,2.728.338,4.1.491q-2.97,1.584-5.95,3.159-6.856,3.6-13.769,7.107l-.006,0a.642.642,0,0,0,.541,1.164c4.789-2.013,9.48-4.215,14.137-6.494,2.148-1.047,4.278-2.136,6.4-3.237-.23.476-.461.951-.7,1.427l-2.109,4.343c-1.37,2.914-2.734,5.83-4,8.8a.644.644,0,0,0,1.149.577c1.624-2.785,3.15-5.621,4.669-8.459l2.226-4.284c.712-1.4,1.451-2.776,2.139-4.182,1.343-.715,2.692-1.424,4.032-2.145,1.591-.879,3.168-1.789,4.744-2.7l-.82,2.917c-.464,1.69-.96,3.374-1.4,5.073-.9,3.392-1.786,6.787-2.57,10.212a.642.642,0,0,0,1.232.356c1.167-3.314,2.229-6.659,3.281-10.006.539-1.669,1.017-3.356,1.529-5.034l1.5-5.043.015-.075q2.979-1.75,5.926-3.56c.843-.532,1.681-1.074,2.519-1.615-.344,2.354-.7,4.705-.981,7.072-.383,2.952-.742,5.911-1.026,8.878a.643.643,0,0,0,1.268.2c.622-2.917,1.173-5.845,1.7-8.777.556-2.926.987-5.872,1.487-8.806a1.6,1.6,0,0,0,0-.171c2.68-1.789,11.406-7.239,13.982-9.18a.7.7,0,0,0-.8-1.149l-.009.006c-2.89,1.864-11.881,7.293-14.813,9.091-3.114-.622-6.24-1.179-9.36-1.756-3.386-.574-6.769-1.149-10.179-1.6a.7.7,0,0,0-.266,1.376c3.332.847,6.689,1.573,10.045,2.3,2.315.467,4.631.936,6.949,1.391-.529.32-1.056.652-1.588.969q-3.32,1.952-6.659,3.871c-2.821-.377-5.642-.781-8.471-1.107-3.12-.377-6.246-.733-9.381-1a.7.7,0,0,0-.2,1.388c3.087.613,6.189,1.137,9.291,1.642,1.855.311,3.715.586,5.576.858-1.2.673-2.39,1.358-3.6,2.016-1.412.79-2.839,1.555-4.263,2.327-2.435-.23-4.864-.494-7.3-.682q-3.446-.278-6.9-.47a.668.668,0,0,0-.3-.072l-.739.006A.742.742,0,0,0,295.094,214.6Z" transform="translate(-287.565 -193.309)" fill="#507533"/>
    </g>
  </g>
</svg>
