<svg xmlns="http://www.w3.org/2000/svg" xmlns:xlink="http://www.w3.org/1999/xlink" width="324.742" height="338.259" viewBox="0 0 324.742 338.259">
  <defs>
    <filter id="Rectángulo_37864" x="0" y="0" width="324.742" height="338.259" filterUnits="userSpaceOnUse">
      <feOffset dy="3" input="SourceAlpha"/>
      <feGaussianBlur stdDeviation="5" result="blur"/>
      <feFlood flood-opacity="0.161"/>
      <feComposite operator="in" in2="blur"/>
      <feComposite in="SourceGraphic"/>
    </filter>
    <clipPath id="clip-path">
      <rect id="Rectángulo_37873" data-name="Rectángulo 37873" width="118.904" height="120.782" fill="none"/>
    </clipPath>
  </defs>
  <g id="img1" transform="translate(-209.258 -491.863)">
    <g transform="matrix(1, 0, 0, 1, 209.26, 491.86)" filter="url(#Rectángulo_37864)">
      <path id="Rectángulo_37864-2" data-name="Rectángulo 37864" d="M0,0H232.742a62,62,0,0,1,62,62V308.259a0,0,0,0,1,0,0H62a62,62,0,0,1-62-62V0A0,0,0,0,1,0,0Z" transform="translate(15 12)" fill="#f6f6f6"/>
    </g>
    <path id="Trazado_116088" data-name="Trazado 116088" d="M46.343,16.609H42.116L41.377,19h-3.3L42.775,6.2h2.9L50.4,19H47.09Zm-3.489-2.382H45.6l-1.38-4.438ZM54.324,19H51.353V5.5h2.971Zm4.623-9.51.1,1.116a3.27,3.27,0,0,1,2.716-1.292,2.407,2.407,0,0,1,2.435,1.433,3.165,3.165,0,0,1,2.795-1.433q2.892,0,2.971,3.5V19H66.989V13a1.813,1.813,0,0,0-.246-1.063,1.048,1.048,0,0,0-.9-.334,1.4,1.4,0,0,0-1.31.782l.009.123V19H61.575V13.015a1.906,1.906,0,0,0-.237-1.081,1.045,1.045,0,0,0-.905-.334,1.42,1.42,0,0,0-1.3.782V19H56.169V9.49ZM77.008,19a3.344,3.344,0,0,1-.281-.853,2.754,2.754,0,0,1-2.285,1.028,3.374,3.374,0,0,1-2.285-.813,2.588,2.588,0,0,1-.94-2.043,2.66,2.66,0,0,1,1.143-2.338,5.821,5.821,0,0,1,3.322-.791H76.6v-.5q0-1.316-1.134-1.316a.927.927,0,0,0-1.055,1.042H71.445a2.655,2.655,0,0,1,1.173-2.239,4.931,4.931,0,0,1,2.993-.86,4.323,4.323,0,0,1,2.874.888,3.086,3.086,0,0,1,1.081,2.435v4.21a4.311,4.311,0,0,0,.4,2V19Zm-1.854-1.934a1.652,1.652,0,0,0,.918-.237,1.487,1.487,0,0,0,.523-.536V14.772h-.861q-1.547,0-1.547,1.389a.848.848,0,0,0,.272.655A.986.986,0,0,0,75.154,17.066Zm10.072-.176a1.317,1.317,0,0,0,.967-.338,1.241,1.241,0,0,0,.334-.945H89.3a3.288,3.288,0,0,1-1.121,2.566,4.168,4.168,0,0,1-2.887,1,4.22,4.22,0,0,1-3.27-1.3,5.125,5.125,0,0,1-1.2-3.6v-.123a5.792,5.792,0,0,1,.532-2.544,3.872,3.872,0,0,1,1.534-1.7,4.573,4.573,0,0,1,2.373-.593,4.116,4.116,0,0,1,2.944,1.028,3.647,3.647,0,0,1,1.09,2.786H86.527A1.626,1.626,0,0,0,86.166,12a1.244,1.244,0,0,0-.967-.4q-1.151,0-1.345,1.468a10.357,10.357,0,0,0-.062,1.283,4.068,4.068,0,0,0,.343,1.986A1.187,1.187,0,0,0,85.226,16.891Zm9.932,2.285a4.889,4.889,0,0,1-3.542-1.305,4.507,4.507,0,0,1-1.354-3.4v-.246a5.84,5.84,0,0,1,.541-2.575A3.955,3.955,0,0,1,92.38,9.925a4.763,4.763,0,0,1,2.461-.611,4.117,4.117,0,0,1,3.164,1.244,4.887,4.887,0,0,1,1.16,3.467v1.151H93.277a2.135,2.135,0,0,0,.694,1.257,2.066,2.066,0,0,0,1.389.457,2.662,2.662,0,0,0,2.2-.984l1.354,1.6a3.784,3.784,0,0,1-1.569,1.217A5.3,5.3,0,0,1,95.158,19.176ZM94.824,11.6q-1.3,0-1.547,1.723h2.988v-.229a1.467,1.467,0,0,0-.36-1.1A1.434,1.434,0,0,0,94.824,11.6Zm8.253-2.109.1,1.116a3.225,3.225,0,0,1,2.716-1.292,2.713,2.713,0,0,1,2.219.888,4.226,4.226,0,0,1,.76,2.672V19H105.9V13a1.6,1.6,0,0,0-.29-1.059,1.342,1.342,0,0,0-1.055-.338,1.413,1.413,0,0,0-1.292.686V19H100.3V9.49ZM115.865,19a3.344,3.344,0,0,1-.281-.853,2.754,2.754,0,0,1-2.285,1.028,3.374,3.374,0,0,1-2.285-.813,2.588,2.588,0,0,1-.94-2.043,2.66,2.66,0,0,1,1.143-2.338,5.821,5.821,0,0,1,3.322-.791h.914v-.5q0-1.316-1.134-1.316a.927.927,0,0,0-1.055,1.042H110.3a2.655,2.655,0,0,1,1.173-2.239,4.931,4.931,0,0,1,2.993-.86,4.323,4.323,0,0,1,2.874.888,3.086,3.086,0,0,1,1.081,2.435v4.21a4.311,4.311,0,0,0,.4,2V19Zm-1.854-1.934a1.652,1.652,0,0,0,.918-.237,1.487,1.487,0,0,0,.523-.536V14.772h-.861q-1.547,0-1.547,1.389a.848.848,0,0,0,.272.655A.986.986,0,0,0,114.01,17.066Zm8.851-7.576.1,1.116a3.27,3.27,0,0,1,2.716-1.292,2.407,2.407,0,0,1,2.435,1.433A3.165,3.165,0,0,1,130.9,9.314q2.892,0,2.971,3.5V19H130.9V13a1.813,1.813,0,0,0-.246-1.063,1.048,1.048,0,0,0-.9-.334,1.4,1.4,0,0,0-1.31.782l.009.123V19h-2.971V13.015a1.906,1.906,0,0,0-.237-1.081,1.045,1.045,0,0,0-.905-.334,1.42,1.42,0,0,0-1.3.782V19h-2.962V9.49ZM138.69,19h-2.971V9.49h2.971ZM135.543,7.038A1.322,1.322,0,0,1,136,6a1.943,1.943,0,0,1,2.373,0,1.322,1.322,0,0,1,.457,1.037,1.322,1.322,0,0,1-.457,1.037,1.943,1.943,0,0,1-2.373,0A1.322,1.322,0,0,1,135.543,7.038Zm9.571,12.138a4.889,4.889,0,0,1-3.542-1.305,4.507,4.507,0,0,1-1.354-3.4v-.246a5.84,5.84,0,0,1,.541-2.575,3.955,3.955,0,0,1,1.578-1.727,4.763,4.763,0,0,1,2.461-.611,4.117,4.117,0,0,1,3.164,1.244,4.887,4.887,0,0,1,1.16,3.467v1.151h-5.889a2.135,2.135,0,0,0,.694,1.257,2.066,2.066,0,0,0,1.389.457,2.662,2.662,0,0,0,2.2-.984l1.354,1.6a3.784,3.784,0,0,1-1.569,1.217A5.3,5.3,0,0,1,145.115,19.176Zm-.334-7.576q-1.3,0-1.547,1.723h2.988v-.229a1.467,1.467,0,0,0-.36-1.1A1.434,1.434,0,0,0,144.781,11.6Zm8.253-2.109.1,1.116a3.225,3.225,0,0,1,2.716-1.292,2.713,2.713,0,0,1,2.219.888,4.226,4.226,0,0,1,.76,2.672V19h-2.971V13a1.6,1.6,0,0,0-.29-1.059,1.342,1.342,0,0,0-1.055-.338,1.413,1.413,0,0,0-1.292.686V19h-2.962V9.49Zm10.881-2.364V9.49h1.564v2.057h-1.564V15.9a1.111,1.111,0,0,0,.193.747,1.037,1.037,0,0,0,.765.211,4.345,4.345,0,0,0,.738-.053v2.118a5.466,5.466,0,0,1-1.67.255,3.1,3.1,0,0,1-2.259-.721,2.954,2.954,0,0,1-.729-2.188v-4.72H159.74V9.49h1.213V7.126Zm2.092,7.031a5.613,5.613,0,0,1,.554-2.536,3.96,3.96,0,0,1,1.591-1.709,4.791,4.791,0,0,1,2.435-.6,4.373,4.373,0,0,1,3.366,1.323,5.076,5.076,0,0,1,1.23,3.6v.105a4.925,4.925,0,0,1-1.235,3.529,4.384,4.384,0,0,1-3.344,1.305,4.434,4.434,0,0,1-3.261-1.217,4.761,4.761,0,0,1-1.327-3.3Zm2.962.185a3.538,3.538,0,0,0,.413,1.934,1.376,1.376,0,0,0,1.222.615q1.582,0,1.617-2.435v-.3q0-2.558-1.635-2.558-1.485,0-1.608,2.206Z" transform="translate(264.747 554.963)" fill="#12263f"/>
    <g id="Grupo_143165" data-name="Grupo 143165" transform="translate(58.009 -376.105)">
      <path id="Trazado_114173" data-name="Trazado 114173" d="M13.717,0V13.609H0V23H13.717V36.612h9.145V23H36.613V13.609H22.862V0Z" transform="translate(234.241 1002.113)" fill="#78b62e"/>
      <g id="Grupo_143168" data-name="Grupo 143168" transform="translate(274.096 1025.218)">
        <g id="Grupo_143168-2" data-name="Grupo 143168" clip-path="url(#clip-path)">
          <path id="Trazado_115762" data-name="Trazado 115762" d="M97.1,116.758h11.83V23.8c-4.915-1.193-9.79-2.385-14.67-3.561-11.1-2.676-22.192-5.364-33.3-7.98a7.261,7.261,0,0,0-3.234.054Q34.4,17.866,11.089,23.519c-.356.086-.7.2-1.161.331V49.377H6.008V24.783c-1.191.276-2.215.518-3.241.75C1.072,25.918.03,25.115.013,23.366c-.022-2.353-.011-4.706,0-7.059,0-1.665.411-2.184,2.042-2.579Q25,8.178,47.957,2.634C51.482,1.783,55,.918,58.539.105A4.083,4.083,0,0,1,60.348.1q28.189,6.759,56.366,13.571c1.828.441,2.182.938,2.184,2.86,0,2.229.013,4.458,0,6.687-.014,1.916-1.02,2.708-2.861,2.286-.883-.2-1.767-.405-2.651-.6a1.981,1.981,0,0,0-.337,0v91.873H118.8V120.7H79.337v-3.824H93.059V73.26H43.693V69.277H93.079V65.338H43.673V61.4H93.055V57.416H43.7V53.433H93.075V49.447H24.781c-2.446,0-2.976-.53-2.977-2.969,0-2.188-.013-4.376,0-6.564.013-1.623.726-2.351,2.345-2.351q35.3-.01,70.592,0c1.73,0,2.356.748,2.356,2.717q0,30.776,0,61.551v14.927Zm17.792-99.413c-.309-.091-.543-.17-.782-.228Q87.261,10.628,60.4,4.164a4.566,4.566,0,0,0-2.048.042Q41.589,8.219,24.838,12.29,14.454,14.8,4.027,17.314v3.805c.491-.1.932-.186,1.367-.29q26.493-6.39,52.99-12.762a4.567,4.567,0,0,1,2.049-.018q22.477,5.373,44.94,10.806c3.15.759,6.3,1.516,9.522,2.29ZM25.826,45.4H93.04V41.582H25.826Z" transform="translate(0 0)" fill="#12263f"/>
          <path id="Trazado_115763" data-name="Trazado 115763" d="M39.638,89.531H72.49c2.212,0,2.814.589,2.815,2.758q0,15.044,0,30.089c0,2.213-.592,2.82-2.756,2.82H2.714c-2.091,0-2.705-.624-2.705-2.743q0-30.956,0-61.911c0-2.1.615-2.716,2.729-2.716q17.088,0,34.175,0c2.107,0,2.725.617,2.725,2.723q0,13.745,0,27.489ZM4.059,61.852V89.429H35.6V61.877H27.75c0,3.1,0,6.1,0,9.112,0,2.038-.635,2.685-2.638,2.689q-5.139.007-10.277,0c-2.378,0-2.934-.547-2.935-2.885,0-2.96,0-5.921,0-8.941Zm31.528,59.325V93.555H27.75v1.264c0,2.765.015,5.531-.007,8.3a1.993,1.993,0,0,1-2.186,2.26q-5.758.035-11.515,0a1.965,1.965,0,0,1-2.136-2.181c-.029-1.691-.007-3.384-.008-5.076V93.587H4.033v27.59Zm27.83-27.62c0,3.213.01,6.342,0,9.471-.008,1.566-.725,2.339-2.225,2.348q-5.7.033-11.392,0a1.987,1.987,0,0,1-2.223-2.22c-.024-2.807-.006-5.614-.01-8.42,0-.4-.035-.791-.054-1.18h-7.8v27.592H71.284V93.557ZM23.731,61.877H15.959v7.774h7.772Zm-7.81,39.461h7.772V93.555H15.921ZM59.4,93.581H51.626v7.775H59.4Z" transform="translate(-0.001 -4.417)" fill="#12263f"/>
          <path id="Trazado_115764" data-name="Trazado 115764" d="M63.564,21.357c1.361,0,2.723-.03,4.083.006a5.934,5.934,0,0,1-.026,11.866q-4.081.076-8.166,0a5.934,5.934,0,0,1,.026-11.867c1.36-.033,2.722-.006,4.082,0m-.051,7.921c1.279,0,2.559.025,3.838-.006a1.981,1.981,0,1,0-.048-3.947q-3.777-.036-7.553,0a1.97,1.97,0,0,0-2.133,1.933A2,2,0,0,0,59.8,29.273c1.237.027,2.475.006,3.714,0" transform="translate(-4.098 -1.63)" fill="#12263f"/>
          <rect id="Rectángulo_37870" data-name="Rectángulo 37870" width="3.853" height="3.793" transform="translate(27.812 77.284)" fill="#12263f"/>
          <rect id="Rectángulo_37871" data-name="Rectángulo 37871" width="3.848" height="3.782" transform="translate(27.774 108.994)" fill="#12263f"/>
          <rect id="Rectángulo_37872" data-name="Rectángulo 37872" width="3.782" height="3.848" transform="translate(63.496 108.917)" fill="#12263f"/>
        </g>
      </g>
    </g>
  </g>
</svg>
