<svg xmlns="http://www.w3.org/2000/svg" xmlns:xlink="http://www.w3.org/1999/xlink" width="324.742" height="338.259" viewBox="0 0 324.742 338.259">
  <defs>
    <filter id="Rectángulo_37865" x="0" y="0" width="324.742" height="338.259" filterUnits="userSpaceOnUse">
      <feOffset dy="3" input="SourceAlpha"/>
      <feGaussianBlur stdDeviation="5" result="blur"/>
      <feFlood flood-opacity="0.161"/>
      <feComposite operator="in" in2="blur"/>
      <feComposite in="SourceGraphic"/>
    </filter>
    <clipPath id="clip-path">
      <rect id="Rectángulo_37874" data-name="Rectángulo 37874" width="140.76" height="101.969" fill="none"/>
    </clipPath>
  </defs>
  <g id="img2" transform="translate(-629.258 -491.863)">
    <g transform="matrix(1, 0, 0, 1, 629.26, 491.86)" filter="url(#Rectángulo_37865)">
      <path id="Rectángulo_37865-2" data-name="Rectángulo 37865" d="M0,0H232.742a62,62,0,0,1,62,62V308.259a0,0,0,0,1,0,0H62a62,62,0,0,1-62-62V0A0,0,0,0,1,0,0Z" transform="translate(15 12)" fill="#f6f6f6"/>
    </g>
    <path id="Trazado_116089" data-name="Trazado 116089" d="M64.677,14.658V19H61.592V6.2H66.7a5.948,5.948,0,0,1,2.6.541,4.074,4.074,0,0,1,1.749,1.538,4.2,4.2,0,0,1,.62,2.263,3.7,3.7,0,0,1-1.34,2.993,5.561,5.561,0,0,1-3.678,1.121Zm0-2.382H66.7a1.906,1.906,0,0,0,1.367-.448,1.665,1.665,0,0,0,.47-1.266,2.059,2.059,0,0,0-.483-1.433,1.712,1.712,0,0,0-1.318-.545H64.677Zm14.247-.105-.976-.07a1.752,1.752,0,0,0-1.793.879V19H73.194V9.49h2.777l.1,1.222a2.294,2.294,0,0,1,2.083-1.4,2.888,2.888,0,0,1,.826.105Zm.378,1.986a5.613,5.613,0,0,1,.554-2.536,3.96,3.96,0,0,1,1.591-1.709,4.791,4.791,0,0,1,2.435-.6,4.373,4.373,0,0,1,3.366,1.323,5.076,5.076,0,0,1,1.23,3.6v.105a4.925,4.925,0,0,1-1.235,3.529A4.384,4.384,0,0,1,83.9,19.176a4.434,4.434,0,0,1-3.261-1.217,4.761,4.761,0,0,1-1.327-3.3Zm2.962.185a3.538,3.538,0,0,0,.413,1.934,1.376,1.376,0,0,0,1.222.615q1.582,0,1.617-2.435v-.3q0-2.558-1.635-2.558-1.485,0-1.608,2.206Zm7.146-.167a5.809,5.809,0,0,1,.976-3.56,3.211,3.211,0,0,1,2.725-1.3,2.731,2.731,0,0,1,2.145,1V5.5h2.971V19H95.562l-.149-1.02a2.8,2.8,0,0,1-2.32,1.2,3.205,3.205,0,0,1-2.689-1.3A5.993,5.993,0,0,1,89.41,14.175Zm2.962.185q0,2.531,1.477,2.531a1.458,1.458,0,0,0,1.406-.826V12.443a1.419,1.419,0,0,0-1.389-.844q-1.371,0-1.485,2.215Zm13.2,3.612a3.054,3.054,0,0,1-2.54,1.2,3,3,0,0,1-2.369-.91,3.826,3.826,0,0,1-.8-2.615V9.49h2.962v6.179a1.065,1.065,0,0,0,1.187,1.222,1.548,1.548,0,0,0,1.45-.729V9.49h2.979V19h-2.777Zm8.508-1.081a1.317,1.317,0,0,0,.967-.338,1.241,1.241,0,0,0,.334-.945h2.777a3.288,3.288,0,0,1-1.121,2.566,4.168,4.168,0,0,1-2.887,1,4.22,4.22,0,0,1-3.27-1.3,5.125,5.125,0,0,1-1.2-3.6v-.123a5.792,5.792,0,0,1,.532-2.544,3.872,3.872,0,0,1,1.534-1.7,4.573,4.573,0,0,1,2.373-.593,4.116,4.116,0,0,1,2.944,1.028,3.647,3.647,0,0,1,1.09,2.786h-2.777a1.626,1.626,0,0,0-.36-1.134,1.244,1.244,0,0,0-.967-.4q-1.151,0-1.345,1.468a10.357,10.357,0,0,0-.062,1.283,4.068,4.068,0,0,0,.343,1.986A1.187,1.187,0,0,0,114.08,16.891Zm9.352,0a1.317,1.317,0,0,0,.967-.338,1.241,1.241,0,0,0,.334-.945h2.777a3.288,3.288,0,0,1-1.121,2.566,4.168,4.168,0,0,1-2.887,1,4.22,4.22,0,0,1-3.27-1.3,5.125,5.125,0,0,1-1.2-3.6v-.123a5.792,5.792,0,0,1,.532-2.544,3.872,3.872,0,0,1,1.534-1.7,4.573,4.573,0,0,1,2.373-.593,4.116,4.116,0,0,1,2.944,1.028,3.647,3.647,0,0,1,1.09,2.786h-2.777a1.626,1.626,0,0,0-.36-1.134,1.244,1.244,0,0,0-.967-.4q-1.151,0-1.345,1.468A10.357,10.357,0,0,0,122,14.351a4.068,4.068,0,0,0,.343,1.986A1.187,1.187,0,0,0,123.432,16.891ZM131.887,19h-2.971V9.49h2.971ZM128.741,7.038A1.322,1.322,0,0,1,129.2,6a1.943,1.943,0,0,1,2.373,0,1.322,1.322,0,0,1,.457,1.037,1.322,1.322,0,0,1-.457,1.037,1.943,1.943,0,0,1-2.373,0A1.322,1.322,0,0,1,128.741,7.038Zm4.6,7.119a5.613,5.613,0,0,1,.554-2.536,3.96,3.96,0,0,1,1.591-1.709,4.791,4.791,0,0,1,2.435-.6,4.373,4.373,0,0,1,3.366,1.323,5.076,5.076,0,0,1,1.23,3.6v.105a4.925,4.925,0,0,1-1.235,3.529,4.384,4.384,0,0,1-3.344,1.305,4.434,4.434,0,0,1-3.261-1.217,4.761,4.761,0,0,1-1.327-3.3Zm2.962.185a3.538,3.538,0,0,0,.413,1.934,1.376,1.376,0,0,0,1.222.615q1.582,0,1.617-2.435v-.3q0-2.558-1.635-2.558-1.485,0-1.608,2.206ZM138.321,5.5h3.129l-2.443,2.76-2.417,0Zm8.218,3.99.1,1.116a3.225,3.225,0,0,1,2.716-1.292,2.713,2.713,0,0,1,2.219.888,4.226,4.226,0,0,1,.76,2.672V19H149.36V13a1.6,1.6,0,0,0-.29-1.059,1.342,1.342,0,0,0-1.055-.338,1.413,1.413,0,0,0-1.292.686V19h-2.962V9.49Z" transform="translate(684.747 554.963)" fill="#12263f"/>
    <g id="Grupo_143166" data-name="Grupo 143166" transform="translate(44 -376.105)">
      <path id="Trazado_114191" data-name="Trazado 114191" d="M13.717,0V13.61H0V23H13.717V36.612h9.145V23H36.613V13.61H22.862V0Z" transform="translate(666.572 1002.113)" fill="#78b62e"/>
      <g id="Grupo_143169" data-name="Grupo 143169" transform="translate(685.62 1044.031)">
        <g id="Grupo_143169-2" data-name="Grupo 143169" clip-path="url(#clip-path)">
          <path id="Trazado_115765" data-name="Trazado 115765" d="M0,30.215a14.807,14.807,0,0,1,2.448-6.03,12.468,12.468,0,0,1,9.773-5.042A27.754,27.754,0,0,1,10.8,14.986,10.394,10.394,0,0,1,14.523,4.773c3.984-3.4,8.571-5.322,13.9-4.578,4.058.566,6.6,3.659,6.783,7.792A18.078,18.078,0,0,1,32.573,17.8c-.18.318-.378.627-.551.948-.035.066,0,.17.009.332H45.6c-.254-.459-.46-.84-.673-1.217a18.048,18.048,0,0,1-2.65-9.672c.182-4.834,3.375-8.18,8.2-8.175a17.4,17.4,0,0,1,13.828,6.21c3.007,3.559,3.361,7.591,1.336,11.806-.138.286-.29.565-.512.994H75.441a31.644,31.644,0,0,1-1.391-4.655A9.755,9.755,0,0,1,76.676,6c4.141-4.37,9.213-6.6,15.29-5.768a7.58,7.58,0,0,1,6.508,7.141,17.616,17.616,0,0,1-2.53,10.375c-.2.359-.406.715-.6,1.074-.018.034,0,.085,0,.23h13.386a59.409,59.409,0,0,1-2.39-5.8,17.564,17.564,0,0,1-.7-5A7.893,7.893,0,0,1,113.61.006a17.344,17.344,0,0,1,13.8,5.944c3.264,3.643,3.643,7.949,1.4,12.361-.118.233-.2.483-.348.827a12.883,12.883,0,0,1,8.114,3.114A12.326,12.326,0,0,1,133.8,42.6a1.788,1.788,0,0,0-1.269,1.906q.059,25.236.031,50.473c0,.446.037.892.061,1.416.755.037,1.434.037,2.106.11a2.673,2.673,0,0,1,.313,5.291,7.676,7.676,0,0,1-1.632.157q-33.55.011-67.1,0c-2.49,0-3.833-.961-3.858-2.745s1.3-2.755,3.8-2.755q22.895,0,45.789,0h1.721V43.913c-2.192,0-4.336.029-6.477-.009-1.81-.032-2.856-.838-3.118-2.285a2.628,2.628,0,0,1,2.7-3.18c2.29-.067,4.583-.025,6.875-.026,4.721,0,9.443.025,14.163-.009,3.781-.029,6.479-2.114,7.24-5.5a6.844,6.844,0,0,0-6.087-8.195c-.5-.037-1.007-.046-1.511-.046q-57.132,0-114.266,0c-3.71,0-6.122,1.442-7.263,4.315a6.792,6.792,0,0,0,5.369,9.279,16.081,16.081,0,0,0,2.326.152q34.583.011,69.165.009a11.378,11.378,0,0,1,1.919.09,2.616,2.616,0,0,1,2.144,2.51A2.573,2.573,0,0,1,85.031,43.7a9.224,9.224,0,0,1-2.174.211q-26.951.017-53.9.009H27.062V96.453h5.176c2.247,0,4.492-.015,6.738.006,2.025.02,3.267,1.085,3.251,2.74s-1.241,2.728-3.284,2.747c-3.482.032-6.966.009-10.45.009-8.25,0-16.5-.017-24.751.014C2.026,101.975.7,101.486,0,99.807V98.432a3.491,3.491,0,0,1,3.7-2c1.489.095,2.988.02,4.452.02a5.514,5.514,0,0,0,.092-.608q.007-25.911-.03-51.821c0-.42-.518-.919-.909-1.242C5.765,41.514,3.865,40.542,2.7,39,1.448,37.349.871,35.183,0,33.24V30.215M13.862,96.366h7.486V43.946H13.862Zm113.112-52.34h-7.526V96.384h7.526ZM29.7,9.493c.037-2.977-.848-4.087-3.129-3.988a12.56,12.56,0,0,0-8.937,3.9c-2.207,2.352-2.007,5.482.369,7.835s5.512,2.531,7.838.3A12.91,12.91,0,0,0,29.7,9.493m81.412-.126a13.279,13.279,0,0,0,3.277,7.577,5.4,5.4,0,0,0,8.313.4c2.621-2.478,2.717-5.876.125-8.33A13,13,0,0,0,114.4,5.5c-2.322-.132-3.288.937-3.291,3.871m-63.314.1a12.987,12.987,0,0,0,3.17,7.389,5.4,5.4,0,0,0,8.4.478c2.7-2.565,2.7-6.048-.078-8.514A13.349,13.349,0,0,0,51.194,5.5c-2.4-.174-3.4.872-3.4,3.969m45.218.067C93.04,6.457,92.15,5.385,89.84,5.5a12.709,12.709,0,0,0-8.832,3.843c-2.27,2.365-2.059,5.574.369,7.935s5.638,2.484,7.942.139a12.723,12.723,0,0,0,3.693-7.885" transform="translate(0 0)" fill="#12263f"/>
          <path id="Trazado_115766" data-name="Trazado 115766" d="M18.641,30.757a2.753,2.753,0,0,1,2.69,2.733,2.828,2.828,0,0,1-2.766,2.689,2.836,2.836,0,0,1-2.694-2.765,2.759,2.759,0,0,1,2.77-2.657" transform="translate(-1.002 -1.942)" fill="#12263f"/>
          <path id="Trazado_115767" data-name="Trazado 115767" d="M40.113,33.617a2.726,2.726,0,0,1-5.442-.33,2.726,2.726,0,0,1,5.442.33" transform="translate(-2.189 -1.942)" fill="#12263f"/>
          <path id="Trazado_115768" data-name="Trazado 115768" d="M56.147,30.757a2.757,2.757,0,0,1,2.764,2.663,2.73,2.73,0,0,1-5.46.064,2.753,2.753,0,0,1,2.7-2.727" transform="translate(-3.375 -1.942)" fill="#12263f"/>
          <path id="Trazado_115769" data-name="Trazado 115769" d="M77.7,33.391a2.73,2.73,0,0,1-5.458.121,2.73,2.73,0,0,1,5.458-.121" transform="translate(-4.561 -1.942)" fill="#12263f"/>
          <path id="Trazado_115770" data-name="Trazado 115770" d="M96.483,33.458a2.73,2.73,0,0,1-5.46-.011,2.73,2.73,0,0,1,5.46.011" transform="translate(-5.747 -1.942)" fill="#12263f"/>
          <path id="Trazado_115771" data-name="Trazado 115771" d="M115.273,33.4a2.73,2.73,0,0,1-5.458.114,2.73,2.73,0,0,1,5.458-.114" transform="translate(-6.934 -1.942)" fill="#12263f"/>
          <path id="Trazado_115772" data-name="Trazado 115772" d="M134.058,33.474a2.73,2.73,0,0,1-5.46-.042,2.73,2.73,0,0,1,5.46.042" transform="translate(-8.12 -1.942)" fill="#12263f"/>
          <path id="Trazado_115773" data-name="Trazado 115773" d="M102.126,46.466A2.762,2.762,0,0,1,99.4,43.759a2.7,2.7,0,1,1,5.4-.053,2.772,2.772,0,0,1-2.671,2.76" transform="translate(-6.276 -2.591)" fill="#12263f"/>
          <path id="Trazado_115774" data-name="Trazado 115774" d="M55.419,108.412a2.829,2.829,0,0,1-2.8-2.66,2.75,2.75,0,0,1,2.656-2.767,2.706,2.706,0,0,1,2.785,2.623,2.791,2.791,0,0,1-2.642,2.8" transform="translate(-3.322 -6.503)" fill="#12263f"/>
        </g>
      </g>
    </g>
  </g>
</svg>
