<svg xmlns="http://www.w3.org/2000/svg" xmlns:xlink="http://www.w3.org/1999/xlink" width="324.742" height="338.259" viewBox="0 0 324.742 338.259">
  <defs>
    <filter id="Rectángulo_37866" x="0" y="0" width="324.742" height="338.259" filterUnits="userSpaceOnUse">
      <feOffset dy="3" input="SourceAlpha"/>
      <feGaussianBlur stdDeviation="5" result="blur"/>
      <feFlood flood-opacity="0.161"/>
      <feComposite operator="in" in2="blur"/>
      <feComposite in="SourceGraphic"/>
    </filter>
    <clipPath id="clip-path">
      <rect id="Rectángulo_37875" data-name="Rectángulo 37875" width="174.256" height="118.098" transform="translate(0 0)" fill="none"/>
    </clipPath>
  </defs>
  <g id="img3" transform="translate(-1049 -491.863)">
    <g transform="matrix(1, 0, 0, 1, 1049, 491.86)" filter="url(#Rectángulo_37866)">
      <path id="Rectángulo_37866-2" data-name="Rectángulo 37866" d="M0,0H232.742a62,62,0,0,1,62,62V308.259a0,0,0,0,1,0,0H62a62,62,0,0,1-62-62V0A0,0,0,0,1,0,0Z" transform="translate(15 12)" fill="#f6f6f6"/>
    </g>
    <path id="Trazado_116090" data-name="Trazado 116090" d="M20.248,14.667a4.673,4.673,0,0,1-.721,2.36,4.35,4.35,0,0,1-1.85,1.586,6.3,6.3,0,0,1-2.72.563,5.025,5.025,0,0,1-3.973-1.644,6.786,6.786,0,0,1-1.45-4.641v-.633a7.746,7.746,0,0,1,.655-3.292,4.961,4.961,0,0,1,1.885-2.18,5.26,5.26,0,0,1,2.848-.769,5.516,5.516,0,0,1,3.744,1.226,4.844,4.844,0,0,1,1.608,3.379H17.2a2.292,2.292,0,0,0-.589-1.679,2.422,2.422,0,0,0-1.687-.51,1.843,1.843,0,0,0-1.687.861,5.536,5.536,0,0,0-.562,2.751v.905a6.126,6.126,0,0,0,.514,2.927,1.882,1.882,0,0,0,1.771.879,2.369,2.369,0,0,0,1.626-.5,2.126,2.126,0,0,0,.6-1.591Zm.949-.51a5.613,5.613,0,0,1,.554-2.536,3.96,3.96,0,0,1,1.591-1.709,4.791,4.791,0,0,1,2.435-.6,4.373,4.373,0,0,1,3.366,1.323,5.076,5.076,0,0,1,1.23,3.6v.105a4.925,4.925,0,0,1-1.235,3.529,4.384,4.384,0,0,1-3.344,1.305,4.434,4.434,0,0,1-3.261-1.217,4.761,4.761,0,0,1-1.327-3.3Zm2.962.185a3.538,3.538,0,0,0,.413,1.934,1.376,1.376,0,0,0,1.222.615q1.582,0,1.617-2.435v-.3q0-2.558-1.635-2.558-1.485,0-1.608,2.206ZM34.478,9.49l.1,1.116A3.27,3.27,0,0,1,37.29,9.314a2.407,2.407,0,0,1,2.435,1.433A3.165,3.165,0,0,1,42.52,9.314q2.892,0,2.971,3.5V19H42.52V13a1.813,1.813,0,0,0-.246-1.063,1.048,1.048,0,0,0-.9-.334,1.4,1.4,0,0,0-1.31.782l.009.123V19H37.106V13.015a1.906,1.906,0,0,0-.237-1.081,1.045,1.045,0,0,0-.905-.334,1.42,1.42,0,0,0-1.3.782V19H31.7V9.49Zm18.369,8.481a3.054,3.054,0,0,1-2.54,1.2,3,3,0,0,1-2.369-.91,3.826,3.826,0,0,1-.8-2.615V9.49H50.1v6.179a1.065,1.065,0,0,0,1.187,1.222,1.548,1.548,0,0,0,1.45-.729V9.49h2.979V19H52.935ZM60.054,9.49l.1,1.116a3.225,3.225,0,0,1,2.716-1.292,2.713,2.713,0,0,1,2.219.888,4.226,4.226,0,0,1,.76,2.672V19H62.875V13a1.6,1.6,0,0,0-.29-1.059,1.342,1.342,0,0,0-1.055-.338,1.413,1.413,0,0,0-1.292.686V19H57.277V9.49Zm12.032,9.686a4.889,4.889,0,0,1-3.542-1.305,4.507,4.507,0,0,1-1.354-3.4v-.246a5.84,5.84,0,0,1,.541-2.575,3.955,3.955,0,0,1,1.578-1.727,4.763,4.763,0,0,1,2.461-.611,4.117,4.117,0,0,1,3.164,1.244,4.887,4.887,0,0,1,1.16,3.467v1.151H70.205a2.135,2.135,0,0,0,.694,1.257,2.066,2.066,0,0,0,1.389.457,2.662,2.662,0,0,0,2.2-.984l1.354,1.6a3.784,3.784,0,0,1-1.569,1.217A5.3,5.3,0,0,1,72.086,19.176ZM71.752,11.6q-1.3,0-1.547,1.723h2.988v-.229a1.467,1.467,0,0,0-.36-1.1A1.434,1.434,0,0,0,71.752,11.6Zm10.512,4.729a.684.684,0,0,0-.4-.606,6.016,6.016,0,0,0-1.5-.475,6.853,6.853,0,0,1-1.828-.646,3.062,3.062,0,0,1-1.1-.971,2.319,2.319,0,0,1-.378-1.31,2.628,2.628,0,0,1,1.081-2.158,4.453,4.453,0,0,1,2.83-.848A4.934,4.934,0,0,1,84,10.167a2.666,2.666,0,0,1,1.143,2.241H82.167q0-1.143-1.2-1.143a1.194,1.194,0,0,0-.782.259.8.8,0,0,0-.316.646.737.737,0,0,0,.387.642,3.654,3.654,0,0,0,1.235.4,10.671,10.671,0,0,1,1.49.378A2.706,2.706,0,0,1,85.12,16.24a2.491,2.491,0,0,1-1.156,2.118,5.068,5.068,0,0,1-2.993.817,5.172,5.172,0,0,1-2.18-.439,3.645,3.645,0,0,1-1.494-1.2,2.707,2.707,0,0,1-.536-1.591h2.769a1.145,1.145,0,0,0,.439.962,1.808,1.808,0,0,0,1.081.3,1.422,1.422,0,0,0,.91-.246A.787.787,0,0,0,82.264,16.328Zm8.35-2.171a5.613,5.613,0,0,1,.554-2.536,3.96,3.96,0,0,1,1.591-1.709,4.791,4.791,0,0,1,2.435-.6,4.373,4.373,0,0,1,3.366,1.323,5.076,5.076,0,0,1,1.23,3.6v.105a4.925,4.925,0,0,1-1.235,3.529,4.384,4.384,0,0,1-3.344,1.305,4.434,4.434,0,0,1-3.261-1.217,4.761,4.761,0,0,1-1.327-3.3Zm2.962.185a3.538,3.538,0,0,0,.413,1.934,1.376,1.376,0,0,0,1.222.615q1.582,0,1.617-2.435v-.3q0-2.558-1.635-2.558-1.485,0-1.608,2.206Zm11.628-.167a5.809,5.809,0,0,1,.976-3.56,3.211,3.211,0,0,1,2.725-1.3,2.731,2.731,0,0,1,2.145,1V5.5h2.971V19h-2.663l-.149-1.02a2.8,2.8,0,0,1-2.32,1.2,3.205,3.205,0,0,1-2.689-1.3A5.993,5.993,0,0,1,105.2,14.175Zm2.962.185q0,2.531,1.477,2.531a1.458,1.458,0,0,0,1.406-.826V12.443a1.419,1.419,0,0,0-1.389-.844q-1.371,0-1.485,2.215ZM120.3,19.176a4.889,4.889,0,0,1-3.542-1.305,4.507,4.507,0,0,1-1.354-3.4v-.246a5.84,5.84,0,0,1,.541-2.575,3.955,3.955,0,0,1,1.578-1.727,4.763,4.763,0,0,1,2.461-.611,4.117,4.117,0,0,1,3.164,1.244,4.887,4.887,0,0,1,1.16,3.467v1.151h-5.889a2.135,2.135,0,0,0,.694,1.257,2.066,2.066,0,0,0,1.389.457,2.662,2.662,0,0,0,2.2-.984l1.354,1.6a3.784,3.784,0,0,1-1.569,1.217A5.3,5.3,0,0,1,120.3,19.176Zm-.334-7.576q-1.3,0-1.547,1.723h2.988v-.229a1.467,1.467,0,0,0-.36-1.1A1.434,1.434,0,0,0,119.969,11.6Zm8.657,7.4h-2.971V5.5h2.971Zm15.135-4.685a5.735,5.735,0,0,1-1,3.538,3.2,3.2,0,0,1-2.694,1.323,2.742,2.742,0,0,1-2.153-.958v4.438h-2.962V9.49h2.769l.088.879a2.742,2.742,0,0,1,2.241-1.055,3.224,3.224,0,0,1,2.733,1.3,5.805,5.805,0,0,1,.976,3.564Zm-2.962-.185q0-2.531-1.477-2.531a1.394,1.394,0,0,0-1.406.756V16.1a1.439,1.439,0,0,0,1.424.791q1.415,0,1.459-2.443Zm8.868,5.045a4.889,4.889,0,0,1-3.542-1.305,4.507,4.507,0,0,1-1.354-3.4v-.246a5.84,5.84,0,0,1,.541-2.575,3.955,3.955,0,0,1,1.578-1.727,4.763,4.763,0,0,1,2.461-.611,4.117,4.117,0,0,1,3.164,1.244,4.887,4.887,0,0,1,1.16,3.467v1.151h-5.889a2.135,2.135,0,0,0,.694,1.257,2.066,2.066,0,0,0,1.389.457,2.662,2.662,0,0,0,2.2-.984l1.354,1.6a3.784,3.784,0,0,1-1.569,1.217A5.3,5.3,0,0,1,149.667,19.176Zm-.334-7.576q-1.3,0-1.547,1.723h2.988v-.229a1.467,1.467,0,0,0-.36-1.1A1.434,1.434,0,0,0,149.333,11.6Zm11.285.571-.976-.07a1.752,1.752,0,0,0-1.793.879V19h-2.962V9.49h2.777l.1,1.222a2.294,2.294,0,0,1,2.083-1.4,2.888,2.888,0,0,1,.826.105Zm6.047,4.157a.684.684,0,0,0-.4-.606,6.016,6.016,0,0,0-1.5-.475,6.853,6.853,0,0,1-1.828-.646,3.062,3.062,0,0,1-1.1-.971,2.319,2.319,0,0,1-.378-1.31,2.628,2.628,0,0,1,1.081-2.158,4.453,4.453,0,0,1,2.83-.848,4.934,4.934,0,0,1,3.023.853,2.666,2.666,0,0,1,1.143,2.241h-2.971q0-1.143-1.2-1.143a1.194,1.194,0,0,0-.782.259.8.8,0,0,0-.316.646.737.737,0,0,0,.387.642,3.654,3.654,0,0,0,1.235.4,10.671,10.671,0,0,1,1.49.378,2.706,2.706,0,0,1,2.145,2.646,2.491,2.491,0,0,1-1.156,2.118,5.068,5.068,0,0,1-2.993.817,5.172,5.172,0,0,1-2.18-.439,3.645,3.645,0,0,1-1.494-1.2,2.707,2.707,0,0,1-.536-1.591h2.769a1.145,1.145,0,0,0,.439.962,1.808,1.808,0,0,0,1.081.3,1.422,1.422,0,0,0,.91-.246A.787.787,0,0,0,166.665,16.328Zm3.867-2.171a5.613,5.613,0,0,1,.554-2.536,3.96,3.96,0,0,1,1.591-1.709,4.791,4.791,0,0,1,2.435-.6,4.373,4.373,0,0,1,3.366,1.323,5.076,5.076,0,0,1,1.23,3.6v.105a4.925,4.925,0,0,1-1.235,3.529,4.384,4.384,0,0,1-3.344,1.305,4.434,4.434,0,0,1-3.261-1.217,4.761,4.761,0,0,1-1.327-3.3Zm2.962.185a3.538,3.538,0,0,0,.413,1.934,1.376,1.376,0,0,0,1.222.615q1.582,0,1.617-2.435v-.3q0-2.558-1.635-2.558-1.485,0-1.608,2.206ZM183.734,9.49l.1,1.116a3.225,3.225,0,0,1,2.716-1.292,2.713,2.713,0,0,1,2.219.888,4.226,4.226,0,0,1,.76,2.672V19h-2.971V13a1.6,1.6,0,0,0-.29-1.059,1.342,1.342,0,0,0-1.055-.338,1.413,1.413,0,0,0-1.292.686V19h-2.962V9.49ZM196.522,19a3.344,3.344,0,0,1-.281-.853,2.754,2.754,0,0,1-2.285,1.028,3.374,3.374,0,0,1-2.285-.813,2.588,2.588,0,0,1-.94-2.043,2.66,2.66,0,0,1,1.143-2.338,5.821,5.821,0,0,1,3.322-.791h.914v-.5q0-1.316-1.134-1.316a.927.927,0,0,0-1.055,1.042h-2.962a2.655,2.655,0,0,1,1.173-2.239,4.931,4.931,0,0,1,2.993-.86A4.323,4.323,0,0,1,198,10.2a3.086,3.086,0,0,1,1.081,2.435v4.21a4.311,4.311,0,0,0,.4,2V19Zm-1.854-1.934a1.652,1.652,0,0,0,.918-.237,1.487,1.487,0,0,0,.523-.536V14.772h-.861q-1.547,0-1.547,1.389a.848.848,0,0,0,.272.655A.986.986,0,0,0,194.667,17.066ZM203.843,19h-2.971V5.5h2.971Z" transform="translate(1104.489 554.963)" fill="#12263f"/>
    <g id="Grupo_143167" data-name="Grupo 143167" transform="translate(44 -376.105)">
      <path id="Trazado_114199" data-name="Trazado 114199" d="M13.717,0V13.609H0V23H13.717V36.611h9.145V23H36.613V13.609H22.862V0Z" transform="translate(1081.321 1002.113)" fill="#78b62e"/>
      <g id="Grupo_143171" data-name="Grupo 143171" transform="translate(1096.744 1034.105)">
        <g id="Grupo_143170" data-name="Grupo 143170" clip-path="url(#clip-path)">
          <path id="Trazado_115775" data-name="Trazado 115775" d="M129.215,90.938a39.65,39.65,0,0,1-10.493,13.821,1.882,1.882,0,0,0-.687,1.666c.023,2.809.031,5.619,0,8.429-.022,2.169-1.069,3.216-3.252,3.224q-9.395.03-18.789,0c-2.239-.008-3.363-1.151-3.22-3.407a14.044,14.044,0,0,1,7.709-12.137,4.208,4.208,0,0,0,2.062-2.179C107.585,88.49,112.708,76.662,117.7,64.78c.907-2.16,2.162-3.141,4.516-2.938,1.8.155,3.627.031,5.441.031a2.414,2.414,0,0,0,.872-.015c2.361-1,.851-3.186,1.394-4.762.423-1.23-.786-.821-1.34-.824-5.21-.031-10.419-.008-15.629-.022-5.193-.013-9-3.637-8.961-8.511.035-4.773,3.841-8.337,8.945-8.348,5.853-.012,11.707-.023,17.56.014a2.731,2.731,0,0,0,2.83-1.515,13.676,13.676,0,0,1,6.145-5.569c-.035-.131-.03-.265-.086-.3-5.247-3.193-7.588-7.894-7.3-13.981.106-2.216-.152-4.438.284-6.65a14.029,14.029,0,0,1,27.8,2.317c.093,5.149.077,10.3-.007,15.452-.022,1.392.215,1.917,1.757,1.84,2.919-.146,5.851-.05,8.778-.04,2.552.01,3.548.964,3.549,3.459q.009,40.125,0,80.25c0,2.4-1.017,3.4-3.42,3.413s-4.8.015-7.2,0c-2.27-.014-3.178-.825-3.461-3.05C159.4,109,158.6,102.97,157.9,96.929c-.133-1.161-.567-1.373-1.611-1.351q-4.563.1-9.13,0c-.989-.02-1.381.167-1.509,1.266-.7,6.04-1.5,12.068-2.273,18.1-.3,2.338-1.183,3.128-3.56,3.139-2.4.012-4.8.019-7.2,0-2.292-.021-3.323-1.036-3.328-3.324-.016-7.55-.006-15.1-.008-22.652,0-.224-.025-.448-.068-1.166m5.749-3.781c-.142,2.821-.142,2.821,2.587,2.821,9.772,0,19.544-.036,29.316.038,1.473.011,1.806-.365,1.8-1.815-.057-16.326-.036-32.653-.036-48.979,0-2.728,0-2.728-2.821-2.586a10.459,10.459,0,0,1-1.4-.067c-1.332-.239-1.645.364-1.715,1.617-.793,14.295-1.645,28.588-2.476,42.881-.138,2.382-1.085,3.284-3.561,3.287q-9.557.015-19.115,0c-2.727,0-2.727,0-2.583,2.8M125.408,67.5c1.858,3.71,3.58,7.086,5.233,10.5.416.857,1.079.743,1.766.744,5.261,0,10.522-.045,15.782.035,1.259.019,1.672-.434,2.007-1.572a120.439,120.439,0,0,0,3.575-16.937c.14-.973.018-1.368-1.117-1.258a8.014,8.014,0,0,1-7.818-3.687,1.388,1.388,0,0,0-1.727-.675c-2.046.469-4.106.891-6.175,1.241-.9.151-1.294.468-1.355,1.434-.15,2.388-.424,4.768-.652,7.15-.2,2.108-1.154,3-3.289,3.024-1.978.023-3.956.005-6.23.005M140.194,8.4c.455.034.679.062.9.066,4.419.081,4.419.081,5.507,4.358.028.113.087.219.108.333.719,3.831,2.3,7.472,2.268,11.476-.072,8.429-.026,16.859-.019,25.288,0,2.235,1.026,3.5,2.793,3.506s2.815-1.261,2.82-3.48c.011-4.8,0-9.6,0-14.4,0-7.2.026-14.4-.016-21.6a8.325,8.325,0,0,0-5.408-7.705A7.9,7.9,0,0,0,140.194,8.4M108.26,101.222a35.339,35.339,0,0,1,3.746.025,4.918,4.918,0,0,0,4.181-1.625,34.771,34.771,0,0,0,9.844-16.483,2.336,2.336,0,0,0,.054-1.715c-1.638-3.275-3.283-6.547-5.042-10.052l-12.783,29.85m15.229-50.59v-.021c3.747,0,7.5.078,11.239-.039a22.5,22.5,0,0,0,4.3-.83c1.411-.329,3.389-.036,4.089-1.087.682-1.024.214-2.825.222-4.285.011-1.791-.97-2.535-2.76-2.037a30.2,30.2,0,0,0-3.312,1.133,23.031,23.031,0,0,1-9.586,1.582c-4.913-.149-9.835-.05-14.753-.033-2.065.007-3.312,1.1-3.3,2.817s1.256,2.785,3.329,2.795c3.512.018,7.025.005,10.538.005m11.418,53.277c0,2.336-.009,4.672.006,7.008,0,.715-.249,1.66,1.016,1.537.92-.089,2.089.52,2.259-1.269.368-3.88,1.049-7.731,1.421-11.611.469-4.9,1.7-3.8-3.431-3.988-1.009-.037-1.31.34-1.288,1.314.054,2.335.018,4.672.017,7.009m33.725.216c0-2.394,0-4.789,0-7.183,0-.621.155-1.356-.874-1.34-1.168.02-2.336.009-3.5,0-.566,0-.87.18-.784.825.664,5.019,1.337,10.037,1.955,15.061.2,1.625,1.386.807,2.153.952,1.041.2,1.07-.545,1.064-1.308-.018-2.336-.007-4.672-.007-7.008m-62.892,8.336c1.874,0,3.748-.041,5.62.013,1.589.046,1.162-1.177,1.008-1.827-.3-1.268,1.2-3.258-.992-3.728-1.735-.373-3.637.106-5.423-.121-2.429-.308-5.64,2.235-6.7,4.627-.345.777-.142,1.054.693,1.044,1.932-.025,3.864-.008,5.8-.008m37.473-85.1c.678-3.867-.794-7.425-1.484-11.112-.372-1.987-1.3-2.355-3.014-2.181-.7.071-1.045.15-1.015.962.066,1.806-.056,3.623.073,5.423a7.715,7.715,0,0,0,5.44,6.908" fill="#12263f"/>
          <path id="Trazado_115776" data-name="Trazado 115776" d="M44.97,91.572q0,11.417,0,22.834c0,2.746-.935,3.669-3.689,3.677-2.342.007-4.684.017-7.026,0-2.156-.018-3.092-.853-3.362-2.966-.778-6.092-1.589-12.18-2.29-18.281-.128-1.118-.548-1.272-1.517-1.254q-4.654.087-9.309,0c-.935-.018-1.272.209-1.388,1.193-.723,6.1-1.526,12.188-2.3,18.28-.274,2.149-1.189,3.008-3.307,3.028q-3.777.036-7.553,0C1.059,118.053.008,117,.007,114.818q-.015-40.312,0-80.626c0-2.179,1.057-3.212,3.243-3.229,3.279-.025,6.558-.01,9.837,0,2.824,0,3.677.811,3.81,3.581.027.567.069,1.134.123,2.012a19.7,19.7,0,0,1,5.24-4.036c-3.773-1.975-6.518-4.732-7.534-8.754a26.747,26.747,0,0,1,.046-13.878A13.852,13.852,0,0,1,29.8.126,14.057,14.057,0,0,1,42.135,13.713a58.087,58.087,0,0,1-.118,7.719c-.495,4.439-2.216,6.777-7.349,10.827a14.784,14.784,0,0,1,6.68,6.28c.52.966,1.439.846,2.305.847,5.856,0,11.711-.005,17.566,0,5.233.008,9.044,3.572,9.041,8.434s-3.811,8.417-9.051,8.427c-5.153.01-10.306.041-15.458-.027-1.209-.016-1.589.221-1.461,1.514.408,4.129.354,4.134,4.512,4.134,1.289,0,2.58.059,3.864-.014a3.367,3.367,0,0,1,3.619,2.387C61.279,76.007,66.349,87.736,71.338,99.5a6.488,6.488,0,0,0,2.983,3.37,13.82,13.82,0,0,1,7.152,11.578c.192,2.476-.912,3.625-3.347,3.631q-9.311.024-18.62,0c-2.27-.007-3.275-1.051-3.291-3.362-.019-2.752-.005-5.5,0-8.256a1.715,1.715,0,0,0-.524-1.567A44.93,44.93,0,0,1,44.97,91.572M8.444,36.636c-2.82-.142-2.82-.142-2.82,2.587q0,24.576-.032,49.153c0,1.3.3,1.643,1.621,1.635,9.83-.062,19.661-.034,29.492-.034,2.728,0,2.728,0,2.586-2.82.144-2.8.144-2.8-2.584-2.8q-9.645,0-19.29-.005c-2.175,0-3.248-.934-3.366-2.933q-1.248-21-2.461-42c-.167-2.931-.114-2.934-3.146-2.778M39.28,64.665c-.214-2.557-.455-5.113-.626-7.673-.06-.9-.641-.968-1.295-1.093-2.464-.47-4.92-.977-7.384-1.445a8.865,8.865,0,0,1-5.8-3.26c-3.378-4.5-1.376-10.9,4.235-13.529.528-.248,1.218-.265,1.608-.926-5.266-.634-9.986,2.821-10.249,7.81a78.944,78.944,0,0,0,1.546,20.183,89.075,89.075,0,0,0,2.7,12.305,1.91,1.91,0,0,0,2.256,1.733c5.971-.081,11.943-.039,17.914-.033,2.386,0,3.123.559,3.652,2.873a35.529,35.529,0,0,0,8.4,16.148c2.21,2.457,4.505,4,7.991,3.528,1.459-.2,1.64-.406,1.072-1.718Q58.65,84.2,52.114,68.776a1.769,1.769,0,0,0-1.935-1.307c-2.456.084-4.917.035-7.375.024-2.237-.011-2.963-.6-3.524-2.828m9.863-14.033c5.154,0,8.722.018,12.289-.007,1.936-.014,3.163-1.1,3.2-2.743.039-1.714-1.219-2.855-3.25-2.866-3.8-.022-7.612-.162-11.4.03a34.716,34.716,0,0,1-15.742-2.481c-1.95-.837-3.54-.055-4.911,1.283a2.986,2.986,0,0,0-1.1,3.134c.408,1.288,1.488,1.613,2.683,1.925a59.076,59.076,0,0,0,18.232,1.725M36.539,17.76c0-3.669,0-3.668-3.708-3.667a4.416,4.416,0,0,1-.7-.005c-1.018-.165-1.369.287-1.217,1.255.341,2.17-.63,3.632-2.371,4.854-1.86,1.305-3.511,2.91-5.374,4.211-1.374.958-.927,1.464.131,2.2a8.411,8.411,0,0,0,12.923-4.678,17,17,0,0,0,.316-4.174M19.716,20.007a23.235,23.235,0,0,1,2.477-1.935,5.8,5.8,0,0,0,3.165-6.3c-.254-2.245.987-3.267,3.3-3.292,1.768-.019,3.537,0,5.687,0-2.794-2.65-5.659-3.432-8.863-2.365a7.947,7.947,0,0,0-5.719,7.067,66.484,66.484,0,0,0-.043,6.831M5.623,103.953c0,2.219-.035,4.44.019,6.658.018.744-.5,1.907,1.048,1.854,1.068-.036,2.113.289,2.262-1.5.319-3.824.836-7.638,1.432-11.431.639-4.071.719-4.006-3.361-3.968-1.228.012-1.449.48-1.42,1.552.064,2.276.02,4.555.02,6.833m33.725.142V99.364c0-3.886,0-3.886-3.888-3.764-.175.005-.35.009-.525.005-.585-.011-.837.218-.753.849q1,7.528,1.958,15.063c.2,1.618,1.412.76,2.178.922.887.187,1.046-.4,1.038-1.16-.025-2.394-.009-4.789-.008-7.184M68.4,112.461c1.986,0,3.973-.012,5.959.007.661.006.985-.108.728-.892-.693-2.11-3.77-4.664-5.887-4.721a29.12,29.12,0,0,0-6.294.069c-2.468.485-.537,2.671-1.028,4.01-.252.687-.3,1.64,1.09,1.555,1.8-.111,3.621-.027,5.432-.028" fill="#12263f"/>
          <path id="Trazado_115777" data-name="Trazado 115777" d="M89.938,90.093c0,7.9-.032,15.8.033,23.7.011,1.262-.346,1.523-1.548,1.506-4.1-.055-4.106,0-4.106-4.182,0-14.925-.02-29.85.035-44.775.005-1.385-.357-1.71-1.713-1.7-7.374.07-14.749,0-22.123.065-1.236.011-1.544-.3-1.527-1.529.059-4.123.005-4.124,4.167-4.124,3.8,0,7.609-.045,11.412.029,1.094.021,1.359-.269,1.345-1.351-.063-4.916,0-9.833-.044-14.749-.017-1.705.44-3.051,2.207-3.509.809-.21.611-.712.614-1.186.014-2.282-.011-4.565.011-6.848s1.045-3.284,3.352-3.3q5.092-.027,10.184,0c2.283.014,3.3,1.041,3.318,3.335s.027,4.566-.01,6.848c-.011.663.117,1,.835,1.219,1.488.456,2.007,1.619,2,3.128-.025,4.858.079,9.718-.058,14.573-.046,1.638.487,1.871,1.935,1.842,4.564-.093,9.131-.012,13.7-.054.92-.008,1.3.133,1.312,1.2.059,4.441.1,4.441-4.375,4.441-6.438,0-12.877.052-19.314-.04-1.447-.021-1.674.449-1.665,1.745.057,7.9.028,15.8.028,23.7M81.576,45.358l0,1.048c-.024,3.836-.034,7.673-.08,11.509-.01.782.2,1.168,1.068,1.158,3.082-.034,6.164-.029,9.246,0,.813.007,1.024-.356.88-1.072q.027-5.88.055-11.76c0-.578.076-1.1-.732-1.343-1.664-.5-2.163-1.788-2.088-3.423.053-1.168.01-2.34.01-3.511,0-4.367,0-4.336-4.333-4.217-.977.027-1.336.285-1.306,1.293.063,2.164-.032,4.332.034,6.5a3.126,3.126,0,0,1-2.475,3.52c-.206,0-.313.089-.282.306" fill="#12263f"/>
          <path id="Trazado_115778" data-name="Trazado 115778" d="M81.858,45.052l-.282.306c-.03-.217.076-.307.282-.306" fill="#12263f"/>
        </g>
      </g>
    </g>
  </g>
</svg>
