<svg xmlns="http://www.w3.org/2000/svg" xmlns:xlink="http://www.w3.org/1999/xlink" width="815.859" height="848.042" viewBox="0 0 815.859 848.042">
  <defs>
    <linearGradient id="linear-gradient" x1="0.5" x2="0.5" y2="1" gradientUnits="objectBoundingBox">
      <stop offset="0" stop-color="#f5f5f5"/>
      <stop offset="0.25" stop-color="#f5f5f5"/>
      <stop offset="1" stop-color="#afafaf"/>
    </linearGradient>
    <clipPath id="clip-path">
      <path id="Rectángulo_38075" data-name="Rectángulo 38075" d="M10,0H220a10,10,0,0,1,10,10V66.22a10,10,0,0,1-10,10H10a10,10,0,0,1-10-10V10A10,10,0,0,1,10,0Z" transform="translate(397.196)" fill="none"/>
    </clipPath>
    <linearGradient id="linear-gradient-7" x1="-1.218" y1="13.625" x2="-1.215" y2="13.625" gradientUnits="objectBoundingBox">
      <stop offset="0" stop-color="#4090de"/>
      <stop offset="1" stop-color="#3c6d9d"/>
    </linearGradient>
    <clipPath id="clip-path-3">
      <path id="Rectángulo_38079" data-name="Rectángulo 38079" d="M10,0H267.464a10,10,0,0,1,10,10V66.22a10,10,0,0,1-10,10H10a10,10,0,0,1-10-10V10A10,10,0,0,1,10,0Z" transform="translate(397.196)" fill="none"/>
    </clipPath>
    <clipPath id="clip-path-7">
      <rect id="Rectángulo_38087" data-name="Rectángulo 38087" width="180.135" height="42.779" rx="10" transform="translate(39.426 363.636)" fill="url(#linear-gradient)"/>
    </clipPath>
    <clipPath id="clip-path-9">
      <rect id="Rectángulo_38091" data-name="Rectángulo 38091" width="257.262" height="42.779" rx="10" transform="translate(39.426 363.636)" fill="url(#linear-gradient)"/>
    </clipPath>
    <clipPath id="clip-path-12">
      <rect id="Rectángulo_38097" data-name="Rectángulo 38097" width="257.262" height="65.12" rx="10" transform="translate(39.426 363.636)" fill="url(#linear-gradient)"/>
    </clipPath>
  </defs>
  <g id="img6" transform="translate(394.859 6733.331)">
    <rect id="Rectángulo_38067" data-name="Rectángulo 38067" width="12.32" height="325.205" transform="translate(8.68 -6674.501)" fill="#bec1c7"/>
    <rect id="Rectángulo_38068" data-name="Rectángulo 38068" width="12.32" height="131.205" transform="translate(8.68 -6331.129)" fill="#bec1c7"/>
    <rect id="Rectángulo_38069" data-name="Rectángulo 38069" width="12.32" height="97.205" transform="translate(8.68 -6175.129)" fill="#bec1c7"/>
    <rect id="Rectángulo_38070" data-name="Rectángulo 38070" width="12.32" height="97.205" transform="translate(260.568 -6077.924)" fill="#bec1c7"/>
    <rect id="Rectángulo_38071" data-name="Rectángulo 38071" width="12.32" height="97.205" transform="translate(-249 -6077.924)" fill="#bec1c7"/>
    <rect id="Rectángulo_38072" data-name="Rectángulo 38072" width="75.405" height="12.32" transform="translate(-64.405 -6546.239)" fill="#bec1c7"/>
    <rect id="Rectángulo_38073" data-name="Rectángulo 38073" width="518.888" height="12.32" transform="translate(-246 -6077.924)" fill="#bec1c7"/>
    <g id="Grupo_143292" data-name="Grupo 143292" transform="translate(-501.196 -6733.331)" clip-path="url(#clip-path)">
      <rect id="Rectángulo_38074" data-name="Rectángulo 38074" width="230" height="76.22" transform="translate(397.196)" fill="url(#linear-gradient-7)"/>
    </g>
    <g id="Grupo_143293" data-name="Grupo 143293" transform="translate(-681.331 -6576.239)" clip-path="url(#clip-path)">
      <rect id="Rectángulo_38076" data-name="Rectángulo 38076" width="230" height="76.22" transform="translate(397.196)" fill="url(#linear-gradient-7)"/>
    </g>
    <g id="Grupo_143294" data-name="Grupo 143294" transform="translate(-524.928 -6369.239)" clip-path="url(#clip-path-3)">
      <rect id="Rectángulo_38078" data-name="Rectángulo 38078" width="277.463" height="76.22" transform="translate(397.196)" fill="url(#linear-gradient-7)"/>
    </g>
    <g id="Grupo_143295" data-name="Grupo 143295" transform="translate(-524.928 -6213.239)" clip-path="url(#clip-path-3)">
      <rect id="Rectángulo_38080" data-name="Rectángulo 38080" width="277.463" height="76.22" transform="translate(397.196)" fill="url(#linear-gradient-7)"/>
    </g>
    <g id="Grupo_143296" data-name="Grupo 143296" transform="translate(-792.055 -6009.239)" clip-path="url(#clip-path-3)">
      <rect id="Rectángulo_38082" data-name="Rectángulo 38082" width="277.463" height="76.22" transform="translate(397.196)" fill="url(#linear-gradient-7)"/>
    </g>
    <g id="Grupo_143297" data-name="Grupo 143297" transform="translate(-287.055 -6009.239)" clip-path="url(#clip-path-3)">
      <rect id="Rectángulo_38084" data-name="Rectángulo 38084" width="277.463" height="76.22" transform="translate(397.196)" fill="url(#linear-gradient-7)"/>
    </g>
    <g id="Grupo_143298" data-name="Grupo 143298" transform="translate(-38.426 -7038.138)" clip-path="url(#clip-path-7)">
      <rect id="Rectángulo_38086" data-name="Rectángulo 38086" width="180.135" height="42.779" transform="translate(39.426 363.636)" fill="url(#linear-gradient)"/>
    </g>
    <g id="Grupo_143299" data-name="Grupo 143299" transform="translate(-293.695 -6881.045)" clip-path="url(#clip-path-7)">
      <rect id="Rectángulo_38088" data-name="Rectángulo 38088" width="180.135" height="42.779" transform="translate(39.426 363.636)" fill="url(#linear-gradient)"/>
    </g>
    <g id="Grupo_143300" data-name="Grupo 143300" transform="translate(-113.561 -6674.045)" clip-path="url(#clip-path-9)">
      <rect id="Rectángulo_38090" data-name="Rectángulo 38090" width="257.262" height="42.779" transform="translate(39.426 363.636)" fill="url(#linear-gradient)"/>
    </g>
    <g id="Grupo_143301" data-name="Grupo 143301" transform="translate(-113.561 -6518.045)" clip-path="url(#clip-path-9)">
      <rect id="Rectángulo_38092" data-name="Rectángulo 38092" width="257.262" height="42.779" transform="translate(39.426 363.636)" fill="url(#linear-gradient)"/>
    </g>
    <g id="Grupo_143302" data-name="Grupo 143302" transform="translate(-380.688 -6314.045)" clip-path="url(#clip-path-9)">
      <rect id="Rectángulo_38094" data-name="Rectángulo 38094" width="257.262" height="42.779" transform="translate(39.426 363.636)" fill="url(#linear-gradient)"/>
    </g>
    <g id="Grupo_143303" data-name="Grupo 143303" transform="translate(124.312 -6314.045)" clip-path="url(#clip-path-12)">
      <rect id="Rectángulo_38096" data-name="Rectángulo 38096" width="257.262" height="65.12" transform="translate(39.426 363.636)" fill="url(#linear-gradient)"/>
    </g>
    <path id="Trazado_115823" data-name="Trazado 115823" d="M34.068,17.758H27.6v4.078H35.24V25H23.486V7.938H35.264v3.176H27.6v3.6h6.469Zm6.293-5.437.129,1.488a4.3,4.3,0,0,1,3.621-1.723A3.618,3.618,0,0,1,47.07,13.27a5.635,5.635,0,0,1,1.014,3.563V25H44.123V17a2.14,2.14,0,0,0-.387-1.412,1.789,1.789,0,0,0-1.406-.451,1.883,1.883,0,0,0-1.723.914V25H36.658V12.32ZM56.4,25.234a6.518,6.518,0,0,1-4.723-1.74,6.009,6.009,0,0,1-1.8-4.529v-.328A7.787,7.787,0,0,1,50.6,15.2a5.274,5.274,0,0,1,2.1-2.3,6.35,6.35,0,0,1,3.281-.814A5.489,5.489,0,0,1,60.2,13.744a6.516,6.516,0,0,1,1.547,4.623V19.9H53.9a2.846,2.846,0,0,0,.926,1.676,2.755,2.755,0,0,0,1.852.609,3.549,3.549,0,0,0,2.93-1.312l1.8,2.133a5.045,5.045,0,0,1-2.092,1.623A7.069,7.069,0,0,1,56.4,25.234Zm-.445-10.1q-1.734,0-2.062,2.3h3.984v-.3a1.956,1.956,0,0,0-.48-1.471A1.912,1.912,0,0,0,55.959,15.133Zm15.047.762-1.3-.094a2.336,2.336,0,0,0-2.391,1.172V25H63.365V12.32h3.7l.129,1.629a3.058,3.058,0,0,1,2.777-1.863,3.851,3.851,0,0,1,1.1.141Zm.961,2.672a8.561,8.561,0,0,1,.633-3.4,5.094,5.094,0,0,1,1.816-2.279,4.788,4.788,0,0,1,2.754-.8,3.807,3.807,0,0,1,3.094,1.336l.141-1.1H83.99v12.2a5.346,5.346,0,0,1-.779,2.912,5,5,0,0,1-2.256,1.9,8.292,8.292,0,0,1-3.422.662,7.153,7.153,0,0,1-2.7-.527,4.876,4.876,0,0,1-2-1.371l1.652-2.32a3.621,3.621,0,0,0,2.906,1.3q2.625,0,2.625-2.7v-.4a3.708,3.708,0,0,1-2.871,1.254,4.583,4.583,0,0,1-3.75-1.775,7.356,7.356,0,0,1-1.43-4.752Zm3.961.246a4.511,4.511,0,0,0,.586,2.467,1.849,1.849,0,0,0,1.641.908,2.1,2.1,0,0,0,1.863-.855V16a2.045,2.045,0,0,0-1.84-.867,1.861,1.861,0,0,0-1.652.943A5.144,5.144,0,0,0,75.928,18.813ZM90.541,25H86.568V12.32h3.973ZM89.064,7.234h4.172l-3.258,3.68-3.223-.006ZM100.221,25a4.459,4.459,0,0,1-.375-1.137A3.672,3.672,0,0,1,96.8,25.234a4.5,4.5,0,0,1-3.047-1.084A3.45,3.45,0,0,1,92.5,21.426a3.546,3.546,0,0,1,1.523-3.117,7.761,7.761,0,0,1,4.43-1.055H99.67v-.671q0-1.755-1.512-1.755a1.236,1.236,0,0,0-1.406,1.39H92.8a3.54,3.54,0,0,1,1.564-2.985,6.575,6.575,0,0,1,3.99-1.147,5.764,5.764,0,0,1,3.832,1.184,4.115,4.115,0,0,1,1.441,3.246v5.613a5.748,5.748,0,0,0,.539,2.672V25Zm-2.473-2.578a2.2,2.2,0,0,0,1.225-.316,1.983,1.983,0,0,0,.7-.715V19.363H98.521q-2.062,0-2.062,1.852a1.131,1.131,0,0,0,.363.873A1.315,1.315,0,0,0,97.748,22.422Zm25.816-3.656a7.728,7.728,0,0,1-1.289,4.793,4.318,4.318,0,0,1-3.633,1.676,3.747,3.747,0,0,1-3.117-1.535l-.164,1.3h-3.539V7h3.949v6.34a3.615,3.615,0,0,1,2.848-1.254,4.319,4.319,0,0,1,3.656,1.7,7.768,7.768,0,0,1,1.289,4.781Zm-3.961-.252a5.155,5.155,0,0,0-.486-2.6,1.639,1.639,0,0,0-1.494-.778,1.891,1.891,0,0,0-1.852,1.018v5.031a1.9,1.9,0,0,0,1.875,1.006,1.677,1.677,0,0,0,1.77-1.357A9.745,9.745,0,0,0,119.6,18.514Zm13.371-2.619-1.3-.094a2.336,2.336,0,0,0-2.391,1.172V25h-3.949V12.32h3.7l.129,1.629a3.058,3.058,0,0,1,2.777-1.863,3.851,3.851,0,0,1,1.1.141Zm8.977,7.734a4.072,4.072,0,0,1-3.387,1.605,3.993,3.993,0,0,1-3.158-1.213,5.1,5.1,0,0,1-1.072-3.486V12.32h3.949v8.238a1.419,1.419,0,0,0,1.582,1.629,2.064,2.064,0,0,0,1.934-.973V12.32h3.973V25h-3.7ZM152.533,9.168V12.32h2.086v2.742h-2.086v5.8a1.481,1.481,0,0,0,.258,1,1.383,1.383,0,0,0,1.02.281,5.793,5.793,0,0,0,.984-.07v2.824a7.288,7.288,0,0,1-2.227.34,4.137,4.137,0,0,1-3.012-.961,3.939,3.939,0,0,1-.973-2.918V15.063h-1.617V12.32h1.617V9.168ZM163.314,25a4.459,4.459,0,0,1-.375-1.137,3.672,3.672,0,0,1-3.047,1.371,4.5,4.5,0,0,1-3.047-1.084,3.45,3.45,0,0,1-1.254-2.725,3.546,3.546,0,0,1,1.523-3.117,7.761,7.761,0,0,1,4.43-1.055h1.219v-.671q0-1.755-1.512-1.755a1.236,1.236,0,0,0-1.406,1.39H155.9a3.54,3.54,0,0,1,1.564-2.985,6.575,6.575,0,0,1,3.99-1.147,5.764,5.764,0,0,1,3.832,1.184,4.115,4.115,0,0,1,1.441,3.246v5.613a5.748,5.748,0,0,0,.539,2.672V25Zm-2.473-2.578a2.2,2.2,0,0,0,1.225-.316,1.983,1.983,0,0,0,.7-.715V19.363h-1.148q-2.062,0-2.062,1.852a1.131,1.131,0,0,0,.363.873A1.315,1.315,0,0,0,160.842,22.422Z" transform="translate(-84 -6710.696)" fill="#fff"/>
    <path id="Trazado_115825" data-name="Trazado 115825" d="M16.49,17.758H10.021v4.078h7.641V25H5.908V7.938H17.685v3.176H10.021v3.6H16.49Zm6.293-5.437.129,1.488a4.3,4.3,0,0,1,3.621-1.723,3.618,3.618,0,0,1,2.959,1.184,5.635,5.635,0,0,1,1.014,3.563V25H26.545V17a2.14,2.14,0,0,0-.387-1.412,1.789,1.789,0,0,0-1.406-.451,1.883,1.883,0,0,0-1.723.914V25H19.08V12.32ZM38.826,25.234a6.518,6.518,0,0,1-4.723-1.74,6.009,6.009,0,0,1-1.8-4.529v-.328a7.787,7.787,0,0,1,.721-3.434,5.274,5.274,0,0,1,2.1-2.3,6.35,6.35,0,0,1,3.281-.814,5.489,5.489,0,0,1,4.219,1.658,6.516,6.516,0,0,1,1.547,4.623V19.9H36.318a2.846,2.846,0,0,0,.926,1.676,2.755,2.755,0,0,0,1.852.609,3.549,3.549,0,0,0,2.93-1.312l1.8,2.133a5.045,5.045,0,0,1-2.092,1.623A7.069,7.069,0,0,1,38.826,25.234Zm-.445-10.1q-1.734,0-2.062,2.3H40.3v-.3a1.956,1.956,0,0,0-.48-1.471A1.912,1.912,0,0,0,38.381,15.133Zm15.047.762-1.3-.094a2.336,2.336,0,0,0-2.391,1.172V25H45.787V12.32h3.7l.129,1.629A3.058,3.058,0,0,1,52.4,12.086a3.851,3.851,0,0,1,1.1.141Zm.961,2.672a8.561,8.561,0,0,1,.633-3.4,5.094,5.094,0,0,1,1.816-2.279,4.788,4.788,0,0,1,2.754-.8,3.807,3.807,0,0,1,3.094,1.336l.141-1.1h3.586v12.2a5.346,5.346,0,0,1-.779,2.912,5,5,0,0,1-2.256,1.9,8.292,8.292,0,0,1-3.422.662,7.153,7.153,0,0,1-2.7-.527,4.876,4.876,0,0,1-2-1.371l1.652-2.32a3.621,3.621,0,0,0,2.906,1.3q2.625,0,2.625-2.7v-.4a3.708,3.708,0,0,1-2.871,1.254,4.583,4.583,0,0,1-3.75-1.775,7.356,7.356,0,0,1-1.43-4.752Zm3.961.246a4.511,4.511,0,0,0,.586,2.467,1.849,1.849,0,0,0,1.641.908,2.1,2.1,0,0,0,1.863-.855V16a2.045,2.045,0,0,0-1.84-.867,1.861,1.861,0,0,0-1.652.943A5.144,5.144,0,0,0,58.35,18.813ZM72.963,25H68.99V12.32h3.973ZM71.486,7.234h4.172L72.4,10.914l-3.223-.006ZM82.643,25a4.459,4.459,0,0,1-.375-1.137,3.672,3.672,0,0,1-3.047,1.371,4.5,4.5,0,0,1-3.047-1.084,3.45,3.45,0,0,1-1.254-2.725,3.546,3.546,0,0,1,1.523-3.117,7.761,7.761,0,0,1,4.43-1.055h1.219v-.671q0-1.755-1.512-1.755a1.236,1.236,0,0,0-1.406,1.39H75.225a3.54,3.54,0,0,1,1.564-2.985,6.575,6.575,0,0,1,3.99-1.147,5.764,5.764,0,0,1,3.832,1.184,4.115,4.115,0,0,1,1.441,3.246v5.613a5.748,5.748,0,0,0,.539,2.672V25ZM80.17,22.422a2.2,2.2,0,0,0,1.225-.316,1.983,1.983,0,0,0,.7-.715V19.363H80.943q-2.062,0-2.062,1.852a1.131,1.131,0,0,0,.363.873A1.315,1.315,0,0,0,80.17,22.422Zm13.547-3.855a7.746,7.746,0,0,1,1.3-4.746,4.282,4.282,0,0,1,3.633-1.734,3.641,3.641,0,0,1,2.859,1.336V7h3.961V25H101.92l-.2-1.359a3.739,3.739,0,0,1-3.094,1.594A4.274,4.274,0,0,1,95.041,23.5,7.991,7.991,0,0,1,93.717,18.566Zm3.949.246q0,3.375,1.969,3.375a1.944,1.944,0,0,0,1.875-1.1V16.258a1.892,1.892,0,0,0-1.852-1.125q-1.828,0-1.98,2.953ZM111.881,25H107.92V12.32h3.961Zm-4.2-15.949a1.763,1.763,0,0,1,.609-1.383,2.591,2.591,0,0,1,3.164,0,1.763,1.763,0,0,1,.609,1.383,1.763,1.763,0,0,1-.609,1.383,2.591,2.591,0,0,1-3.164,0A1.763,1.763,0,0,1,107.685,9.051Zm6.164,9.516a8.561,8.561,0,0,1,.633-3.4,5.094,5.094,0,0,1,1.816-2.279,4.788,4.788,0,0,1,2.754-.8,3.807,3.807,0,0,1,3.094,1.336l.141-1.1h3.586v12.2a5.346,5.346,0,0,1-.779,2.912,5,5,0,0,1-2.256,1.9,8.292,8.292,0,0,1-3.422.662,7.153,7.153,0,0,1-2.7-.527,4.876,4.876,0,0,1-2-1.371l1.652-2.32a3.621,3.621,0,0,0,2.906,1.3q2.625,0,2.625-2.7v-.4a3.708,3.708,0,0,1-2.871,1.254,4.583,4.583,0,0,1-3.75-1.775,7.356,7.356,0,0,1-1.43-4.752Zm3.961.246a4.511,4.511,0,0,0,.586,2.467,1.849,1.849,0,0,0,1.641.908,2.1,2.1,0,0,0,1.863-.855V16a2.045,2.045,0,0,0-1.84-.867,1.861,1.861,0,0,0-1.652.943A5.144,5.144,0,0,0,117.81,18.813Zm16.441,6.422a6.518,6.518,0,0,1-4.723-1.74,6.009,6.009,0,0,1-1.8-4.529v-.328a7.787,7.787,0,0,1,.721-3.434,5.274,5.274,0,0,1,2.1-2.3,6.35,6.35,0,0,1,3.281-.814,5.489,5.489,0,0,1,4.219,1.658,6.516,6.516,0,0,1,1.547,4.623V19.9h-7.852a2.846,2.846,0,0,0,.926,1.676,2.755,2.755,0,0,0,1.852.609,3.549,3.549,0,0,0,2.93-1.312l1.8,2.133a5.045,5.045,0,0,1-2.092,1.623A7.069,7.069,0,0,1,134.252,25.234Zm-.445-10.1q-1.734,0-2.062,2.3h3.984v-.3a1.956,1.956,0,0,0-.48-1.471A1.912,1.912,0,0,0,133.807,15.133Zm14.016,6.3a.912.912,0,0,0-.527-.809,8.021,8.021,0,0,0-2-.633,9.138,9.138,0,0,1-2.437-.861,4.083,4.083,0,0,1-1.465-1.295,3.092,3.092,0,0,1-.5-1.746,3.5,3.5,0,0,1,1.441-2.877,5.938,5.938,0,0,1,3.773-1.131,6.579,6.579,0,0,1,4.031,1.137,3.555,3.555,0,0,1,1.523,2.988h-3.961q0-1.523-1.605-1.523a1.591,1.591,0,0,0-1.043.346,1.07,1.07,0,0,0-.422.861.982.982,0,0,0,.516.855,4.872,4.872,0,0,0,1.646.539,14.228,14.228,0,0,1,1.986.5q2.859.984,2.859,3.527a3.321,3.321,0,0,1-1.541,2.824,6.758,6.758,0,0,1-3.99,1.09,6.9,6.9,0,0,1-2.906-.586,4.86,4.86,0,0,1-1.992-1.594,3.609,3.609,0,0,1-.715-2.121h3.691a1.526,1.526,0,0,0,.586,1.283,2.41,2.41,0,0,0,1.441.4,1.9,1.9,0,0,0,1.213-.328A1.05,1.05,0,0,0,147.822,21.438Zm10.254-12.27V12.32h2.086v2.742h-2.086v5.8a1.481,1.481,0,0,0,.258,1,1.383,1.383,0,0,0,1.02.281,5.793,5.793,0,0,0,.984-.07v2.824a7.288,7.288,0,0,1-2.227.34,4.137,4.137,0,0,1-3.012-.961,3.939,3.939,0,0,1-.973-2.918V15.063H152.51V12.32h1.617V9.168ZM165.881,25H161.92V12.32h3.961Zm-4.2-15.949a1.763,1.763,0,0,1,.609-1.383,2.591,2.591,0,0,1,3.164,0,1.763,1.763,0,0,1,.609,1.383,1.763,1.763,0,0,1-.609,1.383,2.591,2.591,0,0,1-3.164,0A1.763,1.763,0,0,1,161.685,9.051Zm18.4,9.715a7.728,7.728,0,0,1-1.289,4.793,4.318,4.318,0,0,1-3.633,1.676,3.747,3.747,0,0,1-3.117-1.535l-.164,1.3h-3.539V7h3.949v6.34a3.615,3.615,0,0,1,2.848-1.254,4.319,4.319,0,0,1,3.656,1.7,7.768,7.768,0,0,1,1.289,4.781Zm-3.961-.252a5.155,5.155,0,0,0-.486-2.6,1.639,1.639,0,0,0-1.494-.778,1.891,1.891,0,0,0-1.852,1.018v5.031a1.9,1.9,0,0,0,1.875,1.006,1.677,1.677,0,0,0,1.77-1.357A9.745,9.745,0,0,0,176.123,18.514ZM185.99,25h-3.961V7h3.961Zm8.566.234a6.518,6.518,0,0,1-4.723-1.74,6.009,6.009,0,0,1-1.8-4.529v-.328a7.787,7.787,0,0,1,.721-3.434,5.274,5.274,0,0,1,2.1-2.3,6.35,6.35,0,0,1,3.281-.814,5.489,5.489,0,0,1,4.219,1.658,6.516,6.516,0,0,1,1.547,4.623V19.9h-7.852a2.846,2.846,0,0,0,.926,1.676,2.755,2.755,0,0,0,1.852.609,3.549,3.549,0,0,0,2.93-1.312l1.8,2.133a5.045,5.045,0,0,1-2.092,1.623A7.069,7.069,0,0,1,194.557,25.234Zm-.445-10.1q-1.734,0-2.062,2.3h3.984v-.3a1.956,1.956,0,0,0-.48-1.471A1.912,1.912,0,0,0,194.111,15.133Z" transform="translate(-271.634 -6556.226)" fill="#fff"/>
    <path id="Trazado_115827" data-name="Trazado 115827" d="M13.927,17.758H7.458v4.078H15.1V25H3.345V7.938H15.123v3.176H7.458v3.6h6.469ZM20.22,12.32l.129,1.488a4.3,4.3,0,0,1,3.621-1.723,3.618,3.618,0,0,1,2.959,1.184,5.635,5.635,0,0,1,1.014,3.563V25H23.982V17a2.14,2.14,0,0,0-.387-1.412,1.789,1.789,0,0,0-1.406-.451,1.883,1.883,0,0,0-1.723.914V25H16.517V12.32ZM36.263,25.234a6.518,6.518,0,0,1-4.723-1.74,6.009,6.009,0,0,1-1.8-4.529v-.328a7.787,7.787,0,0,1,.721-3.434,5.274,5.274,0,0,1,2.1-2.3,6.35,6.35,0,0,1,3.281-.814,5.489,5.489,0,0,1,4.219,1.658,6.516,6.516,0,0,1,1.547,4.623V19.9H33.755a2.846,2.846,0,0,0,.926,1.676,2.755,2.755,0,0,0,1.852.609,3.549,3.549,0,0,0,2.93-1.312l1.8,2.133a5.045,5.045,0,0,1-2.092,1.623A7.069,7.069,0,0,1,36.263,25.234Zm-.445-10.1q-1.734,0-2.062,2.3H37.74v-.3a1.956,1.956,0,0,0-.48-1.471A1.912,1.912,0,0,0,35.818,15.133Zm15.047.762-1.3-.094a2.336,2.336,0,0,0-2.391,1.172V25H43.224V12.32h3.7l.129,1.629a3.058,3.058,0,0,1,2.777-1.863,3.851,3.851,0,0,1,1.1.141Zm.961,2.672a8.561,8.561,0,0,1,.633-3.4,5.094,5.094,0,0,1,1.816-2.279,4.788,4.788,0,0,1,2.754-.8,3.807,3.807,0,0,1,3.094,1.336l.141-1.1h3.586v12.2a5.346,5.346,0,0,1-.779,2.912,5,5,0,0,1-2.256,1.9,8.292,8.292,0,0,1-3.422.662,7.153,7.153,0,0,1-2.7-.527,4.876,4.876,0,0,1-2-1.371l1.652-2.32a3.621,3.621,0,0,0,2.906,1.3q2.625,0,2.625-2.7v-.4a3.708,3.708,0,0,1-2.871,1.254,4.583,4.583,0,0,1-3.75-1.775,7.356,7.356,0,0,1-1.43-4.752Zm3.961.246a4.511,4.511,0,0,0,.586,2.467,1.849,1.849,0,0,0,1.641.908,2.1,2.1,0,0,0,1.863-.855V16a2.045,2.045,0,0,0-1.84-.867,1.861,1.861,0,0,0-1.652.943A5.144,5.144,0,0,0,55.787,18.813ZM70.4,25H66.427V12.32H70.4ZM68.923,7.234H73.1l-3.258,3.68-3.223-.006ZM80.08,25a4.459,4.459,0,0,1-.375-1.137,3.672,3.672,0,0,1-3.047,1.371,4.5,4.5,0,0,1-3.047-1.084,3.45,3.45,0,0,1-1.254-2.725,3.546,3.546,0,0,1,1.523-3.117,7.761,7.761,0,0,1,4.43-1.055h1.219v-.671q0-1.755-1.512-1.755a1.236,1.236,0,0,0-1.406,1.39H72.662a3.54,3.54,0,0,1,1.564-2.985,6.575,6.575,0,0,1,3.99-1.147,5.764,5.764,0,0,1,3.832,1.184,4.115,4.115,0,0,1,1.441,3.246v5.613a5.748,5.748,0,0,0,.539,2.672V25Zm-2.473-2.578a2.2,2.2,0,0,0,1.225-.316,1.983,1.983,0,0,0,.7-.715V19.363H78.38q-2.062,0-2.062,1.852a1.131,1.131,0,0,0,.363.873A1.315,1.315,0,0,0,77.607,22.422Zm17.777-10.1.129,1.488a4.36,4.36,0,0,1,3.621-1.723A3.21,3.21,0,0,1,102.38,14a4.22,4.22,0,0,1,3.727-1.91q3.855,0,3.961,4.664V25h-3.961V17a2.417,2.417,0,0,0-.328-1.418,1.4,1.4,0,0,0-1.2-.445,1.871,1.871,0,0,0-1.746,1.043l.012.164V25H98.888V17.02a2.541,2.541,0,0,0-.316-1.441,1.393,1.393,0,0,0-1.207-.445,1.894,1.894,0,0,0-1.734,1.043V25H91.681V12.32Zm23.074,12.914a6.518,6.518,0,0,1-4.723-1.74,6.009,6.009,0,0,1-1.8-4.529v-.328a7.787,7.787,0,0,1,.721-3.434,5.274,5.274,0,0,1,2.1-2.3,6.35,6.35,0,0,1,3.281-.814,5.489,5.489,0,0,1,4.219,1.658,6.516,6.516,0,0,1,1.547,4.623V19.9h-7.852a2.846,2.846,0,0,0,.926,1.676,2.755,2.755,0,0,0,1.852.609,3.549,3.549,0,0,0,2.93-1.312l1.8,2.133a5.045,5.045,0,0,1-2.092,1.623A7.069,7.069,0,0,1,118.458,25.234Zm-.445-10.1q-1.734,0-2.062,2.3h3.984v-.3a1.956,1.956,0,0,0-.48-1.471A1.912,1.912,0,0,0,118.013,15.133ZM129.99,9.168V12.32h2.086v2.742H129.99v5.8a1.481,1.481,0,0,0,.258,1,1.383,1.383,0,0,0,1.02.281,5.793,5.793,0,0,0,.984-.07v2.824a7.288,7.288,0,0,1-2.227.34,4.137,4.137,0,0,1-3.012-.961,3.939,3.939,0,0,1-.973-2.918V15.063h-1.617V12.32h1.617V9.168ZM140.771,25a4.459,4.459,0,0,1-.375-1.137,3.672,3.672,0,0,1-3.047,1.371A4.5,4.5,0,0,1,134.3,24.15a3.45,3.45,0,0,1-1.254-2.725,3.546,3.546,0,0,1,1.523-3.117A7.761,7.761,0,0,1,139,17.254h1.219v-.671q0-1.755-1.512-1.755a1.236,1.236,0,0,0-1.406,1.39h-3.949a3.54,3.54,0,0,1,1.564-2.985,6.575,6.575,0,0,1,3.99-1.147,5.764,5.764,0,0,1,3.832,1.184,4.115,4.115,0,0,1,1.441,3.246v5.613a5.748,5.748,0,0,0,.539,2.672V25ZM138.3,22.422a2.2,2.2,0,0,0,1.225-.316,1.983,1.983,0,0,0,.7-.715V19.363h-1.148q-2.062,0-2.062,1.852a1.131,1.131,0,0,0,.363.873A1.315,1.315,0,0,0,138.3,22.422Zm19.84-3.656a7.728,7.728,0,0,1-1.289,4.793,4.318,4.318,0,0,1-3.633,1.676A3.747,3.747,0,0,1,150.1,23.7l-.164,1.3H146.4V7h3.949v6.34a3.615,3.615,0,0,1,2.848-1.254,4.319,4.319,0,0,1,3.656,1.7,7.768,7.768,0,0,1,1.289,4.781Zm-3.961-.252a5.155,5.155,0,0,0-.486-2.6,1.639,1.639,0,0,0-1.494-.778,1.891,1.891,0,0,0-1.852,1.018v5.031a1.9,1.9,0,0,0,1.875,1.006,1.677,1.677,0,0,0,1.77-1.357A9.745,9.745,0,0,0,154.177,18.514Zm5.2.029a7.484,7.484,0,0,1,.738-3.381,5.28,5.28,0,0,1,2.121-2.279,6.388,6.388,0,0,1,3.246-.8,5.83,5.83,0,0,1,4.488,1.764,6.768,6.768,0,0,1,1.641,4.8v.141a6.566,6.566,0,0,1-1.646,4.705,5.846,5.846,0,0,1-4.459,1.74,5.912,5.912,0,0,1-4.348-1.623,6.348,6.348,0,0,1-1.77-4.4Zm3.949.246a4.718,4.718,0,0,0,.551,2.578,1.835,1.835,0,0,0,1.629.82q2.109,0,2.156-3.246v-.4q0-3.41-2.18-3.41-1.98,0-2.145,2.941ZM177.521,25H173.56V7h3.961Zm6.6,0h-3.961V12.32h3.961Zm-4.2-15.949a1.763,1.763,0,0,1,.609-1.383,2.591,2.591,0,0,1,3.164,0,1.763,1.763,0,0,1,.609,1.383,1.763,1.763,0,0,1-.609,1.383,2.591,2.591,0,0,1-3.164,0A1.763,1.763,0,0,1,179.923,9.051Zm11.285,12.9h5.777V25h-10.77V22.8l5.625-7.43h-5.379V12.32h10.395v2.133ZM206.044,25a4.459,4.459,0,0,1-.375-1.137,3.672,3.672,0,0,1-3.047,1.371,4.5,4.5,0,0,1-3.047-1.084,3.45,3.45,0,0,1-1.254-2.725,3.546,3.546,0,0,1,1.523-3.117,7.761,7.761,0,0,1,4.43-1.055h1.219v-.671q0-1.755-1.512-1.755a1.236,1.236,0,0,0-1.406,1.39h-3.949a3.54,3.54,0,0,1,1.564-2.985,6.575,6.575,0,0,1,3.99-1.147,5.764,5.764,0,0,1,3.832,1.184,4.115,4.115,0,0,1,1.441,3.246v5.613a5.748,5.748,0,0,0,.539,2.672V25Zm-2.473-2.578a2.2,2.2,0,0,0,1.225-.316,1.983,1.983,0,0,0,.7-.715V19.363h-1.148q-2.062,0-2.062,1.852a1.131,1.131,0,0,0,.363.873A1.315,1.315,0,0,0,203.572,22.422Zm19.84-3.656a7.728,7.728,0,0,1-1.289,4.793,4.318,4.318,0,0,1-3.633,1.676,3.747,3.747,0,0,1-3.117-1.535l-.164,1.3h-3.539V7h3.949v6.34a3.615,3.615,0,0,1,2.848-1.254,4.319,4.319,0,0,1,3.656,1.7,7.768,7.768,0,0,1,1.289,4.781Zm-3.961-.252a5.155,5.155,0,0,0-.486-2.6,1.639,1.639,0,0,0-1.494-.778,1.891,1.891,0,0,0-1.852,1.018v5.031a1.9,1.9,0,0,0,1.875,1.006,1.677,1.677,0,0,0,1.77-1.357A9.745,9.745,0,0,0,219.451,18.514ZM229.318,25h-3.961V7h3.961Zm8.566.234a6.518,6.518,0,0,1-4.723-1.74,6.009,6.009,0,0,1-1.8-4.529v-.328a7.787,7.787,0,0,1,.721-3.434,5.274,5.274,0,0,1,2.1-2.3,6.35,6.35,0,0,1,3.281-.814,5.489,5.489,0,0,1,4.219,1.658,6.516,6.516,0,0,1,1.547,4.623V19.9h-7.852a2.846,2.846,0,0,0,.926,1.676,2.755,2.755,0,0,0,1.852.609,3.549,3.549,0,0,0,2.93-1.312l1.8,2.133a5.045,5.045,0,0,1-2.092,1.623A7.069,7.069,0,0,1,237.884,25.234Zm-.445-10.1q-1.734,0-2.062,2.3h3.984v-.3a1.956,1.956,0,0,0-.48-1.471A1.912,1.912,0,0,0,237.439,15.133Z" transform="translate(-108.05 -6349.226)" fill="#fff"/>
    <text id="Energía_neta" data-name="Energía neta" transform="translate(-67.05 -6193.226)" fill="#fff" font-size="24" font-family="Roboto-Black, Roboto" font-weight="800"><tspan x="13.849" y="25">Energía neta</tspan></text>
    <path id="Trazado_115830" data-name="Trazado 115830" d="M25.609,19.211V25H21.5V7.938H28.3a7.93,7.93,0,0,1,3.463.721A5.431,5.431,0,0,1,34.1,10.709a5.6,5.6,0,0,1,.826,3.018,4.937,4.937,0,0,1-1.787,3.99,7.415,7.415,0,0,1-4.9,1.494Zm0-3.176h2.7a2.542,2.542,0,0,0,1.822-.6,2.221,2.221,0,0,0,.627-1.687,2.745,2.745,0,0,0-.645-1.91,2.282,2.282,0,0,0-1.758-.727H25.609Zm19-.141L43.3,15.8a2.336,2.336,0,0,0-2.391,1.172V25H36.964V12.32h3.7l.129,1.629a3.058,3.058,0,0,1,2.777-1.863,3.851,3.851,0,0,1,1.1.141Zm.5,2.648a7.484,7.484,0,0,1,.738-3.381,5.28,5.28,0,0,1,2.121-2.279,6.388,6.388,0,0,1,3.246-.8A5.83,5.83,0,0,1,55.7,13.85a6.768,6.768,0,0,1,1.641,4.8v.141A6.566,6.566,0,0,1,55.7,23.494a5.846,5.846,0,0,1-4.459,1.74,5.912,5.912,0,0,1-4.348-1.623,6.348,6.348,0,0,1-1.77-4.4Zm3.949.246a4.718,4.718,0,0,0,.551,2.578,1.835,1.835,0,0,0,1.629.82q2.109,0,2.156-3.246v-.4q0-3.41-2.18-3.41-1.98,0-2.145,2.941Zm9.527-.223a7.746,7.746,0,0,1,1.3-4.746,4.282,4.282,0,0,1,3.633-1.734,3.641,3.641,0,0,1,2.859,1.336V7h3.961V25H66.789l-.2-1.359A3.739,3.739,0,0,1,63.5,25.234,4.274,4.274,0,0,1,59.91,23.5,7.991,7.991,0,0,1,58.585,18.566Zm3.949.246q0,3.375,1.969,3.375a1.944,1.944,0,0,0,1.875-1.1V16.258a1.892,1.892,0,0,0-1.852-1.125q-1.828,0-1.98,2.953Zm17.6,4.816a4.072,4.072,0,0,1-3.387,1.605,3.993,3.993,0,0,1-3.158-1.213,5.1,5.1,0,0,1-1.072-3.486V12.32h3.949v8.238a1.419,1.419,0,0,0,1.582,1.629,2.064,2.064,0,0,0,1.934-.973V12.32h3.973V25h-3.7ZM91.48,22.188a1.756,1.756,0,0,0,1.289-.451,1.654,1.654,0,0,0,.445-1.26h3.7A4.384,4.384,0,0,1,95.423,23.9a5.558,5.558,0,0,1-3.85,1.336A5.627,5.627,0,0,1,87.214,23.5a6.834,6.834,0,0,1-1.594-4.8v-.164a7.723,7.723,0,0,1,.709-3.393,5.162,5.162,0,0,1,2.045-2.262,6.1,6.1,0,0,1,3.164-.791,5.488,5.488,0,0,1,3.926,1.371,4.863,4.863,0,0,1,1.453,3.715h-3.7a2.168,2.168,0,0,0-.48-1.512,1.658,1.658,0,0,0-1.289-.527q-1.535,0-1.793,1.957A13.809,13.809,0,0,0,89.57,18.8a5.424,5.424,0,0,0,.457,2.648A1.582,1.582,0,0,0,91.48,22.188Zm12.469,0a1.756,1.756,0,0,0,1.289-.451,1.654,1.654,0,0,0,.445-1.26h3.7a4.384,4.384,0,0,1-1.494,3.422,5.558,5.558,0,0,1-3.85,1.336A5.627,5.627,0,0,1,99.683,23.5a6.834,6.834,0,0,1-1.594-4.8v-.164a7.723,7.723,0,0,1,.709-3.393,5.162,5.162,0,0,1,2.045-2.262,6.1,6.1,0,0,1,3.164-.791,5.488,5.488,0,0,1,3.926,1.371,4.863,4.863,0,0,1,1.453,3.715h-3.7a2.168,2.168,0,0,0-.48-1.512,1.658,1.658,0,0,0-1.289-.527q-1.535,0-1.793,1.957a13.809,13.809,0,0,0-.082,1.711,5.424,5.424,0,0,0,.457,2.648A1.582,1.582,0,0,0,103.949,22.188ZM115.222,25h-3.961V12.32h3.961Zm-4.2-15.949a1.763,1.763,0,0,1,.609-1.383,2.591,2.591,0,0,1,3.164,0,1.763,1.763,0,0,1,.609,1.383,1.763,1.763,0,0,1-.609,1.383,2.591,2.591,0,0,1-3.164,0A1.763,1.763,0,0,1,111.027,9.051Zm6.129,9.492a7.484,7.484,0,0,1,.738-3.381,5.28,5.28,0,0,1,2.121-2.279,6.388,6.388,0,0,1,3.246-.8,5.83,5.83,0,0,1,4.488,1.764,6.768,6.768,0,0,1,1.641,4.8v.141a6.566,6.566,0,0,1-1.646,4.705,5.846,5.846,0,0,1-4.459,1.74,5.912,5.912,0,0,1-4.348-1.623,6.348,6.348,0,0,1-1.77-4.4Zm3.949.246a4.718,4.718,0,0,0,.551,2.578,1.835,1.835,0,0,0,1.629.82q2.109,0,2.156-3.246v-.4q0-3.41-2.18-3.41-1.98,0-2.145,2.941ZM123.8,7h4.172l-3.258,3.68-3.223-.006Zm10.957,5.32.129,1.488a4.3,4.3,0,0,1,3.621-1.723,3.618,3.618,0,0,1,2.959,1.184,5.635,5.635,0,0,1,1.014,3.563V25h-3.961V17a2.14,2.14,0,0,0-.387-1.412,1.789,1.789,0,0,0-1.406-.451,1.883,1.883,0,0,0-1.723.914V25h-3.949V12.32Z" transform="translate(-334.177 -5989.226)" fill="#fff"/>
    <path id="Trazado_115831" data-name="Trazado 115831" d="M13.146,7.938l3.809,11.871,3.8-11.871h5.414V25H22.041V21.016l.4-8.156L18.314,25H15.6L11.458,12.848l.4,8.168V25H7.744V7.938ZM35.74,25a4.459,4.459,0,0,1-.375-1.137,3.672,3.672,0,0,1-3.047,1.371,4.5,4.5,0,0,1-3.047-1.084,3.45,3.45,0,0,1-1.254-2.725,3.546,3.546,0,0,1,1.523-3.117,7.761,7.761,0,0,1,4.43-1.055h1.219v-.671q0-1.755-1.512-1.755a1.236,1.236,0,0,0-1.406,1.39H28.322a3.54,3.54,0,0,1,1.564-2.985,6.575,6.575,0,0,1,3.99-1.147,5.764,5.764,0,0,1,3.832,1.184,4.115,4.115,0,0,1,1.441,3.246v5.613a5.748,5.748,0,0,0,.539,2.672V25Zm-2.473-2.578a2.2,2.2,0,0,0,1.225-.316,1.983,1.983,0,0,0,.7-.715V19.363H34.041q-2.062,0-2.062,1.852a1.131,1.131,0,0,0,.363.873A1.315,1.315,0,0,0,33.267,22.422Zm11.7-10.1.129,1.488a4.3,4.3,0,0,1,3.621-1.723,3.618,3.618,0,0,1,2.959,1.184,5.635,5.635,0,0,1,1.014,3.563V25H48.724V17a2.14,2.14,0,0,0-.387-1.412,1.789,1.789,0,0,0-1.406-.451,1.883,1.883,0,0,0-1.723.914V25H41.259V12.32ZM59.47,9.168V12.32h2.086v2.742H59.47v5.8a1.481,1.481,0,0,0,.258,1,1.383,1.383,0,0,0,1.02.281,5.793,5.793,0,0,0,.984-.07v2.824a7.288,7.288,0,0,1-2.227.34,4.137,4.137,0,0,1-3.012-.961,3.939,3.939,0,0,1-.973-2.918V15.063H53.9V12.32h1.617V9.168Zm9.773,16.066a6.518,6.518,0,0,1-4.723-1.74,6.009,6.009,0,0,1-1.8-4.529v-.328a7.787,7.787,0,0,1,.721-3.434,5.274,5.274,0,0,1,2.1-2.3,6.35,6.35,0,0,1,3.281-.814,5.489,5.489,0,0,1,4.219,1.658,6.516,6.516,0,0,1,1.547,4.623V19.9H66.736a2.846,2.846,0,0,0,.926,1.676,2.755,2.755,0,0,0,1.852.609,3.549,3.549,0,0,0,2.93-1.312l1.8,2.133a5.045,5.045,0,0,1-2.092,1.623A7.069,7.069,0,0,1,69.244,25.234Zm-.445-10.1q-1.734,0-2.062,2.3H70.72v-.3a1.956,1.956,0,0,0-.48-1.471A1.912,1.912,0,0,0,68.8,15.133Zm11-2.812.129,1.488a4.3,4.3,0,0,1,3.621-1.723,3.618,3.618,0,0,1,2.959,1.184,5.635,5.635,0,0,1,1.014,3.563V25H83.564V17a2.14,2.14,0,0,0-.387-1.412,1.789,1.789,0,0,0-1.406-.451,1.883,1.883,0,0,0-1.723.914V25H76.1V12.32ZM93.876,25H89.916V12.32h3.961Zm-4.2-15.949a1.763,1.763,0,0,1,.609-1.383,2.591,2.591,0,0,1,3.164,0,1.763,1.763,0,0,1,.609,1.383,1.763,1.763,0,0,1-.609,1.383,2.591,2.591,0,0,1-3.164,0A1.763,1.763,0,0,1,89.681,9.051Zm10.359,3.27.129,1.488a4.36,4.36,0,0,1,3.621-1.723A3.21,3.21,0,0,1,107.037,14a4.22,4.22,0,0,1,3.727-1.91q3.855,0,3.961,4.664V25h-3.961V17a2.417,2.417,0,0,0-.328-1.418,1.4,1.4,0,0,0-1.2-.445,1.871,1.871,0,0,0-1.746,1.043l.012.164V25h-3.961V17.02a2.541,2.541,0,0,0-.316-1.441,1.393,1.393,0,0,0-1.207-.445,1.894,1.894,0,0,0-1.734,1.043V25H96.337V12.32ZM121.146,25h-3.961V12.32h3.961Zm-4.2-15.949a1.763,1.763,0,0,1,.609-1.383,2.591,2.591,0,0,1,3.164,0,1.763,1.763,0,0,1,.609,1.383,1.763,1.763,0,0,1-.609,1.383,2.591,2.591,0,0,1-3.164,0A1.763,1.763,0,0,1,116.951,9.051Zm12.762,16.184a6.518,6.518,0,0,1-4.723-1.74,6.009,6.009,0,0,1-1.8-4.529v-.328a7.787,7.787,0,0,1,.721-3.434,5.274,5.274,0,0,1,2.1-2.3,6.35,6.35,0,0,1,3.281-.814,5.489,5.489,0,0,1,4.219,1.658,6.516,6.516,0,0,1,1.547,4.623V19.9H127.2a2.846,2.846,0,0,0,.926,1.676,2.755,2.755,0,0,0,1.852.609,3.549,3.549,0,0,0,2.93-1.312l1.8,2.133a5.045,5.045,0,0,1-2.092,1.623A7.069,7.069,0,0,1,129.712,25.234Zm-.445-10.1q-1.734,0-2.062,2.3h3.984v-.3a1.956,1.956,0,0,0-.48-1.471A1.912,1.912,0,0,0,129.267,15.133Zm11-2.812.129,1.488a4.3,4.3,0,0,1,3.621-1.723,3.618,3.618,0,0,1,2.959,1.184,5.635,5.635,0,0,1,1.014,3.563V25h-3.961V17a2.14,2.14,0,0,0-.387-1.412,1.789,1.789,0,0,0-1.406-.451,1.883,1.883,0,0,0-1.723.914V25h-3.949V12.32Zm14.508-3.152V12.32h2.086v2.742h-2.086v5.8a1.481,1.481,0,0,0,.258,1,1.383,1.383,0,0,0,1.02.281,5.793,5.793,0,0,0,.984-.07v2.824a7.288,7.288,0,0,1-2.227.34,4.137,4.137,0,0,1-3.012-.961,3.939,3.939,0,0,1-.973-2.918V15.063h-1.617V12.32h1.617V9.168Z" transform="translate(170.823 -5989.226)" fill="#fff"/>
    <path id="Trazado_115824" data-name="Trazado 115824" d="M32.981,17H31.473L25.746,8.234V17H24.239V5.625h1.508l5.742,8.8v-8.8h1.492Zm2.055-4.3a4.993,4.993,0,0,1,.488-2.234A3.643,3.643,0,0,1,36.883,8.93a3.7,3.7,0,0,1,1.988-.539,3.565,3.565,0,0,1,2.793,1.2,4.6,4.6,0,0,1,1.066,3.18v.1a5.036,5.036,0,0,1-.473,2.215,3.589,3.589,0,0,1-1.352,1.527,3.743,3.743,0,0,1-2.02.547,3.556,3.556,0,0,1-2.785-1.2A4.575,4.575,0,0,1,35.036,12.8Zm1.453.172a3.616,3.616,0,0,0,.652,2.258,2.211,2.211,0,0,0,3.5-.012,3.955,3.955,0,0,0,.648-2.418,3.61,3.61,0,0,0-.66-2.254,2.1,2.1,0,0,0-1.754-.863,2.075,2.075,0,0,0-1.727.852A3.925,3.925,0,0,0,36.489,12.867Zm15.523,4.289a3.693,3.693,0,0,1-2.8-1.129,4.19,4.19,0,0,1-1.078-3.02v-.266a5.073,5.073,0,0,1,.48-2.246,3.748,3.748,0,0,1,1.344-1.547,3.378,3.378,0,0,1,1.871-.559,3.166,3.166,0,0,1,2.563,1.086,4.7,4.7,0,0,1,.914,3.109v.6H49.582a3,3,0,0,0,.73,2.02,2.3,2.3,0,0,0,1.777.77,2.517,2.517,0,0,0,1.3-.312,3.259,3.259,0,0,0,.93-.828l.883.688A3.55,3.55,0,0,1,52.012,17.156Zm-.18-7.578a1.928,1.928,0,0,0-1.469.637A3.1,3.1,0,0,0,49.629,12h4.234v-.109a2.753,2.753,0,0,0-.594-1.707A1.815,1.815,0,0,0,51.832,9.578Zm10.07,5.18a1.064,1.064,0,0,0-.441-.91,4.249,4.249,0,0,0-1.539-.559,7.277,7.277,0,0,1-1.742-.562,2.479,2.479,0,0,1-.953-.781,1.869,1.869,0,0,1-.309-1.078A2.193,2.193,0,0,1,57.8,9.109a3.432,3.432,0,0,1,2.246-.719,3.532,3.532,0,0,1,2.332.742,2.357,2.357,0,0,1,.895,1.9H61.817a1.3,1.3,0,0,0-.5-1.023,1.888,1.888,0,0,0-1.27-.43,1.976,1.976,0,0,0-1.234.344,1.082,1.082,0,0,0-.445.9.877.877,0,0,0,.414.789,5.1,5.1,0,0,0,1.5.508,7.8,7.8,0,0,1,1.754.578,2.558,2.558,0,0,1,1,.809,1.988,1.988,0,0,1,.324,1.152,2.163,2.163,0,0,1-.906,1.816,3.8,3.8,0,0,1-2.352.684,4.257,4.257,0,0,1-1.8-.359,2.922,2.922,0,0,1-1.223-1,2.42,2.42,0,0,1-.441-1.395h1.445a1.5,1.5,0,0,0,.582,1.152,2.258,2.258,0,0,0,1.434.426,2.331,2.331,0,0,0,1.316-.332A1.02,1.02,0,0,0,61.9,14.758ZM68.84,12.7a4.952,4.952,0,0,1,.922-3.129,3.137,3.137,0,0,1,4.766-.168V5h1.445V17H74.645l-.07-.906a2.943,2.943,0,0,1-2.414,1.063,2.887,2.887,0,0,1-2.395-1.2,5.008,5.008,0,0,1-.926-3.141Zm1.445.164a3.749,3.749,0,0,0,.594,2.25,1.92,1.92,0,0,0,1.641.813A2.108,2.108,0,0,0,74.528,14.7V10.813a2.125,2.125,0,0,0-1.992-1.2,1.929,1.929,0,0,0-1.656.82A4.128,4.128,0,0,0,70.286,12.867ZM79.786,17H78.34V8.547h1.445ZM78.223,6.3a.863.863,0,0,1,.215-.594.807.807,0,0,1,.637-.242.819.819,0,0,1,.641.242.854.854,0,0,1,.219.594.826.826,0,0,1-.219.586.834.834,0,0,1-.641.234.821.821,0,0,1-.637-.234A.834.834,0,0,1,78.223,6.3Zm3.531,6.4a4.968,4.968,0,0,1,.914-3.145A3.151,3.151,0,0,1,87.5,9.484l.07-.937h1.32V16.8a3.439,3.439,0,0,1-.973,2.586,3.589,3.589,0,0,1-2.613.945,4.348,4.348,0,0,1-1.789-.391,3.08,3.08,0,0,1-1.336-1.07l.75-.867a2.826,2.826,0,0,0,2.273,1.148,2.214,2.214,0,0,0,1.645-.594,2.269,2.269,0,0,0,.59-1.672v-.727a2.971,2.971,0,0,1-2.367,1,2.887,2.887,0,0,1-2.4-1.2A5.224,5.224,0,0,1,81.754,12.7Zm1.453.164a3.79,3.79,0,0,0,.586,2.246,1.9,1.9,0,0,0,1.641.816,2.117,2.117,0,0,0,2.008-1.242V10.828A2.142,2.142,0,0,0,85.45,9.617a1.921,1.921,0,0,0-1.648.82A4.128,4.128,0,0,0,83.207,12.867Zm11.375,4.289a3.693,3.693,0,0,1-2.8-1.129,4.19,4.19,0,0,1-1.078-3.02v-.266a5.073,5.073,0,0,1,.48-2.246,3.748,3.748,0,0,1,1.344-1.547A3.378,3.378,0,0,1,94.4,8.391a3.166,3.166,0,0,1,2.563,1.086,4.7,4.7,0,0,1,.914,3.109v.6H92.153a3,3,0,0,0,.73,2.02,2.3,2.3,0,0,0,1.777.77,2.517,2.517,0,0,0,1.3-.312,3.259,3.259,0,0,0,.93-.828l.883.688A3.55,3.55,0,0,1,94.582,17.156ZM94.4,9.578a1.928,1.928,0,0,0-1.469.637A3.1,3.1,0,0,0,92.2,12h4.234v-.109a2.753,2.753,0,0,0-.594-1.707A1.815,1.815,0,0,0,94.4,9.578Zm9.234.266a4.331,4.331,0,0,0-.711-.055A1.9,1.9,0,0,0,101,11v6H99.551V8.547h1.406l.023.977A2.251,2.251,0,0,1,103,8.391a1.477,1.477,0,0,1,.641.109Zm2.9,7.156H105.09V8.547h1.445ZM104.973,6.3a.863.863,0,0,1,.215-.594.807.807,0,0,1,.637-.242.819.819,0,0,1,.641.242.854.854,0,0,1,.219.594.826.826,0,0,1-.219.586.834.834,0,0,1-.641.234.821.821,0,0,1-.637-.234A.834.834,0,0,1,104.973,6.3ZM116,12.867a5.026,5.026,0,0,1-.891,3.113,2.846,2.846,0,0,1-2.391,1.176,2.947,2.947,0,0,1-2.477-1.133l-.07.977h-1.328V5h1.445V9.477a2.93,2.93,0,0,1,2.414-1.086,2.863,2.863,0,0,1,2.418,1.164A5.177,5.177,0,0,1,116,12.742Zm-1.445-.164a3.906,3.906,0,0,0-.57-2.281,1.888,1.888,0,0,0-1.641-.8,2.122,2.122,0,0,0-2.055,1.328V14.6a2.181,2.181,0,0,0,2.07,1.328,1.878,1.878,0,0,0,1.617-.8A4.153,4.153,0,0,0,114.559,12.7Zm4.836,4.3H117.95V5h1.445Zm5.82.156a3.693,3.693,0,0,1-2.8-1.129,4.19,4.19,0,0,1-1.078-3.02v-.266a5.073,5.073,0,0,1,.48-2.246,3.748,3.748,0,0,1,1.344-1.547,3.378,3.378,0,0,1,1.871-.559A3.166,3.166,0,0,1,127.6,9.477a4.7,4.7,0,0,1,.914,3.109v.6h-5.727a3,3,0,0,0,.73,2.02,2.3,2.3,0,0,0,1.777.77,2.517,2.517,0,0,0,1.3-.312,3.259,3.259,0,0,0,.93-.828l.883.688A3.55,3.55,0,0,1,125.215,17.156Zm-.18-7.578a1.928,1.928,0,0,0-1.469.637A3.1,3.1,0,0,0,122.832,12h4.234v-.109a2.753,2.753,0,0,0-.594-1.707A1.815,1.815,0,0,0,125.036,9.578Z" transform="translate(13.963 -6665.533)" fill="#12263f"/>
    <path id="Trazado_115826" data-name="Trazado 115826" d="M21.141,12.383a12.079,12.079,0,0,1,.473-3.391,9.85,9.85,0,0,1,1.41-2.953,6,6,0,0,1,1.945-1.875l.3.953a6.222,6.222,0,0,0-1.871,2.672,11.583,11.583,0,0,0-.8,4.023l-.008.664a11.643,11.643,0,0,0,1.1,5.234,6.252,6.252,0,0,0,1.578,2.078l-.3.883a6.192,6.192,0,0,1-1.984-1.937A10.859,10.859,0,0,1,21.141,12.383Zm8.531.375H25.86v-1.18h3.813Zm4.742-.3a12.084,12.084,0,0,1-.457,3.34,9.876,9.876,0,0,1-1.4,2.949,6.127,6.127,0,0,1-1.973,1.922l-.3-.883a6.281,6.281,0,0,0,1.934-2.863,12.387,12.387,0,0,0,.746-4.309v-.25a12.861,12.861,0,0,0-.344-3.051,10.3,10.3,0,0,0-.957-2.527,5.838,5.838,0,0,0-1.379-1.742l.3-.883A6.1,6.1,0,0,1,32.551,6.07a9.9,9.9,0,0,1,1.4,2.945A12.363,12.363,0,0,1,34.414,12.461Zm12.844-.719h-4.93v4.031h5.727V17H40.828V5.625h7.148V6.852H42.328v3.664h4.93Zm3.8-3.2.047,1.063a3.08,3.08,0,0,1,2.531-1.219q2.68,0,2.7,3.023V17H54.9V11.406a1.946,1.946,0,0,0-.418-1.352A1.675,1.675,0,0,0,53.2,9.617a2.086,2.086,0,0,0-1.234.375,2.546,2.546,0,0,0-.828.984V17H49.7V8.547Zm10.969,8.609a3.693,3.693,0,0,1-2.8-1.129,4.19,4.19,0,0,1-1.078-3.02v-.266a5.073,5.073,0,0,1,.48-2.246,3.748,3.748,0,0,1,1.344-1.547,3.378,3.378,0,0,1,1.871-.559,3.166,3.166,0,0,1,2.563,1.086,4.7,4.7,0,0,1,.914,3.109v.6H59.6a3,3,0,0,0,.73,2.02,2.3,2.3,0,0,0,1.777.77,2.517,2.517,0,0,0,1.3-.312,3.259,3.259,0,0,0,.93-.828l.883.688A3.55,3.55,0,0,1,62.032,17.156Zm-.18-7.578a1.928,1.928,0,0,0-1.469.637A3.1,3.1,0,0,0,59.649,12h4.234v-.109a2.753,2.753,0,0,0-.594-1.707A1.815,1.815,0,0,0,61.852,9.578Zm9.234.266a4.331,4.331,0,0,0-.711-.055A1.9,1.9,0,0,0,68.446,11v6H67V8.547h1.406l.023.977a2.251,2.251,0,0,1,2.016-1.133,1.477,1.477,0,0,1,.641.109Zm.984,2.859a4.968,4.968,0,0,1,.914-3.145,3.151,3.151,0,0,1,4.836-.074l.07-.937h1.32V16.8a3.439,3.439,0,0,1-.973,2.586,3.589,3.589,0,0,1-2.613.945,4.348,4.348,0,0,1-1.789-.391,3.08,3.08,0,0,1-1.336-1.07L73.25,18a2.826,2.826,0,0,0,2.273,1.148,2.214,2.214,0,0,0,1.645-.594,2.269,2.269,0,0,0,.59-1.672v-.727a2.971,2.971,0,0,1-2.367,1,2.887,2.887,0,0,1-2.4-1.2A5.224,5.224,0,0,1,72.071,12.7Zm1.453.164a3.79,3.79,0,0,0,.586,2.246,1.9,1.9,0,0,0,1.641.816,2.117,2.117,0,0,0,2.008-1.242V10.828a2.142,2.142,0,0,0-1.992-1.211,1.921,1.921,0,0,0-1.648.82A4.128,4.128,0,0,0,73.524,12.867ZM82.961,17H81.508V8.547h1.453Zm.016-11.992h1.75L82.633,7.3l-1.164,0ZM90.563,17a3.036,3.036,0,0,1-.2-.891,3.225,3.225,0,0,1-2.406,1.047,2.984,2.984,0,0,1-2.051-.707,2.288,2.288,0,0,1-.8-1.793,2.39,2.39,0,0,1,1-2.051,4.733,4.733,0,0,1,2.824-.73h1.406v-.664A1.623,1.623,0,0,0,89.883,10a1.821,1.821,0,0,0-1.336-.449,2.108,2.108,0,0,0-1.3.391,1.151,1.151,0,0,0-.523.945H85.274a2,2,0,0,1,.449-1.223,3.066,3.066,0,0,1,1.219-.934,4.1,4.1,0,0,1,1.691-.344,3.342,3.342,0,0,1,2.289.73,2.635,2.635,0,0,1,.859,2.012v3.891a4.757,4.757,0,0,0,.3,1.852V17Zm-2.4-1.1a2.54,2.54,0,0,0,1.289-.352,2.127,2.127,0,0,0,.883-.914V12.9H89.2q-2.656,0-2.656,1.555A1.316,1.316,0,0,0,87,15.516,1.742,1.742,0,0,0,88.164,15.9ZM98.719,17V9.664H97.383V8.547h1.336V7.68a2.878,2.878,0,0,1,.727-2.1,2.745,2.745,0,0,1,2.055-.742,3.816,3.816,0,0,1,.992.132l-.078,1.165a4.151,4.151,0,0,0-.781-.07,1.41,1.41,0,0,0-1.086.411,1.669,1.669,0,0,0-.383,1.18v.893h1.8V9.664h-1.8V17Zm8.352.156a3.693,3.693,0,0,1-2.8-1.129,4.19,4.19,0,0,1-1.078-3.02v-.266a5.073,5.073,0,0,1,.48-2.246,3.748,3.748,0,0,1,1.344-1.547,3.378,3.378,0,0,1,1.871-.559,3.166,3.166,0,0,1,2.563,1.086,4.7,4.7,0,0,1,.914,3.109v.6h-5.727a3,3,0,0,0,.73,2.02,2.3,2.3,0,0,0,1.777.77,2.517,2.517,0,0,0,1.3-.312,3.259,3.259,0,0,0,.93-.828l.883.688A3.55,3.55,0,0,1,107.071,17.156Zm-.18-7.578a1.928,1.928,0,0,0-1.469.637A3.1,3.1,0,0,0,104.688,12h4.234v-.109a2.753,2.753,0,0,0-.594-1.707A1.815,1.815,0,0,0,106.891,9.578Zm8.539,6.4a2.082,2.082,0,0,0,1.352-.469,1.649,1.649,0,0,0,.641-1.172h1.367a2.621,2.621,0,0,1-.5,1.383,3.293,3.293,0,0,1-1.23,1.047,3.55,3.55,0,0,1-1.629.391A3.482,3.482,0,0,1,112.684,16a4.59,4.59,0,0,1-1.02-3.152v-.242a5.089,5.089,0,0,1,.453-2.2,3.451,3.451,0,0,1,1.3-1.492,3.7,3.7,0,0,1,2-.531,3.39,3.39,0,0,1,2.363.852,3.043,3.043,0,0,1,1,2.211h-1.367a1.992,1.992,0,0,0-.621-1.348,1.932,1.932,0,0,0-1.379-.527,2.023,2.023,0,0,0-1.707.793,3.724,3.724,0,0,0-.605,2.293v.273a3.65,3.65,0,0,0,.6,2.25A2.033,2.033,0,0,0,115.43,15.977ZM125.633,17a3.036,3.036,0,0,1-.2-.891,3.225,3.225,0,0,1-2.406,1.047,2.984,2.984,0,0,1-2.051-.707,2.288,2.288,0,0,1-.8-1.793,2.39,2.39,0,0,1,1-2.051,4.733,4.733,0,0,1,2.824-.73h1.406v-.664A1.623,1.623,0,0,0,124.953,10a1.821,1.821,0,0,0-1.336-.449,2.108,2.108,0,0,0-1.3.391,1.151,1.151,0,0,0-.523.945h-1.453a2,2,0,0,1,.449-1.223,3.066,3.066,0,0,1,1.219-.934,4.1,4.1,0,0,1,1.691-.344,3.342,3.342,0,0,1,2.289.73,2.635,2.635,0,0,1,.859,2.012v3.891a4.757,4.757,0,0,0,.3,1.852V17Zm-2.4-1.1a2.54,2.54,0,0,0,1.289-.352,2.127,2.127,0,0,0,.883-.914V12.9h-1.133q-2.656,0-2.656,1.555a1.316,1.316,0,0,0,.453,1.063A1.742,1.742,0,0,0,123.235,15.9Zm7.453,1.1h-1.445V5h1.445Z" transform="translate(-241.306 -6508.44)" fill="#12263f"/>
    <path id="Trazado_115828" data-name="Trazado 115828" d="M12.722,12.383a12.079,12.079,0,0,1,.473-3.391A9.85,9.85,0,0,1,14.6,6.039,6,6,0,0,1,16.55,4.164l.3.953a6.222,6.222,0,0,0-1.871,2.672,11.583,11.583,0,0,0-.8,4.023l-.008.664a11.643,11.643,0,0,0,1.1,5.234,6.252,6.252,0,0,0,1.578,2.078l-.3.883a6.192,6.192,0,0,1-1.984-1.937A10.859,10.859,0,0,1,12.722,12.383Zm8.531.375H17.441v-1.18h3.813Zm4.742-.3a12.084,12.084,0,0,1-.457,3.34,9.876,9.876,0,0,1-1.4,2.949,6.127,6.127,0,0,1-1.973,1.922l-.3-.883A6.281,6.281,0,0,0,23.8,16.926a12.387,12.387,0,0,0,.746-4.309v-.25A12.861,12.861,0,0,0,24.2,9.316a10.3,10.3,0,0,0-.957-2.527,5.838,5.838,0,0,0-1.379-1.742l.3-.883A6.1,6.1,0,0,1,24.132,6.07a9.9,9.9,0,0,1,1.4,2.945A12.363,12.363,0,0,1,26,12.461Zm15.164-.781A7.037,7.037,0,0,1,40.6,14.6,4.261,4.261,0,0,1,39,16.5a4.4,4.4,0,0,1-6.4-1.887,6.752,6.752,0,0,1-.59-2.832v-.82a6.953,6.953,0,0,1,.57-2.9,4.218,4.218,0,0,1,4-2.594,4.41,4.41,0,0,1,2.41.66A4.253,4.253,0,0,1,40.6,8.043a7.071,7.071,0,0,1,.563,2.918Zm-1.492-.734a5.1,5.1,0,0,0-.812-3.105,2.68,2.68,0,0,0-2.273-1.082A2.651,2.651,0,0,0,34.343,7.84a5,5,0,0,0-.84,3v.836a5.107,5.107,0,0,0,.824,3.082,2.888,2.888,0,0,0,4.52.063,5.079,5.079,0,0,0,.82-3.035Zm7.6-1.1a4.331,4.331,0,0,0-.711-.055A1.9,1.9,0,0,0,44.628,11v6H43.183V8.547h1.406l.023.977a2.251,2.251,0,0,1,2.016-1.133,1.477,1.477,0,0,1,.641.109ZM50.167,17H48.722V8.547h1.445ZM48.6,6.3a.863.863,0,0,1,.215-.594.807.807,0,0,1,.637-.242.819.819,0,0,1,.641.242.854.854,0,0,1,.219.594.826.826,0,0,1-.219.586.834.834,0,0,1-.641.234.821.821,0,0,1-.637-.234A.834.834,0,0,1,48.6,6.3Zm5.242,2.242.047,1.063a3.08,3.08,0,0,1,2.531-1.219q2.68,0,2.7,3.023V17H57.683V11.406a1.946,1.946,0,0,0-.418-1.352,1.675,1.675,0,0,0-1.277-.437,2.086,2.086,0,0,0-1.234.375,2.546,2.546,0,0,0-.828.984V17H52.48V8.547ZM66.527,17a3.036,3.036,0,0,1-.2-.891,3.225,3.225,0,0,1-2.406,1.047,2.984,2.984,0,0,1-2.051-.707,2.287,2.287,0,0,1-.8-1.793,2.39,2.39,0,0,1,1-2.051,4.733,4.733,0,0,1,2.824-.73H66.3v-.664A1.623,1.623,0,0,0,65.847,10a1.821,1.821,0,0,0-1.336-.449,2.107,2.107,0,0,0-1.3.391,1.151,1.151,0,0,0-.523.945H61.238a2,2,0,0,1,.449-1.223,3.066,3.066,0,0,1,1.219-.934A4.1,4.1,0,0,1,64.6,8.391a3.342,3.342,0,0,1,2.289.73,2.635,2.635,0,0,1,.859,2.012v3.891a4.757,4.757,0,0,0,.3,1.852V17Zm-2.4-1.1a2.54,2.54,0,0,0,1.289-.352,2.127,2.127,0,0,0,.883-.914V12.9H65.167q-2.656,0-2.656,1.555a1.316,1.316,0,0,0,.453,1.063A1.742,1.742,0,0,0,64.128,15.9Zm12.609-1.016,1.969-6.336h1.547l-3.4,9.758q-.789,2.109-2.508,2.109l-.273-.023-.539-.1V19.117l.391.031a1.923,1.923,0,0,0,1.145-.3,2.149,2.149,0,0,0,.676-1.086l.32-.859L73.05,8.547h1.578Zm8.422-2.18a4.968,4.968,0,0,1,.914-3.145,3.151,3.151,0,0,1,4.836-.074l.07-.937H92.3V16.8a3.439,3.439,0,0,1-.973,2.586,3.589,3.589,0,0,1-2.613.945,4.348,4.348,0,0,1-1.789-.391,3.08,3.08,0,0,1-1.336-1.07l.75-.867a2.826,2.826,0,0,0,2.273,1.148,2.214,2.214,0,0,0,1.645-.594,2.269,2.269,0,0,0,.59-1.672v-.727a2.971,2.971,0,0,1-2.367,1,2.887,2.887,0,0,1-2.4-1.2A5.224,5.224,0,0,1,85.159,12.7Zm1.453.164a3.79,3.79,0,0,0,.586,2.246,1.9,1.9,0,0,0,1.641.816,2.117,2.117,0,0,0,2.008-1.242V10.828a2.142,2.142,0,0,0-1.992-1.211,1.921,1.921,0,0,0-1.648.82A4.128,4.128,0,0,0,86.613,12.867ZM99.7,17a3.036,3.036,0,0,1-.2-.891,3.225,3.225,0,0,1-2.406,1.047,2.984,2.984,0,0,1-2.051-.707,2.288,2.288,0,0,1-.8-1.793,2.39,2.39,0,0,1,1-2.051,4.733,4.733,0,0,1,2.824-.73h1.406v-.664A1.623,1.623,0,0,0,99.019,10a1.821,1.821,0,0,0-1.336-.449,2.108,2.108,0,0,0-1.3.391,1.151,1.151,0,0,0-.523.945H94.409a2,2,0,0,1,.449-1.223,3.066,3.066,0,0,1,1.219-.934,4.1,4.1,0,0,1,1.691-.344,3.342,3.342,0,0,1,2.289.73,2.635,2.635,0,0,1,.859,2.012v3.891a4.757,4.757,0,0,0,.3,1.852V17Zm-2.4-1.1a2.54,2.54,0,0,0,1.289-.352,2.127,2.127,0,0,0,.883-.914V12.9H98.339q-2.656,0-2.656,1.555a1.316,1.316,0,0,0,.453,1.063A1.742,1.742,0,0,0,97.3,15.9Zm10.8-1.141a1.064,1.064,0,0,0-.441-.91,4.249,4.249,0,0,0-1.539-.559,7.277,7.277,0,0,1-1.742-.562,2.479,2.479,0,0,1-.953-.781,1.869,1.869,0,0,1-.309-1.078A2.193,2.193,0,0,1,104,9.109a3.432,3.432,0,0,1,2.246-.719,3.532,3.532,0,0,1,2.332.742,2.357,2.357,0,0,1,.895,1.9h-1.453a1.3,1.3,0,0,0-.5-1.023,1.888,1.888,0,0,0-1.27-.43,1.976,1.976,0,0,0-1.234.344,1.082,1.082,0,0,0-.445.9.877.877,0,0,0,.414.789,5.1,5.1,0,0,0,1.5.508,7.8,7.8,0,0,1,1.754.578,2.558,2.558,0,0,1,1,.809,1.988,1.988,0,0,1,.324,1.152,2.163,2.163,0,0,1-.906,1.816,3.8,3.8,0,0,1-2.352.684,4.257,4.257,0,0,1-1.8-.359,2.922,2.922,0,0,1-1.223-1,2.42,2.42,0,0,1-.441-1.395h1.445a1.5,1.5,0,0,0,.582,1.152,2.258,2.258,0,0,0,1.434.426,2.331,2.331,0,0,0,1.316-.332A1.02,1.02,0,0,0,108.1,14.758Zm6.836,2.4a3.693,3.693,0,0,1-2.8-1.129,4.19,4.19,0,0,1-1.078-3.02v-.266a5.073,5.073,0,0,1,.48-2.246,3.748,3.748,0,0,1,1.344-1.547,3.378,3.378,0,0,1,1.871-.559,3.166,3.166,0,0,1,2.563,1.086,4.7,4.7,0,0,1,.914,3.109v.6h-5.727a3,3,0,0,0,.73,2.02,2.3,2.3,0,0,0,1.777.77,2.517,2.517,0,0,0,1.3-.312,3.259,3.259,0,0,0,.93-.828l.883.688A3.55,3.55,0,0,1,114.941,17.156Zm-.18-7.578a1.928,1.928,0,0,0-1.469.637A3.1,3.1,0,0,0,112.558,12h4.234v-.109a2.753,2.753,0,0,0-.594-1.707A1.815,1.815,0,0,0,114.761,9.578Zm10.07,5.18a1.064,1.064,0,0,0-.441-.91,4.249,4.249,0,0,0-1.539-.559,7.277,7.277,0,0,1-1.742-.562,2.479,2.479,0,0,1-.953-.781,1.869,1.869,0,0,1-.309-1.078,2.193,2.193,0,0,1,.879-1.758,3.432,3.432,0,0,1,2.246-.719,3.532,3.532,0,0,1,2.332.742,2.357,2.357,0,0,1,.895,1.9h-1.453a1.3,1.3,0,0,0-.5-1.023,1.888,1.888,0,0,0-1.27-.43,1.976,1.976,0,0,0-1.234.344,1.082,1.082,0,0,0-.445.9.877.877,0,0,0,.414.789,5.1,5.1,0,0,0,1.5.508,7.8,7.8,0,0,1,1.754.578,2.558,2.558,0,0,1,1,.809,1.988,1.988,0,0,1,.324,1.152,2.163,2.163,0,0,1-.906,1.816,3.8,3.8,0,0,1-2.352.684,4.257,4.257,0,0,1-1.8-.359,2.922,2.922,0,0,1-1.223-1,2.42,2.42,0,0,1-.441-1.395H121a1.5,1.5,0,0,0,.582,1.152,2.258,2.258,0,0,0,1.434.426,2.331,2.331,0,0,0,1.316-.332A1.02,1.02,0,0,0,124.831,14.758Zm6.938-2.055a4.952,4.952,0,0,1,.922-3.129,3.137,3.137,0,0,1,4.766-.168V5H138.9V17h-1.328l-.07-.906a2.943,2.943,0,0,1-2.414,1.063,2.887,2.887,0,0,1-2.395-1.2,5.008,5.008,0,0,1-.926-3.141Zm1.445.164a3.749,3.749,0,0,0,.594,2.25,1.919,1.919,0,0,0,1.641.813,2.108,2.108,0,0,0,2.008-1.234V10.813a2.125,2.125,0,0,0-1.992-1.2,1.929,1.929,0,0,0-1.656.82A4.128,4.128,0,0,0,133.214,12.867Zm11.438,4.289a3.693,3.693,0,0,1-2.8-1.129,4.19,4.19,0,0,1-1.078-3.02v-.266a5.073,5.073,0,0,1,.48-2.246A3.748,3.748,0,0,1,142.6,8.949a3.378,3.378,0,0,1,1.871-.559,3.166,3.166,0,0,1,2.563,1.086,4.7,4.7,0,0,1,.914,3.109v.6h-5.727a3,3,0,0,0,.73,2.02,2.3,2.3,0,0,0,1.777.77,2.517,2.517,0,0,0,1.3-.312,3.258,3.258,0,0,0,.93-.828l.883.688A3.55,3.55,0,0,1,144.652,17.156Zm-.18-7.578a1.928,1.928,0,0,0-1.469.637A3.1,3.1,0,0,0,142.269,12H146.5v-.109a2.753,2.753,0,0,0-.594-1.707A1.815,1.815,0,0,0,144.472,9.578ZM155.152,17h-1.445V5h1.445Zm7.531,0a3.036,3.036,0,0,1-.2-.891,3.225,3.225,0,0,1-2.406,1.047,2.984,2.984,0,0,1-2.051-.707,2.287,2.287,0,0,1-.8-1.793,2.39,2.39,0,0,1,1-2.051,4.733,4.733,0,0,1,2.824-.73h1.406v-.664A1.623,1.623,0,0,0,162,10a1.821,1.821,0,0,0-1.336-.449,2.107,2.107,0,0,0-1.3.391,1.151,1.151,0,0,0-.523.945h-1.453a2,2,0,0,1,.449-1.223,3.066,3.066,0,0,1,1.219-.934,4.1,4.1,0,0,1,1.691-.344,3.342,3.342,0,0,1,2.289.73,2.635,2.635,0,0,1,.859,2.012v3.891a4.757,4.757,0,0,0,.3,1.852V17Zm-2.4-1.1a2.54,2.54,0,0,0,1.289-.352,2.127,2.127,0,0,0,.883-.914V12.9h-1.133q-2.656,0-2.656,1.555a1.316,1.316,0,0,0,.453,1.063A1.742,1.742,0,0,0,160.284,15.9Zm9.492-3.2a4.952,4.952,0,0,1,.922-3.129,3.137,3.137,0,0,1,4.766-.168V5h1.445V17h-1.328l-.07-.906a2.943,2.943,0,0,1-2.414,1.063,2.887,2.887,0,0,1-2.395-1.2,5.008,5.008,0,0,1-.926-3.141Zm1.445.164a3.749,3.749,0,0,0,.594,2.25,1.919,1.919,0,0,0,1.641.813,2.108,2.108,0,0,0,2.008-1.234V10.813a2.125,2.125,0,0,0-1.992-1.2,1.929,1.929,0,0,0-1.656.82A4.128,4.128,0,0,0,171.222,12.867Zm9.5,4.133h-1.445V8.547h1.445ZM179.159,6.3a.863.863,0,0,1,.215-.594.807.807,0,0,1,.637-.242.819.819,0,0,1,.641.242.854.854,0,0,1,.219.594.826.826,0,0,1-.219.586.834.834,0,0,1-.641.234.821.821,0,0,1-.637-.234A.834.834,0,0,1,179.159,6.3Zm3.531,6.4a4.968,4.968,0,0,1,.914-3.145,3.151,3.151,0,0,1,4.836-.074l.07-.937h1.32V16.8a3.439,3.439,0,0,1-.973,2.586,3.589,3.589,0,0,1-2.613.945,4.348,4.348,0,0,1-1.789-.391,3.08,3.08,0,0,1-1.336-1.07l.75-.867a2.826,2.826,0,0,0,2.273,1.148,2.214,2.214,0,0,0,1.645-.594,2.269,2.269,0,0,0,.59-1.672v-.727a2.971,2.971,0,0,1-2.367,1,2.887,2.887,0,0,1-2.4-1.2A5.224,5.224,0,0,1,182.691,12.7Zm1.453.164a3.79,3.79,0,0,0,.586,2.246,1.9,1.9,0,0,0,1.641.816,2.117,2.117,0,0,0,2.008-1.242V10.828a2.142,2.142,0,0,0-1.992-1.211,1.921,1.921,0,0,0-1.648.82A4.128,4.128,0,0,0,184.144,12.867Zm11.375,4.289a3.693,3.693,0,0,1-2.8-1.129,4.19,4.19,0,0,1-1.078-3.02v-.266a5.073,5.073,0,0,1,.48-2.246,3.748,3.748,0,0,1,1.344-1.547,3.378,3.378,0,0,1,1.871-.559A3.166,3.166,0,0,1,197.9,9.477a4.7,4.7,0,0,1,.914,3.109v.6h-5.727a3,3,0,0,0,.73,2.02,2.3,2.3,0,0,0,1.777.77,2.517,2.517,0,0,0,1.3-.312,3.258,3.258,0,0,0,.93-.828l.883.688A3.55,3.55,0,0,1,195.519,17.156Zm-.18-7.578a1.928,1.928,0,0,0-1.469.637A3.1,3.1,0,0,0,193.136,12h4.234v-.109a2.753,2.753,0,0,0-.594-1.707A1.815,1.815,0,0,0,195.339,9.578ZM202.448,6.5V8.547h1.578V9.664h-1.578v5.249a1.173,1.173,0,0,0,.211.763.888.888,0,0,0,.719.254,3.5,3.5,0,0,0,.688-.094V17a4.215,4.215,0,0,1-1.109.155,1.8,1.8,0,0,1-1.461-.586A2.517,2.517,0,0,1,201,14.906V9.664h-1.539V8.547H201V6.5ZM207.284,17h-1.445V8.547h1.445ZM205.722,6.3a.863.863,0,0,1,.215-.594.807.807,0,0,1,.637-.242.819.819,0,0,1,.641.242.854.854,0,0,1,.219.594.826.826,0,0,1-.219.586.834.834,0,0,1-.641.234.821.821,0,0,1-.637-.234A.834.834,0,0,1,205.722,6.3Zm3.492,6.391a4.993,4.993,0,0,1,.488-2.234,3.642,3.642,0,0,1,1.359-1.531,3.7,3.7,0,0,1,1.988-.539,3.565,3.565,0,0,1,2.793,1.2,4.6,4.6,0,0,1,1.066,3.18v.1a5.036,5.036,0,0,1-.473,2.215,3.589,3.589,0,0,1-1.352,1.527,3.743,3.743,0,0,1-2.02.547,3.556,3.556,0,0,1-2.785-1.2,4.575,4.575,0,0,1-1.066-3.164Zm1.453.172a3.616,3.616,0,0,0,.652,2.258,2.211,2.211,0,0,0,3.5-.012,3.954,3.954,0,0,0,.648-2.418,3.61,3.61,0,0,0-.66-2.254,2.1,2.1,0,0,0-1.754-.863,2.075,2.075,0,0,0-1.727.852A3.925,3.925,0,0,0,210.667,12.867Zm9.422-4.32.047,1.063a3.08,3.08,0,0,1,2.531-1.219q2.68,0,2.7,3.023V17h-1.445V11.406a1.946,1.946,0,0,0-.418-1.352,1.675,1.675,0,0,0-1.277-.437A2.086,2.086,0,0,0,221,9.992a2.546,2.546,0,0,0-.828.984V17h-1.445V8.547Z" transform="translate(-61.172 -6301.44)" fill="#12263f"/>
    <path id="Trazado_115829" data-name="Trazado 115829" d="M30,12.383a12.079,12.079,0,0,1,.473-3.391,9.85,9.85,0,0,1,1.41-2.953,6,6,0,0,1,1.945-1.875l.3.953a6.222,6.222,0,0,0-1.871,2.672,11.583,11.583,0,0,0-.8,4.023l-.008.664a11.643,11.643,0,0,0,1.1,5.234,6.252,6.252,0,0,0,1.578,2.078l-.3.883a6.192,6.192,0,0,1-1.984-1.937A10.859,10.859,0,0,1,30,12.383Zm8.531.375H34.718v-1.18H38.53Zm4.742-.3a12.084,12.084,0,0,1-.457,3.34,9.876,9.876,0,0,1-1.4,2.949,6.127,6.127,0,0,1-1.973,1.922l-.3-.883a6.281,6.281,0,0,0,1.934-2.863,12.387,12.387,0,0,0,.746-4.309v-.25a12.861,12.861,0,0,0-.344-3.051,10.3,10.3,0,0,0-.957-2.527A5.838,5.838,0,0,0,39.14,5.047l.3-.883A6.1,6.1,0,0,1,41.409,6.07a9.9,9.9,0,0,1,1.4,2.945A12.363,12.363,0,0,1,43.273,12.461ZM51.3,17H49.8V5.625h1.5Zm3.883-8.453.047,1.063a3.08,3.08,0,0,1,2.531-1.219q2.68,0,2.7,3.023V17H59.015V11.406a1.946,1.946,0,0,0-.418-1.352,1.675,1.675,0,0,0-1.277-.437,2.086,2.086,0,0,0-1.234.375,2.546,2.546,0,0,0-.828.984V17H53.812V8.547Zm10.852,7.43a2.082,2.082,0,0,0,1.352-.469,1.649,1.649,0,0,0,.641-1.172H69.39a2.621,2.621,0,0,1-.5,1.383,3.293,3.293,0,0,1-1.23,1.047,3.55,3.55,0,0,1-1.629.391A3.482,3.482,0,0,1,63.284,16a4.59,4.59,0,0,1-1.02-3.152v-.242a5.089,5.089,0,0,1,.453-2.2,3.451,3.451,0,0,1,1.3-1.492,3.7,3.7,0,0,1,2-.531,3.39,3.39,0,0,1,2.363.852,3.043,3.043,0,0,1,1,2.211H68.023a1.992,1.992,0,0,0-.621-1.348,1.932,1.932,0,0,0-1.379-.527,2.023,2.023,0,0,0-1.707.793,3.724,3.724,0,0,0-.605,2.293v.273a3.65,3.65,0,0,0,.6,2.25A2.033,2.033,0,0,0,66.03,15.977ZM75.1,9.844a4.331,4.331,0,0,0-.711-.055A1.9,1.9,0,0,0,72.46,11v6H71.015V8.547h1.406l.023.977A2.251,2.251,0,0,1,74.46,8.391,1.477,1.477,0,0,1,75.1,8.5Zm4.836,7.313a3.693,3.693,0,0,1-2.8-1.129,4.19,4.19,0,0,1-1.078-3.02v-.266a5.073,5.073,0,0,1,.48-2.246,3.748,3.748,0,0,1,1.344-1.547,3.378,3.378,0,0,1,1.871-.559A3.166,3.166,0,0,1,82.32,9.477a4.7,4.7,0,0,1,.914,3.109v.6H77.507a3,3,0,0,0,.73,2.02,2.3,2.3,0,0,0,1.777.77,2.517,2.517,0,0,0,1.3-.312,3.259,3.259,0,0,0,.93-.828l.883.688A3.55,3.55,0,0,1,79.937,17.156Zm-.18-7.578a1.928,1.928,0,0,0-1.469.637A3.1,3.1,0,0,0,77.554,12h4.234v-.109a2.753,2.753,0,0,0-.594-1.707A1.815,1.815,0,0,0,79.757,9.578Zm6.508-1.031.039.938a3.122,3.122,0,0,1,2.508-1.094A2.417,2.417,0,0,1,91.226,9.75a3.2,3.2,0,0,1,1.1-.984,3.242,3.242,0,0,1,1.6-.375q2.781,0,2.828,2.945V17H95.3V11.422a1.941,1.941,0,0,0-.414-1.355A1.823,1.823,0,0,0,93.5,9.617a1.916,1.916,0,0,0-1.336.48,1.949,1.949,0,0,0-.617,1.293V17H90.093V11.461a1.613,1.613,0,0,0-1.8-1.844,1.934,1.934,0,0,0-1.945,1.211V17H84.9V8.547Zm16.172,8.609a3.693,3.693,0,0,1-2.8-1.129,4.19,4.19,0,0,1-1.078-3.02v-.266a5.073,5.073,0,0,1,.48-2.246,3.748,3.748,0,0,1,1.344-1.547,3.378,3.378,0,0,1,1.871-.559,3.166,3.166,0,0,1,2.563,1.086,4.7,4.7,0,0,1,.914,3.109v.6h-5.727a3,3,0,0,0,.73,2.02,2.3,2.3,0,0,0,1.777.77,2.517,2.517,0,0,0,1.3-.312,3.259,3.259,0,0,0,.93-.828l.883.688A3.55,3.55,0,0,1,102.437,17.156Zm-.18-7.578a1.928,1.928,0,0,0-1.469.637A3.1,3.1,0,0,0,100.054,12h4.234v-.109a2.753,2.753,0,0,0-.594-1.707A1.815,1.815,0,0,0,102.257,9.578Zm6.516-1.031.047,1.063a3.08,3.08,0,0,1,2.531-1.219q2.68,0,2.7,3.023V17h-1.445V11.406a1.946,1.946,0,0,0-.418-1.352,1.675,1.675,0,0,0-1.277-.437,2.086,2.086,0,0,0-1.234.375,2.546,2.546,0,0,0-.828.984V17h-1.445V8.547ZM118.195,6.5V8.547h1.578V9.664h-1.578v5.249a1.173,1.173,0,0,0,.211.763.888.888,0,0,0,.719.254,3.5,3.5,0,0,0,.688-.094V17a4.215,4.215,0,0,1-1.109.155,1.8,1.8,0,0,1-1.461-.586,2.517,2.517,0,0,1-.492-1.664V9.664H115.21V8.547h1.539V6.5Zm2.727,6.2a4.993,4.993,0,0,1,.488-2.234,3.643,3.643,0,0,1,1.359-1.531,3.7,3.7,0,0,1,1.988-.539,3.565,3.565,0,0,1,2.793,1.2,4.6,4.6,0,0,1,1.066,3.18v.1a5.036,5.036,0,0,1-.473,2.215,3.589,3.589,0,0,1-1.352,1.527,3.743,3.743,0,0,1-2.02.547,3.556,3.556,0,0,1-2.785-1.2,4.575,4.575,0,0,1-1.066-3.164Zm1.453.172a3.616,3.616,0,0,0,.652,2.258,2.211,2.211,0,0,0,3.5-.012,3.955,3.955,0,0,0,.648-2.418,3.61,3.61,0,0,0-.66-2.254,2.1,2.1,0,0,0-1.754-.863,2.075,2.075,0,0,0-1.727.852A3.925,3.925,0,0,0,122.374,12.867Zm15.406,3.109a2.082,2.082,0,0,0,1.352-.469,1.649,1.649,0,0,0,.641-1.172h1.367a2.621,2.621,0,0,1-.5,1.383,3.293,3.293,0,0,1-1.23,1.047,3.55,3.55,0,0,1-1.629.391A3.482,3.482,0,0,1,135.034,16a4.59,4.59,0,0,1-1.02-3.152v-.242a5.089,5.089,0,0,1,.453-2.2,3.451,3.451,0,0,1,1.3-1.492,3.7,3.7,0,0,1,2-.531,3.39,3.39,0,0,1,2.363.852,3.043,3.043,0,0,1,1,2.211h-1.367a1.992,1.992,0,0,0-.621-1.348,1.932,1.932,0,0,0-1.379-.527,2.023,2.023,0,0,0-1.707.793,3.724,3.724,0,0,0-.605,2.293v.273a3.65,3.65,0,0,0,.6,2.25A2.033,2.033,0,0,0,137.78,15.977ZM147.984,17a3.036,3.036,0,0,1-.2-.891,3.225,3.225,0,0,1-2.406,1.047,2.984,2.984,0,0,1-2.051-.707,2.287,2.287,0,0,1-.8-1.793,2.39,2.39,0,0,1,1-2.051,4.733,4.733,0,0,1,2.824-.73h1.406v-.664A1.623,1.623,0,0,0,147.3,10a1.821,1.821,0,0,0-1.336-.449,2.107,2.107,0,0,0-1.3.391,1.151,1.151,0,0,0-.523.945h-1.453a2,2,0,0,1,.449-1.223,3.066,3.066,0,0,1,1.219-.934,4.1,4.1,0,0,1,1.691-.344,3.342,3.342,0,0,1,2.289.73,2.635,2.635,0,0,1,.859,2.012v3.891a4.757,4.757,0,0,0,.3,1.852V17Zm-2.4-1.1a2.54,2.54,0,0,0,1.289-.352,2.127,2.127,0,0,0,.883-.914V12.9h-1.133q-2.656,0-2.656,1.555a1.316,1.316,0,0,0,.453,1.063A1.742,1.742,0,0,0,145.585,15.9Zm7.453,1.1h-1.445V5h1.445Zm1.93-4.3a4.993,4.993,0,0,1,.488-2.234,3.642,3.642,0,0,1,1.359-1.531,3.7,3.7,0,0,1,1.988-.539,3.565,3.565,0,0,1,2.793,1.2,4.6,4.6,0,0,1,1.066,3.18v.1a5.036,5.036,0,0,1-.473,2.215,3.589,3.589,0,0,1-1.352,1.527,3.743,3.743,0,0,1-2.02.547,3.556,3.556,0,0,1-2.785-1.2,4.575,4.575,0,0,1-1.066-3.164Zm1.453.172a3.616,3.616,0,0,0,.652,2.258,2.211,2.211,0,0,0,3.5-.012,3.954,3.954,0,0,0,.648-2.418,3.61,3.61,0,0,0-.66-2.254,2.1,2.1,0,0,0-1.754-.863,2.075,2.075,0,0,0-1.727.852A3.925,3.925,0,0,0,156.421,12.867ZM159.46,5h1.75l-2.094,2.3-1.164,0Zm9.1,4.844a4.331,4.331,0,0,0-.711-.055A1.9,1.9,0,0,0,165.921,11v6h-1.445V8.547h1.406l.023.977a2.251,2.251,0,0,1,2.016-1.133,1.477,1.477,0,0,1,.641.109ZM171.46,17h-1.445V8.547h1.445ZM169.9,6.3a.863.863,0,0,1,.215-.594.807.807,0,0,1,.637-.242.819.819,0,0,1,.641.242.854.854,0,0,1,.219.594.826.826,0,0,1-.219.586.834.834,0,0,1-.641.234.821.821,0,0,1-.637-.234A.834.834,0,0,1,169.9,6.3Zm7.266,9.672a2.082,2.082,0,0,0,1.352-.469,1.649,1.649,0,0,0,.641-1.172h1.367a2.621,2.621,0,0,1-.5,1.383,3.293,3.293,0,0,1-1.23,1.047,3.55,3.55,0,0,1-1.629.391A3.482,3.482,0,0,1,174.417,16a4.59,4.59,0,0,1-1.02-3.152v-.242a5.089,5.089,0,0,1,.453-2.2,3.451,3.451,0,0,1,1.3-1.492,3.7,3.7,0,0,1,2-.531,3.39,3.39,0,0,1,2.363.852,3.043,3.043,0,0,1,1,2.211h-1.367a1.992,1.992,0,0,0-.621-1.348,1.932,1.932,0,0,0-1.379-.527,2.023,2.023,0,0,0-1.707.793,3.724,3.724,0,0,0-.605,2.293v.273a3.65,3.65,0,0,0,.6,2.25A2.033,2.033,0,0,0,177.163,15.977Zm4.6-3.281a4.993,4.993,0,0,1,.488-2.234,3.642,3.642,0,0,1,1.359-1.531,3.7,3.7,0,0,1,1.988-.539,3.565,3.565,0,0,1,2.793,1.2,4.6,4.6,0,0,1,1.066,3.18v.1a5.036,5.036,0,0,1-.473,2.215,3.589,3.589,0,0,1-1.352,1.527,3.743,3.743,0,0,1-2.02.547,3.556,3.556,0,0,1-2.785-1.2,4.575,4.575,0,0,1-1.066-3.164Zm1.453.172a3.616,3.616,0,0,0,.652,2.258,2.211,2.211,0,0,0,3.5-.012,3.954,3.954,0,0,0,.648-2.418,3.61,3.61,0,0,0-.66-2.254,2.1,2.1,0,0,0-1.754-.863,2.075,2.075,0,0,0-1.727.852A3.925,3.925,0,0,0,183.218,12.867Z" transform="translate(-61.172 -6145.44)" fill="#12263f"/>
    <path id="Trazado_115833" data-name="Trazado 115833" d="M12.671,15.773h5.391V17h-6.9V5.625h1.508Zm10.383,1.383a3.693,3.693,0,0,1-2.8-1.129,4.19,4.19,0,0,1-1.078-3.02v-.266a5.073,5.073,0,0,1,.48-2.246A3.748,3.748,0,0,1,21,8.949a3.378,3.378,0,0,1,1.871-.559,3.166,3.166,0,0,1,2.563,1.086,4.7,4.7,0,0,1,.914,3.109v.6H20.624a3,3,0,0,0,.73,2.02,2.3,2.3,0,0,0,1.777.77,2.517,2.517,0,0,0,1.3-.312,3.259,3.259,0,0,0,.93-.828l.883.688A3.55,3.55,0,0,1,23.054,17.156Zm-.18-7.578a1.928,1.928,0,0,0-1.469.637A3.1,3.1,0,0,0,20.671,12h4.234v-.109a2.753,2.753,0,0,0-.594-1.707A1.815,1.815,0,0,0,22.874,9.578Zm8.539,6.4a2.082,2.082,0,0,0,1.352-.469,1.649,1.649,0,0,0,.641-1.172h1.367a2.621,2.621,0,0,1-.5,1.383,3.293,3.293,0,0,1-1.23,1.047,3.55,3.55,0,0,1-1.629.391A3.482,3.482,0,0,1,28.667,16a4.59,4.59,0,0,1-1.02-3.152v-.242a5.089,5.089,0,0,1,.453-2.2,3.451,3.451,0,0,1,1.3-1.492,3.7,3.7,0,0,1,2-.531,3.39,3.39,0,0,1,2.363.852,3.043,3.043,0,0,1,1,2.211H33.405a1.992,1.992,0,0,0-.621-1.348,1.932,1.932,0,0,0-1.379-.527,2.023,2.023,0,0,0-1.707.793,3.724,3.724,0,0,0-.605,2.293v.273a3.65,3.65,0,0,0,.6,2.25A2.033,2.033,0,0,0,31.413,15.977Zm6.43-6.406a3.073,3.073,0,0,1,2.5-1.18q2.68,0,2.7,3.023V17H41.6V11.406a1.946,1.946,0,0,0-.418-1.352,1.675,1.675,0,0,0-1.277-.437,2.086,2.086,0,0,0-1.234.375,2.546,2.546,0,0,0-.828.984V17H36.4V5h1.445Zm10.875,7.586a3.693,3.693,0,0,1-2.8-1.129,4.19,4.19,0,0,1-1.078-3.02v-.266a5.073,5.073,0,0,1,.48-2.246,3.748,3.748,0,0,1,1.344-1.547,3.378,3.378,0,0,1,1.871-.559A3.166,3.166,0,0,1,51.1,9.477a4.7,4.7,0,0,1,.914,3.109v.6H46.288a3,3,0,0,0,.73,2.02,2.3,2.3,0,0,0,1.777.77,2.517,2.517,0,0,0,1.3-.312,3.259,3.259,0,0,0,.93-.828l.883.688A3.55,3.55,0,0,1,48.718,17.156Zm-.18-7.578a1.928,1.928,0,0,0-1.469.637A3.1,3.1,0,0,0,46.335,12H50.57v-.109a2.753,2.753,0,0,0-.594-1.707A1.815,1.815,0,0,0,48.538,9.578Zm12.117,3.18H56.843v-1.18h3.813Zm13.961.633a4.185,4.185,0,0,1-1.332,2.785,4.365,4.365,0,0,1-2.98.98,4.008,4.008,0,0,1-3.23-1.445,5.815,5.815,0,0,1-1.215-3.867V10.75a6.481,6.481,0,0,1,.566-2.789A4.231,4.231,0,0,1,68.03,6.113a4.47,4.47,0,0,1,2.406-.645A4.11,4.11,0,0,1,73.343,6.48a4.235,4.235,0,0,1,1.273,2.8H73.109a3.268,3.268,0,0,0-.848-1.975A2.565,2.565,0,0,0,70.437,6.7a2.684,2.684,0,0,0-2.254,1.063,4.882,4.882,0,0,0-.816,3.026v1.1a5.018,5.018,0,0,0,.773,2.948A2.5,2.5,0,0,0,70.3,15.93a2.886,2.886,0,0,0,1.918-.566,3.143,3.143,0,0,0,.887-1.973ZM81.655,17a3.036,3.036,0,0,1-.2-.891,3.225,3.225,0,0,1-2.406,1.047A2.984,2.984,0,0,1,77,16.449a2.288,2.288,0,0,1-.8-1.793,2.39,2.39,0,0,1,1-2.051,4.733,4.733,0,0,1,2.824-.73h1.406v-.664A1.623,1.623,0,0,0,80.976,10a1.821,1.821,0,0,0-1.336-.449,2.108,2.108,0,0,0-1.3.391,1.151,1.151,0,0,0-.523.945H76.366a2,2,0,0,1,.449-1.223,3.066,3.066,0,0,1,1.219-.934,4.1,4.1,0,0,1,1.691-.344,3.342,3.342,0,0,1,2.289.73,2.635,2.635,0,0,1,.859,2.012v3.891a4.757,4.757,0,0,0,.3,1.852V17Zm-2.4-1.1a2.54,2.54,0,0,0,1.289-.352,2.127,2.127,0,0,0,.883-.914V12.9H80.3q-2.656,0-2.656,1.555a1.316,1.316,0,0,0,.453,1.063A1.742,1.742,0,0,0,79.257,15.9Zm9.969-6.055a4.331,4.331,0,0,0-.711-.055A1.9,1.9,0,0,0,86.585,11v6H85.14V8.547h1.406l.023.977a2.251,2.251,0,0,1,2.016-1.133,1.477,1.477,0,0,1,.641.109Zm2.7-1.3.047,1.063A3.08,3.08,0,0,1,94.5,8.391q2.68,0,2.7,3.023V17H95.757V11.406a1.946,1.946,0,0,0-.418-1.352,1.675,1.675,0,0,0-1.277-.437,2.086,2.086,0,0,0-1.234.375,2.546,2.546,0,0,0-.828.984V17H90.554V8.547Zm10.969,8.609a3.693,3.693,0,0,1-2.8-1.129,4.19,4.19,0,0,1-1.078-3.02v-.266A5.073,5.073,0,0,1,99.5,10.5a3.748,3.748,0,0,1,1.344-1.547,3.378,3.378,0,0,1,1.871-.559,3.166,3.166,0,0,1,2.563,1.086,4.7,4.7,0,0,1,.914,3.109v.6H100.46a3,3,0,0,0,.73,2.02,2.3,2.3,0,0,0,1.777.77,2.517,2.517,0,0,0,1.3-.312,3.259,3.259,0,0,0,.93-.828l.883.688A3.55,3.55,0,0,1,102.89,17.156Zm-.18-7.578a1.928,1.928,0,0,0-1.469.637A3.1,3.1,0,0,0,100.507,12h4.234v-.109a2.753,2.753,0,0,0-.594-1.707A1.815,1.815,0,0,0,102.71,9.578Zm8.156,3.18h-3.812v-1.18h3.813Zm5.8-.359H114V17h-1.508V5.625h3.766a4.457,4.457,0,0,1,2.957.875,3.148,3.148,0,0,1,1.035,2.547,3.062,3.062,0,0,1-.574,1.852,3.428,3.428,0,0,1-1.6,1.18l2.672,4.828V17H119.14ZM114,11.172h2.3a2.6,2.6,0,0,0,1.777-.579,1.959,1.959,0,0,0,.66-1.55,2.062,2.062,0,0,0-.629-1.62,2.663,2.663,0,0,0-1.816-.571H114Zm11.633,5.984a3.693,3.693,0,0,1-2.8-1.129,4.19,4.19,0,0,1-1.078-3.02v-.266a5.073,5.073,0,0,1,.48-2.246,3.748,3.748,0,0,1,1.344-1.547,3.378,3.378,0,0,1,1.871-.559,3.166,3.166,0,0,1,2.563,1.086,4.7,4.7,0,0,1,.914,3.109v.6H123.2a3,3,0,0,0,.73,2.02,2.3,2.3,0,0,0,1.777.77,2.517,2.517,0,0,0,1.3-.312,3.259,3.259,0,0,0,.93-.828l.883.688A3.55,3.55,0,0,1,125.632,17.156Zm-.18-7.578a1.928,1.928,0,0,0-1.469.637A3.1,3.1,0,0,0,123.249,12h4.234v-.109a2.753,2.753,0,0,0-.594-1.707A1.815,1.815,0,0,0,125.452,9.578Zm12.289,3.289a5.062,5.062,0,0,1-.883,3.109,2.829,2.829,0,0,1-2.391,1.18,3.1,3.1,0,0,1-2.422-.977v4.07H130.6V8.547h1.32l.07.938a2.977,2.977,0,0,1,2.453-1.094,2.882,2.882,0,0,1,2.41,1.148,5.117,5.117,0,0,1,.887,3.2ZM136.3,12.7a3.735,3.735,0,0,0-.609-2.258,1.963,1.963,0,0,0-1.672-.828,2.125,2.125,0,0,0-1.969,1.164V14.82a2.129,2.129,0,0,0,1.984,1.156,1.954,1.954,0,0,0,1.652-.824A4.077,4.077,0,0,0,136.3,12.7Zm7.367-2.859a4.331,4.331,0,0,0-.711-.055A1.9,1.9,0,0,0,141.023,11v6h-1.445V8.547h1.406l.023.977a2.251,2.251,0,0,1,2.016-1.133,1.477,1.477,0,0,1,.641.109Zm.789,2.852a4.993,4.993,0,0,1,.488-2.234A3.642,3.642,0,0,1,146.3,8.93a3.7,3.7,0,0,1,1.988-.539,3.565,3.565,0,0,1,2.793,1.2,4.6,4.6,0,0,1,1.066,3.18v.1a5.036,5.036,0,0,1-.473,2.215,3.589,3.589,0,0,1-1.352,1.527,3.743,3.743,0,0,1-2.02.547,3.556,3.556,0,0,1-2.785-1.2,4.575,4.575,0,0,1-1.066-3.164Zm1.453.172a3.616,3.616,0,0,0,.652,2.258,2.211,2.211,0,0,0,3.5-.012A3.954,3.954,0,0,0,150.7,12.7a3.61,3.61,0,0,0-.66-2.254,2.1,2.1,0,0,0-1.754-.863,2.075,2.075,0,0,0-1.727.852A3.925,3.925,0,0,0,145.905,12.867Zm7.7-.164a4.952,4.952,0,0,1,.922-3.129,3.137,3.137,0,0,1,4.766-.168V5h1.445V17h-1.328l-.07-.906a2.943,2.943,0,0,1-2.414,1.063,2.887,2.887,0,0,1-2.395-1.2,5.008,5.008,0,0,1-.926-3.141Zm1.445.164a3.749,3.749,0,0,0,.594,2.25,1.919,1.919,0,0,0,1.641.813A2.108,2.108,0,0,0,159.3,14.7V10.813a2.125,2.125,0,0,0-1.992-1.2,1.929,1.929,0,0,0-1.656.82A4.128,4.128,0,0,0,155.054,12.867Zm13.148,3.3a3.07,3.07,0,0,1-2.477.992,2.628,2.628,0,0,1-2.059-.785,3.4,3.4,0,0,1-.715-2.324v-5.5H164.4v5.461q0,1.922,1.563,1.922a2.163,2.163,0,0,0,2.2-1.234V8.547h1.445V17h-1.375Zm6.992-.187a2.082,2.082,0,0,0,1.352-.469,1.649,1.649,0,0,0,.641-1.172h1.367a2.621,2.621,0,0,1-.5,1.383,3.293,3.293,0,0,1-1.23,1.047,3.55,3.55,0,0,1-1.629.391A3.482,3.482,0,0,1,172.448,16a4.59,4.59,0,0,1-1.02-3.152v-.242a5.089,5.089,0,0,1,.453-2.2,3.451,3.451,0,0,1,1.3-1.492,3.7,3.7,0,0,1,2-.531,3.39,3.39,0,0,1,2.363.852,3.043,3.043,0,0,1,1,2.211h-1.367a1.992,1.992,0,0,0-.621-1.348,1.932,1.932,0,0,0-1.379-.527,2.023,2.023,0,0,0-1.707.793,3.724,3.724,0,0,0-.605,2.293v.273a3.65,3.65,0,0,0,.6,2.25A2.033,2.033,0,0,0,175.195,15.977Zm8.375,0a2.082,2.082,0,0,0,1.352-.469,1.649,1.649,0,0,0,.641-1.172h1.367a2.621,2.621,0,0,1-.5,1.383,3.293,3.293,0,0,1-1.23,1.047,3.55,3.55,0,0,1-1.629.391A3.482,3.482,0,0,1,180.823,16a4.59,4.59,0,0,1-1.02-3.152v-.242a5.089,5.089,0,0,1,.453-2.2,3.451,3.451,0,0,1,1.3-1.492,3.7,3.7,0,0,1,2-.531,3.39,3.39,0,0,1,2.363.852,3.043,3.043,0,0,1,1,2.211h-1.367a1.992,1.992,0,0,0-.621-1.348,1.932,1.932,0,0,0-1.379-.527,2.023,2.023,0,0,0-1.707.793,3.724,3.724,0,0,0-.605,2.293v.273a3.65,3.65,0,0,0,.6,2.25A2.033,2.033,0,0,0,183.57,15.977ZM190.124,17h-1.445V8.547h1.445ZM188.562,6.3a.863.863,0,0,1,.215-.594.807.807,0,0,1,.637-.242.819.819,0,0,1,.641.242.854.854,0,0,1,.219.594.826.826,0,0,1-.219.586.834.834,0,0,1-.641.234.821.821,0,0,1-.637-.234A.834.834,0,0,1,188.562,6.3Zm3.492,6.391a4.993,4.993,0,0,1,.488-2.234A3.642,3.642,0,0,1,193.9,8.93a3.7,3.7,0,0,1,1.988-.539,3.565,3.565,0,0,1,2.793,1.2,4.6,4.6,0,0,1,1.066,3.18v.1a5.036,5.036,0,0,1-.473,2.215,3.589,3.589,0,0,1-1.352,1.527,3.743,3.743,0,0,1-2.02.547,3.556,3.556,0,0,1-2.785-1.2,4.575,4.575,0,0,1-1.066-3.164Zm1.453.172a3.616,3.616,0,0,0,.652,2.258,2.211,2.211,0,0,0,3.5-.012A3.954,3.954,0,0,0,198.3,12.7a3.61,3.61,0,0,0-.66-2.254,2.1,2.1,0,0,0-1.754-.863,2.075,2.075,0,0,0-1.727.852A3.925,3.925,0,0,0,193.507,12.867ZM196.546,5h1.75L196.2,7.3l-1.164,0Zm6.383,3.547.047,1.063a3.08,3.08,0,0,1,2.531-1.219q2.68,0,2.7,3.023V17h-1.445V11.406a1.946,1.946,0,0,0-.418-1.352,1.675,1.675,0,0,0-1.277-.437,2.086,2.086,0,0,0-1.234.375,2.546,2.546,0,0,0-.828.984V17h-1.445V8.547Z" transform="translate(-328.299 -5941.44)" fill="#12263f"/>
    <path id="Trazado_115832" data-name="Trazado 115832" d="M15.745,17V5.625h3.211a5.169,5.169,0,0,1,2.625.656,4.438,4.438,0,0,1,1.762,1.867,6.078,6.078,0,0,1,.629,2.781v.727a6.1,6.1,0,0,1-.621,2.82,4.369,4.369,0,0,1-1.773,1.859A5.5,5.5,0,0,1,18.894,17Zm1.5-10.148v8.922h1.578a3.434,3.434,0,0,0,2.7-1.079,4.458,4.458,0,0,0,.965-3.073v-.665a4.529,4.529,0,0,0-.91-3.014A3.239,3.239,0,0,0,19,6.852ZM27.581,17H26.136V8.547h1.445ZM26.019,6.3a.863.863,0,0,1,.215-.594.807.807,0,0,1,.637-.242.819.819,0,0,1,.641.242.854.854,0,0,1,.219.594.826.826,0,0,1-.219.586.834.834,0,0,1-.641.234.821.821,0,0,1-.637-.234A.834.834,0,0,1,26.019,6.3Zm3.531,6.4a4.968,4.968,0,0,1,.914-3.145A3.151,3.151,0,0,1,35.3,9.484l.07-.937h1.32V16.8a3.439,3.439,0,0,1-.973,2.586,3.589,3.589,0,0,1-2.613.945,4.348,4.348,0,0,1-1.789-.391,3.08,3.08,0,0,1-1.336-1.07L30.73,18A2.826,2.826,0,0,0,33,19.148a2.214,2.214,0,0,0,1.645-.594,2.269,2.269,0,0,0,.59-1.672v-.727a2.971,2.971,0,0,1-2.367,1,2.887,2.887,0,0,1-2.4-1.2A5.224,5.224,0,0,1,29.55,12.7ZM31,12.867a3.79,3.79,0,0,0,.586,2.246,1.9,1.9,0,0,0,1.641.816,2.117,2.117,0,0,0,2.008-1.242V10.828a2.142,2.142,0,0,0-1.992-1.211,1.921,1.921,0,0,0-1.648.82A4.128,4.128,0,0,0,31,12.867Zm11.375,4.289a3.693,3.693,0,0,1-2.8-1.129,4.19,4.19,0,0,1-1.078-3.02v-.266a5.073,5.073,0,0,1,.48-2.246,3.748,3.748,0,0,1,1.344-1.547A3.378,3.378,0,0,1,42.2,8.391a3.166,3.166,0,0,1,2.563,1.086,4.7,4.7,0,0,1,.914,3.109v.6H39.948a3,3,0,0,0,.73,2.02,2.3,2.3,0,0,0,1.777.77,2.517,2.517,0,0,0,1.3-.312,3.259,3.259,0,0,0,.93-.828l.883.688A3.55,3.55,0,0,1,42.378,17.156ZM42.2,9.578a1.928,1.928,0,0,0-1.469.637A3.1,3.1,0,0,0,40,12H44.23v-.109a2.753,2.753,0,0,0-.594-1.707A1.815,1.815,0,0,0,42.2,9.578Zm10.07,5.18a1.064,1.064,0,0,0-.441-.91,4.249,4.249,0,0,0-1.539-.559,7.277,7.277,0,0,1-1.742-.562,2.479,2.479,0,0,1-.953-.781,1.869,1.869,0,0,1-.309-1.078,2.193,2.193,0,0,1,.879-1.758,3.432,3.432,0,0,1,2.246-.719,3.532,3.532,0,0,1,2.332.742,2.357,2.357,0,0,1,.895,1.9H52.183a1.3,1.3,0,0,0-.5-1.023,1.888,1.888,0,0,0-1.27-.43,1.976,1.976,0,0,0-1.234.344,1.082,1.082,0,0,0-.445.9.877.877,0,0,0,.414.789,5.1,5.1,0,0,0,1.5.508,7.8,7.8,0,0,1,1.754.578,2.558,2.558,0,0,1,1,.809,1.988,1.988,0,0,1,.324,1.152,2.163,2.163,0,0,1-.906,1.816,3.8,3.8,0,0,1-2.352.684,4.257,4.257,0,0,1-1.8-.359,2.922,2.922,0,0,1-1.223-1A2.42,2.42,0,0,1,47,14.4h1.445a1.5,1.5,0,0,0,.582,1.152,2.258,2.258,0,0,0,1.434.426,2.331,2.331,0,0,0,1.316-.332A1.02,1.02,0,0,0,52.269,14.758ZM57.558,6.5V8.547h1.578V9.664H57.558v5.249a1.173,1.173,0,0,0,.211.763.888.888,0,0,0,.719.254,3.5,3.5,0,0,0,.688-.094V17a4.215,4.215,0,0,1-1.109.155A1.8,1.8,0,0,1,56.6,16.57a2.517,2.517,0,0,1-.492-1.664V9.664H54.573V8.547h1.539V6.5ZM62.394,17H60.948V8.547h1.445ZM60.831,6.3a.863.863,0,0,1,.215-.594.807.807,0,0,1,.637-.242.819.819,0,0,1,.641.242.854.854,0,0,1,.219.594.826.826,0,0,1-.219.586.834.834,0,0,1-.641.234.821.821,0,0,1-.637-.234A.834.834,0,0,1,60.831,6.3ZM64.323,12.7a4.993,4.993,0,0,1,.488-2.234A3.643,3.643,0,0,1,66.171,8.93a3.7,3.7,0,0,1,1.988-.539,3.565,3.565,0,0,1,2.793,1.2,4.6,4.6,0,0,1,1.066,3.18v.1a5.036,5.036,0,0,1-.473,2.215,3.589,3.589,0,0,1-1.352,1.527,3.743,3.743,0,0,1-2.02.547,3.556,3.556,0,0,1-2.785-1.2A4.575,4.575,0,0,1,64.323,12.8Zm1.453.172a3.616,3.616,0,0,0,.652,2.258,2.211,2.211,0,0,0,3.5-.012,3.955,3.955,0,0,0,.648-2.418,3.61,3.61,0,0,0-.66-2.254,2.1,2.1,0,0,0-1.754-.863,2.075,2.075,0,0,0-1.727.852A3.925,3.925,0,0,0,65.777,12.867ZM68.816,5h1.75L68.472,7.3l-1.164,0ZM75.2,8.547l.047,1.063a3.08,3.08,0,0,1,2.531-1.219q2.68,0,2.7,3.023V17H79.034V11.406a1.946,1.946,0,0,0-.418-1.352,1.675,1.675,0,0,0-1.277-.437,2.086,2.086,0,0,0-1.234.375,2.546,2.546,0,0,0-.828.984V17H73.831V8.547Zm14.43,4.211H85.816v-1.18h3.813Zm9.766-.359H96.722V17H95.214V5.625H98.98a4.457,4.457,0,0,1,2.957.875,3.148,3.148,0,0,1,1.035,2.547A3.062,3.062,0,0,1,102.4,10.9a3.428,3.428,0,0,1-1.6,1.18l2.672,4.828V17h-1.609Zm-2.672-1.227h2.3a2.6,2.6,0,0,0,1.777-.579,1.959,1.959,0,0,0,.66-1.55,2.062,2.062,0,0,0-.629-1.62,2.663,2.663,0,0,0-1.816-.571h-2.3Zm9.7,5.828h-1.445V8.547h1.445ZM104.855,6.3a.863.863,0,0,1,.215-.594.807.807,0,0,1,.637-.242.819.819,0,0,1,.641.242.854.854,0,0,1,.219.594.826.826,0,0,1-.219.586.834.834,0,0,1-.641.234.821.821,0,0,1-.637-.234A.834.834,0,0,1,104.855,6.3Zm5.836.2V8.547h1.578V9.664h-1.578v5.249a1.173,1.173,0,0,0,.211.763.888.888,0,0,0,.719.254,3.5,3.5,0,0,0,.688-.094V17a4.215,4.215,0,0,1-1.109.155,1.8,1.8,0,0,1-1.461-.586,2.517,2.517,0,0,1-.492-1.664V9.664h-1.539V8.547h1.539V6.5Zm4.625,2.047.039.938a3.122,3.122,0,0,1,2.508-1.094,2.417,2.417,0,0,1,2.414,1.359,3.2,3.2,0,0,1,1.1-.984,3.242,3.242,0,0,1,1.6-.375q2.781,0,2.828,2.945V17h-1.445V11.422a1.941,1.941,0,0,0-.414-1.355,1.823,1.823,0,0,0-1.391-.449,1.916,1.916,0,0,0-1.336.48,1.949,1.949,0,0,0-.617,1.293V17h-1.453V11.461a1.613,1.613,0,0,0-1.8-1.844,1.934,1.934,0,0,0-1.945,1.211V17h-1.445V8.547ZM127.6,12.7a4.993,4.993,0,0,1,.488-2.234,3.642,3.642,0,0,1,1.359-1.531,3.7,3.7,0,0,1,1.988-.539,3.565,3.565,0,0,1,2.793,1.2,4.6,4.6,0,0,1,1.066,3.18v.1a5.036,5.036,0,0,1-.473,2.215,3.589,3.589,0,0,1-1.352,1.527,3.743,3.743,0,0,1-2.02.547,3.556,3.556,0,0,1-2.785-1.2A4.575,4.575,0,0,1,127.6,12.8Zm1.453.172a3.616,3.616,0,0,0,.652,2.258,2.211,2.211,0,0,0,3.5-.012,3.954,3.954,0,0,0,.648-2.418,3.61,3.61,0,0,0-.66-2.254,2.1,2.1,0,0,0-1.754-.863,2.075,2.075,0,0,0-1.727.852A3.925,3.925,0,0,0,129.05,12.867Zm15.406,3.109a2.082,2.082,0,0,0,1.352-.469,1.649,1.649,0,0,0,.641-1.172h1.367a2.621,2.621,0,0,1-.5,1.383,3.293,3.293,0,0,1-1.23,1.047,3.55,3.55,0,0,1-1.629.391A3.482,3.482,0,0,1,141.71,16a4.59,4.59,0,0,1-1.02-3.152v-.242a5.089,5.089,0,0,1,.453-2.2,3.451,3.451,0,0,1,1.3-1.492,3.7,3.7,0,0,1,2-.531,3.39,3.39,0,0,1,2.363.852,3.043,3.043,0,0,1,1,2.211h-1.367a1.992,1.992,0,0,0-.621-1.348,1.932,1.932,0,0,0-1.379-.527,2.023,2.023,0,0,0-1.707.793,3.724,3.724,0,0,0-.605,2.293v.273a3.65,3.65,0,0,0,.6,2.25A2.033,2.033,0,0,0,144.456,15.977ZM154.659,17a3.036,3.036,0,0,1-.2-.891,3.225,3.225,0,0,1-2.406,1.047A2.984,2.984,0,0,1,150,16.449a2.287,2.287,0,0,1-.8-1.793,2.39,2.39,0,0,1,1-2.051,4.733,4.733,0,0,1,2.824-.73h1.406v-.664A1.623,1.623,0,0,0,153.98,10a1.821,1.821,0,0,0-1.336-.449,2.107,2.107,0,0,0-1.3.391,1.151,1.151,0,0,0-.523.945H149.37a2,2,0,0,1,.449-1.223,3.066,3.066,0,0,1,1.219-.934,4.1,4.1,0,0,1,1.691-.344,3.342,3.342,0,0,1,2.289.73,2.635,2.635,0,0,1,.859,2.012v3.891a4.757,4.757,0,0,0,.3,1.852V17Zm-2.4-1.1a2.54,2.54,0,0,0,1.289-.352,2.127,2.127,0,0,0,.883-.914V12.9H153.3q-2.656,0-2.656,1.555a1.316,1.316,0,0,0,.453,1.063A1.742,1.742,0,0,0,152.261,15.9Zm9.969-6.055a4.331,4.331,0,0,0-.711-.055A1.9,1.9,0,0,0,159.589,11v6h-1.445V8.547h1.406l.023.977a2.251,2.251,0,0,1,2.016-1.133,1.477,1.477,0,0,1,.641.109Zm.977,2.859a4.952,4.952,0,0,1,.922-3.129,3.137,3.137,0,0,1,4.766-.168V5h1.445V17h-1.328l-.07-.906a2.943,2.943,0,0,1-2.414,1.063,2.887,2.887,0,0,1-2.395-1.2,5.008,5.008,0,0,1-.926-3.141Zm1.445.164a3.749,3.749,0,0,0,.594,2.25,1.919,1.919,0,0,0,1.641.813,2.108,2.108,0,0,0,2.008-1.234V10.813a2.125,2.125,0,0,0-1.992-1.2,1.929,1.929,0,0,0-1.656.82A4.128,4.128,0,0,0,164.652,12.867Zm9.5,4.133h-1.445V8.547h1.445ZM172.589,6.3a.863.863,0,0,1,.215-.594.807.807,0,0,1,.637-.242.819.819,0,0,1,.641.242.854.854,0,0,1,.219.594.826.826,0,0,1-.219.586.834.834,0,0,1-.641.234.821.821,0,0,1-.637-.234A.834.834,0,0,1,172.589,6.3ZM181.683,17a3.036,3.036,0,0,1-.2-.891,3.225,3.225,0,0,1-2.406,1.047,2.984,2.984,0,0,1-2.051-.707,2.287,2.287,0,0,1-.8-1.793,2.39,2.39,0,0,1,1-2.051,4.733,4.733,0,0,1,2.824-.73h1.406v-.664A1.623,1.623,0,0,0,181,10a1.821,1.821,0,0,0-1.336-.449,2.107,2.107,0,0,0-1.3.391,1.151,1.151,0,0,0-.523.945h-1.453a2,2,0,0,1,.449-1.223,3.066,3.066,0,0,1,1.219-.934,4.1,4.1,0,0,1,1.691-.344,3.342,3.342,0,0,1,2.289.73,2.635,2.635,0,0,1,.859,2.012v3.891a4.757,4.757,0,0,0,.3,1.852V17Zm-2.4-1.1a2.54,2.54,0,0,0,1.289-.352,2.127,2.127,0,0,0,.883-.914V12.9h-1.133q-2.656,0-2.656,1.555a1.316,1.316,0,0,0,.453,1.063A1.742,1.742,0,0,0,179.284,15.9Zm9.273.078a2.082,2.082,0,0,0,1.352-.469,1.649,1.649,0,0,0,.641-1.172h1.367a2.621,2.621,0,0,1-.5,1.383,3.293,3.293,0,0,1-1.23,1.047,3.55,3.55,0,0,1-1.629.391A3.482,3.482,0,0,1,185.812,16a4.59,4.59,0,0,1-1.02-3.152v-.242a5.089,5.089,0,0,1,.453-2.2,3.451,3.451,0,0,1,1.3-1.492,3.7,3.7,0,0,1,2-.531,3.39,3.39,0,0,1,2.363.852,3.043,3.043,0,0,1,1,2.211H190.55a1.992,1.992,0,0,0-.621-1.348,1.932,1.932,0,0,0-1.379-.527,2.023,2.023,0,0,0-1.707.793,3.724,3.724,0,0,0-.605,2.293v.273a3.65,3.65,0,0,0,.6,2.25A2.033,2.033,0,0,0,188.558,15.977Zm4.6-3.281a4.993,4.993,0,0,1,.488-2.234,3.642,3.642,0,0,1,1.359-1.531A3.7,3.7,0,0,1,197,8.391a3.565,3.565,0,0,1,2.793,1.2,4.6,4.6,0,0,1,1.066,3.18v.1a5.036,5.036,0,0,1-.473,2.215,3.589,3.589,0,0,1-1.352,1.527,3.743,3.743,0,0,1-2.02.547,3.556,3.556,0,0,1-2.785-1.2,4.575,4.575,0,0,1-1.066-3.164Zm1.453.172a3.616,3.616,0,0,0,.652,2.258,2.211,2.211,0,0,0,3.5-.012,3.954,3.954,0,0,0,.648-2.418,3.61,3.61,0,0,0-.66-2.254A2.1,2.1,0,0,0,197,9.578a2.075,2.075,0,0,0-1.727.852A3.925,3.925,0,0,0,194.613,12.867Zm8.008,6.4-.82-.562a3.77,3.77,0,0,0,.766-2.109v-1.3h1.414v1.133A3.559,3.559,0,0,1,203.593,18,3.7,3.7,0,0,1,202.62,19.266ZM73.335,36.4H70.663V41H69.155V29.625h3.766a4.457,4.457,0,0,1,2.957.875,3.148,3.148,0,0,1,1.035,2.547,3.062,3.062,0,0,1-.574,1.852,3.428,3.428,0,0,1-1.6,1.18l2.672,4.828V41H75.8Zm-2.672-1.227h2.3a2.6,2.6,0,0,0,1.777-.579,1.959,1.959,0,0,0,.66-1.55,2.062,2.062,0,0,0-.629-1.62,2.663,2.663,0,0,0-1.816-.571h-2.3ZM82.3,41.156a3.693,3.693,0,0,1-2.8-1.129,4.19,4.19,0,0,1-1.078-3.02v-.266A5.073,5.073,0,0,1,78.9,34.5a3.748,3.748,0,0,1,1.344-1.547,3.378,3.378,0,0,1,1.871-.559,3.166,3.166,0,0,1,2.563,1.086,4.7,4.7,0,0,1,.914,3.109v.6H79.866a3,3,0,0,0,.73,2.02,2.3,2.3,0,0,0,1.777.77,2.517,2.517,0,0,0,1.3-.312,3.259,3.259,0,0,0,.93-.828l.883.688A3.55,3.55,0,0,1,82.3,41.156Zm-.18-7.578a1.928,1.928,0,0,0-1.469.637A3.1,3.1,0,0,0,79.913,36h4.234v-.109a2.753,2.753,0,0,0-.594-1.707A1.815,1.815,0,0,0,82.116,33.578Zm10.07,5.18a1.064,1.064,0,0,0-.441-.91,4.249,4.249,0,0,0-1.539-.559,7.277,7.277,0,0,1-1.742-.562,2.479,2.479,0,0,1-.953-.781,1.869,1.869,0,0,1-.309-1.078,2.193,2.193,0,0,1,.879-1.758,3.432,3.432,0,0,1,2.246-.719,3.532,3.532,0,0,1,2.332.742,2.357,2.357,0,0,1,.895,1.9H92.1a1.3,1.3,0,0,0-.5-1.023,1.888,1.888,0,0,0-1.27-.43,1.976,1.976,0,0,0-1.234.344,1.082,1.082,0,0,0-.445.9.877.877,0,0,0,.414.789,5.1,5.1,0,0,0,1.5.508,7.8,7.8,0,0,1,1.754.578,2.558,2.558,0,0,1,1,.809,1.988,1.988,0,0,1,.324,1.152,2.163,2.163,0,0,1-.906,1.816,3.8,3.8,0,0,1-2.352.684,4.257,4.257,0,0,1-1.8-.359,2.922,2.922,0,0,1-1.223-1,2.42,2.42,0,0,1-.441-1.395h1.445a1.5,1.5,0,0,0,.582,1.152,2.258,2.258,0,0,0,1.434.426,2.331,2.331,0,0,0,1.316-.332A1.02,1.02,0,0,0,92.187,38.758Zm10.469-1.891a5.062,5.062,0,0,1-.883,3.109,2.829,2.829,0,0,1-2.391,1.18,3.1,3.1,0,0,1-2.422-.977v4.07H95.515v-11.7h1.32l.07.938a2.977,2.977,0,0,1,2.453-1.094,2.882,2.882,0,0,1,2.41,1.148,5.117,5.117,0,0,1,.887,3.2ZM101.21,36.7a3.735,3.735,0,0,0-.609-2.258,1.963,1.963,0,0,0-1.672-.828,2.125,2.125,0,0,0-1.969,1.164V38.82a2.129,2.129,0,0,0,1.984,1.156,1.954,1.954,0,0,0,1.652-.824A4.077,4.077,0,0,0,101.21,36.7Zm4.852,4.3h-1.445V32.547h1.445ZM104.5,30.3a.863.863,0,0,1,.215-.594.807.807,0,0,1,.637-.242.819.819,0,0,1,.641.242.854.854,0,0,1,.219.594.826.826,0,0,1-.219.586.834.834,0,0,1-.641.234.821.821,0,0,1-.637-.234A.834.834,0,0,1,104.5,30.3Zm7.961,3.539a4.331,4.331,0,0,0-.711-.055A1.9,1.9,0,0,0,109.82,35v6h-1.445V32.547h1.406l.023.977a2.251,2.251,0,0,1,2.016-1.133,1.477,1.477,0,0,1,.641.109ZM118.695,41a3.036,3.036,0,0,1-.2-.891,3.225,3.225,0,0,1-2.406,1.047,2.984,2.984,0,0,1-2.051-.707,2.288,2.288,0,0,1-.8-1.793,2.39,2.39,0,0,1,1-2.051,4.733,4.733,0,0,1,2.824-.73h1.406v-.664A1.623,1.623,0,0,0,118.015,34a1.821,1.821,0,0,0-1.336-.449,2.107,2.107,0,0,0-1.3.391,1.151,1.151,0,0,0-.523.945h-1.453a2,2,0,0,1,.449-1.223,3.066,3.066,0,0,1,1.219-.934,4.1,4.1,0,0,1,1.691-.344,3.342,3.342,0,0,1,2.289.73,2.635,2.635,0,0,1,.859,2.012v3.891a4.757,4.757,0,0,0,.3,1.852V41Zm-2.4-1.1a2.54,2.54,0,0,0,1.289-.352,2.127,2.127,0,0,0,.883-.914V36.9h-1.133q-2.656,0-2.656,1.555a1.316,1.316,0,0,0,.453,1.063A1.742,1.742,0,0,0,116.3,39.9Zm9.273.078a2.082,2.082,0,0,0,1.352-.469,1.649,1.649,0,0,0,.641-1.172h1.367a2.621,2.621,0,0,1-.5,1.383,3.293,3.293,0,0,1-1.23,1.047,3.55,3.55,0,0,1-1.629.391A3.482,3.482,0,0,1,122.823,40a4.59,4.59,0,0,1-1.02-3.152v-.242a5.089,5.089,0,0,1,.453-2.2,3.451,3.451,0,0,1,1.3-1.492,3.7,3.7,0,0,1,2-.531,3.39,3.39,0,0,1,2.363.852,3.043,3.043,0,0,1,1,2.211h-1.367a1.992,1.992,0,0,0-.621-1.348,1.932,1.932,0,0,0-1.379-.527,2.023,2.023,0,0,0-1.707.793,3.724,3.724,0,0,0-.605,2.293v.273a3.65,3.65,0,0,0,.6,2.25A2.033,2.033,0,0,0,125.57,39.977ZM132.124,41h-1.445V32.547h1.445Zm-1.562-10.7a.863.863,0,0,1,.215-.594.807.807,0,0,1,.637-.242.819.819,0,0,1,.641.242.854.854,0,0,1,.219.594.826.826,0,0,1-.219.586.834.834,0,0,1-.641.234.821.821,0,0,1-.637-.234A.834.834,0,0,1,130.562,30.3Zm3.492,6.391a4.993,4.993,0,0,1,.488-2.234A3.642,3.642,0,0,1,135.9,32.93a3.7,3.7,0,0,1,1.988-.539,3.565,3.565,0,0,1,2.793,1.2,4.6,4.6,0,0,1,1.066,3.18v.1a5.036,5.036,0,0,1-.473,2.215,3.589,3.589,0,0,1-1.352,1.527,3.743,3.743,0,0,1-2.02.547,3.556,3.556,0,0,1-2.785-1.2,4.575,4.575,0,0,1-1.066-3.164Zm1.453.172a3.616,3.616,0,0,0,.652,2.258,2.211,2.211,0,0,0,3.5-.012A3.954,3.954,0,0,0,140.3,36.7a3.61,3.61,0,0,0-.66-2.254,2.1,2.1,0,0,0-1.754-.863,2.075,2.075,0,0,0-1.727.852A3.925,3.925,0,0,0,135.507,36.867ZM138.546,29h1.75L138.2,31.3l-1.164,0Zm6.383,3.547.047,1.063a3.08,3.08,0,0,1,2.531-1.219q2.68,0,2.7,3.023V41h-1.445V35.406a1.946,1.946,0,0,0-.418-1.352,1.675,1.675,0,0,0-1.277-.437,2.086,2.086,0,0,0-1.234.375,2.546,2.546,0,0,0-.828.984V41h-1.445V32.547Z" transform="translate(176.701 -5941.44)" fill="#12263f"/>
  </g>
</svg>
