<svg xmlns="http://www.w3.org/2000/svg" xmlns:xlink="http://www.w3.org/1999/xlink" width="171.61" height="178.611" viewBox="0 0 171.61 178.611">
  <defs>
    <clipPath id="clip-path">
      <rect id="Rect치ngulo_37324" data-name="Rect치ngulo 37324" width="171.61" height="171.611" fill="none"/>
    </clipPath>
    <clipPath id="clip-path-2">
      <path id="Trazado_114974" data-name="Trazado 114974" d="M85.958,1.5a84.462,84.462,0,1,0,84.465,85.127c0-.223,0-.445,0-.669A84.467,84.467,0,0,0,85.961,1.5h0" transform="translate(-1.5 -1.5)" fill="none"/>
    </clipPath>
    <radialGradient id="radial-gradient" cx="0.077" cy="0.019" r="1.463" gradientTransform="translate(0 0)" gradientUnits="objectBoundingBox">
      <stop offset="0" stop-color="#f6f6f7"/>
      <stop offset="0.477" stop-color="#f9f9fa"/>
      <stop offset="0.715" stop-color="#fff"/>
      <stop offset="1" stop-color="#fff"/>
    </radialGradient>
  </defs>
  <g id="img7" transform="translate(5250.61 7349)">
    <g id="Grupo_142819" data-name="Grupo 142819" transform="translate(-5250.61 -7349)">
      <g id="Grupo_142820" data-name="Grupo 142820">
        <g id="Grupo_142819-2" data-name="Grupo 142819" clip-path="url(#clip-path)">
          <path id="Trazado_114973" data-name="Trazado 114973" d="M170.433,85.962A84.465,84.465,0,1,1,85.965,1.5h0a84.465,84.465,0,0,1,84.465,84.461" transform="translate(-0.157 -0.157)" fill="#fff"/>
        </g>
      </g>
      <g id="Grupo_142822" data-name="Grupo 142822" transform="translate(1.343 1.343)">
        <g id="Grupo_142821" data-name="Grupo 142821" clip-path="url(#clip-path-2)">
          <rect id="Rect치ngulo_37325" data-name="Rect치ngulo 37325" width="168.925" height="169.107" transform="translate(-0.001)" fill="url(#radial-gradient)"/>
        </g>
      </g>
      <g id="Grupo_142824" data-name="Grupo 142824">
        <g id="Grupo_142823" data-name="Grupo 142823" clip-path="url(#clip-path)">
          <path id="Trazado_114975" data-name="Trazado 114975" d="M170.423,85.959a84.131,84.131,0,1,0,0,.667Q170.424,86.293,170.423,85.959Z" transform="translate(-0.157 -0.157)" fill="none" stroke="#5f9025" stroke-miterlimit="10" stroke-width="3"/>
          <path id="Trazado_114976" data-name="Trazado 114976" d="M163.435,57.468c18.677,41.372-2.08,86.24-44.1,104.63-35.844,15.686-77.217,8.191-100.342-23,25.667,37.391,77.261,47.217,115.238,21.946,34.274-22.807,47.362-66.979,29.2-103.574" transform="translate(-1.983 -5.999)" fill="#eceef0"/>
          <path id="Trazado_114977" data-name="Trazado 114977" d="M42.18,118.57c-1.353-.351-1.624-.71-1.624-2.252q-.007-13.847,0-27.693a90.468,90.468,0,0,1,.5-12.9A48.812,48.812,0,0,1,79.727,34.8a48.9,48.9,0,0,1,51.564,22.955A49.573,49.573,0,0,1,138.106,83.3q-.026,22.86,0,45.72c0,1.457,0,1.457,1.508,1.457,1.195,0,2.39-.019,3.584.009a1.621,1.621,0,0,1,1.734,1.559,1.654,1.654,0,0,1-1.732,1.69c-.217.013-.434,0-.651,0q-53.216,0-106.431.014a2.443,2.443,0,0,1-2.394-1.085v-1.3a2.987,2.987,0,0,1,2.561-.9c1.148.069,2.306-.027,3.455.032.691.036.843-.21.83-.855-.039-1.943,0-3.889-.016-5.833a1.747,1.747,0,0,1,1.633-2.018,1.855,1.855,0,0,1,1.66,2.164c.029,1.846.048,3.694-.01,5.538-.027.835.266,1.047,1.059,1.029,2.134-.047,4.274-.081,6.405.011,1.1.047,1.38-.253,1.378-1.365q-.056-28.235-.027-56.472c0-3.734,2.043-5.785,5.762-5.786q16.128,0,32.256,0,14.932,0,29.866,0A5.137,5.137,0,0,1,126,72.223q.016,11.566,0,23.132c0,1.316-.618,2.066-1.686,2.1-.926.028-1.562-.8-1.564-2.052,0-3.657-.042-7.314.023-10.969.019-1.043-.256-1.323-1.31-1.322q-32.147.048-64.294.007c-.935,0-1.3.161-1.3,1.223q.05,22.533-.006,45.068c0,.854.225,1.1,1.087,1.094q9.231-.055,18.462,0c.842,0,1.111-.2,1.1-1.079-.046-4.162-.026-8.326-.016-12.489a1.621,1.621,0,0,1,1.852-1.862c1.593-.013,3.188-.048,4.778.015.834.033,1.033-.255,1.025-1.051-.037-4.09-.026-8.181-.013-12.272.005-1.539.587-2.114,2.09-2.115q14.987-.007,29.975,0c1.579,0,2.031.468,2.033,2.091.005,3.548,0,7.1,0,10.643,0,.651.014,1.3.046,1.952.024.505.248.778.823.743a15.391,15.391,0,0,1,2.387-.007c.982.095,1.287-.219,1.27-1.239-.064-3.763-.032-7.529-.02-11.294,0-1.33.688-1.969,1.852-1.793.946.142,1.4.807,1.4,2.112,0,8.833.013,17.666-.017,26.5,0,.875.188,1.2,1.126,1.168,2.1-.073,4.2-.029,6.3-.032,1.49,0,1.491,0,1.491-1.463,0-15.167.023-30.336-.02-45.5a48.361,48.361,0,0,0-.629-8.313A45.623,45.623,0,0,0,86.032,37.256a44.355,44.355,0,0,0-14.565,3.52,45.023,45.023,0,0,0-19.82,16.342,41.683,41.683,0,0,0-7.686,22.814c-.252,11.868-.092,23.746-.109,35.619,0,.362.017.725-.011,1.085-.08,1.044-.5,1.808-1.66,1.934M89.44,76.586v-.008H57.949c-2.112,0-2.068,0-2.125,2.1-.024.914.172,1.241,1.177,1.24q31.87-.047,63.742-.028c2.064,0,2.013-.015,2.081-2.053.031-.971-.216-1.277-1.24-1.273-10.714.039-21.429.024-32.143.024m-.184-3.179h30.626c.76,0,1.521,0,2.281-.012.243,0,.484.025.615-.3a2.283,2.283,0,0,0-1.633-2.954,11.049,11.049,0,0,0-1.626-.04q-28.02,0-56.04,0c-1.81,0-3.62.009-5.43,0a2,2,0,0,0-2.027,1.165c-.646,1.391-.181,2.147,1.3,2.147h31.93m10.273,35.572V105.4c0-2.461,0-2.461-2.447-2.467-1.777,0-1.777,0-1.874,1.712a1.9,1.9,0,0,1-.038.431,1.6,1.6,0,0,1-1.729,1.323,1.558,1.558,0,0,1-1.546-1.514c-.081-.632.294-1.524-.187-1.837s-1.324-.1-2.006-.115c-.47-.007-.943.031-1.41-.009-.576-.05-.825.092-.819.75.031,3.541.024,7.084,0,10.627,0,.541.12.753.716.747q5.313-.05,10.627-.018c.586,0,.728-.186.719-.739-.03-1.771-.012-3.542-.012-5.313m15.42.065v-3.9c0-2.19,0-2.2-2.164-2.2-.681,0-1.494-.18-2,.127-.444.269-.086,1.137-.159,1.735-.009.072-.005.145-.019.216a1.65,1.65,0,0,1-1.788,1.387,1.553,1.553,0,0,1-1.5-1.561,8.754,8.754,0,0,1-.005-1.3c.039-.476-.137-.631-.611-.616-1.011.03-2.026.048-3.035-.005-.641-.034-.778.206-.774.8q.035,5.26,0,10.519c0,.576.108.82.763.813q5.258-.056,10.519-.019c.612,0,.8-.166.785-.783-.039-1.734-.013-3.47-.013-5.2M85.816,130.532v0c1.7,0,3.4-.052,5.1.021.895.039,1.083-.286,1.069-1.111-.045-2.784-.017-5.569-.017-8.353,0-2.808,0-2.808-2.8-2.809-1.74,0-1.74,0-1.8,1.756a1.583,1.583,0,0,1-1.429,1.72,1.656,1.656,0,0,1-1.688-1.5c-.127-.643.364-1.538-.321-1.884a5.031,5.031,0,0,0-2.031-.09c-.4-.005-.8.034-1.193-.009-.723-.078-1.014.14-1,.938.041,3.471.034,6.943,0,10.414-.006.7.2.946.914.927,1.735-.046,3.471-.015,5.207-.015m21.573-6.121v-3.688c0-2.443,0-2.443-2.408-2.447-2.012,0-2.021,0-2.2,2.01a1.445,1.445,0,0,1-1.358,1.441,1.41,1.41,0,0,1-1.668-1.2,6.414,6.414,0,0,1-.1-1.506c.02-.562-.193-.771-.755-.753-.976.03-1.955.045-2.929-.005-.677-.034-.86.218-.854.87q.039,5.262,0,10.524c0,.631.146.9.839.889,3.544-.032,7.088-.029,10.632-.009.613,0,.819-.2.809-.811-.03-1.771-.011-3.543-.01-5.316m3.161-.016c0,1.7.037,3.4-.016,5.1-.024.779.159,1.071,1.008,1.059,3.435-.05,6.871-.044,10.306-.009.761.007.989-.219.978-.98-.04-2.856-.016-5.713-.016-8.57,0-2.716,0-2.716-2.68-2.717-1.833,0-1.85,0-1.924,1.847a1.515,1.515,0,0,1-1.42,1.617,1.607,1.607,0,0,1-1.7-1.47c-.134-.648.368-1.546-.305-1.9a4.922,4.922,0,0,0-2.03-.094c-.469-.005-.942.031-1.41-.008-.623-.053-.809.207-.8.811.03,1.772.012,3.543.011,5.315" transform="translate(-3.52 -3.53)" fill="#12263f"/>
          <path id="Trazado_114978" data-name="Trazado 114978" d="M93.571,64.439q-8.09,0-16.181,0c-1.984,0-2.447-.458-2.449-2.4,0-2.389-.008-4.778,0-7.167.006-1.387.5-1.875,1.907-1.883q2.986-.016,5.973,0c1.073.008,1.762.608,1.768,1.486a1.69,1.69,0,0,1-1.769,1.677c-1.229.039-2.464.061-3.691-.005-.841-.046-1.072.272-1.02,1.06a17.46,17.46,0,0,1,0,2.712c-.092,1.019.218,1.355,1.294,1.351,9.049-.044,18.1-.023,27.15-.028,2.667,0,2.667-.008,2.667-2.683,0-2.476,0-2.481-2.433-2.483q-8.47-.007-16.942-.008c-1.284,0-1.808-.431-1.867-1.454A1.408,1.408,0,0,1,89.345,53a6.7,6.7,0,0,1,.759-.016q9.991,0,19.982,0c1.834,0,2.228.393,2.23,2.216q0,3.422,0,6.842c0,1.936-.468,2.394-2.456,2.395q-8.144,0-16.29,0" transform="translate(-7.822 -5.53)" fill="#12263f"/>
          <path id="Trazado_114979" data-name="Trazado 114979" d="M94.806,46.825c-2.241,0-4.48.006-6.72,0-1.125,0-1.861-.588-1.911-1.479a1.767,1.767,0,0,1,1.849-1.724q6.774-.032,13.547,0a1.77,1.77,0,0,1,1.857,1.718c-.045.89-.782,1.48-1.9,1.485-2.239.01-4.478,0-6.718,0" transform="translate(-8.995 -4.551)" fill="#12263f"/>
        </g>
      </g>
    </g>
    <g id="Grupo_142818" data-name="Grupo 142818" transform="translate(-5143.5 -7211.295)">
      <path id="Trazado_113904" data-name="Trazado 113904" d="M309.419,201.1c-8.869,6.141-15.468,15.175-21.286,23.147a2.193,2.193,0,0,0-.3,2.034,2.126,2.126,0,0,0,1.5,1.385,44.14,44.14,0,0,0,31.232-3.646A44.631,44.631,0,0,0,341.4,200.314a2.2,2.2,0,0,0,.141-.844,2.234,2.234,0,0,0,.209-.38,2.2,2.2,0,0,0-.048-1.873,2.16,2.16,0,0,0-1.083-1.02C331.429,192.258,319.473,194.14,309.419,201.1Z" transform="translate(-287.289 -191.596)" fill="#9fbe37"/>
      <path id="Trazado_113905" data-name="Trazado 113905" d="M295.094,214.6a.741.741,0,0,0,.613.85l.084.015c2.578.419,5.166.766,7.754,1.1,1.361.182,2.728.338,4.1.491q-2.97,1.584-5.95,3.159-6.856,3.6-13.769,7.107l-.006,0a.642.642,0,0,0,.541,1.164c4.789-2.013,9.48-4.215,14.137-6.494,2.148-1.047,4.278-2.136,6.4-3.237-.23.476-.461.951-.7,1.427l-2.109,4.343c-1.37,2.914-2.734,5.83-4,8.8a.644.644,0,0,0,1.149.577c1.624-2.785,3.15-5.621,4.669-8.459l2.226-4.284c.712-1.4,1.451-2.776,2.139-4.182,1.343-.715,2.692-1.424,4.032-2.145,1.591-.879,3.168-1.789,4.744-2.7l-.82,2.917c-.464,1.69-.96,3.374-1.4,5.073-.9,3.392-1.786,6.787-2.57,10.212a.642.642,0,0,0,1.232.356c1.167-3.314,2.229-6.659,3.281-10.006.539-1.669,1.017-3.356,1.529-5.034l1.5-5.043.015-.075q2.979-1.75,5.926-3.56c.843-.532,1.681-1.074,2.519-1.615-.344,2.354-.7,4.705-.981,7.072-.383,2.952-.742,5.911-1.026,8.878a.643.643,0,0,0,1.268.2c.622-2.917,1.173-5.845,1.7-8.777.556-2.926.987-5.872,1.487-8.806a1.6,1.6,0,0,0,0-.171c2.68-1.789,11.406-7.239,13.982-9.18a.7.7,0,0,0-.8-1.149l-.009.006c-2.89,1.864-11.881,7.293-14.813,9.091-3.114-.622-6.24-1.179-9.36-1.756-3.386-.574-6.769-1.149-10.179-1.6a.7.7,0,0,0-.266,1.376c3.332.847,6.689,1.573,10.045,2.3,2.315.467,4.631.936,6.949,1.391-.529.32-1.056.652-1.588.969q-3.32,1.952-6.659,3.871c-2.821-.377-5.642-.781-8.471-1.107-3.12-.377-6.246-.733-9.381-1a.7.7,0,0,0-.2,1.388c3.087.613,6.189,1.137,9.291,1.642,1.855.311,3.715.586,5.576.858-1.2.673-2.39,1.358-3.6,2.016-1.412.79-2.839,1.555-4.263,2.327-2.435-.23-4.864-.494-7.3-.682q-3.446-.278-6.9-.47a.668.668,0,0,0-.3-.072l-.739.006A.742.742,0,0,0,295.094,214.6Z" transform="translate(-287.565 -193.309)" fill="#507533"/>
    </g>
  </g>
</svg>
